<svg width="736" height="171" viewBox="0 0 736 171" fill="none" xmlns="http://www.w3.org/2000/svg">
<line y1="33.5" x2="736" y2="33.5" stroke="#1C1A1A"/>
<line y1="58.5" x2="736" y2="58.5" stroke="#1C1A1A"/>
<line y1="83.5" x2="736" y2="83.5" stroke="#1C1A1A"/>
<line y1="108.5" x2="736" y2="108.5" stroke="#1C1A1A"/>
<line y1="133.5" x2="736" y2="133.5" stroke="#1C1A1A"/>
<path d="M33.0196 96.6936C30.4448 97.5402 28.317 98.9688 26.636 100.981C24.9547 102.991 23.9303 105.188 23.5625 107.57C23.1947 109.951 23.4969 112.306 24.4688 114.635C25.4407 116.964 27.2664 118.843 29.9456 120.272C30.5761 120.272 30.9699 120.537 31.128 121.066C31.2852 121.595 31.0485 121.859 30.419 121.859C27.8443 121.33 25.5852 120.245 23.6414 118.605C20.0163 115.588 18.02 111.698 17.6522 106.935C17.4421 104.553 17.6653 102.251 18.3221 100.028C18.9787 97.8046 19.885 95.7669 21.0408 93.9144C22.4592 91.9568 24.1404 90.2627 26.0843 88.834C26.1893 88.7279 26.4915 88.4904 26.9905 88.1197C27.4896 87.749 27.9755 87.4054 28.4484 87.0878C28.9213 86.7702 29.6304 86.2673 30.5761 85.579L27.6604 71.4479C25.0861 73.6179 22.5381 76.0123 20.0164 78.6322C17.4946 81.252 15.2092 84.0181 13.1603 86.9285C11.1115 89.8399 9.46968 92.9226 8.23502 96.1776C7.00047 99.4326 6.38319 102.859 6.38319 106.459C6.38319 109.793 7.07923 112.929 8.47151 115.866C9.86369 118.803 11.7156 121.357 14.0272 123.526C16.3388 125.696 19.005 127.403 22.0258 128.648C25.0467 129.891 28.1069 130.513 31.2066 130.513C31.312 130.513 31.7973 130.46 32.6645 130.354C33.5317 130.249 34.4506 130.116 35.4222 129.957C36.3948 129.799 37.2879 129.626 38.1024 129.441C38.9159 129.256 39.3236 129.057 39.3236 128.846L38.8502 126.623C36.8016 116.197 34.8574 106.22 33.0196 96.6936ZM35.7773 96.376L42.2394 127.893C45.9697 126.464 48.4907 124.016 49.8045 120.55C51.1182 117.083 51.4195 113.564 50.7104 109.991C50.0014 106.419 48.3336 103.256 45.7062 100.504C43.0798 97.7515 39.7701 96.376 35.7773 96.376ZM27.5028 53.9034C29.1311 53.0559 30.6417 51.7865 32.034 50.0924C33.4263 48.3993 34.7132 46.5859 35.8956 44.6543C37.077 42.7228 38.1024 40.7511 38.9686 38.7394C39.8357 36.7287 40.5319 34.9033 41.057 33.2623C41.6348 31.516 42.0286 29.5574 42.2394 27.3874C42.4493 25.2174 42.1081 23.392 41.2151 21.9093C40.5846 20.5868 39.7572 19.8194 38.7329 19.607C37.7076 19.3956 36.6832 19.4748 35.6589 19.8455C34.6346 20.2161 33.663 20.8112 32.7431 21.6318C31.8242 22.4523 31.1539 23.1796 30.7342 23.8148C29.5776 25.8786 28.5663 28.1809 27.6998 30.7216C26.8329 33.2623 26.2418 35.8951 25.9267 38.6212C25.6114 41.3462 25.5721 43.9661 25.8085 46.4807C26.0448 48.9944 26.6096 51.4689 27.5028 53.9034ZM25.1387 56.364C24.2455 52.8715 23.4575 49.4442 22.7745 46.083C22.0915 42.7228 21.7501 39.2694 21.7501 35.7228C21.7501 33.13 21.9339 30.2848 22.3017 27.189C22.6694 24.0933 23.3392 21.0757 24.3112 18.1383C25.2831 15.2009 26.6227 12.568 28.3302 10.2397C30.0381 7.91038 32.3095 6.21725 35.1468 5.15829C35.4093 5.0531 35.6718 5 35.9344 5C36.3023 5 36.7359 5.21139 37.2352 5.63517C37.7344 6.05796 38.2595 6.68011 38.8114 7.50062C39.3624 8.32114 39.8487 9.16771 40.2693 10.0413C40.689 10.9139 41.0043 11.51 41.2151 11.8276C42.6332 14.5266 43.6705 17.3979 44.3278 20.4406C44.9842 23.4842 45.3651 26.5138 45.4705 29.5304C45.6803 34.0828 45.4307 38.5811 44.7216 43.0273C44.0126 47.4725 42.5805 51.8126 40.4265 56.0464C39.6915 57.3168 38.9427 58.6001 38.1809 59.8965C37.4192 61.1939 36.5132 62.4502 35.462 63.6675C35.2522 63.8799 34.8713 64.2636 34.3193 64.8186C33.7674 65.3747 33.2025 65.9437 32.6247 66.5258C32.0469 67.1079 31.5348 67.6509 31.0883 68.1528C30.6417 68.6557 30.419 68.9603 30.419 69.0665L33.6491 84.9438C33.6699 85.048 35.2651 84.9438 35.2651 84.9438C38.348 84.9829 41.6119 85.4859 44.4462 86.6109C47.178 87.8813 49.529 89.6275 51.4991 91.8506C53.4691 94.0737 55.0444 96.5744 56.2268 99.3525C57.4093 102.132 58 104.95 58 107.808C58 110.665 57.5793 113.577 56.739 116.54C54.5849 122.151 51.144 126.305 46.4162 129.004C45.8902 129.322 45.1413 129.68 44.1697 130.076C43.1981 130.473 42.8172 131.095 43.027 131.942C44.2881 137.708 45.1413 141.676 45.5888 143.85C46.0354 146.024 46.3635 148.829 46.5734 152.265C46.7832 155.551 46.2183 158.507 44.8788 161.152C43.5392 163.807 41.7402 165.961 39.4807 167.624C37.2222 169.297 35.1597 170.269 33.295 170.569C31.4294 170.86 30.1554 171 29.4732 171C27.1087 171 24.7972 170.549 22.5381 169.648C19.7536 168.596 17.4158 166.983 15.5245 164.809C13.6332 162.635 12.6875 159.99 12.6875 156.874C12.6875 154.91 13.2523 152.897 14.3818 150.833C15.5114 148.769 16.9955 147.286 18.8342 146.395C20.8832 145.333 22.7351 145.042 24.39 145.513C26.0448 145.994 27.4108 146.895 28.4878 148.218C29.5647 149.54 30.3136 151.143 30.7342 153.017C31.1539 154.9 31.128 156.653 30.6547 158.297C30.1823 159.94 29.2236 161.332 27.7786 162.464C26.3338 163.606 24.3243 164.117 21.7501 164.017C22.8007 165.921 24.2718 167.123 26.1631 167.624C28.0544 168.135 29.9983 168.165 31.9942 167.744C33.9912 167.323 35.8688 166.542 37.629 165.4C39.3892 164.268 40.7686 163.035 41.766 161.713C42.3965 160.761 42.8699 159.519 43.1852 157.986C43.5004 156.443 43.6844 154.85 43.7361 153.177C43.7888 151.514 43.7361 150.212 43.579 149.29C43.4209 148.358 43.1583 146.915 42.7904 144.962C41.2151 138.56 40.2166 134.533 39.796 132.89C39.5861 132.366 39.0213 132.193 38.1024 132.379C37.1825 132.564 36.4078 132.736 35.7773 132.89C31.2593 133.481 27.4765 133.21 24.4294 132.101C19.7011 130.831 15.5376 128.568 11.9389 125.313C8.34014 122.058 5.45067 118.115 3.27036 113.484C1.09015 108.853 0 105.334 0 102.925C0 100.518 0 98.9958 0 98.3607C0 94.0737 0.73552 90.0513 2.20656 86.2933C4.99092 80.4185 8.28763 75.0205 12.0965 70.0984C15.9054 65.1763 20.2528 60.5978 25.1387 56.364Z" fill="#1C1A1A"/>
<path d="M376.097 44.5145C370.453 42.8054 366 38.1609 366 33.9836C366 22.1601 391.813 17.4812 402.473 27.3725C414 38.0687 395.188 50.2953 376.097 44.5145H376.097ZM393.315 41.5442C396.455 36.8287 393.453 27.486 388.013 25.0476C380.025 21.4667 375.129 27.5689 378.456 36.9586C380.757 43.4532 390.119 46.3425 393.315 41.5442Z" fill="#1C1A1A"/>
<path d="M348.523 43.5005V26.6585L355.368 24.6821V41.4382L348.523 43.5005ZM362 39.426L357.294 40.8367V24.0806L362 22.7058V15.7456L357.294 17.1204V0H355.368V17.6396L348.523 19.6983V3.05046H346.706V20.332L342 21.7104V28.685L346.706 27.3101V44.0339L342 45.4052V52.3511L346.706 50.9762V68H348.523V50.3676L355.368 48.3984V64.9603H357.294V47.7754L362 46.397V39.426Z" fill="#1C1A1A"/>
</svg>
