<svg width="870.2" height="196" viewBox="0 0 870.2 196" fill="none" xmlns="http://www.w3.org/2000/svg">
<line y1="58.5" x2="870.2" y2="58.5" stroke="#1C1A1A"/>
<line y1="83.5" x2="870.2" y2="83.5" stroke="#1C1A1A"/>
<line y1="108.5" x2="870.2" y2="108.5" stroke="#1C1A1A"/>
<line y1="133.5" x2="870.2" y2="133.5" stroke="#1C1A1A"/>
<line y1="158.5" x2="870.2" y2="158.5" stroke="#1C1A1A"/>
<line x1="360" y1="33.5" x2="412" y2="33.5" stroke="#1C1A1A"/>
<path d="M33.0196 121.694C30.4448 122.54 28.317 123.969 26.636 125.981C24.9547 127.991 23.9303 130.188 23.5625 132.57C23.1947 134.951 23.4969 137.306 24.4688 139.635C25.4407 141.964 27.2664 143.843 29.9456 145.272C30.5761 145.272 30.9699 145.537 31.128 146.066C31.2852 146.595 31.0485 146.859 30.419 146.859C27.8443 146.33 25.5852 145.245 23.6414 143.605C20.0163 140.588 18.02 136.698 17.6522 131.935C17.4421 129.553 17.6653 127.251 18.3221 125.028C18.9787 122.805 19.885 120.767 21.0408 118.914C22.4592 116.957 24.1404 115.263 26.0843 113.834C26.1893 113.728 26.4915 113.49 26.9905 113.12C27.4896 112.749 27.9755 112.405 28.4484 112.088C28.9213 111.77 29.6304 111.267 30.5761 110.579L27.6604 96.4479C25.0861 98.6179 22.5381 101.012 20.0164 103.632C17.4946 106.252 15.2092 109.018 13.1603 111.929C11.1115 114.84 9.46968 117.923 8.23502 121.178C7.00047 124.433 6.38319 127.859 6.38319 131.459C6.38319 134.793 7.07923 137.929 8.47151 140.866C9.86369 143.803 11.7156 146.357 14.0272 148.526C16.3388 150.696 19.005 152.403 22.0258 153.648C25.0467 154.891 28.1069 155.513 31.2066 155.513C31.312 155.513 31.7973 155.46 32.6645 155.354C33.5317 155.249 34.4506 155.116 35.4222 154.957C36.3948 154.799 37.2879 154.626 38.1024 154.441C38.9159 154.256 39.3236 154.057 39.3236 153.846L38.8502 151.623C36.8016 141.197 34.8574 131.22 33.0196 121.694ZM35.7773 121.376L42.2394 152.893C45.9697 151.464 48.4907 149.016 49.8045 145.55C51.1182 142.083 51.4195 138.564 50.7104 134.991C50.0014 131.419 48.3336 128.256 45.7062 125.504C43.0798 122.752 39.7701 121.376 35.7773 121.376ZM27.5028 78.9034C29.1311 78.0559 30.6417 76.7865 32.034 75.0924C33.4263 73.3993 34.7132 71.5859 35.8956 69.6543C37.077 67.7228 38.1024 65.7511 38.9686 63.7394C39.8357 61.7287 40.5319 59.9033 41.057 58.2623C41.6348 56.516 42.0286 54.5574 42.2394 52.3874C42.4493 50.2174 42.1081 48.392 41.2151 46.9093C40.5846 45.5868 39.7572 44.8194 38.7329 44.607C37.7076 44.3956 36.6832 44.4748 35.6589 44.8455C34.6346 45.2161 33.663 45.8112 32.7431 46.6318C31.8242 47.4523 31.1539 48.1796 30.7342 48.8148C29.5776 50.8786 28.5663 53.1809 27.6998 55.7216C26.8329 58.2623 26.2418 60.8951 25.9267 63.6212C25.6114 66.3462 25.5721 68.9661 25.8085 71.4807C26.0448 73.9944 26.6096 76.4689 27.5028 78.9034ZM25.1387 81.364C24.2455 77.8715 23.4575 74.4442 22.7745 71.083C22.0915 67.7228 21.7501 64.2694 21.7501 60.7228C21.7501 58.13 21.9339 55.2848 22.3017 52.189C22.6694 49.0933 23.3392 46.0757 24.3112 43.1383C25.2831 40.2009 26.6227 37.568 28.3302 35.2397C30.0381 32.9104 32.3095 31.2173 35.1468 30.1583C35.4093 30.0531 35.6718 30 35.9344 30C36.3023 30 36.7359 30.2114 37.2352 30.6352C37.7344 31.058 38.2595 31.6801 38.8114 32.5006C39.3624 33.3211 39.8487 34.1677 40.2693 35.0413C40.689 35.9139 41.0043 36.51 41.2151 36.8276C42.6332 39.5266 43.6705 42.3979 44.3278 45.4406C44.9842 48.4842 45.3651 51.5138 45.4705 54.5304C45.6803 59.0828 45.4307 63.5811 44.7216 68.0273C44.0126 72.4725 42.5805 76.8126 40.4265 81.0464C39.6915 82.3168 38.9427 83.6001 38.1809 84.8965C37.4192 86.1939 36.5132 87.4502 35.462 88.6675C35.2522 88.8799 34.8713 89.2636 34.3193 89.8186C33.7674 90.3747 33.2025 90.9437 32.6247 91.5258C32.0469 92.1079 31.5348 92.6509 31.0883 93.1528C30.6417 93.6557 30.419 93.9603 30.419 94.0665L33.6491 109.944C33.6699 110.048 35.2651 109.944 35.2651 109.944C38.348 109.983 41.6119 110.486 44.4462 111.611C47.178 112.881 49.529 114.628 51.4991 116.851C53.4691 119.074 55.0444 121.574 56.2268 124.353C57.4093 127.132 58 129.95 58 132.808C58 135.665 57.5793 138.577 56.739 141.54C54.5849 147.151 51.144 151.305 46.4162 154.004C45.8902 154.322 45.1413 154.68 44.1697 155.076C43.1981 155.473 42.8172 156.095 43.027 156.942C44.2881 162.708 45.1413 166.676 45.5888 168.85C46.0354 171.024 46.3635 173.829 46.5734 177.265C46.7832 180.551 46.2183 183.507 44.8788 186.152C43.5392 188.807 41.7402 190.961 39.4807 192.624C37.2222 194.297 35.1597 195.269 33.295 195.569C31.4294 195.86 30.1554 196 29.4732 196C27.1087 196 24.7972 195.549 22.5381 194.648C19.7536 193.596 17.4158 191.983 15.5245 189.809C13.6332 187.635 12.6875 184.99 12.6875 181.874C12.6875 179.91 13.2523 177.897 14.3818 175.833C15.5114 173.769 16.9955 172.286 18.8342 171.395C20.8832 170.333 22.7351 170.042 24.39 170.513C26.0448 170.994 27.4108 171.895 28.4878 173.218C29.5647 174.54 30.3136 176.143 30.7342 178.017C31.1539 179.9 31.128 181.653 30.6547 183.297C30.1823 184.94 29.2236 186.332 27.7786 187.464C26.3338 188.606 24.3243 189.117 21.7501 189.017C22.8007 190.921 24.2718 192.123 26.1631 192.624C28.0544 193.135 29.9983 193.165 31.9942 192.744C33.9912 192.323 35.8688 191.542 37.629 190.4C39.3892 189.268 40.7686 188.035 41.766 186.713C42.3965 185.761 42.8699 184.519 43.1852 182.986C43.5004 181.443 43.6844 179.85 43.7361 178.177C43.7888 176.514 43.7361 175.212 43.579 174.29C43.4209 173.358 43.1583 171.915 42.7904 169.962C41.2151 163.56 40.2166 159.533 39.796 157.89C39.5861 157.366 39.0213 157.193 38.1024 157.379C37.1825 157.564 36.4078 157.736 35.7773 157.89C31.2593 158.481 27.4765 158.21 24.4294 157.101C19.7011 155.831 15.5376 153.568 11.9389 150.313C8.34014 147.058 5.45067 143.115 3.27036 138.484C1.09015 133.853 0 130.334 0 127.925C0 125.518 0 123.996 0 123.361C0 119.074 0.73552 115.051 2.20656 111.293C4.99092 105.418 8.28763 100.02 12.0965 95.0984C15.9054 90.1763 20.2528 85.5978 25.1387 81.364Z" fill="#1C1A1A"/>
<path d="M376.097 44.5145C370.453 42.8054 366 38.1609 366 33.9836C366 22.1601 391.813 17.4812 402.473 27.3725C414 38.0687 395.188 50.2953 376.097 44.5145H376.097ZM393.315 41.5442C396.455 36.8287 393.453 27.486 388.013 25.0476C380.025 21.4667 375.129 27.5689 378.456 36.9586C380.757 43.4532 390.119 46.3425 393.315 41.5442Z" fill="#1C1A1A"/>
<path d="M348.523 43.5005V26.6585L355.368 24.6821V41.4382L348.523 43.5005ZM362 39.426L357.294 40.8367V24.0806L362 22.7058V15.7456L357.294 17.1204V0H355.368V17.6396L348.523 19.6983V3.05046H346.706V20.332L342 21.7104V28.685L346.706 27.3101V44.0339L342 45.4052V52.3511L346.706 50.9762V68H348.523V50.3676L355.368 48.3984V64.9603H357.294V47.7754L362 46.397V39.426Z" fill="#1C1A1A"/>
</svg>
