<svg width="870.2" height="196" viewBox="0 0 870.2 196" fill="none" xmlns="http://www.w3.org/2000/svg">
<line x1="1" y1="58.5" x2="870.2" y2="58.5" stroke="#1C1A1A"/>
<line x1="1" y1="83.5" x2="870.2" y2="83.5" stroke="#1C1A1A"/>
<line x1="1" y1="108.5" x2="870.2" y2="108.5" stroke="#1C1A1A"/>
<line x1="1" y1="133.5" x2="870.2" y2="133.5" stroke="#1C1A1A"/>
<line x1="1" y1="158.5" x2="870.2" y2="158.5" stroke="#1C1A1A"/>
<line x1="361" y1="33.5" x2="413" y2="33.5" stroke="#1C1A1A"/>
<path d="M377.097 44.5145C371.453 42.8054 367 38.1609 367 33.9836C367 22.1601 392.813 17.4812 403.473 27.3725C415 38.0687 396.188 50.2953 377.097 44.5145H377.097ZM394.315 41.5442C397.455 36.8287 394.453 27.486 389.013 25.0476C381.025 21.4667 376.129 27.5689 379.456 36.9586C381.757 43.4532 391.119 46.3425 394.315 41.5442Z" fill="#1C1A1A"/>
<path d="M349.523 43.5005V26.6585L356.368 24.6821V41.4382L349.523 43.5005ZM363 39.426L358.294 40.8367V24.0806L363 22.7058V15.7456L358.294 17.1204V0H356.368V17.6396L349.523 19.6983V3.05046H347.706V20.332L343 21.7104V28.685L347.706 27.3101V44.0339L343 45.4052V52.3511L347.706 50.9762V68H349.523V50.3676L356.368 48.3984V64.9603H358.294V47.7754L363 46.397V39.426Z" fill="#1C1A1A"/>
<path d="M27.1226 132.24C24.7962 134.193 12.4703 141.891 4.9764 143C7.10156 141.891 7.77263 141.225 13.5888 137.565C19.306 133.967 26.3397 126.694 32.2677 119.817C37.0101 114.315 39.9108 105.619 40.7683 101.959C42.2894 98.3203 42.2223 90.1638 41.9986 86.5403C41.9613 83.0278 40.4104 74.605 34.5047 69.0145C27.1226 62.0264 19.6287 65.9087 18.2865 66.3524C16.9443 66.7961 12.3585 70.0128 11.0163 72.8968C9.94251 75.204 10.5689 75.9287 11.0163 76.0026C15.273 74.117 19.3501 75.2001 21.8721 77.0009C24.6684 78.9976 27.0172 81.9925 26.7935 86.5403C26.6146 90.1786 24.824 92.8629 23.4818 94.194C20.6855 97.2998 16.1986 97.6326 13.7007 97.6326C7.66078 97.2998 3.86507 92.9743 3.07496 91.6428C2.74586 91.0881 -0.391563 86.0966 1.73276 77.4446C3.48062 70.326 10.1588 64.7625 13.477 62.9138C24.1027 57.4785 31.5966 58.7295 36.4062 60.5844C42.446 62.9138 49.9901 70.1237 51.8414 76.4463C53.6927 82.7689 54.6376 87.7605 53.5191 93.8612C52.4006 99.962 50.8348 104.177 45.1304 113.384C39.4261 122.59 30.0307 129.8 27.1226 132.24Z" fill="black"/>
<path d="M4.9764 143L4.74504 142.557C4.52868 142.67 4.42547 142.922 4.50085 143.154C4.57623 143.387 4.80818 143.53 5.04961 143.495L4.9764 143ZM27.1226 132.24L26.8012 131.857L27.1226 132.24ZM45.1304 113.384L45.5555 113.647L45.1304 113.384ZM51.8414 76.4463L52.3213 76.3058L51.8414 76.4463ZM36.4062 60.5844L36.5861 60.1179V60.1179L36.4062 60.5844ZM13.477 62.9138L13.2493 62.4686L13.2414 62.4727L13.2336 62.477L13.477 62.9138ZM1.73276 77.4446L2.21834 77.5639L1.73276 77.4446ZM3.07496 91.6428L2.64496 91.8979H2.64496L3.07496 91.6428ZM13.7007 97.6326L13.6732 98.1318L13.6869 98.1326H13.7007V97.6326ZM23.4818 94.194L23.1297 93.839L23.1196 93.8489L23.1102 93.8594L23.4818 94.194ZM26.7935 86.5403L26.2941 86.5157L26.7935 86.5403ZM21.8721 77.0009L22.1627 76.594L21.8721 77.0009ZM11.0163 76.0026L10.9347 76.496L11.0822 76.5203L11.2188 76.4598L11.0163 76.0026ZM11.0163 72.8968L11.4696 73.1078L11.0163 72.8968ZM18.2865 66.3524L18.4434 66.8271L18.2865 66.3524ZM34.5047 69.0145L34.161 69.3776L34.5047 69.0145ZM41.9986 86.5403L41.4986 86.5456L41.4988 86.5584L41.4996 86.5711L41.9986 86.5403ZM40.7683 101.959L40.307 101.766L40.2909 101.804L40.2814 101.845L40.7683 101.959ZM32.2677 119.817L31.889 119.491L32.2677 119.817ZM13.5888 137.565L13.8551 137.988L13.5888 137.565ZM5.04961 143.495C8.8889 142.926 13.9096 140.687 18.2233 138.377C22.5423 136.065 26.2412 133.633 27.444 132.624L26.8012 131.857C25.6776 132.8 22.0503 135.194 17.7513 137.496C13.447 139.8 8.55782 141.964 4.90319 142.505L5.04961 143.495ZM27.444 132.624C30.3278 130.204 39.7992 122.937 45.5555 113.647L44.7054 113.12C39.053 122.243 29.7337 129.397 26.8012 131.857L27.444 132.624ZM45.5555 113.647C51.2815 104.405 52.8779 100.131 54.0109 93.9514L53.0273 93.771C51.9234 99.7925 50.388 103.949 44.7054 113.12L45.5555 113.647ZM54.0109 93.9514C55.1504 87.7362 54.1803 82.655 52.3213 76.3058L51.3615 76.5868C53.205 82.8829 54.1249 87.7847 53.0273 93.771L54.0109 93.9514ZM52.3213 76.3058C51.3632 73.0339 48.9526 69.5806 46.0488 66.6651C43.1422 63.7467 39.689 61.3146 36.5861 60.1179L36.2262 61.0509C39.1631 62.1835 42.502 64.5211 45.3402 67.3707C48.1812 70.2231 50.4683 73.5362 51.3615 76.5868L52.3213 76.3058ZM36.5861 60.1179C31.6555 58.2163 24.0124 56.9631 13.2493 62.4686L13.7047 63.3589C24.1929 57.994 31.5377 59.2427 36.2262 61.0509L36.5861 60.1179ZM13.2336 62.477C11.5252 63.4288 8.98435 65.3161 6.64743 67.8651C4.31098 70.4136 2.14795 73.6568 1.24718 77.3254L2.21834 77.5639C3.06543 74.1138 5.11541 71.0159 7.38454 68.5408C9.65322 66.0663 12.1106 64.2474 13.7203 63.3505L13.2336 62.477ZM1.24718 77.3254C-0.921034 86.1562 2.2821 91.2864 2.64496 91.8979L3.50495 91.3876C3.20962 90.8899 0.137908 86.0371 2.21834 77.5639L1.24718 77.3254ZM2.64496 91.8979C3.07914 92.6296 4.27552 94.0937 6.12826 95.4189C7.98869 96.7496 10.5371 97.959 13.6732 98.1318L13.7282 97.1333C10.8244 96.9734 8.45496 95.8536 6.71003 94.6055C4.95742 93.3519 3.86089 91.9874 3.50495 91.3876L2.64496 91.8979ZM13.7007 98.1326C16.2027 98.1326 20.8984 97.8107 23.8534 94.5285L23.1102 93.8594C20.4727 96.7889 16.1946 97.1326 13.7007 97.1326V98.1326ZM23.8339 94.549C25.2438 93.1507 27.1065 90.3543 27.2929 86.5649L26.2941 86.5157C26.1226 90.0028 24.4041 92.5751 23.1297 93.839L23.8339 94.549ZM27.2929 86.5649C27.5276 81.7942 25.0481 78.6543 22.1627 76.594L21.5816 77.4079C24.2887 79.3408 26.5069 82.1907 26.2941 86.5157L27.2929 86.5649ZM22.1627 76.594C19.5206 74.7075 15.2573 73.5771 10.8138 75.5455L11.2188 76.4598C15.2888 74.6568 19.1796 75.6928 21.5816 77.4079L22.1627 76.594ZM11.0978 75.5093C11.097 75.5092 11.0748 75.5052 11.0451 75.4727C11.0162 75.4412 10.9654 75.3659 10.9393 75.2065C10.8847 74.8729 10.9497 74.2249 11.4696 73.1078L10.563 72.6858C10.0091 73.876 9.85035 74.7439 9.95239 75.3679C10.0595 76.0228 10.466 76.4185 10.9347 76.496L11.0978 75.5093ZM11.4696 73.1078C12.0918 71.7709 13.5011 70.3042 14.9692 69.0955C15.6953 68.4977 16.4202 67.9757 17.0424 67.5778C17.6759 67.1727 18.1704 66.9173 18.4434 66.8271L18.1296 65.8776C17.7315 66.0092 17.1494 66.3224 16.5037 66.7353C15.8466 67.1555 15.0895 67.7011 14.3336 68.3235C12.8377 69.5551 11.283 71.1387 10.563 72.6858L11.4696 73.1078ZM18.4434 66.8271C19.1825 66.5828 21.2815 65.5438 24.1563 65.3958C26.9978 65.2496 30.579 65.9869 34.161 69.3776L34.8484 68.6514C31.0483 65.054 27.1915 64.2383 24.1049 64.3972C21.0517 64.5543 18.7327 65.6783 18.1296 65.8776L18.4434 66.8271ZM34.161 69.3776C39.9317 74.8404 41.4622 83.1084 41.4986 86.5456L42.4986 86.535C42.4605 82.9471 40.889 74.3696 34.8484 68.6514L34.161 69.3776ZM41.4996 86.5711C41.6105 88.3674 41.6827 91.2937 41.5384 94.2193C41.393 97.1656 41.0305 100.035 40.307 101.766L41.2296 102.151C42.0272 100.244 42.3917 97.2159 42.5372 94.2685C42.6836 91.3004 42.6105 88.3367 42.4977 86.5095L41.4996 86.5711ZM40.2814 101.845C39.4308 105.476 36.5535 114.079 31.889 119.491L32.6464 120.144C37.4668 114.551 40.3908 105.762 41.2551 102.073L40.2814 101.845ZM31.889 119.491C25.961 126.368 18.9699 133.587 13.3225 137.142L13.8551 137.988C19.6422 134.346 26.7183 127.021 32.6464 120.144L31.889 119.491ZM13.3225 137.142C10.4095 138.975 8.78348 140.059 7.62388 140.821C6.46733 141.581 5.78498 142.014 4.74504 142.557L5.20776 143.443C6.29298 142.877 7.00874 142.422 8.17307 141.657C9.33434 140.894 10.9519 139.815 13.8551 137.988L13.3225 137.142Z" fill="black"/>
<ellipse cx="66.4852" cy="71.1558" rx="6.51452" ry="6.49758" fill="black"/>
<ellipse cx="66.4852" cy="95.647" rx="6.51452" ry="6.49758" fill="black"/>
</svg>
