<svg width="737" height="166" viewBox="0 0 736 166" fill="none" xmlns="http://www.w3.org/2000/svg">
<line x1="208" y1="28.5" x2="528" y2="28.5" stroke="#1C1A1A"/>
<line x1="208" y1="53.5" x2="528" y2="53.5" stroke="#1C1A1A"/>
<line x1="208" y1="78.5" x2="528" y2="78.5" stroke="#1C1A1A"/>
<line x1="208" y1="103.5" x2="528" y2="103.5" stroke="#1C1A1A"/>
<line x1="208" y1="128.5" x2="528" y2="128.5" stroke="#1C1A1A"/>
<path d="M360.475 33V64.0906C360.475 64.0906 360.475 66.1864 360.475 70.3778C363.332 67.6927 366.537 66.3173 370.091 66.2518C372.313 66.2519 374.217 67.2015 375.804 69.1007C377.2 70.869 377.93 72.8337 377.994 74.9949C378.057 76.6977 377.645 78.6624 376.756 80.8891C376.439 81.806 375.74 82.7884 374.661 83.8363C373.836 84.6222 372.979 85.4408 372.091 86.2922C367.394 89.8287 362.697 93.398 358 97V33H360.475ZM368.187 72.539C367.426 71.6221 366.442 71.1637 365.236 71.1637C363.712 71.1637 362.475 72.0478 361.523 73.8161C360.824 75.1914 360.475 78.4332 360.475 83.5415V91.9899C360.539 92.2519 362.316 90.6473 365.807 87.1763C367.711 85.3426 368.949 83.1813 369.52 80.6927C369.774 79.7103 369.901 78.7279 369.901 77.7456C369.901 75.5844 369.33 73.8488 368.187 72.539Z" fill="#1C1A1A"/>
</svg>
