<svg width="736" height="171" viewBox="0 0 736 171" fill="none" xmlns="http://www.w3.org/2000/svg">
<line x1="208" y1="33.5" x2="528" y2="33.5" stroke="#1C1A1A"/>
<line x1="208" y1="58.5" x2="528" y2="58.5" stroke="#1C1A1A"/>
<line x1="208" y1="83.5" x2="528" y2="83.5" stroke="#1C1A1A"/>
<line x1="208" y1="108.5" x2="528" y2="108.5" stroke="#1C1A1A"/>
<line x1="208" y1="133.5" x2="528" y2="133.5" stroke="#1C1A1A"/>
<path d="M364.523 43.5005V26.6585L371.368 24.6821V41.4382L364.523 43.5005ZM378 39.426L373.294 40.8367V24.0806L378 22.7058V15.7456L373.294 17.1204V0H371.368V17.6396L364.523 19.6983V3.05046H362.706V20.332L358 21.7104V28.685L362.706 27.3101V44.0339L358 45.4052V52.3511L362.706 50.9762V68H364.523V50.3676L371.368 48.3984V64.9603H373.294V47.7754L378 46.397V39.426Z" fill="#1C1A1A"/>
</svg>
