<svg width="736" height="171" viewBox="0 0 736 171" fill="none" xmlns="http://www.w3.org/2000/svg">
<line x1="208" y1="33.5" x2="528" y2="33.5" stroke="#1C1A1A"/>
<line x1="208" y1="58.5" x2="528" y2="58.5" stroke="#1C1A1A"/>
<line x1="208" y1="83.5" x2="528" y2="83.5" stroke="#1C1A1A"/>
<line x1="208" y1="108.5" x2="528" y2="108.5" stroke="#1C1A1A"/>
<line x1="208" y1="133.5" x2="528" y2="133.5" stroke="#1C1A1A"/>
<path d="M350.523 43.5005V26.6585L357.368 24.6821V41.4382L350.523 43.5005ZM364 39.426L359.294 40.8367V24.0806L364 22.7058V15.7456L359.294 17.1204V0H357.368V17.6396L350.523 19.6983V3.05046H348.706V20.332L344 21.7104V28.685L348.706 27.3101V44.0339L344 45.4052V52.3511L348.706 50.9762V68H350.523V50.3676L357.368 48.3984V64.9603H359.294V47.7754L364 46.397V39.426Z" fill="#1C1A1A"/>
<path d="M378.523 80.5005V63.6585L385.368 61.6821V78.4382L378.523 80.5005ZM392 76.426L387.294 77.8367V61.0806L392 59.7058V52.7456L387.294 54.1204V37H385.368V54.6396L378.523 56.6983V40.0505H376.706V57.332L372 58.7104V65.685L376.706 64.3101V81.0339L372 82.4052V89.3511L376.706 87.9762V105H378.523V87.3676L385.368 85.3984V101.96H387.294V84.7754L392 83.397V76.426Z" fill="#1C1A1A"/>
</svg>
