<svg width="736" height="171" viewBox="0 0 736 171" fill="none" xmlns="http://www.w3.org/2000/svg">
<line x1="208" y1="33.5" x2="528" y2="33.5" stroke="#1C1A1A"/>
<line x1="208" y1="58.5" x2="528" y2="58.5" stroke="#1C1A1A"/>
<line x1="208" y1="83.5" x2="528" y2="83.5" stroke="#1C1A1A"/>
<line x1="208" y1="108.5" x2="528" y2="108.5" stroke="#1C1A1A"/>
<line x1="208" y1="133.5" x2="528" y2="133.5" stroke="#1C1A1A"/>
<path d="M332.475 38V69.0906C332.475 69.0906 332.475 71.1864 332.475 75.3778C335.332 72.6927 338.537 71.3173 342.091 71.2518C344.313 71.2519 346.217 72.2015 347.804 74.1007C349.2 75.869 349.93 77.8337 349.994 79.9949C350.057 81.6977 349.645 83.6624 348.756 85.8891C348.439 86.806 347.74 87.7884 346.661 88.8363C345.836 89.6222 344.979 90.4408 344.091 91.2922C339.394 94.8287 334.697 98.398 330 102V38H332.475ZM340.187 77.539C339.426 76.6221 338.442 76.1637 337.236 76.1637C335.712 76.1637 334.475 77.0478 333.523 78.8161C332.824 80.1914 332.475 83.4332 332.475 88.5415V96.9899C332.539 97.2519 334.316 95.6473 337.807 92.1763C339.711 90.3426 340.949 88.1813 341.52 85.6927C341.774 84.7103 341.901 83.7279 341.901 82.7456C341.901 80.5844 341.33 78.8488 340.187 77.539Z" fill="#1C1A1A"/>
<path d="M360.475 0V31.0906C360.475 31.0906 360.475 33.1864 360.475 37.3778C363.332 34.6927 366.537 33.3173 370.091 33.2518C372.313 33.2519 374.217 34.2015 375.804 36.1007C377.2 37.869 377.93 39.8337 377.994 41.9949C378.057 43.6977 377.645 45.6624 376.756 47.8891C376.439 48.806 375.74 49.7884 374.661 50.8363C373.836 51.6222 372.979 52.4408 372.091 53.2922C367.394 56.8287 362.697 60.398 358 64V0H360.475ZM368.187 39.539C367.426 38.6221 366.442 38.1637 365.236 38.1637C363.712 38.1637 362.475 39.0478 361.523 40.8161C360.824 42.1914 360.475 45.4332 360.475 50.5415V58.9899C360.539 59.2519 362.316 57.6473 365.807 54.1763C367.711 52.3426 368.949 50.1813 369.52 47.6927C369.774 46.7103 369.901 45.7279 369.901 44.7456C369.901 42.5844 369.33 40.8488 368.187 39.539Z" fill="#1C1A1A"/>
<path d="M388.475 50V81.0906C388.475 81.0906 388.475 83.1864 388.475 87.3778C391.332 84.6927 394.537 83.3173 398.091 83.2518C400.313 83.2519 402.217 84.2015 403.804 86.1007C405.2 87.869 405.93 89.8337 405.994 91.9949C406.057 93.6977 405.645 95.6624 404.756 97.8891C404.439 98.806 403.74 99.7884 402.661 100.836C401.836 101.622 400.979 102.441 400.091 103.292C395.394 106.829 390.697 110.398 386 114V50H388.475ZM396.187 89.539C395.426 88.6221 394.442 88.1637 393.236 88.1637C391.712 88.1637 390.475 89.0478 389.523 90.8161C388.824 92.1914 388.475 95.4332 388.475 100.542V108.99C388.539 109.252 390.316 107.647 393.807 104.176C395.711 102.343 396.949 100.181 397.52 97.6927C397.774 96.7103 397.901 95.7279 397.901 94.7456C397.901 92.5844 397.33 90.8488 396.187 89.539Z" fill="#1C1A1A"/>
</svg>
