<svg width="736" height="184" viewBox="0 0 736 184" fill="none" xmlns="http://www.w3.org/2000/svg">
<line x1="208" y1="46.5" x2="528" y2="46.5" stroke="#1C1A1A"/>
<line x1="208" y1="71.5" x2="528" y2="71.5" stroke="#1C1A1A"/>
<line x1="208" y1="96.5" x2="528" y2="96.5" stroke="#1C1A1A"/>
<line x1="208" y1="121.5" x2="528" y2="121.5" stroke="#1C1A1A"/>
<line x1="208" y1="146.5" x2="528" y2="146.5" stroke="#1C1A1A"/>
<path d="M336.523 56.5005V39.6585L343.368 37.6821V54.4382L336.523 56.5005ZM350 52.426L345.294 53.8367V37.0806L350 35.7058V28.7456L345.294 30.1204V13H343.368V30.6396L336.523 32.6983V16.0505H334.706V33.332L330 34.7104V41.685L334.706 40.3101V57.0339L330 58.4052V65.3511L334.706 63.9762V81H336.523V63.3676L343.368 61.3984V77.9603H345.294V60.7754L350 59.397V52.426Z" fill="#1C1A1A"/>
<path d="M364.523 93.5005V76.6585L371.368 74.6821V91.4382L364.523 93.5005ZM378 89.426L373.294 90.8367V74.0806L378 72.7058V65.7456L373.294 67.1204V50H371.368V67.6396L364.523 69.6983V53.0505H362.706V70.332L358 71.7104V78.685L362.706 77.3101V94.0339L358 95.4052V102.351L362.706 100.976V118H364.523V100.368L371.368 98.3984V114.96H373.294V97.7754L378 96.397V89.426Z" fill="#1C1A1A"/>
<path d="M392.523 43.5005V26.6585L399.368 24.6821V41.4382L392.523 43.5005ZM406 39.426L401.294 40.8367V24.0806L406 22.7058V15.7456L401.294 17.1204V0H399.368V17.6396L392.523 19.6983V3.05046H390.706V20.332L386 21.7104V28.685L390.706 27.3101V44.0339L386 45.4052V52.3511L390.706 50.9762V68H392.523V50.3676L399.368 48.3984V64.9603H401.294V47.7754L406 46.397V39.426Z" fill="#1C1A1A"/>
</svg>
