<svg width="736" height="171" viewBox="0 0 736 171" fill="none" xmlns="http://www.w3.org/2000/svg">
<line x1="208" y1="33.5" x2="528" y2="33.5" stroke="#1C1A1A"/>
<line x1="208" y1="58.5" x2="528" y2="58.5" stroke="#1C1A1A"/>
<line x1="208" y1="83.5" x2="528" y2="83.5" stroke="#1C1A1A"/>
<line x1="208" y1="108.5" x2="528" y2="108.5" stroke="#1C1A1A"/>
<line x1="208" y1="133.5" x2="528" y2="133.5" stroke="#1C1A1A"/>
<path d="M346.475 38V69.0906C346.475 69.0906 346.475 71.1864 346.475 75.3778C349.332 72.6927 352.537 71.3173 356.091 71.2518C358.313 71.2519 360.217 72.2015 361.804 74.1007C363.2 75.869 363.93 77.8337 363.994 79.9949C364.057 81.6977 363.645 83.6624 362.756 85.8891C362.439 86.806 361.74 87.7884 360.661 88.8363C359.836 89.6222 358.979 90.4408 358.091 91.2922C353.394 94.8287 348.697 98.398 344 102V38H346.475ZM354.187 77.539C353.426 76.6221 352.442 76.1637 351.236 76.1637C349.712 76.1637 348.475 77.0478 347.523 78.8161C346.824 80.1914 346.475 83.4332 346.475 88.5415V96.9899C346.539 97.2519 348.316 95.6473 351.807 92.1763C353.711 90.3426 354.949 88.1813 355.52 85.6927C355.774 84.7103 355.901 83.7279 355.901 82.7456C355.901 80.5844 355.33 78.8488 354.187 77.539Z" fill="#1C1A1A"/>
<path d="M374.475 0V31.0906C374.475 31.0906 374.475 33.1864 374.475 37.3778C377.332 34.6927 380.537 33.3173 384.091 33.2518C386.313 33.2519 388.217 34.2015 389.804 36.1007C391.2 37.869 391.93 39.8337 391.994 41.9949C392.057 43.6977 391.645 45.6624 390.756 47.8891C390.439 48.806 389.74 49.7884 388.661 50.8363C387.836 51.6222 386.979 52.4408 386.091 53.2922C381.394 56.8287 376.697 60.398 372 64V0H374.475ZM382.187 39.539C381.426 38.6221 380.442 38.1637 379.236 38.1637C377.712 38.1637 376.475 39.0478 375.523 40.8161C374.824 42.1914 374.475 45.4332 374.475 50.5415V58.9899C374.539 59.2519 376.316 57.6473 379.807 54.1763C381.711 52.3426 382.949 50.1813 383.52 47.6927C383.774 46.7103 383.901 45.7279 383.901 44.7456C383.901 42.5844 383.33 40.8488 382.187 39.539Z" fill="#1C1A1A"/>
</svg>
