<svg width="736" height="248" viewBox="0 0 736 248" fill="none" xmlns="http://www.w3.org/2000/svg">
<line y1="46.5" x2="736" y2="46.5" stroke="#1C1A1A"/>
<line y1="71.5" x2="736" y2="71.5" stroke="#1C1A1A"/>
<line y1="96.5" x2="736" y2="96.5" stroke="#1C1A1A"/>
<line y1="121.5" x2="736" y2="121.5" stroke="#1C1A1A"/>
<line y1="146.5" x2="736" y2="146.5" stroke="#1C1A1A"/>
<path d="M33.0196 109.694C30.4448 110.54 28.317 111.969 26.636 113.981C24.9547 115.991 23.9303 118.188 23.5625 120.57C23.1947 122.951 23.4969 125.306 24.4688 127.635C25.4407 129.964 27.2664 131.843 29.9456 133.272C30.5761 133.272 30.9699 133.537 31.128 134.066C31.2852 134.595 31.0485 134.859 30.419 134.859C27.8443 134.33 25.5852 133.245 23.6414 131.605C20.0163 128.588 18.0199 124.698 17.6522 119.935C17.4421 117.553 17.6653 115.251 18.3221 113.028C18.9787 110.805 19.885 108.767 21.0408 106.914C22.4592 104.957 24.1404 103.263 26.0843 101.834C26.1893 101.728 26.4915 101.49 26.9905 101.12C27.4896 100.749 27.9755 100.405 28.4484 100.088C28.9213 99.7702 29.6304 99.2673 30.5761 98.579L27.6604 84.4479C25.0861 86.6179 22.5381 89.0123 20.0164 91.6322C17.4946 94.252 15.2092 97.0181 13.1603 99.9285C11.1115 102.84 9.46968 105.923 8.23502 109.178C7.00047 112.433 6.3832 115.859 6.3832 119.459C6.3832 122.793 7.07923 125.929 8.47151 128.866C9.86369 131.803 11.7156 134.357 14.0272 136.526C16.3388 138.696 19.005 140.403 22.0258 141.648C25.0467 142.891 28.1069 143.513 31.2066 143.513C31.312 143.513 31.7973 143.46 32.6645 143.354C33.5317 143.249 34.4506 143.116 35.4222 142.957C36.3948 142.799 37.2879 142.626 38.1024 142.441C38.9159 142.256 39.3236 142.057 39.3236 141.846L38.8502 139.623C36.8016 129.197 34.8574 119.22 33.0196 109.694V109.694ZM35.7773 109.376L42.2394 140.893C45.9697 139.464 48.4907 137.016 49.8045 133.55C51.1182 130.083 51.4195 126.564 50.7104 122.991C50.0014 119.419 48.3336 116.256 45.7062 113.504C43.0798 110.752 39.7701 109.376 35.7773 109.376V109.376ZM27.5028 66.9034C29.1311 66.0559 30.6417 64.7865 32.034 63.0924C33.4263 61.3993 34.7132 59.5859 35.8956 57.6543C37.077 55.7228 38.1024 53.7511 38.9686 51.7394C39.8357 49.7287 40.5319 47.9033 41.057 46.2623C41.6348 44.516 42.0286 42.5574 42.2394 40.3874C42.4493 38.2174 42.1081 36.392 41.2151 34.9093C40.5846 33.5868 39.7572 32.8194 38.7329 32.607C37.7076 32.3956 36.6832 32.4748 35.6589 32.8455C34.6346 33.2161 33.663 33.8112 32.7431 34.6318C31.8242 35.4523 31.1539 36.1796 30.7342 36.8148C29.5776 38.8786 28.5663 41.1809 27.6998 43.7216C26.8329 46.2623 26.2418 48.8951 25.9267 51.6212C25.6114 54.3462 25.5721 56.9661 25.8085 59.4807C26.0448 61.9944 26.6096 64.4689 27.5028 66.9034V66.9034ZM25.1387 69.364C24.2455 65.8715 23.4575 62.4442 22.7745 59.083C22.0915 55.7228 21.7501 52.2694 21.7501 48.7228C21.7501 46.13 21.9339 43.2848 22.3017 40.189C22.6694 37.0933 23.3392 34.0757 24.3112 31.1383C25.2831 28.2009 26.6227 25.568 28.3302 23.2397C30.0381 20.9104 32.3095 19.2173 35.1468 18.1583C35.4093 18.0531 35.6718 18 35.9344 18C36.3023 18 36.7359 18.2114 37.2352 18.6352C37.7344 19.058 38.2595 19.6801 38.8114 20.5006C39.3624 21.3211 39.8487 22.1677 40.2693 23.0413C40.689 23.9139 41.0043 24.51 41.2151 24.8276C42.6332 27.5266 43.6705 30.3979 44.3278 33.4406C44.9842 36.4842 45.3651 39.5138 45.4705 42.5304C45.6803 47.0828 45.4307 51.5811 44.7216 56.0273C44.0126 60.4726 42.5805 64.8126 40.4265 69.0464C39.6915 70.3168 38.9427 71.6001 38.1809 72.8965C37.4192 74.1939 36.5132 75.4502 35.462 76.6675C35.2522 76.8799 34.8713 77.2636 34.3193 77.8186C33.7674 78.3747 33.2025 78.9437 32.6247 79.5258C32.0469 80.1079 31.5348 80.6509 31.0883 81.1528C30.6417 81.6557 30.419 81.9603 30.419 82.0665L33.6491 97.9438C33.6699 98.048 35.2651 97.9438 35.2651 97.9438C38.348 97.9829 41.6119 98.4859 44.4462 99.6109C47.178 100.881 49.529 102.628 51.4991 104.851C53.4691 107.074 55.0444 109.574 56.2268 112.353C57.4093 115.132 58 117.95 58 120.808C58 123.665 57.5793 126.577 56.739 129.54C54.5849 135.151 51.144 139.305 46.4162 142.004C45.8902 142.322 45.1413 142.68 44.1697 143.076C43.1981 143.473 42.8172 144.095 43.027 144.942C44.2881 150.708 45.1413 154.676 45.5888 156.85C46.0354 159.024 46.3635 161.829 46.5734 165.265C46.7832 168.551 46.2183 171.507 44.8788 174.152C43.5392 176.807 41.7402 178.961 39.4807 180.624C37.2222 182.297 35.1597 183.269 33.295 183.569C31.4294 183.86 30.1554 184 29.4732 184C27.1087 184 24.7972 183.549 22.5381 182.648C19.7536 181.596 17.4158 179.983 15.5245 177.809C13.6332 175.635 12.6875 172.99 12.6875 169.874C12.6875 167.91 13.2523 165.897 14.3818 163.833C15.5114 161.769 16.9955 160.286 18.8342 159.394C20.8832 158.333 22.7351 158.042 24.39 158.513C26.0448 158.994 27.4108 159.895 28.4878 161.218C29.5647 162.54 30.3136 164.143 30.7342 166.017C31.1539 167.9 31.128 169.653 30.6547 171.297C30.1823 172.94 29.2236 174.332 27.7786 175.464C26.3338 176.606 24.3243 177.117 21.7501 177.017C22.8007 178.921 24.2718 180.123 26.1631 180.624C28.0544 181.135 29.9983 181.165 31.9942 180.744C33.9912 180.323 35.8688 179.542 37.629 178.4C39.3892 177.268 40.7686 176.035 41.766 174.713C42.3965 173.761 42.8699 172.519 43.1852 170.986C43.5004 169.443 43.6844 167.85 43.7361 166.177C43.7888 164.514 43.7361 163.212 43.579 162.29C43.4209 161.358 43.1583 159.915 42.7904 157.962C41.2151 151.56 40.2166 147.533 39.796 145.89C39.5861 145.366 39.0213 145.193 38.1024 145.379C37.1825 145.564 36.4078 145.736 35.7773 145.89C31.2593 146.481 27.4765 146.21 24.4294 145.101C19.7011 143.831 15.5376 141.568 11.9389 138.313C8.34014 135.058 5.45067 131.115 3.27036 126.484C1.09015 121.853 0 118.334 0 115.925C0 113.518 0 111.996 0 111.361C0 107.074 0.73552 103.051 2.20656 99.2933C4.99092 93.4185 8.28763 88.0205 12.0965 83.0984C15.9054 78.1763 20.2528 73.5978 25.1387 69.364V69.364Z" fill="#1C1A1A"/>
<path d="M273.097 94.5145C267.453 92.8054 263 88.1609 263 83.9836C263 72.1601 288.813 67.4812 299.473 77.3725C311 88.0687 292.188 100.295 273.097 94.5145H273.097ZM290.315 91.5442C293.455 86.8287 290.453 77.486 285.013 75.0476C277.025 71.4667 272.129 77.5689 275.456 86.9586C277.757 93.4532 287.119 96.3425 290.315 91.5442Z" fill="#1C1A1A"/>
<path d="M188.097 107.514C182.453 105.805 178 101.161 178 96.9836C178 85.1601 203.813 80.4812 214.473 90.3725C226 101.069 207.188 113.295 188.097 107.514H188.097ZM205.315 104.544C208.455 99.8287 205.453 90.486 200.013 88.0476C192.025 84.4667 187.129 90.5689 190.456 99.9586C192.757 106.453 202.119 109.343 205.315 104.544Z" fill="#1C1A1A"/>
<path d="M103.097 119.514C97.4533 117.805 93 113.161 93 108.984C93 97.1601 118.813 92.4812 129.473 102.372C141 113.069 122.188 125.295 103.097 119.514H103.097ZM120.315 116.544C123.455 111.829 120.453 102.486 115.013 100.048C107.025 96.4667 102.129 102.569 105.456 111.959C107.757 118.453 117.119 121.343 120.315 116.544Z" fill="#1C1A1A"/>
<path d="M358.097 82.5145C352.453 80.8054 348 76.1609 348 71.9836C348 60.1601 373.813 55.4812 384.473 65.3725C396 76.0687 377.188 88.2953 358.097 82.5145H358.097ZM375.315 79.5442C378.455 74.8287 375.453 65.486 370.013 63.0476C362.025 59.4667 357.129 65.5689 360.456 74.9586C362.757 81.4532 372.119 84.3425 375.315 79.5442Z" fill="#1C1A1A"/>
<path d="M698.097 32.5145C692.453 30.8054 688 26.1609 688 21.9836C688 10.1601 713.813 5.48121 724.473 15.3725C736 26.0687 717.188 38.2953 698.097 32.5145H698.097ZM715.315 29.5442C718.455 24.8287 715.453 15.486 710.013 13.0476C702.025 9.46674 697.129 15.5689 700.456 24.9586C702.757 31.4532 712.119 34.3425 715.315 29.5442Z" fill="#1C1A1A"/>
<path d="M613.097 44.5145C607.453 42.8054 603 38.1609 603 33.9836C603 22.1601 628.813 17.4812 639.473 27.3725C651 38.0687 632.188 50.2953 613.097 44.5145H613.097ZM630.315 41.5442C633.455 36.8287 630.453 27.486 625.013 25.0476C617.025 21.4667 612.129 27.5689 615.456 36.9586C617.757 43.4532 627.119 46.3425 630.315 41.5442Z" fill="#1C1A1A"/>
<path d="M528.097 57.5145C522.453 55.8054 518 51.1609 518 46.9836C518 35.1601 543.813 30.4812 554.473 40.3725C566 51.0687 547.188 63.2953 528.097 57.5145H528.097ZM545.315 54.5442C548.455 49.8287 545.453 40.486 540.013 38.0476C532.025 34.4667 527.129 40.5689 530.456 49.9586C532.757 56.4532 542.119 59.3425 545.315 54.5442Z" fill="#1C1A1A"/>
<path d="M443.097 69.5145C437.453 67.8054 433 63.1609 433 58.9836C433 47.1601 458.813 42.4812 469.473 52.3725C481 63.0687 462.188 75.2953 443.097 69.5145H443.097ZM460.315 66.5442C463.455 61.8287 460.453 52.486 455.013 50.0476C447.025 46.4667 442.129 52.5689 445.456 61.9586C447.757 68.4532 457.119 71.3425 460.315 66.5442Z" fill="#1C1A1A"/>
<path d="M245.523 93.5005V76.6585L252.368 74.6821V91.4382L245.523 93.5005V93.5005ZM259 89.426L254.294 90.8367V74.0806L259 72.7058V65.7456L254.294 67.1204V50H252.368V67.6396L245.523 69.6983V53.0505H243.706V70.332L239 71.7104V78.685L243.706 77.3101V94.0339L239 95.4052V102.351L243.706 100.976V118H245.523V100.368L252.368 98.3984V114.96H254.294V97.7754L259 96.397V89.426V89.426Z" fill="#1C1A1A"/>
<path d="M585.523 43.5005V26.6585L592.368 24.6821V41.4382L585.523 43.5005V43.5005ZM599 39.426L594.294 40.8367V24.0806L599 22.7058V15.7456L594.294 17.1204V0H592.368V17.6396L585.523 19.6983V3.05046H583.706V20.332L579 21.7104V28.685L583.706 27.3101V44.0339L579 45.4052V52.3511L583.706 50.9763V68H585.523V50.3676L592.368 48.3984V64.9603H594.294V47.7754L599 46.397V39.426V39.426Z" fill="#1C1A1A"/>
<path d="M500.523 55.5005V38.6585L507.368 36.6821V53.4382L500.523 55.5005V55.5005ZM514 51.426L509.294 52.8367V36.0806L514 34.7058V27.7456L509.294 29.1204V12H507.368V29.6396L500.523 31.6983V15.0505H498.706V32.332L494 33.7104V40.685L498.706 39.3101V56.0339L494 57.4052V64.3511L498.706 62.9763V80H500.523V62.3676L507.368 60.3984V76.9603H509.294V59.7754L514 58.397V51.426V51.426Z" fill="#1C1A1A"/>
<line x1="676" y1="21.5" x2="736" y2="21.5" stroke="#1C1A1A"/>
<path d="M281.94 228.292L277.76 244H275.758L272.7 233.704C272.612 233.396 272.524 233.081 272.436 232.758C272.348 232.435 272.267 232.127 272.194 231.834C272.12 231.541 272.054 231.291 271.996 231.086C271.952 230.866 271.922 230.705 271.908 230.602C271.893 230.705 271.864 230.866 271.82 231.086C271.79 231.291 271.739 231.541 271.666 231.834C271.592 232.127 271.512 232.443 271.424 232.78C271.35 233.103 271.262 233.433 271.16 233.77L268.19 244H266.188L262.03 228.292H264.098L266.54 237.884C266.628 238.221 266.708 238.559 266.782 238.896C266.855 239.219 266.921 239.541 266.98 239.864C267.053 240.172 267.112 240.473 267.156 240.766C267.2 241.059 267.244 241.345 267.288 241.624C267.332 241.331 267.376 241.03 267.42 240.722C267.478 240.414 267.544 240.099 267.618 239.776C267.691 239.439 267.772 239.101 267.86 238.764C267.948 238.427 268.036 238.097 268.124 237.774L270.896 228.292H272.942L275.824 237.84C275.926 238.177 276.022 238.522 276.11 238.874C276.198 239.211 276.278 239.541 276.352 239.864C276.425 240.187 276.484 240.502 276.528 240.81C276.586 241.103 276.638 241.375 276.682 241.624C276.726 241.257 276.784 240.876 276.858 240.48C276.931 240.069 277.019 239.644 277.122 239.204C277.224 238.764 277.334 238.317 277.452 237.862L279.872 228.292H281.94ZM285.805 232.186C285.805 232.465 285.79 232.751 285.761 233.044C285.746 233.337 285.724 233.601 285.695 233.836H285.827C286.076 233.425 286.392 233.088 286.773 232.824C287.154 232.56 287.58 232.362 288.049 232.23C288.518 232.083 289.002 232.01 289.501 232.01C290.454 232.01 291.246 232.164 291.877 232.472C292.522 232.765 293.006 233.227 293.329 233.858C293.652 234.489 293.813 235.31 293.813 236.322V244H291.899V236.454C291.899 235.501 291.686 234.789 291.261 234.32C290.836 233.851 290.168 233.616 289.259 233.616C288.379 233.616 287.69 233.785 287.191 234.122C286.692 234.445 286.333 234.929 286.113 235.574C285.908 236.205 285.805 236.982 285.805 237.906V244H283.869V227.28H285.805V232.186ZM301.715 232.01C303.152 232.01 304.215 232.325 304.905 232.956C305.594 233.587 305.939 234.591 305.939 235.97V244H304.531L304.157 242.328H304.069C303.731 242.753 303.379 243.113 303.013 243.406C302.661 243.685 302.25 243.89 301.781 244.022C301.326 244.154 300.769 244.22 300.109 244.22C299.405 244.22 298.767 244.095 298.195 243.846C297.637 243.597 297.197 243.215 296.875 242.702C296.552 242.174 296.391 241.514 296.391 240.722C296.391 239.549 296.853 238.647 297.777 238.016C298.701 237.371 300.123 237.019 302.045 236.96L304.047 236.894V236.19C304.047 235.207 303.834 234.525 303.409 234.144C302.983 233.763 302.382 233.572 301.605 233.572C300.989 233.572 300.402 233.667 299.845 233.858C299.287 234.034 298.767 234.239 298.283 234.474L297.689 233.022C298.202 232.743 298.811 232.509 299.515 232.318C300.219 232.113 300.952 232.01 301.715 232.01ZM302.287 238.302C300.82 238.361 299.801 238.595 299.229 239.006C298.671 239.417 298.393 239.996 298.393 240.744C298.393 241.404 298.591 241.888 298.987 242.196C299.397 242.504 299.918 242.658 300.549 242.658C301.546 242.658 302.375 242.387 303.035 241.844C303.695 241.287 304.025 240.436 304.025 239.292V238.236L302.287 238.302ZM313.299 242.636C313.592 242.636 313.893 242.614 314.201 242.57C314.509 242.511 314.758 242.453 314.949 242.394V243.868C314.743 243.971 314.45 244.051 314.069 244.11C313.687 244.183 313.321 244.22 312.969 244.22C312.353 244.22 311.781 244.117 311.253 243.912C310.739 243.692 310.321 243.318 309.999 242.79C309.676 242.262 309.515 241.521 309.515 240.568V233.704H307.843V232.78L309.537 232.01L310.307 229.502H311.451V232.208H314.861V233.704H311.451V240.524C311.451 241.243 311.619 241.778 311.957 242.13C312.309 242.467 312.756 242.636 313.299 242.636ZM330.263 240.744C330.263 241.507 330.072 242.145 329.691 242.658C329.309 243.171 328.767 243.56 328.063 243.824C327.359 244.088 326.523 244.22 325.555 244.22C324.733 244.22 324.022 244.154 323.421 244.022C322.834 243.89 322.313 243.707 321.859 243.472V241.712C322.328 241.947 322.893 242.167 323.553 242.372C324.227 242.563 324.909 242.658 325.599 242.658C326.581 242.658 327.293 242.504 327.733 242.196C328.173 241.873 328.393 241.448 328.393 240.92C328.393 240.627 328.312 240.363 328.151 240.128C327.989 239.893 327.696 239.659 327.271 239.424C326.86 239.189 326.266 238.925 325.489 238.632C324.726 238.339 324.073 238.045 323.531 237.752C322.988 237.459 322.57 237.107 322.277 236.696C321.983 236.285 321.837 235.757 321.837 235.112C321.837 234.115 322.24 233.345 323.047 232.802C323.868 232.259 324.939 231.988 326.259 231.988C326.977 231.988 327.645 232.061 328.261 232.208C328.891 232.34 329.478 232.531 330.021 232.78L329.361 234.32C329.038 234.173 328.693 234.049 328.327 233.946C327.975 233.829 327.615 233.741 327.249 233.682C326.882 233.609 326.508 233.572 326.127 233.572C325.335 233.572 324.726 233.704 324.301 233.968C323.89 234.217 323.685 234.562 323.685 235.002C323.685 235.325 323.78 235.603 323.971 235.838C324.161 236.058 324.477 236.278 324.917 236.498C325.371 236.703 325.973 236.953 326.721 237.246C327.469 237.525 328.107 237.811 328.635 238.104C329.163 238.397 329.566 238.757 329.845 239.182C330.123 239.593 330.263 240.113 330.263 240.744ZM337.622 244.22C336.581 244.22 335.649 244.007 334.828 243.582C334.021 243.157 333.383 242.497 332.914 241.602C332.459 240.707 332.232 239.563 332.232 238.17C332.232 236.718 332.474 235.537 332.958 234.628C333.442 233.719 334.095 233.051 334.916 232.626C335.752 232.201 336.698 231.988 337.754 231.988C338.355 231.988 338.935 232.054 339.492 232.186C340.049 232.303 340.504 232.45 340.856 232.626L340.262 234.232C339.91 234.1 339.499 233.975 339.03 233.858C338.561 233.741 338.121 233.682 337.71 233.682C336.918 233.682 336.265 233.851 335.752 234.188C335.239 234.525 334.857 235.024 334.608 235.684C334.359 236.344 334.234 237.165 334.234 238.148C334.234 239.087 334.359 239.886 334.608 240.546C334.857 241.206 335.231 241.705 335.73 242.042C336.229 242.379 336.852 242.548 337.6 242.548C338.245 242.548 338.81 242.482 339.294 242.35C339.793 242.218 340.247 242.057 340.658 241.866V243.582C340.262 243.787 339.822 243.941 339.338 244.044C338.869 244.161 338.297 244.22 337.622 244.22ZM347.708 232.01C349.146 232.01 350.209 232.325 350.898 232.956C351.588 233.587 351.932 234.591 351.932 235.97V244H350.524L350.15 242.328H350.062C349.725 242.753 349.373 243.113 349.006 243.406C348.654 243.685 348.244 243.89 347.774 244.022C347.32 244.154 346.762 244.22 346.102 244.22C345.398 244.22 344.76 244.095 344.188 243.846C343.631 243.597 343.191 243.215 342.868 242.702C342.546 242.174 342.384 241.514 342.384 240.722C342.384 239.549 342.846 238.647 343.77 238.016C344.694 237.371 346.117 237.019 348.038 236.96L350.04 236.894V236.19C350.04 235.207 349.828 234.525 349.402 234.144C348.977 233.763 348.376 233.572 347.598 233.572C346.982 233.572 346.396 233.667 345.838 233.858C345.281 234.034 344.76 234.239 344.276 234.474L343.682 233.022C344.196 232.743 344.804 232.509 345.508 232.318C346.212 232.113 346.946 232.01 347.708 232.01ZM348.28 238.302C346.814 238.361 345.794 238.595 345.222 239.006C344.665 239.417 344.386 239.996 344.386 240.744C344.386 241.404 344.584 241.888 344.98 242.196C345.391 242.504 345.912 242.658 346.542 242.658C347.54 242.658 348.368 242.387 349.028 241.844C349.688 241.287 350.018 240.436 350.018 239.292V238.236L348.28 238.302ZM357.29 244H355.354V227.28H357.29V244ZM365.36 231.988C366.372 231.988 367.237 232.208 367.956 232.648C368.689 233.088 369.247 233.711 369.628 234.518C370.024 235.31 370.222 236.241 370.222 237.312V238.478H362.148C362.177 239.813 362.515 240.832 363.16 241.536C363.82 242.225 364.737 242.57 365.91 242.57C366.658 242.57 367.318 242.504 367.89 242.372C368.477 242.225 369.078 242.02 369.694 241.756V243.45C369.093 243.714 368.499 243.905 367.912 244.022C367.325 244.154 366.629 244.22 365.822 244.22C364.707 244.22 363.717 243.993 362.852 243.538C362.001 243.083 361.334 242.409 360.85 241.514C360.381 240.605 360.146 239.497 360.146 238.192C360.146 236.901 360.359 235.794 360.784 234.87C361.224 233.946 361.833 233.235 362.61 232.736C363.402 232.237 364.319 231.988 365.36 231.988ZM365.338 233.572C364.414 233.572 363.681 233.873 363.138 234.474C362.61 235.061 362.295 235.882 362.192 236.938H368.198C368.198 236.263 368.095 235.677 367.89 235.178C367.685 234.679 367.369 234.291 366.944 234.012C366.533 233.719 365.998 233.572 365.338 233.572ZM380.435 232.208V244H378.499V232.208H380.435ZM379.489 227.786C379.782 227.786 380.039 227.889 380.259 228.094C380.494 228.285 380.611 228.593 380.611 229.018C380.611 229.429 380.494 229.737 380.259 229.942C380.039 230.147 379.782 230.25 379.489 230.25C379.166 230.25 378.895 230.147 378.675 229.942C378.455 229.737 378.345 229.429 378.345 229.018C378.345 228.593 378.455 228.285 378.675 228.094C378.895 227.889 379.166 227.786 379.489 227.786ZM391.629 240.744C391.629 241.507 391.438 242.145 391.057 242.658C390.676 243.171 390.133 243.56 389.429 243.824C388.725 244.088 387.889 244.22 386.921 244.22C386.1 244.22 385.388 244.154 384.787 244.022C384.2 243.89 383.68 243.707 383.225 243.472V241.712C383.694 241.947 384.259 242.167 384.919 242.372C385.594 242.563 386.276 242.658 386.965 242.658C387.948 242.658 388.659 242.504 389.099 242.196C389.539 241.873 389.759 241.448 389.759 240.92C389.759 240.627 389.678 240.363 389.517 240.128C389.356 239.893 389.062 239.659 388.637 239.424C388.226 239.189 387.632 238.925 386.855 238.632C386.092 238.339 385.44 238.045 384.897 237.752C384.354 237.459 383.936 237.107 383.643 236.696C383.35 236.285 383.203 235.757 383.203 235.112C383.203 234.115 383.606 233.345 384.413 232.802C385.234 232.259 386.305 231.988 387.625 231.988C388.344 231.988 389.011 232.061 389.627 232.208C390.258 232.34 390.844 232.531 391.387 232.78L390.727 234.32C390.404 234.173 390.06 234.049 389.693 233.946C389.341 233.829 388.982 233.741 388.615 233.682C388.248 233.609 387.874 233.572 387.493 233.572C386.701 233.572 386.092 233.704 385.667 233.968C385.256 234.217 385.051 234.562 385.051 235.002C385.051 235.325 385.146 235.603 385.337 235.838C385.528 236.058 385.843 236.278 386.283 236.498C386.738 236.703 387.339 236.953 388.087 237.246C388.835 237.525 389.473 237.811 390.001 238.104C390.529 238.397 390.932 238.757 391.211 239.182C391.49 239.593 391.629 240.113 391.629 240.744ZM407.431 240.744C407.431 241.507 407.24 242.145 406.859 242.658C406.478 243.171 405.935 243.56 405.231 243.824C404.527 244.088 403.691 244.22 402.723 244.22C401.902 244.22 401.19 244.154 400.589 244.022C400.002 243.89 399.482 243.707 399.027 243.472V241.712C399.496 241.947 400.061 242.167 400.721 242.372C401.396 242.563 402.078 242.658 402.767 242.658C403.75 242.658 404.461 242.504 404.901 242.196C405.341 241.873 405.561 241.448 405.561 240.92C405.561 240.627 405.48 240.363 405.319 240.128C405.158 239.893 404.864 239.659 404.439 239.424C404.028 239.189 403.434 238.925 402.657 238.632C401.894 238.339 401.242 238.045 400.699 237.752C400.156 237.459 399.738 237.107 399.445 236.696C399.152 236.285 399.005 235.757 399.005 235.112C399.005 234.115 399.408 233.345 400.215 232.802C401.036 232.259 402.107 231.988 403.427 231.988C404.146 231.988 404.813 232.061 405.429 232.208C406.06 232.34 406.646 232.531 407.189 232.78L406.529 234.32C406.206 234.173 405.862 234.049 405.495 233.946C405.143 233.829 404.784 233.741 404.417 233.682C404.05 233.609 403.676 233.572 403.295 233.572C402.503 233.572 401.894 233.704 401.469 233.968C401.058 234.217 400.853 234.562 400.853 235.002C400.853 235.325 400.948 235.603 401.139 235.838C401.33 236.058 401.645 236.278 402.085 236.498C402.54 236.703 403.141 236.953 403.889 237.246C404.637 237.525 405.275 237.811 405.803 238.104C406.331 238.397 406.734 238.757 407.013 239.182C407.292 239.593 407.431 240.113 407.431 240.744ZM411.996 232.186C411.996 232.465 411.982 232.751 411.952 233.044C411.938 233.337 411.916 233.601 411.886 233.836H412.018C412.268 233.425 412.583 233.088 412.964 232.824C413.346 232.56 413.771 232.362 414.24 232.23C414.71 232.083 415.194 232.01 415.692 232.01C416.646 232.01 417.438 232.164 418.068 232.472C418.714 232.765 419.198 233.227 419.52 233.858C419.843 234.489 420.004 235.31 420.004 236.322V244H418.09V236.454C418.09 235.501 417.878 234.789 417.452 234.32C417.027 233.851 416.36 233.616 415.45 233.616C414.57 233.616 413.881 233.785 413.382 234.122C412.884 234.445 412.524 234.929 412.304 235.574C412.099 236.205 411.996 236.982 411.996 237.906V244H410.06V227.28H411.996V232.186ZM433.692 238.082C433.692 239.065 433.56 239.937 433.296 240.7C433.047 241.448 432.68 242.086 432.196 242.614C431.727 243.142 431.147 243.545 430.458 243.824C429.783 244.088 429.028 244.22 428.192 244.22C427.415 244.22 426.696 244.088 426.036 243.824C425.376 243.545 424.804 243.142 424.32 242.614C423.836 242.086 423.455 241.448 423.176 240.7C422.912 239.937 422.78 239.065 422.78 238.082C422.78 236.777 423 235.677 423.44 234.782C423.88 233.873 424.511 233.183 425.332 232.714C426.153 232.23 427.129 231.988 428.258 231.988C429.329 231.988 430.267 232.23 431.074 232.714C431.895 233.183 432.533 233.873 432.988 234.782C433.457 235.677 433.692 236.777 433.692 238.082ZM424.782 238.082C424.782 239.006 424.899 239.813 425.134 240.502C425.383 241.177 425.765 241.697 426.278 242.064C426.791 242.431 427.444 242.614 428.236 242.614C429.028 242.614 429.681 242.431 430.194 242.064C430.707 241.697 431.081 241.177 431.316 240.502C431.565 239.813 431.69 239.006 431.69 238.082C431.69 237.143 431.565 236.344 431.316 235.684C431.067 235.024 430.685 234.518 430.172 234.166C429.673 233.799 429.021 233.616 428.214 233.616C427.011 233.616 426.139 234.012 425.596 234.804C425.053 235.596 424.782 236.689 424.782 238.082ZM443.723 237.334C443.635 237.026 443.547 236.725 443.459 236.432C443.371 236.124 443.29 235.838 443.217 235.574C443.158 235.295 443.099 235.039 443.041 234.804C442.982 234.569 442.938 234.371 442.909 234.21H442.821C442.791 234.371 442.747 234.569 442.689 234.804C442.645 235.039 442.586 235.295 442.513 235.574C442.454 235.853 442.381 236.146 442.293 236.454C442.219 236.747 442.131 237.048 442.029 237.356L439.917 243.978H437.717L434.483 232.186H436.485L438.113 238.478C438.23 238.903 438.34 239.336 438.443 239.776C438.545 240.201 438.633 240.612 438.707 241.008C438.795 241.389 438.853 241.719 438.883 241.998H438.971C439.015 241.822 439.066 241.602 439.125 241.338C439.183 241.074 439.242 240.795 439.301 240.502C439.374 240.209 439.447 239.915 439.521 239.622C439.609 239.329 439.689 239.065 439.763 238.83L441.853 232.186H443.965L445.989 238.83C446.091 239.167 446.194 239.527 446.297 239.908C446.414 240.289 446.517 240.663 446.605 241.03C446.693 241.382 446.751 241.697 446.781 241.976H446.869C446.898 241.727 446.949 241.419 447.023 241.052C447.111 240.671 447.206 240.26 447.309 239.82C447.426 239.365 447.543 238.918 447.661 238.478L449.311 232.186H451.291L448.013 243.978H445.747L443.723 237.334ZM458.862 231.988C460.27 231.988 461.333 232.333 462.052 233.022C462.77 233.697 463.13 234.797 463.13 236.322V244H461.216V236.454C461.216 235.501 461.003 234.789 460.578 234.32C460.152 233.851 459.485 233.616 458.576 233.616C457.27 233.616 456.368 233.983 455.87 234.716C455.371 235.449 455.122 236.505 455.122 237.884V244H453.186V232.208H454.748L455.034 233.814H455.144C455.408 233.403 455.73 233.066 456.112 232.802C456.508 232.523 456.94 232.318 457.41 232.186C457.879 232.054 458.363 231.988 458.862 231.988ZM467.775 238.984C467.775 238.427 467.826 237.95 467.929 237.554C468.046 237.143 468.237 236.755 468.501 236.388C468.78 236.021 469.154 235.64 469.623 235.244C470.195 234.76 470.635 234.357 470.943 234.034C471.266 233.711 471.493 233.396 471.625 233.088C471.757 232.78 471.823 232.406 471.823 231.966C471.823 231.262 471.596 230.719 471.141 230.338C470.686 229.957 470.026 229.766 469.161 229.766C468.442 229.766 467.804 229.861 467.247 230.052C466.69 230.228 466.154 230.441 465.641 230.69L464.959 229.15C465.546 228.842 466.191 228.585 466.895 228.38C467.614 228.175 468.413 228.072 469.293 228.072C470.686 228.072 471.764 228.417 472.527 229.106C473.29 229.795 473.671 230.734 473.671 231.922C473.671 232.582 473.561 233.147 473.341 233.616C473.136 234.071 472.835 234.496 472.439 234.892C472.058 235.273 471.603 235.684 471.075 236.124C470.591 236.535 470.217 236.894 469.953 237.202C469.704 237.51 469.535 237.818 469.447 238.126C469.359 238.419 469.315 238.779 469.315 239.204V239.578H467.775V238.984ZM467.269 242.812C467.269 242.269 467.394 241.888 467.643 241.668C467.907 241.448 468.237 241.338 468.633 241.338C469 241.338 469.315 241.448 469.579 241.668C469.843 241.888 469.975 242.269 469.975 242.812C469.975 243.34 469.843 243.721 469.579 243.956C469.315 244.191 469 244.308 468.633 244.308C468.237 244.308 467.907 244.191 467.643 243.956C467.394 243.721 467.269 243.34 467.269 242.812Z" fill="#1D1D1D"/>
</svg>
