<svg width="812.3" height="183" viewBox="0 0 812.3 183" fill="none" xmlns="http://www.w3.org/2000/svg">
<line y1="33.5" x2="812.3" y2="33.5" stroke="#1C1A1A"/>
<line y1="58.5" x2="812.3" y2="58.5" stroke="#1C1A1A"/>
<line y1="83.5" x2="812.3" y2="83.5" stroke="#1C1A1A"/>
<line y1="108.5" x2="812.3" y2="108.5" stroke="#1C1A1A"/>
<line y1="133.5" x2="812.3" y2="133.5" stroke="#1C1A1A"/>
<path d="M33.0196 96.6936C30.4448 97.5402 28.317 98.9688 26.636 100.981C24.9547 102.991 23.9303 105.188 23.5625 107.57C23.1947 109.951 23.4969 112.306 24.4688 114.635C25.4407 116.964 27.2664 118.843 29.9456 120.272C30.5761 120.272 30.9699 120.537 31.128 121.066C31.2852 121.595 31.0485 121.859 30.419 121.859C27.8443 121.33 25.5852 120.245 23.6414 118.605C20.0163 115.588 18.02 111.698 17.6522 106.935C17.4421 104.553 17.6653 102.251 18.3221 100.028C18.9787 97.8046 19.885 95.7669 21.0408 93.9144C22.4592 91.9568 24.1404 90.2627 26.0843 88.834C26.1893 88.7279 26.4915 88.4904 26.9905 88.1197C27.4896 87.749 27.9755 87.4054 28.4484 87.0878C28.9213 86.7702 29.6304 86.2673 30.5761 85.579L27.6604 71.4479C25.0861 73.6179 22.5381 76.0123 20.0164 78.6322C17.4946 81.252 15.2092 84.0181 13.1603 86.9285C11.1115 89.8399 9.46968 92.9226 8.23502 96.1776C7.00047 99.4326 6.38319 102.859 6.38319 106.459C6.38319 109.793 7.07923 112.929 8.47151 115.866C9.86369 118.803 11.7156 121.357 14.0272 123.526C16.3388 125.696 19.005 127.403 22.0258 128.648C25.0467 129.891 28.1069 130.513 31.2066 130.513C31.312 130.513 31.7973 130.46 32.6645 130.354C33.5317 130.249 34.4506 130.116 35.4222 129.957C36.3948 129.799 37.2879 129.626 38.1024 129.441C38.9159 129.256 39.3236 129.057 39.3236 128.846L38.8502 126.623C36.8016 116.197 34.8574 106.22 33.0196 96.6936ZM35.7773 96.376L42.2394 127.893C45.9697 126.464 48.4907 124.016 49.8045 120.55C51.1182 117.083 51.4195 113.564 50.7104 109.991C50.0014 106.419 48.3336 103.256 45.7062 100.504C43.0798 97.7515 39.7701 96.376 35.7773 96.376ZM27.5028 53.9034C29.1311 53.0559 30.6417 51.7865 32.034 50.0924C33.4263 48.3993 34.7132 46.5859 35.8956 44.6543C37.077 42.7228 38.1024 40.7511 38.9686 38.7394C39.8357 36.7287 40.5319 34.9033 41.057 33.2623C41.6348 31.516 42.0286 29.5574 42.2394 27.3874C42.4493 25.2174 42.1081 23.392 41.2151 21.9093C40.5846 20.5868 39.7572 19.8194 38.7329 19.607C37.7076 19.3956 36.6832 19.4748 35.6589 19.8455C34.6346 20.2161 33.663 20.8112 32.7431 21.6318C31.8242 22.4523 31.1539 23.1796 30.7342 23.8148C29.5776 25.8786 28.5663 28.1809 27.6998 30.7216C26.8329 33.2623 26.2418 35.8951 25.9267 38.6212C25.6114 41.3462 25.5721 43.9661 25.8085 46.4807C26.0448 48.9944 26.6096 51.4689 27.5028 53.9034ZM25.1387 56.364C24.2455 52.8715 23.4575 49.4442 22.7745 46.083C22.0915 42.7228 21.7501 39.2694 21.7501 35.7228C21.7501 33.13 21.9339 30.2848 22.3017 27.189C22.6694 24.0933 23.3392 21.0757 24.3112 18.1383C25.2831 15.2009 26.6227 12.568 28.3302 10.2397C30.0381 7.91038 32.3095 6.21725 35.1468 5.15829C35.4093 5.0531 35.6718 5 35.9344 5C36.3023 5 36.7359 5.21139 37.2352 5.63517C37.7344 6.05796 38.2595 6.68011 38.8114 7.50062C39.3624 8.32114 39.8487 9.16771 40.2693 10.0413C40.689 10.9139 41.0043 11.51 41.2151 11.8276C42.6332 14.5266 43.6705 17.3979 44.3278 20.4406C44.9842 23.4842 45.3651 26.5138 45.4705 29.5304C45.6803 34.0828 45.4307 38.5811 44.7216 43.0273C44.0126 47.4725 42.5805 51.8126 40.4265 56.0464C39.6915 57.3168 38.9427 58.6001 38.1809 59.8965C37.4192 61.1939 36.5132 62.4502 35.462 63.6675C35.2522 63.8799 34.8713 64.2636 34.3193 64.8186C33.7674 65.3747 33.2025 65.9437 32.6247 66.5258C32.0469 67.1079 31.5348 67.6509 31.0883 68.1528C30.6417 68.6557 30.419 68.9603 30.419 69.0665L33.6491 84.9438C33.6699 85.048 35.2651 84.9438 35.2651 84.9438C38.348 84.9829 41.6119 85.4859 44.4462 86.6109C47.178 87.8813 49.529 89.6275 51.4991 91.8506C53.4691 94.0737 55.0444 96.5744 56.2268 99.3525C57.4093 102.132 58 104.95 58 107.808C58 110.665 57.5793 113.577 56.739 116.54C54.5849 122.151 51.144 126.305 46.4162 129.004C45.8902 129.322 45.1413 129.68 44.1697 130.076C43.1981 130.473 42.8172 131.095 43.027 131.942C44.2881 137.708 45.1413 141.676 45.5888 143.85C46.0354 146.024 46.3635 148.829 46.5734 152.265C46.7832 155.551 46.2183 158.507 44.8788 161.152C43.5392 163.807 41.7402 165.961 39.4807 167.624C37.2222 169.297 35.1597 170.269 33.295 170.569C31.4294 170.86 30.1554 171 29.4732 171C27.1087 171 24.7972 170.549 22.5381 169.648C19.7536 168.596 17.4158 166.983 15.5245 164.809C13.6332 162.635 12.6875 159.99 12.6875 156.874C12.6875 154.91 13.2523 152.897 14.3818 150.833C15.5114 148.769 16.9955 147.286 18.8342 146.395C20.8832 145.333 22.7351 145.042 24.39 145.513C26.0448 145.994 27.4108 146.895 28.4878 148.218C29.5647 149.54 30.3136 151.143 30.7342 153.017C31.1539 154.9 31.128 156.653 30.6547 158.297C30.1823 159.94 29.2236 161.332 27.7786 162.464C26.3338 163.606 24.3243 164.117 21.7501 164.017C22.8007 165.921 24.2718 167.123 26.1631 167.624C28.0544 168.135 29.9983 168.165 31.9942 167.744C33.9912 167.323 35.8688 166.542 37.629 165.4C39.3892 164.268 40.7686 163.035 41.766 161.713C42.3965 160.761 42.8699 159.519 43.1852 157.986C43.5004 156.443 43.6844 154.85 43.7361 153.177C43.7888 151.514 43.7361 150.212 43.579 149.29C43.4209 148.358 43.1583 146.915 42.7904 144.962C41.2151 138.56 40.2166 134.533 39.796 132.89C39.5861 132.366 39.0213 132.193 38.1024 132.379C37.1825 132.564 36.4078 132.736 35.7773 132.89C31.2593 133.481 27.4765 133.21 24.4294 132.101C19.7011 130.831 15.5376 128.568 11.9389 125.313C8.34014 122.058 5.45067 118.115 3.27036 113.484C1.09015 108.853 0 105.334 0 102.925C0 100.518 0 98.9958 0 98.3607C0 94.0737 0.73552 90.0513 2.20656 86.2933C4.99092 80.4185 8.28763 75.0205 12.0965 70.0984C15.9054 65.1763 20.2528 60.5978 25.1387 56.364Z" fill="#1C1A1A"/>
<path d="M323.097 156.514C317.453 154.805 313 150.161 313 145.984C313 134.16 338.813 129.481 349.473 139.372C361 150.069 342.188 162.295 323.097 156.514H323.097ZM340.315 153.544C343.455 148.829 340.453 139.486 335.013 137.048C327.025 133.467 322.129 139.569 325.456 148.959C327.757 155.453 337.119 158.343 340.315 153.544Z" fill="#1C1A1A"/>
<path d="M248.097 169.514C242.453 167.805 238 163.161 238 158.984C238 147.16 263.813 142.481 274.473 152.372C286 163.069 267.188 175.295 248.097 169.514H248.097ZM265.315 166.544C268.455 161.829 265.453 152.486 260.013 150.048C252.025 146.467 247.129 152.569 250.456 161.959C252.757 168.453 262.119 171.343 265.315 166.544Z" fill="#1C1A1A"/>
<path d="M173.097 181.514C167.453 179.805 163 175.161 163 170.984C163 159.16 188.813 154.481 199.473 164.372C211 175.069 192.188 187.295 173.097 181.514H173.097ZM190.315 178.544C193.455 173.829 190.453 164.486 185.013 162.048C177.025 158.467 172.129 164.569 175.456 173.959C177.757 180.453 187.119 183.343 190.315 178.544Z" fill="#1C1A1A"/>
<path d="M398.097 144.514C392.453 142.805 388 138.161 388 133.984C388 122.16 413.813 117.481 424.473 127.372C436 138.069 417.188 150.295 398.097 144.514H398.097ZM415.315 141.544C418.455 136.829 415.453 127.486 410.013 125.048C402.025 121.467 397.129 127.569 400.456 136.959C402.757 143.453 412.119 146.343 415.315 141.544Z" fill="#1C1A1A"/>
<path d="M698.097 94.5145C692.453 92.8054 688 88.1609 688 83.9836C688 72.1601 713.813 67.4812 724.473 77.3725C736 88.0687 717.188 100.295 698.097 94.5145H698.097ZM715.315 91.5442C718.455 86.8287 715.453 77.486 710.013 75.0476C702.025 71.4667 697.129 77.5689 700.456 86.9586C702.757 93.4532 712.119 96.3425 715.315 91.5442Z" fill="#1C1A1A"/>
<path d="M623.097 106.514C617.453 104.805 613 100.161 613 95.9836C613 84.1601 638.813 79.4812 649.473 89.3725C661 100.069 642.188 112.295 623.097 106.514H623.097ZM640.315 103.544C643.455 98.8287 640.453 89.486 635.013 87.0476C627.025 83.4667 622.129 89.5689 625.456 98.9586C627.757 105.453 637.119 108.343 640.315 103.544Z" fill="#1C1A1A"/>
<path d="M548.097 119.514C542.453 117.805 538 113.161 538 108.984C538 97.1601 563.813 92.4812 574.473 102.372C586 113.069 567.188 125.295 548.097 119.514H548.097ZM565.315 116.544C568.455 111.829 565.453 102.486 560.013 100.048C552.025 96.4667 547.129 102.569 550.456 111.959C552.757 118.453 562.119 121.343 565.315 116.544Z" fill="#1C1A1A"/>
<path d="M473.097 131.514C467.453 129.805 463 125.161 463 120.984C463 109.16 488.813 104.481 499.473 114.372C511 125.069 492.188 137.295 473.097 131.514H473.097ZM490.315 128.544C493.455 123.829 490.453 114.486 485.013 112.048C477.025 108.467 472.129 114.569 475.456 123.959C477.757 130.453 487.119 133.343 490.315 128.544Z" fill="#1C1A1A"/>
<line x1="153" y1="158.5" x2="213" y2="158.5" stroke="#1C1A1A"/>
<line x1="228" y1="158.5" x2="288" y2="158.5" stroke="#1C1A1A"/>
<path d="M68.5229 43.5005V26.6585L75.3676 24.6821V41.4382L68.5229 43.5005ZM82 39.426L77.2943 40.8367V24.0806L82 22.7058V15.7456L77.2943 17.1204V0H75.3676V17.6396L68.5229 19.6983V3.05046H66.7057V20.332L62 21.7104V28.685L66.7057 27.3101V44.0339L62 45.4052V52.3511L66.7057 50.9762V68H68.5229V50.3676L75.3676 48.3984V64.9603H77.2943V47.7754L82 46.397V39.426Z" fill="#1C1A1A"/>
<path d="M92.5229 81.5005V64.6585L99.3676 62.6821V79.4382L92.5229 81.5005ZM106 77.426L101.294 78.8367V62.0806L106 60.7058V53.7456L101.294 55.1204V38H99.3676V55.6396L92.5229 57.6983V41.0505H90.7057V58.332L86 59.7104V66.685L90.7057 65.3101V82.0339L86 83.4052V90.3511L90.7057 88.9762V106H92.5229V88.3676L99.3676 86.3984V102.96H101.294V85.7754L106 84.397V77.426Z" fill="#1C1A1A"/>
<path d="M597.523 105.5V88.6585L604.368 86.6821V103.438L597.523 105.5ZM611 101.426L606.294 102.837V86.0806L611 84.7058V77.7456L606.294 79.1204V62H604.368V79.6396L597.523 81.6983V65.0505H595.706V82.332L591 83.7104V90.685L595.706 89.3101V106.034L591 107.405V114.351L595.706 112.976V130H597.523V112.368L604.368 110.398V126.96H606.294V109.775L611 108.397V101.426Z" fill="#1C1A1A"/>
</svg>
