<svg width="1552" height="270" viewBox="0 0 1552 270" fill="none" xmlns="http://www.w3.org/2000/svg">
<line y1="28.5" x2="1552" y2="28.5" stroke="#1C1A1A"/>
<line y1="53.5" x2="1552" y2="53.5" stroke="#1C1A1A"/>
<line y1="78.5" x2="1552" y2="78.5" stroke="#1C1A1A"/>
<line y1="103.5" x2="1552" y2="103.5" stroke="#1C1A1A"/>
<line y1="128.5" x2="1552" y2="128.5" stroke="#1C1A1A"/>
<path d="M33.0196 91.6936C30.4448 92.5402 28.317 93.9688 26.636 95.9805C24.9547 97.9912 23.9303 100.188 23.5625 102.57C23.1947 104.951 23.4969 107.306 24.4688 109.635C25.4407 111.964 27.2664 113.843 29.9456 115.272C30.5761 115.272 30.9699 115.537 31.128 116.066C31.2852 116.595 31.0485 116.859 30.419 116.859C27.8443 116.33 25.5852 115.245 23.6414 113.605C20.0163 110.588 18.02 106.698 17.6522 101.935C17.4421 99.5531 17.6653 97.2509 18.3221 95.0277C18.9787 92.8046 19.885 90.7669 21.0408 88.9144C22.4592 86.9568 24.1404 85.2627 26.0843 83.834C26.1893 83.7279 26.4915 83.4904 26.9905 83.1197C27.4896 82.749 27.9755 82.4054 28.4484 82.0878C28.9213 81.7702 29.6304 81.2673 30.5761 80.579L27.6604 66.4479C25.0861 68.6179 22.5381 71.0123 20.0164 73.6322C17.4946 76.252 15.2092 79.0181 13.1603 81.9285C11.1115 84.8399 9.46968 87.9226 8.23502 91.1776C7.00047 94.4326 6.38319 97.859 6.38319 101.459C6.38319 104.793 7.07923 107.929 8.47151 110.866C9.86369 113.803 11.7156 116.357 14.0272 118.526C16.3388 120.696 19.005 122.403 22.0258 123.648C25.0467 124.891 28.1069 125.513 31.2066 125.513C31.312 125.513 31.7973 125.46 32.6645 125.354C33.5317 125.249 34.4506 125.116 35.4222 124.957C36.3948 124.799 37.2879 124.626 38.1024 124.441C38.9159 124.256 39.3236 124.057 39.3236 123.846L38.8502 121.623C36.8016 111.197 34.8574 101.22 33.0196 91.6936ZM35.7773 91.376L42.2394 122.893C45.9697 121.464 48.4907 119.016 49.8045 115.55C51.1182 112.083 51.4195 108.564 50.7104 104.991C50.0014 101.419 48.3336 98.2557 45.7062 95.5036C43.0798 92.7515 39.7701 91.376 35.7773 91.376ZM27.5028 48.9034C29.1311 48.0559 30.6417 46.7865 32.034 45.0924C33.4263 43.3993 34.7132 41.5859 35.8956 39.6543C37.077 37.7228 38.1024 35.7511 38.9686 33.7394C39.8357 31.7287 40.5319 29.9033 41.057 28.2623C41.6348 26.516 42.0286 24.5574 42.2394 22.3874C42.4493 20.2174 42.1081 18.392 41.2151 16.9093C40.5846 15.5868 39.7572 14.8194 38.7329 14.607C37.7076 14.3956 36.6832 14.4748 35.6589 14.8455C34.6346 15.2161 33.663 15.8112 32.7431 16.6318C31.8242 17.4523 31.1539 18.1796 30.7342 18.8148C29.5776 20.8786 28.5663 23.1809 27.6998 25.7216C26.8329 28.2623 26.2418 30.8951 25.9267 33.6212C25.6114 36.3462 25.5721 38.9661 25.8085 41.4807C26.0448 43.9944 26.6096 46.4689 27.5028 48.9034ZM25.1387 51.364C24.2455 47.8715 23.4575 44.4442 22.7745 41.083C22.0915 37.7228 21.7501 34.2694 21.7501 30.7228C21.7501 28.13 21.9339 25.2848 22.3017 22.189C22.6694 19.0933 23.3392 16.0757 24.3112 13.1383C25.2831 10.2009 26.6227 7.568 28.3302 5.23969C30.0381 2.91038 32.3095 1.21725 35.1468 0.158293C35.4093 0.0530982 35.6718 0 35.9344 0C36.3023 0 36.7359 0.211391 37.2352 0.635175C37.7344 1.05796 38.2595 1.68011 38.8114 2.50062C39.3624 3.32114 39.8487 4.16771 40.2693 5.04132C40.689 5.91394 41.0043 6.51004 41.2151 6.82763C42.6332 9.52662 43.6705 12.3979 44.3278 15.4406C44.9842 18.4842 45.3651 21.5138 45.4705 24.5304C45.6803 29.0828 45.4307 33.5811 44.7216 38.0273C44.0126 42.4725 42.5805 46.8126 40.4265 51.0464C39.6915 52.3168 38.9427 53.6001 38.1809 54.8965C37.4192 56.1939 36.5132 57.4502 35.462 58.6675C35.2522 58.8799 34.8713 59.2636 34.3193 59.8186C33.7674 60.3747 33.2025 60.9437 32.6247 61.5258C32.0469 62.1079 31.5348 62.6509 31.0883 63.1528C30.6417 63.6557 30.419 63.9603 30.419 64.0665L33.6491 79.9438C33.6699 80.048 35.2651 79.9438 35.2651 79.9438C38.348 79.9829 41.6119 80.4859 44.4462 81.6109C47.178 82.8813 49.529 84.6275 51.4991 86.8506C53.4691 89.0737 55.0444 91.5744 56.2268 94.3525C57.4093 97.1316 58 99.9498 58 102.808C58 105.665 57.5793 108.577 56.739 111.54C54.5849 117.151 51.144 121.305 46.4162 124.004C45.8902 124.322 45.1413 124.68 44.1697 125.076C43.1981 125.473 42.8172 126.095 43.027 126.942C44.2881 132.708 45.1413 136.676 45.5888 138.85C46.0354 141.024 46.3635 143.829 46.5734 147.265C46.7832 150.551 46.2183 153.507 44.8788 156.152C43.5392 158.807 41.7402 160.961 39.4807 162.624C37.2222 164.297 35.1597 165.269 33.295 165.569C31.4294 165.86 30.1554 166 29.4732 166C27.1087 166 24.7972 165.549 22.5381 164.648C19.7536 163.596 17.4158 161.983 15.5245 159.809C13.6332 157.635 12.6875 154.99 12.6875 151.874C12.6875 149.91 13.2523 147.897 14.3818 145.833C15.5114 143.769 16.9955 142.286 18.8342 141.395C20.8832 140.333 22.7351 140.042 24.39 140.513C26.0448 140.994 27.4108 141.895 28.4878 143.218C29.5647 144.54 30.3136 146.143 30.7342 148.017C31.1539 149.9 31.128 151.653 30.6547 153.297C30.1823 154.94 29.2236 156.332 27.7786 157.464C26.3338 158.606 24.3243 159.117 21.7501 159.017C22.8007 160.921 24.2718 162.123 26.1631 162.624C28.0544 163.135 29.9983 163.165 31.9942 162.744C33.9912 162.323 35.8688 161.542 37.629 160.4C39.3892 159.268 40.7686 158.035 41.766 156.713C42.3965 155.761 42.8699 154.519 43.1852 152.986C43.5004 151.443 43.6844 149.85 43.7361 148.177C43.7888 146.514 43.7361 145.212 43.579 144.29C43.4209 143.358 43.1583 141.915 42.7904 139.962C41.2151 133.56 40.2166 129.533 39.796 127.89C39.5861 127.366 39.0213 127.193 38.1024 127.379C37.1825 127.564 36.4078 127.736 35.7773 127.89C31.2593 128.481 27.4765 128.21 24.4294 127.101C19.7011 125.831 15.5376 123.568 11.9389 120.313C8.34014 117.058 5.45067 113.115 3.27036 108.484C1.09015 103.853 0 100.334 0 97.9251C0 95.5177 0 93.9958 0 93.3607C0 89.0737 0.73552 85.0513 2.20656 81.2933C4.99092 75.4185 8.28763 70.0205 12.0965 65.0984C15.9054 60.1763 20.2528 55.5978 25.1387 51.364Z" fill="#1C1A1A"/>
<g transform="translate(57.5 0)">
<path d="M917.097 101.514C911.453 99.8054 907 95.1609 907 90.9836C907 79.1601 932.813 74.4812 943.473 84.3725C955 95.0687 936.188 107.295 917.097 101.514H917.097ZM934.315 98.5442C937.455 93.8287 934.453 84.486 929.013 82.0476C921.025 78.4667 916.129 84.5689 919.456 93.9586C921.757 100.453 931.119 103.343 934.315 98.5442Z" fill="#1C1A1A"/>
<path d="M420.097 101.514C414.453 99.8054 410 95.1609 410 90.9836C410 79.1601 435.813 74.4812 446.473 84.3725C458 95.0687 439.188 107.295 420.097 101.514H420.097ZM437.315 98.5442C440.455 93.8287 437.453 84.486 432.013 82.0476C424.025 78.4667 419.129 84.5689 422.456 93.9586C424.757 100.453 434.119 103.343 437.315 98.5442Z" fill="#1C1A1A"/>
<path d="M1003.1 64.5145C997.453 62.8054 993 58.1609 993 53.9836C993 42.1601 1018.81 37.4812 1029.47 47.3725C1041 58.0687 1022.19 70.2953 1003.1 64.5145H1003.1ZM1020.31 61.5442C1023.46 56.8287 1020.45 47.486 1015.01 45.0476C1007.02 41.4667 1002.13 47.5689 1005.46 56.9586C1007.76 63.4532 1017.12 66.3425 1020.31 61.5442Z" fill="#1C1A1A"/>
<path d="M567.097 64.5145C561.453 62.8054 557 58.1609 557 53.9836C557 42.1601 582.813 37.4812 593.473 47.3725C605 58.0687 586.188 70.2953 567.097 64.5145H567.097ZM584.315 61.5442C587.455 56.8287 584.453 47.486 579.013 45.0476C571.025 41.4667 566.129 47.5689 569.456 56.9586C571.757 63.4532 581.119 66.3425 584.315 61.5442Z" fill="#1C1A1A"/>
<path d="M725.097 89.5145C719.453 87.8054 715 83.1609 715 78.9836C715 67.1601 740.813 62.4812 751.473 72.3725C763 83.0687 744.188 95.2953 725.097 89.5145H725.097ZM742.315 86.5442C745.455 81.8287 742.453 72.486 737.013 70.0476C729.025 66.4667 724.129 72.5689 727.456 81.9586C729.757 88.4532 739.119 91.3425 742.315 86.5442Z" fill="#1C1A1A"/>
<path d="M491.144 229.248C491.144 232.32 490.4 234.936 488.912 237.096C487.424 239.208 485.288 240.84 482.504 241.992C479.768 243.144 476.528 243.72 472.784 243.72C470.864 243.72 469.016 243.624 467.24 243.432C465.512 243.24 463.928 242.976 462.488 242.64C461.048 242.256 459.776 241.8 458.672 241.272V235.08C460.4 235.848 462.536 236.544 465.08 237.168C467.672 237.792 470.336 238.104 473.072 238.104C475.616 238.104 477.752 237.768 479.48 237.096C481.208 236.424 482.504 235.464 483.368 234.216C484.232 232.968 484.664 231.504 484.664 229.824C484.664 228.144 484.304 226.728 483.584 225.576C482.864 224.424 481.616 223.368 479.84 222.408C478.112 221.4 475.688 220.344 472.568 219.24C470.36 218.424 468.416 217.56 466.736 216.648C465.104 215.688 463.736 214.608 462.632 213.408C461.528 212.208 460.688 210.84 460.112 209.304C459.584 207.768 459.32 205.992 459.32 203.976C459.32 201.24 460.016 198.912 461.408 196.992C462.8 195.024 464.72 193.512 467.168 192.456C469.664 191.4 472.52 190.872 475.736 190.872C478.568 190.872 481.16 191.136 483.512 191.664C485.864 192.192 488 192.888 489.92 193.752L487.904 199.296C486.128 198.528 484.184 197.88 482.072 197.352C480.008 196.824 477.848 196.56 475.592 196.56C473.432 196.56 471.632 196.872 470.192 197.496C468.752 198.12 467.672 199.008 466.952 200.16C466.232 201.264 465.872 202.56 465.872 204.048C465.872 205.776 466.232 207.216 466.952 208.368C467.672 209.52 468.848 210.552 470.48 211.464C472.112 212.376 474.32 213.36 477.104 214.416C480.128 215.52 482.672 216.72 484.736 218.016C486.848 219.264 488.432 220.776 489.488 222.552C490.592 224.328 491.144 226.56 491.144 229.248ZM514.172 243H507.836V188.28H514.172V243ZM567.15 223.632C567.15 226.848 566.718 229.704 565.854 232.2C565.038 234.648 563.838 236.736 562.254 238.464C560.718 240.192 558.822 241.512 556.566 242.424C554.358 243.288 551.886 243.72 549.15 243.72C546.606 243.72 544.254 243.288 542.094 242.424C539.934 241.512 538.062 240.192 536.478 238.464C534.894 236.736 533.646 234.648 532.734 232.2C531.87 229.704 531.438 226.848 531.438 223.632C531.438 219.36 532.158 215.76 533.598 212.832C535.038 209.856 537.102 207.6 539.79 206.064C542.478 204.48 545.67 203.688 549.366 203.688C552.87 203.688 555.942 204.48 558.582 206.064C561.27 207.6 563.358 209.856 564.846 212.832C566.382 215.76 567.15 219.36 567.15 223.632ZM537.99 223.632C537.99 226.656 538.374 229.296 539.142 231.552C539.958 233.76 541.206 235.464 542.886 236.664C544.566 237.864 546.702 238.464 549.294 238.464C551.886 238.464 554.022 237.864 555.702 236.664C557.382 235.464 558.606 233.76 559.374 231.552C560.19 229.296 560.598 226.656 560.598 223.632C560.598 220.56 560.19 217.944 559.374 215.784C558.558 213.624 557.31 211.968 555.63 210.816C553.998 209.616 551.862 209.016 549.222 209.016C545.286 209.016 542.43 210.312 540.654 212.904C538.878 215.496 537.99 219.072 537.99 223.632ZM607.898 221.184C607.61 220.176 607.322 219.192 607.034 218.232C606.746 217.224 606.482 216.288 606.242 215.424C606.05 214.512 605.858 213.672 605.666 212.904C605.474 212.136 605.33 211.488 605.234 210.96H604.946C604.85 211.488 604.706 212.136 604.514 212.904C604.37 213.672 604.178 214.512 603.938 215.424C603.746 216.336 603.506 217.296 603.218 218.304C602.978 219.264 602.69 220.248 602.354 221.256L595.442 242.928H588.242L577.658 204.336H584.21L589.538 224.928C589.922 226.32 590.282 227.736 590.618 229.176C590.954 230.568 591.242 231.912 591.482 233.208C591.77 234.456 591.962 235.536 592.058 236.448H592.346C592.49 235.872 592.658 235.152 592.85 234.288C593.042 233.424 593.234 232.512 593.426 231.552C593.666 230.592 593.906 229.632 594.146 228.672C594.434 227.712 594.698 226.848 594.938 226.08L601.778 204.336H608.69L615.314 226.08C615.65 227.184 615.986 228.36 616.322 229.608C616.706 230.856 617.042 232.08 617.33 233.28C617.618 234.432 617.81 235.464 617.906 236.376H618.194C618.29 235.56 618.458 234.552 618.698 233.352C618.986 232.104 619.298 230.76 619.634 229.32C620.018 227.832 620.402 226.368 620.786 224.928L626.186 204.336H632.666L621.938 242.928H614.522L607.898 221.184ZM724.585 254.088H692.329V249.48H724.585V254.088ZM756.362 203.688C760.97 203.688 764.45 204.816 766.802 207.072C769.154 209.28 770.33 212.88 770.33 217.872V243H764.066V218.304C764.066 215.184 763.37 212.856 761.978 211.32C760.586 209.784 758.402 209.016 755.426 209.016C751.154 209.016 748.202 210.216 746.57 212.616C744.938 215.016 744.122 218.472 744.122 222.984V243H737.786V204.408H742.898L743.834 209.664H744.194C745.058 208.32 746.114 207.216 747.362 206.352C748.658 205.44 750.074 204.768 751.61 204.336C753.146 203.904 754.73 203.688 756.362 203.688ZM815.485 254.088H783.229V249.48H815.485V254.088ZM906.484 254.088H874.228V249.48H906.484V254.088ZM937.684 203.688C938.404 203.688 939.172 203.736 939.988 203.832C940.852 203.88 941.596 203.976 942.22 204.12L941.428 209.952C940.804 209.808 940.108 209.688 939.34 209.592C938.62 209.496 937.924 209.448 937.252 209.448C935.764 209.448 934.348 209.76 933.004 210.384C931.66 211.008 930.46 211.896 929.404 213.048C928.348 214.152 927.508 215.496 926.884 217.08C926.308 218.664 926.02 220.44 926.02 222.408V243H919.684V204.408H924.868L925.588 211.464H925.876C926.692 210.024 927.676 208.728 928.828 207.576C929.98 206.376 931.3 205.44 932.788 204.768C934.276 204.048 935.908 203.688 937.684 203.688ZM988.772 223.632C988.772 226.848 988.34 229.704 987.476 232.2C986.66 234.648 985.46 236.736 983.876 238.464C982.34 240.192 980.444 241.512 978.188 242.424C975.98 243.288 973.508 243.72 970.772 243.72C968.228 243.72 965.876 243.288 963.716 242.424C961.556 241.512 959.684 240.192 958.1 238.464C956.516 236.736 955.268 234.648 954.356 232.2C953.492 229.704 953.06 226.848 953.06 223.632C953.06 219.36 953.78 215.76 955.22 212.832C956.66 209.856 958.724 207.6 961.412 206.064C964.1 204.48 967.292 203.688 970.988 203.688C974.492 203.688 977.564 204.48 980.204 206.064C982.892 207.6 984.98 209.856 986.468 212.832C988.004 215.76 988.772 219.36 988.772 223.632ZM959.612 223.632C959.612 226.656 959.996 229.296 960.764 231.552C961.58 233.76 962.828 235.464 964.508 236.664C966.188 237.864 968.324 238.464 970.916 238.464C973.508 238.464 975.644 237.864 977.324 236.664C979.004 235.464 980.228 233.76 980.996 231.552C981.812 229.296 982.22 226.656 982.22 223.632C982.22 220.56 981.812 217.944 980.996 215.784C980.18 213.624 978.932 211.968 977.252 210.816C975.62 209.616 973.484 209.016 970.844 209.016C966.908 209.016 964.052 210.312 962.276 212.904C960.5 215.496 959.612 219.072 959.612 223.632ZM1032.01 254.088H999.75V249.48H1032.01V254.088ZM1097.1 254.088H1064.85V249.48H1097.1V254.088Z" fill="black"/>
</g>
</svg>
