<svg width="1552" height="270" viewBox="0 0 1552 270" fill="none" xmlns="http://www.w3.org/2000/svg">
<line y1="28.5" x2="1552" y2="28.5" stroke="#1C1A1A"/>
<line y1="53.5" x2="1552" y2="53.5" stroke="#1C1A1A"/>
<line y1="78.5" x2="1552" y2="78.5" stroke="#1C1A1A"/>
<line y1="103.5" x2="1552" y2="103.5" stroke="#1C1A1A"/>
<line y1="128.5" x2="1552" y2="128.5" stroke="#1C1A1A"/>
<path d="M33.0196 91.6936C30.4448 92.5402 28.317 93.9688 26.636 95.9805C24.9547 97.9912 23.9303 100.188 23.5625 102.57C23.1947 104.951 23.4969 107.306 24.4688 109.635C25.4407 111.964 27.2664 113.843 29.9456 115.272C30.5761 115.272 30.9699 115.537 31.128 116.066C31.2852 116.595 31.0485 116.859 30.419 116.859C27.8443 116.33 25.5852 115.245 23.6414 113.605C20.0163 110.588 18.02 106.698 17.6522 101.935C17.4421 99.5531 17.6653 97.2509 18.3221 95.0277C18.9787 92.8046 19.885 90.7669 21.0408 88.9144C22.4592 86.9568 24.1404 85.2627 26.0843 83.834C26.1893 83.7279 26.4915 83.4904 26.9905 83.1197C27.4896 82.749 27.9755 82.4054 28.4484 82.0878C28.9213 81.7702 29.6304 81.2673 30.5761 80.579L27.6604 66.4479C25.0861 68.6179 22.5381 71.0123 20.0164 73.6322C17.4946 76.252 15.2092 79.0181 13.1603 81.9285C11.1115 84.8399 9.46968 87.9226 8.23502 91.1776C7.00047 94.4326 6.38319 97.859 6.38319 101.459C6.38319 104.793 7.07923 107.929 8.47151 110.866C9.86369 113.803 11.7156 116.357 14.0272 118.526C16.3388 120.696 19.005 122.403 22.0258 123.648C25.0467 124.891 28.1069 125.513 31.2066 125.513C31.312 125.513 31.7973 125.46 32.6645 125.354C33.5317 125.249 34.4506 125.116 35.4222 124.957C36.3948 124.799 37.2879 124.626 38.1024 124.441C38.9159 124.256 39.3236 124.057 39.3236 123.846L38.8502 121.623C36.8016 111.197 34.8574 101.22 33.0196 91.6936ZM35.7773 91.376L42.2394 122.893C45.9697 121.464 48.4907 119.016 49.8045 115.55C51.1182 112.083 51.4195 108.564 50.7104 104.991C50.0014 101.419 48.3336 98.2557 45.7062 95.5036C43.0798 92.7515 39.7701 91.376 35.7773 91.376ZM27.5028 48.9034C29.1311 48.0559 30.6417 46.7865 32.034 45.0924C33.4263 43.3993 34.7132 41.5859 35.8956 39.6543C37.077 37.7228 38.1024 35.7511 38.9686 33.7394C39.8357 31.7287 40.5319 29.9033 41.057 28.2623C41.6348 26.516 42.0286 24.5574 42.2394 22.3874C42.4493 20.2174 42.1081 18.392 41.2151 16.9093C40.5846 15.5868 39.7572 14.8194 38.7329 14.607C37.7076 14.3956 36.6832 14.4748 35.6589 14.8455C34.6346 15.2161 33.663 15.8112 32.7431 16.6318C31.8242 17.4523 31.1539 18.1796 30.7342 18.8148C29.5776 20.8786 28.5663 23.1809 27.6998 25.7216C26.8329 28.2623 26.2418 30.8951 25.9267 33.6212C25.6114 36.3462 25.5721 38.9661 25.8085 41.4807C26.0448 43.9944 26.6096 46.4689 27.5028 48.9034ZM25.1387 51.364C24.2455 47.8715 23.4575 44.4442 22.7745 41.083C22.0915 37.7228 21.7501 34.2694 21.7501 30.7228C21.7501 28.13 21.9339 25.2848 22.3017 22.189C22.6694 19.0933 23.3392 16.0757 24.3112 13.1383C25.2831 10.2009 26.6227 7.568 28.3302 5.23969C30.0381 2.91038 32.3095 1.21725 35.1468 0.158293C35.4093 0.0530982 35.6718 0 35.9344 0C36.3023 0 36.7359 0.211391 37.2352 0.635175C37.7344 1.05796 38.2595 1.68011 38.8114 2.50062C39.3624 3.32114 39.8487 4.16771 40.2693 5.04132C40.689 5.91394 41.0043 6.51004 41.2151 6.82763C42.6332 9.52662 43.6705 12.3979 44.3278 15.4406C44.9842 18.4842 45.3651 21.5138 45.4705 24.5304C45.6803 29.0828 45.4307 33.5811 44.7216 38.0273C44.0126 42.4725 42.5805 46.8126 40.4265 51.0464C39.6915 52.3168 38.9427 53.6001 38.1809 54.8965C37.4192 56.1939 36.5132 57.4502 35.462 58.6675C35.2522 58.8799 34.8713 59.2636 34.3193 59.8186C33.7674 60.3747 33.2025 60.9437 32.6247 61.5258C32.0469 62.1079 31.5348 62.6509 31.0883 63.1528C30.6417 63.6557 30.419 63.9603 30.419 64.0665L33.6491 79.9438C33.6699 80.048 35.2651 79.9438 35.2651 79.9438C38.348 79.9829 41.6119 80.4859 44.4462 81.6109C47.178 82.8813 49.529 84.6275 51.4991 86.8506C53.4691 89.0737 55.0444 91.5744 56.2268 94.3525C57.4093 97.1316 58 99.9498 58 102.808C58 105.665 57.5793 108.577 56.739 111.54C54.5849 117.151 51.144 121.305 46.4162 124.004C45.8902 124.322 45.1413 124.68 44.1697 125.076C43.1981 125.473 42.8172 126.095 43.027 126.942C44.2881 132.708 45.1413 136.676 45.5888 138.85C46.0354 141.024 46.3635 143.829 46.5734 147.265C46.7832 150.551 46.2183 153.507 44.8788 156.152C43.5392 158.807 41.7402 160.961 39.4807 162.624C37.2222 164.297 35.1597 165.269 33.295 165.569C31.4294 165.86 30.1554 166 29.4732 166C27.1087 166 24.7972 165.549 22.5381 164.648C19.7536 163.596 17.4158 161.983 15.5245 159.809C13.6332 157.635 12.6875 154.99 12.6875 151.874C12.6875 149.91 13.2523 147.897 14.3818 145.833C15.5114 143.769 16.9955 142.286 18.8342 141.395C20.8832 140.333 22.7351 140.042 24.39 140.513C26.0448 140.994 27.4108 141.895 28.4878 143.218C29.5647 144.54 30.3136 146.143 30.7342 148.017C31.1539 149.9 31.128 151.653 30.6547 153.297C30.1823 154.94 29.2236 156.332 27.7786 157.464C26.3338 158.606 24.3243 159.117 21.7501 159.017C22.8007 160.921 24.2718 162.123 26.1631 162.624C28.0544 163.135 29.9983 163.165 31.9942 162.744C33.9912 162.323 35.8688 161.542 37.629 160.4C39.3892 159.268 40.7686 158.035 41.766 156.713C42.3965 155.761 42.8699 154.519 43.1852 152.986C43.5004 151.443 43.6844 149.85 43.7361 148.177C43.7888 146.514 43.7361 145.212 43.579 144.29C43.4209 143.358 43.1583 141.915 42.7904 139.962C41.2151 133.56 40.2166 129.533 39.796 127.89C39.5861 127.366 39.0213 127.193 38.1024 127.379C37.1825 127.564 36.4078 127.736 35.7773 127.89C31.2593 128.481 27.4765 128.21 24.4294 127.101C19.7011 125.831 15.5376 123.568 11.9389 120.313C8.34014 117.058 5.45067 113.115 3.27036 108.484C1.09015 103.853 0 100.334 0 97.9251C0 95.5177 0 93.9958 0 93.3607C0 89.0737 0.73552 85.0513 2.20656 81.2933C4.99092 75.4185 8.28763 70.0205 12.0965 65.0984C15.9054 60.1763 20.2528 55.5978 25.1387 51.364Z" fill="#1C1A1A"/>
<path d="M956.097 51.5145C950.453 49.8054 946 45.1609 946 40.9836C946 29.1601 971.813 24.4812 982.473 34.3725C994 45.0687 975.188 57.2953 956.097 51.5145H956.097ZM973.315 48.5442C976.455 43.8287 973.453 34.486 968.013 32.0476C960.025 28.4667 955.129 34.5689 958.456 43.9586C960.757 50.4532 970.119 53.3425 973.315 48.5442Z" fill="#1C1A1A"/>
<path d="M1074.1 101.514C1068.45 99.8054 1064 95.1609 1064 90.9836C1064 79.1601 1089.81 74.4812 1100.47 84.3725C1112 95.0687 1093.19 107.295 1074.1 101.514H1074.1ZM1091.31 98.5442C1094.46 93.8287 1091.45 84.486 1086.01 82.0476C1078.02 78.4667 1073.13 84.5689 1076.46 93.9586C1078.76 100.453 1088.12 103.343 1091.31 98.5442Z" fill="#1C1A1A"/>
<path d="M749.097 76.5145C743.453 74.8054 739 70.1609 739 65.9836C739 54.1601 764.813 49.4812 775.473 59.3725C787 70.0687 768.188 82.2953 749.097 76.5145H749.097ZM766.315 73.5442C769.455 68.8287 766.453 59.486 761.013 57.0476C753.025 53.4667 748.129 59.5689 751.456 68.9586C753.757 75.4532 763.119 78.3425 766.315 73.5442Z" fill="#1C1A1A"/>
<path d="M574.097 51.5145C568.453 49.8054 564 45.1609 564 40.9836C564 29.1601 589.813 24.4812 600.473 34.3725C612 45.0687 593.188 57.2953 574.097 51.5145H574.097ZM591.315 48.5442C594.455 43.8287 591.453 34.486 586.013 32.0476C578.025 28.4667 573.129 34.5689 576.456 43.9586C578.757 50.4532 588.119 53.3425 591.315 48.5442Z" fill="#1C1A1A"/>
<path d="M685.097 64.5145C679.453 62.8054 675 58.1609 675 53.9836C675 42.1601 700.813 37.4812 711.473 47.3725C723 58.0687 704.188 70.2953 685.097 64.5145H685.097ZM702.315 61.5442C705.455 56.8287 702.453 47.486 697.013 45.0476C689.025 41.4667 684.129 47.5689 687.456 56.9586C689.757 63.4532 699.119 66.3425 702.315 61.5442Z" fill="#1C1A1A"/>
<path d="M523.164 243L506.244 197.928H505.956C506.052 198.888 506.124 200.112 506.172 201.6C506.268 203.088 506.34 204.72 506.388 206.496C506.436 208.224 506.46 210 506.46 211.824V243H500.484V191.592H510.06L525.9 233.712H526.188L542.316 191.592H551.82V243H545.412V211.392C545.412 209.712 545.436 208.056 545.484 206.424C545.532 204.744 545.604 203.184 545.7 201.744C545.796 200.256 545.868 199.008 545.916 198H545.628L528.492 243H523.164ZM598.132 254.088H565.876V249.48H598.132V254.088ZM617.669 243H611.333V188.28H617.669V243ZM670.647 223.632C670.647 226.848 670.215 229.704 669.351 232.2C668.535 234.648 667.335 236.736 665.751 238.464C664.215 240.192 662.319 241.512 660.063 242.424C657.855 243.288 655.383 243.72 652.647 243.72C650.103 243.72 647.751 243.288 645.591 242.424C643.431 241.512 641.559 240.192 639.975 238.464C638.391 236.736 637.143 234.648 636.231 232.2C635.367 229.704 634.935 226.848 634.935 223.632C634.935 219.36 635.655 215.76 637.095 212.832C638.535 209.856 640.599 207.6 643.287 206.064C645.975 204.48 649.167 203.688 652.863 203.688C656.367 203.688 659.439 204.48 662.079 206.064C664.767 207.6 666.855 209.856 668.343 212.832C669.879 215.76 670.647 219.36 670.647 223.632ZM641.487 223.632C641.487 226.656 641.871 229.296 642.639 231.552C643.455 233.76 644.703 235.464 646.383 236.664C648.063 237.864 650.199 238.464 652.791 238.464C655.383 238.464 657.519 237.864 659.199 236.664C660.879 235.464 662.103 233.76 662.871 231.552C663.687 229.296 664.095 226.656 664.095 223.632C664.095 220.56 663.687 217.944 662.871 215.784C662.055 213.624 660.807 211.968 659.127 210.816C657.495 209.616 655.359 209.016 652.719 209.016C648.783 209.016 645.927 210.312 644.151 212.904C642.375 215.496 641.487 219.072 641.487 223.632ZM713.881 254.088H681.625V249.48H713.881V254.088ZM733.417 204.408V243H727.081V204.408H733.417ZM730.321 189.936C731.281 189.936 732.121 190.272 732.841 190.944C733.609 191.568 733.993 192.576 733.993 193.968C733.993 195.312 733.609 196.32 732.841 196.992C732.121 197.664 731.281 198 730.321 198C729.265 198 728.377 197.664 727.657 196.992C726.937 196.32 726.577 195.312 726.577 193.968C726.577 192.576 726.937 191.568 727.657 190.944C728.377 190.272 729.265 189.936 730.321 189.936ZM778.835 254.088H746.579V249.48H778.835V254.088ZM850.178 204.408V243H843.842V204.408H850.178ZM847.082 189.936C848.042 189.936 848.882 190.272 849.602 190.944C850.37 191.568 850.754 192.576 850.754 193.968C850.754 195.312 850.37 196.32 849.602 196.992C848.882 197.664 848.042 198 847.082 198C846.026 198 845.138 197.664 844.418 196.992C843.698 196.32 843.338 195.312 843.338 193.968C843.338 192.576 843.698 191.568 844.418 190.944C845.138 190.272 846.026 189.936 847.082 189.936ZM888.18 203.688C892.788 203.688 896.268 204.816 898.62 207.072C900.972 209.28 902.148 212.88 902.148 217.872V243H895.884V218.304C895.884 215.184 895.188 212.856 893.796 211.32C892.404 209.784 890.22 209.016 887.244 209.016C882.972 209.016 880.02 210.216 878.388 212.616C876.756 215.016 875.94 218.472 875.94 222.984V243H869.604V204.408H874.716L875.652 209.664H876.012C876.876 208.32 877.932 207.216 879.18 206.352C880.476 205.44 881.892 204.768 883.428 204.336C884.964 203.904 886.548 203.688 888.18 203.688ZM934.2 238.536C935.16 238.536 936.144 238.464 937.152 238.32C938.16 238.128 938.976 237.936 939.6 237.744V242.568C938.928 242.904 937.968 243.168 936.72 243.36C935.472 243.6 934.272 243.72 933.12 243.72C931.104 243.72 929.232 243.384 927.504 242.712C925.824 241.992 924.456 240.768 923.4 239.04C922.344 237.312 921.816 234.888 921.816 231.768V209.304H916.344V206.28L921.888 203.76L924.408 195.552H928.152V204.408H939.312V209.304H928.152V231.624C928.152 233.976 928.704 235.728 929.808 236.88C930.96 237.984 932.424 238.536 934.2 238.536ZM980.52 254.088H948.264V249.48H980.52V254.088ZM1011.72 203.688C1012.44 203.688 1013.21 203.736 1014.02 203.832C1014.89 203.88 1015.63 203.976 1016.26 204.12L1015.46 209.952C1014.84 209.808 1014.14 209.688 1013.38 209.592C1012.66 209.496 1011.96 209.448 1011.29 209.448C1009.8 209.448 1008.38 209.76 1007.04 210.384C1005.7 211.008 1004.5 211.896 1003.44 213.048C1002.38 214.152 1001.54 215.496 1000.92 217.08C1000.34 218.664 1000.06 220.44 1000.06 222.408V243H993.72V204.408H998.904L999.624 211.464H999.912C1000.73 210.024 1001.71 208.728 1002.86 207.576C1004.02 206.376 1005.34 205.44 1006.82 204.768C1008.31 204.048 1009.94 203.688 1011.72 203.688ZM1039.16 243L1024.54 204.408H1031.31L1039.52 227.16C1039.9 228.216 1040.31 229.392 1040.74 230.688C1041.17 231.984 1041.56 233.232 1041.89 234.432C1042.23 235.584 1042.47 236.568 1042.61 237.384H1042.9C1043.09 236.568 1043.36 235.56 1043.69 234.36C1044.08 233.16 1044.49 231.912 1044.92 230.616C1045.4 229.32 1045.81 228.168 1046.14 227.16L1054.35 204.408H1061.12L1046.43 243H1039.16ZM1100.42 254.088H1068.16V249.48H1100.42V254.088ZM1119.95 243H1113.62V188.28H1119.95V243Z" fill="black"/>
</svg>
