<svg width="736" height="208" viewBox="0 0 736 208" fill="none" xmlns="http://www.w3.org/2000/svg">
<path d="M356.097 22.5145C350.453 20.8054 346 16.1609 346 11.9836C346 0.160094 371.813 -4.51879 382.473 5.37248C394 16.0687 375.188 28.2953 356.097 22.5145H356.097ZM373.315 19.5442C376.455 14.8287 373.453 5.48596 368.013 3.04758C360.025 -0.533257 355.129 5.56887 358.456 14.9586C360.757 21.4532 370.119 24.3425 373.315 19.5442Z" fill="#1C1A1A"/>
<line x1="340" y1="36.5" x2="392" y2="36.5" stroke="#1C1A1A"/>
<line x1="340" y1="11.5" x2="392" y2="11.5" stroke="#1C1A1A"/>
<line y1="61.5" x2="736" y2="61.5" stroke="#1C1A1A"/>
<line y1="86.5" x2="736" y2="86.5" stroke="#1C1A1A"/>
<line y1="111.5" x2="736" y2="111.5" stroke="#1C1A1A"/>
<line y1="136.5" x2="736" y2="136.5" stroke="#1C1A1A"/>
<line y1="161.5" x2="736" y2="161.5" stroke="#1C1A1A"/>
<path d="M33.0196 124.694C30.4448 125.54 28.317 126.969 26.636 128.981C24.9547 130.991 23.9303 133.188 23.5625 135.57C23.1947 137.951 23.4969 140.306 24.4688 142.635C25.4407 144.964 27.2664 146.843 29.9456 148.272C30.5761 148.272 30.9699 148.537 31.128 149.066C31.2852 149.595 31.0485 149.859 30.419 149.859C27.8443 149.33 25.5852 148.245 23.6414 146.605C20.0163 143.588 18.02 139.698 17.6522 134.935C17.4421 132.553 17.6653 130.251 18.3221 128.028C18.9787 125.805 19.885 123.767 21.0408 121.914C22.4592 119.957 24.1404 118.263 26.0843 116.834C26.1893 116.728 26.4915 116.49 26.9905 116.12C27.4896 115.749 27.9755 115.405 28.4484 115.088C28.9213 114.77 29.6304 114.267 30.5761 113.579L27.6604 99.4479C25.0861 101.618 22.5381 104.012 20.0164 106.632C17.4946 109.252 15.2092 112.018 13.1603 114.929C11.1115 117.84 9.46968 120.923 8.23502 124.178C7.00047 127.433 6.38319 130.859 6.38319 134.459C6.38319 137.793 7.07923 140.929 8.47151 143.866C9.86369 146.803 11.7156 149.357 14.0272 151.526C16.3388 153.696 19.005 155.403 22.0258 156.648C25.0467 157.891 28.1069 158.513 31.2066 158.513C31.312 158.513 31.7973 158.46 32.6645 158.354C33.5317 158.249 34.4506 158.116 35.4222 157.957C36.3948 157.799 37.2879 157.626 38.1024 157.441C38.9159 157.256 39.3236 157.057 39.3236 156.846L38.8502 154.623C36.8016 144.197 34.8574 134.22 33.0196 124.694ZM35.7773 124.376L42.2394 155.893C45.9697 154.464 48.4907 152.016 49.8045 148.55C51.1182 145.083 51.4195 141.564 50.7104 137.991C50.0014 134.419 48.3336 131.256 45.7062 128.504C43.0798 125.752 39.7701 124.376 35.7773 124.376ZM27.5028 81.9034C29.1311 81.0559 30.6417 79.7865 32.034 78.0924C33.4263 76.3993 34.7132 74.5859 35.8956 72.6543C37.077 70.7228 38.1024 68.7511 38.9686 66.7394C39.8357 64.7287 40.5319 62.9033 41.057 61.2623C41.6348 59.516 42.0286 57.5574 42.2394 55.3874C42.4493 53.2174 42.1081 51.392 41.2151 49.9093C40.5846 48.5868 39.7572 47.8194 38.7329 47.607C37.7076 47.3956 36.6832 47.4748 35.6589 47.8455C34.6346 48.2161 33.663 48.8112 32.7431 49.6318C31.8242 50.4523 31.1539 51.1796 30.7342 51.8148C29.5776 53.8786 28.5663 56.1809 27.6998 58.7216C26.8329 61.2623 26.2418 63.8951 25.9267 66.6212C25.6114 69.3462 25.5721 71.9661 25.8085 74.4807C26.0448 76.9944 26.6096 79.4689 27.5028 81.9034ZM25.1387 84.364C24.2455 80.8715 23.4575 77.4442 22.7745 74.083C22.0915 70.7228 21.7501 67.2694 21.7501 63.7228C21.7501 61.13 21.9339 58.2848 22.3017 55.189C22.6694 52.0933 23.3392 49.0757 24.3112 46.1383C25.2831 43.2009 26.6227 40.568 28.3302 38.2397C30.0381 35.9104 32.3095 34.2173 35.1468 33.1583C35.4093 33.0531 35.6718 33 35.9344 33C36.3023 33 36.7359 33.2114 37.2352 33.6352C37.7344 34.058 38.2595 34.6801 38.8114 35.5006C39.3624 36.3211 39.8487 37.1677 40.2693 38.0413C40.689 38.9139 41.0043 39.51 41.2151 39.8276C42.6332 42.5266 43.6705 45.3979 44.3278 48.4406C44.9842 51.4842 45.3651 54.5138 45.4705 57.5304C45.6803 62.0828 45.4307 66.5811 44.7216 71.0273C44.0126 75.4725 42.5805 79.8126 40.4265 84.0464C39.6915 85.3168 38.9427 86.6001 38.1809 87.8965C37.4192 89.1939 36.5132 90.4502 35.462 91.6675C35.2522 91.8799 34.8713 92.2636 34.3193 92.8186C33.7674 93.3747 33.2025 93.9437 32.6247 94.5258C32.0469 95.1079 31.5348 95.6509 31.0883 96.1528C30.6417 96.6557 30.419 96.9603 30.419 97.0665L33.6491 112.944C33.6699 113.048 35.2651 112.944 35.2651 112.944C38.348 112.983 41.6119 113.486 44.4462 114.611C47.178 115.881 49.529 117.628 51.4991 119.851C53.4691 122.074 55.0444 124.574 56.2268 127.353C57.4093 130.132 58 132.95 58 135.808C58 138.665 57.5793 141.577 56.739 144.54C54.5849 150.151 51.144 154.305 46.4162 157.004C45.8902 157.322 45.1413 157.68 44.1697 158.076C43.1981 158.473 42.8172 159.095 43.027 159.942C44.2881 165.708 45.1413 169.676 45.5888 171.85C46.0354 174.024 46.3635 176.829 46.5734 180.265C46.7832 183.551 46.2183 186.507 44.8788 189.152C43.5392 191.807 41.7402 193.961 39.4807 195.624C37.2222 197.297 35.1597 198.269 33.295 198.569C31.4294 198.86 30.1554 199 29.4732 199C27.1087 199 24.7972 198.549 22.5381 197.648C19.7536 196.596 17.4158 194.983 15.5245 192.809C13.6332 190.635 12.6875 187.99 12.6875 184.874C12.6875 182.91 13.2523 180.897 14.3818 178.833C15.5114 176.769 16.9955 175.286 18.8342 174.395C20.8832 173.333 22.7351 173.042 24.39 173.513C26.0448 173.994 27.4108 174.895 28.4878 176.218C29.5647 177.54 30.3136 179.143 30.7342 181.017C31.1539 182.9 31.128 184.653 30.6547 186.297C30.1823 187.94 29.2236 189.332 27.7786 190.464C26.3338 191.606 24.3243 192.117 21.7501 192.017C22.8007 193.921 24.2718 195.123 26.1631 195.624C28.0544 196.135 29.9983 196.165 31.9942 195.744C33.9912 195.323 35.8688 194.542 37.629 193.4C39.3892 192.268 40.7686 191.035 41.766 189.713C42.3965 188.761 42.8699 187.519 43.1852 185.986C43.5004 184.443 43.6844 182.85 43.7361 181.177C43.7888 179.514 43.7361 178.212 43.579 177.29C43.4209 176.358 43.1583 174.915 42.7904 172.962C41.2151 166.56 40.2166 162.533 39.796 160.89C39.5861 160.366 39.0213 160.193 38.1024 160.379C37.1825 160.564 36.4078 160.736 35.7773 160.89C31.2593 161.481 27.4765 161.21 24.4294 160.101C19.7011 158.831 15.5376 156.568 11.9389 153.313C8.34014 150.058 5.45067 146.115 3.27036 141.484C1.09015 136.853 0 133.334 0 130.925C0 128.518 0 126.996 0 126.361C0 122.074 0.73552 118.051 2.20656 114.293C4.99092 108.418 8.28763 103.02 12.0965 98.0984C15.9054 93.1763 20.2528 88.5978 25.1387 84.364Z" fill="#1C1A1A"/>
</svg>
