<svg width="736" height="184" viewBox="0 0 736 184" fill="none" xmlns="http://www.w3.org/2000/svg">
<path d="M356.097 22.5145C350.453 20.8054 346 16.1609 346 11.9836C346 0.160094 371.813 -4.51879 382.473 5.37248C394 16.0687 375.188 28.2953 356.097 22.5145H356.097ZM373.315 19.5442C376.455 14.8287 373.453 5.48596 368.013 3.04758C360.025 -0.533257 355.129 5.56887 358.456 14.9586C360.757 21.4532 370.119 24.3425 373.315 19.5442Z" fill="#1C1A1A"/>
<line x1="340" y1="12.5" x2="392" y2="12.5" stroke="#1C1A1A"/>
<line y1="37.5" x2="736" y2="37.5" stroke="#1C1A1A"/>
<line y1="62.5" x2="736" y2="62.5" stroke="#1C1A1A"/>
<line y1="87.5" x2="736" y2="87.5" stroke="#1C1A1A"/>
<line y1="112.5" x2="736" y2="112.5" stroke="#1C1A1A"/>
<line y1="137.5" x2="736" y2="137.5" stroke="#1C1A1A"/>
<path d="M33.0196 100.694C30.4448 101.54 28.317 102.969 26.636 104.981C24.9547 106.991 23.9303 109.188 23.5625 111.57C23.1947 113.951 23.4969 116.306 24.4688 118.635C25.4407 120.964 27.2664 122.843 29.9456 124.272C30.5761 124.272 30.9699 124.537 31.128 125.066C31.2852 125.595 31.0485 125.859 30.419 125.859C27.8443 125.33 25.5852 124.245 23.6414 122.605C20.0163 119.588 18.02 115.698 17.6522 110.935C17.4421 108.553 17.6653 106.251 18.3221 104.028C18.9787 101.805 19.885 99.7669 21.0408 97.9144C22.4592 95.9568 24.1404 94.2627 26.0843 92.834C26.1893 92.7279 26.4915 92.4904 26.9905 92.1197C27.4896 91.749 27.9755 91.4054 28.4484 91.0878C28.9213 90.7702 29.6304 90.2673 30.5761 89.579L27.6604 75.4479C25.0861 77.6179 22.5381 80.0123 20.0164 82.6322C17.4946 85.252 15.2092 88.0181 13.1603 90.9285C11.1115 93.8399 9.46968 96.9226 8.23502 100.178C7.00047 103.433 6.38319 106.859 6.38319 110.459C6.38319 113.793 7.07923 116.929 8.47151 119.866C9.86369 122.803 11.7156 125.357 14.0272 127.526C16.3388 129.696 19.005 131.403 22.0258 132.648C25.0467 133.891 28.1069 134.513 31.2066 134.513C31.312 134.513 31.7973 134.46 32.6645 134.354C33.5317 134.249 34.4506 134.116 35.4222 133.957C36.3948 133.799 37.2879 133.626 38.1024 133.441C38.9159 133.256 39.3236 133.057 39.3236 132.846L38.8502 130.623C36.8016 120.197 34.8574 110.22 33.0196 100.694ZM35.7773 100.376L42.2394 131.893C45.9697 130.464 48.4907 128.016 49.8045 124.55C51.1182 121.083 51.4195 117.564 50.7104 113.991C50.0014 110.419 48.3336 107.256 45.7062 104.504C43.0798 101.752 39.7701 100.376 35.7773 100.376ZM27.5028 57.9034C29.1311 57.0559 30.6417 55.7865 32.034 54.0924C33.4263 52.3993 34.7132 50.5859 35.8956 48.6543C37.077 46.7228 38.1024 44.7511 38.9686 42.7394C39.8357 40.7287 40.5319 38.9033 41.057 37.2623C41.6348 35.516 42.0286 33.5574 42.2394 31.3874C42.4493 29.2174 42.1081 27.392 41.2151 25.9093C40.5846 24.5868 39.7572 23.8194 38.7329 23.607C37.7076 23.3956 36.6832 23.4748 35.6589 23.8455C34.6346 24.2161 33.663 24.8112 32.7431 25.6318C31.8242 26.4523 31.1539 27.1796 30.7342 27.8148C29.5776 29.8786 28.5663 32.1809 27.6998 34.7216C26.8329 37.2623 26.2418 39.8951 25.9267 42.6212C25.6114 45.3462 25.5721 47.9661 25.8085 50.4807C26.0448 52.9944 26.6096 55.4689 27.5028 57.9034ZM25.1387 60.364C24.2455 56.8715 23.4575 53.4442 22.7745 50.083C22.0915 46.7228 21.7501 43.2694 21.7501 39.7228C21.7501 37.13 21.9339 34.2848 22.3017 31.189C22.6694 28.0933 23.3392 25.0757 24.3112 22.1383C25.2831 19.2009 26.6227 16.568 28.3302 14.2397C30.0381 11.9104 32.3095 10.2173 35.1468 9.15829C35.4093 9.0531 35.6718 9 35.9344 9C36.3023 9 36.7359 9.21139 37.2352 9.63517C37.7344 10.058 38.2595 10.6801 38.8114 11.5006C39.3624 12.3211 39.8487 13.1677 40.2693 14.0413C40.689 14.9139 41.0043 15.51 41.2151 15.8276C42.6332 18.5266 43.6705 21.3979 44.3278 24.4406C44.9842 27.4842 45.3651 30.5138 45.4705 33.5304C45.6803 38.0828 45.4307 42.5811 44.7216 47.0273C44.0126 51.4725 42.5805 55.8126 40.4265 60.0464C39.6915 61.3168 38.9427 62.6001 38.1809 63.8965C37.4192 65.1939 36.5132 66.4502 35.462 67.6675C35.2522 67.8799 34.8713 68.2636 34.3193 68.8186C33.7674 69.3747 33.2025 69.9437 32.6247 70.5258C32.0469 71.1079 31.5348 71.6509 31.0883 72.1528C30.6417 72.6557 30.419 72.9603 30.419 73.0665L33.6491 88.9438C33.6699 89.048 35.2651 88.9438 35.2651 88.9438C38.348 88.9829 41.6119 89.4859 44.4462 90.6109C47.178 91.8813 49.529 93.6275 51.4991 95.8506C53.4691 98.0737 55.0444 100.574 56.2268 103.353C57.4093 106.132 58 108.95 58 111.808C58 114.665 57.5793 117.577 56.739 120.54C54.5849 126.151 51.144 130.305 46.4162 133.004C45.8902 133.322 45.1413 133.68 44.1697 134.076C43.1981 134.473 42.8172 135.095 43.027 135.942C44.2881 141.708 45.1413 145.676 45.5888 147.85C46.0354 150.024 46.3635 152.829 46.5734 156.265C46.7832 159.551 46.2183 162.507 44.8788 165.152C43.5392 167.807 41.7402 169.961 39.4807 171.624C37.2222 173.297 35.1597 174.269 33.295 174.569C31.4294 174.86 30.1554 175 29.4732 175C27.1087 175 24.7972 174.549 22.5381 173.648C19.7536 172.596 17.4158 170.983 15.5245 168.809C13.6332 166.635 12.6875 163.99 12.6875 160.874C12.6875 158.91 13.2523 156.897 14.3818 154.833C15.5114 152.769 16.9955 151.286 18.8342 150.395C20.8832 149.333 22.7351 149.042 24.39 149.513C26.0448 149.994 27.4108 150.895 28.4878 152.218C29.5647 153.54 30.3136 155.143 30.7342 157.017C31.1539 158.9 31.128 160.653 30.6547 162.297C30.1823 163.94 29.2236 165.332 27.7786 166.464C26.3338 167.606 24.3243 168.117 21.7501 168.017C22.8007 169.921 24.2718 171.123 26.1631 171.624C28.0544 172.135 29.9983 172.165 31.9942 171.744C33.9912 171.323 35.8688 170.542 37.629 169.4C39.3892 168.268 40.7686 167.035 41.766 165.713C42.3965 164.761 42.8699 163.519 43.1852 161.986C43.5004 160.443 43.6844 158.85 43.7361 157.177C43.7888 155.514 43.7361 154.212 43.579 153.29C43.4209 152.358 43.1583 150.915 42.7904 148.962C41.2151 142.56 40.2166 138.533 39.796 136.89C39.5861 136.366 39.0213 136.193 38.1024 136.379C37.1825 136.564 36.4078 136.736 35.7773 136.89C31.2593 137.481 27.4765 137.21 24.4294 136.101C19.7011 134.831 15.5376 132.568 11.9389 129.313C8.34014 126.058 5.45067 122.115 3.27036 117.484C1.09015 112.853 0 109.334 0 106.925C0 104.518 0 102.996 0 102.361C0 98.0737 0.73552 94.0513 2.20656 90.2933C4.99092 84.4185 8.28763 79.0205 12.0965 74.0984C15.9054 69.1763 20.2528 64.5978 25.1387 60.364Z" fill="#1C1A1A"/>
</svg>
