<svg width="736" height="250" viewBox="0 0 736 250" fill="none" xmlns="http://www.w3.org/2000/svg">
<path d="M356.097 22.5145C350.453 20.8054 346 16.1609 346 11.9836C346 0.160094 371.813 -4.51879 382.473 5.37248C394 16.0687 375.188 28.2953 356.097 22.5145H356.097ZM373.315 19.5442C376.455 14.8287 373.453 5.48596 368.013 3.04758C360.025 -0.533257 355.129 5.56887 358.456 14.9586C360.757 21.4532 370.119 24.3425 373.315 19.5442Z" fill="#1C1A1A"/>
<line x1="340" y1="49.5" x2="392" y2="49.5" stroke="#1C1A1A"/>
<line x1="340" y1="24.5" x2="392" y2="24.5" stroke="#1C1A1A"/>
<line y1="74.5" x2="736" y2="74.5" stroke="#1C1A1A"/>
<line y1="99.5" x2="736" y2="99.5" stroke="#1C1A1A"/>
<line y1="124.5" x2="736" y2="124.5" stroke="#1C1A1A"/>
<line y1="149.5" x2="736" y2="149.5" stroke="#1C1A1A"/>
<line y1="174.5" x2="736" y2="174.5" stroke="#1C1A1A"/>
<path d="M33.0196 137.694C30.4448 138.54 28.317 139.969 26.636 141.981C24.9547 143.991 23.9303 146.188 23.5625 148.57C23.1947 150.951 23.4969 153.306 24.4688 155.635C25.4407 157.964 27.2664 159.843 29.9456 161.272C30.5761 161.272 30.9699 161.537 31.128 162.066C31.2852 162.595 31.0485 162.859 30.419 162.859C27.8443 162.33 25.5852 161.245 23.6414 159.605C20.0163 156.588 18.0199 152.698 17.6522 147.935C17.4421 145.553 17.6653 143.251 18.3221 141.028C18.9787 138.805 19.885 136.767 21.0408 134.914C22.4592 132.957 24.1404 131.263 26.0843 129.834C26.1893 129.728 26.4915 129.49 26.9905 129.12C27.4896 128.749 27.9755 128.405 28.4484 128.088C28.9213 127.77 29.6304 127.267 30.5761 126.579L27.6604 112.448C25.0861 114.618 22.5381 117.012 20.0164 119.632C17.4946 122.252 15.2092 125.018 13.1603 127.929C11.1115 130.84 9.46968 133.923 8.23502 137.178C7.00047 140.433 6.3832 143.859 6.3832 147.459C6.3832 150.793 7.07923 153.929 8.47151 156.866C9.86369 159.803 11.7156 162.357 14.0272 164.526C16.3388 166.696 19.005 168.403 22.0258 169.648C25.0467 170.891 28.1069 171.513 31.2066 171.513C31.312 171.513 31.7973 171.46 32.6645 171.354C33.5317 171.249 34.4506 171.116 35.4222 170.957C36.3948 170.799 37.2879 170.626 38.1024 170.441C38.9159 170.256 39.3236 170.057 39.3236 169.846L38.8502 167.623C36.8016 157.197 34.8574 147.22 33.0196 137.694V137.694ZM35.7773 137.376L42.2394 168.893C45.9697 167.464 48.4907 165.016 49.8045 161.55C51.1182 158.083 51.4195 154.564 50.7104 150.991C50.0014 147.419 48.3336 144.256 45.7062 141.504C43.0798 138.752 39.7701 137.376 35.7773 137.376V137.376ZM27.5028 94.9034C29.1311 94.0559 30.6417 92.7865 32.034 91.0924C33.4263 89.3993 34.7132 87.5859 35.8956 85.6543C37.077 83.7228 38.1024 81.7511 38.9686 79.7394C39.8357 77.7287 40.5319 75.9033 41.057 74.2623C41.6348 72.516 42.0286 70.5574 42.2394 68.3874C42.4493 66.2174 42.1081 64.392 41.2151 62.9093C40.5846 61.5868 39.7572 60.8194 38.7329 60.607C37.7076 60.3956 36.6832 60.4748 35.6589 60.8455C34.6346 61.2161 33.663 61.8112 32.7431 62.6318C31.8242 63.4523 31.1539 64.1796 30.7342 64.8148C29.5776 66.8786 28.5663 69.1809 27.6998 71.7216C26.8329 74.2623 26.2418 76.8951 25.9267 79.6212C25.6114 82.3462 25.5721 84.9661 25.8085 87.4807C26.0448 89.9944 26.6096 92.4689 27.5028 94.9034V94.9034ZM25.1387 97.364C24.2455 93.8715 23.4575 90.4442 22.7745 87.083C22.0915 83.7228 21.7501 80.2694 21.7501 76.7228C21.7501 74.13 21.9339 71.2848 22.3017 68.189C22.6694 65.0933 23.3392 62.0757 24.3112 59.1383C25.2831 56.2009 26.6227 53.568 28.3302 51.2397C30.0381 48.9104 32.3095 47.2173 35.1468 46.1583C35.4093 46.0531 35.6718 46 35.9344 46C36.3023 46 36.7359 46.2114 37.2352 46.6352C37.7344 47.058 38.2595 47.6801 38.8114 48.5006C39.3624 49.3211 39.8487 50.1677 40.2693 51.0413C40.689 51.9139 41.0043 52.51 41.2151 52.8276C42.6332 55.5266 43.6705 58.3979 44.3278 61.4406C44.9842 64.4842 45.3651 67.5138 45.4705 70.5304C45.6803 75.0828 45.4307 79.5811 44.7216 84.0273C44.0126 88.4726 42.5805 92.8126 40.4265 97.0464C39.6915 98.3168 38.9427 99.6001 38.1809 100.897C37.4192 102.194 36.5132 103.45 35.462 104.668C35.2522 104.88 34.8713 105.264 34.3193 105.819C33.7674 106.375 33.2025 106.944 32.6247 107.526C32.0469 108.108 31.5348 108.651 31.0883 109.153C30.6417 109.656 30.419 109.96 30.419 110.066L33.6491 125.944C33.6699 126.048 35.2651 125.944 35.2651 125.944C38.348 125.983 41.6119 126.486 44.4462 127.611C47.178 128.881 49.529 130.628 51.4991 132.851C53.4691 135.074 55.0444 137.574 56.2268 140.353C57.4093 143.132 58 145.95 58 148.808C58 151.665 57.5793 154.577 56.739 157.54C54.5849 163.151 51.144 167.305 46.4162 170.004C45.8902 170.322 45.1413 170.68 44.1697 171.076C43.1981 171.473 42.8172 172.095 43.027 172.942C44.2881 178.708 45.1413 182.676 45.5888 184.85C46.0354 187.024 46.3635 189.829 46.5734 193.265C46.7832 196.551 46.2183 199.507 44.8788 202.152C43.5392 204.807 41.7402 206.961 39.4807 208.624C37.2222 210.297 35.1597 211.269 33.295 211.569C31.4294 211.86 30.1554 212 29.4732 212C27.1087 212 24.7972 211.549 22.5381 210.648C19.7536 209.596 17.4158 207.983 15.5245 205.809C13.6332 203.635 12.6875 200.99 12.6875 197.874C12.6875 195.91 13.2523 193.897 14.3818 191.833C15.5114 189.769 16.9955 188.286 18.8342 187.394C20.8832 186.333 22.7351 186.042 24.39 186.513C26.0448 186.994 27.4108 187.895 28.4878 189.218C29.5647 190.54 30.3136 192.143 30.7342 194.017C31.1539 195.9 31.128 197.653 30.6547 199.297C30.1823 200.94 29.2236 202.332 27.7786 203.464C26.3338 204.606 24.3243 205.117 21.7501 205.017C22.8007 206.921 24.2718 208.123 26.1631 208.624C28.0544 209.135 29.9983 209.165 31.9942 208.744C33.9912 208.323 35.8688 207.542 37.629 206.4C39.3892 205.268 40.7686 204.035 41.766 202.713C42.3965 201.761 42.8699 200.519 43.1852 198.986C43.5004 197.443 43.6844 195.85 43.7361 194.177C43.7888 192.514 43.7361 191.212 43.579 190.29C43.4209 189.358 43.1583 187.915 42.7904 185.962C41.2151 179.56 40.2166 175.533 39.796 173.89C39.5861 173.366 39.0213 173.193 38.1024 173.379C37.1825 173.564 36.4078 173.736 35.7773 173.89C31.2593 174.481 27.4765 174.21 24.4294 173.101C19.7011 171.831 15.5376 169.568 11.9389 166.313C8.34014 163.058 5.45067 159.115 3.27036 154.484C1.09015 149.853 0 146.334 0 143.925C0 141.518 0 139.996 0 139.361C0 135.074 0.73552 131.051 2.20656 127.293C4.99092 121.418 8.28763 116.02 12.0965 111.098C15.9054 106.176 20.2528 101.598 25.1387 97.364V97.364Z" fill="#1C1A1A"/>
</svg>
