<svg width="736" height="224" viewBox="0 0 736 224" fill="none" xmlns="http://www.w3.org/2000/svg">
<path d="M356.097 22.5145C350.453 20.8054 346 16.1609 346 11.9836C346 0.160094 371.813 -4.51879 382.473 5.37248C394 16.0687 375.188 28.2953 356.097 22.5145H356.097ZM373.315 19.5442C376.455 14.8287 373.453 5.48596 368.013 3.04758C360.025 -0.533257 355.129 5.56887 358.456 14.9586C360.757 21.4532 370.119 24.3425 373.315 19.5442Z" fill="#1C1A1A"/>
<line x1="340" y1="61.5" x2="392" y2="61.5" stroke="#1C1A1A"/>
<line x1="340" y1="36.5" x2="392" y2="36.5" stroke="#1C1A1A"/>
<line x1="340" y1="11.5" x2="392" y2="11.5" stroke="#1C1A1A"/>
<line y1="86.5" x2="736" y2="86.5" stroke="#1C1A1A"/>
<line y1="111.5" x2="736" y2="111.5" stroke="#1C1A1A"/>
<line y1="136.5" x2="736" y2="136.5" stroke="#1C1A1A"/>
<line y1="161.5" x2="736" y2="161.5" stroke="#1C1A1A"/>
<line y1="186.5" x2="736" y2="186.5" stroke="#1C1A1A"/>
<path d="M33.0196 149.694C30.4448 150.54 28.317 151.969 26.636 153.981C24.9547 155.991 23.9303 158.188 23.5625 160.57C23.1947 162.951 23.4969 165.306 24.4688 167.635C25.4407 169.964 27.2664 171.843 29.9456 173.272C30.5761 173.272 30.9699 173.537 31.128 174.066C31.2852 174.595 31.0485 174.859 30.419 174.859C27.8443 174.33 25.5852 173.245 23.6414 171.605C20.0163 168.588 18.0199 164.698 17.6522 159.935C17.4421 157.553 17.6653 155.251 18.3221 153.028C18.9787 150.805 19.885 148.767 21.0408 146.914C22.4592 144.957 24.1404 143.263 26.0843 141.834C26.1893 141.728 26.4915 141.49 26.9905 141.12C27.4896 140.749 27.9755 140.405 28.4484 140.088C28.9213 139.77 29.6304 139.267 30.5761 138.579L27.6604 124.448C25.0861 126.618 22.5381 129.012 20.0164 131.632C17.4946 134.252 15.2092 137.018 13.1603 139.929C11.1115 142.84 9.46968 145.923 8.23502 149.178C7.00047 152.433 6.3832 155.859 6.3832 159.459C6.3832 162.793 7.07923 165.929 8.47151 168.866C9.86369 171.803 11.7156 174.357 14.0272 176.526C16.3388 178.696 19.005 180.403 22.0258 181.648C25.0467 182.891 28.1069 183.513 31.2066 183.513C31.312 183.513 31.7973 183.46 32.6645 183.354C33.5317 183.249 34.4506 183.116 35.4222 182.957C36.3948 182.799 37.2879 182.626 38.1024 182.441C38.9159 182.256 39.3236 182.057 39.3236 181.846L38.8502 179.623C36.8016 169.197 34.8574 159.22 33.0196 149.694V149.694ZM35.7773 149.376L42.2394 180.893C45.9697 179.464 48.4907 177.016 49.8045 173.55C51.1182 170.083 51.4195 166.564 50.7104 162.991C50.0014 159.419 48.3336 156.256 45.7062 153.504C43.0798 150.752 39.7701 149.376 35.7773 149.376V149.376ZM27.5028 106.903C29.1311 106.056 30.6417 104.787 32.034 103.092C33.4263 101.399 34.7132 99.5859 35.8956 97.6543C37.077 95.7228 38.1024 93.7511 38.9686 91.7394C39.8357 89.7287 40.5319 87.9033 41.057 86.2623C41.6348 84.516 42.0286 82.5574 42.2394 80.3874C42.4493 78.2174 42.1081 76.392 41.2151 74.9093C40.5846 73.5868 39.7572 72.8194 38.7329 72.607C37.7076 72.3956 36.6832 72.4748 35.6589 72.8455C34.6346 73.2161 33.663 73.8112 32.7431 74.6318C31.8242 75.4523 31.1539 76.1796 30.7342 76.8148C29.5776 78.8786 28.5663 81.1809 27.6998 83.7216C26.8329 86.2623 26.2418 88.8951 25.9267 91.6212C25.6114 94.3462 25.5721 96.9661 25.8085 99.4807C26.0448 101.994 26.6096 104.469 27.5028 106.903V106.903ZM25.1387 109.364C24.2455 105.872 23.4575 102.444 22.7745 99.083C22.0915 95.7228 21.7501 92.2694 21.7501 88.7228C21.7501 86.13 21.9339 83.2848 22.3017 80.189C22.6694 77.0933 23.3392 74.0757 24.3112 71.1383C25.2831 68.2009 26.6227 65.568 28.3302 63.2397C30.0381 60.9104 32.3095 59.2173 35.1468 58.1583C35.4093 58.0531 35.6718 58 35.9344 58C36.3023 58 36.7359 58.2114 37.2352 58.6352C37.7344 59.058 38.2595 59.6801 38.8114 60.5006C39.3624 61.3211 39.8487 62.1677 40.2693 63.0413C40.689 63.9139 41.0043 64.51 41.2151 64.8276C42.6332 67.5266 43.6705 70.3979 44.3278 73.4406C44.9842 76.4842 45.3651 79.5138 45.4705 82.5304C45.6803 87.0828 45.4307 91.5811 44.7216 96.0273C44.0126 100.473 42.5805 104.813 40.4265 109.046C39.6915 110.317 38.9427 111.6 38.1809 112.897C37.4192 114.194 36.5132 115.45 35.462 116.668C35.2522 116.88 34.8713 117.264 34.3193 117.819C33.7674 118.375 33.2025 118.944 32.6247 119.526C32.0469 120.108 31.5348 120.651 31.0883 121.153C30.6417 121.656 30.419 121.96 30.419 122.066L33.6491 137.944C33.6699 138.048 35.2651 137.944 35.2651 137.944C38.348 137.983 41.6119 138.486 44.4462 139.611C47.178 140.881 49.529 142.628 51.4991 144.851C53.4691 147.074 55.0444 149.574 56.2268 152.353C57.4093 155.132 58 157.95 58 160.808C58 163.665 57.5793 166.577 56.739 169.54C54.5849 175.151 51.144 179.305 46.4162 182.004C45.8902 182.322 45.1413 182.68 44.1697 183.076C43.1981 183.473 42.8172 184.095 43.027 184.942C44.2881 190.708 45.1413 194.676 45.5888 196.85C46.0354 199.024 46.3635 201.829 46.5734 205.265C46.7832 208.551 46.2183 211.507 44.8788 214.152C43.5392 216.807 41.7402 218.961 39.4807 220.624C37.2222 222.297 35.1597 223.269 33.295 223.569C31.4294 223.86 30.1554 224 29.4732 224C27.1087 224 24.7972 223.549 22.5381 222.648C19.7536 221.596 17.4158 219.983 15.5245 217.809C13.6332 215.635 12.6875 212.99 12.6875 209.874C12.6875 207.91 13.2523 205.897 14.3818 203.833C15.5114 201.769 16.9955 200.286 18.8342 199.394C20.8832 198.333 22.7351 198.042 24.39 198.513C26.0448 198.994 27.4108 199.895 28.4878 201.218C29.5647 202.54 30.3136 204.143 30.7342 206.017C31.1539 207.9 31.128 209.653 30.6547 211.297C30.1823 212.94 29.2236 214.332 27.7786 215.464C26.3338 216.606 24.3243 217.117 21.7501 217.017C22.8007 218.921 24.2718 220.123 26.1631 220.624C28.0544 221.135 29.9983 221.165 31.9942 220.744C33.9912 220.323 35.8688 219.542 37.629 218.4C39.3892 217.268 40.7686 216.035 41.766 214.713C42.3965 213.761 42.8699 212.519 43.1852 210.986C43.5004 209.443 43.6844 207.85 43.7361 206.177C43.7888 204.514 43.7361 203.212 43.579 202.29C43.4209 201.358 43.1583 199.915 42.7904 197.962C41.2151 191.56 40.2166 187.533 39.796 185.89C39.5861 185.366 39.0213 185.193 38.1024 185.379C37.1825 185.564 36.4078 185.736 35.7773 185.89C31.2593 186.481 27.4765 186.21 24.4294 185.101C19.7011 183.831 15.5376 181.568 11.9389 178.313C8.34014 175.058 5.45067 171.115 3.27036 166.484C1.09015 161.853 0 158.334 0 155.925C0 153.518 0 151.996 0 151.361C0 147.074 0.73552 143.051 2.20656 139.293C4.99092 133.418 8.28763 128.02 12.0965 123.098C15.9054 118.176 20.2528 113.598 25.1387 109.364V109.364Z" fill="#1C1A1A"/>
</svg>
