<svg width="767" height="173" viewBox="0 0 767 173" fill="none" xmlns="http://www.w3.org/2000/svg">
<line y1="35.5" x2="767" y2="35.5" stroke="#1C1A1A"/>
<line y1="60.5" x2="767" y2="60.5" stroke="#1C1A1A"/>
<line y1="85.5" x2="767" y2="85.5" stroke="#1C1A1A"/>
<line y1="110.5" x2="767" y2="110.5" stroke="#1C1A1A"/>
<line y1="135.5" x2="767" y2="135.5" stroke="#1C1A1A"/>
<path d="M33.0196 98.6936C30.4448 99.5402 28.317 100.969 26.636 102.981C24.9547 104.991 23.9303 107.188 23.5625 109.57C23.1947 111.951 23.4969 114.306 24.4688 116.635C25.4407 118.964 27.2664 120.843 29.9456 122.272C30.5761 122.272 30.9699 122.537 31.128 123.066C31.2852 123.595 31.0485 123.859 30.419 123.859C27.8443 123.33 25.5852 122.245 23.6414 120.605C20.0163 117.588 18.02 113.698 17.6522 108.935C17.4421 106.553 17.6653 104.251 18.3221 102.028C18.9787 99.8046 19.885 97.7669 21.0408 95.9144C22.4592 93.9568 24.1404 92.2627 26.0843 90.834C26.1893 90.7279 26.4915 90.4904 26.9905 90.1197C27.4896 89.749 27.9755 89.4054 28.4484 89.0878C28.9213 88.7702 29.6304 88.2673 30.5761 87.579L27.6604 73.4479C25.0861 75.6179 22.5381 78.0123 20.0164 80.6322C17.4946 83.252 15.2092 86.0181 13.1603 88.9285C11.1115 91.8399 9.46968 94.9226 8.23502 98.1776C7.00047 101.433 6.38319 104.859 6.38319 108.459C6.38319 111.793 7.07923 114.929 8.47151 117.866C9.86369 120.803 11.7156 123.357 14.0272 125.526C16.3388 127.696 19.005 129.403 22.0258 130.648C25.0467 131.891 28.1069 132.513 31.2066 132.513C31.312 132.513 31.7973 132.46 32.6645 132.354C33.5317 132.249 34.4506 132.116 35.4222 131.957C36.3948 131.799 37.2879 131.626 38.1024 131.441C38.9159 131.256 39.3236 131.057 39.3236 130.846L38.8502 128.623C36.8016 118.197 34.8574 108.22 33.0196 98.6936ZM35.7773 98.376L42.2394 129.893C45.9697 128.464 48.4907 126.016 49.8045 122.55C51.1182 119.083 51.4195 115.564 50.7104 111.991C50.0014 108.419 48.3336 105.256 45.7062 102.504C43.0798 99.7515 39.7701 98.376 35.7773 98.376ZM27.5028 55.9034C29.1311 55.0559 30.6417 53.7865 32.034 52.0924C33.4263 50.3993 34.7132 48.5859 35.8956 46.6543C37.077 44.7228 38.1024 42.7511 38.9686 40.7394C39.8357 38.7287 40.5319 36.9033 41.057 35.2623C41.6348 33.516 42.0286 31.5574 42.2394 29.3874C42.4493 27.2174 42.1081 25.392 41.2151 23.9093C40.5846 22.5868 39.7572 21.8194 38.7329 21.607C37.7076 21.3956 36.6832 21.4748 35.6589 21.8455C34.6346 22.2161 33.663 22.8112 32.7431 23.6318C31.8242 24.4523 31.1539 25.1796 30.7342 25.8148C29.5776 27.8786 28.5663 30.1809 27.6998 32.7216C26.8329 35.2623 26.2418 37.8951 25.9267 40.6212C25.6114 43.3462 25.5721 45.9661 25.8085 48.4807C26.0448 50.9944 26.6096 53.4689 27.5028 55.9034ZM25.1387 58.364C24.2455 54.8715 23.4575 51.4442 22.7745 48.083C22.0915 44.7228 21.7501 41.2694 21.7501 37.7228C21.7501 35.13 21.9339 32.2848 22.3017 29.189C22.6694 26.0933 23.3392 23.0757 24.3112 20.1383C25.2831 17.2009 26.6227 14.568 28.3302 12.2397C30.0381 9.91038 32.3095 8.21725 35.1468 7.15829C35.4093 7.0531 35.6718 7 35.9344 7C36.3023 7 36.7359 7.21139 37.2352 7.63517C37.7344 8.05796 38.2595 8.68011 38.8114 9.50062C39.3624 10.3211 39.8487 11.1677 40.2693 12.0413C40.689 12.9139 41.0043 13.51 41.2151 13.8276C42.6332 16.5266 43.6705 19.3979 44.3278 22.4406C44.9842 25.4842 45.3651 28.5138 45.4705 31.5304C45.6803 36.0828 45.4307 40.5811 44.7216 45.0273C44.0126 49.4725 42.5805 53.8126 40.4265 58.0464C39.6915 59.3168 38.9427 60.6001 38.1809 61.8965C37.4192 63.1939 36.5132 64.4502 35.462 65.6675C35.2522 65.8799 34.8713 66.2636 34.3193 66.8186C33.7674 67.3747 33.2025 67.9437 32.6247 68.5258C32.0469 69.1079 31.5348 69.6509 31.0883 70.1528C30.6417 70.6557 30.419 70.9603 30.419 71.0665L33.6491 86.9438C33.6699 87.048 35.2651 86.9438 35.2651 86.9438C38.348 86.9829 41.6119 87.4859 44.4462 88.6109C47.178 89.8813 49.529 91.6275 51.4991 93.8506C53.4691 96.0737 55.0444 98.5744 56.2268 101.353C57.4093 104.132 58 106.95 58 109.808C58 112.665 57.5793 115.577 56.739 118.54C54.5849 124.151 51.144 128.305 46.4162 131.004C45.8902 131.322 45.1413 131.68 44.1697 132.076C43.1981 132.473 42.8172 133.095 43.027 133.942C44.2881 139.708 45.1413 143.676 45.5888 145.85C46.0354 148.024 46.3635 150.829 46.5734 154.265C46.7832 157.551 46.2183 160.507 44.8788 163.152C43.5392 165.807 41.7402 167.961 39.4807 169.624C37.2222 171.297 35.1597 172.269 33.295 172.569C31.4294 172.86 30.1554 173 29.4732 173C27.1087 173 24.7972 172.549 22.5381 171.648C19.7536 170.596 17.4158 168.983 15.5245 166.809C13.6332 164.635 12.6875 161.99 12.6875 158.874C12.6875 156.91 13.2523 154.897 14.3818 152.833C15.5114 150.769 16.9955 149.286 18.8342 148.395C20.8832 147.333 22.7351 147.042 24.39 147.513C26.0448 147.994 27.4108 148.895 28.4878 150.218C29.5647 151.54 30.3136 153.143 30.7342 155.017C31.1539 156.9 31.128 158.653 30.6547 160.297C30.1823 161.94 29.2236 163.332 27.7786 164.464C26.3338 165.606 24.3243 166.117 21.7501 166.017C22.8007 167.921 24.2718 169.123 26.1631 169.624C28.0544 170.135 29.9983 170.165 31.9942 169.744C33.9912 169.323 35.8688 168.542 37.629 167.4C39.3892 166.268 40.7686 165.035 41.766 163.713C42.3965 162.761 42.8699 161.519 43.1852 159.986C43.5004 158.443 43.6844 156.85 43.7361 155.177C43.7888 153.514 43.7361 152.212 43.579 151.29C43.4209 150.358 43.1583 148.915 42.7904 146.962C41.2151 140.56 40.2166 136.533 39.796 134.89C39.5861 134.366 39.0213 134.193 38.1024 134.379C37.1825 134.564 36.4078 134.736 35.7773 134.89C31.2593 135.481 27.4765 135.21 24.4294 134.101C19.7011 132.831 15.5376 130.568 11.9389 127.313C8.34014 124.058 5.45067 120.115 3.27036 115.484C1.09015 110.853 0 107.334 0 104.925C0 102.518 0 100.996 0 100.361C0 96.0737 0.73552 92.0513 2.20656 88.2933C4.99092 82.4185 8.28763 77.0205 12.0965 72.0984C15.9054 67.1763 20.2528 62.5978 25.1387 58.364Z" fill="#1C1A1A"/>
<path d="M374.097 96.5145C368.453 94.8054 364 90.1609 364 85.9836C364 74.1601 389.813 69.4812 400.473 79.3725C412 90.0687 393.188 102.295 374.097 96.5145H374.097ZM391.315 93.5442C394.455 88.8287 391.453 79.486 386.013 77.0476C378.025 73.4667 373.129 79.5689 376.456 88.9586C378.757 95.4532 388.119 98.3425 391.315 93.5442Z" fill="black"/>
<path d="M374.097 22.5145C368.453 20.8054 364 16.1609 364 11.9836C364 0.160094 389.813 -4.51879 400.473 5.37248C412 16.0687 393.188 28.2953 374.097 22.5145H374.097ZM391.315 19.5442C394.455 14.8287 391.453 5.48596 386.013 3.04758C378.025 -0.533257 373.129 5.56887 376.456 14.9586C378.757 21.4532 388.119 24.3425 391.315 19.5442Z" fill="#1C1A1A"/>
<line x1="354" y1="23.5" x2="413" y2="23.5" stroke="black"/>
</svg>
