<svg width="736" height="166" viewBox="0 0 736 166" fill="none" xmlns="http://www.w3.org/2000/svg">
<line y1="28.5" x2="736" y2="28.5" stroke="#1C1A1A"/>
<line y1="53.5" x2="736" y2="53.5" stroke="#1C1A1A"/>
<line y1="78.5" x2="736" y2="78.5" stroke="#1C1A1A"/>
<line y1="103.5" x2="736" y2="103.5" stroke="#1C1A1A"/>
<line y1="128.5" x2="736" y2="128.5" stroke="#1C1A1A"/>
<path d="M33.0196 91.6936C30.4448 92.5402 28.317 93.9688 26.636 95.9805C24.9547 97.9912 23.9303 100.188 23.5625 102.57C23.1947 104.951 23.4969 107.306 24.4688 109.635C25.4407 111.964 27.2664 113.843 29.9456 115.272C30.5761 115.272 30.9699 115.537 31.128 116.066C31.2852 116.595 31.0485 116.859 30.419 116.859C27.8443 116.33 25.5852 115.245 23.6414 113.605C20.0163 110.588 18.02 106.698 17.6522 101.935C17.4421 99.5531 17.6653 97.2509 18.3221 95.0277C18.9787 92.8046 19.885 90.7669 21.0408 88.9144C22.4592 86.9568 24.1404 85.2627 26.0843 83.834C26.1893 83.7279 26.4915 83.4904 26.9905 83.1197C27.4896 82.749 27.9755 82.4054 28.4484 82.0878C28.9213 81.7702 29.6304 81.2673 30.5761 80.579L27.6604 66.4479C25.0861 68.6179 22.5381 71.0123 20.0164 73.6322C17.4946 76.252 15.2092 79.0181 13.1603 81.9285C11.1115 84.8399 9.46968 87.9226 8.23502 91.1776C7.00047 94.4326 6.38319 97.859 6.38319 101.459C6.38319 104.793 7.07923 107.929 8.47151 110.866C9.86369 113.803 11.7156 116.357 14.0272 118.526C16.3388 120.696 19.005 122.403 22.0258 123.648C25.0467 124.891 28.1069 125.513 31.2066 125.513C31.312 125.513 31.7973 125.46 32.6645 125.354C33.5317 125.249 34.4506 125.116 35.4222 124.957C36.3948 124.799 37.2879 124.626 38.1024 124.441C38.9159 124.256 39.3236 124.057 39.3236 123.846L38.8502 121.623C36.8016 111.197 34.8574 101.22 33.0196 91.6936ZM35.7773 91.376L42.2394 122.893C45.9697 121.464 48.4907 119.016 49.8045 115.55C51.1182 112.083 51.4195 108.564 50.7104 104.991C50.0014 101.419 48.3336 98.2557 45.7062 95.5036C43.0798 92.7515 39.7701 91.376 35.7773 91.376ZM27.5028 48.9034C29.1311 48.0559 30.6417 46.7865 32.034 45.0924C33.4263 43.3993 34.7132 41.5859 35.8956 39.6543C37.077 37.7228 38.1024 35.7511 38.9686 33.7394C39.8357 31.7287 40.5319 29.9033 41.057 28.2623C41.6348 26.516 42.0286 24.5574 42.2394 22.3874C42.4493 20.2174 42.1081 18.392 41.2151 16.9093C40.5846 15.5868 39.7572 14.8194 38.7329 14.607C37.7076 14.3956 36.6832 14.4748 35.6589 14.8455C34.6346 15.2161 33.663 15.8112 32.7431 16.6318C31.8242 17.4523 31.1539 18.1796 30.7342 18.8148C29.5776 20.8786 28.5663 23.1809 27.6998 25.7216C26.8329 28.2623 26.2418 30.8951 25.9267 33.6212C25.6114 36.3462 25.5721 38.9661 25.8085 41.4807C26.0448 43.9944 26.6096 46.4689 27.5028 48.9034ZM25.1387 51.364C24.2455 47.8715 23.4575 44.4442 22.7745 41.083C22.0915 37.7228 21.7501 34.2694 21.7501 30.7228C21.7501 28.13 21.9339 25.2848 22.3017 22.189C22.6694 19.0933 23.3392 16.0757 24.3112 13.1383C25.2831 10.2009 26.6227 7.568 28.3302 5.23969C30.0381 2.91038 32.3095 1.21725 35.1468 0.158293C35.4093 0.0530982 35.6718 0 35.9344 0C36.3023 0 36.7359 0.211391 37.2352 0.635175C37.7344 1.05796 38.2595 1.68011 38.8114 2.50062C39.3624 3.32114 39.8487 4.16771 40.2693 5.04132C40.689 5.91394 41.0043 6.51004 41.2151 6.82763C42.6332 9.52662 43.6705 12.3979 44.3278 15.4406C44.9842 18.4842 45.3651 21.5138 45.4705 24.5304C45.6803 29.0828 45.4307 33.5811 44.7216 38.0273C44.0126 42.4725 42.5805 46.8126 40.4265 51.0464C39.6915 52.3168 38.9427 53.6001 38.1809 54.8965C37.4192 56.1939 36.5132 57.4502 35.462 58.6675C35.2522 58.8799 34.8713 59.2636 34.3193 59.8186C33.7674 60.3747 33.2025 60.9437 32.6247 61.5258C32.0469 62.1079 31.5348 62.6509 31.0883 63.1528C30.6417 63.6557 30.419 63.9603 30.419 64.0665L33.6491 79.9438C33.6699 80.048 35.2651 79.9438 35.2651 79.9438C38.348 79.9829 41.6119 80.4859 44.4462 81.6109C47.178 82.8813 49.529 84.6275 51.4991 86.8506C53.4691 89.0737 55.0444 91.5744 56.2268 94.3525C57.4093 97.1316 58 99.9498 58 102.808C58 105.665 57.5793 108.577 56.739 111.54C54.5849 117.151 51.144 121.305 46.4162 124.004C45.8902 124.322 45.1413 124.68 44.1697 125.076C43.1981 125.473 42.8172 126.095 43.027 126.942C44.2881 132.708 45.1413 136.676 45.5888 138.85C46.0354 141.024 46.3635 143.829 46.5734 147.265C46.7832 150.551 46.2183 153.507 44.8788 156.152C43.5392 158.807 41.7402 160.961 39.4807 162.624C37.2222 164.297 35.1597 165.269 33.295 165.569C31.4294 165.86 30.1554 166 29.4732 166C27.1087 166 24.7972 165.549 22.5381 164.648C19.7536 163.596 17.4158 161.983 15.5245 159.809C13.6332 157.635 12.6875 154.99 12.6875 151.874C12.6875 149.91 13.2523 147.897 14.3818 145.833C15.5114 143.769 16.9955 142.286 18.8342 141.395C20.8832 140.333 22.7351 140.042 24.39 140.513C26.0448 140.994 27.4108 141.895 28.4878 143.218C29.5647 144.54 30.3136 146.143 30.7342 148.017C31.1539 149.9 31.128 151.653 30.6547 153.297C30.1823 154.94 29.2236 156.332 27.7786 157.464C26.3338 158.606 24.3243 159.117 21.7501 159.017C22.8007 160.921 24.2718 162.123 26.1631 162.624C28.0544 163.135 29.9983 163.165 31.9942 162.744C33.9912 162.323 35.8688 161.542 37.629 160.4C39.3892 159.268 40.7686 158.035 41.766 156.713C42.3965 155.761 42.8699 154.519 43.1852 152.986C43.5004 151.443 43.6844 149.85 43.7361 148.177C43.7888 146.514 43.7361 145.212 43.579 144.29C43.4209 143.358 43.1583 141.915 42.7904 139.962C41.2151 133.56 40.2166 129.533 39.796 127.89C39.5861 127.366 39.0213 127.193 38.1024 127.379C37.1825 127.564 36.4078 127.736 35.7773 127.89C31.2593 128.481 27.4765 128.21 24.4294 127.101C19.7011 125.831 15.5376 123.568 11.9389 120.313C8.34014 117.058 5.45067 113.115 3.27036 108.484C1.09015 103.853 0 100.334 0 97.9251C0 95.5177 0 93.9958 0 93.3607C0 89.0737 0.73552 85.0513 2.20656 81.2933C4.99092 75.4185 8.28763 70.0205 12.0965 65.0984C15.9054 60.1763 20.2528 55.5978 25.1387 51.364Z" fill="#1C1A1A"/>
<path d="M316.291 45.2C316.291 44.5333 316.873 43.9333 317.6 43.9333C318.327 43.9333 318.982 44.5333 318.982 45.2V54.8667L325.018 52.8V42.2667C325.018 41.6 325.673 41 326.4 41C327.127 41 327.709 41.6 327.709 42.2667V51.9333L330.036 51.1333C330.182 51.0667 330.4 51.0667 330.545 51.0667C331.345 51.0667 332 51.6667 332 52.4V56.4C332 56.9333 331.636 57.4667 331.055 57.6667L327.709 58.7333V69.4L330.036 68.6667C330.182 68.6 330.4 68.6 330.545 68.6C331.345 68.6 332 69.2 332 69.9333V73.9333C332 74.4667 331.636 74.9333 331.055 75.1333L327.709 76.2667V86.8C327.709 87.4667 327.127 88.0667 326.4 88.0667C325.673 88.0667 325.018 87.4667 325.018 86.8V77.1333L318.982 79.2V89.7333C318.982 90.4 318.327 91 317.6 91C316.873 91 316.291 90.4 316.291 89.7333V80.0667L313.964 80.8667C313.818 80.9333 313.6 80.9333 313.455 80.9333C312.655 80.9333 312 80.3333 312 79.6V75.6C312 75.0667 312.364 74.5333 312.945 74.3333L316.291 73.2667V62.6L313.964 63.3333C313.818 63.4 313.6 63.4 313.455 63.4C312.655 63.4 312 62.8 312 62.0667V58.0667C312 57.5333 312.364 57.0667 312.945 56.8667L316.291 55.7333V45.2ZM325.018 70.3333V59.6667L318.982 61.6667V72.3333L325.018 70.3333Z" fill="black"/>
<path d="M275.291 70.2C275.291 69.5333 275.873 68.9333 276.6 68.9333C277.327 68.9333 277.982 69.5333 277.982 70.2V79.8667L284.018 77.8V67.2667C284.018 66.6 284.673 66 285.4 66C286.127 66 286.709 66.6 286.709 67.2667V76.9333L289.036 76.1333C289.182 76.0667 289.4 76.0667 289.545 76.0667C290.345 76.0667 291 76.6667 291 77.4V81.4C291 81.9333 290.636 82.4667 290.055 82.6667L286.709 83.7333V94.4L289.036 93.6667C289.182 93.6 289.4 93.6 289.545 93.6C290.345 93.6 291 94.2 291 94.9333V98.9333C291 99.4667 290.636 99.9333 290.055 100.133L286.709 101.267V111.8C286.709 112.467 286.127 113.067 285.4 113.067C284.673 113.067 284.018 112.467 284.018 111.8V102.133L277.982 104.2V114.733C277.982 115.4 277.327 116 276.6 116C275.873 116 275.291 115.4 275.291 114.733V105.067L272.964 105.867C272.818 105.933 272.6 105.933 272.455 105.933C271.655 105.933 271 105.333 271 104.6V100.6C271 100.067 271.364 99.5333 271.945 99.3333L275.291 98.2667V87.6L272.964 88.3333C272.818 88.4 272.6 88.4 272.455 88.4C271.655 88.4 271 87.8 271 87.0667V83.0667C271 82.5333 271.364 82.0667 271.945 81.8667L275.291 80.7333V70.2ZM284.018 95.3333V84.6667L277.982 86.6667V97.3333L284.018 95.3333Z" fill="black"/>
<path d="M296.291 96.2C296.291 95.5333 296.873 94.9333 297.6 94.9333C298.327 94.9333 298.982 95.5333 298.982 96.2V105.867L305.018 103.8V93.2667C305.018 92.6 305.673 92 306.4 92C307.127 92 307.709 92.6 307.709 93.2667V102.933L310.036 102.133C310.182 102.067 310.4 102.067 310.545 102.067C311.345 102.067 312 102.667 312 103.4V107.4C312 107.933 311.636 108.467 311.055 108.667L307.709 109.733V120.4L310.036 119.667C310.182 119.6 310.4 119.6 310.545 119.6C311.345 119.6 312 120.2 312 120.933V124.933C312 125.467 311.636 125.933 311.055 126.133L307.709 127.267V137.8C307.709 138.467 307.127 139.067 306.4 139.067C305.673 139.067 305.018 138.467 305.018 137.8V128.133L298.982 130.2V140.733C298.982 141.4 298.327 142 297.6 142C296.873 142 296.291 141.4 296.291 140.733V131.067L293.964 131.867C293.818 131.933 293.6 131.933 293.455 131.933C292.655 131.933 292 131.333 292 130.6V126.6C292 126.067 292.364 125.533 292.945 125.333L296.291 124.267V113.6L293.964 114.333C293.818 114.4 293.6 114.4 293.455 114.4C292.655 114.4 292 113.8 292 113.067V109.067C292 108.533 292.364 108.067 292.945 107.867L296.291 106.733V96.2ZM305.018 121.333V110.667L298.982 112.667V123.333L305.018 121.333Z" fill="black"/>
<path d="M374.097 76.5145C368.453 74.8054 364 70.1609 364 65.9836C364 54.1601 389.813 49.4812 400.473 59.3725C412 70.0687 393.188 82.2953 374.097 76.5145H374.097ZM391.315 73.5442C394.455 68.8287 391.453 59.486 386.013 57.0476C378.025 53.4667 373.129 59.5689 376.456 68.9586C378.757 75.4532 388.119 78.3425 391.315 73.5442Z" fill="black"/>
<path d="M374.097 101.514C368.453 99.8054 364 95.1609 364 90.9836C364 79.1601 389.813 74.4812 400.473 84.3725C412 95.0687 393.188 107.295 374.097 101.514H374.097ZM391.315 98.5442C394.455 93.8287 391.453 84.486 386.013 82.0476C378.025 78.4667 373.129 84.5689 376.456 93.9586C378.757 100.453 388.119 103.343 391.315 98.5442Z" fill="black"/>
<path d="M374.097 126.514C368.453 124.805 364 120.161 364 115.984C364 104.16 389.813 99.4812 400.473 109.372C412 120.069 393.188 132.295 374.097 126.514H374.097ZM391.315 123.544C394.455 118.829 391.453 109.486 386.013 107.048C378.025 103.467 373.129 109.569 376.456 118.959C378.757 125.453 388.119 128.343 391.315 123.544Z" fill="black"/>
</svg>
