<svg width="141" height="146" viewBox="0 0 141 146" fill="none" xmlns="http://www.w3.org/2000/svg">
<path d="M74.4214 30.931C172.63 105.736 94.3417 150.376 42.9217 163.348C14.6652 173.723 -7.21226 145.8 -14.6184 130.54C-50.8038 -10.3943 29.6626 5.41702 74.4214 30.931Z" fill="#FBF5FF"/>
<path d="M99.6495 101.407C101.779 99.1737 105.192 99.2174 107.271 101.508C109.351 103.798 109.308 107.465 107.179 109.699C105.049 111.933 101.636 111.889 99.5568 109.599C97.4771 107.308 97.5197 103.641 99.6495 101.407Z" fill="#ECD6FE" stroke="#ECD6FE" stroke-linecap="round"/>
<path d="M92.5675 75.5402C94.6972 73.3065 98.1097 73.3502 100.189 75.6405C102.269 77.9307 102.226 81.5981 100.097 83.8318C97.9669 86.0655 94.5544 86.0218 92.4748 83.7316C90.3951 81.4413 90.4377 77.7739 92.5675 75.5402Z" fill="#ECD6FE" stroke="#ECD6FE" stroke-linecap="round"/>
<path d="M72.8019 51.7042C74.9317 49.4704 78.3441 49.5141 80.4238 51.8044C82.5034 54.0947 82.4609 57.7621 80.3311 59.9958C78.2013 62.2296 74.7888 62.1858 72.7092 59.8956C70.6295 57.6053 70.6721 53.9379 72.8019 51.7042Z" fill="#ECD6FE" stroke="#ECD6FE" stroke-linecap="round"/>
<path d="M16.9609 40.418L19.5402 146.385C19.8678 136.525 26.8617 116.728 40.6378 107.383C52.4693 99.3606 56.4752 98.9159 53.3216 99.9991M53.3216 99.9991C58.1264 98.3468 67.7994 95.5599 71.5735 104.742C75.3501 113.909 70.1665 120.152 67.1058 122.114C63.3609 124.485 54.7544 126.809 50.2982 117.116C45.8432 107.424 50.4553 101.672 53.3216 99.9991Z" stroke="#ECD6FE" stroke-width="10" stroke-linecap="round"/>
</svg>
