<svg width="20" height="20" viewBox="0 0 20 20" fill="none" xmlns="http://www.w3.org/2000/svg">
<path d="M20 10.0372C20 4.49324 15.5234 -2.26184e-07 10 -1.45705e-07C4.47656 -6.52256e-08 -7.85623e-08 4.49324 -1.75497e-07 10.0372C-2.57761e-07 14.7422 3.23047 18.6944 7.58594 19.7804L7.58594 13.1033L5.52344 13.1033L5.52344 10.0372L7.58594 10.0372L7.58594 8.71594C7.58594 5.30092 9.125 3.71692 12.4687 3.71692C13.1016 3.71692 14.1953 3.84238 14.6445 3.96785L14.6445 6.74378C14.4102 6.72025 14 6.70457 13.4883 6.70457C11.8477 6.70457 11.2148 7.32797 11.2148 8.94727L11.2148 10.0372L14.4805 10.0372L13.918 13.1033L11.2109 13.1033L11.2109 20C16.1641 19.4001 20 15.1696 20 10.0372Z" fill="#6F219E"/>
</svg>
