<svg width="84" height="62" viewBox="0 0 84 62" fill="none" xmlns="http://www.w3.org/2000/svg">
<path d="M81.0561 24.3789C80.1435 24.5966 77.4875 25.7702 76.8713 26.9567C76.6523 27.3783 77.0861 27.7352 77.5579 27.7847C78.8137 27.9165 80.7423 28.1596 79.6341 28.6531C78.2121 29.2864 77.3168 29.9723 76.79 29.9196" stroke="#F1DBFF" stroke-width="3"/>
<path d="M1.89648 29.7612C2.8092 29.979 5.46503 31.1525 6.08137 32.3391C6.30043 32.7608 5.86658 33.1176 5.39472 33.167C4.1389 33.2987 2.21021 33.5419 3.31852 34.0355C4.74055 34.6687 5.63589 35.3548 6.16258 35.3019" stroke="#F1DBFF" stroke-width="3"/>
<path d="M80.8975 32.294C80.4612 32.294 80.1075 31.9396 80.1075 31.5025C80.1075 31.0653 80.4612 30.7109 80.8975 30.7109C81.3338 30.7109 81.6875 31.0653 81.6875 31.5025C81.6875 31.9396 81.3338 32.294 80.8975 32.294Z" fill="#F1DBFF"/>
<path d="M2.05369 37.6763C2.49001 37.6763 2.84371 37.3219 2.84371 36.8848C2.84371 36.4476 2.49001 36.0933 2.05369 36.0933C1.61738 36.0933 1.26367 36.4476 1.26367 36.8848C1.26367 37.3219 1.61738 37.6763 2.05369 37.6763Z" fill="#F1DBFF"/>
<path d="M82.9518 34.3521C79.1597 34.3521 77.5797 34.6687 77.2637 34.827" stroke="#F1DBFF" stroke-width="3"/>
<path d="M0 39.7344C3.79209 39.7344 5.37212 40.051 5.68813 40.2093" stroke="#F1DBFF" stroke-width="3"/>
<path d="M16.4567 42.6417C12.663 30.8174 26.3013 21.5386 32.9408 18.5567L34.3144 17.8685C34.3144 16.4923 29.7048 10.2899 37.131 7.59872C41.8098 5.90312 43.4512 6.64886 44.8732 8.86519L48.051 15.116L49.4246 15.8042C52.4574 10.6065 53.1684 9.61033 58.1455 12.1896C62.7276 14.5642 62.2454 17.8685 61.1008 19.2449L59.0401 21.9974C63.4358 24.7499 66.3664 29.5669 67.2822 31.6313C68.0264 33.309 71.8005 39.2384 65.9085 49.5229C60.028 59.7873 45.3036 61.5046 37.0618 60.5329C30.4941 59.7588 20.1917 54.2825 16.4567 42.6417Z" fill="#E9BB17" stroke="#E9BB17"/>
<path d="M41.2139 52.9059C26.3785 52.3553 18.3752 43.4149 15.6279 39.974C16.3147 46.1671 18.8637 57.6518 33.6588 60.4754C51.4073 63.8624 58.1254 59.5635 65.2532 51.5296C70.7476 45.3364 70.1532 36.9304 68.3216 33.2603C65.8034 39.9122 56.0495 53.4564 41.2139 52.9059Z" fill="#DEB41D" stroke="#D9AF1C" stroke-width="0.2"/>
<path d="M32.9718 41.8955C37.903 41.8955 41.9005 37.8903 41.9005 32.9497C41.9005 28.0091 37.903 24.0039 32.9718 24.0039C28.0405 24.0039 24.043 28.0091 24.043 32.9497C24.043 37.8903 28.0405 41.8955 32.9718 41.8955Z" fill="white"/>
<path d="M50.8302 41.8955C55.7614 41.8955 59.7589 37.8903 59.7589 32.9497C59.7589 28.0091 55.7614 24.0039 50.8302 24.0039C45.8989 24.0039 41.9014 28.0091 41.9014 32.9497C41.9014 37.8903 45.8989 41.8955 50.8302 41.8955Z" fill="white"/>
<path d="M37.1843 33.6382C37.5136 33.6382 37.785 33.907 37.7373 34.2334C37.6883 34.5709 37.5976 34.9018 37.4668 35.2181C37.2598 35.7193 36.9561 36.1742 36.5734 36.5576C36.1908 36.9411 35.7366 37.2453 35.2364 37.4527C34.7365 37.6601 34.2005 37.7671 33.6595 37.7671C33.1182 37.7671 32.5826 37.6601 32.0823 37.4527C31.5825 37.2453 31.1282 36.9411 30.7455 36.5576C30.3629 36.1742 30.0593 35.7193 29.8522 35.2181C29.7214 34.9018 29.6307 34.5709 29.5816 34.2334C29.5341 33.907 29.8055 33.6382 30.1348 33.6382C30.4642 33.6382 30.7251 33.9083 30.7917 34.2315C30.829 34.4123 30.8832 34.5896 30.9541 34.7609C31.1013 35.1167 31.3169 35.4403 31.5889 35.7126C31.8608 35.9852 32.1835 36.2011 32.539 36.3487C32.8942 36.4962 33.275 36.5719 33.6595 36.5719C34.0441 36.5719 34.4249 36.4962 34.7801 36.3487C35.1353 36.2011 35.4582 35.9852 35.73 35.7126C36.0021 35.4403 36.2176 35.1167 36.3649 34.7609C36.4357 34.5896 36.49 34.4123 36.5273 34.2315C36.594 33.9083 36.8547 33.6382 37.1843 33.6382Z" fill="#292626"/>
<path d="M55.0415 33.6382C55.3711 33.6382 55.6422 33.907 55.5948 34.2334C55.5458 34.5709 55.4551 34.9018 55.3243 35.2181C55.117 35.7193 54.8137 36.1742 54.431 36.5576C54.0483 36.9411 53.5939 37.2453 53.0939 37.4527C52.594 37.6601 52.0581 37.7671 51.5171 37.7671C50.9757 37.7671 50.4398 37.6601 49.9399 37.4527C49.4399 37.2453 48.9855 36.9411 48.6028 36.5576C48.2205 36.1742 47.9168 35.7193 47.7098 35.2181C47.579 34.9018 47.4883 34.5709 47.439 34.2334C47.3916 33.907 47.663 33.6382 47.9923 33.6382C48.3216 33.6382 48.5826 33.9083 48.6493 34.2315C48.6863 34.4123 48.7406 34.5896 48.8114 34.7609C48.9587 35.1167 49.1745 35.4403 49.4463 35.7126C49.7183 35.9852 50.041 36.2011 50.3962 36.3487C50.7517 36.4962 51.1325 36.5719 51.5171 36.5719C51.9016 36.5719 52.2824 36.4962 52.6376 36.3487C52.9928 36.2011 53.3158 35.9852 53.5875 35.7126C53.8596 35.4403 54.0751 35.1167 54.2224 34.7609C54.2932 34.5896 54.3475 34.4123 54.3848 34.2315C54.4515 33.9083 54.7122 33.6382 55.0415 33.6382Z" fill="#292626"/>
<path d="M75.8777 31.9199L74.5508 31.9684L74.6478 34.6276L74.7688 37.9513L76.0957 37.9029C76.5685 36.2882 76.1476 33.2414 75.8777 31.9199Z" fill="#C5A5F3" stroke="#75C973" stroke-width="0.2"/>
<path d="M8.70107 43.0307L10.0281 42.982L9.93123 40.3231L9.8101 36.999L8.48306 37.0475C8.01041 38.6625 8.43146 41.7092 8.70107 43.0307Z" fill="#C5A5F3" stroke="#75C973" stroke-width="0.2"/>
<path d="M14.6837 30.8947L16.7121 47.7278L11.4851 46.7536C10.7789 45.767 9.42868 41.7834 9.67643 33.7403L12.1801 32.3174L10.746 18.0968C18.6624 8.55348 41.2582 -6.13957 68.31 11.4346L69.794 26.1513L73.0391 27.1591C73.9378 28.9613 75.466 34.1633 74.3897 40.5531L69.4297 42.2245L67.7507 25.382L69.794 26.1513L68.31 11.4346C41.2582 -6.13957 18.6624 8.55348 10.746 18.0968L12.1801 32.3174L14.6837 30.8947Z" fill="#6F219E"/>
<path d="M12.1801 32.3174L9.67643 33.7403C9.42868 41.7834 10.7789 45.767 11.4851 46.7536L16.7121 47.7278L14.6837 30.8947L12.1801 32.3174ZM12.1801 32.3174L10.746 18.0968C18.6624 8.55348 41.2582 -6.13957 68.31 11.4346L69.794 26.1513M69.794 26.1513L67.7507 25.382L69.4297 42.2245L74.3897 40.5531C75.466 34.1633 73.9378 28.9613 73.0391 27.1591L69.794 26.1513Z" stroke="#6F219E"/>
<path d="M12.2158 46.2419C11.4276 43.6748 10.0287 37.695 10.7392 34.314" stroke="#C5A5F3"/>
<path d="M72.0137 27.8359C72.7105 30.5253 73.8819 36.7693 72.9927 40.2307" stroke="#C5A5F3"/>
<path d="M36.3408 46.8584C38.3674 48.7698 43.5433 51.4458 48.0331 46.8584" stroke="black" stroke-linecap="round"/>
</svg>
