<svg width="133" height="133" viewBox="0 0 133 133" fill="none" xmlns="http://www.w3.org/2000/svg">
<path d="M57.1971 95.0087C-18.9943 16.512 54.2651 -11.3475 100.419 -15.4667C126.172 -20.5463 141.792 6.70477 146.383 20.9666C160.841 148.216 92.9518 123.344 57.1971 95.0087Z" fill="#FBF5FF"/>
<path d="M36.8382 29.5078C38.5028 31.9849 41.7211 32.5426 44.0263 30.7533C46.3315 28.9641 46.8507 25.5055 45.1861 23.0283C43.5214 20.5511 40.3031 19.9935 37.9979 21.7827C35.6927 23.572 35.1735 27.0306 36.8382 29.5078Z" fill="#ECD6FE"/>
<path d="M39.8772 52.9257C41.5419 55.4029 44.7601 55.9606 47.0654 54.1713C49.3706 52.3821 49.8898 48.9234 48.2251 46.4463C46.5604 43.9691 43.3422 43.4114 41.037 45.2007C38.7318 46.9899 38.2125 50.4486 39.8772 52.9257Z" fill="#ECD6FE"/>
<path d="M54.1545 76.3438C55.8192 78.821 59.0374 79.3787 61.3427 77.5894C63.6479 75.8001 64.1671 72.3414 62.5025 69.8642C60.8378 67.3871 57.6195 66.8294 55.3143 68.6187C53.0091 70.408 52.4898 73.8666 54.1545 76.3438Z" fill="#ECD6FE"/>
<path d="M108.172 94.75L118.661 2.48838C117.193 10.9937 108.749 27.1937 95.6792 33.3888C84.4544 38.7054 80.9267 38.5356 83.792 38.0334M83.792 38.0334C79.4264 38.8001 70.7024 39.8757 68.5318 31.3892C66.3574 22.9142 71.6027 18.2191 74.4929 16.9423C78.0256 15.4045 85.769 14.583 88.4698 23.6072C91.1696 32.631 86.4788 36.9802 83.792 38.0334Z" stroke="#ECD6FE" stroke-width="10" stroke-linecap="round"/>
</svg>
