<svg width="22" height="20" viewBox="0 0 22 20" fill="none" xmlns="http://www.w3.org/2000/svg">
<g clip-path="url(#clip0_9200_28018)">
<path d="M0.98914 19.9288L0.163517 19.8932L4.24893 15.4804C6.49092 13.0534 8.31298 11.032 8.29875 10.9822C8.2774 10.9395 6.55498 8.61922 4.46957 5.82206C2.38416 3.03203 0.554976 0.576512 0.40551 0.377224L0.12793 0H3.23825H6.34145L9.0532 3.62989C10.5407 5.62278 11.7792 7.25979 11.8076 7.25979C11.8361 7.25979 13.3592 5.62989 15.1955 3.63701L18.5407 0.00711744H19.4162L20.2987 0L19.4162 0.946619C12.7471 8.13523 12.5763 8.32028 12.6902 8.4911C12.7471 8.57651 14.6902 11.1815 16.9963 14.2705L21.2027 19.8932L18.1279 19.9288L15.0532 19.9644L12.1208 16.0498C10.5052 13.9004 9.15996 12.1352 9.13149 12.1352C9.0959 12.1352 7.65106 13.6726 5.90729 15.5516C4.17063 17.4306 2.54074 19.1957 2.28451 19.4662L1.81476 19.9644L0.98914 19.9288ZM18.5834 18.5267C18.5407 18.4555 15.6511 14.5694 12.1493 9.89324L5.78629 1.3879L4.2774 1.36655C3.32366 1.35943 2.7685 1.37367 2.78985 1.41637C2.79697 1.45907 5.69377 5.34519 9.2169 10.0641L15.6226 18.6406L17.1386 18.6477C18.5621 18.6477 18.6475 18.6406 18.5834 18.5267Z" fill="#6F219E"/>
</g>
<defs>
<clipPath id="clip0_9200_28018">
<rect width="21.3523" height="20" fill="white"/>
</clipPath>
</defs>
</svg>
