<svg width="54" height="45" viewBox="0 0 54 45" fill="none" xmlns="http://www.w3.org/2000/svg">
<circle cx="26" cy="22" r="20" fill="#D8BCFD"/>
<g clip-path="url(#clip0_8968_28347)">
<path d="M16.9891 31.9288L16.1635 31.8932L20.2489 27.4804C22.4909 25.0534 24.313 23.032 24.2987 22.9822C24.2774 22.9395 22.555 20.6192 20.4696 17.8221C18.3842 15.032 16.555 12.5765 16.4055 12.3772L16.1279 12H19.2383H22.3415L25.0532 15.6299C26.5407 17.6228 27.7792 19.2598 27.8076 19.2598C27.8361 19.2598 29.3592 17.6299 31.1955 15.637L34.5407 12.0071H35.4162L36.2987 12L35.4162 12.9466C28.7471 20.1352 28.5763 20.3203 28.6902 20.4911C28.7471 20.5765 30.6902 23.1815 32.9963 26.2705L37.2027 31.8932L34.1279 31.9288L31.0532 31.9644L28.1208 28.0498C26.5052 25.9004 25.16 24.1352 25.1315 24.1352C25.0959 24.1352 23.6511 25.6726 21.9073 27.5516C20.1706 29.4306 18.5407 31.1957 18.2845 31.4662L17.8148 31.9644L16.9891 31.9288ZM34.5834 30.5267C34.5407 30.4555 31.6511 26.5694 28.1493 21.8932L21.7863 13.3879L20.2774 13.3665C19.3237 13.3594 18.7685 13.3737 18.7899 13.4164C18.797 13.4591 21.6938 17.3452 25.2169 22.0641L31.6226 30.6406L33.1386 30.6477C34.5621 30.6477 34.6475 30.6406 34.5834 30.5267Z" fill="#6F219E"/>
</g>
<defs>
<clipPath id="clip0_8968_28347">
<rect width="21.3523" height="20" fill="white" transform="translate(16 12)"/>
</clipPath>
</defs>
</svg>
