<svg width="25" height="18" viewBox="0 0 25 18" fill="none" xmlns="http://www.w3.org/2000/svg">
<path d="M19.357 0L5.07401 0C2.27171 0 0 2.27171 0 5.07401L0 12.214C0 15.0163 2.27171 17.288 5.07401 17.288L19.357 17.288C22.1593 17.288 24.431 15.0163 24.431 12.214L24.431 5.07401C24.431 2.27171 22.1593 0 19.357 0ZM15.9255 8.9914L9.24488 12.1777C9.06686 12.2626 8.86124 12.1328 8.86124 11.9356L8.86124 5.3639C8.86124 5.16389 9.07227 5.03427 9.25065 5.12468L15.9313 8.51009C16.1299 8.61073 16.1265 8.89558 15.9255 8.9914Z" fill="#6F219E"/>
</svg>
