<svg width="736" height="196" viewBox="0 0 736 196" fill="none" xmlns="http://www.w3.org/2000/svg">
<path d="M356.097 22.5145C350.453 20.8054 346 16.1609 346 11.9836C346 0.160094 371.813 -4.51879 382.473 5.37248C394 16.0687 375.188 28.2953 356.097 22.5145H356.097ZM373.315 19.5442C376.455 14.8287 373.453 5.48596 368.013 3.04758C360.025 -0.533257 355.129 5.56887 358.456 14.9586C360.757 21.4532 370.119 24.3425 373.315 19.5442Z" fill="#1C1A1A"/>
<line x1="340" y1="24.5" x2="392" y2="24.5" stroke="#1C1A1A"/>
<line y1="49.5" x2="736" y2="49.5" stroke="#1C1A1A"/>
<line y1="74.5" x2="736" y2="74.5" stroke="#1C1A1A"/>
<line y1="99.5" x2="736" y2="99.5" stroke="#1C1A1A"/>
<line y1="124.5" x2="736" y2="124.5" stroke="#1C1A1A"/>
<line y1="149.5" x2="736" y2="149.5" stroke="#1C1A1A"/>
<path d="M33.0196 112.694C30.4448 113.54 28.317 114.969 26.636 116.981C24.9547 118.991 23.9303 121.188 23.5625 123.57C23.1947 125.951 23.4969 128.306 24.4688 130.635C25.4407 132.964 27.2664 134.843 29.9456 136.272C30.5761 136.272 30.9699 136.537 31.128 137.066C31.2852 137.595 31.0485 137.859 30.419 137.859C27.8443 137.33 25.5852 136.245 23.6414 134.605C20.0163 131.588 18.02 127.698 17.6522 122.935C17.4421 120.553 17.6653 118.251 18.3221 116.028C18.9787 113.805 19.885 111.767 21.0408 109.914C22.4592 107.957 24.1404 106.263 26.0843 104.834C26.1893 104.728 26.4915 104.49 26.9905 104.12C27.4896 103.749 27.9755 103.405 28.4484 103.088C28.9213 102.77 29.6304 102.267 30.5761 101.579L27.6604 87.4479C25.0861 89.6179 22.5381 92.0123 20.0164 94.6322C17.4946 97.252 15.2092 100.018 13.1603 102.929C11.1115 105.84 9.46968 108.923 8.23502 112.178C7.00047 115.433 6.38319 118.859 6.38319 122.459C6.38319 125.793 7.07923 128.929 8.47151 131.866C9.86369 134.803 11.7156 137.357 14.0272 139.526C16.3388 141.696 19.005 143.403 22.0258 144.648C25.0467 145.891 28.1069 146.513 31.2066 146.513C31.312 146.513 31.7973 146.46 32.6645 146.354C33.5317 146.249 34.4506 146.116 35.4222 145.957C36.3948 145.799 37.2879 145.626 38.1024 145.441C38.9159 145.256 39.3236 145.057 39.3236 144.846L38.8502 142.623C36.8016 132.197 34.8574 122.22 33.0196 112.694ZM35.7773 112.376L42.2394 143.893C45.9697 142.464 48.4907 140.016 49.8045 136.55C51.1182 133.083 51.4195 129.564 50.7104 125.991C50.0014 122.419 48.3336 119.256 45.7062 116.504C43.0798 113.752 39.7701 112.376 35.7773 112.376ZM27.5028 69.9034C29.1311 69.0559 30.6417 67.7865 32.034 66.0924C33.4263 64.3993 34.7132 62.5859 35.8956 60.6543C37.077 58.7228 38.1024 56.7511 38.9686 54.7394C39.8357 52.7287 40.5319 50.9033 41.057 49.2623C41.6348 47.516 42.0286 45.5574 42.2394 43.3874C42.4493 41.2174 42.1081 39.392 41.2151 37.9093C40.5846 36.5868 39.7572 35.8194 38.7329 35.607C37.7076 35.3956 36.6832 35.4748 35.6589 35.8455C34.6346 36.2161 33.663 36.8112 32.7431 37.6318C31.8242 38.4523 31.1539 39.1796 30.7342 39.8148C29.5776 41.8786 28.5663 44.1809 27.6998 46.7216C26.8329 49.2623 26.2418 51.8951 25.9267 54.6212C25.6114 57.3462 25.5721 59.9661 25.8085 62.4807C26.0448 64.9944 26.6096 67.4689 27.5028 69.9034ZM25.1387 72.364C24.2455 68.8715 23.4575 65.4442 22.7745 62.083C22.0915 58.7228 21.7501 55.2694 21.7501 51.7228C21.7501 49.13 21.9339 46.2848 22.3017 43.189C22.6694 40.0933 23.3392 37.0757 24.3112 34.1383C25.2831 31.2009 26.6227 28.568 28.3302 26.2397C30.0381 23.9104 32.3095 22.2173 35.1468 21.1583C35.4093 21.0531 35.6718 21 35.9344 21C36.3023 21 36.7359 21.2114 37.2352 21.6352C37.7344 22.058 38.2595 22.6801 38.8114 23.5006C39.3624 24.3211 39.8487 25.1677 40.2693 26.0413C40.689 26.9139 41.0043 27.51 41.2151 27.8276C42.6332 30.5266 43.6705 33.3979 44.3278 36.4406C44.9842 39.4842 45.3651 42.5138 45.4705 45.5304C45.6803 50.0828 45.4307 54.5811 44.7216 59.0273C44.0126 63.4725 42.5805 67.8126 40.4265 72.0464C39.6915 73.3168 38.9427 74.6001 38.1809 75.8965C37.4192 77.1939 36.5132 78.4502 35.462 79.6675C35.2522 79.8799 34.8713 80.2636 34.3193 80.8186C33.7674 81.3747 33.2025 81.9437 32.6247 82.5258C32.0469 83.1079 31.5348 83.6509 31.0883 84.1528C30.6417 84.6557 30.419 84.9603 30.419 85.0665L33.6491 100.944C33.6699 101.048 35.2651 100.944 35.2651 100.944C38.348 100.983 41.6119 101.486 44.4462 102.611C47.178 103.881 49.529 105.628 51.4991 107.851C53.4691 110.074 55.0444 112.574 56.2268 115.353C57.4093 118.132 58 120.95 58 123.808C58 126.665 57.5793 129.577 56.739 132.54C54.5849 138.151 51.144 142.305 46.4162 145.004C45.8902 145.322 45.1413 145.68 44.1697 146.076C43.1981 146.473 42.8172 147.095 43.027 147.942C44.2881 153.708 45.1413 157.676 45.5888 159.85C46.0354 162.024 46.3635 164.829 46.5734 168.265C46.7832 171.551 46.2183 174.507 44.8788 177.152C43.5392 179.807 41.7402 181.961 39.4807 183.624C37.2222 185.297 35.1597 186.269 33.295 186.569C31.4294 186.86 30.1554 187 29.4732 187C27.1087 187 24.7972 186.549 22.5381 185.648C19.7536 184.596 17.4158 182.983 15.5245 180.809C13.6332 178.635 12.6875 175.99 12.6875 172.874C12.6875 170.91 13.2523 168.897 14.3818 166.833C15.5114 164.769 16.9955 163.286 18.8342 162.395C20.8832 161.333 22.7351 161.042 24.39 161.513C26.0448 161.994 27.4108 162.895 28.4878 164.218C29.5647 165.54 30.3136 167.143 30.7342 169.017C31.1539 170.9 31.128 172.653 30.6547 174.297C30.1823 175.94 29.2236 177.332 27.7786 178.464C26.3338 179.606 24.3243 180.117 21.7501 180.017C22.8007 181.921 24.2718 183.123 26.1631 183.624C28.0544 184.135 29.9983 184.165 31.9942 183.744C33.9912 183.323 35.8688 182.542 37.629 181.4C39.3892 180.268 40.7686 179.035 41.766 177.713C42.3965 176.761 42.8699 175.519 43.1852 173.986C43.5004 172.443 43.6844 170.85 43.7361 169.177C43.7888 167.514 43.7361 166.212 43.579 165.29C43.4209 164.358 43.1583 162.915 42.7904 160.962C41.2151 154.56 40.2166 150.533 39.796 148.89C39.5861 148.366 39.0213 148.193 38.1024 148.379C37.1825 148.564 36.4078 148.736 35.7773 148.89C31.2593 149.481 27.4765 149.21 24.4294 148.101C19.7011 146.831 15.5376 144.568 11.9389 141.313C8.34014 138.058 5.45067 134.115 3.27036 129.484C1.09015 124.853 0 121.334 0 118.925C0 116.518 0 114.996 0 114.361C0 110.074 0.73552 106.051 2.20656 102.293C4.99092 96.4185 8.28763 91.0205 12.0965 86.0984C15.9054 81.1763 20.2528 76.5978 25.1387 72.364Z" fill="#1C1A1A"/>
</svg>
