<svg width="736" height="188" viewBox="0 0 736 188" fill="none" xmlns="http://www.w3.org/2000/svg">
<line y1="28.5" x2="736" y2="28.5" stroke="#1C1A1A"/>
<line y1="53.5" x2="736" y2="53.5" stroke="#1C1A1A"/>
<line y1="78.5" x2="736" y2="78.5" stroke="#1C1A1A"/>
<line y1="103.5" x2="736" y2="103.5" stroke="#1C1A1A"/>
<line y1="128.5" x2="736" y2="128.5" stroke="#1C1A1A"/>
<line x1="360" y1="153.5" x2="412" y2="153.5" stroke="#1C1A1A"/>
<path d="M376.097 164.514C370.453 162.805 366 158.161 366 153.984C366 142.16 391.813 137.481 402.473 147.372C414 158.069 395.188 170.295 376.097 164.514H376.097ZM393.315 161.544C396.455 156.829 393.453 147.486 388.013 145.048C380.025 141.467 375.129 147.569 378.456 156.959C380.757 163.453 390.119 166.343 393.315 161.544Z" fill="#1C1A1A"/>
<path d="M348.523 163.5V146.658L355.368 144.682V161.438L348.523 163.5V163.5ZM362 159.426L357.294 160.837V144.081L362 142.706V135.746L357.294 137.12V120H355.368V137.64L348.523 139.698V123.05H346.706V140.332L342 141.71V148.685L346.706 147.31V164.034L342 165.405V172.351L346.706 170.976V188H348.523V170.368L355.368 168.398V184.96H357.294V167.775L362 166.397V159.426V159.426Z" fill="#1C1A1A"/>
</svg>
