<svg width="736" height="205" viewBox="0 0 736 205" fill="none" xmlns="http://www.w3.org/2000/svg">
<line y1="33.5" x2="736" y2="33.5" stroke="#1C1A1A"/>
<line y1="58.5" x2="736" y2="58.5" stroke="#1C1A1A"/>
<line y1="83.5" x2="736" y2="83.5" stroke="#1C1A1A"/>
<line y1="108.5" x2="736" y2="108.5" stroke="#1C1A1A"/>
<line y1="133.5" x2="736" y2="133.5" stroke="#1C1A1A"/>
<line x1="360" y1="158.5" x2="412" y2="158.5" stroke="#1C1A1A"/>
<path d="M376.097 181.514C370.453 179.805 366 175.161 366 170.984C366 159.16 391.813 154.481 402.473 164.372C414 175.069 395.188 187.295 376.097 181.514H376.097ZM393.315 178.544C396.455 173.829 393.453 164.486 388.013 162.048C380.025 158.467 375.129 164.569 378.456 173.959C380.757 180.453 390.119 183.343 393.315 178.544Z" fill="#1C1A1A"/>
<path d="M341.523 180.5V163.658L348.368 161.682V178.438L341.523 180.5V180.5ZM355 176.426L350.294 177.837V161.081L355 159.706V152.746L350.294 154.12V137H348.368V154.64L341.523 156.698V140.05H339.706V157.332L335 158.71V165.685L339.706 164.31V181.034L335 182.405V189.351L339.706 187.976V205H341.523V187.368L348.368 185.398V201.96H350.294V184.775L355 183.397V176.426V176.426Z" fill="#1C1A1A"/>
<path d="M31.1226 108.24C28.7962 110.193 16.4703 117.891 8.9764 119C11.1016 117.891 11.7726 117.225 17.5888 113.565C23.306 109.967 30.3397 102.694 36.2677 95.8171C41.0101 90.3154 43.9108 81.619 44.7683 77.9586C46.2894 74.3203 46.2223 66.1638 45.9986 62.5403C45.9613 59.0278 44.4104 50.605 38.5047 45.0145C31.1226 38.0264 23.6287 41.9087 22.2865 42.3524C20.9443 42.7961 16.3585 46.0128 15.0163 48.8968C13.9425 51.204 14.5689 51.9287 15.0163 52.0026C19.273 50.117 23.3501 51.2001 25.8721 53.0009C28.6684 54.9976 31.0172 57.9925 30.7935 62.5403C30.6146 66.1786 28.824 68.8629 27.4818 70.194C24.6855 73.2998 20.1986 73.6326 17.7007 73.6326C11.6608 73.2998 7.86507 68.9743 7.07496 67.6428C6.74586 67.0881 3.60844 62.0966 5.73276 53.4446C7.48062 46.326 14.1588 40.7625 17.477 38.9138C28.1027 33.4785 35.5966 34.7295 40.4062 36.5844C46.446 38.9138 53.9901 46.1237 55.8414 52.4463C57.6927 58.7689 58.6376 63.7605 57.5191 69.8612C56.4006 75.962 54.8348 80.177 49.1304 89.3836C43.4261 98.5902 34.0307 105.8 31.1226 108.24Z" fill="black"/>
<path d="M8.9764 119L8.74504 118.557C8.52868 118.67 8.42547 118.922 8.50085 119.154C8.57623 119.387 8.80818 119.53 9.04961 119.495L8.9764 119ZM31.1226 108.24L30.8012 107.857L30.8012 107.857L31.1226 108.24ZM49.1304 89.3836L49.5554 89.647L49.5554 89.647L49.1304 89.3836ZM55.8414 52.4463L56.3212 52.3058L56.3212 52.3058L55.8414 52.4463ZM40.4062 36.5844L40.5861 36.1179L40.5861 36.1179L40.4062 36.5844ZM17.477 38.9138L17.2493 38.4686L17.2414 38.4727L17.2336 38.477L17.477 38.9138ZM5.73276 53.4446L6.21834 53.5639L6.21834 53.5639L5.73276 53.4446ZM7.07496 67.6428L6.64496 67.8979L6.64496 67.8979L7.07496 67.6428ZM17.7007 73.6326L17.6732 74.1318L17.6869 74.1326H17.7007V73.6326ZM27.4818 70.194L27.1297 69.839L27.1196 69.8489L27.1102 69.8594L27.4818 70.194ZM30.7935 62.5403L30.2941 62.5157L30.2941 62.5157L30.7935 62.5403ZM25.8721 53.0009L26.1627 52.594L26.1627 52.594L25.8721 53.0009ZM15.0163 52.0026L14.9347 52.496L15.0822 52.5203L15.2188 52.4598L15.0163 52.0026ZM15.0163 48.8968L15.4696 49.1078L15.4696 49.1078L15.0163 48.8968ZM22.2865 42.3524L22.4434 42.8271L22.4434 42.8271L22.2865 42.3524ZM38.5047 45.0145L38.161 45.3776L38.5047 45.0145ZM45.9986 62.5403L45.4986 62.5456L45.4988 62.5584L45.4996 62.5711L45.9986 62.5403ZM44.7683 77.9586L44.307 77.7657L44.2909 77.8041L44.2814 77.8445L44.7683 77.9586ZM36.2677 95.8171L35.889 95.4907L35.889 95.4907L36.2677 95.8171ZM17.5888 113.565L17.8551 113.988L17.5888 113.565ZM9.04961 119.495C12.8889 118.926 17.9096 116.687 22.2233 114.377C26.5423 112.065 30.2412 109.633 31.444 108.624L30.8012 107.857C29.6776 108.8 26.0503 111.194 21.7513 113.496C17.447 115.8 12.5578 117.964 8.90319 118.505L9.04961 119.495ZM31.444 108.624C34.3278 106.204 43.7992 98.9374 49.5554 89.647L48.7054 89.1203C43.053 98.243 33.7337 105.397 30.8012 107.857L31.444 108.624ZM49.5554 89.647C55.2815 80.4054 56.8779 76.1314 58.0109 69.9514L57.0273 69.771C55.9234 75.7925 54.388 79.9487 48.7054 89.1203L49.5554 89.647ZM58.0109 69.9514C59.1504 63.7362 58.1803 58.655 56.3212 52.3058L55.3615 52.5868C57.205 58.8829 58.1249 63.7847 57.0273 69.771L58.0109 69.9514ZM56.3212 52.3058C55.3632 49.0339 52.9526 45.5806 50.0488 42.6651C47.1422 39.7467 43.689 37.3146 40.5861 36.1179L40.2262 37.0509C43.1631 38.1835 46.502 40.5211 49.3402 43.3707C52.1812 46.2231 54.4683 49.5362 55.3615 52.5868L56.3212 52.3058ZM40.5861 36.1179C35.6555 34.2163 28.0124 32.9631 17.2493 38.4686L17.7047 39.3589C28.1929 33.994 35.5377 35.2427 40.2262 37.0509L40.5861 36.1179ZM17.2336 38.477C15.5252 39.4288 12.9843 41.3161 10.6474 43.8651C8.31098 46.4136 6.14795 49.6568 5.24718 53.3254L6.21834 53.5639C7.06543 50.1138 9.11541 47.0159 11.3845 44.5408C13.6532 42.0663 16.1106 40.2474 17.7203 39.3505L17.2336 38.477ZM5.24718 53.3254C3.07897 62.1562 6.2821 67.2864 6.64496 67.8979L7.50495 67.3876C7.20962 66.8899 4.13791 62.0371 6.21834 53.5639L5.24718 53.3254ZM6.64496 67.8979C7.07914 68.6296 8.27552 70.0936 10.1283 71.4189C11.9887 72.7496 14.5371 73.959 17.6732 74.1318L17.7282 73.1333C14.8244 72.9734 12.455 71.8536 10.71 70.6055C8.95742 69.3519 7.86089 67.9874 7.50495 67.3876L6.64496 67.8979ZM17.7007 74.1326C20.2027 74.1326 24.8984 73.8107 27.8534 70.5285L27.1102 69.8594C24.4727 72.7889 20.1946 73.1326 17.7007 73.1326V74.1326ZM27.8339 70.549C29.2438 69.1507 31.1065 66.3543 31.2929 62.5649L30.2941 62.5157C30.1226 66.0028 28.4041 68.5751 27.1297 69.839L27.8339 70.549ZM31.2929 62.5649C31.5276 57.7942 29.0481 54.6543 26.1627 52.594L25.5816 53.4079C28.2887 55.3408 30.5069 58.1907 30.2941 62.5157L31.2929 62.5649ZM26.1627 52.594C23.5206 50.7075 19.2573 49.5771 14.8138 51.5455L15.2188 52.4598C19.2888 50.6568 23.1796 51.6928 25.5816 53.4079L26.1627 52.594ZM15.0978 51.5093C15.097 51.5092 15.0748 51.5052 15.0451 51.4727C15.0162 51.4412 14.9654 51.3659 14.9393 51.2065C14.8847 50.8729 14.9497 50.2249 15.4696 49.1078L14.563 48.6858C14.0091 49.876 13.8504 50.7439 13.9524 51.3679C14.0595 52.0228 14.466 52.4185 14.9347 52.496L15.0978 51.5093ZM15.4696 49.1078C16.0918 47.7709 17.5011 46.3042 18.9692 45.0955C19.6953 44.4977 20.4202 43.9757 21.0424 43.5778C21.6759 43.1727 22.1704 42.9173 22.4434 42.8271L22.1296 41.8776C21.7315 42.0092 21.1494 42.3224 20.5037 42.7353C19.8466 43.1555 19.0895 43.7011 18.3336 44.3235C16.8377 45.5551 15.283 47.1387 14.563 48.6858L15.4696 49.1078ZM22.4434 42.8271C23.1825 42.5828 25.2815 41.5438 28.1563 41.3958C30.9978 41.2496 34.579 41.9869 38.161 45.3776L38.8484 44.6514C35.0483 41.054 31.1915 40.2383 28.1049 40.3972C25.0517 40.5543 22.7327 41.6783 22.1296 41.8776L22.4434 42.8271ZM38.161 45.3776C43.9317 50.8404 45.4622 59.1084 45.4986 62.5456L46.4986 62.535C46.4605 58.9471 44.889 50.3696 38.8484 44.6514L38.161 45.3776ZM45.4996 62.5711C45.6105 64.3674 45.6827 67.2937 45.5384 70.2193C45.393 73.1656 45.0305 76.0352 44.307 77.7657L45.2296 78.1514C46.0272 76.2437 46.3917 73.2159 46.5372 70.2685C46.6836 67.3004 46.6105 64.3367 46.4977 62.5095L45.4996 62.5711ZM44.2814 77.8445C43.4308 81.4758 40.5534 90.0794 35.889 95.4907L36.6464 96.1436C41.4668 90.5514 44.3908 81.7622 45.2551 78.0726L44.2814 77.8445ZM35.889 95.4907C29.961 102.368 22.9699 109.587 17.3225 113.142L17.8551 113.988C23.6422 110.346 30.7183 103.021 36.6464 96.1436L35.889 95.4907ZM17.3225 113.142C14.4095 114.975 12.7835 116.059 11.6239 116.821C10.4673 117.581 9.78498 118.014 8.74504 118.557L9.20776 119.443C10.293 118.877 11.0087 118.422 12.1731 117.657C13.3343 116.894 14.9519 115.815 17.8551 113.988L17.3225 113.142Z" fill="black"/>
<ellipse cx="70.4852" cy="47.1558" rx="6.51452" ry="6.49758" fill="black"/>
<ellipse cx="70.4852" cy="71.647" rx="6.51452" ry="6.49758" fill="black"/>
</svg>
