<svg width="736" height="283" viewBox="0 0 736 283" fill="none" xmlns="http://www.w3.org/2000/svg">
<path d="M356.097 43.5145C350.453 41.8054 346 37.1609 346 32.9836C346 21.1601 371.813 16.4812 382.473 26.3725C394 37.0687 375.188 49.2953 356.097 43.5145H356.097ZM373.315 40.5442C376.455 35.8287 373.453 26.486 368.013 24.0476C360.025 20.4667 355.129 26.5689 358.456 35.9586C360.757 42.4532 370.119 45.3425 373.315 40.5442Z" fill="#1C1A1A"/>
<line x1="340" y1="82.5" x2="392" y2="82.5" stroke="#1C1A1A"/>
<line x1="340" y1="57.5" x2="392" y2="57.5" stroke="#1C1A1A"/>
<line x1="340" y1="32.5" x2="392" y2="32.5" stroke="#1C1A1A"/>
<line y1="107.5" x2="736" y2="107.5" stroke="#1C1A1A"/>
<line y1="132.5" x2="736" y2="132.5" stroke="#1C1A1A"/>
<line y1="157.5" x2="736" y2="157.5" stroke="#1C1A1A"/>
<line y1="182.5" x2="736" y2="182.5" stroke="#1C1A1A"/>
<line y1="207.5" x2="736" y2="207.5" stroke="#1C1A1A"/>
<path d="M314.475 0V31.0906C314.475 31.0906 314.475 33.1864 314.475 37.3778C317.332 34.6927 320.537 33.3173 324.091 33.2518C326.313 33.2519 328.217 34.2015 329.804 36.1007C331.2 37.869 331.93 39.8337 331.994 41.9949C332.057 43.6977 331.645 45.6624 330.756 47.8891C330.439 48.806 329.74 49.7884 328.661 50.8363C327.836 51.6222 326.979 52.4408 326.091 53.2922C321.394 56.8287 316.697 60.398 312 64V0H314.475V0ZM322.187 39.539C321.426 38.6221 320.442 38.1637 319.236 38.1637C317.712 38.1637 316.475 39.0478 315.523 40.8161C314.824 42.1914 314.475 45.4332 314.475 50.5415V58.9899C314.539 59.2519 316.316 57.6473 319.807 54.1763C321.711 52.3426 322.949 50.1813 323.52 47.6927C323.774 46.7103 323.901 45.7279 323.901 44.7456C323.901 42.5844 323.33 40.8488 322.187 39.539" fill="#1C1A1A"/>
<path d="M31.1226 182.24C28.7962 184.193 16.4703 191.891 8.9764 193C11.1016 191.891 11.7726 191.225 17.5888 187.565C23.306 183.967 30.3397 176.694 36.2677 169.817C41.0101 164.315 43.9108 155.619 44.7683 151.959C46.2894 148.32 46.2223 140.164 45.9986 136.54C45.9613 133.028 44.4104 124.605 38.5047 119.015C31.1226 112.026 23.6287 115.909 22.2865 116.352C20.9443 116.796 16.3585 120.013 15.0163 122.897C13.9425 125.204 14.5689 125.929 15.0163 126.003C19.273 124.117 23.3501 125.2 25.8721 127.001C28.6684 128.998 31.0172 131.992 30.7935 136.54C30.6146 140.179 28.824 142.863 27.4818 144.194C24.6855 147.3 20.1986 147.633 17.7007 147.633C11.6608 147.3 7.86507 142.974 7.07496 141.643C6.74586 141.088 3.60844 136.097 5.73276 127.445C7.48062 120.326 14.1588 114.762 17.477 112.914C28.1027 107.479 35.5966 108.729 40.4062 110.584C46.446 112.914 53.9901 120.124 55.8414 126.446C57.6927 132.769 58.6376 137.76 57.5191 143.861C56.4006 149.962 54.8348 154.177 49.1304 163.384C43.4261 172.59 34.0307 179.8 31.1226 182.24Z" fill="black"/>
<path d="M8.9764 193L8.74504 192.557C8.52868 192.67 8.42547 192.922 8.50085 193.154C8.57623 193.387 8.80818 193.53 9.04961 193.495L8.9764 193ZM31.1226 182.24L30.8012 181.857L30.8012 181.857L31.1226 182.24ZM49.1304 163.384L49.5554 163.647L49.5554 163.647L49.1304 163.384ZM55.8414 126.446L56.3212 126.306L56.3212 126.306L55.8414 126.446ZM40.4062 110.584L40.5861 110.118L40.5861 110.118L40.4062 110.584ZM17.477 112.914L17.2493 112.469L17.2414 112.473L17.2336 112.477L17.477 112.914ZM5.73276 127.445L6.21834 127.564L6.21834 127.564L5.73276 127.445ZM7.07496 141.643L6.64496 141.898L6.64496 141.898L7.07496 141.643ZM17.7007 147.633L17.6732 148.132L17.6869 148.133H17.7007V147.633ZM27.4818 144.194L27.1297 143.839L27.1196 143.849L27.1102 143.859L27.4818 144.194ZM30.7935 136.54L30.2941 136.516L30.2941 136.516L30.7935 136.54ZM25.8721 127.001L26.1627 126.594L26.1627 126.594L25.8721 127.001ZM15.0163 126.003L14.9347 126.496L15.0822 126.52L15.2188 126.46L15.0163 126.003ZM15.0163 122.897L15.4696 123.108L15.4696 123.108L15.0163 122.897ZM22.2865 116.352L22.4434 116.827L22.4434 116.827L22.2865 116.352ZM38.5047 119.015L38.161 119.378L38.5047 119.015ZM45.9986 136.54L45.4986 136.546L45.4988 136.558L45.4996 136.571L45.9986 136.54ZM44.7683 151.959L44.307 151.766L44.2909 151.804L44.2814 151.845L44.7683 151.959ZM36.2677 169.817L35.889 169.491L35.889 169.491L36.2677 169.817ZM17.5888 187.565L17.8551 187.988L17.5888 187.565ZM9.04961 193.495C12.8889 192.926 17.9096 190.687 22.2233 188.377C26.5423 186.065 30.2412 183.633 31.444 182.624L30.8012 181.857C29.6776 182.8 26.0503 185.194 21.7513 187.496C17.447 189.8 12.5578 191.964 8.90319 192.505L9.04961 193.495ZM31.444 182.624C34.3278 180.204 43.7992 172.937 49.5554 163.647L48.7054 163.12C43.053 172.243 33.7337 179.397 30.8012 181.857L31.444 182.624ZM49.5554 163.647C55.2815 154.405 56.8779 150.131 58.0109 143.951L57.0273 143.771C55.9234 149.792 54.388 153.949 48.7054 163.12L49.5554 163.647ZM58.0109 143.951C59.1504 137.736 58.1803 132.655 56.3212 126.306L55.3615 126.587C57.205 132.883 58.1249 137.785 57.0273 143.771L58.0109 143.951ZM56.3212 126.306C55.3632 123.034 52.9526 119.581 50.0488 116.665C47.1422 113.747 43.689 111.315 40.5861 110.118L40.2262 111.051C43.1631 112.184 46.502 114.521 49.3402 117.371C52.1812 120.223 54.4683 123.536 55.3615 126.587L56.3212 126.306ZM40.5861 110.118C35.6555 108.216 28.0124 106.963 17.2493 112.469L17.7047 113.359C28.1929 107.994 35.5377 109.243 40.2262 111.051L40.5861 110.118ZM17.2336 112.477C15.5252 113.429 12.9843 115.316 10.6474 117.865C8.31098 120.414 6.14795 123.657 5.24718 127.325L6.21834 127.564C7.06543 124.114 9.11541 121.016 11.3845 118.541C13.6532 116.066 16.1106 114.247 17.7203 113.351L17.2336 112.477ZM5.24718 127.325C3.07897 136.156 6.2821 141.286 6.64496 141.898L7.50495 141.388C7.20962 140.89 4.13791 136.037 6.21834 127.564L5.24718 127.325ZM6.64496 141.898C7.07914 142.63 8.27552 144.094 10.1283 145.419C11.9887 146.75 14.5371 147.959 17.6732 148.132L17.7282 147.133C14.8244 146.973 12.455 145.854 10.71 144.606C8.95742 143.352 7.86089 141.987 7.50495 141.388L6.64496 141.898ZM17.7007 148.133C20.2027 148.133 24.8984 147.811 27.8534 144.529L27.1102 143.859C24.4727 146.789 20.1946 147.133 17.7007 147.133V148.133ZM27.8339 144.549C29.2438 143.151 31.1065 140.354 31.2929 136.565L30.2941 136.516C30.1226 140.003 28.4041 142.575 27.1297 143.839L27.8339 144.549ZM31.2929 136.565C31.5276 131.794 29.0481 128.654 26.1627 126.594L25.5816 127.408C28.2887 129.341 30.5069 132.191 30.2941 136.516L31.2929 136.565ZM26.1627 126.594C23.5206 124.707 19.2573 123.577 14.8138 125.545L15.2188 126.46C19.2888 124.657 23.1796 125.693 25.5816 127.408L26.1627 126.594ZM15.0978 125.509C15.097 125.509 15.0748 125.505 15.0451 125.473C15.0162 125.441 14.9654 125.366 14.9393 125.207C14.8847 124.873 14.9497 124.225 15.4696 123.108L14.563 122.686C14.0091 123.876 13.8504 124.744 13.9524 125.368C14.0595 126.023 14.466 126.418 14.9347 126.496L15.0978 125.509ZM15.4696 123.108C16.0918 121.771 17.5011 120.304 18.9692 119.095C19.6953 118.498 20.4202 117.976 21.0424 117.578C21.6759 117.173 22.1704 116.917 22.4434 116.827L22.1296 115.878C21.7315 116.009 21.1494 116.322 20.5037 116.735C19.8466 117.155 19.0895 117.701 18.3336 118.323C16.8377 119.555 15.283 121.139 14.563 122.686L15.4696 123.108ZM22.4434 116.827C23.1825 116.583 25.2815 115.544 28.1563 115.396C30.9978 115.25 34.579 115.987 38.161 119.378L38.8484 118.651C35.0483 115.054 31.1915 114.238 28.1049 114.397C25.0517 114.554 22.7327 115.678 22.1296 115.878L22.4434 116.827ZM38.161 119.378C43.9317 124.84 45.4622 133.108 45.4986 136.546L46.4986 136.535C46.4605 132.947 44.889 124.37 38.8484 118.651L38.161 119.378ZM45.4996 136.571C45.6105 138.367 45.6827 141.294 45.5384 144.219C45.393 147.166 45.0305 150.035 44.307 151.766L45.2296 152.151C46.0272 150.244 46.3917 147.216 46.5372 144.269C46.6836 141.3 46.6105 138.337 46.4977 136.51L45.4996 136.571ZM44.2814 151.845C43.4308 155.476 40.5534 164.079 35.889 169.491L36.6464 170.144C41.4668 164.551 44.3908 155.762 45.2551 152.073L44.2814 151.845ZM35.889 169.491C29.961 176.368 22.9699 183.587 17.3225 187.142L17.8551 187.988C23.6422 184.346 30.7183 177.021 36.6464 170.144L35.889 169.491ZM17.3225 187.142C14.4095 188.975 12.7835 190.059 11.6239 190.821C10.4673 191.581 9.78498 192.014 8.74504 192.557L9.20776 193.443C10.293 192.877 11.0087 192.422 12.1731 191.657C13.3343 190.894 14.9519 189.815 17.8551 187.988L17.3225 187.142Z" fill="black"/>
<ellipse cx="70.4852" cy="121.156" rx="6.51452" ry="6.49758" fill="black"/>
<ellipse cx="70.4852" cy="145.647" rx="6.51452" ry="6.49758" fill="black"/>
</svg>
