<svg width="736" height="245" viewBox="0 0 736 245" fill="none" xmlns="http://www.w3.org/2000/svg">
<path d="M356.097 43.5145C350.453 41.8054 346 37.1609 346 32.9836C346 21.1601 371.813 16.4812 382.473 26.3725C394 37.0687 375.188 49.2953 356.097 43.5145H356.097ZM373.315 40.5442C376.455 35.8287 373.453 26.486 368.013 24.0476C360.025 20.4667 355.129 26.5689 358.456 35.9586C360.757 42.4532 370.119 45.3425 373.315 40.5442Z" fill="#1C1A1A"/>
<line x1="340" y1="82.5" x2="392" y2="82.5" stroke="#1C1A1A"/>
<line x1="340" y1="57.5" x2="392" y2="57.5" stroke="#1C1A1A"/>
<line x1="340" y1="32.5" x2="392" y2="32.5" stroke="#1C1A1A"/>
<line y1="107.5" x2="736" y2="107.5" stroke="#1C1A1A"/>
<line y1="132.5" x2="736" y2="132.5" stroke="#1C1A1A"/>
<line y1="157.5" x2="736" y2="157.5" stroke="#1C1A1A"/>
<line y1="182.5" x2="736" y2="182.5" stroke="#1C1A1A"/>
<line y1="207.5" x2="736" y2="207.5" stroke="#1C1A1A"/>
<path d="M33.0196 170.694C30.4448 171.54 28.317 172.969 26.636 174.981C24.9547 176.991 23.9303 179.188 23.5625 181.57C23.1947 183.951 23.4969 186.306 24.4688 188.635C25.4407 190.964 27.2664 192.843 29.9456 194.272C30.5761 194.272 30.9699 194.537 31.128 195.066C31.2852 195.595 31.0485 195.859 30.419 195.859C27.8443 195.33 25.5852 194.245 23.6414 192.605C20.0163 189.588 18.0199 185.698 17.6522 180.935C17.4421 178.553 17.6653 176.251 18.3221 174.028C18.9787 171.805 19.885 169.767 21.0408 167.914C22.4592 165.957 24.1404 164.263 26.0843 162.834C26.1893 162.728 26.4915 162.49 26.9905 162.12C27.4896 161.749 27.9755 161.405 28.4484 161.088C28.9213 160.77 29.6304 160.267 30.5761 159.579L27.6604 145.448C25.0861 147.618 22.5381 150.012 20.0164 152.632C17.4946 155.252 15.2092 158.018 13.1603 160.929C11.1115 163.84 9.46968 166.923 8.23502 170.178C7.00047 173.433 6.3832 176.859 6.3832 180.459C6.3832 183.793 7.07923 186.929 8.47151 189.866C9.86369 192.803 11.7156 195.357 14.0272 197.526C16.3388 199.696 19.005 201.403 22.0258 202.648C25.0467 203.891 28.1069 204.513 31.2066 204.513C31.312 204.513 31.7973 204.46 32.6645 204.354C33.5317 204.249 34.4506 204.116 35.4222 203.957C36.3948 203.799 37.2879 203.626 38.1024 203.441C38.9159 203.256 39.3236 203.057 39.3236 202.846L38.8502 200.623C36.8016 190.197 34.8574 180.22 33.0196 170.694V170.694ZM35.7773 170.376L42.2394 201.893C45.9697 200.464 48.4907 198.016 49.8045 194.55C51.1182 191.083 51.4195 187.564 50.7104 183.991C50.0014 180.419 48.3336 177.256 45.7062 174.504C43.0798 171.752 39.7701 170.376 35.7773 170.376V170.376ZM27.5028 127.903C29.1311 127.056 30.6417 125.787 32.034 124.092C33.4263 122.399 34.7132 120.586 35.8956 118.654C37.077 116.723 38.1024 114.751 38.9686 112.739C39.8357 110.729 40.5319 108.903 41.057 107.262C41.6348 105.516 42.0286 103.557 42.2394 101.387C42.4493 99.2174 42.1081 97.392 41.2151 95.9093C40.5846 94.5868 39.7572 93.8194 38.7329 93.607C37.7076 93.3956 36.6832 93.4748 35.6589 93.8455C34.6346 94.2161 33.663 94.8112 32.7431 95.6318C31.8242 96.4523 31.1539 97.1796 30.7342 97.8148C29.5776 99.8786 28.5663 102.181 27.6998 104.722C26.8329 107.262 26.2418 109.895 25.9267 112.621C25.6114 115.346 25.5721 117.966 25.8085 120.481C26.0448 122.994 26.6096 125.469 27.5028 127.903V127.903ZM25.1387 130.364C24.2455 126.872 23.4575 123.444 22.7745 120.083C22.0915 116.723 21.7501 113.269 21.7501 109.723C21.7501 107.13 21.9339 104.285 22.3017 101.189C22.6694 98.0933 23.3392 95.0757 24.3112 92.1383C25.2831 89.2009 26.6227 86.568 28.3302 84.2397C30.0381 81.9104 32.3095 80.2173 35.1468 79.1583C35.4093 79.0531 35.6718 79 35.9344 79C36.3023 79 36.7359 79.2114 37.2352 79.6352C37.7344 80.058 38.2595 80.6801 38.8114 81.5006C39.3624 82.3211 39.8487 83.1677 40.2693 84.0413C40.689 84.9139 41.0043 85.51 41.2151 85.8276C42.6332 88.5266 43.6705 91.3979 44.3278 94.4406C44.9842 97.4842 45.3651 100.514 45.4705 103.53C45.6803 108.083 45.4307 112.581 44.7216 117.027C44.0126 121.473 42.5805 125.813 40.4265 130.046C39.6915 131.317 38.9427 132.6 38.1809 133.897C37.4192 135.194 36.5132 136.45 35.462 137.668C35.2522 137.88 34.8713 138.264 34.3193 138.819C33.7674 139.375 33.2025 139.944 32.6247 140.526C32.0469 141.108 31.5348 141.651 31.0883 142.153C30.6417 142.656 30.419 142.96 30.419 143.066L33.6491 158.944C33.6699 159.048 35.2651 158.944 35.2651 158.944C38.348 158.983 41.6119 159.486 44.4462 160.611C47.178 161.881 49.529 163.628 51.4991 165.851C53.4691 168.074 55.0444 170.574 56.2268 173.353C57.4093 176.132 58 178.95 58 181.808C58 184.665 57.5793 187.577 56.739 190.54C54.5849 196.151 51.144 200.305 46.4162 203.004C45.8902 203.322 45.1413 203.68 44.1697 204.076C43.1981 204.473 42.8172 205.095 43.027 205.942C44.2881 211.708 45.1413 215.676 45.5888 217.85C46.0354 220.024 46.3635 222.829 46.5734 226.265C46.7832 229.551 46.2183 232.507 44.8788 235.152C43.5392 237.807 41.7402 239.961 39.4807 241.624C37.2222 243.297 35.1597 244.269 33.295 244.569C31.4294 244.86 30.1554 245 29.4732 245C27.1087 245 24.7972 244.549 22.5381 243.648C19.7536 242.596 17.4158 240.983 15.5245 238.809C13.6332 236.635 12.6875 233.99 12.6875 230.874C12.6875 228.91 13.2523 226.897 14.3818 224.833C15.5114 222.769 16.9955 221.286 18.8342 220.394C20.8832 219.333 22.7351 219.042 24.39 219.513C26.0448 219.994 27.4108 220.895 28.4878 222.218C29.5647 223.54 30.3136 225.143 30.7342 227.017C31.1539 228.9 31.128 230.653 30.6547 232.297C30.1823 233.94 29.2236 235.332 27.7786 236.464C26.3338 237.606 24.3243 238.117 21.7501 238.017C22.8007 239.921 24.2718 241.123 26.1631 241.624C28.0544 242.135 29.9983 242.165 31.9942 241.744C33.9912 241.323 35.8688 240.542 37.629 239.4C39.3892 238.268 40.7686 237.035 41.766 235.713C42.3965 234.761 42.8699 233.519 43.1852 231.986C43.5004 230.443 43.6844 228.85 43.7361 227.177C43.7888 225.514 43.7361 224.212 43.579 223.29C43.4209 222.358 43.1583 220.915 42.7904 218.962C41.2151 212.56 40.2166 208.533 39.796 206.89C39.5861 206.366 39.0213 206.193 38.1024 206.379C37.1825 206.564 36.4078 206.736 35.7773 206.89C31.2593 207.481 27.4765 207.21 24.4294 206.101C19.7011 204.831 15.5376 202.568 11.9389 199.313C8.34014 196.058 5.45067 192.115 3.27036 187.484C1.09015 182.853 0 179.334 0 176.925C0 174.518 0 172.996 0 172.361C0 168.074 0.73552 164.051 2.20656 160.293C4.99092 154.418 8.28763 149.02 12.0965 144.098C15.9054 139.176 20.2528 134.598 25.1387 130.364V130.364Z" fill="#1C1A1A"/>
<path d="M318.523 43.5005V26.6585L325.368 24.6821V41.4382L318.523 43.5005V43.5005ZM332 39.426L327.294 40.8367V24.0806L332 22.7058V15.7456L327.294 17.1204V0H325.368V17.6396L318.523 19.6983V3.05046H316.706V20.332L312 21.7104V28.685L316.706 27.3101V44.0339L312 45.4052V52.3511L316.706 50.9763V68H318.523V50.3676L325.368 48.3984V64.9603H327.294V47.7754L332 46.397V39.426V39.426Z" fill="#1C1A1A"/>
</svg>
