<svg width="736" height="272" viewBox="0 0 736 272" fill="none" xmlns="http://www.w3.org/2000/svg">
<path d="M356.097 44.5145C350.453 42.8054 346 38.1609 346 33.9836C346 22.1601 371.813 17.4812 382.473 27.3725C394 38.0687 375.188 50.2953 356.097 44.5145H356.097ZM373.315 41.5442C376.455 36.8287 373.453 27.486 368.013 25.0476C360.025 21.4667 355.129 27.5689 358.456 36.9586C360.757 43.4532 370.119 46.3425 373.315 41.5442Z" fill="#1C1A1A"/>
<line x1="340" y1="71.5" x2="392" y2="71.5" stroke="#1C1A1A"/>
<line x1="340" y1="46.5" x2="392" y2="46.5" stroke="#1C1A1A"/>
<line y1="96.5" x2="736" y2="96.5" stroke="#1C1A1A"/>
<line y1="121.5" x2="736" y2="121.5" stroke="#1C1A1A"/>
<line y1="146.5" x2="736" y2="146.5" stroke="#1C1A1A"/>
<line y1="171.5" x2="736" y2="171.5" stroke="#1C1A1A"/>
<line y1="196.5" x2="736" y2="196.5" stroke="#1C1A1A"/>
<path d="M314.475 0V31.0906C314.475 31.0906 314.475 33.1864 314.475 37.3778C317.332 34.6927 320.537 33.3173 324.091 33.2518C326.313 33.2519 328.217 34.2015 329.804 36.1007C331.2 37.869 331.93 39.8337 331.994 41.9949C332.057 43.6977 331.645 45.6624 330.756 47.8891C330.439 48.806 329.74 49.7884 328.661 50.8363C327.836 51.6222 326.979 52.4408 326.091 53.2922C321.394 56.8287 316.697 60.398 312 64V0H314.475V0ZM322.187 39.539C321.426 38.6221 320.442 38.1637 319.236 38.1637C317.712 38.1637 316.475 39.0478 315.523 40.8161C314.824 42.1914 314.475 45.4332 314.475 50.5415V58.9899C314.539 59.2519 316.316 57.6473 319.807 54.1763C321.711 52.3426 322.949 50.1813 323.52 47.6927C323.774 46.7103 323.901 45.7279 323.901 44.7456C323.901 42.5844 323.33 40.8488 322.187 39.539" fill="#1C1A1A"/>
<path d="M31.1226 171.24C28.7962 173.193 16.4703 180.891 8.9764 182C11.1016 180.891 11.7726 180.225 17.5888 176.565C23.306 172.967 30.3397 165.694 36.2677 158.817C41.0101 153.315 43.9108 144.619 44.7683 140.959C46.2894 137.32 46.2223 129.164 45.9986 125.54C45.9613 122.028 44.4104 113.605 38.5047 108.015C31.1226 101.026 23.6287 104.909 22.2865 105.352C20.9443 105.796 16.3585 109.013 15.0163 111.897C13.9425 114.204 14.5689 114.929 15.0163 115.003C19.273 113.117 23.3501 114.2 25.8721 116.001C28.6684 117.998 31.0172 120.992 30.7935 125.54C30.6146 129.179 28.824 131.863 27.4818 133.194C24.6855 136.3 20.1986 136.633 17.7007 136.633C11.6608 136.3 7.86507 131.974 7.07496 130.643C6.74586 130.088 3.60844 125.097 5.73276 116.445C7.48062 109.326 14.1588 103.762 17.477 101.914C28.1027 96.4785 35.5966 97.7295 40.4062 99.5844C46.446 101.914 53.9901 109.124 55.8414 115.446C57.6927 121.769 58.6376 126.76 57.5191 132.861C56.4006 138.962 54.8348 143.177 49.1304 152.384C43.4261 161.59 34.0307 168.8 31.1226 171.24Z" fill="black"/>
<path d="M8.9764 182L8.74504 181.557C8.52868 181.67 8.42547 181.922 8.50085 182.154C8.57623 182.387 8.80818 182.53 9.04961 182.495L8.9764 182ZM31.1226 171.24L30.8012 170.857L30.8012 170.857L31.1226 171.24ZM49.1304 152.384L49.5554 152.647L49.5554 152.647L49.1304 152.384ZM55.8414 115.446L56.3212 115.306L56.3212 115.306L55.8414 115.446ZM40.4062 99.5844L40.5861 99.1179L40.5861 99.1179L40.4062 99.5844ZM17.477 101.914L17.2493 101.469L17.2414 101.473L17.2336 101.477L17.477 101.914ZM5.73276 116.445L6.21834 116.564L6.21834 116.564L5.73276 116.445ZM7.07496 130.643L6.64496 130.898L6.64496 130.898L7.07496 130.643ZM17.7007 136.633L17.6732 137.132L17.6869 137.133H17.7007V136.633ZM27.4818 133.194L27.1297 132.839L27.1196 132.849L27.1102 132.859L27.4818 133.194ZM30.7935 125.54L30.2941 125.516L30.2941 125.516L30.7935 125.54ZM25.8721 116.001L26.1627 115.594L26.1627 115.594L25.8721 116.001ZM15.0163 115.003L14.9347 115.496L15.0822 115.52L15.2188 115.46L15.0163 115.003ZM15.0163 111.897L15.4696 112.108L15.4696 112.108L15.0163 111.897ZM22.2865 105.352L22.4434 105.827L22.4434 105.827L22.2865 105.352ZM38.5047 108.015L38.161 108.378L38.5047 108.015ZM45.9986 125.54L45.4986 125.546L45.4988 125.558L45.4996 125.571L45.9986 125.54ZM44.7683 140.959L44.307 140.766L44.2909 140.804L44.2814 140.845L44.7683 140.959ZM36.2677 158.817L35.889 158.491L35.889 158.491L36.2677 158.817ZM17.5888 176.565L17.8551 176.988L17.5888 176.565ZM9.04961 182.495C12.8889 181.926 17.9096 179.687 22.2233 177.377C26.5423 175.065 30.2412 172.633 31.444 171.624L30.8012 170.857C29.6776 171.8 26.0503 174.194 21.7513 176.496C17.447 178.8 12.5578 180.964 8.90319 181.505L9.04961 182.495ZM31.444 171.624C34.3278 169.204 43.7992 161.937 49.5554 152.647L48.7054 152.12C43.053 161.243 33.7337 168.397 30.8012 170.857L31.444 171.624ZM49.5554 152.647C55.2815 143.405 56.8779 139.131 58.0109 132.951L57.0273 132.771C55.9234 138.792 54.388 142.949 48.7054 152.12L49.5554 152.647ZM58.0109 132.951C59.1504 126.736 58.1803 121.655 56.3212 115.306L55.3615 115.587C57.205 121.883 58.1249 126.785 57.0273 132.771L58.0109 132.951ZM56.3212 115.306C55.3632 112.034 52.9526 108.581 50.0488 105.665C47.1422 102.747 43.689 100.315 40.5861 99.1179L40.2262 100.051C43.1631 101.184 46.502 103.521 49.3402 106.371C52.1812 109.223 54.4683 112.536 55.3615 115.587L56.3212 115.306ZM40.5861 99.1179C35.6555 97.2163 28.0124 95.9631 17.2493 101.469L17.7047 102.359C28.1929 96.994 35.5377 98.2427 40.2262 100.051L40.5861 99.1179ZM17.2336 101.477C15.5252 102.429 12.9843 104.316 10.6474 106.865C8.31098 109.414 6.14795 112.657 5.24718 116.325L6.21834 116.564C7.06543 113.114 9.11541 110.016 11.3845 107.541C13.6532 105.066 16.1106 103.247 17.7203 102.351L17.2336 101.477ZM5.24718 116.325C3.07897 125.156 6.2821 130.286 6.64496 130.898L7.50495 130.388C7.20962 129.89 4.13791 125.037 6.21834 116.564L5.24718 116.325ZM6.64496 130.898C7.07914 131.63 8.27552 133.094 10.1283 134.419C11.9887 135.75 14.5371 136.959 17.6732 137.132L17.7282 136.133C14.8244 135.973 12.455 134.854 10.71 133.606C8.95742 132.352 7.86089 130.987 7.50495 130.388L6.64496 130.898ZM17.7007 137.133C20.2027 137.133 24.8984 136.811 27.8534 133.529L27.1102 132.859C24.4727 135.789 20.1946 136.133 17.7007 136.133V137.133ZM27.8339 133.549C29.2438 132.151 31.1065 129.354 31.2929 125.565L30.2941 125.516C30.1226 129.003 28.4041 131.575 27.1297 132.839L27.8339 133.549ZM31.2929 125.565C31.5276 120.794 29.0481 117.654 26.1627 115.594L25.5816 116.408C28.2887 118.341 30.5069 121.191 30.2941 125.516L31.2929 125.565ZM26.1627 115.594C23.5206 113.707 19.2573 112.577 14.8138 114.545L15.2188 115.46C19.2888 113.657 23.1796 114.693 25.5816 116.408L26.1627 115.594ZM15.0978 114.509C15.097 114.509 15.0748 114.505 15.0451 114.473C15.0162 114.441 14.9654 114.366 14.9393 114.207C14.8847 113.873 14.9497 113.225 15.4696 112.108L14.563 111.686C14.0091 112.876 13.8504 113.744 13.9524 114.368C14.0595 115.023 14.466 115.418 14.9347 115.496L15.0978 114.509ZM15.4696 112.108C16.0918 110.771 17.5011 109.304 18.9692 108.095C19.6953 107.498 20.4202 106.976 21.0424 106.578C21.6759 106.173 22.1704 105.917 22.4434 105.827L22.1296 104.878C21.7315 105.009 21.1494 105.322 20.5037 105.735C19.8466 106.155 19.0895 106.701 18.3336 107.323C16.8377 108.555 15.283 110.139 14.563 111.686L15.4696 112.108ZM22.4434 105.827C23.1825 105.583 25.2815 104.544 28.1563 104.396C30.9978 104.25 34.579 104.987 38.161 108.378L38.8484 107.651C35.0483 104.054 31.1915 103.238 28.1049 103.397C25.0517 103.554 22.7327 104.678 22.1296 104.878L22.4434 105.827ZM38.161 108.378C43.9317 113.84 45.4622 122.108 45.4986 125.546L46.4986 125.535C46.4605 121.947 44.889 113.37 38.8484 107.651L38.161 108.378ZM45.4996 125.571C45.6105 127.367 45.6827 130.294 45.5384 133.219C45.393 136.166 45.0305 139.035 44.307 140.766L45.2296 141.151C46.0272 139.244 46.3917 136.216 46.5372 133.269C46.6836 130.3 46.6105 127.337 46.4977 125.51L45.4996 125.571ZM44.2814 140.845C43.4308 144.476 40.5534 153.079 35.889 158.491L36.6464 159.144C41.4668 153.551 44.3908 144.762 45.2551 141.073L44.2814 140.845ZM35.889 158.491C29.961 165.368 22.9699 172.587 17.3225 176.142L17.8551 176.988C23.6422 173.346 30.7183 166.021 36.6464 159.144L35.889 158.491ZM17.3225 176.142C14.4095 177.975 12.7835 179.059 11.6239 179.821C10.4673 180.581 9.78498 181.014 8.74504 181.557L9.20776 182.443C10.293 181.877 11.0087 181.422 12.1731 180.657C13.3343 179.894 14.9519 178.815 17.8551 176.988L17.3225 176.142Z" fill="black"/>
<ellipse cx="70.4852" cy="110.156" rx="6.51452" ry="6.49758" fill="black"/>
<ellipse cx="70.4852" cy="134.647" rx="6.51452" ry="6.49758" fill="black"/>
</svg>
