<svg width="736" height="215" viewBox="0 0 736 215" fill="none" xmlns="http://www.w3.org/2000/svg">
<path d="M356.097 41.5145C350.453 39.8054 346 35.1609 346 30.9836C346 19.1601 371.813 14.4812 382.473 24.3725C394 35.0687 375.188 47.2953 356.097 41.5145H356.097ZM373.315 38.5442C376.455 33.8287 373.453 24.486 368.013 22.0476C360.025 18.4667 355.129 24.5689 358.456 33.9586C360.757 40.4532 370.119 43.3425 373.315 38.5442Z" fill="#1C1A1A"/>
<line x1="340" y1="43.5" x2="392" y2="43.5" stroke="#1C1A1A"/>
<line y1="68.5" x2="736" y2="68.5" stroke="#1C1A1A"/>
<line y1="93.5" x2="736" y2="93.5" stroke="#1C1A1A"/>
<line y1="118.5" x2="736" y2="118.5" stroke="#1C1A1A"/>
<line y1="143.5" x2="736" y2="143.5" stroke="#1C1A1A"/>
<line y1="168.5" x2="736" y2="168.5" stroke="#1C1A1A"/>
<path d="M33.0196 131.694C30.4448 132.54 28.317 133.969 26.636 135.981C24.9547 137.991 23.9303 140.188 23.5625 142.57C23.1947 144.951 23.4969 147.306 24.4688 149.635C25.4407 151.964 27.2664 153.843 29.9456 155.272C30.5761 155.272 30.9699 155.537 31.128 156.066C31.2852 156.595 31.0485 156.859 30.419 156.859C27.8443 156.33 25.5852 155.245 23.6414 153.605C20.0163 150.588 18.0199 146.698 17.6522 141.935C17.4421 139.553 17.6653 137.251 18.3221 135.028C18.9787 132.805 19.885 130.767 21.0408 128.914C22.4592 126.957 24.1404 125.263 26.0843 123.834C26.1893 123.728 26.4915 123.49 26.9905 123.12C27.4896 122.749 27.9755 122.405 28.4484 122.088C28.9213 121.77 29.6304 121.267 30.5761 120.579L27.6604 106.448C25.0861 108.618 22.5381 111.012 20.0164 113.632C17.4946 116.252 15.2092 119.018 13.1603 121.929C11.1115 124.84 9.46968 127.923 8.23502 131.178C7.00047 134.433 6.3832 137.859 6.3832 141.459C6.3832 144.793 7.07923 147.929 8.47151 150.866C9.86369 153.803 11.7156 156.357 14.0272 158.526C16.3388 160.696 19.005 162.403 22.0258 163.648C25.0467 164.891 28.1069 165.513 31.2066 165.513C31.312 165.513 31.7973 165.46 32.6645 165.354C33.5317 165.249 34.4506 165.116 35.4222 164.957C36.3948 164.799 37.2879 164.626 38.1024 164.441C38.9159 164.256 39.3236 164.057 39.3236 163.846L38.8502 161.623C36.8016 151.197 34.8574 141.22 33.0196 131.694V131.694ZM35.7773 131.376L42.2394 162.893C45.9697 161.464 48.4907 159.016 49.8045 155.55C51.1182 152.083 51.4195 148.564 50.7104 144.991C50.0014 141.419 48.3336 138.256 45.7062 135.504C43.0798 132.752 39.7701 131.376 35.7773 131.376V131.376ZM27.5028 88.9034C29.1311 88.0559 30.6417 86.7865 32.034 85.0924C33.4263 83.3993 34.7132 81.5859 35.8956 79.6543C37.077 77.7228 38.1024 75.7511 38.9686 73.7394C39.8357 71.7287 40.5319 69.9033 41.057 68.2623C41.6348 66.516 42.0286 64.5574 42.2394 62.3874C42.4493 60.2174 42.1081 58.392 41.2151 56.9093C40.5846 55.5868 39.7572 54.8194 38.7329 54.607C37.7076 54.3956 36.6832 54.4748 35.6589 54.8455C34.6346 55.2161 33.663 55.8112 32.7431 56.6318C31.8242 57.4523 31.1539 58.1796 30.7342 58.8148C29.5776 60.8786 28.5663 63.1809 27.6998 65.7216C26.8329 68.2623 26.2418 70.8951 25.9267 73.6212C25.6114 76.3462 25.5721 78.9661 25.8085 81.4807C26.0448 83.9944 26.6096 86.4689 27.5028 88.9034V88.9034ZM25.1387 91.364C24.2455 87.8715 23.4575 84.4442 22.7745 81.083C22.0915 77.7228 21.7501 74.2694 21.7501 70.7228C21.7501 68.13 21.9339 65.2848 22.3017 62.189C22.6694 59.0933 23.3392 56.0757 24.3112 53.1383C25.2831 50.2009 26.6227 47.568 28.3302 45.2397C30.0381 42.9104 32.3095 41.2173 35.1468 40.1583C35.4093 40.0531 35.6718 40 35.9344 40C36.3023 40 36.7359 40.2114 37.2352 40.6352C37.7344 41.058 38.2595 41.6801 38.8114 42.5006C39.3624 43.3211 39.8487 44.1677 40.2693 45.0413C40.689 45.9139 41.0043 46.51 41.2151 46.8276C42.6332 49.5266 43.6705 52.3979 44.3278 55.4406C44.9842 58.4842 45.3651 61.5138 45.4705 64.5304C45.6803 69.0828 45.4307 73.5811 44.7216 78.0273C44.0126 82.4726 42.5805 86.8126 40.4265 91.0464C39.6915 92.3168 38.9427 93.6001 38.1809 94.8965C37.4192 96.1939 36.5132 97.4502 35.462 98.6675C35.2522 98.8799 34.8713 99.2636 34.3193 99.8186C33.7674 100.375 33.2025 100.944 32.6247 101.526C32.0469 102.108 31.5348 102.651 31.0883 103.153C30.6417 103.656 30.419 103.96 30.419 104.066L33.6491 119.944C33.6699 120.048 35.2651 119.944 35.2651 119.944C38.348 119.983 41.6119 120.486 44.4462 121.611C47.178 122.881 49.529 124.628 51.4991 126.851C53.4691 129.074 55.0444 131.574 56.2268 134.353C57.4093 137.132 58 139.95 58 142.808C58 145.665 57.5793 148.577 56.739 151.54C54.5849 157.151 51.144 161.305 46.4162 164.004C45.8902 164.322 45.1413 164.68 44.1697 165.076C43.1981 165.473 42.8172 166.095 43.027 166.942C44.2881 172.708 45.1413 176.676 45.5888 178.85C46.0354 181.024 46.3635 183.829 46.5734 187.265C46.7832 190.551 46.2183 193.507 44.8788 196.152C43.5392 198.807 41.7402 200.961 39.4807 202.624C37.2222 204.297 35.1597 205.269 33.295 205.569C31.4294 205.86 30.1554 206 29.4732 206C27.1087 206 24.7972 205.549 22.5381 204.648C19.7536 203.596 17.4158 201.983 15.5245 199.809C13.6332 197.635 12.6875 194.99 12.6875 191.874C12.6875 189.91 13.2523 187.897 14.3818 185.833C15.5114 183.769 16.9955 182.286 18.8342 181.394C20.8832 180.333 22.7351 180.042 24.39 180.513C26.0448 180.994 27.4108 181.895 28.4878 183.218C29.5647 184.54 30.3136 186.143 30.7342 188.017C31.1539 189.9 31.128 191.653 30.6547 193.297C30.1823 194.94 29.2236 196.332 27.7786 197.464C26.3338 198.606 24.3243 199.117 21.7501 199.017C22.8007 200.921 24.2718 202.123 26.1631 202.624C28.0544 203.135 29.9983 203.165 31.9942 202.744C33.9912 202.323 35.8688 201.542 37.629 200.4C39.3892 199.268 40.7686 198.035 41.766 196.713C42.3965 195.761 42.8699 194.519 43.1852 192.986C43.5004 191.443 43.6844 189.85 43.7361 188.177C43.7888 186.514 43.7361 185.212 43.579 184.29C43.4209 183.358 43.1583 181.915 42.7904 179.962C41.2151 173.56 40.2166 169.533 39.796 167.89C39.5861 167.366 39.0213 167.193 38.1024 167.379C37.1825 167.564 36.4078 167.736 35.7773 167.89C31.2593 168.481 27.4765 168.21 24.4294 167.101C19.7011 165.831 15.5376 163.568 11.9389 160.313C8.34014 157.058 5.45067 153.115 3.27036 148.484C1.09015 143.853 0 140.334 0 137.925C0 135.518 0 133.996 0 133.361C0 129.074 0.73552 125.051 2.20656 121.293C4.99092 115.418 8.28763 110.02 12.0965 105.098C15.9054 100.176 20.2528 95.5978 25.1387 91.364V91.364Z" fill="#1C1A1A"/>
<path d="M321.523 43.5005V26.6585L328.368 24.6821V41.4382L321.523 43.5005V43.5005ZM335 39.426L330.294 40.8367V24.0806L335 22.7058V15.7456L330.294 17.1204V0H328.368V17.6396L321.523 19.6983V3.05046H319.706V20.332L315 21.7104V28.685L319.706 27.3101V44.0339L315 45.4052V52.3511L319.706 50.9763V68H321.523V50.3676L328.368 48.3984V64.9603H330.294V47.7754L335 46.397V39.426V39.426Z" fill="#1C1A1A"/>
</svg>
