<svg width="736" height="219" viewBox="0 0 736 219" fill="none" xmlns="http://www.w3.org/2000/svg">
<line y1="81.5" x2="736" y2="81.5" stroke="#1C1A1A"/>
<line y1="106.5" x2="736" y2="106.5" stroke="#1C1A1A"/>
<line y1="131.5" x2="736" y2="131.5" stroke="#1C1A1A"/>
<line y1="156.5" x2="736" y2="156.5" stroke="#1C1A1A"/>
<line y1="181.5" x2="736" y2="181.5" stroke="#1C1A1A"/>
<path d="M33.0196 144.694C30.4448 145.54 28.317 146.969 26.636 148.981C24.9547 150.991 23.9303 153.188 23.5625 155.57C23.1947 157.951 23.4969 160.306 24.4688 162.635C25.4407 164.964 27.2664 166.843 29.9456 168.272C30.5761 168.272 30.9699 168.537 31.128 169.066C31.2852 169.595 31.0485 169.859 30.419 169.859C27.8443 169.33 25.5852 168.245 23.6414 166.605C20.0163 163.588 18.0199 159.698 17.6522 154.935C17.4421 152.553 17.6653 150.251 18.3221 148.028C18.9787 145.805 19.885 143.767 21.0408 141.914C22.4592 139.957 24.1404 138.263 26.0843 136.834C26.1893 136.728 26.4915 136.49 26.9905 136.12C27.4896 135.749 27.9755 135.405 28.4484 135.088C28.9213 134.77 29.6304 134.267 30.5761 133.579L27.6604 119.448C25.0861 121.618 22.5381 124.012 20.0164 126.632C17.4946 129.252 15.2092 132.018 13.1603 134.929C11.1115 137.84 9.46968 140.923 8.23502 144.178C7.00047 147.433 6.3832 150.859 6.3832 154.459C6.3832 157.793 7.07923 160.929 8.47151 163.866C9.86369 166.803 11.7156 169.357 14.0272 171.526C16.3388 173.696 19.005 175.403 22.0258 176.648C25.0467 177.891 28.1069 178.513 31.2066 178.513C31.312 178.513 31.7973 178.46 32.6645 178.354C33.5317 178.249 34.4506 178.116 35.4222 177.957C36.3948 177.799 37.2879 177.626 38.1024 177.441C38.9159 177.256 39.3236 177.057 39.3236 176.846L38.8502 174.623C36.8016 164.197 34.8574 154.22 33.0196 144.694V144.694ZM35.7773 144.376L42.2394 175.893C45.9697 174.464 48.4907 172.016 49.8045 168.55C51.1182 165.083 51.4195 161.564 50.7104 157.991C50.0014 154.419 48.3336 151.256 45.7062 148.504C43.0798 145.752 39.7701 144.376 35.7773 144.376V144.376ZM27.5028 101.903C29.1311 101.056 30.6417 99.7865 32.034 98.0924C33.4263 96.3993 34.7132 94.5859 35.8956 92.6543C37.077 90.7228 38.1024 88.7511 38.9686 86.7394C39.8357 84.7287 40.5319 82.9033 41.057 81.2623C41.6348 79.516 42.0286 77.5574 42.2394 75.3874C42.4493 73.2174 42.1081 71.392 41.2151 69.9093C40.5846 68.5868 39.7572 67.8194 38.7329 67.607C37.7076 67.3956 36.6832 67.4748 35.6589 67.8455C34.6346 68.2161 33.663 68.8112 32.7431 69.6318C31.8242 70.4523 31.1539 71.1796 30.7342 71.8148C29.5776 73.8786 28.5663 76.1809 27.6998 78.7216C26.8329 81.2623 26.2418 83.8951 25.9267 86.6212C25.6114 89.3462 25.5721 91.9661 25.8085 94.4807C26.0448 96.9944 26.6096 99.4689 27.5028 101.903V101.903ZM25.1387 104.364C24.2455 100.872 23.4575 97.4442 22.7745 94.083C22.0915 90.7228 21.7501 87.2694 21.7501 83.7228C21.7501 81.13 21.9339 78.2848 22.3017 75.189C22.6694 72.0933 23.3392 69.0757 24.3112 66.1383C25.2831 63.2009 26.6227 60.568 28.3302 58.2397C30.0381 55.9104 32.3095 54.2173 35.1468 53.1583C35.4093 53.0531 35.6718 53 35.9344 53C36.3023 53 36.7359 53.2114 37.2352 53.6352C37.7344 54.058 38.2595 54.6801 38.8114 55.5006C39.3624 56.3211 39.8487 57.1677 40.2693 58.0413C40.689 58.9139 41.0043 59.51 41.2151 59.8276C42.6332 62.5266 43.6705 65.3979 44.3278 68.4406C44.9842 71.4842 45.3651 74.5138 45.4705 77.5304C45.6803 82.0828 45.4307 86.5811 44.7216 91.0273C44.0126 95.4726 42.5805 99.8126 40.4265 104.046C39.6915 105.317 38.9427 106.6 38.1809 107.897C37.4192 109.194 36.5132 110.45 35.462 111.668C35.2522 111.88 34.8713 112.264 34.3193 112.819C33.7674 113.375 33.2025 113.944 32.6247 114.526C32.0469 115.108 31.5348 115.651 31.0883 116.153C30.6417 116.656 30.419 116.96 30.419 117.066L33.6491 132.944C33.6699 133.048 35.2651 132.944 35.2651 132.944C38.348 132.983 41.6119 133.486 44.4462 134.611C47.178 135.881 49.529 137.628 51.4991 139.851C53.4691 142.074 55.0444 144.574 56.2268 147.353C57.4093 150.132 58 152.95 58 155.808C58 158.665 57.5793 161.577 56.739 164.54C54.5849 170.151 51.144 174.305 46.4162 177.004C45.8902 177.322 45.1413 177.68 44.1697 178.076C43.1981 178.473 42.8172 179.095 43.027 179.942C44.2881 185.708 45.1413 189.676 45.5888 191.85C46.0354 194.024 46.3635 196.829 46.5734 200.265C46.7832 203.551 46.2183 206.507 44.8788 209.152C43.5392 211.807 41.7402 213.961 39.4807 215.624C37.2222 217.297 35.1597 218.269 33.295 218.569C31.4294 218.86 30.1554 219 29.4732 219C27.1087 219 24.7972 218.549 22.5381 217.648C19.7536 216.596 17.4158 214.983 15.5245 212.809C13.6332 210.635 12.6875 207.99 12.6875 204.874C12.6875 202.91 13.2523 200.897 14.3818 198.833C15.5114 196.769 16.9955 195.286 18.8342 194.394C20.8832 193.333 22.7351 193.042 24.39 193.513C26.0448 193.994 27.4108 194.895 28.4878 196.218C29.5647 197.54 30.3136 199.143 30.7342 201.017C31.1539 202.9 31.128 204.653 30.6547 206.297C30.1823 207.94 29.2236 209.332 27.7786 210.464C26.3338 211.606 24.3243 212.117 21.7501 212.017C22.8007 213.921 24.2718 215.123 26.1631 215.624C28.0544 216.135 29.9983 216.165 31.9942 215.744C33.9912 215.323 35.8688 214.542 37.629 213.4C39.3892 212.268 40.7686 211.035 41.766 209.713C42.3965 208.761 42.8699 207.519 43.1852 205.986C43.5004 204.443 43.6844 202.85 43.7361 201.177C43.7888 199.514 43.7361 198.212 43.579 197.29C43.4209 196.358 43.1583 194.915 42.7904 192.962C41.2151 186.56 40.2166 182.533 39.796 180.89C39.5861 180.366 39.0213 180.193 38.1024 180.379C37.1825 180.564 36.4078 180.736 35.7773 180.89C31.2593 181.481 27.4765 181.21 24.4294 180.101C19.7011 178.831 15.5376 176.568 11.9389 173.313C8.34014 170.058 5.45067 166.115 3.27036 161.484C1.09015 156.853 0 153.334 0 150.925C0 148.518 0 146.996 0 146.361C0 142.074 0.73552 138.051 2.20656 134.293C4.99092 128.418 8.28763 123.02 12.0965 118.098C15.9054 113.176 20.2528 108.598 25.1387 104.364V104.364Z" fill="#1C1A1A"/>
<path d="M356.097 42.5145C350.453 40.8054 346 36.1609 346 31.9836C346 20.1601 371.813 15.4812 382.473 25.3725C394 36.0687 375.188 48.2953 356.097 42.5145H356.097ZM373.315 39.5442C376.455 34.8287 373.453 25.486 368.013 23.0476C360.025 19.4667 355.129 25.5689 358.456 34.9586C360.757 41.4532 370.119 44.3425 373.315 39.5442Z" fill="#1C1A1A"/>
<line x1="340" y1="31.5" x2="392" y2="31.5" stroke="#1C1A1A"/>
<line y1="81.5" x2="736" y2="81.5" stroke="#1C1A1A"/>
<line y1="106.5" x2="736" y2="106.5" stroke="#1C1A1A"/>
<line y1="131.5" x2="736" y2="131.5" stroke="#1C1A1A"/>
<line y1="156.5" x2="736" y2="156.5" stroke="#1C1A1A"/>
<line y1="181.5" x2="736" y2="181.5" stroke="#1C1A1A"/>
<path d="M33.0196 144.694C30.4448 145.54 28.317 146.969 26.636 148.981C24.9547 150.991 23.9303 153.188 23.5625 155.57C23.1947 157.951 23.4969 160.306 24.4688 162.635C25.4407 164.964 27.2664 166.843 29.9456 168.272C30.5761 168.272 30.9699 168.537 31.128 169.066C31.2852 169.595 31.0485 169.859 30.419 169.859C27.8443 169.33 25.5852 168.245 23.6414 166.605C20.0163 163.588 18.0199 159.698 17.6522 154.935C17.4421 152.553 17.6653 150.251 18.3221 148.028C18.9787 145.805 19.885 143.767 21.0408 141.914C22.4592 139.957 24.1404 138.263 26.0843 136.834C26.1893 136.728 26.4915 136.49 26.9905 136.12C27.4896 135.749 27.9755 135.405 28.4484 135.088C28.9213 134.77 29.6304 134.267 30.5761 133.579L27.6604 119.448C25.0861 121.618 22.5381 124.012 20.0164 126.632C17.4946 129.252 15.2092 132.018 13.1603 134.929C11.1115 137.84 9.46968 140.923 8.23502 144.178C7.00047 147.433 6.3832 150.859 6.3832 154.459C6.3832 157.793 7.07923 160.929 8.47151 163.866C9.86369 166.803 11.7156 169.357 14.0272 171.526C16.3388 173.696 19.005 175.403 22.0258 176.648C25.0467 177.891 28.1069 178.513 31.2066 178.513C31.312 178.513 31.7973 178.46 32.6645 178.354C33.5317 178.249 34.4506 178.116 35.4222 177.957C36.3948 177.799 37.2879 177.626 38.1024 177.441C38.9159 177.256 39.3236 177.057 39.3236 176.846L38.8502 174.623C36.8016 164.197 34.8574 154.22 33.0196 144.694V144.694ZM35.7773 144.376L42.2394 175.893C45.9697 174.464 48.4907 172.016 49.8045 168.55C51.1182 165.083 51.4195 161.564 50.7104 157.991C50.0014 154.419 48.3336 151.256 45.7062 148.504C43.0798 145.752 39.7701 144.376 35.7773 144.376V144.376ZM27.5028 101.903C29.1311 101.056 30.6417 99.7865 32.034 98.0924C33.4263 96.3993 34.7132 94.5859 35.8956 92.6543C37.077 90.7228 38.1024 88.7511 38.9686 86.7394C39.8357 84.7287 40.5319 82.9033 41.057 81.2623C41.6348 79.516 42.0286 77.5574 42.2394 75.3874C42.4493 73.2174 42.1081 71.392 41.2151 69.9093C40.5846 68.5868 39.7572 67.8194 38.7329 67.607C37.7076 67.3956 36.6832 67.4748 35.6589 67.8455C34.6346 68.2161 33.663 68.8112 32.7431 69.6318C31.8242 70.4523 31.1539 71.1796 30.7342 71.8148C29.5776 73.8786 28.5663 76.1809 27.6998 78.7216C26.8329 81.2623 26.2418 83.8951 25.9267 86.6212C25.6114 89.3462 25.5721 91.9661 25.8085 94.4807C26.0448 96.9944 26.6096 99.4689 27.5028 101.903V101.903ZM25.1387 104.364C24.2455 100.872 23.4575 97.4442 22.7745 94.083C22.0915 90.7228 21.7501 87.2694 21.7501 83.7228C21.7501 81.13 21.9339 78.2848 22.3017 75.189C22.6694 72.0933 23.3392 69.0757 24.3112 66.1383C25.2831 63.2009 26.6227 60.568 28.3302 58.2397C30.0381 55.9104 32.3095 54.2173 35.1468 53.1583C35.4093 53.0531 35.6718 53 35.9344 53C36.3023 53 36.7359 53.2114 37.2352 53.6352C37.7344 54.058 38.2595 54.6801 38.8114 55.5006C39.3624 56.3211 39.8487 57.1677 40.2693 58.0413C40.689 58.9139 41.0043 59.51 41.2151 59.8276C42.6332 62.5266 43.6705 65.3979 44.3278 68.4406C44.9842 71.4842 45.3651 74.5138 45.4705 77.5304C45.6803 82.0828 45.4307 86.5811 44.7216 91.0273C44.0126 95.4726 42.5805 99.8126 40.4265 104.046C39.6915 105.317 38.9427 106.6 38.1809 107.897C37.4192 109.194 36.5132 110.45 35.462 111.668C35.2522 111.88 34.8713 112.264 34.3193 112.819C33.7674 113.375 33.2025 113.944 32.6247 114.526C32.0469 115.108 31.5348 115.651 31.0883 116.153C30.6417 116.656 30.419 116.96 30.419 117.066L33.6491 132.944C33.6699 133.048 35.2651 132.944 35.2651 132.944C38.348 132.983 41.6119 133.486 44.4462 134.611C47.178 135.881 49.529 137.628 51.4991 139.851C53.4691 142.074 55.0444 144.574 56.2268 147.353C57.4093 150.132 58 152.95 58 155.808C58 158.665 57.5793 161.577 56.739 164.54C54.5849 170.151 51.144 174.305 46.4162 177.004C45.8902 177.322 45.1413 177.68 44.1697 178.076C43.1981 178.473 42.8172 179.095 43.027 179.942C44.2881 185.708 45.1413 189.676 45.5888 191.85C46.0354 194.024 46.3635 196.829 46.5734 200.265C46.7832 203.551 46.2183 206.507 44.8788 209.152C43.5392 211.807 41.7402 213.961 39.4807 215.624C37.2222 217.297 35.1597 218.269 33.295 218.569C31.4294 218.86 30.1554 219 29.4732 219C27.1087 219 24.7972 218.549 22.5381 217.648C19.7536 216.596 17.4158 214.983 15.5245 212.809C13.6332 210.635 12.6875 207.99 12.6875 204.874C12.6875 202.91 13.2523 200.897 14.3818 198.833C15.5114 196.769 16.9955 195.286 18.8342 194.394C20.8832 193.333 22.7351 193.042 24.39 193.513C26.0448 193.994 27.4108 194.895 28.4878 196.218C29.5647 197.54 30.3136 199.143 30.7342 201.017C31.1539 202.9 31.128 204.653 30.6547 206.297C30.1823 207.94 29.2236 209.332 27.7786 210.464C26.3338 211.606 24.3243 212.117 21.7501 212.017C22.8007 213.921 24.2718 215.123 26.1631 215.624C28.0544 216.135 29.9983 216.165 31.9942 215.744C33.9912 215.323 35.8688 214.542 37.629 213.4C39.3892 212.268 40.7686 211.035 41.766 209.713C42.3965 208.761 42.8699 207.519 43.1852 205.986C43.5004 204.443 43.6844 202.85 43.7361 201.177C43.7888 199.514 43.7361 198.212 43.579 197.29C43.4209 196.358 43.1583 194.915 42.7904 192.962C41.2151 186.56 40.2166 182.533 39.796 180.89C39.5861 180.366 39.0213 180.193 38.1024 180.379C37.1825 180.564 36.4078 180.736 35.7773 180.89C31.2593 181.481 27.4765 181.21 24.4294 180.101C19.7011 178.831 15.5376 176.568 11.9389 173.313C8.34014 170.058 5.45067 166.115 3.27036 161.484C1.09015 156.853 0 153.334 0 150.925C0 148.518 0 146.996 0 146.361C0 142.074 0.73552 138.051 2.20656 134.293C4.99092 128.418 8.28763 123.02 12.0965 118.098C15.9054 113.176 20.2528 108.598 25.1387 104.364V104.364Z" fill="#1C1A1A"/>
<line x1="342" y1="52.5" x2="394" y2="52.5" stroke="#1C1A1A"/>
<path d="M321.523 43.5005V26.6585L328.368 24.6821V41.4382L321.523 43.5005V43.5005ZM335 39.426L330.294 40.8367V24.0806L335 22.7058V15.7456L330.294 17.1204V0H328.368V17.6396L321.523 19.6983V3.05046H319.706V20.332L315 21.7104V28.685L319.706 27.3101V44.0339L315 45.4052V52.3511L319.706 50.9763V68H321.523V50.3676L328.368 48.3984V64.9603H330.294V47.7754L335 46.397V39.426V39.426Z" fill="#1C1A1A"/>
</svg>
