<svg width="736" height="218" viewBox="0 0 736 218" fill="none" xmlns="http://www.w3.org/2000/svg">
<path d="M356.097 44.2645C350.453 42.5554 346 37.9109 346 33.7336C346 21.9101 371.813 17.2312 382.473 27.1225C394 37.8187 375.188 50.0453 356.097 44.2645H356.097ZM373.315 41.2942C376.455 36.5787 373.453 27.236 368.013 24.7976C360.025 21.2167 355.129 27.3189 358.456 36.7086C360.757 43.2032 370.119 46.0925 373.315 41.2942Z" fill="#1C1A1A"/>
<line x1="340" y1="46.25" x2="392" y2="46.25" stroke="#1C1A1A"/>
<line y1="71.25" x2="736" y2="71.25" stroke="#1C1A1A"/>
<line y1="96.25" x2="736" y2="96.25" stroke="#1C1A1A"/>
<line y1="121.25" x2="736" y2="121.25" stroke="#1C1A1A"/>
<line y1="146.25" x2="736" y2="146.25" stroke="#1C1A1A"/>
<line y1="171.25" x2="736" y2="171.25" stroke="#1C1A1A"/>
<path d="M320.475 0V31.0906C320.475 31.0906 320.475 33.1864 320.475 37.3778C323.332 34.6927 326.537 33.3173 330.091 33.2518C332.313 33.2519 334.217 34.2015 335.804 36.1007C337.2 37.869 337.93 39.8337 337.994 41.9949C338.057 43.6977 337.645 45.6624 336.756 47.8891C336.439 48.806 335.74 49.7884 334.661 50.8363C333.836 51.6222 332.979 52.4408 332.091 53.2922C327.394 56.8287 322.697 60.398 318 64V0H320.475V0ZM328.187 39.539C327.426 38.6221 326.442 38.1637 325.236 38.1637C323.712 38.1637 322.475 39.0478 321.523 40.8161C320.824 42.1914 320.475 45.4332 320.475 50.5415V58.9899C320.539 59.2519 322.316 57.6473 325.807 54.1763C327.711 52.3426 328.949 50.1813 329.52 47.6927C329.774 46.7103 329.901 45.7279 329.901 44.7456C329.901 42.5844 329.33 40.8488 328.187 39.539" fill="#1C1A1A"/>
<path d="M31.1226 145.99C28.7962 147.943 16.4703 155.641 8.9764 156.75C11.1016 155.641 11.7726 154.975 17.5888 151.315C23.306 147.717 30.3397 140.444 36.2677 133.567C41.0101 128.065 43.9108 119.369 44.7683 115.709C46.2894 112.07 46.2223 103.914 45.9986 100.29C45.9613 96.7778 44.4104 88.355 38.5047 82.7645C31.1226 75.7764 23.6287 79.6587 22.2865 80.1024C20.9443 80.5461 16.3585 83.7628 15.0163 86.6468C13.9425 88.954 14.5689 89.6787 15.0163 89.7526C19.273 87.867 23.3501 88.9501 25.8721 90.7509C28.6684 92.7476 31.0172 95.7425 30.7935 100.29C30.6146 103.929 28.824 106.613 27.4818 107.944C24.6855 111.05 20.1986 111.383 17.7007 111.383C11.6608 111.05 7.86507 106.724 7.07496 105.393C6.74586 104.838 3.60844 99.8466 5.73276 91.1946C7.48062 84.076 14.1588 78.5125 17.477 76.6638C28.1027 71.2285 35.5966 72.4795 40.4062 74.3344C46.446 76.6638 53.9901 83.8737 55.8414 90.1963C57.6927 96.5189 58.6376 101.51 57.5191 107.611C56.4006 113.712 54.8348 117.927 49.1304 127.134C43.4261 136.34 34.0307 143.55 31.1226 145.99Z" fill="black"/>
<path d="M8.9764 156.75L8.74504 156.307C8.52868 156.42 8.42547 156.672 8.50085 156.904C8.57623 157.137 8.80818 157.28 9.04961 157.245L8.9764 156.75ZM31.1226 145.99L30.8012 145.607L30.8012 145.607L31.1226 145.99ZM49.1304 127.134L49.5554 127.397L49.5554 127.397L49.1304 127.134ZM55.8414 90.1963L56.3212 90.0558L56.3212 90.0558L55.8414 90.1963ZM40.4062 74.3344L40.5861 73.8679L40.5861 73.8679L40.4062 74.3344ZM17.477 76.6638L17.2493 76.2186L17.2414 76.2227L17.2336 76.227L17.477 76.6638ZM5.73276 91.1946L6.21834 91.3139L6.21834 91.3139L5.73276 91.1946ZM7.07496 105.393L6.64496 105.648L6.64496 105.648L7.07496 105.393ZM17.7007 111.383L17.6732 111.882L17.6869 111.883H17.7007V111.383ZM27.4818 107.944L27.1297 107.589L27.1196 107.599L27.1102 107.609L27.4818 107.944ZM30.7935 100.29L30.2941 100.266L30.2941 100.266L30.7935 100.29ZM25.8721 90.7509L26.1627 90.344L26.1627 90.344L25.8721 90.7509ZM15.0163 89.7526L14.9347 90.246L15.0822 90.2703L15.2188 90.2098L15.0163 89.7526ZM15.0163 86.6468L15.4696 86.8578L15.4696 86.8578L15.0163 86.6468ZM22.2865 80.1024L22.4434 80.5771L22.4434 80.5771L22.2865 80.1024ZM38.5047 82.7645L38.161 83.1276L38.5047 82.7645ZM45.9986 100.29L45.4986 100.296L45.4988 100.308L45.4996 100.321L45.9986 100.29ZM44.7683 115.709L44.307 115.516L44.2909 115.554L44.2814 115.595L44.7683 115.709ZM36.2677 133.567L35.889 133.241L35.889 133.241L36.2677 133.567ZM17.5888 151.315L17.8551 151.738L17.5888 151.315ZM9.04961 157.245C12.8889 156.676 17.9096 154.437 22.2233 152.127C26.5423 149.815 30.2412 147.383 31.444 146.374L30.8012 145.607C29.6776 146.55 26.0503 148.944 21.7513 151.246C17.447 153.55 12.5578 155.714 8.90319 156.255L9.04961 157.245ZM31.444 146.374C34.3278 143.954 43.7992 136.687 49.5554 127.397L48.7054 126.87C43.053 135.993 33.7337 143.147 30.8012 145.607L31.444 146.374ZM49.5554 127.397C55.2815 118.155 56.8779 113.881 58.0109 107.701L57.0273 107.521C55.9234 113.542 54.388 117.699 48.7054 126.87L49.5554 127.397ZM58.0109 107.701C59.1504 101.486 58.1803 96.405 56.3212 90.0558L55.3615 90.3368C57.205 96.6329 58.1249 101.535 57.0273 107.521L58.0109 107.701ZM56.3212 90.0558C55.3632 86.7839 52.9526 83.3306 50.0488 80.4151C47.1422 77.4967 43.689 75.0646 40.5861 73.8679L40.2262 74.8009C43.1631 75.9335 46.502 78.2711 49.3402 81.1207C52.1812 83.9731 54.4683 87.2862 55.3615 90.3368L56.3212 90.0558ZM40.5861 73.8679C35.6555 71.9663 28.0124 70.7131 17.2493 76.2186L17.7047 77.1089C28.1929 71.744 35.5377 72.9927 40.2262 74.8009L40.5861 73.8679ZM17.2336 76.227C15.5252 77.1788 12.9843 79.0661 10.6474 81.6151C8.31098 84.1636 6.14795 87.4068 5.24718 91.0754L6.21834 91.3139C7.06543 87.8638 9.11541 84.7659 11.3845 82.2908C13.6532 79.8163 16.1106 77.9974 17.7203 77.1005L17.2336 76.227ZM5.24718 91.0754C3.07897 99.9062 6.2821 105.036 6.64496 105.648L7.50495 105.138C7.20962 104.64 4.13791 99.7871 6.21834 91.3139L5.24718 91.0754ZM6.64496 105.648C7.07914 106.38 8.27552 107.844 10.1283 109.169C11.9887 110.5 14.5371 111.709 17.6732 111.882L17.7282 110.883C14.8244 110.723 12.455 109.604 10.71 108.356C8.95742 107.102 7.86089 105.737 7.50495 105.138L6.64496 105.648ZM17.7007 111.883C20.2027 111.883 24.8984 111.561 27.8534 108.279L27.1102 107.609C24.4727 110.539 20.1946 110.883 17.7007 110.883V111.883ZM27.8339 108.299C29.2438 106.901 31.1065 104.104 31.2929 100.315L30.2941 100.266C30.1226 103.753 28.4041 106.325 27.1297 107.589L27.8339 108.299ZM31.2929 100.315C31.5276 95.5442 29.0481 92.4043 26.1627 90.344L25.5816 91.1579C28.2887 93.0908 30.5069 95.9407 30.2941 100.266L31.2929 100.315ZM26.1627 90.344C23.5206 88.4575 19.2573 87.3271 14.8138 89.2955L15.2188 90.2098C19.2888 88.4068 23.1796 89.4428 25.5816 91.1579L26.1627 90.344ZM15.0978 89.2593C15.097 89.2592 15.0748 89.2552 15.0451 89.2227C15.0162 89.1912 14.9654 89.1159 14.9393 88.9565C14.8847 88.6229 14.9497 87.9749 15.4696 86.8578L14.563 86.4358C14.0091 87.626 13.8504 88.4939 13.9524 89.1179C14.0595 89.7728 14.466 90.1685 14.9347 90.246L15.0978 89.2593ZM15.4696 86.8578C16.0918 85.5209 17.5011 84.0542 18.9692 82.8455C19.6953 82.2477 20.4202 81.7257 21.0424 81.3278C21.6759 80.9227 22.1704 80.6673 22.4434 80.5771L22.1296 79.6276C21.7315 79.7592 21.1494 80.0724 20.5037 80.4853C19.8466 80.9055 19.0895 81.4511 18.3336 82.0735C16.8377 83.3051 15.283 84.8887 14.563 86.4358L15.4696 86.8578ZM22.4434 80.5771C23.1825 80.3328 25.2815 79.2938 28.1563 79.1458C30.9978 78.9996 34.579 79.7369 38.161 83.1276L38.8484 82.4014C35.0483 78.804 31.1915 77.9883 28.1049 78.1472C25.0517 78.3043 22.7327 79.4283 22.1296 79.6276L22.4434 80.5771ZM38.161 83.1276C43.9317 88.5904 45.4622 96.8584 45.4986 100.296L46.4986 100.285C46.4605 96.6971 44.889 88.1196 38.8484 82.4014L38.161 83.1276ZM45.4996 100.321C45.6105 102.117 45.6827 105.044 45.5384 107.969C45.393 110.916 45.0305 113.785 44.307 115.516L45.2296 115.901C46.0272 113.994 46.3917 110.966 46.5372 108.019C46.6836 105.05 46.6105 102.087 46.4977 100.26L45.4996 100.321ZM44.2814 115.595C43.4308 119.226 40.5534 127.829 35.889 133.241L36.6464 133.894C41.4668 128.301 44.3908 119.512 45.2551 115.823L44.2814 115.595ZM35.889 133.241C29.961 140.118 22.9699 147.337 17.3225 150.892L17.8551 151.738C23.6422 148.096 30.7183 140.771 36.6464 133.894L35.889 133.241ZM17.3225 150.892C14.4095 152.725 12.7835 153.809 11.6239 154.571C10.4673 155.331 9.78498 155.764 8.74504 156.307L9.20776 157.193C10.293 156.627 11.0087 156.172 12.1731 155.407C13.3343 154.644 14.9519 153.565 17.8551 151.738L17.3225 150.892Z" fill="black"/>
<ellipse cx="70.4852" cy="84.9058" rx="6.51452" ry="6.49758" fill="black"/>
<ellipse cx="70.4852" cy="109.397" rx="6.51452" ry="6.49758" fill="black"/>
</svg>
