<svg width="736" height="213" viewBox="0 0 736 213" fill="none" xmlns="http://www.w3.org/2000/svg">
<line y1="28.5" x2="736" y2="28.5" stroke="#1C1A1A"/>
<line y1="53.5" x2="736" y2="53.5" stroke="#1C1A1A"/>
<line y1="78.5" x2="736" y2="78.5" stroke="#1C1A1A"/>
<line y1="103.5" x2="736" y2="103.5" stroke="#1C1A1A"/>
<line y1="128.5" x2="736" y2="128.5" stroke="#1C1A1A"/>
<line x1="360" y1="153.5" x2="412" y2="153.5" stroke="#1C1A1A"/>
<line x1="359" y1="178.5" x2="411" y2="178.5" stroke="#1C1A1A"/>
<path d="M375.097 189.514C369.453 187.805 365 183.161 365 178.984C365 167.16 390.813 162.481 401.473 172.372C413 183.069 394.188 195.295 375.097 189.514H375.097ZM392.315 186.544C395.455 181.829 392.453 172.486 387.013 170.048C379.025 166.467 374.129 172.569 377.456 181.959C379.757 188.453 389.119 191.343 392.315 186.544Z" fill="#1C1A1A"/>
<path d="M331.523 188.5V171.658L338.368 169.682V186.438L331.523 188.5V188.5ZM345 184.426L340.294 185.837V169.081L345 167.706V160.746L340.294 162.12V145H338.368V162.64L331.523 164.698V148.05H329.706V165.332L325 166.71V173.685L329.706 172.31V189.034L325 190.405V197.351L329.706 195.976V213H331.523V195.368L338.368 193.398V209.96H340.294V192.775L345 191.397V184.426V184.426Z" fill="#1C1A1A"/>
</svg>
