<svg width="771.4" height="174" viewBox="0 0 771.4 174" fill="none" xmlns="http://www.w3.org/2000/svg">
<line y1="36" x2="771.4" y2="36" stroke="#1C1A1A"/>
<line y1="61" x2="771.4" y2="61" stroke="#1C1A1A"/>
<line y1="86" x2="771.4" y2="86" stroke="#1C1A1A"/>
<line y1="111" x2="771.4" y2="111" stroke="#1C1A1A"/>
<line y1="136" x2="771.4" y2="136" stroke="#1C1A1A"/>
<path d="M33.0196 99.1936C30.4448 100.04 28.317 101.469 26.636 103.481C24.9547 105.491 23.9303 107.688 23.5625 110.07C23.1947 112.451 23.4969 114.806 24.4688 117.135C25.4407 119.464 27.2664 121.343 29.9456 122.772C30.5761 122.772 30.9699 123.037 31.128 123.566C31.2852 124.095 31.0485 124.359 30.419 124.359C27.8443 123.83 25.5852 122.745 23.6414 121.105C20.0163 118.088 18.02 114.198 17.6522 109.435C17.4421 107.053 17.6653 104.751 18.3221 102.528C18.9787 100.305 19.885 98.2669 21.0408 96.4144C22.4592 94.4568 24.1404 92.7627 26.0843 91.334C26.1893 91.2279 26.4915 90.9904 26.9905 90.6197C27.4896 90.249 27.9755 89.9054 28.4484 89.5878C28.9213 89.2702 29.6304 88.7673 30.5761 88.079L27.6604 73.9479C25.0861 76.1179 22.5381 78.5123 20.0164 81.1322C17.4946 83.752 15.2092 86.5181 13.1603 89.4285C11.1115 92.3399 9.46968 95.4226 8.23502 98.6776C7.00047 101.933 6.38319 105.359 6.38319 108.959C6.38319 112.293 7.07923 115.429 8.47151 118.366C9.86369 121.303 11.7156 123.857 14.0272 126.026C16.3388 128.196 19.005 129.903 22.0258 131.148C25.0467 132.391 28.1069 133.013 31.2066 133.013C31.312 133.013 31.7973 132.96 32.6645 132.854C33.5317 132.749 34.4506 132.616 35.4222 132.457C36.3948 132.299 37.2879 132.126 38.1024 131.941C38.9159 131.756 39.3236 131.557 39.3236 131.346L38.8502 129.123C36.8016 118.697 34.8574 108.72 33.0196 99.1936ZM35.7773 98.876L42.2394 130.393C45.9697 128.964 48.4907 126.516 49.8045 123.05C51.1182 119.583 51.4195 116.064 50.7104 112.491C50.0014 108.919 48.3336 105.756 45.7062 103.004C43.0798 100.252 39.7701 98.876 35.7773 98.876ZM27.5028 56.4034C29.1311 55.5559 30.6417 54.2865 32.034 52.5924C33.4263 50.8993 34.7132 49.0859 35.8956 47.1543C37.077 45.2228 38.1024 43.2511 38.9686 41.2394C39.8357 39.2287 40.5319 37.4033 41.057 35.7623C41.6348 34.016 42.0286 32.0574 42.2394 29.8874C42.4493 27.7174 42.1081 25.892 41.2151 24.4093C40.5846 23.0868 39.7572 22.3194 38.7329 22.107C37.7076 21.8956 36.6832 21.9748 35.6589 22.3455C34.6346 22.7161 33.663 23.3112 32.7431 24.1318C31.8242 24.9523 31.1539 25.6796 30.7342 26.3148C29.5776 28.3786 28.5663 30.6809 27.6998 33.2216C26.8329 35.7623 26.2418 38.3951 25.9267 41.1212C25.6114 43.8462 25.5721 46.4661 25.8085 48.9807C26.0448 51.4944 26.6096 53.9689 27.5028 56.4034ZM25.1387 58.864C24.2455 55.3715 23.4575 51.9442 22.7745 48.583C22.0915 45.2228 21.7501 41.7694 21.7501 38.2228C21.7501 35.63 21.9339 32.7848 22.3017 29.689C22.6694 26.5933 23.3392 23.5757 24.3112 20.6383C25.2831 17.7009 26.6227 15.068 28.3302 12.7397C30.0381 10.4104 32.3095 8.71725 35.1468 7.65829C35.4093 7.5531 35.6718 7.5 35.9344 7.5C36.3023 7.5 36.7359 7.71139 37.2352 8.13517C37.7344 8.55796 38.2595 9.18011 38.8114 10.0006C39.3624 10.8211 39.8487 11.6677 40.2693 12.5413C40.689 13.4139 41.0043 14.01 41.2151 14.3276C42.6332 17.0266 43.6705 19.8979 44.3278 22.9406C44.9842 25.9842 45.3651 29.0138 45.4705 32.0304C45.6803 36.5828 45.4307 41.0811 44.7216 45.5273C44.0126 49.9725 42.5805 54.3126 40.4265 58.5464C39.6915 59.8168 38.9427 61.1001 38.1809 62.3965C37.4192 63.6939 36.5132 64.9502 35.462 66.1675C35.2522 66.3799 34.8713 66.7636 34.3193 67.3186C33.7674 67.8747 33.2025 68.4437 32.6247 69.0258C32.0469 69.6079 31.5348 70.1509 31.0883 70.6528C30.6417 71.1557 30.419 71.4603 30.419 71.5665L33.6491 87.4438C33.6699 87.548 35.2651 87.4438 35.2651 87.4438C38.348 87.4829 41.6119 87.9859 44.4462 89.1109C47.178 90.3813 49.529 92.1275 51.4991 94.3506C53.4691 96.5737 55.0444 99.0744 56.2268 101.853C57.4093 104.632 58 107.45 58 110.308C58 113.165 57.5793 116.077 56.739 119.04C54.5849 124.651 51.144 128.805 46.4162 131.504C45.8902 131.822 45.1413 132.18 44.1697 132.576C43.1981 132.973 42.8172 133.595 43.027 134.442C44.2881 140.208 45.1413 144.176 45.5888 146.35C46.0354 148.524 46.3635 151.329 46.5734 154.765C46.7832 158.051 46.2183 161.007 44.8788 163.652C43.5392 166.307 41.7402 168.461 39.4807 170.124C37.2222 171.797 35.1597 172.769 33.295 173.069C31.4294 173.36 30.1554 173.5 29.4732 173.5C27.1087 173.5 24.7972 173.049 22.5381 172.148C19.7536 171.096 17.4158 169.483 15.5245 167.309C13.6332 165.135 12.6875 162.49 12.6875 159.374C12.6875 157.41 13.2523 155.397 14.3818 153.333C15.5114 151.269 16.9955 149.786 18.8342 148.895C20.8832 147.833 22.7351 147.542 24.39 148.013C26.0448 148.494 27.4108 149.395 28.4878 150.718C29.5647 152.04 30.3136 153.643 30.7342 155.517C31.1539 157.4 31.128 159.153 30.6547 160.797C30.1823 162.44 29.2236 163.832 27.7786 164.964C26.3338 166.106 24.3243 166.617 21.7501 166.517C22.8007 168.421 24.2718 169.623 26.1631 170.124C28.0544 170.635 29.9983 170.665 31.9942 170.244C33.9912 169.823 35.8688 169.042 37.629 167.9C39.3892 166.768 40.7686 165.535 41.766 164.213C42.3965 163.261 42.8699 162.019 43.1852 160.486C43.5004 158.943 43.6844 157.35 43.7361 155.677C43.7888 154.014 43.7361 152.712 43.579 151.79C43.4209 150.858 43.1583 149.415 42.7904 147.462C41.2151 141.06 40.2166 137.033 39.796 135.39C39.5861 134.866 39.0213 134.693 38.1024 134.879C37.1825 135.064 36.4078 135.236 35.7773 135.39C31.2593 135.981 27.4765 135.71 24.4294 134.601C19.7011 133.331 15.5376 131.068 11.9389 127.813C8.34014 124.558 5.45067 120.615 3.27036 115.984C1.09015 111.353 0 107.834 0 105.425C0 103.018 0 101.496 0 100.861C0 96.5737 0.73552 92.5513 2.20656 88.7933C4.99092 82.9185 8.28763 77.5205 12.0965 72.5984C15.9054 67.6763 20.2528 63.0978 25.1387 58.864Z" fill="#1C1A1A"/>
<path d="M374.097 97.0145C368.453 95.3054 364 90.6609 364 86.4836C364 74.6601 389.813 69.9812 400.473 79.8725C412 90.5687 393.188 102.795 374.097 97.0145H374.097ZM391.315 94.0442C394.455 89.3287 391.453 79.986 386.013 77.5476C378.025 73.9667 373.129 80.0689 376.456 89.4586C378.757 95.9532 388.119 98.8425 391.315 94.0442Z" fill="black"/>
<path d="M374.097 23.0145C368.453 21.3054 364 16.6609 364 12.4836C364 0.660094 389.813 -4.01879 400.473 5.87248C412 16.5687 393.188 28.7953 374.097 23.0145H374.097ZM391.315 20.0442C394.455 15.3287 391.453 5.98596 386.013 3.54758C378.025 -0.0332575 373.129 6.06887 376.456 15.4586C378.757 21.9532 388.119 24.8425 391.315 20.0442Z" fill="#1C1A1A"/>
<line x1="354" y1="24" x2="413" y2="24" stroke="black"/>
</svg>
