<svg width="736" height="167" viewBox="0 0 736 167" fill="none" xmlns="http://www.w3.org/2000/svg">
<line y1="29" x2="736" y2="29" stroke="#1C1A1A"/>
<line y1="54" x2="736" y2="54" stroke="#1C1A1A"/>
<line y1="79" x2="736" y2="79" stroke="#1C1A1A"/>
<line y1="104" x2="736" y2="104" stroke="#1C1A1A"/>
<line y1="129" x2="736" y2="129" stroke="#1C1A1A"/>
<path d="M33.0196 92.1936C30.4448 93.0402 28.317 94.4688 26.636 96.4805C24.9547 98.4912 23.9303 100.688 23.5625 103.07C23.1947 105.451 23.4969 107.806 24.4688 110.135C25.4407 112.464 27.2664 114.343 29.9456 115.772C30.5761 115.772 30.9699 116.037 31.128 116.566C31.2852 117.095 31.0485 117.359 30.419 117.359C27.8443 116.83 25.5852 115.745 23.6414 114.105C20.0163 111.088 18.02 107.198 17.6522 102.435C17.4421 100.053 17.6653 97.7509 18.3221 95.5277C18.9787 93.3046 19.885 91.2669 21.0408 89.4144C22.4592 87.4568 24.1404 85.7627 26.0843 84.334C26.1893 84.2279 26.4915 83.9904 26.9905 83.6197C27.4896 83.249 27.9755 82.9054 28.4484 82.5878C28.9213 82.2702 29.6304 81.7673 30.5761 81.079L27.6604 66.9479C25.0861 69.1179 22.5381 71.5123 20.0164 74.1322C17.4946 76.752 15.2092 79.5181 13.1603 82.4285C11.1115 85.3399 9.46968 88.4226 8.23502 91.6776C7.00047 94.9326 6.38319 98.359 6.38319 101.959C6.38319 105.293 7.07923 108.429 8.47151 111.366C9.86369 114.303 11.7156 116.857 14.0272 119.026C16.3388 121.196 19.005 122.903 22.0258 124.148C25.0467 125.391 28.1069 126.013 31.2066 126.013C31.312 126.013 31.7973 125.96 32.6645 125.854C33.5317 125.749 34.4506 125.616 35.4222 125.457C36.3948 125.299 37.2879 125.126 38.1024 124.941C38.9159 124.756 39.3236 124.557 39.3236 124.346L38.8502 122.123C36.8016 111.697 34.8574 101.72 33.0196 92.1936ZM35.7773 91.876L42.2394 123.393C45.9697 121.964 48.4907 119.516 49.8045 116.05C51.1182 112.583 51.4195 109.064 50.7104 105.491C50.0014 101.919 48.3336 98.7557 45.7062 96.0036C43.0798 93.2515 39.7701 91.876 35.7773 91.876ZM27.5028 49.4034C29.1311 48.5559 30.6417 47.2865 32.034 45.5924C33.4263 43.8993 34.7132 42.0859 35.8956 40.1543C37.077 38.2228 38.1024 36.2511 38.9686 34.2394C39.8357 32.2287 40.5319 30.4033 41.057 28.7623C41.6348 27.016 42.0286 25.0574 42.2394 22.8874C42.4493 20.7174 42.1081 18.892 41.2151 17.4093C40.5846 16.0868 39.7572 15.3194 38.7329 15.107C37.7076 14.8956 36.6832 14.9748 35.6589 15.3455C34.6346 15.7161 33.663 16.3112 32.7431 17.1318C31.8242 17.9523 31.1539 18.6796 30.7342 19.3148C29.5776 21.3786 28.5663 23.6809 27.6998 26.2216C26.8329 28.7623 26.2418 31.3951 25.9267 34.1212C25.6114 36.8462 25.5721 39.4661 25.8085 41.9807C26.0448 44.4944 26.6096 46.9689 27.5028 49.4034ZM25.1387 51.864C24.2455 48.3715 23.4575 44.9442 22.7745 41.583C22.0915 38.2228 21.7501 34.7694 21.7501 31.2228C21.7501 28.63 21.9339 25.7848 22.3017 22.689C22.6694 19.5933 23.3392 16.5757 24.3112 13.6383C25.2831 10.7009 26.6227 8.068 28.3302 5.73969C30.0381 3.41038 32.3095 1.71725 35.1468 0.658293C35.4093 0.553098 35.6718 0.5 35.9344 0.5C36.3023 0.5 36.7359 0.711391 37.2352 1.13517C37.7344 1.55796 38.2595 2.18011 38.8114 3.00062C39.3624 3.82114 39.8487 4.66771 40.2693 5.54132C40.689 6.41394 41.0043 7.01004 41.2151 7.32763C42.6332 10.0266 43.6705 12.8979 44.3278 15.9406C44.9842 18.9842 45.3651 22.0138 45.4705 25.0304C45.6803 29.5828 45.4307 34.0811 44.7216 38.5273C44.0126 42.9725 42.5805 47.3126 40.4265 51.5464C39.6915 52.8168 38.9427 54.1001 38.1809 55.3965C37.4192 56.6939 36.5132 57.9502 35.462 59.1675C35.2522 59.3799 34.8713 59.7636 34.3193 60.3186C33.7674 60.8747 33.2025 61.4437 32.6247 62.0258C32.0469 62.6079 31.5348 63.1509 31.0883 63.6528C30.6417 64.1557 30.419 64.4603 30.419 64.5665L33.6491 80.4438C33.6699 80.548 35.2651 80.4438 35.2651 80.4438C38.348 80.4829 41.6119 80.9859 44.4462 82.1109C47.178 83.3813 49.529 85.1275 51.4991 87.3506C53.4691 89.5737 55.0444 92.0744 56.2268 94.8525C57.4093 97.6316 58 100.45 58 103.308C58 106.165 57.5793 109.077 56.739 112.04C54.5849 117.651 51.144 121.805 46.4162 124.504C45.8902 124.822 45.1413 125.18 44.1697 125.576C43.1981 125.973 42.8172 126.595 43.027 127.442C44.2881 133.208 45.1413 137.176 45.5888 139.35C46.0354 141.524 46.3635 144.329 46.5734 147.765C46.7832 151.051 46.2183 154.007 44.8788 156.652C43.5392 159.307 41.7402 161.461 39.4807 163.124C37.2222 164.797 35.1597 165.769 33.295 166.069C31.4294 166.36 30.1554 166.5 29.4732 166.5C27.1087 166.5 24.7972 166.049 22.5381 165.148C19.7536 164.096 17.4158 162.483 15.5245 160.309C13.6332 158.135 12.6875 155.49 12.6875 152.374C12.6875 150.41 13.2523 148.397 14.3818 146.333C15.5114 144.269 16.9955 142.786 18.8342 141.895C20.8832 140.833 22.7351 140.542 24.39 141.013C26.0448 141.494 27.4108 142.395 28.4878 143.718C29.5647 145.04 30.3136 146.643 30.7342 148.517C31.1539 150.4 31.128 152.153 30.6547 153.797C30.1823 155.44 29.2236 156.832 27.7786 157.964C26.3338 159.106 24.3243 159.617 21.7501 159.517C22.8007 161.421 24.2718 162.623 26.1631 163.124C28.0544 163.635 29.9983 163.665 31.9942 163.244C33.9912 162.823 35.8688 162.042 37.629 160.9C39.3892 159.768 40.7686 158.535 41.766 157.213C42.3965 156.261 42.8699 155.019 43.1852 153.486C43.5004 151.943 43.6844 150.35 43.7361 148.677C43.7888 147.014 43.7361 145.712 43.579 144.79C43.4209 143.858 43.1583 142.415 42.7904 140.462C41.2151 134.06 40.2166 130.033 39.796 128.39C39.5861 127.866 39.0213 127.693 38.1024 127.879C37.1825 128.064 36.4078 128.236 35.7773 128.39C31.2593 128.981 27.4765 128.71 24.4294 127.601C19.7011 126.331 15.5376 124.068 11.9389 120.813C8.34014 117.558 5.45067 113.615 3.27036 108.984C1.09015 104.353 0 100.834 0 98.4251C0 96.0177 0 94.4958 0 93.8607C0 89.5737 0.73552 85.5513 2.20656 81.7933C4.99092 75.9185 8.28763 70.5205 12.0965 65.5984C15.9054 60.6763 20.2528 56.0978 25.1387 51.864Z" fill="#1C1A1A"/>
<path d="M374.097 139.014C368.453 137.305 364 132.661 364 128.484C364 116.66 389.813 111.981 400.473 121.872C412 132.569 393.188 144.795 374.097 139.014H374.097ZM391.315 136.044C394.455 131.329 391.453 121.986 386.013 119.548C378.025 115.967 373.129 122.069 376.456 131.459C378.757 137.953 388.119 140.843 391.315 136.044Z" fill="black"/>
<path d="M438.097 139.014C432.453 137.305 428 132.661 428 128.484C428 116.66 453.813 111.981 464.473 121.872C476 132.569 457.188 144.795 438.097 139.014H438.097ZM455.315 136.044C458.455 131.329 455.453 121.986 450.013 119.548C442.025 115.967 437.129 122.069 440.456 131.459C442.757 137.953 452.119 140.843 455.315 136.044Z" fill="black"/>
</svg>
