<svg width="838" height="189" viewBox="0 0 838 189" fill="none" xmlns="http://www.w3.org/2000/svg">
<line x1="1" y1="51" x2="838" y2="51" stroke="#1C1A1A"/>
<line x1="1" y1="76" x2="838" y2="76" stroke="#1C1A1A"/>
<line x1="1" y1="101" x2="838" y2="101" stroke="#1C1A1A"/>
<line x1="1" y1="126" x2="838" y2="126" stroke="#1C1A1A"/>
<line x1="1" y1="151" x2="838" y2="151" stroke="#1C1A1A"/>
<path d="M375.097 112.014C369.453 110.305 365 105.661 365 101.484C365 89.6601 390.813 84.9812 401.473 94.8725C413 105.569 394.188 117.795 375.097 112.014H375.097ZM392.315 109.044C395.455 104.329 392.453 94.986 387.013 92.5476C379.025 88.9667 374.129 95.0689 377.456 104.459C379.757 110.953 389.119 113.843 392.315 109.044Z" fill="black"/>
<path d="M27.1226 124.74C24.7962 126.693 12.4703 134.391 4.9764 135.5C7.10156 134.391 7.77263 133.725 13.5888 130.065C19.306 126.467 26.3397 119.194 32.2677 112.317C37.0101 106.815 39.9108 98.119 40.7683 94.4586C42.2894 90.8203 42.2223 82.6638 41.9986 79.0403C41.9613 75.5278 40.4104 67.105 34.5047 61.5145C27.1226 54.5264 19.6287 58.4087 18.2865 58.8524C16.9443 59.2961 12.3585 62.5128 11.0163 65.3968C9.94251 67.704 10.5689 68.4287 11.0163 68.5026C15.273 66.617 19.3501 67.7001 21.8721 69.5009C24.6684 71.4976 27.0172 74.4925 26.7935 79.0403C26.6146 82.6786 24.824 85.3629 23.4818 86.694C20.6855 89.7998 16.1986 90.1326 13.7007 90.1326C7.66078 89.7998 3.86507 85.4743 3.07496 84.1428C2.74586 83.5881 -0.391563 78.5966 1.73276 69.9446C3.48062 62.826 10.1588 57.2625 13.477 55.4138C24.1027 49.9785 31.5966 51.2295 36.4062 53.0844C42.446 55.4138 49.9901 62.6237 51.8414 68.9463C53.6927 75.2689 54.6376 80.2605 53.5191 86.3612C52.4006 92.462 50.8348 96.677 45.1304 105.884C39.4261 115.09 30.0307 122.3 27.1226 124.74Z" fill="black"/>
<path d="M4.9764 135.5L4.74504 135.057C4.52868 135.17 4.42547 135.422 4.50085 135.654C4.57623 135.887 4.80818 136.03 5.04961 135.995L4.9764 135.5ZM27.1226 124.74L26.8012 124.357L27.1226 124.74ZM45.1304 105.884L45.5555 106.147L45.1304 105.884ZM51.8414 68.9463L52.3213 68.8058L51.8414 68.9463ZM36.4062 53.0844L36.5861 52.6179V52.6179L36.4062 53.0844ZM13.477 55.4138L13.2493 54.9686L13.2414 54.9727L13.2336 54.977L13.477 55.4138ZM1.73276 69.9446L2.21834 70.0639L1.73276 69.9446ZM3.07496 84.1428L2.64496 84.3979H2.64496L3.07496 84.1428ZM13.7007 90.1326L13.6732 90.6318L13.6869 90.6326H13.7007V90.1326ZM23.4818 86.694L23.1297 86.339L23.1196 86.3489L23.1102 86.3594L23.4818 86.694ZM26.7935 79.0403L26.2941 79.0157L26.7935 79.0403ZM21.8721 69.5009L22.1627 69.094L21.8721 69.5009ZM11.0163 68.5026L10.9347 68.996L11.0822 69.0203L11.2188 68.9598L11.0163 68.5026ZM11.0163 65.3968L11.4696 65.6078L11.0163 65.3968ZM18.2865 58.8524L18.4434 59.3271L18.2865 58.8524ZM34.5047 61.5145L34.161 61.8776L34.5047 61.5145ZM41.9986 79.0403L41.4986 79.0456L41.4988 79.0584L41.4996 79.0711L41.9986 79.0403ZM40.7683 94.4586L40.307 94.2657L40.2909 94.3041L40.2814 94.3445L40.7683 94.4586ZM32.2677 112.317L31.889 111.991L32.2677 112.317ZM13.5888 130.065L13.8551 130.488L13.5888 130.065ZM5.04961 135.995C8.8889 135.426 13.9096 133.187 18.2233 130.877C22.5423 128.565 26.2412 126.133 27.444 125.124L26.8012 124.357C25.6776 125.3 22.0503 127.694 17.7513 129.996C13.447 132.3 8.55782 134.464 4.90319 135.005L5.04961 135.995ZM27.444 125.124C30.3278 122.704 39.7992 115.437 45.5555 106.147L44.7054 105.62C39.053 114.743 29.7337 121.897 26.8012 124.357L27.444 125.124ZM45.5555 106.147C51.2815 96.9054 52.8779 92.6314 54.0109 86.4514L53.0273 86.271C51.9234 92.2925 50.388 96.4487 44.7054 105.62L45.5555 106.147ZM54.0109 86.4514C55.1504 80.2362 54.1803 75.155 52.3213 68.8058L51.3615 69.0868C53.205 75.3829 54.1249 80.2847 53.0273 86.271L54.0109 86.4514ZM52.3213 68.8058C51.3632 65.5339 48.9526 62.0806 46.0488 59.1651C43.1422 56.2467 39.689 53.8146 36.5861 52.6179L36.2262 53.5509C39.1631 54.6835 42.502 57.0211 45.3402 59.8707C48.1812 62.7231 50.4683 66.0362 51.3615 69.0868L52.3213 68.8058ZM36.5861 52.6179C31.6555 50.7163 24.0124 49.4631 13.2493 54.9686L13.7047 55.8589C24.1929 50.494 31.5377 51.7427 36.2262 53.5509L36.5861 52.6179ZM13.2336 54.977C11.5252 55.9288 8.98435 57.8161 6.64743 60.3651C4.31098 62.9136 2.14795 66.1568 1.24718 69.8254L2.21834 70.0639C3.06543 66.6138 5.11541 63.5159 7.38454 61.0408C9.65322 58.5663 12.1106 56.7474 13.7203 55.8505L13.2336 54.977ZM1.24718 69.8254C-0.921034 78.6562 2.2821 83.7864 2.64496 84.3979L3.50495 83.8876C3.20962 83.3899 0.137908 78.5371 2.21834 70.0639L1.24718 69.8254ZM2.64496 84.3979C3.07914 85.1296 4.27552 86.5937 6.12826 87.9189C7.98869 89.2496 10.5371 90.459 13.6732 90.6318L13.7282 89.6333C10.8244 89.4734 8.45496 88.3536 6.71003 87.1055C4.95742 85.8519 3.86089 84.4874 3.50495 83.8876L2.64496 84.3979ZM13.7007 90.6326C16.2027 90.6326 20.8984 90.3107 23.8534 87.0285L23.1102 86.3594C20.4727 89.2889 16.1946 89.6326 13.7007 89.6326V90.6326ZM23.8339 87.049C25.2438 85.6507 27.1065 82.8543 27.2929 79.0649L26.2941 79.0157C26.1226 82.5028 24.4041 85.0751 23.1297 86.339L23.8339 87.049ZM27.2929 79.0649C27.5276 74.2942 25.0481 71.1543 22.1627 69.094L21.5816 69.9079C24.2887 71.8408 26.5069 74.6907 26.2941 79.0157L27.2929 79.0649ZM22.1627 69.094C19.5206 67.2075 15.2573 66.0771 10.8138 68.0455L11.2188 68.9598C15.2888 67.1568 19.1796 68.1928 21.5816 69.9079L22.1627 69.094ZM11.0978 68.0093C11.097 68.0092 11.0748 68.0052 11.0451 67.9727C11.0162 67.9412 10.9654 67.8659 10.9393 67.7065C10.8847 67.3729 10.9497 66.7249 11.4696 65.6078L10.563 65.1858C10.0091 66.376 9.85035 67.2439 9.95239 67.8679C10.0595 68.5228 10.466 68.9185 10.9347 68.996L11.0978 68.0093ZM11.4696 65.6078C12.0918 64.2709 13.5011 62.8042 14.9692 61.5955C15.6953 60.9977 16.4202 60.4757 17.0424 60.0778C17.6759 59.6727 18.1704 59.4173 18.4434 59.3271L18.1296 58.3776C17.7315 58.5092 17.1494 58.8224 16.5037 59.2353C15.8466 59.6555 15.0895 60.2011 14.3336 60.8235C12.8377 62.0551 11.283 63.6387 10.563 65.1858L11.4696 65.6078ZM18.4434 59.3271C19.1825 59.0828 21.2815 58.0438 24.1563 57.8958C26.9978 57.7496 30.579 58.4869 34.161 61.8776L34.8484 61.1514C31.0483 57.554 27.1915 56.7383 24.1049 56.8972C21.0517 57.0543 18.7327 58.1783 18.1296 58.3776L18.4434 59.3271ZM34.161 61.8776C39.9317 67.3404 41.4622 75.6084 41.4986 79.0456L42.4986 79.035C42.4605 75.4471 40.889 66.8696 34.8484 61.1514L34.161 61.8776ZM41.4996 79.0711C41.6105 80.8674 41.6827 83.7937 41.5384 86.7193C41.393 89.6656 41.0305 92.5352 40.307 94.2657L41.2296 94.6514C42.0272 92.7437 42.3917 89.7159 42.5372 86.7685C42.6836 83.8004 42.6105 80.8367 42.4977 79.0095L41.4996 79.0711ZM40.2814 94.3445C39.4308 97.9758 36.5535 106.579 31.889 111.991L32.6464 112.644C37.4668 107.051 40.3908 98.2622 41.2551 94.5726L40.2814 94.3445ZM31.889 111.991C25.961 118.868 18.9699 126.087 13.3225 129.642L13.8551 130.488C19.6422 126.846 26.7183 119.521 32.6464 112.644L31.889 111.991ZM13.3225 129.642C10.4095 131.475 8.78348 132.559 7.62388 133.321C6.46733 134.081 5.78498 134.514 4.74504 135.057L5.20776 135.943C6.29298 135.377 7.00874 134.922 8.17307 134.157C9.33434 133.394 10.9519 132.315 13.8551 130.488L13.3225 129.642Z" fill="black"/>
<ellipse cx="66.4852" cy="63.6558" rx="6.51452" ry="6.49758" fill="black"/>
<ellipse cx="66.4852" cy="88.147" rx="6.51452" ry="6.49758" fill="black"/>
<path d="M375.097 45.0145C369.453 43.3054 365 38.6609 365 34.4836C365 22.6601 390.813 17.9812 401.473 27.8725C413 38.5687 394.188 50.7953 375.097 45.0145H375.097ZM392.315 42.0442C395.455 37.3287 392.453 27.986 387.013 25.5476C379.025 21.9667 374.129 28.0689 377.456 37.4586C379.757 43.9532 389.119 46.8425 392.315 42.0442Z" fill="#1C1A1A"/>
<line x1="355" y1="34" x2="414" y2="34" stroke="black"/>
<path d="M333.523 44.0005V27.1585L340.368 25.1821V41.9382L333.523 44.0005ZM347 39.926L342.294 41.3367V24.5806L347 23.2058V16.2456L342.294 17.6204V0.5H340.368V18.1396L333.523 20.1983V3.55046H331.706V20.832L327 22.2104V29.185L331.706 27.8101V44.5339L327 45.9052V52.8511L331.706 51.4762V68.5H333.523V50.8676L340.368 48.8984V65.4603H342.294V48.2754L347 46.897V39.926Z" fill="#1C1A1A"/>
</svg>
