<svg width="737" height="167" viewBox="0 0 737 167" fill="none" xmlns="http://www.w3.org/2000/svg">
<line x1="1" y1="29" x2="737" y2="29" stroke="#1C1A1A"/>
<line x1="1" y1="54" x2="737" y2="54" stroke="#1C1A1A"/>
<line x1="1" y1="79" x2="737" y2="79" stroke="#1C1A1A"/>
<line x1="1" y1="104" x2="737" y2="104" stroke="#1C1A1A"/>
<line x1="1" y1="129" x2="737" y2="129" stroke="#1C1A1A"/>
<path d="M375.097 127.014C369.453 125.305 365 120.661 365 116.484C365 104.66 390.813 99.9812 401.473 109.872C413 120.569 394.188 132.795 375.097 127.014H375.097ZM392.315 124.044C395.455 119.329 392.453 109.986 387.013 107.548C379.025 103.967 374.129 110.069 377.456 119.459C379.757 125.953 389.119 128.843 392.315 124.044Z" fill="black"/>
<path d="M375.097 40.0145C369.453 38.3054 365 33.6609 365 29.4836C365 17.6601 390.813 12.9812 401.473 22.8725C413 33.5687 394.188 45.7953 375.097 40.0145H375.097ZM392.315 37.0442C395.455 32.3287 392.453 22.986 387.013 20.5476C379.025 16.9667 374.129 23.0689 377.456 32.4586C379.757 38.9532 389.119 41.8425 392.315 37.0442Z" fill="black"/>
<path d="M27.1226 102.74C24.7962 104.693 12.4703 112.391 4.9764 113.5C7.10156 112.391 7.77263 111.725 13.5888 108.065C19.306 104.467 26.3397 97.1944 32.2677 90.3171C37.0101 84.8154 39.9108 76.119 40.7683 72.4586C42.2894 68.8203 42.2223 60.6638 41.9986 57.0403C41.9613 53.5278 40.4104 45.105 34.5047 39.5145C27.1226 32.5264 19.6287 36.4087 18.2865 36.8524C16.9443 37.2961 12.3585 40.5128 11.0163 43.3968C9.94251 45.704 10.5689 46.4287 11.0163 46.5026C15.273 44.617 19.3501 45.7001 21.8721 47.5009C24.6684 49.4976 27.0172 52.4925 26.7935 57.0403C26.6146 60.6786 24.824 63.3629 23.4818 64.694C20.6855 67.7998 16.1986 68.1326 13.7007 68.1326C7.66078 67.7998 3.86507 63.4743 3.07496 62.1428C2.74586 61.5881 -0.391563 56.5966 1.73276 47.9446C3.48062 40.826 10.1588 35.2625 13.477 33.4138C24.1027 27.9785 31.5966 29.2295 36.4062 31.0844C42.446 33.4138 49.9901 40.6237 51.8414 46.9463C53.6927 53.2689 54.6376 58.2605 53.5191 64.3612C52.4006 70.462 50.8348 74.677 45.1304 83.8836C39.4261 93.0902 30.0307 100.3 27.1226 102.74Z" fill="black"/>
<path d="M4.9764 113.5L4.74504 113.057C4.52868 113.17 4.42547 113.422 4.50085 113.654C4.57623 113.887 4.80818 114.03 5.04961 113.995L4.9764 113.5ZM27.1226 102.74L26.8012 102.357L27.1226 102.74ZM45.1304 83.8836L45.5555 84.147L45.1304 83.8836ZM51.8414 46.9463L52.3213 46.8058L51.8414 46.9463ZM36.4062 31.0844L36.5861 30.6179V30.6179L36.4062 31.0844ZM13.477 33.4138L13.2493 32.9686L13.2414 32.9727L13.2336 32.977L13.477 33.4138ZM1.73276 47.9446L2.21834 48.0639L1.73276 47.9446ZM3.07496 62.1428L2.64496 62.3979H2.64496L3.07496 62.1428ZM13.7007 68.1326L13.6732 68.6318L13.6869 68.6326H13.7007V68.1326ZM23.4818 64.694L23.1297 64.339L23.1196 64.3489L23.1102 64.3594L23.4818 64.694ZM26.7935 57.0403L26.2941 57.0157L26.7935 57.0403ZM21.8721 47.5009L22.1627 47.094L21.8721 47.5009ZM11.0163 46.5026L10.9347 46.996L11.0822 47.0203L11.2188 46.9598L11.0163 46.5026ZM11.0163 43.3968L11.4696 43.6078L11.0163 43.3968ZM18.2865 36.8524L18.4434 37.3271L18.2865 36.8524ZM34.5047 39.5145L34.161 39.8776L34.5047 39.5145ZM41.9986 57.0403L41.4986 57.0456L41.4988 57.0584L41.4996 57.0711L41.9986 57.0403ZM40.7683 72.4586L40.307 72.2657L40.2909 72.3041L40.2814 72.3445L40.7683 72.4586ZM32.2677 90.3171L31.889 89.9907L32.2677 90.3171ZM13.5888 108.065L13.8551 108.488L13.5888 108.065ZM5.04961 113.995C8.8889 113.426 13.9096 111.187 18.2233 108.877C22.5423 106.565 26.2412 104.133 27.444 103.124L26.8012 102.357C25.6776 103.3 22.0503 105.694 17.7513 107.996C13.447 110.3 8.55782 112.464 4.90319 113.005L5.04961 113.995ZM27.444 103.124C30.3278 100.704 39.7992 93.4374 45.5555 84.147L44.7054 83.6203C39.053 92.743 29.7337 99.8968 26.8012 102.357L27.444 103.124ZM45.5555 84.147C51.2815 74.9054 52.8779 70.6314 54.0109 64.4514L53.0273 64.271C51.9234 70.2925 50.388 74.4487 44.7054 83.6203L45.5555 84.147ZM54.0109 64.4514C55.1504 58.2362 54.1803 53.155 52.3213 46.8058L51.3615 47.0868C53.205 53.3829 54.1249 58.2847 53.0273 64.271L54.0109 64.4514ZM52.3213 46.8058C51.3632 43.5339 48.9526 40.0806 46.0488 37.1651C43.1422 34.2467 39.689 31.8146 36.5861 30.6179L36.2262 31.5509C39.1631 32.6835 42.502 35.0211 45.3402 37.8707C48.1812 40.7231 50.4683 44.0362 51.3615 47.0868L52.3213 46.8058ZM36.5861 30.6179C31.6555 28.7163 24.0124 27.4631 13.2493 32.9686L13.7047 33.8589C24.1929 28.494 31.5377 29.7427 36.2262 31.5509L36.5861 30.6179ZM13.2336 32.977C11.5252 33.9288 8.98435 35.8161 6.64743 38.3651C4.31098 40.9136 2.14795 44.1568 1.24718 47.8254L2.21834 48.0639C3.06543 44.6138 5.11541 41.5159 7.38454 39.0408C9.65322 36.5663 12.1106 34.7474 13.7203 33.8505L13.2336 32.977ZM1.24718 47.8254C-0.921034 56.6562 2.2821 61.7864 2.64496 62.3979L3.50495 61.8876C3.20962 61.3899 0.137908 56.5371 2.21834 48.0639L1.24718 47.8254ZM2.64496 62.3979C3.07914 63.1296 4.27552 64.5937 6.12826 65.9189C7.98869 67.2496 10.5371 68.459 13.6732 68.6318L13.7282 67.6333C10.8244 67.4734 8.45496 66.3536 6.71003 65.1055C4.95742 63.8519 3.86089 62.4874 3.50495 61.8876L2.64496 62.3979ZM13.7007 68.6326C16.2027 68.6326 20.8984 68.3107 23.8534 65.0285L23.1102 64.3594C20.4727 67.2889 16.1946 67.6326 13.7007 67.6326V68.6326ZM23.8339 65.049C25.2438 63.6507 27.1065 60.8543 27.2929 57.0649L26.2941 57.0157C26.1226 60.5028 24.4041 63.0751 23.1297 64.339L23.8339 65.049ZM27.2929 57.0649C27.5276 52.2942 25.0481 49.1543 22.1627 47.094L21.5816 47.9079C24.2887 49.8408 26.5069 52.6907 26.2941 57.0157L27.2929 57.0649ZM22.1627 47.094C19.5206 45.2075 15.2573 44.0771 10.8138 46.0455L11.2188 46.9598C15.2888 45.1568 19.1796 46.1928 21.5816 47.9079L22.1627 47.094ZM11.0978 46.0093C11.097 46.0092 11.0748 46.0052 11.0451 45.9727C11.0162 45.9412 10.9654 45.8659 10.9393 45.7065C10.8847 45.3729 10.9497 44.7249 11.4696 43.6078L10.563 43.1858C10.0091 44.376 9.85035 45.2439 9.95239 45.8679C10.0595 46.5228 10.466 46.9185 10.9347 46.996L11.0978 46.0093ZM11.4696 43.6078C12.0918 42.2709 13.5011 40.8042 14.9692 39.5955C15.6953 38.9977 16.4202 38.4757 17.0424 38.0778C17.6759 37.6727 18.1704 37.4173 18.4434 37.3271L18.1296 36.3776C17.7315 36.5092 17.1494 36.8224 16.5037 37.2353C15.8466 37.6555 15.0895 38.2011 14.3336 38.8235C12.8377 40.0551 11.283 41.6387 10.563 43.1858L11.4696 43.6078ZM18.4434 37.3271C19.1825 37.0828 21.2815 36.0438 24.1563 35.8958C26.9978 35.7496 30.579 36.4869 34.161 39.8776L34.8484 39.1514C31.0483 35.554 27.1915 34.7383 24.1049 34.8972C21.0517 35.0543 18.7327 36.1783 18.1296 36.3776L18.4434 37.3271ZM34.161 39.8776C39.9317 45.3404 41.4622 53.6084 41.4986 57.0456L42.4986 57.035C42.4605 53.4471 40.889 44.8696 34.8484 39.1514L34.161 39.8776ZM41.4996 57.0711C41.6105 58.8674 41.6827 61.7937 41.5384 64.7193C41.393 67.6656 41.0305 70.5352 40.307 72.2657L41.2296 72.6514C42.0272 70.7437 42.3917 67.7159 42.5372 64.7685C42.6836 61.8004 42.6105 58.8367 42.4977 57.0095L41.4996 57.0711ZM40.2814 72.3445C39.4308 75.9758 36.5535 84.5794 31.889 89.9907L32.6464 90.6436C37.4668 85.0514 40.3908 76.2622 41.2551 72.5726L40.2814 72.3445ZM31.889 89.9907C25.961 96.8679 18.9699 104.087 13.3225 107.642L13.8551 108.488C19.6422 104.846 26.7183 97.5209 32.6464 90.6436L31.889 89.9907ZM13.3225 107.642C10.4095 109.475 8.78348 110.559 7.62388 111.321C6.46733 112.081 5.78498 112.514 4.74504 113.057L5.20776 113.943C6.29298 113.377 7.00874 112.922 8.17307 112.157C9.33434 111.394 10.9519 110.315 13.8551 108.488L13.3225 107.642Z" fill="black"/>
<ellipse cx="66.4852" cy="41.6558" rx="6.51452" ry="6.49758" fill="black"/>
<ellipse cx="66.4852" cy="66.147" rx="6.51452" ry="6.49758" fill="black"/>
</svg>
