<svg width="737" height="166" viewBox="0 0 737 166" fill="none" xmlns="http://www.w3.org/2000/svg">
<line x1="1" y1="28.5" x2="737" y2="28.5" stroke="#1C1A1A"/>
<line x1="1" y1="53.5" x2="737" y2="53.5" stroke="#1C1A1A"/>
<line x1="1" y1="78.5" x2="737" y2="78.5" stroke="#1C1A1A"/>
<line x1="1" y1="103.5" x2="737" y2="103.5" stroke="#1C1A1A"/>
<line x1="1" y1="128.5" x2="737" y2="128.5" stroke="#1C1A1A"/>
<path d="M375.097 51.5145C369.453 49.8054 365 45.1609 365 40.9836C365 29.1601 390.813 24.4812 401.473 34.3725C413 45.0687 394.188 57.2953 375.097 51.5145H375.097ZM392.315 48.5442C395.455 43.8287 392.453 34.486 387.013 32.0476C379.025 28.4667 374.129 34.5689 377.456 43.9586C379.757 50.4532 389.119 53.3425 392.315 48.5442Z" fill="black"/>
<path d="M439.097 51.5145C433.453 49.8054 429 45.1609 429 40.9836C429 29.1601 454.813 24.4812 465.473 34.3725C477 45.0687 458.188 57.2953 439.097 51.5145H439.097ZM456.315 48.5442C459.455 43.8287 456.453 34.486 451.013 32.0476C443.025 28.4667 438.129 34.5689 441.456 43.9586C443.757 50.4532 453.119 53.3425 456.315 48.5442Z" fill="black"/>
<path d="M27.1226 101.74C24.7962 103.693 12.4703 111.391 4.9764 112.5C7.10156 111.391 7.77263 110.725 13.5888 107.065C19.306 103.467 26.3397 96.1944 32.2677 89.3171C37.0101 83.8154 39.9108 75.119 40.7683 71.4586C42.2894 67.8203 42.2223 59.6638 41.9986 56.0403C41.9613 52.5278 40.4104 44.105 34.5047 38.5145C27.1226 31.5264 19.6287 35.4087 18.2865 35.8524C16.9443 36.2961 12.3585 39.5128 11.0163 42.3968C9.94251 44.704 10.5689 45.4287 11.0163 45.5026C15.273 43.617 19.3501 44.7001 21.8721 46.5009C24.6684 48.4976 27.0172 51.4925 26.7935 56.0403C26.6146 59.6786 24.824 62.3629 23.4818 63.694C20.6855 66.7998 16.1986 67.1326 13.7007 67.1326C7.66078 66.7998 3.86507 62.4743 3.07496 61.1428C2.74586 60.5881 -0.391563 55.5966 1.73276 46.9446C3.48062 39.826 10.1588 34.2625 13.477 32.4138C24.1027 26.9785 31.5966 28.2295 36.4062 30.0844C42.446 32.4138 49.9901 39.6237 51.8414 45.9463C53.6927 52.2689 54.6376 57.2605 53.5191 63.3612C52.4006 69.462 50.8348 73.677 45.1304 82.8836C39.4261 92.0902 30.0307 99.3002 27.1226 101.74Z" fill="black"/>
<path d="M4.9764 112.5L4.74504 112.057C4.52868 112.17 4.42547 112.422 4.50085 112.654C4.57623 112.887 4.80818 113.03 5.04961 112.995L4.9764 112.5ZM27.1226 101.74L26.8012 101.357L27.1226 101.74ZM45.1304 82.8836L45.5555 83.147L45.1304 82.8836ZM51.8414 45.9463L52.3213 45.8058L51.8414 45.9463ZM36.4062 30.0844L36.5861 29.6179V29.6179L36.4062 30.0844ZM13.477 32.4138L13.2493 31.9686L13.2414 31.9727L13.2336 31.977L13.477 32.4138ZM1.73276 46.9446L2.21834 47.0639L1.73276 46.9446ZM3.07496 61.1428L2.64496 61.3979H2.64496L3.07496 61.1428ZM13.7007 67.1326L13.6732 67.6318L13.6869 67.6326H13.7007V67.1326ZM23.4818 63.694L23.1297 63.339L23.1196 63.3489L23.1102 63.3594L23.4818 63.694ZM26.7935 56.0403L26.2941 56.0157L26.7935 56.0403ZM21.8721 46.5009L22.1627 46.094L21.8721 46.5009ZM11.0163 45.5026L10.9347 45.996L11.0822 46.0203L11.2188 45.9598L11.0163 45.5026ZM11.0163 42.3968L11.4696 42.6078L11.0163 42.3968ZM18.2865 35.8524L18.4434 36.3271L18.2865 35.8524ZM34.5047 38.5145L34.161 38.8776L34.5047 38.5145ZM41.9986 56.0403L41.4986 56.0456L41.4988 56.0584L41.4996 56.0711L41.9986 56.0403ZM40.7683 71.4586L40.307 71.2657L40.2909 71.3041L40.2814 71.3445L40.7683 71.4586ZM32.2677 89.3171L31.889 88.9907L32.2677 89.3171ZM13.5888 107.065L13.8551 107.488L13.5888 107.065ZM5.04961 112.995C8.8889 112.426 13.9096 110.187 18.2233 107.877C22.5423 105.565 26.2412 103.133 27.444 102.124L26.8012 101.357C25.6776 102.3 22.0503 104.694 17.7513 106.996C13.447 109.3 8.55782 111.464 4.90319 112.005L5.04961 112.995ZM27.444 102.124C30.3278 99.7036 39.7992 92.4374 45.5555 83.147L44.7054 82.6203C39.053 91.743 29.7337 98.8968 26.8012 101.357L27.444 102.124ZM45.5555 83.147C51.2815 73.9054 52.8779 69.6314 54.0109 63.4514L53.0273 63.271C51.9234 69.2925 50.388 73.4487 44.7054 82.6203L45.5555 83.147ZM54.0109 63.4514C55.1504 57.2362 54.1803 52.155 52.3213 45.8058L51.3615 46.0868C53.205 52.3829 54.1249 57.2847 53.0273 63.271L54.0109 63.4514ZM52.3213 45.8058C51.3632 42.5339 48.9526 39.0806 46.0488 36.1651C43.1422 33.2467 39.689 30.8146 36.5861 29.6179L36.2262 30.5509C39.1631 31.6835 42.502 34.0211 45.3402 36.8707C48.1812 39.7231 50.4683 43.0362 51.3615 46.0868L52.3213 45.8058ZM36.5861 29.6179C31.6555 27.7163 24.0124 26.4631 13.2493 31.9686L13.7047 32.8589C24.1929 27.494 31.5377 28.7427 36.2262 30.5509L36.5861 29.6179ZM13.2336 31.977C11.5252 32.9288 8.98435 34.8161 6.64743 37.3651C4.31098 39.9136 2.14795 43.1568 1.24718 46.8254L2.21834 47.0639C3.06543 43.6138 5.11541 40.5159 7.38454 38.0408C9.65322 35.5663 12.1106 33.7474 13.7203 32.8505L13.2336 31.977ZM1.24718 46.8254C-0.921034 55.6562 2.2821 60.7864 2.64496 61.3979L3.50495 60.8876C3.20962 60.3899 0.137908 55.5371 2.21834 47.0639L1.24718 46.8254ZM2.64496 61.3979C3.07914 62.1296 4.27552 63.5937 6.12826 64.9189C7.98869 66.2496 10.5371 67.459 13.6732 67.6318L13.7282 66.6333C10.8244 66.4734 8.45496 65.3536 6.71003 64.1055C4.95742 62.8519 3.86089 61.4874 3.50495 60.8876L2.64496 61.3979ZM13.7007 67.6326C16.2027 67.6326 20.8984 67.3107 23.8534 64.0285L23.1102 63.3594C20.4727 66.2889 16.1946 66.6326 13.7007 66.6326V67.6326ZM23.8339 64.049C25.2438 62.6507 27.1065 59.8543 27.2929 56.0649L26.2941 56.0157C26.1226 59.5028 24.4041 62.0751 23.1297 63.339L23.8339 64.049ZM27.2929 56.0649C27.5276 51.2942 25.0481 48.1543 22.1627 46.094L21.5816 46.9079C24.2887 48.8408 26.5069 51.6907 26.2941 56.0157L27.2929 56.0649ZM22.1627 46.094C19.5206 44.2075 15.2573 43.0771 10.8138 45.0455L11.2188 45.9598C15.2888 44.1568 19.1796 45.1928 21.5816 46.9079L22.1627 46.094ZM11.0978 45.0093C11.097 45.0092 11.0748 45.0052 11.0451 44.9727C11.0162 44.9412 10.9654 44.8659 10.9393 44.7065C10.8847 44.3729 10.9497 43.7249 11.4696 42.6078L10.563 42.1858C10.0091 43.376 9.85035 44.2439 9.95239 44.8679C10.0595 45.5228 10.466 45.9185 10.9347 45.996L11.0978 45.0093ZM11.4696 42.6078C12.0918 41.2709 13.5011 39.8042 14.9692 38.5955C15.6953 37.9977 16.4202 37.4757 17.0424 37.0778C17.6759 36.6727 18.1704 36.4173 18.4434 36.3271L18.1296 35.3776C17.7315 35.5092 17.1494 35.8224 16.5037 36.2353C15.8466 36.6555 15.0895 37.2011 14.3336 37.8235C12.8377 39.0551 11.283 40.6387 10.563 42.1858L11.4696 42.6078ZM18.4434 36.3271C19.1825 36.0828 21.2815 35.0438 24.1563 34.8958C26.9978 34.7496 30.579 35.4869 34.161 38.8776L34.8484 38.1514C31.0483 34.554 27.1915 33.7383 24.1049 33.8972C21.0517 34.0543 18.7327 35.1783 18.1296 35.3776L18.4434 36.3271ZM34.161 38.8776C39.9317 44.3404 41.4622 52.6084 41.4986 56.0456L42.4986 56.035C42.4605 52.4471 40.889 43.8696 34.8484 38.1514L34.161 38.8776ZM41.4996 56.0711C41.6105 57.8674 41.6827 60.7937 41.5384 63.7193C41.393 66.6656 41.0305 69.5352 40.307 71.2657L41.2296 71.6514C42.0272 69.7437 42.3917 66.7159 42.5372 63.7685C42.6836 60.8004 42.6105 57.8367 42.4977 56.0095L41.4996 56.0711ZM40.2814 71.3445C39.4308 74.9758 36.5535 83.5794 31.889 88.9907L32.6464 89.6436C37.4668 84.0514 40.3908 75.2622 41.2551 71.5726L40.2814 71.3445ZM31.889 88.9907C25.961 95.8679 18.9699 103.087 13.3225 106.642L13.8551 107.488C19.6422 103.846 26.7183 96.5209 32.6464 89.6436L31.889 88.9907ZM13.3225 106.642C10.4095 108.475 8.78348 109.559 7.62388 110.321C6.46733 111.081 5.78498 111.514 4.74504 112.057L5.20776 112.943C6.29298 112.377 7.00874 111.922 8.17307 111.157C9.33434 110.394 10.9519 109.315 13.8551 107.488L13.3225 106.642Z" fill="black"/>
<ellipse cx="66.4852" cy="40.6558" rx="6.51452" ry="6.49758" fill="black"/>
<ellipse cx="66.4852" cy="65.147" rx="6.51452" ry="6.49758" fill="black"/>
</svg>
