<svg width="737" height="170" viewBox="0 0 737 170" fill="none" xmlns="http://www.w3.org/2000/svg">
<line x1="1" y1="32.5" x2="737" y2="32.5" stroke="#1C1A1A"/>
<line x1="1" y1="57.5" x2="737" y2="57.5" stroke="#1C1A1A"/>
<line x1="1" y1="82.5" x2="737" y2="82.5" stroke="#1C1A1A"/>
<line x1="1" y1="107.5" x2="737" y2="107.5" stroke="#1C1A1A"/>
<line x1="1" y1="132.5" x2="737" y2="132.5" stroke="#1C1A1A"/>
<path d="M377.097 55.5145C371.453 53.8054 367 49.1609 367 44.9836C367 33.1601 392.813 28.4812 403.473 38.3725C415 49.0687 396.188 61.2953 377.097 55.5145H377.097ZM394.315 52.5442C397.455 47.8287 394.453 38.486 389.013 36.0476C381.025 32.4667 376.129 38.5689 379.456 47.9586C381.757 54.4532 391.119 57.3425 394.315 52.5442Z" fill="#1C1A1A"/>
<path d="M345.475 0V31.0906C345.475 31.0906 345.475 33.1864 345.475 37.3778C348.332 34.6927 351.537 33.3173 355.091 33.2518C357.313 33.2519 359.217 34.2015 360.804 36.1007C362.2 37.869 362.93 39.8337 362.994 41.9949C363.057 43.6977 362.645 45.6624 361.756 47.8891C361.439 48.806 360.74 49.7884 359.661 50.8363C358.836 51.6222 357.979 52.4408 357.091 53.2922C352.394 56.8287 347.697 60.398 343 64V0H345.475ZM353.187 39.539C352.426 38.6221 351.442 38.1637 350.236 38.1637C348.712 38.1637 347.475 39.0478 346.523 40.8161C345.824 42.1914 345.475 45.4332 345.475 50.5415V58.9899C345.539 59.2519 347.316 57.6473 350.807 54.1763C352.711 52.3426 353.949 50.1813 354.52 47.6927C354.774 46.7103 354.901 45.7279 354.901 44.7456C354.901 42.5844 354.33 40.8488 353.187 39.539Z" fill="#1C1A1A"/>
<path d="M27.1226 106.24C24.7962 108.193 12.4703 115.891 4.9764 117C7.10156 115.891 7.77263 115.225 13.5888 111.565C19.306 107.967 26.3397 100.694 32.2677 93.8171C37.0101 88.3154 39.9108 79.619 40.7683 75.9586C42.2894 72.3203 42.2223 64.1638 41.9986 60.5403C41.9613 57.0278 40.4104 48.605 34.5047 43.0145C27.1226 36.0264 19.6287 39.9087 18.2865 40.3524C16.9443 40.7961 12.3585 44.0128 11.0163 46.8968C9.94251 49.204 10.5689 49.9287 11.0163 50.0026C15.273 48.117 19.3501 49.2001 21.8721 51.0009C24.6684 52.9976 27.0172 55.9925 26.7935 60.5403C26.6146 64.1786 24.824 66.8629 23.4818 68.194C20.6855 71.2998 16.1986 71.6326 13.7007 71.6326C7.66078 71.2998 3.86507 66.9743 3.07496 65.6428C2.74586 65.0881 -0.391563 60.0966 1.73276 51.4446C3.48062 44.326 10.1588 38.7625 13.477 36.9138C24.1027 31.4785 31.5966 32.7295 36.4062 34.5844C42.446 36.9138 49.9901 44.1237 51.8414 50.4463C53.6927 56.7689 54.6376 61.7605 53.5191 67.8612C52.4006 73.962 50.8348 78.177 45.1304 87.3836C39.4261 96.5902 30.0307 103.8 27.1226 106.24Z" fill="black"/>
<path d="M4.9764 117L4.74504 116.557C4.52868 116.67 4.42547 116.922 4.50085 117.154C4.57623 117.387 4.80818 117.53 5.04961 117.495L4.9764 117ZM27.1226 106.24L26.8012 105.857L27.1226 106.24ZM45.1304 87.3836L45.5555 87.647L45.1304 87.3836ZM51.8414 50.4463L52.3213 50.3058L51.8414 50.4463ZM36.4062 34.5844L36.5861 34.1179V34.1179L36.4062 34.5844ZM13.477 36.9138L13.2493 36.4686L13.2414 36.4727L13.2336 36.477L13.477 36.9138ZM1.73276 51.4446L2.21834 51.5639L1.73276 51.4446ZM3.07496 65.6428L2.64496 65.8979H2.64496L3.07496 65.6428ZM13.7007 71.6326L13.6732 72.1318L13.6869 72.1326H13.7007V71.6326ZM23.4818 68.194L23.1297 67.839L23.1196 67.8489L23.1102 67.8594L23.4818 68.194ZM26.7935 60.5403L26.2941 60.5157L26.7935 60.5403ZM21.8721 51.0009L22.1627 50.594L21.8721 51.0009ZM11.0163 50.0026L10.9347 50.496L11.0822 50.5203L11.2188 50.4598L11.0163 50.0026ZM11.0163 46.8968L11.4696 47.1078L11.0163 46.8968ZM18.2865 40.3524L18.4434 40.8271L18.2865 40.3524ZM34.5047 43.0145L34.161 43.3776L34.5047 43.0145ZM41.9986 60.5403L41.4986 60.5456L41.4988 60.5584L41.4996 60.5711L41.9986 60.5403ZM40.7683 75.9586L40.307 75.7657L40.2909 75.8041L40.2814 75.8445L40.7683 75.9586ZM32.2677 93.8171L31.889 93.4907L32.2677 93.8171ZM13.5888 111.565L13.8551 111.988L13.5888 111.565ZM5.04961 117.495C8.8889 116.926 13.9096 114.687 18.2233 112.377C22.5423 110.065 26.2412 107.633 27.444 106.624L26.8012 105.857C25.6776 106.8 22.0503 109.194 17.7513 111.496C13.447 113.8 8.55782 115.964 4.90319 116.505L5.04961 117.495ZM27.444 106.624C30.3278 104.204 39.7992 96.9374 45.5555 87.647L44.7054 87.1203C39.053 96.243 29.7337 103.397 26.8012 105.857L27.444 106.624ZM45.5555 87.647C51.2815 78.4054 52.8779 74.1314 54.0109 67.9514L53.0273 67.771C51.9234 73.7925 50.388 77.9487 44.7054 87.1203L45.5555 87.647ZM54.0109 67.9514C55.1504 61.7362 54.1803 56.655 52.3213 50.3058L51.3615 50.5868C53.205 56.8829 54.1249 61.7847 53.0273 67.771L54.0109 67.9514ZM52.3213 50.3058C51.3632 47.0339 48.9526 43.5806 46.0488 40.6651C43.1422 37.7467 39.689 35.3146 36.5861 34.1179L36.2262 35.0509C39.1631 36.1835 42.502 38.5211 45.3402 41.3707C48.1812 44.2231 50.4683 47.5362 51.3615 50.5868L52.3213 50.3058ZM36.5861 34.1179C31.6555 32.2163 24.0124 30.9631 13.2493 36.4686L13.7047 37.3589C24.1929 31.994 31.5377 33.2427 36.2262 35.0509L36.5861 34.1179ZM13.2336 36.477C11.5252 37.4288 8.98435 39.3161 6.64743 41.8651C4.31098 44.4136 2.14795 47.6568 1.24718 51.3254L2.21834 51.5639C3.06543 48.1138 5.11541 45.0159 7.38454 42.5408C9.65322 40.0663 12.1106 38.2474 13.7203 37.3505L13.2336 36.477ZM1.24718 51.3254C-0.921034 60.1562 2.2821 65.2864 2.64496 65.8979L3.50495 65.3876C3.20962 64.8899 0.137908 60.0371 2.21834 51.5639L1.24718 51.3254ZM2.64496 65.8979C3.07914 66.6296 4.27552 68.0937 6.12826 69.4189C7.98869 70.7496 10.5371 71.959 13.6732 72.1318L13.7282 71.1333C10.8244 70.9734 8.45496 69.8536 6.71003 68.6055C4.95742 67.3519 3.86089 65.9874 3.50495 65.3876L2.64496 65.8979ZM13.7007 72.1326C16.2027 72.1326 20.8984 71.8107 23.8534 68.5285L23.1102 67.8594C20.4727 70.7889 16.1946 71.1326 13.7007 71.1326V72.1326ZM23.8339 68.549C25.2438 67.1507 27.1065 64.3543 27.2929 60.5649L26.2941 60.5157C26.1226 64.0028 24.4041 66.5751 23.1297 67.839L23.8339 68.549ZM27.2929 60.5649C27.5276 55.7942 25.0481 52.6543 22.1627 50.594L21.5816 51.4079C24.2887 53.3408 26.5069 56.1907 26.2941 60.5157L27.2929 60.5649ZM22.1627 50.594C19.5206 48.7075 15.2573 47.5771 10.8138 49.5455L11.2188 50.4598C15.2888 48.6568 19.1796 49.6928 21.5816 51.4079L22.1627 50.594ZM11.0978 49.5093C11.097 49.5092 11.0748 49.5052 11.0451 49.4727C11.0162 49.4412 10.9654 49.3659 10.9393 49.2065C10.8847 48.8729 10.9497 48.2249 11.4696 47.1078L10.563 46.6858C10.0091 47.876 9.85035 48.7439 9.95239 49.3679C10.0595 50.0228 10.466 50.4185 10.9347 50.496L11.0978 49.5093ZM11.4696 47.1078C12.0918 45.7709 13.5011 44.3042 14.9692 43.0955C15.6953 42.4977 16.4202 41.9757 17.0424 41.5778C17.6759 41.1727 18.1704 40.9173 18.4434 40.8271L18.1296 39.8776C17.7315 40.0092 17.1494 40.3224 16.5037 40.7353C15.8466 41.1555 15.0895 41.7011 14.3336 42.3235C12.8377 43.5551 11.283 45.1387 10.563 46.6858L11.4696 47.1078ZM18.4434 40.8271C19.1825 40.5828 21.2815 39.5438 24.1563 39.3958C26.9978 39.2496 30.579 39.9869 34.161 43.3776L34.8484 42.6514C31.0483 39.054 27.1915 38.2383 24.1049 38.3972C21.0517 38.5543 18.7327 39.6783 18.1296 39.8776L18.4434 40.8271ZM34.161 43.3776C39.9317 48.8404 41.4622 57.1084 41.4986 60.5456L42.4986 60.535C42.4605 56.9471 40.889 48.3696 34.8484 42.6514L34.161 43.3776ZM41.4996 60.5711C41.6105 62.3674 41.6827 65.2937 41.5384 68.2193C41.393 71.1656 41.0305 74.0352 40.307 75.7657L41.2296 76.1514C42.0272 74.2437 42.3917 71.2159 42.5372 68.2685C42.6836 65.3004 42.6105 62.3367 42.4977 60.5095L41.4996 60.5711ZM40.2814 75.8445C39.4308 79.4758 36.5535 88.0794 31.889 93.4907L32.6464 94.1436C37.4668 88.5514 40.3908 79.7622 41.2551 76.0726L40.2814 75.8445ZM31.889 93.4907C25.961 100.368 18.9699 107.587 13.3225 111.142L13.8551 111.988C19.6422 108.346 26.7183 101.021 32.6464 94.1436L31.889 93.4907ZM13.3225 111.142C10.4095 112.975 8.78348 114.059 7.62388 114.821C6.46733 115.581 5.78498 116.014 4.74504 116.557L5.20776 117.443C6.29298 116.877 7.00874 116.422 8.17307 115.657C9.33434 114.894 10.9519 113.815 13.8551 111.988L13.3225 111.142Z" fill="black"/>
<ellipse cx="66.4852" cy="45.1558" rx="6.51452" ry="6.49758" fill="black"/>
<ellipse cx="66.4852" cy="69.647" rx="6.51452" ry="6.49758" fill="black"/>
</svg>
