<svg width="919" height="207" viewBox="0 0 919 207" fill="none" xmlns="http://www.w3.org/2000/svg">
<line x1="1" y1="69.5" x2="919" y2="69.5" stroke="#1C1A1A"/>
<line x1="1" y1="94.5" x2="919" y2="94.5" stroke="#1C1A1A"/>
<line x1="1" y1="119.5" x2="919" y2="119.5" stroke="#1C1A1A"/>
<line x1="1" y1="144.5" x2="919" y2="144.5" stroke="#1C1A1A"/>
<line x1="1" y1="169.5" x2="919" y2="169.5" stroke="#1C1A1A"/>
<line x1="361" y1="44.5" x2="413" y2="44.5" stroke="#1C1A1A"/>
<path d="M377.097 55.5145C371.453 53.8054 367 49.1609 367 44.9836C367 33.1601 392.813 28.4812 403.473 38.3725C415 49.0687 396.188 61.2953 377.097 55.5145H377.097ZM394.315 52.5442C397.455 47.8287 394.453 38.486 389.013 36.0476C381.025 32.4667 376.129 38.5689 379.456 47.9586C381.757 54.4532 391.119 57.3425 394.315 52.5442Z" fill="#1C1A1A"/>
<path d="M345.475 0V31.0906C345.475 31.0906 345.475 33.1864 345.475 37.3778C348.332 34.6927 351.537 33.3173 355.091 33.2518C357.313 33.2519 359.217 34.2015 360.804 36.1007C362.2 37.869 362.93 39.8337 362.994 41.9949C363.057 43.6977 362.645 45.6624 361.756 47.8891C361.439 48.806 360.74 49.7884 359.661 50.8363C358.836 51.6222 357.979 52.4408 357.091 53.2922C352.394 56.8287 347.697 60.398 343 64V0H345.475ZM353.187 39.539C352.426 38.6221 351.442 38.1637 350.236 38.1637C348.712 38.1637 347.475 39.0478 346.523 40.8161C345.824 42.1914 345.475 45.4332 345.475 50.5415V58.9899C345.539 59.2519 347.316 57.6473 350.807 54.1763C352.711 52.3426 353.949 50.1813 354.52 47.6927C354.774 46.7103 354.901 45.7279 354.901 44.7456C354.901 42.5844 354.33 40.8488 353.187 39.539Z" fill="#1C1A1A"/>
<path d="M27.1226 143.24C24.7962 145.193 12.4703 152.891 4.9764 154C7.10156 152.891 7.77263 152.225 13.5888 148.565C19.306 144.967 26.3397 137.694 32.2677 130.817C37.0101 125.315 39.9108 116.619 40.7683 112.959C42.2894 109.32 42.2223 101.164 41.9986 97.5403C41.9613 94.0278 40.4104 85.605 34.5047 80.0145C27.1226 73.0264 19.6287 76.9087 18.2865 77.3524C16.9443 77.7961 12.3585 81.0128 11.0163 83.8968C9.94251 86.204 10.5689 86.9287 11.0163 87.0026C15.273 85.117 19.3501 86.2001 21.8721 88.0009C24.6684 89.9976 27.0172 92.9925 26.7935 97.5403C26.6146 101.179 24.824 103.863 23.4818 105.194C20.6855 108.3 16.1986 108.633 13.7007 108.633C7.66078 108.3 3.86507 103.974 3.07496 102.643C2.74586 102.088 -0.391563 97.0966 1.73276 88.4446C3.48062 81.326 10.1588 75.7625 13.477 73.9138C24.1027 68.4785 31.5966 69.7295 36.4062 71.5844C42.446 73.9138 49.9901 81.1237 51.8414 87.4463C53.6927 93.7689 54.6376 98.7605 53.5191 104.861C52.4006 110.962 50.8348 115.177 45.1304 124.384C39.4261 133.59 30.0307 140.8 27.1226 143.24Z" fill="black"/>
<path d="M4.9764 154L4.74504 153.557C4.52868 153.67 4.42547 153.922 4.50085 154.154C4.57623 154.387 4.80818 154.53 5.04961 154.495L4.9764 154ZM27.1226 143.24L26.8012 142.857L27.1226 143.24ZM45.1304 124.384L45.5555 124.647L45.1304 124.384ZM51.8414 87.4463L52.3213 87.3058L51.8414 87.4463ZM36.4062 71.5844L36.5861 71.1179V71.1179L36.4062 71.5844ZM13.477 73.9138L13.2493 73.4686L13.2414 73.4727L13.2336 73.477L13.477 73.9138ZM1.73276 88.4446L2.21834 88.5639L1.73276 88.4446ZM3.07496 102.643L2.64496 102.898H2.64496L3.07496 102.643ZM13.7007 108.633L13.6732 109.132L13.6869 109.133H13.7007V108.633ZM23.4818 105.194L23.1297 104.839L23.1196 104.849L23.1102 104.859L23.4818 105.194ZM26.7935 97.5403L26.2941 97.5157L26.7935 97.5403ZM21.8721 88.0009L22.1627 87.594L21.8721 88.0009ZM11.0163 87.0026L10.9347 87.496L11.0822 87.5203L11.2188 87.4598L11.0163 87.0026ZM11.0163 83.8968L11.4696 84.1078L11.0163 83.8968ZM18.2865 77.3524L18.4434 77.8271L18.2865 77.3524ZM34.5047 80.0145L34.161 80.3776L34.5047 80.0145ZM41.9986 97.5403L41.4986 97.5456L41.4988 97.5584L41.4996 97.5711L41.9986 97.5403ZM40.7683 112.959L40.307 112.766L40.2909 112.804L40.2814 112.845L40.7683 112.959ZM32.2677 130.817L31.889 130.491L32.2677 130.817ZM13.5888 148.565L13.8551 148.988L13.5888 148.565ZM5.04961 154.495C8.8889 153.926 13.9096 151.687 18.2233 149.377C22.5423 147.065 26.2412 144.633 27.444 143.624L26.8012 142.857C25.6776 143.8 22.0503 146.194 17.7513 148.496C13.447 150.8 8.55782 152.964 4.90319 153.505L5.04961 154.495ZM27.444 143.624C30.3278 141.204 39.7992 133.937 45.5555 124.647L44.7054 124.12C39.053 133.243 29.7337 140.397 26.8012 142.857L27.444 143.624ZM45.5555 124.647C51.2815 115.405 52.8779 111.131 54.0109 104.951L53.0273 104.771C51.9234 110.792 50.388 114.949 44.7054 124.12L45.5555 124.647ZM54.0109 104.951C55.1504 98.7362 54.1803 93.655 52.3213 87.3058L51.3615 87.5868C53.205 93.8829 54.1249 98.7847 53.0273 104.771L54.0109 104.951ZM52.3213 87.3058C51.3632 84.0339 48.9526 80.5806 46.0488 77.6651C43.1422 74.7467 39.689 72.3146 36.5861 71.1179L36.2262 72.0509C39.1631 73.1835 42.502 75.5211 45.3402 78.3707C48.1812 81.2231 50.4683 84.5362 51.3615 87.5868L52.3213 87.3058ZM36.5861 71.1179C31.6555 69.2163 24.0124 67.9631 13.2493 73.4686L13.7047 74.3589C24.1929 68.994 31.5377 70.2427 36.2262 72.0509L36.5861 71.1179ZM13.2336 73.477C11.5252 74.4288 8.98435 76.3161 6.64743 78.8651C4.31098 81.4136 2.14795 84.6568 1.24718 88.3254L2.21834 88.5639C3.06543 85.1138 5.11541 82.0159 7.38454 79.5408C9.65322 77.0663 12.1106 75.2474 13.7203 74.3505L13.2336 73.477ZM1.24718 88.3254C-0.921034 97.1562 2.2821 102.286 2.64496 102.898L3.50495 102.388C3.20962 101.89 0.137908 97.0371 2.21834 88.5639L1.24718 88.3254ZM2.64496 102.898C3.07914 103.63 4.27552 105.094 6.12826 106.419C7.98869 107.75 10.5371 108.959 13.6732 109.132L13.7282 108.133C10.8244 107.973 8.45496 106.854 6.71003 105.606C4.95742 104.352 3.86089 102.987 3.50495 102.388L2.64496 102.898ZM13.7007 109.133C16.2027 109.133 20.8984 108.811 23.8534 105.529L23.1102 104.859C20.4727 107.789 16.1946 108.133 13.7007 108.133V109.133ZM23.8339 105.549C25.2438 104.151 27.1065 101.354 27.2929 97.5649L26.2941 97.5157C26.1226 101.003 24.4041 103.575 23.1297 104.839L23.8339 105.549ZM27.2929 97.5649C27.5276 92.7942 25.0481 89.6543 22.1627 87.594L21.5816 88.4079C24.2887 90.3408 26.5069 93.1907 26.2941 97.5157L27.2929 97.5649ZM22.1627 87.594C19.5206 85.7075 15.2573 84.5771 10.8138 86.5455L11.2188 87.4598C15.2888 85.6568 19.1796 86.6928 21.5816 88.4079L22.1627 87.594ZM11.0978 86.5093C11.097 86.5092 11.0748 86.5052 11.0451 86.4727C11.0162 86.4412 10.9654 86.3659 10.9393 86.2065C10.8847 85.8729 10.9497 85.2249 11.4696 84.1078L10.563 83.6858C10.0091 84.876 9.85035 85.7439 9.95239 86.3679C10.0595 87.0228 10.466 87.4185 10.9347 87.496L11.0978 86.5093ZM11.4696 84.1078C12.0918 82.7709 13.5011 81.3042 14.9692 80.0955C15.6953 79.4977 16.4202 78.9757 17.0424 78.5778C17.6759 78.1727 18.1704 77.9173 18.4434 77.8271L18.1296 76.8776C17.7315 77.0092 17.1494 77.3224 16.5037 77.7353C15.8466 78.1555 15.0895 78.7011 14.3336 79.3235C12.8377 80.5551 11.283 82.1387 10.563 83.6858L11.4696 84.1078ZM18.4434 77.8271C19.1825 77.5828 21.2815 76.5438 24.1563 76.3958C26.9978 76.2496 30.579 76.9869 34.161 80.3776L34.8484 79.6514C31.0483 76.054 27.1915 75.2383 24.1049 75.3972C21.0517 75.5543 18.7327 76.6783 18.1296 76.8776L18.4434 77.8271ZM34.161 80.3776C39.9317 85.8404 41.4622 94.1084 41.4986 97.5456L42.4986 97.535C42.4605 93.9471 40.889 85.3696 34.8484 79.6514L34.161 80.3776ZM41.4996 97.5711C41.6105 99.3674 41.6827 102.294 41.5384 105.219C41.393 108.166 41.0305 111.035 40.307 112.766L41.2296 113.151C42.0272 111.244 42.3917 108.216 42.5372 105.269C42.6836 102.3 42.6105 99.3367 42.4977 97.5095L41.4996 97.5711ZM40.2814 112.845C39.4308 116.476 36.5535 125.079 31.889 130.491L32.6464 131.144C37.4668 125.551 40.3908 116.762 41.2551 113.073L40.2814 112.845ZM31.889 130.491C25.961 137.368 18.9699 144.587 13.3225 148.142L13.8551 148.988C19.6422 145.346 26.7183 138.021 32.6464 131.144L31.889 130.491ZM13.3225 148.142C10.4095 149.975 8.78348 151.059 7.62388 151.821C6.46733 152.581 5.78498 153.014 4.74504 153.557L5.20776 154.443C6.29298 153.877 7.00874 153.422 8.17307 152.657C9.33434 151.894 10.9519 150.815 13.8551 148.988L13.3225 148.142Z" fill="black"/>
<ellipse cx="66.4852" cy="82.1558" rx="6.51452" ry="6.49758" fill="black"/>
<ellipse cx="66.4852" cy="106.647" rx="6.51452" ry="6.49758" fill="black"/>
</svg> 
