<svg width="808" height="182" viewBox="0 0 808 182" fill="none" xmlns="http://www.w3.org/2000/svg">
<line x1="1" y1="44.5" x2="808" y2="44.5" stroke="#1C1A1A"/>
<line x1="1" y1="69.5" x2="808" y2="69.5" stroke="#1C1A1A"/>
<line x1="1" y1="94.5" x2="808" y2="94.5" stroke="#1C1A1A"/>
<line x1="1" y1="119.5" x2="808" y2="119.5" stroke="#1C1A1A"/>
<line x1="1" y1="144.5" x2="808" y2="144.5" stroke="#1C1A1A"/>
<path d="M377.097 55.5145C371.453 53.8054 367 49.1609 367 44.9836C367 33.1601 392.813 28.4812 403.473 38.3725C415 49.0687 396.188 61.2953 377.097 55.5145H377.097ZM394.315 52.5442C397.455 47.8287 394.453 38.486 389.013 36.0476C381.025 32.4667 376.129 38.5689 379.456 47.9586C381.757 54.4532 391.119 57.3425 394.315 52.5442Z" fill="#1C1A1A"/>
<path d="M345.475 0V31.0906C345.475 31.0906 345.475 33.1864 345.475 37.3778C348.332 34.6927 351.537 33.3173 355.091 33.2518C357.313 33.2519 359.217 34.2015 360.804 36.1007C362.2 37.869 362.93 39.8337 362.994 41.9949C363.057 43.6977 362.645 45.6624 361.756 47.8891C361.439 48.806 360.74 49.7884 359.661 50.8363C358.836 51.6222 357.979 52.4408 357.091 53.2922C352.394 56.8287 347.697 60.398 343 64V0H345.475ZM353.187 39.539C352.426 38.6221 351.442 38.1637 350.236 38.1637C348.712 38.1637 347.475 39.0478 346.523 40.8161C345.824 42.1914 345.475 45.4332 345.475 50.5415V58.9899C345.539 59.2519 347.316 57.6473 350.807 54.1763C352.711 52.3426 353.949 50.1813 354.52 47.6927C354.774 46.7103 354.901 45.7279 354.901 44.7456C354.901 42.5844 354.33 40.8488 353.187 39.539Z" fill="#1C1A1A"/>
<path d="M27.1226 118.24C24.7962 120.193 12.4703 127.891 4.9764 129C7.10156 127.891 7.77263 127.225 13.5888 123.565C19.306 119.967 26.3397 112.694 32.2677 105.817C37.0101 100.315 39.9108 91.619 40.7683 87.9586C42.2894 84.3203 42.2223 76.1638 41.9986 72.5403C41.9613 69.0278 40.4104 60.605 34.5047 55.0145C27.1226 48.0264 19.6287 51.9087 18.2865 52.3524C16.9443 52.7961 12.3585 56.0128 11.0163 58.8968C9.94251 61.204 10.5689 61.9287 11.0163 62.0026C15.273 60.117 19.3501 61.2001 21.8721 63.0009C24.6684 64.9976 27.0172 67.9925 26.7935 72.5403C26.6146 76.1786 24.824 78.8629 23.4818 80.194C20.6855 83.2998 16.1986 83.6326 13.7007 83.6326C7.66078 83.2998 3.86507 78.9743 3.07496 77.6428C2.74586 77.0881 -0.391563 72.0966 1.73276 63.4446C3.48062 56.326 10.1588 50.7625 13.477 48.9138C24.1027 43.4785 31.5966 44.7295 36.4062 46.5844C42.446 48.9138 49.9901 56.1237 51.8414 62.4463C53.6927 68.7689 54.6376 73.7605 53.5191 79.8612C52.4006 85.962 50.8348 90.177 45.1304 99.3836C39.4261 108.59 30.0307 115.8 27.1226 118.24Z" fill="black"/>
<path d="M4.9764 129L4.74504 128.557C4.52868 128.67 4.42547 128.922 4.50085 129.154C4.57623 129.387 4.80818 129.53 5.04961 129.495L4.9764 129ZM27.1226 118.24L26.8012 117.857L27.1226 118.24ZM45.1304 99.3836L45.5555 99.647L45.1304 99.3836ZM51.8414 62.4463L52.3213 62.3058L51.8414 62.4463ZM36.4062 46.5844L36.5861 46.1179V46.1179L36.4062 46.5844ZM13.477 48.9138L13.2493 48.4686L13.2414 48.4727L13.2336 48.477L13.477 48.9138ZM1.73276 63.4446L2.21834 63.5639L1.73276 63.4446ZM3.07496 77.6428L2.64496 77.8979H2.64496L3.07496 77.6428ZM13.7007 83.6326L13.6732 84.1318L13.6869 84.1326H13.7007V83.6326ZM23.4818 80.194L23.1297 79.839L23.1196 79.8489L23.1102 79.8594L23.4818 80.194ZM26.7935 72.5403L26.2941 72.5157L26.7935 72.5403ZM21.8721 63.0009L22.1627 62.594L21.8721 63.0009ZM11.0163 62.0026L10.9347 62.496L11.0822 62.5203L11.2188 62.4598L11.0163 62.0026ZM11.0163 58.8968L11.4696 59.1078L11.0163 58.8968ZM18.2865 52.3524L18.4434 52.8271L18.2865 52.3524ZM34.5047 55.0145L34.161 55.3776L34.5047 55.0145ZM41.9986 72.5403L41.4986 72.5456L41.4988 72.5584L41.4996 72.5711L41.9986 72.5403ZM40.7683 87.9586L40.307 87.7657L40.2909 87.8041L40.2814 87.8445L40.7683 87.9586ZM32.2677 105.817L31.889 105.491L32.2677 105.817ZM13.5888 123.565L13.8551 123.988L13.5888 123.565ZM5.04961 129.495C8.8889 128.926 13.9096 126.687 18.2233 124.377C22.5423 122.065 26.2412 119.633 27.444 118.624L26.8012 117.857C25.6776 118.8 22.0503 121.194 17.7513 123.496C13.447 125.8 8.55782 127.964 4.90319 128.505L5.04961 129.495ZM27.444 118.624C30.3278 116.204 39.7992 108.937 45.5555 99.647L44.7054 99.1203C39.053 108.243 29.7337 115.397 26.8012 117.857L27.444 118.624ZM45.5555 99.647C51.2815 90.4054 52.8779 86.1314 54.0109 79.9514L53.0273 79.771C51.9234 85.7925 50.388 89.9487 44.7054 99.1203L45.5555 99.647ZM54.0109 79.9514C55.1504 73.7362 54.1803 68.655 52.3213 62.3058L51.3615 62.5868C53.205 68.8829 54.1249 73.7847 53.0273 79.771L54.0109 79.9514ZM52.3213 62.3058C51.3632 59.0339 48.9526 55.5806 46.0488 52.6651C43.1422 49.7467 39.689 47.3146 36.5861 46.1179L36.2262 47.0509C39.1631 48.1835 42.502 50.5211 45.3402 53.3707C48.1812 56.2231 50.4683 59.5362 51.3615 62.5868L52.3213 62.3058ZM36.5861 46.1179C31.6555 44.2163 24.0124 42.9631 13.2493 48.4686L13.7047 49.3589C24.1929 43.994 31.5377 45.2427 36.2262 47.0509L36.5861 46.1179ZM13.2336 48.477C11.5252 49.4288 8.98435 51.3161 6.64743 53.8651C4.31098 56.4136 2.14795 59.6568 1.24718 63.3254L2.21834 63.5639C3.06543 60.1138 5.11541 57.0159 7.38454 54.5408C9.65322 52.0663 12.1106 50.2474 13.7203 49.3505L13.2336 48.477ZM1.24718 63.3254C-0.921034 72.1562 2.2821 77.2864 2.64496 77.8979L3.50495 77.3876C3.20962 76.8899 0.137908 72.0371 2.21834 63.5639L1.24718 63.3254ZM2.64496 77.8979C3.07914 78.6296 4.27552 80.0937 6.12826 81.4189C7.98869 82.7496 10.5371 83.959 13.6732 84.1318L13.7282 83.1333C10.8244 82.9734 8.45496 81.8536 6.71003 80.6055C4.95742 79.3519 3.86089 77.9874 3.50495 77.3876L2.64496 77.8979ZM13.7007 84.1326C16.2027 84.1326 20.8984 83.8107 23.8534 80.5285L23.1102 79.8594C20.4727 82.7889 16.1946 83.1326 13.7007 83.1326V84.1326ZM23.8339 80.549C25.2438 79.1507 27.1065 76.3543 27.2929 72.5649L26.2941 72.5157C26.1226 76.0028 24.4041 78.5751 23.1297 79.839L23.8339 80.549ZM27.2929 72.5649C27.5276 67.7942 25.0481 64.6543 22.1627 62.594L21.5816 63.4079C24.2887 65.3408 26.5069 68.1907 26.2941 72.5157L27.2929 72.5649ZM22.1627 62.594C19.5206 60.7075 15.2573 59.5771 10.8138 61.5455L11.2188 62.4598C15.2888 60.6568 19.1796 61.6928 21.5816 63.4079L22.1627 62.594ZM11.0978 61.5093C11.097 61.5092 11.0748 61.5052 11.0451 61.4727C11.0162 61.4412 10.9654 61.3659 10.9393 61.2065C10.8847 60.8729 10.9497 60.2249 11.4696 59.1078L10.563 58.6858C10.0091 59.876 9.85035 60.7439 9.95239 61.3679C10.0595 62.0228 10.466 62.4185 10.9347 62.496L11.0978 61.5093ZM11.4696 59.1078C12.0918 57.7709 13.5011 56.3042 14.9692 55.0955C15.6953 54.4977 16.4202 53.9757 17.0424 53.5778C17.6759 53.1727 18.1704 52.9173 18.4434 52.8271L18.1296 51.8776C17.7315 52.0092 17.1494 52.3224 16.5037 52.7353C15.8466 53.1555 15.0895 53.7011 14.3336 54.3235C12.8377 55.5551 11.283 57.1387 10.563 58.6858L11.4696 59.1078ZM18.4434 52.8271C19.1825 52.5828 21.2815 51.5438 24.1563 51.3958C26.9978 51.2496 30.579 51.9869 34.161 55.3776L34.8484 54.6514C31.0483 51.054 27.1915 50.2383 24.1049 50.3972C21.0517 50.5543 18.7327 51.6783 18.1296 51.8776L18.4434 52.8271ZM34.161 55.3776C39.9317 60.8404 41.4622 69.1084 41.4986 72.5456L42.4986 72.535C42.4605 68.9471 40.889 60.3696 34.8484 54.6514L34.161 55.3776ZM41.4996 72.5711C41.6105 74.3674 41.6827 77.2937 41.5384 80.2193C41.393 83.1656 41.0305 86.0352 40.307 87.7657L41.2296 88.1514C42.0272 86.2437 42.3917 83.2159 42.5372 80.2685C42.6836 77.3004 42.6105 74.3367 42.4977 72.5095L41.4996 72.5711ZM40.2814 87.8445C39.4308 91.4758 36.5535 100.079 31.889 105.491L32.6464 106.144C37.4668 100.551 40.3908 91.7622 41.2551 88.0726L40.2814 87.8445ZM31.889 105.491C25.961 112.368 18.9699 119.587 13.3225 123.142L13.8551 123.988C19.6422 120.346 26.7183 113.021 32.6464 106.144L31.889 105.491ZM13.3225 123.142C10.4095 124.975 8.78348 126.059 7.62388 126.821C6.46733 127.581 5.78498 128.014 4.74504 128.557L5.20776 129.443C6.29298 128.877 7.00874 128.422 8.17307 127.657C9.33434 126.894 10.9519 125.815 13.8551 123.988L13.3225 123.142Z" fill="black"/>
<ellipse cx="66.4852" cy="57.1558" rx="6.51452" ry="6.49758" fill="black"/>
<ellipse cx="66.4852" cy="81.647" rx="6.51452" ry="6.49758" fill="black"/>
</svg>
