<svg width="736" height="207" viewBox="0 0 736 207" fill="none" xmlns="http://www.w3.org/2000/svg">
<line y1="32.5" x2="736" y2="32.5" stroke="#1C1A1A"/>
<line y1="57.5" x2="736" y2="57.5" stroke="#1C1A1A"/>
<line y1="82.5" x2="736" y2="82.5" stroke="#1C1A1A"/>
<line y1="107.5" x2="736" y2="107.5" stroke="#1C1A1A"/>
<line y1="132.5" x2="736" y2="132.5" stroke="#1C1A1A"/>
<path d="M33.0196 95.6936C30.4448 96.5402 28.317 97.9688 26.636 99.9805C24.9547 101.991 23.9303 104.188 23.5625 106.57C23.1947 108.951 23.4969 111.306 24.4688 113.635C25.4407 115.964 27.2664 117.843 29.9456 119.272C30.5761 119.272 30.9699 119.537 31.128 120.066C31.2852 120.595 31.0485 120.859 30.419 120.859C27.8443 120.33 25.5852 119.245 23.6414 117.605C20.0163 114.588 18.02 110.698 17.6522 105.935C17.4421 103.553 17.6653 101.251 18.3221 99.0277C18.9787 96.8046 19.885 94.7669 21.0408 92.9144C22.4592 90.9568 24.1404 89.2627 26.0843 87.834C26.1893 87.7279 26.4915 87.4904 26.9905 87.1197C27.4896 86.749 27.9755 86.4054 28.4484 86.0878C28.9213 85.7702 29.6304 85.2673 30.5761 84.579L27.6604 70.4479C25.0861 72.6179 22.5381 75.0123 20.0164 77.6322C17.4946 80.252 15.2092 83.0181 13.1603 85.9285C11.1115 88.8399 9.46968 91.9226 8.23502 95.1776C7.00047 98.4326 6.38319 101.859 6.38319 105.459C6.38319 108.793 7.07923 111.929 8.47151 114.866C9.86369 117.803 11.7156 120.357 14.0272 122.526C16.3388 124.696 19.005 126.403 22.0258 127.648C25.0467 128.891 28.1069 129.513 31.2066 129.513C31.312 129.513 31.7973 129.46 32.6645 129.354C33.5317 129.249 34.4506 129.116 35.4222 128.957C36.3948 128.799 37.2879 128.626 38.1024 128.441C38.9159 128.256 39.3236 128.057 39.3236 127.846L38.8502 125.623C36.8016 115.197 34.8574 105.22 33.0196 95.6936ZM35.7773 95.376L42.2394 126.893C45.9697 125.464 48.4907 123.016 49.8045 119.55C51.1182 116.083 51.4195 112.564 50.7104 108.991C50.0014 105.419 48.3336 102.256 45.7062 99.5036C43.0798 96.7515 39.7701 95.376 35.7773 95.376ZM27.5028 52.9034C29.1311 52.0559 30.6417 50.7865 32.034 49.0924C33.4263 47.3993 34.7132 45.5859 35.8956 43.6543C37.077 41.7228 38.1024 39.7511 38.9686 37.7394C39.8357 35.7287 40.5319 33.9033 41.057 32.2623C41.6348 30.516 42.0286 28.5574 42.2394 26.3874C42.4493 24.2174 42.1081 22.392 41.2151 20.9093C40.5846 19.5868 39.7572 18.8194 38.7329 18.607C37.7076 18.3956 36.6832 18.4748 35.6589 18.8455C34.6346 19.2161 33.663 19.8112 32.7431 20.6318C31.8242 21.4523 31.1539 22.1796 30.7342 22.8148C29.5776 24.8786 28.5663 27.1809 27.6998 29.7216C26.8329 32.2623 26.2418 34.8951 25.9267 37.6212C25.6114 40.3462 25.5721 42.9661 25.8085 45.4807C26.0448 47.9944 26.6096 50.4689 27.5028 52.9034ZM25.1387 55.364C24.2455 51.8715 23.4575 48.4442 22.7745 45.083C22.0915 41.7228 21.7501 38.2694 21.7501 34.7228C21.7501 32.13 21.9339 29.2848 22.3017 26.189C22.6694 23.0933 23.3392 20.0757 24.3112 17.1383C25.2831 14.2009 26.6227 11.568 28.3302 9.23969C30.0381 6.91038 32.3095 5.21725 35.1468 4.15829C35.4093 4.0531 35.6718 4 35.9344 4C36.3023 4 36.7359 4.21139 37.2352 4.63517C37.7344 5.05796 38.2595 5.68011 38.8114 6.50062C39.3624 7.32114 39.8487 8.16771 40.2693 9.04132C40.689 9.91394 41.0043 10.51 41.2151 10.8276C42.6332 13.5266 43.6705 16.3979 44.3278 19.4406C44.9842 22.4842 45.3651 25.5138 45.4705 28.5304C45.6803 33.0828 45.4307 37.5811 44.7216 42.0273C44.0126 46.4725 42.5805 50.8126 40.4265 55.0464C39.6915 56.3168 38.9427 57.6001 38.1809 58.8965C37.4192 60.1939 36.5132 61.4502 35.462 62.6675C35.2522 62.8799 34.8713 63.2636 34.3193 63.8186C33.7674 64.3747 33.2025 64.9437 32.6247 65.5258C32.0469 66.1079 31.5348 66.6509 31.0883 67.1528C30.6417 67.6557 30.419 67.9603 30.419 68.0665L33.6491 83.9438C33.6699 84.048 35.2651 83.9438 35.2651 83.9438C38.348 83.9829 41.6119 84.4859 44.4462 85.6109C47.178 86.8813 49.529 88.6275 51.4991 90.8506C53.4691 93.0737 55.0444 95.5744 56.2268 98.3525C57.4093 101.132 58 103.95 58 106.808C58 109.665 57.5793 112.577 56.739 115.54C54.5849 121.151 51.144 125.305 46.4162 128.004C45.8902 128.322 45.1413 128.68 44.1697 129.076C43.1981 129.473 42.8172 130.095 43.027 130.942C44.2881 136.708 45.1413 140.676 45.5888 142.85C46.0354 145.024 46.3635 147.829 46.5734 151.265C46.7832 154.551 46.2183 157.507 44.8788 160.152C43.5392 162.807 41.7402 164.961 39.4807 166.624C37.2222 168.297 35.1597 169.269 33.295 169.569C31.4294 169.86 30.1554 170 29.4732 170C27.1087 170 24.7972 169.549 22.5381 168.648C19.7536 167.596 17.4158 165.983 15.5245 163.809C13.6332 161.635 12.6875 158.99 12.6875 155.874C12.6875 153.91 13.2523 151.897 14.3818 149.833C15.5114 147.769 16.9955 146.286 18.8342 145.395C20.8832 144.333 22.7351 144.042 24.39 144.513C26.0448 144.994 27.4108 145.895 28.4878 147.218C29.5647 148.54 30.3136 150.143 30.7342 152.017C31.1539 153.9 31.128 155.653 30.6547 157.297C30.1823 158.94 29.2236 160.332 27.7786 161.464C26.3338 162.606 24.3243 163.117 21.7501 163.017C22.8007 164.921 24.2718 166.123 26.1631 166.624C28.0544 167.135 29.9983 167.165 31.9942 166.744C33.9912 166.323 35.8688 165.542 37.629 164.4C39.3892 163.268 40.7686 162.035 41.766 160.713C42.3965 159.761 42.8699 158.519 43.1852 156.986C43.5004 155.443 43.6844 153.85 43.7361 152.177C43.7888 150.514 43.7361 149.212 43.579 148.29C43.4209 147.358 43.1583 145.915 42.7904 143.962C41.2151 137.56 40.2166 133.533 39.796 131.89C39.5861 131.366 39.0213 131.193 38.1024 131.379C37.1825 131.564 36.4078 131.736 35.7773 131.89C31.2593 132.481 27.4765 132.21 24.4294 131.101C19.7011 129.831 15.5376 127.568 11.9389 124.313C8.34014 121.058 5.45067 117.115 3.27036 112.484C1.09015 107.853 0 104.334 0 101.925C0 99.5177 0 97.9958 0 97.3607C0 93.0737 0.73552 89.0513 2.20656 85.2933C4.99092 79.4185 8.28763 74.0205 12.0965 69.0984C15.9054 64.1763 20.2528 59.5978 25.1387 55.364Z" fill="#1C1A1A"/>
<path d="M376.097 55.5145C370.453 53.8054 366 49.1609 366 44.9836C366 33.1601 391.813 28.4812 402.473 38.3725C414 49.0687 395.188 61.2953 376.097 55.5145H376.097ZM393.315 52.5442C396.455 47.8287 393.453 38.486 388.013 36.0476C380.025 32.4667 375.129 38.5689 378.456 47.9586C380.757 54.4532 390.119 57.3425 393.315 52.5442Z" fill="#1C1A1A"/>
<path d="M344.475 0V31.0906C344.475 31.0906 344.475 33.1864 344.475 37.3778C347.332 34.6927 350.537 33.3173 354.091 33.2518C356.313 33.2519 358.217 34.2015 359.804 36.1007C361.2 37.869 361.93 39.8337 361.994 41.9949C362.057 43.6977 361.645 45.6624 360.756 47.8891C360.439 48.806 359.74 49.7884 358.661 50.8363C357.836 51.6222 356.979 52.4408 356.091 53.2922C351.394 56.8287 346.697 60.398 342 64V0H344.475ZM352.187 39.539C351.426 38.6221 350.442 38.1637 349.236 38.1637C347.712 38.1637 346.475 39.0478 345.523 40.8161C344.824 42.1914 344.475 45.4332 344.475 50.5415V58.9899C344.539 59.2519 346.316 57.6473 349.807 54.1763C351.711 52.3426 352.949 50.1813 353.52 47.6927C353.774 46.7103 353.901 45.7279 353.901 44.7456C353.901 42.5844 353.33 40.8488 352.187 39.539Z" fill="#1C1A1A"/>
</svg>
