<svg width="736" height="207" viewBox="0 0 736 207" fill="none" xmlns="http://www.w3.org/2000/svg">
<line y1="44.5" x2="736" y2="44.5" stroke="#1C1A1A"/>
<line y1="69.5" x2="736" y2="69.5" stroke="#1C1A1A"/>
<line y1="94.5" x2="736" y2="94.5" stroke="#1C1A1A"/>
<line y1="119.5" x2="736" y2="119.5" stroke="#1C1A1A"/>
<line y1="144.5" x2="736" y2="144.5" stroke="#1C1A1A"/>
<path d="M33.0196 107.694C30.4448 108.54 28.317 109.969 26.636 111.981C24.9547 113.991 23.9303 116.188 23.5625 118.57C23.1947 120.951 23.4969 123.306 24.4688 125.635C25.4407 127.964 27.2664 129.843 29.9456 131.272C30.5761 131.272 30.9699 131.537 31.128 132.066C31.2852 132.595 31.0485 132.859 30.419 132.859C27.8443 132.33 25.5852 131.245 23.6414 129.605C20.0163 126.588 18.02 122.698 17.6522 117.935C17.4421 115.553 17.6653 113.251 18.3221 111.028C18.9787 108.805 19.885 106.767 21.0408 104.914C22.4592 102.957 24.1404 101.263 26.0843 99.834C26.1893 99.7279 26.4915 99.4904 26.9905 99.1197C27.4896 98.749 27.9755 98.4054 28.4484 98.0878C28.9213 97.7702 29.6304 97.2673 30.5761 96.579L27.6604 82.4479C25.0861 84.6179 22.5381 87.0123 20.0164 89.6322C17.4946 92.252 15.2092 95.0181 13.1603 97.9285C11.1115 100.84 9.46968 103.923 8.23502 107.178C7.00047 110.433 6.38319 113.859 6.38319 117.459C6.38319 120.793 7.07923 123.929 8.47151 126.866C9.86369 129.803 11.7156 132.357 14.0272 134.526C16.3388 136.696 19.005 138.403 22.0258 139.648C25.0467 140.891 28.1069 141.513 31.2066 141.513C31.312 141.513 31.7973 141.46 32.6645 141.354C33.5317 141.249 34.4506 141.116 35.4222 140.957C36.3948 140.799 37.2879 140.626 38.1024 140.441C38.9159 140.256 39.3236 140.057 39.3236 139.846L38.8502 137.623C36.8016 127.197 34.8574 117.22 33.0196 107.694ZM35.7773 107.376L42.2394 138.893C45.9697 137.464 48.4907 135.016 49.8045 131.55C51.1182 128.083 51.4195 124.564 50.7104 120.991C50.0014 117.419 48.3336 114.256 45.7062 111.504C43.0798 108.752 39.7701 107.376 35.7773 107.376ZM27.5028 64.9034C29.1311 64.0559 30.6417 62.7865 32.034 61.0924C33.4263 59.3993 34.7132 57.5859 35.8956 55.6543C37.077 53.7228 38.1024 51.7511 38.9686 49.7394C39.8357 47.7287 40.5319 45.9033 41.057 44.2623C41.6348 42.516 42.0286 40.5574 42.2394 38.3874C42.4493 36.2174 42.1081 34.392 41.2151 32.9093C40.5846 31.5868 39.7572 30.8194 38.7329 30.607C37.7076 30.3956 36.6832 30.4748 35.6589 30.8455C34.6346 31.2161 33.663 31.8112 32.7431 32.6318C31.8242 33.4523 31.1539 34.1796 30.7342 34.8148C29.5776 36.8786 28.5663 39.1809 27.6998 41.7216C26.8329 44.2623 26.2418 46.8951 25.9267 49.6212C25.6114 52.3462 25.5721 54.9661 25.8085 57.4807C26.0448 59.9944 26.6096 62.4689 27.5028 64.9034ZM25.1387 67.364C24.2455 63.8715 23.4575 60.4442 22.7745 57.083C22.0915 53.7228 21.7501 50.2694 21.7501 46.7228C21.7501 44.13 21.9339 41.2848 22.3017 38.189C22.6694 35.0933 23.3392 32.0757 24.3112 29.1383C25.2831 26.2009 26.6227 23.568 28.3302 21.2397C30.0381 18.9104 32.3095 17.2173 35.1468 16.1583C35.4093 16.0531 35.6718 16 35.9344 16C36.3023 16 36.7359 16.2114 37.2352 16.6352C37.7344 17.058 38.2595 17.6801 38.8114 18.5006C39.3624 19.3211 39.8487 20.1677 40.2693 21.0413C40.689 21.9139 41.0043 22.51 41.2151 22.8276C42.6332 25.5266 43.6705 28.3979 44.3278 31.4406C44.9842 34.4842 45.3651 37.5138 45.4705 40.5304C45.6803 45.0828 45.4307 49.5811 44.7216 54.0273C44.0126 58.4725 42.5805 62.8126 40.4265 67.0464C39.6915 68.3168 38.9427 69.6001 38.1809 70.8965C37.4192 72.1939 36.5132 73.4502 35.462 74.6675C35.2522 74.8799 34.8713 75.2636 34.3193 75.8186C33.7674 76.3747 33.2025 76.9437 32.6247 77.5258C32.0469 78.1079 31.5348 78.6509 31.0883 79.1528C30.6417 79.6557 30.419 79.9603 30.419 80.0665L33.6491 95.9438C33.6699 96.048 35.2651 95.9438 35.2651 95.9438C38.348 95.9829 41.6119 96.4859 44.4462 97.6109C47.178 98.8813 49.529 100.628 51.4991 102.851C53.4691 105.074 55.0444 107.574 56.2268 110.353C57.4093 113.132 58 115.95 58 118.808C58 121.665 57.5793 124.577 56.739 127.54C54.5849 133.151 51.144 137.305 46.4162 140.004C45.8902 140.322 45.1413 140.68 44.1697 141.076C43.1981 141.473 42.8172 142.095 43.027 142.942C44.2881 148.708 45.1413 152.676 45.5888 154.85C46.0354 157.024 46.3635 159.829 46.5734 163.265C46.7832 166.551 46.2183 169.507 44.8788 172.152C43.5392 174.807 41.7402 176.961 39.4807 178.624C37.2222 180.297 35.1597 181.269 33.295 181.569C31.4294 181.86 30.1554 182 29.4732 182C27.1087 182 24.7972 181.549 22.5381 180.648C19.7536 179.596 17.4158 177.983 15.5245 175.809C13.6332 173.635 12.6875 170.99 12.6875 167.874C12.6875 165.91 13.2523 163.897 14.3818 161.833C15.5114 159.769 16.9955 158.286 18.8342 157.395C20.8832 156.333 22.7351 156.042 24.39 156.513C26.0448 156.994 27.4108 157.895 28.4878 159.218C29.5647 160.54 30.3136 162.143 30.7342 164.017C31.1539 165.9 31.128 167.653 30.6547 169.297C30.1823 170.94 29.2236 172.332 27.7786 173.464C26.3338 174.606 24.3243 175.117 21.7501 175.017C22.8007 176.921 24.2718 178.123 26.1631 178.624C28.0544 179.135 29.9983 179.165 31.9942 178.744C33.9912 178.323 35.8688 177.542 37.629 176.4C39.3892 175.268 40.7686 174.035 41.766 172.713C42.3965 171.761 42.8699 170.519 43.1852 168.986C43.5004 167.443 43.6844 165.85 43.7361 164.177C43.7888 162.514 43.7361 161.212 43.579 160.29C43.4209 159.358 43.1583 157.915 42.7904 155.962C41.2151 149.56 40.2166 145.533 39.796 143.89C39.5861 143.366 39.0213 143.193 38.1024 143.379C37.1825 143.564 36.4078 143.736 35.7773 143.89C31.2593 144.481 27.4765 144.21 24.4294 143.101C19.7011 141.831 15.5376 139.568 11.9389 136.313C8.34014 133.058 5.45067 129.115 3.27036 124.484C1.09015 119.853 0 116.334 0 113.925C0 111.518 0 109.996 0 109.361C0 105.074 0.73552 101.051 2.20656 97.2933C4.99092 91.4185 8.28763 86.0205 12.0965 81.0984C15.9054 76.1763 20.2528 71.5978 25.1387 67.364Z" fill="#1C1A1A"/>
<path d="M376.097 55.5145C370.453 53.8054 366 49.1609 366 44.9836C366 33.1601 391.813 28.4812 402.473 38.3725C414 49.0687 395.188 61.2953 376.097 55.5145H376.097ZM393.315 52.5442C396.455 47.8287 393.453 38.486 388.013 36.0476C380.025 32.4667 375.129 38.5689 378.456 47.9586C380.757 54.4532 390.119 57.3425 393.315 52.5442Z" fill="#1C1A1A"/>
<path d="M344.475 0V31.0906C344.475 31.0906 344.475 33.1864 344.475 37.3778C347.332 34.6927 350.537 33.3173 354.091 33.2518C356.313 33.2519 358.217 34.2015 359.804 36.1007C361.2 37.869 361.93 39.8337 361.994 41.9949C362.057 43.6977 361.645 45.6624 360.756 47.8891C360.439 48.806 359.74 49.7884 358.661 50.8363C357.836 51.6222 356.979 52.4408 356.091 53.2922C351.394 56.8287 346.697 60.398 342 64V0H344.475ZM352.187 39.539C351.426 38.6221 350.442 38.1637 349.236 38.1637C347.712 38.1637 346.475 39.0478 345.523 40.8161C344.824 42.1914 344.475 45.4332 344.475 50.5415V58.9899C344.539 59.2519 346.316 57.6473 349.807 54.1763C351.711 52.3426 352.949 50.1813 353.52 47.6927C353.774 46.7103 353.901 45.7279 353.901 44.7456C353.901 42.5844 353.33 40.8488 352.187 39.539Z" fill="#1C1A1A"/>
</svg>
