<svg width="736" height="207" viewBox="0 0 736 207" fill="none" xmlns="http://www.w3.org/2000/svg">
<line y1="57.5" x2="736" y2="57.5" stroke="#1C1A1A"/>
<line y1="82.5" x2="736" y2="82.5" stroke="#1C1A1A"/>
<line y1="107.5" x2="736" y2="107.5" stroke="#1C1A1A"/>
<line y1="132.5" x2="736" y2="132.5" stroke="#1C1A1A"/>
<line y1="157.5" x2="736" y2="157.5" stroke="#1C1A1A"/>
<path d="M33.0196 120.694C30.4448 121.54 28.317 122.969 26.636 124.981C24.9547 126.991 23.9303 129.188 23.5625 131.57C23.1947 133.951 23.4969 136.306 24.4688 138.635C25.4407 140.964 27.2664 142.843 29.9456 144.272C30.5761 144.272 30.9699 144.537 31.128 145.066C31.2852 145.595 31.0485 145.859 30.419 145.859C27.8443 145.33 25.5852 144.245 23.6414 142.605C20.0163 139.588 18.02 135.698 17.6522 130.935C17.4421 128.553 17.6653 126.251 18.3221 124.028C18.9787 121.805 19.885 119.767 21.0408 117.914C22.4592 115.957 24.1404 114.263 26.0843 112.834C26.1893 112.728 26.4915 112.49 26.9905 112.12C27.4896 111.749 27.9755 111.405 28.4484 111.088C28.9213 110.77 29.6304 110.267 30.5761 109.579L27.6604 95.4479C25.0861 97.6179 22.5381 100.012 20.0164 102.632C17.4946 105.252 15.2092 108.018 13.1603 110.929C11.1115 113.84 9.46968 116.923 8.23502 120.178C7.00047 123.433 6.38319 126.859 6.38319 130.459C6.38319 133.793 7.07923 136.929 8.47151 139.866C9.86369 142.803 11.7156 145.357 14.0272 147.526C16.3388 149.696 19.005 151.403 22.0258 152.648C25.0467 153.891 28.1069 154.513 31.2066 154.513C31.312 154.513 31.7973 154.46 32.6645 154.354C33.5317 154.249 34.4506 154.116 35.4222 153.957C36.3948 153.799 37.2879 153.626 38.1024 153.441C38.9159 153.256 39.3236 153.057 39.3236 152.846L38.8502 150.623C36.8016 140.197 34.8574 130.22 33.0196 120.694ZM35.7773 120.376L42.2394 151.893C45.9697 150.464 48.4907 148.016 49.8045 144.55C51.1182 141.083 51.4195 137.564 50.7104 133.991C50.0014 130.419 48.3336 127.256 45.7062 124.504C43.0798 121.752 39.7701 120.376 35.7773 120.376ZM27.5028 77.9034C29.1311 77.0559 30.6417 75.7865 32.034 74.0924C33.4263 72.3993 34.7132 70.5859 35.8956 68.6543C37.077 66.7228 38.1024 64.7511 38.9686 62.7394C39.8357 60.7287 40.5319 58.9033 41.057 57.2623C41.6348 55.516 42.0286 53.5574 42.2394 51.3874C42.4493 49.2174 42.1081 47.392 41.2151 45.9093C40.5846 44.5868 39.7572 43.8194 38.7329 43.607C37.7076 43.3956 36.6832 43.4748 35.6589 43.8455C34.6346 44.2161 33.663 44.8112 32.7431 45.6318C31.8242 46.4523 31.1539 47.1796 30.7342 47.8148C29.5776 49.8786 28.5663 52.1809 27.6998 54.7216C26.8329 57.2623 26.2418 59.8951 25.9267 62.6212C25.6114 65.3462 25.5721 67.9661 25.8085 70.4807C26.0448 72.9944 26.6096 75.4689 27.5028 77.9034ZM25.1387 80.364C24.2455 76.8715 23.4575 73.4442 22.7745 70.083C22.0915 66.7228 21.7501 63.2694 21.7501 59.7228C21.7501 57.13 21.9339 54.2848 22.3017 51.189C22.6694 48.0933 23.3392 45.0757 24.3112 42.1383C25.2831 39.2009 26.6227 36.568 28.3302 34.2397C30.0381 31.9104 32.3095 30.2173 35.1468 29.1583C35.4093 29.0531 35.6718 29 35.9344 29C36.3023 29 36.7359 29.2114 37.2352 29.6352C37.7344 30.058 38.2595 30.6801 38.8114 31.5006C39.3624 32.3211 39.8487 33.1677 40.2693 34.0413C40.689 34.9139 41.0043 35.51 41.2151 35.8276C42.6332 38.5266 43.6705 41.3979 44.3278 44.4406C44.9842 47.4842 45.3651 50.5138 45.4705 53.5304C45.6803 58.0828 45.4307 62.5811 44.7216 67.0273C44.0126 71.4725 42.5805 75.8126 40.4265 80.0464C39.6915 81.3168 38.9427 82.6001 38.1809 83.8965C37.4192 85.1939 36.5132 86.4502 35.462 87.6675C35.2522 87.8799 34.8713 88.2636 34.3193 88.8186C33.7674 89.3747 33.2025 89.9437 32.6247 90.5258C32.0469 91.1079 31.5348 91.6509 31.0883 92.1528C30.6417 92.6557 30.419 92.9603 30.419 93.0665L33.6491 108.944C33.6699 109.048 35.2651 108.944 35.2651 108.944C38.348 108.983 41.6119 109.486 44.4462 110.611C47.178 111.881 49.529 113.628 51.4991 115.851C53.4691 118.074 55.0444 120.574 56.2268 123.353C57.4093 126.132 58 128.95 58 131.808C58 134.665 57.5793 137.577 56.739 140.54C54.5849 146.151 51.144 150.305 46.4162 153.004C45.8902 153.322 45.1413 153.68 44.1697 154.076C43.1981 154.473 42.8172 155.095 43.027 155.942C44.2881 161.708 45.1413 165.676 45.5888 167.85C46.0354 170.024 46.3635 172.829 46.5734 176.265C46.7832 179.551 46.2183 182.507 44.8788 185.152C43.5392 187.807 41.7402 189.961 39.4807 191.624C37.2222 193.297 35.1597 194.269 33.295 194.569C31.4294 194.86 30.1554 195 29.4732 195C27.1087 195 24.7972 194.549 22.5381 193.648C19.7536 192.596 17.4158 190.983 15.5245 188.809C13.6332 186.635 12.6875 183.99 12.6875 180.874C12.6875 178.91 13.2523 176.897 14.3818 174.833C15.5114 172.769 16.9955 171.286 18.8342 170.395C20.8832 169.333 22.7351 169.042 24.39 169.513C26.0448 169.994 27.4108 170.895 28.4878 172.218C29.5647 173.54 30.3136 175.143 30.7342 177.017C31.1539 178.9 31.128 180.653 30.6547 182.297C30.1823 183.94 29.2236 185.332 27.7786 186.464C26.3338 187.606 24.3243 188.117 21.7501 188.017C22.8007 189.921 24.2718 191.123 26.1631 191.624C28.0544 192.135 29.9983 192.165 31.9942 191.744C33.9912 191.323 35.8688 190.542 37.629 189.4C39.3892 188.268 40.7686 187.035 41.766 185.713C42.3965 184.761 42.8699 183.519 43.1852 181.986C43.5004 180.443 43.6844 178.85 43.7361 177.177C43.7888 175.514 43.7361 174.212 43.579 173.29C43.4209 172.358 43.1583 170.915 42.7904 168.962C41.2151 162.56 40.2166 158.533 39.796 156.89C39.5861 156.366 39.0213 156.193 38.1024 156.379C37.1825 156.564 36.4078 156.736 35.7773 156.89C31.2593 157.481 27.4765 157.21 24.4294 156.101C19.7011 154.831 15.5376 152.568 11.9389 149.313C8.34014 146.058 5.45067 142.115 3.27036 137.484C1.09015 132.853 0 129.334 0 126.925C0 124.518 0 122.996 0 122.361C0 118.074 0.73552 114.051 2.20656 110.293C4.99092 104.418 8.28763 99.0205 12.0965 94.0984C15.9054 89.1763 20.2528 84.5978 25.1387 80.364Z" fill="#1C1A1A"/>
<path d="M376.097 55.5145C370.453 53.8054 366 49.1609 366 44.9836C366 33.1601 391.813 28.4812 402.473 38.3725C414 49.0687 395.188 61.2953 376.097 55.5145H376.097ZM393.315 52.5442C396.455 47.8287 393.453 38.486 388.013 36.0476C380.025 32.4667 375.129 38.5689 378.456 47.9586C380.757 54.4532 390.119 57.3425 393.315 52.5442Z" fill="#1C1A1A"/>
<path d="M344.475 0V31.0906C344.475 31.0906 344.475 33.1864 344.475 37.3778C347.332 34.6927 350.537 33.3173 354.091 33.2518C356.313 33.2519 358.217 34.2015 359.804 36.1007C361.2 37.869 361.93 39.8337 361.994 41.9949C362.057 43.6977 361.645 45.6624 360.756 47.8891C360.439 48.806 359.74 49.7884 358.661 50.8363C357.836 51.6222 356.979 52.4408 356.091 53.2922C351.394 56.8287 346.697 60.398 342 64V0H344.475ZM352.187 39.539C351.426 38.6221 350.442 38.1637 349.236 38.1637C347.712 38.1637 346.475 39.0478 345.523 40.8161C344.824 42.1914 344.475 45.4332 344.475 50.5415V58.9899C344.539 59.2519 346.316 57.6473 349.807 54.1763C351.711 52.3426 352.949 50.1813 353.52 47.6927C353.774 46.7103 353.901 45.7279 353.901 44.7456C353.901 42.5844 353.33 40.8488 352.187 39.539Z" fill="#1C1A1A"/>
</svg>
