<svg width="870.2" height="196" viewBox="0 0 870.2 196" fill="none" xmlns="http://www.w3.org/2000/svg">
<line x1="1" y1="57.5" x2="870.2" y2="57.5" stroke="#1C1A1A"/>
<line x1="1" y1="82.5" x2="870.2" y2="82.5" stroke="#1C1A1A"/>
<line x1="1" y1="107.5" x2="870.2" y2="107.5" stroke="#1C1A1A"/>
<line x1="1" y1="132.5" x2="870.2" y2="132.5" stroke="#1C1A1A"/>
<line x1="1" y1="157.5" x2="870.2" y2="157.5" stroke="#1C1A1A"/>
<path d="M377.097 55.5145C371.453 53.8054 367 49.1609 367 44.9836C367 33.1601 392.813 28.4812 403.473 38.3725C415 49.0687 396.188 61.2953 377.097 55.5145H377.097ZM394.315 52.5442C397.455 47.8287 394.453 38.486 389.013 36.0476C381.025 32.4667 376.129 38.5689 379.456 47.9586C381.757 54.4532 391.119 57.3425 394.315 52.5442Z" fill="#1C1A1A"/>
<path d="M345.475 0V31.0906C345.475 31.0906 345.475 33.1864 345.475 37.3778C348.332 34.6927 351.537 33.3173 355.091 33.2518C357.313 33.2519 359.217 34.2015 360.804 36.1007C362.2 37.869 362.93 39.8337 362.994 41.9949C363.057 43.6977 362.645 45.6624 361.756 47.8891C361.439 48.806 360.74 49.7884 359.661 50.8363C358.836 51.6222 357.979 52.4408 357.091 53.2922C352.394 56.8287 347.697 60.398 343 64V0H345.475ZM353.187 39.539C352.426 38.6221 351.442 38.1637 350.236 38.1637C348.712 38.1637 347.475 39.0478 346.523 40.8161C345.824 42.1914 345.475 45.4332 345.475 50.5415V58.9899C345.539 59.2519 347.316 57.6473 350.807 54.1763C352.711 52.3426 353.949 50.1813 354.52 47.6927C354.774 46.7103 354.901 45.7279 354.901 44.7456C354.901 42.5844 354.33 40.8488 353.187 39.539Z" fill="#1C1A1A"/>
<path d="M27.1226 131.24C24.7962 133.193 12.4703 140.891 4.9764 142C7.10156 140.891 7.77263 140.225 13.5888 136.565C19.306 132.967 26.3397 125.694 32.2677 118.817C37.0101 113.315 39.9108 104.619 40.7683 100.959C42.2894 97.3203 42.2223 89.1638 41.9986 85.5403C41.9613 82.0278 40.4104 73.605 34.5047 68.0145C27.1226 61.0264 19.6287 64.9087 18.2865 65.3524C16.9443 65.7961 12.3585 69.0128 11.0163 71.8968C9.94251 74.204 10.5689 74.9287 11.0163 75.0026C15.273 73.117 19.3501 74.2001 21.8721 76.0009C24.6684 77.9976 27.0172 80.9925 26.7935 85.5403C26.6146 89.1786 24.824 91.8629 23.4818 93.194C20.6855 96.2998 16.1986 96.6326 13.7007 96.6326C7.66078 96.2998 3.86507 91.9743 3.07496 90.6428C2.74586 90.0881 -0.391563 85.0966 1.73276 76.4446C3.48062 69.326 10.1588 63.7625 13.477 61.9138C24.1027 56.4785 31.5966 57.7295 36.4062 59.5844C42.446 61.9138 49.9901 69.1237 51.8414 75.4463C53.6927 81.7689 54.6376 86.7605 53.5191 92.8612C52.4006 98.962 50.8348 103.177 45.1304 112.384C39.4261 121.59 30.0307 128.8 27.1226 131.24Z" fill="black"/>
<path d="M4.9764 142L4.74504 141.557C4.52868 141.67 4.42547 141.922 4.50085 142.154C4.57623 142.387 4.80818 142.53 5.04961 142.495L4.9764 142ZM27.1226 131.24L26.8012 130.857L27.1226 131.24ZM45.1304 112.384L45.5555 112.647L45.1304 112.384ZM51.8414 75.4463L52.3213 75.3058L51.8414 75.4463ZM36.4062 59.5844L36.5861 59.1179V59.1179L36.4062 59.5844ZM13.477 61.9138L13.2493 61.4686L13.2414 61.4727L13.2336 61.477L13.477 61.9138ZM1.73276 76.4446L2.21834 76.5639L1.73276 76.4446ZM3.07496 90.6428L2.64496 90.8979H2.64496L3.07496 90.6428ZM13.7007 96.6326L13.6732 97.1318L13.6869 97.1326H13.7007V96.6326ZM23.4818 93.194L23.1297 92.839L23.1196 92.8489L23.1102 92.8594L23.4818 93.194ZM26.7935 85.5403L26.2941 85.5157L26.7935 85.5403ZM21.8721 76.0009L22.1627 75.594L21.8721 76.0009ZM11.0163 75.0026L10.9347 75.496L11.0822 75.5203L11.2188 75.4598L11.0163 75.0026ZM11.0163 71.8968L11.4696 72.1078L11.0163 71.8968ZM18.2865 65.3524L18.4434 65.8271L18.2865 65.3524ZM34.5047 68.0145L34.161 68.3776L34.5047 68.0145ZM41.9986 85.5403L41.4986 85.5456L41.4988 85.5584L41.4996 85.5711L41.9986 85.5403ZM40.7683 100.959L40.307 100.766L40.2909 100.804L40.2814 100.845L40.7683 100.959ZM32.2677 118.817L31.889 118.491L32.2677 118.817ZM13.5888 136.565L13.8551 136.988L13.5888 136.565ZM5.04961 142.495C8.8889 141.926 13.9096 139.687 18.2233 137.377C22.5423 135.065 26.2412 132.633 27.444 131.624L26.8012 130.857C25.6776 131.8 22.0503 134.194 17.7513 136.496C13.447 138.8 8.55782 140.964 4.90319 141.505L5.04961 142.495ZM27.444 131.624C30.3278 129.204 39.7992 121.937 45.5555 112.647L44.7054 112.12C39.053 121.243 29.7337 128.397 26.8012 130.857L27.444 131.624ZM45.5555 112.647C51.2815 103.405 52.8779 99.1314 54.0109 92.9514L53.0273 92.771C51.9234 98.7925 50.388 102.949 44.7054 112.12L45.5555 112.647ZM54.0109 92.9514C55.1504 86.7362 54.1803 81.655 52.3213 75.3058L51.3615 75.5868C53.205 81.8829 54.1249 86.7847 53.0273 92.771L54.0109 92.9514ZM52.3213 75.3058C51.3632 72.0339 48.9526 68.5806 46.0488 65.6651C43.1422 62.7467 39.689 60.3146 36.5861 59.1179L36.2262 60.0509C39.1631 61.1835 42.502 63.5211 45.3402 66.3707C48.1812 69.2231 50.4683 72.5362 51.3615 75.5868L52.3213 75.3058ZM36.5861 59.1179C31.6555 57.2163 24.0124 55.9631 13.2493 61.4686L13.7047 62.3589C24.1929 56.994 31.5377 58.2427 36.2262 60.0509L36.5861 59.1179ZM13.2336 61.477C11.5252 62.4288 8.98435 64.3161 6.64743 66.8651C4.31098 69.4136 2.14795 72.6568 1.24718 76.3254L2.21834 76.5639C3.06543 73.1138 5.11541 70.0159 7.38454 67.5408C9.65322 65.0663 12.1106 63.2474 13.7203 62.3505L13.2336 61.477ZM1.24718 76.3254C-0.921034 85.1562 2.2821 90.2864 2.64496 90.8979L3.50495 90.3876C3.20962 89.8899 0.137908 85.0371 2.21834 76.5639L1.24718 76.3254ZM2.64496 90.8979C3.07914 91.6296 4.27552 93.0937 6.12826 94.4189C7.98869 95.7496 10.5371 96.959 13.6732 97.1318L13.7282 96.1333C10.8244 95.9734 8.45496 94.8536 6.71003 93.6055C4.95742 92.3519 3.86089 90.9874 3.50495 90.3876L2.64496 90.8979ZM13.7007 97.1326C16.2027 97.1326 20.8984 96.8107 23.8534 93.5285L23.1102 92.8594C20.4727 95.7889 16.1946 96.1326 13.7007 96.1326V97.1326ZM23.8339 93.549C25.2438 92.1507 27.1065 89.3543 27.2929 85.5649L26.2941 85.5157C26.1226 89.0028 24.4041 91.5751 23.1297 92.839L23.8339 93.549ZM27.2929 85.5649C27.5276 80.7942 25.0481 77.6543 22.1627 75.594L21.5816 76.4079C24.2887 78.3408 26.5069 81.1907 26.2941 85.5157L27.2929 85.5649ZM22.1627 75.594C19.5206 73.7075 15.2573 72.5771 10.8138 74.5455L11.2188 75.4598C15.2888 73.6568 19.1796 74.6928 21.5816 76.4079L22.1627 75.594ZM11.0978 74.5093C11.097 74.5092 11.0748 74.5052 11.0451 74.4727C11.0162 74.4412 10.9654 74.3659 10.9393 74.2065C10.8847 73.8729 10.9497 73.2249 11.4696 72.1078L10.563 71.6858C10.0091 72.876 9.85035 73.7439 9.95239 74.3679C10.0595 75.0228 10.466 75.4185 10.9347 75.496L11.0978 74.5093ZM11.4696 72.1078C12.0918 70.7709 13.5011 69.3042 14.9692 68.0955C15.6953 67.4977 16.4202 66.9757 17.0424 66.5778C17.6759 66.1727 18.1704 65.9173 18.4434 65.8271L18.1296 64.8776C17.7315 65.0092 17.1494 65.3224 16.5037 65.7353C15.8466 66.1555 15.0895 66.7011 14.3336 67.3235C12.8377 68.5551 11.283 70.1387 10.563 71.6858L11.4696 72.1078ZM18.4434 65.8271C19.1825 65.5828 21.2815 64.5438 24.1563 64.3958C26.9978 64.2496 30.579 64.9869 34.161 68.3776L34.8484 67.6514C31.0483 64.054 27.1915 63.2383 24.1049 63.3972C21.0517 63.5543 18.7327 64.6783 18.1296 64.8776L18.4434 65.8271ZM34.161 68.3776C39.9317 73.8404 41.4622 82.1084 41.4986 85.5456L42.4986 85.535C42.4605 81.9471 40.889 73.3696 34.8484 67.6514L34.161 68.3776ZM41.4996 85.5711C41.6105 87.3674 41.6827 90.2937 41.5384 93.2193C41.393 96.1656 41.0305 99.0352 40.307 100.766L41.2296 101.151C42.0272 99.2437 42.3917 96.2159 42.5372 93.2685C42.6836 90.3004 42.6105 87.3367 42.4977 85.5095L41.4996 85.5711ZM40.2814 100.845C39.4308 104.476 36.5535 113.079 31.889 118.491L32.6464 119.144C37.4668 113.551 40.3908 104.762 41.2551 101.073L40.2814 100.845ZM31.889 118.491C25.961 125.368 18.9699 132.587 13.3225 136.142L13.8551 136.988C19.6422 133.346 26.7183 126.021 32.6464 119.144L31.889 118.491ZM13.3225 136.142C10.4095 137.975 8.78348 139.059 7.62388 139.821C6.46733 140.581 5.78498 141.014 4.74504 141.557L5.20776 142.443C6.29298 141.877 7.00874 141.422 8.17307 140.657C9.33434 139.894 10.9519 138.815 13.8551 136.988L13.3225 136.142Z" fill="black"/>
<ellipse cx="66.4852" cy="70.1558" rx="6.51452" ry="6.49758" fill="black"/>
<ellipse cx="66.4852" cy="94.647" rx="6.51452" ry="6.49758" fill="black"/>
</svg>
