<svg width="736" height="228" viewBox="0 0 736 228" fill="none" xmlns="http://www.w3.org/2000/svg">
<path d="M356.097 42.5145C350.453 40.8054 346 36.1609 346 31.9836C346 20.1601 371.813 15.4812 382.473 25.3725C394 36.0687 375.188 48.2953 356.097 42.5145H356.097ZM373.315 39.5442C376.455 34.8287 373.453 25.486 368.013 23.0476C360.025 19.4667 355.129 25.5689 358.456 34.9586C360.757 41.4532 370.119 44.3425 373.315 39.5442Z" fill="#1C1A1A"/>
<line x1="340" y1="56.5" x2="392" y2="56.5" stroke="#1C1A1A"/>
<line x1="340" y1="31.5" x2="392" y2="31.5" stroke="#1C1A1A"/>
<line y1="81.5" x2="736" y2="81.5" stroke="#1C1A1A"/>
<line y1="106.5" x2="736" y2="106.5" stroke="#1C1A1A"/>
<line y1="131.5" x2="736" y2="131.5" stroke="#1C1A1A"/>
<line y1="156.5" x2="736" y2="156.5" stroke="#1C1A1A"/>
<line y1="181.5" x2="736" y2="181.5" stroke="#1C1A1A"/>
<path d="M317.475 0V31.0906C317.475 31.0906 317.475 33.1864 317.475 37.3778C320.332 34.6927 323.537 33.3173 327.091 33.2518C329.313 33.2519 331.217 34.2015 332.804 36.1007C334.2 37.869 334.93 39.8337 334.994 41.9949C335.057 43.6977 334.645 45.6624 333.756 47.8891C333.439 48.806 332.74 49.7884 331.661 50.8363C330.836 51.6222 329.979 52.4408 329.091 53.2922C324.394 56.8287 319.697 60.398 315 64V0H317.475V0ZM325.187 39.539C324.426 38.6221 323.442 38.1637 322.236 38.1637C320.712 38.1637 319.475 39.0478 318.523 40.8161C317.824 42.1914 317.475 45.4332 317.475 50.5415V58.9899C317.539 59.2519 319.316 57.6473 322.807 54.1763C324.711 52.3426 325.949 50.1813 326.52 47.6927C326.774 46.7103 326.901 45.7279 326.901 44.7456C326.901 42.5844 326.33 40.8488 325.187 39.539" fill="#1C1A1A"/>
<path d="M31.1226 156.24C28.7962 158.193 16.4703 165.891 8.9764 167C11.1016 165.891 11.7726 165.225 17.5888 161.565C23.306 157.967 30.3397 150.694 36.2677 143.817C41.0101 138.315 43.9108 129.619 44.7683 125.959C46.2894 122.32 46.2223 114.164 45.9986 110.54C45.9613 107.028 44.4104 98.605 38.5047 93.0145C31.1226 86.0264 23.6287 89.9087 22.2865 90.3524C20.9443 90.7961 16.3585 94.0128 15.0163 96.8968C13.9425 99.204 14.5689 99.9287 15.0163 100.003C19.273 98.117 23.3501 99.2001 25.8721 101.001C28.6684 102.998 31.0172 105.992 30.7935 110.54C30.6146 114.179 28.824 116.863 27.4818 118.194C24.6855 121.3 20.1986 121.633 17.7007 121.633C11.6608 121.3 7.86507 116.974 7.07496 115.643C6.74586 115.088 3.60844 110.097 5.73276 101.445C7.48062 94.326 14.1588 88.7625 17.477 86.9138C28.1027 81.4785 35.5966 82.7295 40.4062 84.5844C46.446 86.9138 53.9901 94.1237 55.8414 100.446C57.6927 106.769 58.6376 111.76 57.5191 117.861C56.4006 123.962 54.8348 128.177 49.1304 137.384C43.4261 146.59 34.0307 153.8 31.1226 156.24Z" fill="black"/>
<path d="M8.9764 167L8.74504 166.557C8.52868 166.67 8.42547 166.922 8.50085 167.154C8.57623 167.387 8.80818 167.53 9.04961 167.495L8.9764 167ZM31.1226 156.24L30.8012 155.857L30.8012 155.857L31.1226 156.24ZM49.1304 137.384L49.5554 137.647L49.5554 137.647L49.1304 137.384ZM55.8414 100.446L56.3212 100.306L56.3212 100.306L55.8414 100.446ZM40.4062 84.5844L40.5861 84.1179L40.5861 84.1179L40.4062 84.5844ZM17.477 86.9138L17.2493 86.4686L17.2414 86.4727L17.2336 86.477L17.477 86.9138ZM5.73276 101.445L6.21834 101.564L6.21834 101.564L5.73276 101.445ZM7.07496 115.643L6.64496 115.898L6.64496 115.898L7.07496 115.643ZM17.7007 121.633L17.6732 122.132L17.6869 122.133H17.7007V121.633ZM27.4818 118.194L27.1297 117.839L27.1196 117.849L27.1102 117.859L27.4818 118.194ZM30.7935 110.54L30.2941 110.516L30.2941 110.516L30.7935 110.54ZM25.8721 101.001L26.1627 100.594L26.1627 100.594L25.8721 101.001ZM15.0163 100.003L14.9347 100.496L15.0822 100.52L15.2188 100.46L15.0163 100.003ZM15.0163 96.8968L15.4696 97.1078L15.4696 97.1078L15.0163 96.8968ZM22.2865 90.3524L22.4434 90.8271L22.4434 90.8271L22.2865 90.3524ZM38.5047 93.0145L38.161 93.3776L38.5047 93.0145ZM45.9986 110.54L45.4986 110.546L45.4988 110.558L45.4996 110.571L45.9986 110.54ZM44.7683 125.959L44.307 125.766L44.2909 125.804L44.2814 125.845L44.7683 125.959ZM36.2677 143.817L35.889 143.491L35.889 143.491L36.2677 143.817ZM17.5888 161.565L17.8551 161.988L17.5888 161.565ZM9.04961 167.495C12.8889 166.926 17.9096 164.687 22.2233 162.377C26.5423 160.065 30.2412 157.633 31.444 156.624L30.8012 155.857C29.6776 156.8 26.0503 159.194 21.7513 161.496C17.447 163.8 12.5578 165.964 8.90319 166.505L9.04961 167.495ZM31.444 156.624C34.3278 154.204 43.7992 146.937 49.5554 137.647L48.7054 137.12C43.053 146.243 33.7337 153.397 30.8012 155.857L31.444 156.624ZM49.5554 137.647C55.2815 128.405 56.8779 124.131 58.0109 117.951L57.0273 117.771C55.9234 123.792 54.388 127.949 48.7054 137.12L49.5554 137.647ZM58.0109 117.951C59.1504 111.736 58.1803 106.655 56.3212 100.306L55.3615 100.587C57.205 106.883 58.1249 111.785 57.0273 117.771L58.0109 117.951ZM56.3212 100.306C55.3632 97.0339 52.9526 93.5806 50.0488 90.6651C47.1422 87.7467 43.689 85.3146 40.5861 84.1179L40.2262 85.0509C43.1631 86.1835 46.502 88.5211 49.3402 91.3707C52.1812 94.2231 54.4683 97.5362 55.3615 100.587L56.3212 100.306ZM40.5861 84.1179C35.6555 82.2163 28.0124 80.9631 17.2493 86.4686L17.7047 87.3589C28.1929 81.994 35.5377 83.2427 40.2262 85.0509L40.5861 84.1179ZM17.2336 86.477C15.5252 87.4288 12.9843 89.3161 10.6474 91.8651C8.31098 94.4136 6.14795 97.6568 5.24718 101.325L6.21834 101.564C7.06543 98.1138 9.11541 95.0159 11.3845 92.5408C13.6532 90.0663 16.1106 88.2474 17.7203 87.3505L17.2336 86.477ZM5.24718 101.325C3.07897 110.156 6.2821 115.286 6.64496 115.898L7.50495 115.388C7.20962 114.89 4.13791 110.037 6.21834 101.564L5.24718 101.325ZM6.64496 115.898C7.07914 116.63 8.27552 118.094 10.1283 119.419C11.9887 120.75 14.5371 121.959 17.6732 122.132L17.7282 121.133C14.8244 120.973 12.455 119.854 10.71 118.606C8.95742 117.352 7.86089 115.987 7.50495 115.388L6.64496 115.898ZM17.7007 122.133C20.2027 122.133 24.8984 121.811 27.8534 118.529L27.1102 117.859C24.4727 120.789 20.1946 121.133 17.7007 121.133V122.133ZM27.8339 118.549C29.2438 117.151 31.1065 114.354 31.2929 110.565L30.2941 110.516C30.1226 114.003 28.4041 116.575 27.1297 117.839L27.8339 118.549ZM31.2929 110.565C31.5276 105.794 29.0481 102.654 26.1627 100.594L25.5816 101.408C28.2887 103.341 30.5069 106.191 30.2941 110.516L31.2929 110.565ZM26.1627 100.594C23.5206 98.7075 19.2573 97.5771 14.8138 99.5455L15.2188 100.46C19.2888 98.6568 23.1796 99.6928 25.5816 101.408L26.1627 100.594ZM15.0978 99.5093C15.097 99.5092 15.0748 99.5052 15.0451 99.4727C15.0162 99.4412 14.9654 99.3659 14.9393 99.2065C14.8847 98.8729 14.9497 98.2249 15.4696 97.1078L14.563 96.6858C14.0091 97.876 13.8504 98.7439 13.9524 99.3679C14.0595 100.023 14.466 100.418 14.9347 100.496L15.0978 99.5093ZM15.4696 97.1078C16.0918 95.7709 17.5011 94.3042 18.9692 93.0955C19.6953 92.4977 20.4202 91.9757 21.0424 91.5778C21.6759 91.1727 22.1704 90.9173 22.4434 90.8271L22.1296 89.8776C21.7315 90.0092 21.1494 90.3224 20.5037 90.7353C19.8466 91.1555 19.0895 91.7011 18.3336 92.3235C16.8377 93.5551 15.283 95.1387 14.563 96.6858L15.4696 97.1078ZM22.4434 90.8271C23.1825 90.5828 25.2815 89.5438 28.1563 89.3958C30.9978 89.2496 34.579 89.9869 38.161 93.3776L38.8484 92.6514C35.0483 89.054 31.1915 88.2383 28.1049 88.3972C25.0517 88.5543 22.7327 89.6783 22.1296 89.8776L22.4434 90.8271ZM38.161 93.3776C43.9317 98.8404 45.4622 107.108 45.4986 110.546L46.4986 110.535C46.4605 106.947 44.889 98.3696 38.8484 92.6514L38.161 93.3776ZM45.4996 110.571C45.6105 112.367 45.6827 115.294 45.5384 118.219C45.393 121.166 45.0305 124.035 44.307 125.766L45.2296 126.151C46.0272 124.244 46.3917 121.216 46.5372 118.269C46.6836 115.3 46.6105 112.337 46.4977 110.51L45.4996 110.571ZM44.2814 125.845C43.4308 129.476 40.5534 138.079 35.889 143.491L36.6464 144.144C41.4668 138.551 44.3908 129.762 45.2551 126.073L44.2814 125.845ZM35.889 143.491C29.961 150.368 22.9699 157.587 17.3225 161.142L17.8551 161.988C23.6422 158.346 30.7183 151.021 36.6464 144.144L35.889 143.491ZM17.3225 161.142C14.4095 162.975 12.7835 164.059 11.6239 164.821C10.4673 165.581 9.78498 166.014 8.74504 166.557L9.20776 167.443C10.293 166.877 11.0087 166.422 12.1731 165.657C13.3343 164.894 14.9519 163.815 17.8551 161.988L17.3225 161.142Z" fill="black"/>
<ellipse cx="70.4852" cy="95.1558" rx="6.51452" ry="6.49758" fill="black"/>
<ellipse cx="70.4852" cy="119.647" rx="6.51452" ry="6.49758" fill="black"/>
</svg>
