<svg width="736" height="218" viewBox="0 0 736 218" fill="none" xmlns="http://www.w3.org/2000/svg">
<path d="M356.097 44.5145C350.453 42.8054 346 38.1609 346 33.9836C346 22.1601 371.813 17.4812 382.473 27.3725C394 38.0687 375.188 50.2953 356.097 44.5145H356.097ZM373.315 41.5442C376.455 36.8287 373.453 27.486 368.013 25.0476C360.025 21.4667 355.129 27.5689 358.456 36.9586C360.757 43.4532 370.119 46.3425 373.315 41.5442Z" fill="#1C1A1A"/>
<line x1="340" y1="46.5" x2="392" y2="46.5" stroke="#1C1A1A"/>
<line y1="71.5" x2="736" y2="71.5" stroke="#1C1A1A"/>
<line y1="96.5" x2="736" y2="96.5" stroke="#1C1A1A"/>
<line y1="121.5" x2="736" y2="121.5" stroke="#1C1A1A"/>
<line y1="146.5" x2="736" y2="146.5" stroke="#1C1A1A"/>
<line y1="171.5" x2="736" y2="171.5" stroke="#1C1A1A"/>
<path d="M320.475 0.25V31.3406C320.475 31.3406 320.475 33.4364 320.475 37.6278C323.332 34.9427 326.537 33.5673 330.091 33.5018C332.313 33.5019 334.217 34.4515 335.804 36.3507C337.2 38.119 337.93 40.0837 337.994 42.2449C338.057 43.9477 337.645 45.9124 336.756 48.1391C336.439 49.056 335.74 50.0384 334.661 51.0863C333.836 51.8722 332.979 52.6908 332.091 53.5422C327.394 57.0787 322.697 60.648 318 64.25V0.25H320.475V0.25ZM328.187 39.789C327.426 38.8721 326.442 38.4137 325.236 38.4137C323.712 38.4137 322.475 39.2978 321.523 41.0661C320.824 42.4414 320.475 45.6832 320.475 50.7915V59.2399C320.539 59.5019 322.316 57.8973 325.807 54.4263C327.711 52.5926 328.949 50.4313 329.52 47.9427C329.774 46.9603 329.901 45.9779 329.901 44.9956C329.901 42.8344 329.33 41.0988 328.187 39.789" fill="#1C1A1A"/>
<path d="M31.1226 146.24C28.7962 148.193 16.4703 155.891 8.9764 157C11.1016 155.891 11.7726 155.225 17.5888 151.565C23.306 147.967 30.3397 140.694 36.2677 133.817C41.0101 128.315 43.9108 119.619 44.7683 115.959C46.2894 112.32 46.2223 104.164 45.9986 100.54C45.9613 97.0278 44.4104 88.605 38.5047 83.0145C31.1226 76.0264 23.6287 79.9087 22.2865 80.3524C20.9443 80.7961 16.3585 84.0128 15.0163 86.8968C13.9425 89.204 14.5689 89.9287 15.0163 90.0026C19.273 88.117 23.3501 89.2001 25.8721 91.0009C28.6684 92.9976 31.0172 95.9925 30.7935 100.54C30.6146 104.179 28.824 106.863 27.4818 108.194C24.6855 111.3 20.1986 111.633 17.7007 111.633C11.6608 111.3 7.86507 106.974 7.07496 105.643C6.74586 105.088 3.60844 100.097 5.73276 91.4446C7.48062 84.326 14.1588 78.7625 17.477 76.9138C28.1027 71.4785 35.5966 72.7295 40.4062 74.5844C46.446 76.9138 53.9901 84.1237 55.8414 90.4463C57.6927 96.7689 58.6376 101.76 57.5191 107.861C56.4006 113.962 54.8348 118.177 49.1304 127.384C43.4261 136.59 34.0307 143.8 31.1226 146.24Z" fill="black"/>
<path d="M8.9764 157L8.74504 156.557C8.52868 156.67 8.42547 156.922 8.50085 157.154C8.57623 157.387 8.80818 157.53 9.04961 157.495L8.9764 157ZM31.1226 146.24L30.8012 145.857L30.8012 145.857L31.1226 146.24ZM49.1304 127.384L49.5554 127.647L49.5554 127.647L49.1304 127.384ZM55.8414 90.4463L56.3212 90.3058L56.3212 90.3058L55.8414 90.4463ZM40.4062 74.5844L40.5861 74.1179L40.5861 74.1179L40.4062 74.5844ZM17.477 76.9138L17.2493 76.4686L17.2414 76.4727L17.2336 76.477L17.477 76.9138ZM5.73276 91.4446L6.21834 91.5639L6.21834 91.5639L5.73276 91.4446ZM7.07496 105.643L6.64496 105.898L6.64496 105.898L7.07496 105.643ZM17.7007 111.633L17.6732 112.132L17.6869 112.133H17.7007V111.633ZM27.4818 108.194L27.1297 107.839L27.1196 107.849L27.1102 107.859L27.4818 108.194ZM30.7935 100.54L30.2941 100.516L30.2941 100.516L30.7935 100.54ZM25.8721 91.0009L26.1627 90.594L26.1627 90.594L25.8721 91.0009ZM15.0163 90.0026L14.9347 90.496L15.0822 90.5203L15.2188 90.4598L15.0163 90.0026ZM15.0163 86.8968L15.4696 87.1078L15.4696 87.1078L15.0163 86.8968ZM22.2865 80.3524L22.4434 80.8271L22.4434 80.8271L22.2865 80.3524ZM38.5047 83.0145L38.161 83.3776L38.5047 83.0145ZM45.9986 100.54L45.4986 100.546L45.4988 100.558L45.4996 100.571L45.9986 100.54ZM44.7683 115.959L44.307 115.766L44.2909 115.804L44.2814 115.845L44.7683 115.959ZM36.2677 133.817L35.889 133.491L35.889 133.491L36.2677 133.817ZM17.5888 151.565L17.8551 151.988L17.5888 151.565ZM9.04961 157.495C12.8889 156.926 17.9096 154.687 22.2233 152.377C26.5423 150.065 30.2412 147.633 31.444 146.624L30.8012 145.857C29.6776 146.8 26.0503 149.194 21.7513 151.496C17.447 153.8 12.5578 155.964 8.90319 156.505L9.04961 157.495ZM31.444 146.624C34.3278 144.204 43.7992 136.937 49.5554 127.647L48.7054 127.12C43.053 136.243 33.7337 143.397 30.8012 145.857L31.444 146.624ZM49.5554 127.647C55.2815 118.405 56.8779 114.131 58.0109 107.951L57.0273 107.771C55.9234 113.792 54.388 117.949 48.7054 127.12L49.5554 127.647ZM58.0109 107.951C59.1504 101.736 58.1803 96.655 56.3212 90.3058L55.3615 90.5868C57.205 96.8829 58.1249 101.785 57.0273 107.771L58.0109 107.951ZM56.3212 90.3058C55.3632 87.0339 52.9526 83.5806 50.0488 80.6651C47.1422 77.7467 43.689 75.3146 40.5861 74.1179L40.2262 75.0509C43.1631 76.1835 46.502 78.5211 49.3402 81.3707C52.1812 84.2231 54.4683 87.5362 55.3615 90.5868L56.3212 90.3058ZM40.5861 74.1179C35.6555 72.2163 28.0124 70.9631 17.2493 76.4686L17.7047 77.3589C28.1929 71.994 35.5377 73.2427 40.2262 75.0509L40.5861 74.1179ZM17.2336 76.477C15.5252 77.4288 12.9843 79.3161 10.6474 81.8651C8.31098 84.4136 6.14795 87.6568 5.24718 91.3254L6.21834 91.5639C7.06543 88.1138 9.11541 85.0159 11.3845 82.5408C13.6532 80.0663 16.1106 78.2474 17.7203 77.3505L17.2336 76.477ZM5.24718 91.3254C3.07897 100.156 6.2821 105.286 6.64496 105.898L7.50495 105.388C7.20962 104.89 4.13791 100.037 6.21834 91.5639L5.24718 91.3254ZM6.64496 105.898C7.07914 106.63 8.27552 108.094 10.1283 109.419C11.9887 110.75 14.5371 111.959 17.6732 112.132L17.7282 111.133C14.8244 110.973 12.455 109.854 10.71 108.606C8.95742 107.352 7.86089 105.987 7.50495 105.388L6.64496 105.898ZM17.7007 112.133C20.2027 112.133 24.8984 111.811 27.8534 108.529L27.1102 107.859C24.4727 110.789 20.1946 111.133 17.7007 111.133V112.133ZM27.8339 108.549C29.2438 107.151 31.1065 104.354 31.2929 100.565L30.2941 100.516C30.1226 104.003 28.4041 106.575 27.1297 107.839L27.8339 108.549ZM31.2929 100.565C31.5276 95.7942 29.0481 92.6543 26.1627 90.594L25.5816 91.4079C28.2887 93.3408 30.5069 96.1907 30.2941 100.516L31.2929 100.565ZM26.1627 90.594C23.5206 88.7075 19.2573 87.5771 14.8138 89.5455L15.2188 90.4598C19.2888 88.6568 23.1796 89.6928 25.5816 91.4079L26.1627 90.594ZM15.0978 89.5093C15.097 89.5092 15.0748 89.5052 15.0451 89.4727C15.0162 89.4412 14.9654 89.3659 14.9393 89.2065C14.8847 88.8729 14.9497 88.2249 15.4696 87.1078L14.563 86.6858C14.0091 87.876 13.8504 88.7439 13.9524 89.3679C14.0595 90.0228 14.466 90.4185 14.9347 90.496L15.0978 89.5093ZM15.4696 87.1078C16.0918 85.7709 17.5011 84.3042 18.9692 83.0955C19.6953 82.4977 20.4202 81.9757 21.0424 81.5778C21.6759 81.1727 22.1704 80.9173 22.4434 80.8271L22.1296 79.8776C21.7315 80.0092 21.1494 80.3224 20.5037 80.7353C19.8466 81.1555 19.0895 81.7011 18.3336 82.3235C16.8377 83.5551 15.283 85.1387 14.563 86.6858L15.4696 87.1078ZM22.4434 80.8271C23.1825 80.5828 25.2815 79.5438 28.1563 79.3958C30.9978 79.2496 34.579 79.9869 38.161 83.3776L38.8484 82.6514C35.0483 79.054 31.1915 78.2383 28.1049 78.3972C25.0517 78.5543 22.7327 79.6783 22.1296 79.8776L22.4434 80.8271ZM38.161 83.3776C43.9317 88.8404 45.4622 97.1084 45.4986 100.546L46.4986 100.535C46.4605 96.9471 44.889 88.3696 38.8484 82.6514L38.161 83.3776ZM45.4996 100.571C45.6105 102.367 45.6827 105.294 45.5384 108.219C45.393 111.166 45.0305 114.035 44.307 115.766L45.2296 116.151C46.0272 114.244 46.3917 111.216 46.5372 108.269C46.6836 105.3 46.6105 102.337 46.4977 100.51L45.4996 100.571ZM44.2814 115.845C43.4308 119.476 40.5534 128.079 35.889 133.491L36.6464 134.144C41.4668 128.551 44.3908 119.762 45.2551 116.073L44.2814 115.845ZM35.889 133.491C29.961 140.368 22.9699 147.587 17.3225 151.142L17.8551 151.988C23.6422 148.346 30.7183 141.021 36.6464 134.144L35.889 133.491ZM17.3225 151.142C14.4095 152.975 12.7835 154.059 11.6239 154.821C10.4673 155.581 9.78498 156.014 8.74504 156.557L9.20776 157.443C10.293 156.877 11.0087 156.422 12.1731 155.657C13.3343 154.894 14.9519 153.815 17.8551 151.988L17.3225 151.142Z" fill="black"/>
<ellipse cx="70.4852" cy="85.1558" rx="6.51452" ry="6.49758" fill="black"/>
<ellipse cx="70.4852" cy="109.647" rx="6.51452" ry="6.49758" fill="black"/>
</svg>
