<svg width="736" height="239" viewBox="0 0 736 239" fill="none" xmlns="http://www.w3.org/2000/svg">
<path d="M31.1226 103.24C28.7962 105.193 16.4703 112.891 8.9764 114C11.1016 112.891 11.7726 112.225 17.5888 108.565C23.306 104.967 30.3397 97.6944 36.2677 90.8171C41.0101 85.3154 43.9108 76.619 44.7683 72.9586C46.2894 69.3203 46.2223 61.1638 45.9986 57.5403C45.9613 54.0278 44.4104 45.605 38.5047 40.0145C31.1226 33.0264 23.6287 36.9087 22.2865 37.3524C20.9443 37.7961 16.3585 41.0128 15.0163 43.8968C13.9425 46.204 14.5689 46.9287 15.0163 47.0026C19.273 45.117 23.3501 46.2001 25.8721 48.0009C28.6684 49.9976 31.0172 52.9925 30.7935 57.5403C30.6146 61.1786 28.824 63.8629 27.4818 65.194C24.6855 68.2998 20.1986 68.6326 17.7007 68.6326C11.6608 68.2998 7.86507 63.9743 7.07496 62.6428C6.74586 62.0881 3.60844 57.0966 5.73276 48.4446C7.48062 41.326 14.1588 35.7625 17.477 33.9138C28.1027 28.4785 35.5966 29.7295 40.4062 31.5844C46.446 33.9138 53.9901 41.1237 55.8414 47.4463C57.6927 53.7689 58.6376 58.7605 57.5191 64.8612C56.4006 70.962 54.8348 75.177 49.1304 84.3836C43.4261 93.5902 34.0307 100.8 31.1226 103.24Z" fill="black"/>
<path d="M8.9764 114L8.74504 113.557C8.52868 113.67 8.42547 113.922 8.50085 114.154C8.57623 114.387 8.80818 114.53 9.04961 114.495L8.9764 114ZM31.1226 103.24L30.8012 102.857L30.8012 102.857L31.1226 103.24ZM49.1304 84.3836L49.5554 84.647L49.5554 84.647L49.1304 84.3836ZM55.8414 47.4463L56.3212 47.3058L56.3212 47.3058L55.8414 47.4463ZM40.4062 31.5844L40.5861 31.1179L40.5861 31.1179L40.4062 31.5844ZM17.477 33.9138L17.2493 33.4686L17.2414 33.4727L17.2336 33.477L17.477 33.9138ZM5.73276 48.4446L6.21834 48.5639L6.21834 48.5639L5.73276 48.4446ZM7.07496 62.6428L6.64496 62.8979L6.64496 62.8979L7.07496 62.6428ZM17.7007 68.6326L17.6732 69.1318L17.6869 69.1326H17.7007V68.6326ZM27.4818 65.194L27.1297 64.839L27.1196 64.8489L27.1102 64.8594L27.4818 65.194ZM30.7935 57.5403L30.2941 57.5157L30.2941 57.5157L30.7935 57.5403ZM25.8721 48.0009L26.1627 47.594L26.1627 47.594L25.8721 48.0009ZM15.0163 47.0026L14.9347 47.496L15.0822 47.5203L15.2188 47.4598L15.0163 47.0026ZM15.0163 43.8968L15.4696 44.1078L15.4696 44.1078L15.0163 43.8968ZM22.2865 37.3524L22.4434 37.8271L22.4434 37.8271L22.2865 37.3524ZM38.5047 40.0145L38.161 40.3776L38.5047 40.0145ZM45.9986 57.5403L45.4986 57.5456L45.4988 57.5584L45.4996 57.5711L45.9986 57.5403ZM44.7683 72.9586L44.307 72.7657L44.2909 72.8041L44.2814 72.8445L44.7683 72.9586ZM36.2677 90.8171L35.889 90.4907L35.889 90.4907L36.2677 90.8171ZM17.5888 108.565L17.8551 108.988L17.5888 108.565ZM9.04961 114.495C12.8889 113.926 17.9096 111.687 22.2233 109.377C26.5423 107.065 30.2412 104.633 31.444 103.624L30.8012 102.857C29.6776 103.8 26.0503 106.194 21.7513 108.496C17.447 110.8 12.5578 112.964 8.90319 113.505L9.04961 114.495ZM31.444 103.624C34.3278 101.204 43.7992 93.9374 49.5554 84.647L48.7054 84.1203C43.053 93.243 33.7337 100.397 30.8012 102.857L31.444 103.624ZM49.5554 84.647C55.2815 75.4054 56.8779 71.1314 58.0109 64.9514L57.0273 64.771C55.9234 70.7925 54.388 74.9487 48.7054 84.1203L49.5554 84.647ZM58.0109 64.9514C59.1504 58.7362 58.1803 53.655 56.3212 47.3058L55.3615 47.5868C57.205 53.8829 58.1249 58.7847 57.0273 64.771L58.0109 64.9514ZM56.3212 47.3058C55.3632 44.0339 52.9526 40.5806 50.0488 37.6651C47.1422 34.7467 43.689 32.3146 40.5861 31.1179L40.2262 32.0509C43.1631 33.1835 46.502 35.5211 49.3402 38.3707C52.1812 41.2231 54.4683 44.5362 55.3615 47.5868L56.3212 47.3058ZM40.5861 31.1179C35.6555 29.2163 28.0124 27.9631 17.2493 33.4686L17.7047 34.3589C28.1929 28.994 35.5377 30.2427 40.2262 32.0509L40.5861 31.1179ZM17.2336 33.477C15.5252 34.4288 12.9843 36.3161 10.6474 38.8651C8.31098 41.4136 6.14795 44.6568 5.24718 48.3254L6.21834 48.5639C7.06543 45.1138 9.11541 42.0159 11.3845 39.5408C13.6532 37.0663 16.1106 35.2474 17.7203 34.3505L17.2336 33.477ZM5.24718 48.3254C3.07897 57.1562 6.2821 62.2864 6.64496 62.8979L7.50495 62.3876C7.20962 61.8899 4.13791 57.0371 6.21834 48.5639L5.24718 48.3254ZM6.64496 62.8979C7.07914 63.6296 8.27552 65.0936 10.1283 66.4189C11.9887 67.7496 14.5371 68.959 17.6732 69.1318L17.7282 68.1333C14.8244 67.9734 12.455 66.8536 10.71 65.6055C8.95742 64.3519 7.86089 62.9874 7.50495 62.3876L6.64496 62.8979ZM17.7007 69.1326C20.2027 69.1326 24.8984 68.8107 27.8534 65.5285L27.1102 64.8594C24.4727 67.7889 20.1946 68.1326 17.7007 68.1326V69.1326ZM27.8339 65.549C29.2438 64.1507 31.1065 61.3543 31.2929 57.5649L30.2941 57.5157C30.1226 61.0028 28.4041 63.5751 27.1297 64.839L27.8339 65.549ZM31.2929 57.5649C31.5276 52.7942 29.0481 49.6543 26.1627 47.594L25.5816 48.4079C28.2887 50.3408 30.5069 53.1907 30.2941 57.5157L31.2929 57.5649ZM26.1627 47.594C23.5206 45.7075 19.2573 44.5771 14.8138 46.5455L15.2188 47.4598C19.2888 45.6568 23.1796 46.6928 25.5816 48.4079L26.1627 47.594ZM15.0978 46.5093C15.097 46.5092 15.0748 46.5052 15.0451 46.4727C15.0162 46.4412 14.9654 46.3659 14.9393 46.2065C14.8847 45.8729 14.9497 45.2249 15.4696 44.1078L14.563 43.6858C14.0091 44.876 13.8504 45.7439 13.9524 46.3679C14.0595 47.0228 14.466 47.4185 14.9347 47.496L15.0978 46.5093ZM15.4696 44.1078C16.0918 42.7709 17.5011 41.3042 18.9692 40.0955C19.6953 39.4977 20.4202 38.9757 21.0424 38.5778C21.6759 38.1727 22.1704 37.9173 22.4434 37.8271L22.1296 36.8776C21.7315 37.0092 21.1494 37.3224 20.5037 37.7353C19.8466 38.1555 19.0895 38.7011 18.3336 39.3235C16.8377 40.5551 15.283 42.1387 14.563 43.6858L15.4696 44.1078ZM22.4434 37.8271C23.1825 37.5828 25.2815 36.5438 28.1563 36.3958C30.9978 36.2496 34.579 36.9869 38.161 40.3776L38.8484 39.6514C35.0483 36.054 31.1915 35.2383 28.1049 35.3972C25.0517 35.5543 22.7327 36.6783 22.1296 36.8776L22.4434 37.8271ZM38.161 40.3776C43.9317 45.8404 45.4622 54.1084 45.4986 57.5456L46.4986 57.535C46.4605 53.9471 44.889 45.3696 38.8484 39.6514L38.161 40.3776ZM45.4996 57.5711C45.6105 59.3674 45.6827 62.2937 45.5384 65.2193C45.393 68.1656 45.0305 71.0352 44.307 72.7657L45.2296 73.1514C46.0272 71.2437 46.3917 68.2159 46.5372 65.2685C46.6836 62.3004 46.6105 59.3367 46.4977 57.5095L45.4996 57.5711ZM44.2814 72.8445C43.4308 76.4758 40.5534 85.0794 35.889 90.4907L36.6464 91.1436C41.4668 85.5514 44.3908 76.7622 45.2551 73.0726L44.2814 72.8445ZM35.889 90.4907C29.961 97.3679 22.9699 104.587 17.3225 108.142L17.8551 108.988C23.6422 105.346 30.7183 98.0209 36.6464 91.1436L35.889 90.4907ZM17.3225 108.142C14.4095 109.975 12.7835 111.059 11.6239 111.821C10.4673 112.581 9.78498 113.014 8.74504 113.557L9.20776 114.443C10.293 113.877 11.0087 113.422 12.1731 112.657C13.3343 111.894 14.9519 110.815 17.8551 108.988L17.3225 108.142Z" fill="black"/>
<ellipse cx="70.4852" cy="42.1558" rx="6.51452" ry="6.49758" fill="black"/>
<ellipse cx="70.4852" cy="66.647" rx="6.51452" ry="6.49758" fill="black"/>
<line y1="28.5" x2="736" y2="28.5" stroke="#1C1A1A"/>
<line y1="53.5" x2="736" y2="53.5" stroke="#1C1A1A"/>
<line y1="78.5" x2="736" y2="78.5" stroke="#1C1A1A"/>
<line y1="103.5" x2="736" y2="103.5" stroke="#1C1A1A"/>
<line y1="128.5" x2="736" y2="128.5" stroke="#1C1A1A"/>
<line x1="360" y1="153.5" x2="412" y2="153.5" stroke="#1C1A1A"/>
<path d="M361 179L412 179" stroke="#1C1A1A"/>
<path d="M361 204L412 204" stroke="#1C1A1A"/>
<path d="M376.097 214.514C370.453 212.805 366 208.161 366 203.984C366 192.16 391.813 187.481 402.473 197.372C414 208.069 395.188 220.295 376.097 214.514H376.097ZM393.315 211.544C396.455 206.829 393.453 197.486 388.013 195.048C380.025 191.467 375.129 197.569 378.456 206.959C380.757 213.453 390.119 216.343 393.315 211.544Z" fill="#1C1A1A"/>
<path d="M337.475 170.25V201.341C337.475 201.341 337.475 203.436 337.475 207.628C340.332 204.943 343.537 203.567 347.091 203.502C349.313 203.502 351.217 204.451 352.804 206.351C354.2 208.119 354.93 210.084 354.994 212.245C355.057 213.948 354.645 215.912 353.756 218.139C353.439 219.056 352.74 220.038 351.661 221.086C350.836 221.872 349.979 222.691 349.091 223.542C344.394 227.079 339.697 230.648 335 234.25V170.25H337.475V170.25ZM345.187 209.789C344.426 208.872 343.442 208.414 342.236 208.414C340.712 208.414 339.475 209.298 338.523 211.066C337.824 212.441 337.475 215.683 337.475 220.792V229.24C337.539 229.502 339.316 227.897 342.807 224.426C344.711 222.593 345.949 220.431 346.52 217.943C346.774 216.96 346.901 215.978 346.901 214.996C346.901 212.834 346.33 211.099 345.187 209.789" fill="#1C1A1A"/>
</svg>
