<svg width="736" height="267" viewBox="0 0 736 267" fill="none" xmlns="http://www.w3.org/2000/svg">
<path d="M356.097 56.5145C350.453 54.8054 346 50.1609 346 45.9836C346 34.1601 371.813 29.4812 382.473 39.3725C394 50.0687 375.188 62.2953 356.097 56.5145H356.097ZM373.315 53.5442C376.455 48.8287 373.453 39.486 368.013 37.0476C360.025 33.4667 355.129 39.5689 358.456 48.9586C360.757 55.4532 370.119 58.3425 373.315 53.5442Z" fill="#1C1A1A"/>
<line x1="340" y1="95.5" x2="392" y2="95.5" stroke="#1C1A1A"/>
<line x1="340" y1="70.5" x2="392" y2="70.5" stroke="#1C1A1A"/>
<line x1="340" y1="45.5" x2="392" y2="45.5" stroke="#1C1A1A"/>
<line y1="120.5" x2="736" y2="120.5" stroke="#1C1A1A"/>
<line y1="145.5" x2="736" y2="145.5" stroke="#1C1A1A"/>
<line y1="170.5" x2="736" y2="170.5" stroke="#1C1A1A"/>
<line y1="195.5" x2="736" y2="195.5" stroke="#1C1A1A"/>
<line y1="220.5" x2="736" y2="220.5" stroke="#1C1A1A"/>
<path d="M33.0196 183.694C30.4448 184.54 28.317 185.969 26.636 187.981C24.9547 189.991 23.9303 192.188 23.5625 194.57C23.1947 196.951 23.4969 199.306 24.4688 201.635C25.4407 203.964 27.2664 205.843 29.9456 207.272C30.5761 207.272 30.9699 207.537 31.128 208.066C31.2852 208.595 31.0485 208.859 30.419 208.859C27.8443 208.33 25.5852 207.245 23.6414 205.605C20.0163 202.588 18.02 198.698 17.6522 193.935C17.4421 191.553 17.6653 189.251 18.3221 187.028C18.9787 184.805 19.885 182.767 21.0408 180.914C22.4592 178.957 24.1404 177.263 26.0843 175.834C26.1893 175.728 26.4915 175.49 26.9905 175.12C27.4896 174.749 27.9755 174.405 28.4484 174.088C28.9213 173.77 29.6304 173.267 30.5761 172.579L27.6604 158.448C25.0861 160.618 22.5381 163.012 20.0164 165.632C17.4946 168.252 15.2092 171.018 13.1603 173.929C11.1115 176.84 9.46968 179.923 8.23502 183.178C7.00047 186.433 6.38319 189.859 6.38319 193.459C6.38319 196.793 7.07923 199.929 8.47151 202.866C9.86369 205.803 11.7156 208.357 14.0272 210.526C16.3388 212.696 19.005 214.403 22.0258 215.648C25.0467 216.891 28.1069 217.513 31.2066 217.513C31.312 217.513 31.7973 217.46 32.6645 217.354C33.5317 217.249 34.4506 217.116 35.4222 216.957C36.3948 216.799 37.2879 216.626 38.1024 216.441C38.9159 216.256 39.3236 216.057 39.3236 215.846L38.8502 213.623C36.8016 203.197 34.8574 193.22 33.0196 183.694ZM35.7773 183.376L42.2394 214.893C45.9697 213.464 48.4907 211.016 49.8045 207.55C51.1182 204.083 51.4195 200.564 50.7104 196.991C50.0014 193.419 48.3336 190.256 45.7062 187.504C43.0798 184.752 39.7701 183.376 35.7773 183.376ZM27.5028 140.903C29.1311 140.056 30.6417 138.787 32.034 137.092C33.4263 135.399 34.7132 133.586 35.8956 131.654C37.077 129.723 38.1024 127.751 38.9686 125.739C39.8357 123.729 40.5319 121.903 41.057 120.262C41.6348 118.516 42.0286 116.557 42.2394 114.387C42.4493 112.217 42.1081 110.392 41.2151 108.909C40.5846 107.587 39.7572 106.819 38.7329 106.607C37.7076 106.396 36.6832 106.475 35.6589 106.845C34.6346 107.216 33.663 107.811 32.7431 108.632C31.8242 109.452 31.1539 110.18 30.7342 110.815C29.5776 112.879 28.5663 115.181 27.6998 117.722C26.8329 120.262 26.2418 122.895 25.9267 125.621C25.6114 128.346 25.5721 130.966 25.8085 133.481C26.0448 135.994 26.6096 138.469 27.5028 140.903ZM25.1387 143.364C24.2455 139.872 23.4575 136.444 22.7745 133.083C22.0915 129.723 21.7501 126.269 21.7501 122.723C21.7501 120.13 21.9339 117.285 22.3017 114.189C22.6694 111.093 23.3392 108.076 24.3112 105.138C25.2831 102.201 26.6227 99.568 28.3302 97.2397C30.0381 94.9104 32.3095 93.2173 35.1468 92.1583C35.4093 92.0531 35.6718 92 35.9344 92C36.3023 92 36.7359 92.2114 37.2352 92.6352C37.7344 93.058 38.2595 93.6801 38.8114 94.5006C39.3624 95.3211 39.8487 96.1677 40.2693 97.0413C40.689 97.9139 41.0043 98.51 41.2151 98.8276C42.6332 101.527 43.6705 104.398 44.3278 107.441C44.9842 110.484 45.3651 113.514 45.4705 116.53C45.6803 121.083 45.4307 125.581 44.7216 130.027C44.0126 134.473 42.5805 138.813 40.4265 143.046C39.6915 144.317 38.9427 145.6 38.1809 146.897C37.4192 148.194 36.5132 149.45 35.462 150.667C35.2522 150.88 34.8713 151.264 34.3193 151.819C33.7674 152.375 33.2025 152.944 32.6247 153.526C32.0469 154.108 31.5348 154.651 31.0883 155.153C30.6417 155.656 30.419 155.96 30.419 156.066L33.6491 171.944C33.6699 172.048 35.2651 171.944 35.2651 171.944C38.348 171.983 41.6119 172.486 44.4462 173.611C47.178 174.881 49.529 176.628 51.4991 178.851C53.4691 181.074 55.0444 183.574 56.2268 186.353C57.4093 189.132 58 191.95 58 194.808C58 197.665 57.5793 200.577 56.739 203.54C54.5849 209.151 51.144 213.305 46.4162 216.004C45.8902 216.322 45.1413 216.68 44.1697 217.076C43.1981 217.473 42.8172 218.095 43.027 218.942C44.2881 224.708 45.1413 228.676 45.5888 230.85C46.0354 233.024 46.3635 235.829 46.5734 239.265C46.7832 242.551 46.2183 245.507 44.8788 248.152C43.5392 250.807 41.7402 252.961 39.4807 254.624C37.2222 256.297 35.1597 257.269 33.295 257.569C31.4294 257.86 30.1554 258 29.4732 258C27.1087 258 24.7972 257.549 22.5381 256.648C19.7536 255.596 17.4158 253.983 15.5245 251.809C13.6332 249.635 12.6875 246.99 12.6875 243.874C12.6875 241.91 13.2523 239.897 14.3818 237.833C15.5114 235.769 16.9955 234.286 18.8342 233.395C20.8832 232.333 22.7351 232.042 24.39 232.513C26.0448 232.994 27.4108 233.895 28.4878 235.218C29.5647 236.54 30.3136 238.143 30.7342 240.017C31.1539 241.9 31.128 243.653 30.6547 245.297C30.1823 246.94 29.2236 248.332 27.7786 249.464C26.3338 250.606 24.3243 251.117 21.7501 251.017C22.8007 252.921 24.2718 254.123 26.1631 254.624C28.0544 255.135 29.9983 255.165 31.9942 254.744C33.9912 254.323 35.8688 253.542 37.629 252.4C39.3892 251.268 40.7686 250.035 41.766 248.713C42.3965 247.761 42.8699 246.519 43.1852 244.986C43.5004 243.443 43.6844 241.85 43.7361 240.177C43.7888 238.514 43.7361 237.212 43.579 236.29C43.4209 235.358 43.1583 233.915 42.7904 231.962C41.2151 225.56 40.2166 221.533 39.796 219.89C39.5861 219.366 39.0213 219.193 38.1024 219.379C37.1825 219.564 36.4078 219.736 35.7773 219.89C31.2593 220.481 27.4765 220.21 24.4294 219.101C19.7011 217.831 15.5376 215.568 11.9389 212.313C8.34014 209.058 5.45067 205.115 3.27036 200.484C1.09015 195.853 0 192.334 0 189.925C0 187.518 0 185.996 0 185.361C0 181.074 0.73552 177.051 2.20656 173.293C4.99092 167.418 8.28763 162.02 12.0965 157.098C15.9054 152.176 20.2528 147.598 25.1387 143.364Z" fill="#1C1A1A"/>
<path d="M318.475 0V31.0906C318.475 31.0906 318.475 33.1864 318.475 37.3778C321.332 34.6927 324.537 33.3173 328.091 33.2518C330.313 33.2519 332.217 34.2015 333.804 36.1007C335.2 37.869 335.93 39.8337 335.994 41.9949C336.057 43.6977 335.645 45.6624 334.756 47.8891C334.439 48.806 333.74 49.7884 332.661 50.8363C331.836 51.6222 330.979 52.4408 330.091 53.2922C325.394 56.8287 320.697 60.398 316 64V0H318.475ZM326.187 39.539C325.426 38.6221 324.442 38.1637 323.236 38.1637C321.712 38.1637 320.475 39.0478 319.523 40.8161C318.824 42.1914 318.475 45.4332 318.475 50.5415V58.9899C318.539 59.2519 320.316 57.6473 323.807 54.1763C325.711 52.3426 326.949 50.1813 327.52 47.6927C327.774 46.7103 327.901 45.7279 327.901 44.7456C327.901 42.5844 327.33 40.8488 326.187 39.539Z" fill="#1C1A1A"/>
</svg>
