<svg width="736" height="196" viewBox="0 0 736 196" fill="none" xmlns="http://www.w3.org/2000/svg">
<path d="M31.1226 133.24C28.7962 135.193 16.4703 142.891 8.9764 144C11.1016 142.891 11.7726 142.225 17.5888 138.565C23.306 134.967 30.3397 127.694 36.2677 120.817C41.0101 115.315 43.9108 106.619 44.7683 102.959C46.2894 99.3203 46.2223 91.1638 45.9986 87.5403C45.9613 84.0278 44.4104 75.605 38.5047 70.0145C31.1226 63.0264 23.6287 66.9087 22.2865 67.3524C20.9443 67.7961 16.3585 71.0128 15.0163 73.8968C13.9425 76.204 14.5689 76.9287 15.0163 77.0026C19.273 75.117 23.3501 76.2001 25.8721 78.0009C28.6684 79.9976 31.0172 82.9925 30.7935 87.5403C30.6146 91.1786 28.824 93.8629 27.4818 95.194C24.6855 98.2998 20.1986 98.6326 17.7007 98.6326C11.6608 98.2998 7.86507 93.9743 7.07496 92.6428C6.74586 92.0881 3.60844 87.0966 5.73276 78.4446C7.48062 71.326 14.1588 65.7625 17.477 63.9138C28.1027 58.4785 35.5966 59.7295 40.4062 61.5844C46.446 63.9138 53.9901 71.1237 55.8414 77.4463C57.6927 83.7689 58.6376 88.7605 57.5191 94.8612C56.4006 100.962 54.8348 105.177 49.1304 114.384C43.4261 123.59 34.0307 130.8 31.1226 133.24Z" fill="black"/>
<path d="M8.9764 144L8.74504 143.557C8.52868 143.67 8.42547 143.922 8.50085 144.154C8.57623 144.387 8.80818 144.53 9.04961 144.495L8.9764 144ZM31.1226 133.24L30.8012 132.857L30.8012 132.857L31.1226 133.24ZM49.1304 114.384L49.5554 114.647L49.5554 114.647L49.1304 114.384ZM55.8414 77.4463L56.3212 77.3058L56.3212 77.3058L55.8414 77.4463ZM40.4062 61.5844L40.5861 61.1179L40.5861 61.1179L40.4062 61.5844ZM17.477 63.9138L17.2493 63.4686L17.2414 63.4727L17.2336 63.477L17.477 63.9138ZM5.73276 78.4446L6.21834 78.5639L6.21834 78.5639L5.73276 78.4446ZM7.07496 92.6428L6.64496 92.8979L6.64496 92.8979L7.07496 92.6428ZM17.7007 98.6326L17.6732 99.1318L17.6869 99.1326H17.7007V98.6326ZM27.4818 95.194L27.1297 94.839L27.1196 94.8489L27.1102 94.8594L27.4818 95.194ZM30.7935 87.5403L30.2941 87.5157L30.2941 87.5157L30.7935 87.5403ZM25.8721 78.0009L26.1627 77.594L26.1627 77.594L25.8721 78.0009ZM15.0163 77.0026L14.9347 77.496L15.0822 77.5203L15.2188 77.4598L15.0163 77.0026ZM15.0163 73.8968L15.4696 74.1078L15.4696 74.1078L15.0163 73.8968ZM22.2865 67.3524L22.4434 67.8271L22.4434 67.8271L22.2865 67.3524ZM38.5047 70.0145L38.161 70.3776L38.5047 70.0145ZM45.9986 87.5403L45.4986 87.5456L45.4988 87.5584L45.4996 87.5711L45.9986 87.5403ZM44.7683 102.959L44.307 102.766L44.2909 102.804L44.2814 102.845L44.7683 102.959ZM36.2677 120.817L35.889 120.491L35.889 120.491L36.2677 120.817ZM17.5888 138.565L17.8551 138.988L17.5888 138.565ZM9.04961 144.495C12.8889 143.926 17.9096 141.687 22.2233 139.377C26.5423 137.065 30.2412 134.633 31.444 133.624L30.8012 132.857C29.6776 133.8 26.0503 136.194 21.7513 138.496C17.447 140.8 12.5578 142.964 8.90319 143.505L9.04961 144.495ZM31.444 133.624C34.3278 131.204 43.7992 123.937 49.5554 114.647L48.7054 114.12C43.053 123.243 33.7337 130.397 30.8012 132.857L31.444 133.624ZM49.5554 114.647C55.2815 105.405 56.8779 101.131 58.0109 94.9514L57.0273 94.771C55.9234 100.792 54.388 104.949 48.7054 114.12L49.5554 114.647ZM58.0109 94.9514C59.1504 88.7362 58.1803 83.655 56.3212 77.3058L55.3615 77.5868C57.205 83.8829 58.1249 88.7847 57.0273 94.771L58.0109 94.9514ZM56.3212 77.3058C55.3632 74.0339 52.9526 70.5806 50.0488 67.6651C47.1422 64.7467 43.689 62.3146 40.5861 61.1179L40.2262 62.0509C43.1631 63.1835 46.502 65.5211 49.3402 68.3707C52.1812 71.2231 54.4683 74.5362 55.3615 77.5868L56.3212 77.3058ZM40.5861 61.1179C35.6555 59.2163 28.0124 57.9631 17.2493 63.4686L17.7047 64.3589C28.1929 58.994 35.5377 60.2427 40.2262 62.0509L40.5861 61.1179ZM17.2336 63.477C15.5252 64.4288 12.9843 66.3161 10.6474 68.8651C8.31098 71.4136 6.14795 74.6568 5.24718 78.3254L6.21834 78.5639C7.06543 75.1138 9.11541 72.0159 11.3845 69.5408C13.6532 67.0663 16.1106 65.2474 17.7203 64.3505L17.2336 63.477ZM5.24718 78.3254C3.07897 87.1562 6.2821 92.2864 6.64496 92.8979L7.50495 92.3876C7.20962 91.8899 4.13791 87.0371 6.21834 78.5639L5.24718 78.3254ZM6.64496 92.8979C7.07914 93.6296 8.27552 95.0936 10.1283 96.4189C11.9887 97.7496 14.5371 98.959 17.6732 99.1318L17.7282 98.1333C14.8244 97.9734 12.455 96.8536 10.71 95.6055C8.95742 94.3519 7.86089 92.9874 7.50495 92.3876L6.64496 92.8979ZM17.7007 99.1326C20.2027 99.1326 24.8984 98.8107 27.8534 95.5285L27.1102 94.8594C24.4727 97.7889 20.1946 98.1326 17.7007 98.1326V99.1326ZM27.8339 95.549C29.2438 94.1507 31.1065 91.3543 31.2929 87.5649L30.2941 87.5157C30.1226 91.0028 28.4041 93.5751 27.1297 94.839L27.8339 95.549ZM31.2929 87.5649C31.5276 82.7942 29.0481 79.6543 26.1627 77.594L25.5816 78.4079C28.2887 80.3408 30.5069 83.1907 30.2941 87.5157L31.2929 87.5649ZM26.1627 77.594C23.5206 75.7075 19.2573 74.5771 14.8138 76.5455L15.2188 77.4598C19.2888 75.6568 23.1796 76.6928 25.5816 78.4079L26.1627 77.594ZM15.0978 76.5093C15.097 76.5092 15.0748 76.5052 15.0451 76.4727C15.0162 76.4412 14.9654 76.3659 14.9393 76.2065C14.8847 75.8729 14.9497 75.2249 15.4696 74.1078L14.563 73.6858C14.0091 74.876 13.8504 75.7439 13.9524 76.3679C14.0595 77.0228 14.466 77.4185 14.9347 77.496L15.0978 76.5093ZM15.4696 74.1078C16.0918 72.7709 17.5011 71.3042 18.9692 70.0955C19.6953 69.4977 20.4202 68.9757 21.0424 68.5778C21.6759 68.1727 22.1704 67.9173 22.4434 67.8271L22.1296 66.8776C21.7315 67.0092 21.1494 67.3224 20.5037 67.7353C19.8466 68.1555 19.0895 68.7011 18.3336 69.3235C16.8377 70.5551 15.283 72.1387 14.563 73.6858L15.4696 74.1078ZM22.4434 67.8271C23.1825 67.5828 25.2815 66.5438 28.1563 66.3958C30.9978 66.2496 34.579 66.9869 38.161 70.3776L38.8484 69.6514C35.0483 66.054 31.1915 65.2383 28.1049 65.3972C25.0517 65.5543 22.7327 66.6783 22.1296 66.8776L22.4434 67.8271ZM38.161 70.3776C43.9317 75.8404 45.4622 84.1084 45.4986 87.5456L46.4986 87.535C46.4605 83.9471 44.889 75.3696 38.8484 69.6514L38.161 70.3776ZM45.4996 87.5711C45.6105 89.3674 45.6827 92.2937 45.5384 95.2193C45.393 98.1656 45.0305 101.035 44.307 102.766L45.2296 103.151C46.0272 101.244 46.3917 98.2159 46.5372 95.2685C46.6836 92.3004 46.6105 89.3367 46.4977 87.5095L45.4996 87.5711ZM44.2814 102.845C43.4308 106.476 40.5534 115.079 35.889 120.491L36.6464 121.144C41.4668 115.551 44.3908 106.762 45.2551 103.073L44.2814 102.845ZM35.889 120.491C29.961 127.368 22.9699 134.587 17.3225 138.142L17.8551 138.988C23.6422 135.346 30.7183 128.021 36.6464 121.144L35.889 120.491ZM17.3225 138.142C14.4095 139.975 12.7835 141.059 11.6239 141.821C10.4673 142.581 9.78498 143.014 8.74504 143.557L9.20776 144.443C10.293 143.877 11.0087 143.422 12.1731 142.657C13.3343 141.894 14.9519 140.815 17.8551 138.988L17.3225 138.142Z" fill="black"/>
<ellipse cx="70.4852" cy="72.1558" rx="6.51452" ry="6.49758" fill="black"/>
<ellipse cx="70.4852" cy="96.647" rx="6.51452" ry="6.49758" fill="black"/>
<line y1="58.5" x2="736" y2="58.5" stroke="#1C1A1A"/>
<line y1="83.5" x2="736" y2="83.5" stroke="#1C1A1A"/>
<line y1="108.5" x2="736" y2="108.5" stroke="#1C1A1A"/>
<line y1="133.5" x2="736" y2="133.5" stroke="#1C1A1A"/>
<line y1="158.5" x2="736" y2="158.5" stroke="#1C1A1A"/>
<line x1="360" y1="33.5" x2="412" y2="33.5" stroke="#1C1A1A"/>
<path d="M376.097 44.5145C370.453 42.8054 366 38.1609 366 33.9836C366 22.1601 391.813 17.4812 402.473 27.3725C414 38.0687 395.188 50.2953 376.097 44.5145H376.097ZM393.315 41.5442C396.455 36.8287 393.453 27.486 388.013 25.0476C380.025 21.4667 375.129 27.5689 378.456 36.9586C380.757 43.4532 390.119 46.3425 393.315 41.5442Z" fill="#1C1A1A"/>
<path d="M344.475 0V31.0906C344.475 31.0906 344.475 33.1864 344.475 37.3778C347.332 34.6927 350.537 33.3173 354.091 33.2518C356.313 33.2519 358.217 34.2015 359.804 36.1007C361.2 37.869 361.93 39.8337 361.994 41.9949C362.057 43.6977 361.645 45.6624 360.756 47.8891C360.439 48.806 359.74 49.7884 358.661 50.8363C357.836 51.6222 356.979 52.4408 356.091 53.2922C351.394 56.8287 346.697 60.398 342 64V0H344.475V0ZM352.187 39.539C351.426 38.6221 350.442 38.1637 349.236 38.1637C347.712 38.1637 346.475 39.0478 345.523 40.8161C344.824 42.1914 344.475 45.4332 344.475 50.5415V58.9899C344.539 59.2519 346.316 57.6473 349.807 54.1763C351.711 52.3426 352.949 50.1813 353.52 47.6927C353.774 46.7103 353.901 45.7279 353.901 44.7456C353.901 42.5844 353.33 40.8488 352.187 39.539" fill="#1C1A1A"/>
</svg>
