<svg width="736" height="207" viewBox="0 0 736 207" fill="none" xmlns="http://www.w3.org/2000/svg">
<line y1="69.5" x2="736" y2="69.5" stroke="#1C1A1A"/>
<line y1="94.5" x2="736" y2="94.5" stroke="#1C1A1A"/>
<line y1="119.5" x2="736" y2="119.5" stroke="#1C1A1A"/>
<line y1="144.5" x2="736" y2="144.5" stroke="#1C1A1A"/>
<line y1="169.5" x2="736" y2="169.5" stroke="#1C1A1A"/>
<line x1="360" y1="44.5" x2="412" y2="44.5" stroke="#1C1A1A"/>
<path d="M33.0196 132.694C30.4448 133.54 28.317 134.969 26.636 136.981C24.9547 138.991 23.9303 141.188 23.5625 143.57C23.1947 145.951 23.4969 148.306 24.4688 150.635C25.4407 152.964 27.2664 154.843 29.9456 156.272C30.5761 156.272 30.9699 156.537 31.128 157.066C31.2852 157.595 31.0485 157.859 30.419 157.859C27.8443 157.33 25.5852 156.245 23.6414 154.605C20.0163 151.588 18.0199 147.698 17.6522 142.935C17.4421 140.553 17.6653 138.251 18.3221 136.028C18.9787 133.805 19.885 131.767 21.0408 129.914C22.4592 127.957 24.1404 126.263 26.0843 124.834C26.1893 124.728 26.4915 124.49 26.9905 124.12C27.4896 123.749 27.9755 123.405 28.4484 123.088C28.9213 122.77 29.6304 122.267 30.5761 121.579L27.6604 107.448C25.0861 109.618 22.5381 112.012 20.0164 114.632C17.4946 117.252 15.2092 120.018 13.1603 122.929C11.1115 125.84 9.46968 128.923 8.23502 132.178C7.00047 135.433 6.3832 138.859 6.3832 142.459C6.3832 145.793 7.07923 148.929 8.47151 151.866C9.86369 154.803 11.7156 157.357 14.0272 159.526C16.3388 161.696 19.005 163.403 22.0258 164.648C25.0467 165.891 28.1069 166.513 31.2066 166.513C31.312 166.513 31.7973 166.46 32.6645 166.354C33.5317 166.249 34.4506 166.116 35.4222 165.957C36.3948 165.799 37.2879 165.626 38.1024 165.441C38.9159 165.256 39.3236 165.057 39.3236 164.846L38.8502 162.623C36.8016 152.197 34.8574 142.22 33.0196 132.694V132.694ZM35.7773 132.376L42.2394 163.893C45.9697 162.464 48.4907 160.016 49.8045 156.55C51.1182 153.083 51.4195 149.564 50.7104 145.991C50.0014 142.419 48.3336 139.256 45.7062 136.504C43.0798 133.752 39.7701 132.376 35.7773 132.376V132.376ZM27.5028 89.9034C29.1311 89.0559 30.6417 87.7865 32.034 86.0924C33.4263 84.3993 34.7132 82.5859 35.8956 80.6543C37.077 78.7228 38.1024 76.7511 38.9686 74.7394C39.8357 72.7287 40.5319 70.9033 41.057 69.2623C41.6348 67.516 42.0286 65.5574 42.2394 63.3874C42.4493 61.2174 42.1081 59.392 41.2151 57.9093C40.5846 56.5868 39.7572 55.8194 38.7329 55.607C37.7076 55.3956 36.6832 55.4748 35.6589 55.8455C34.6346 56.2161 33.663 56.8112 32.7431 57.6318C31.8242 58.4523 31.1539 59.1796 30.7342 59.8148C29.5776 61.8786 28.5663 64.1809 27.6998 66.7216C26.8329 69.2623 26.2418 71.8951 25.9267 74.6212C25.6114 77.3462 25.5721 79.9661 25.8085 82.4807C26.0448 84.9944 26.6096 87.4689 27.5028 89.9034V89.9034ZM25.1387 92.364C24.2455 88.8715 23.4575 85.4442 22.7745 82.083C22.0915 78.7228 21.7501 75.2694 21.7501 71.7228C21.7501 69.13 21.9339 66.2848 22.3017 63.189C22.6694 60.0933 23.3392 57.0757 24.3112 54.1383C25.2831 51.2009 26.6227 48.568 28.3302 46.2397C30.0381 43.9104 32.3095 42.2173 35.1468 41.1583C35.4093 41.0531 35.6718 41 35.9344 41C36.3023 41 36.7359 41.2114 37.2352 41.6352C37.7344 42.058 38.2595 42.6801 38.8114 43.5006C39.3624 44.3211 39.8487 45.1677 40.2693 46.0413C40.689 46.9139 41.0043 47.51 41.2151 47.8276C42.6332 50.5266 43.6705 53.3979 44.3278 56.4406C44.9842 59.4842 45.3651 62.5138 45.4705 65.5304C45.6803 70.0828 45.4307 74.5811 44.7216 79.0273C44.0126 83.4726 42.5805 87.8126 40.4265 92.0464C39.6915 93.3168 38.9427 94.6001 38.1809 95.8965C37.4192 97.1939 36.5132 98.4502 35.462 99.6675C35.2522 99.8799 34.8713 100.264 34.3193 100.819C33.7674 101.375 33.2025 101.944 32.6247 102.526C32.0469 103.108 31.5348 103.651 31.0883 104.153C30.6417 104.656 30.419 104.96 30.419 105.066L33.6491 120.944C33.6699 121.048 35.2651 120.944 35.2651 120.944C38.348 120.983 41.6119 121.486 44.4462 122.611C47.178 123.881 49.529 125.628 51.4991 127.851C53.4691 130.074 55.0444 132.574 56.2268 135.353C57.4093 138.132 58 140.95 58 143.808C58 146.665 57.5793 149.577 56.739 152.54C54.5849 158.151 51.144 162.305 46.4162 165.004C45.8902 165.322 45.1413 165.68 44.1697 166.076C43.1981 166.473 42.8172 167.095 43.027 167.942C44.2881 173.708 45.1413 177.676 45.5888 179.85C46.0354 182.024 46.3635 184.829 46.5734 188.265C46.7832 191.551 46.2183 194.507 44.8788 197.152C43.5392 199.807 41.7402 201.961 39.4807 203.624C37.2222 205.297 35.1597 206.269 33.295 206.569C31.4294 206.86 30.1554 207 29.4732 207C27.1087 207 24.7972 206.549 22.5381 205.648C19.7536 204.596 17.4158 202.983 15.5245 200.809C13.6332 198.635 12.6875 195.99 12.6875 192.874C12.6875 190.91 13.2523 188.897 14.3818 186.833C15.5114 184.769 16.9955 183.286 18.8342 182.394C20.8832 181.333 22.7351 181.042 24.39 181.513C26.0448 181.994 27.4108 182.895 28.4878 184.218C29.5647 185.54 30.3136 187.143 30.7342 189.017C31.1539 190.9 31.128 192.653 30.6547 194.297C30.1823 195.94 29.2236 197.332 27.7786 198.464C26.3338 199.606 24.3243 200.117 21.7501 200.017C22.8007 201.921 24.2718 203.123 26.1631 203.624C28.0544 204.135 29.9983 204.165 31.9942 203.744C33.9912 203.323 35.8688 202.542 37.629 201.4C39.3892 200.268 40.7686 199.035 41.766 197.713C42.3965 196.761 42.8699 195.519 43.1852 193.986C43.5004 192.443 43.6844 190.85 43.7361 189.177C43.7888 187.514 43.7361 186.212 43.579 185.29C43.4209 184.358 43.1583 182.915 42.7904 180.962C41.2151 174.56 40.2166 170.533 39.796 168.89C39.5861 168.366 39.0213 168.193 38.1024 168.379C37.1825 168.564 36.4078 168.736 35.7773 168.89C31.2593 169.481 27.4765 169.21 24.4294 168.101C19.7011 166.831 15.5376 164.568 11.9389 161.313C8.34014 158.058 5.45067 154.115 3.27036 149.484C1.09015 144.853 0 141.334 0 138.925C0 136.518 0 134.996 0 134.361C0 130.074 0.73552 126.051 2.20656 122.293C4.99092 116.418 8.28763 111.02 12.0965 106.098C15.9054 101.176 20.2528 96.5978 25.1387 92.364V92.364Z" fill="#1C1A1A"/>
<path d="M376.097 55.5145C370.453 53.8054 366 49.1609 366 44.9836C366 33.1601 391.813 28.4812 402.473 38.3725C414 49.0687 395.188 61.2953 376.097 55.5145H376.097ZM393.315 52.5442C396.455 47.8287 393.453 38.486 388.013 36.0476C380.025 32.4667 375.129 38.5689 378.456 47.9586C380.757 54.4532 390.119 57.3425 393.315 52.5442Z" fill="#1C1A1A"/>
<path d="M344.475 0V31.0906C344.475 31.0906 344.475 33.1864 344.475 37.3778C347.332 34.6927 350.537 33.3173 354.091 33.2518C356.313 33.2519 358.217 34.2015 359.804 36.1007C361.2 37.869 361.93 39.8337 361.994 41.9949C362.057 43.6977 361.645 45.6624 360.756 47.8891C360.439 48.806 359.74 49.7884 358.661 50.8363C357.836 51.6222 356.979 52.4408 356.091 53.2922C351.394 56.8287 346.697 60.398 342 64V0H344.475V0ZM352.187 39.539C351.426 38.6221 350.442 38.1637 349.236 38.1637C347.712 38.1637 346.475 39.0478 345.523 40.8161C344.824 42.1914 344.475 45.4332 344.475 50.5415V58.9899C344.539 59.2519 346.316 57.6473 349.807 54.1763C351.711 52.3426 352.949 50.1813 353.52 47.6927C353.774 46.7103 353.901 45.7279 353.901 44.7456C353.901 42.5844 353.33 40.8488 352.187 39.539" fill="#1C1A1A"/>
</svg>
