<svg width="736" height="234" viewBox="0 0 736 234" fill="none" xmlns="http://www.w3.org/2000/svg">
<path d="M317.475 0V31.0906C317.475 31.0906 317.475 33.1864 317.475 37.3778C320.332 34.6927 323.537 33.3173 327.091 33.2518C329.313 33.2519 331.217 34.2015 332.804 36.1007C334.2 37.869 334.93 39.8337 334.994 41.9949C335.057 43.6977 334.645 45.6624 333.756 47.8891C333.439 48.806 332.74 49.7884 331.661 50.8363C330.836 51.6222 329.979 52.4408 329.091 53.2922C324.394 56.8287 319.697 60.398 315 64V0H317.475V0ZM325.187 39.539C324.426 38.6221 323.442 38.1637 322.236 38.1637C320.712 38.1637 319.475 39.0478 318.523 40.8161C317.824 42.1914 317.475 45.4332 317.475 50.5415V58.9899C317.539 59.2519 319.316 57.6473 322.807 54.1763C324.711 52.3426 325.949 50.1813 326.52 47.6927C326.774 46.7103 326.901 45.7279 326.901 44.7456C326.901 42.5844 326.33 40.8488 325.187 39.539" fill="#1C1A1A"/>
<line x1="342" y1="56.5" x2="394" y2="56.5" stroke="#1C1A1A"/>
<path d="M358.097 54.5145C352.453 52.8054 348 48.1609 348 43.9836C348 32.1601 373.813 27.4812 384.473 37.3725C396 48.0687 377.188 60.2953 358.097 54.5145H358.097ZM375.315 51.5442C378.455 46.8287 375.453 37.486 370.013 35.0476C362.025 31.4667 357.129 37.5689 360.456 46.9586C362.757 53.4532 372.119 56.3425 375.315 51.5442Z" fill="#1C1A1A"/>
<line x1="342" y1="43.5" x2="394" y2="43.5" stroke="#1C1A1A"/>
<line y1="96.5" x2="736" y2="96.5" stroke="#1C1A1A"/>
<line y1="121.5" x2="736" y2="121.5" stroke="#1C1A1A"/>
<line y1="146.5" x2="736" y2="146.5" stroke="#1C1A1A"/>
<line y1="171.5" x2="736" y2="171.5" stroke="#1C1A1A"/>
<line y1="196.5" x2="736" y2="196.5" stroke="#1C1A1A"/>
<path d="M33.0196 159.694C30.4448 160.54 28.317 161.969 26.636 163.981C24.9547 165.991 23.9303 168.188 23.5625 170.57C23.1947 172.951 23.4969 175.306 24.4688 177.635C25.4407 179.964 27.2664 181.843 29.9456 183.272C30.5761 183.272 30.9699 183.537 31.128 184.066C31.2852 184.595 31.0485 184.859 30.419 184.859C27.8443 184.33 25.5852 183.245 23.6414 181.605C20.0163 178.588 18.0199 174.698 17.6522 169.935C17.4421 167.553 17.6653 165.251 18.3221 163.028C18.9787 160.805 19.885 158.767 21.0408 156.914C22.4592 154.957 24.1404 153.263 26.0843 151.834C26.1893 151.728 26.4915 151.49 26.9905 151.12C27.4896 150.749 27.9755 150.405 28.4484 150.088C28.9213 149.77 29.6304 149.267 30.5761 148.579L27.6604 134.448C25.0861 136.618 22.5381 139.012 20.0164 141.632C17.4946 144.252 15.2092 147.018 13.1603 149.929C11.1115 152.84 9.46968 155.923 8.23502 159.178C7.00047 162.433 6.3832 165.859 6.3832 169.459C6.3832 172.793 7.07923 175.929 8.47151 178.866C9.86369 181.803 11.7156 184.357 14.0272 186.526C16.3388 188.696 19.005 190.403 22.0258 191.648C25.0467 192.891 28.1069 193.513 31.2066 193.513C31.312 193.513 31.7973 193.46 32.6645 193.354C33.5317 193.249 34.4506 193.116 35.4222 192.957C36.3948 192.799 37.2879 192.626 38.1024 192.441C38.9159 192.256 39.3236 192.057 39.3236 191.846L38.8502 189.623C36.8016 179.197 34.8574 169.22 33.0196 159.694V159.694ZM35.7773 159.376L42.2394 190.893C45.9697 189.464 48.4907 187.016 49.8045 183.55C51.1182 180.083 51.4195 176.564 50.7104 172.991C50.0014 169.419 48.3336 166.256 45.7062 163.504C43.0798 160.752 39.7701 159.376 35.7773 159.376V159.376ZM27.5028 116.903C29.1311 116.056 30.6417 114.787 32.034 113.092C33.4263 111.399 34.7132 109.586 35.8956 107.654C37.077 105.723 38.1024 103.751 38.9686 101.739C39.8357 99.7287 40.5319 97.9033 41.057 96.2623C41.6348 94.516 42.0286 92.5574 42.2394 90.3874C42.4493 88.2174 42.1081 86.392 41.2151 84.9093C40.5846 83.5868 39.7572 82.8194 38.7329 82.607C37.7076 82.3956 36.6832 82.4748 35.6589 82.8455C34.6346 83.2161 33.663 83.8112 32.7431 84.6318C31.8242 85.4523 31.1539 86.1796 30.7342 86.8148C29.5776 88.8786 28.5663 91.1809 27.6998 93.7216C26.8329 96.2623 26.2418 98.8951 25.9267 101.621C25.6114 104.346 25.5721 106.966 25.8085 109.481C26.0448 111.994 26.6096 114.469 27.5028 116.903V116.903ZM25.1387 119.364C24.2455 115.872 23.4575 112.444 22.7745 109.083C22.0915 105.723 21.7501 102.269 21.7501 98.7228C21.7501 96.13 21.9339 93.2848 22.3017 90.189C22.6694 87.0933 23.3392 84.0757 24.3112 81.1383C25.2831 78.2009 26.6227 75.568 28.3302 73.2397C30.0381 70.9104 32.3095 69.2173 35.1468 68.1583C35.4093 68.0531 35.6718 68 35.9344 68C36.3023 68 36.7359 68.2114 37.2352 68.6352C37.7344 69.058 38.2595 69.6801 38.8114 70.5006C39.3624 71.3211 39.8487 72.1677 40.2693 73.0413C40.689 73.9139 41.0043 74.51 41.2151 74.8276C42.6332 77.5266 43.6705 80.3979 44.3278 83.4406C44.9842 86.4842 45.3651 89.5138 45.4705 92.5304C45.6803 97.0828 45.4307 101.581 44.7216 106.027C44.0126 110.473 42.5805 114.813 40.4265 119.046C39.6915 120.317 38.9427 121.6 38.1809 122.897C37.4192 124.194 36.5132 125.45 35.462 126.668C35.2522 126.88 34.8713 127.264 34.3193 127.819C33.7674 128.375 33.2025 128.944 32.6247 129.526C32.0469 130.108 31.5348 130.651 31.0883 131.153C30.6417 131.656 30.419 131.96 30.419 132.066L33.6491 147.944C33.6699 148.048 35.2651 147.944 35.2651 147.944C38.348 147.983 41.6119 148.486 44.4462 149.611C47.178 150.881 49.529 152.628 51.4991 154.851C53.4691 157.074 55.0444 159.574 56.2268 162.353C57.4093 165.132 58 167.95 58 170.808C58 173.665 57.5793 176.577 56.739 179.54C54.5849 185.151 51.144 189.305 46.4162 192.004C45.8902 192.322 45.1413 192.68 44.1697 193.076C43.1981 193.473 42.8172 194.095 43.027 194.942C44.2881 200.708 45.1413 204.676 45.5888 206.85C46.0354 209.024 46.3635 211.829 46.5734 215.265C46.7832 218.551 46.2183 221.507 44.8788 224.152C43.5392 226.807 41.7402 228.961 39.4807 230.624C37.2222 232.297 35.1597 233.269 33.295 233.569C31.4294 233.86 30.1554 234 29.4732 234C27.1087 234 24.7972 233.549 22.5381 232.648C19.7536 231.596 17.4158 229.983 15.5245 227.809C13.6332 225.635 12.6875 222.99 12.6875 219.874C12.6875 217.91 13.2523 215.897 14.3818 213.833C15.5114 211.769 16.9955 210.286 18.8342 209.394C20.8832 208.333 22.7351 208.042 24.39 208.513C26.0448 208.994 27.4108 209.895 28.4878 211.218C29.5647 212.54 30.3136 214.143 30.7342 216.017C31.1539 217.9 31.128 219.653 30.6547 221.297C30.1823 222.94 29.2236 224.332 27.7786 225.464C26.3338 226.606 24.3243 227.117 21.7501 227.017C22.8007 228.921 24.2718 230.123 26.1631 230.624C28.0544 231.135 29.9983 231.165 31.9942 230.744C33.9912 230.323 35.8688 229.542 37.629 228.4C39.3892 227.268 40.7686 226.035 41.766 224.713C42.3965 223.761 42.8699 222.519 43.1852 220.986C43.5004 219.443 43.6844 217.85 43.7361 216.177C43.7888 214.514 43.7361 213.212 43.579 212.29C43.4209 211.358 43.1583 209.915 42.7904 207.962C41.2151 201.56 40.2166 197.533 39.796 195.89C39.5861 195.366 39.0213 195.193 38.1024 195.379C37.1825 195.564 36.4078 195.736 35.7773 195.89C31.2593 196.481 27.4765 196.21 24.4294 195.101C19.7011 193.831 15.5376 191.568 11.9389 188.313C8.34014 185.058 5.45067 181.115 3.27036 176.484C1.09015 171.853 0 168.334 0 165.925C0 163.518 0 161.996 0 161.361C0 157.074 0.73552 153.051 2.20656 149.293C4.99092 143.418 8.28763 138.02 12.0965 133.098C15.9054 128.176 20.2528 123.598 25.1387 119.364V119.364Z" fill="#1C1A1A"/>
</svg>
