<svg width="2577" height="166" viewBox="0 0 2577 166" fill="none" xmlns="http://www.w3.org/2000/svg">
<line y1="28.5" x2="2577" y2="28.5" stroke="#1C1A1A"/>
<line y1="53.5" x2="2577" y2="53.5" stroke="#1C1A1A"/>
<line y1="78.5" x2="2577" y2="78.5" stroke="#1C1A1A"/>
<line y1="103.5" x2="2577" y2="103.5" stroke="#1C1A1A"/>
<line y1="128.5" x2="2577" y2="128.5" stroke="#1C1A1A"/>
<path d="M33.0196 91.6936C30.4448 92.5402 28.317 93.9688 26.636 95.9805C24.9547 97.9912 23.9303 100.188 23.5625 102.57C23.1947 104.951 23.4969 107.306 24.4688 109.635C25.4407 111.964 27.2664 113.843 29.9456 115.272C30.5761 115.272 30.9699 115.537 31.128 116.066C31.2852 116.595 31.0485 116.859 30.419 116.859C27.8443 116.33 25.5852 115.245 23.6414 113.605C20.0163 110.588 18.02 106.698 17.6522 101.935C17.4421 99.5531 17.6653 97.2509 18.3221 95.0277C18.9787 92.8046 19.885 90.7669 21.0408 88.9144C22.4592 86.9568 24.1404 85.2627 26.0843 83.834C26.1893 83.7279 26.4915 83.4904 26.9905 83.1197C27.4896 82.749 27.9755 82.4054 28.4484 82.0878C28.9213 81.7702 29.6304 81.2673 30.5761 80.579L27.6604 66.4479C25.0861 68.6179 22.5381 71.0123 20.0164 73.6322C17.4946 76.252 15.2092 79.0181 13.1603 81.9285C11.1115 84.8399 9.46968 87.9226 8.23502 91.1776C7.00047 94.4326 6.38319 97.859 6.38319 101.459C6.38319 104.793 7.07923 107.929 8.47151 110.866C9.86369 113.803 11.7156 116.357 14.0272 118.526C16.3388 120.696 19.005 122.403 22.0258 123.648C25.0467 124.891 28.1069 125.513 31.2066 125.513C31.312 125.513 31.7973 125.46 32.6645 125.354C33.5317 125.249 34.4506 125.116 35.4222 124.957C36.3948 124.799 37.2879 124.626 38.1024 124.441C38.9159 124.256 39.3236 124.057 39.3236 123.846L38.8502 121.623C36.8016 111.197 34.8574 101.22 33.0196 91.6936ZM35.7773 91.376L42.2394 122.893C45.9697 121.464 48.4907 119.016 49.8045 115.55C51.1182 112.083 51.4195 108.564 50.7104 104.991C50.0014 101.419 48.3336 98.2557 45.7062 95.5036C43.0798 92.7515 39.7701 91.376 35.7773 91.376ZM27.5028 48.9034C29.1311 48.0559 30.6417 46.7865 32.034 45.0924C33.4263 43.3993 34.7132 41.5859 35.8956 39.6543C37.077 37.7228 38.1024 35.7511 38.9686 33.7394C39.8357 31.7287 40.5319 29.9033 41.057 28.2623C41.6348 26.516 42.0286 24.5574 42.2394 22.3874C42.4493 20.2174 42.1081 18.392 41.2151 16.9093C40.5846 15.5868 39.7572 14.8194 38.7329 14.607C37.7076 14.3956 36.6832 14.4748 35.6589 14.8455C34.6346 15.2161 33.663 15.8112 32.7431 16.6318C31.8242 17.4523 31.1539 18.1796 30.7342 18.8148C29.5776 20.8786 28.5663 23.1809 27.6998 25.7216C26.8329 28.2623 26.2418 30.8951 25.9267 33.6212C25.6114 36.3462 25.5721 38.9661 25.8085 41.4807C26.0448 43.9944 26.6096 46.4689 27.5028 48.9034ZM25.1387 51.364C24.2455 47.8715 23.4575 44.4442 22.7745 41.083C22.0915 37.7228 21.7501 34.2694 21.7501 30.7228C21.7501 28.13 21.9339 25.2848 22.3017 22.189C22.6694 19.0933 23.3392 16.0757 24.3112 13.1383C25.2831 10.2009 26.6227 7.568 28.3302 5.23969C30.0381 2.91038 32.3095 1.21725 35.1468 0.158293C35.4093 0.0530982 35.6718 0 35.9344 0C36.3023 0 36.7359 0.211391 37.2352 0.635175C37.7344 1.05796 38.2595 1.68011 38.8114 2.50062C39.3624 3.32114 39.8487 4.16771 40.2693 5.04132C40.689 5.91394 41.0043 6.51004 41.2151 6.82763C42.6332 9.52662 43.6705 12.3979 44.3278 15.4406C44.9842 18.4842 45.3651 21.5138 45.4705 24.5304C45.6803 29.0828 45.4307 33.5811 44.7216 38.0273C44.0126 42.4725 42.5805 46.8126 40.4265 51.0464C39.6915 52.3168 38.9427 53.6001 38.1809 54.8965C37.4192 56.1939 36.5132 57.4502 35.462 58.6675C35.2522 58.8799 34.8713 59.2636 34.3193 59.8186C33.7674 60.3747 33.2025 60.9437 32.6247 61.5258C32.0469 62.1079 31.5348 62.6509 31.0883 63.1528C30.6417 63.6557 30.419 63.9603 30.419 64.0665L33.6491 79.9438C33.6699 80.048 35.2651 79.9438 35.2651 79.9438C38.348 79.9829 41.6119 80.4859 44.4462 81.6109C47.178 82.8813 49.529 84.6275 51.4991 86.8506C53.4691 89.0737 55.0444 91.5744 56.2268 94.3525C57.4093 97.1316 58 99.9498 58 102.808C58 105.665 57.5793 108.577 56.739 111.54C54.5849 117.151 51.144 121.305 46.4162 124.004C45.8902 124.322 45.1413 124.68 44.1697 125.076C43.1981 125.473 42.8172 126.095 43.027 126.942C44.2881 132.708 45.1413 136.676 45.5888 138.85C46.0354 141.024 46.3635 143.829 46.5734 147.265C46.7832 150.551 46.2183 153.507 44.8788 156.152C43.5392 158.807 41.7402 160.961 39.4807 162.624C37.2222 164.297 35.1597 165.269 33.295 165.569C31.4294 165.86 30.1554 166 29.4732 166C27.1087 166 24.7972 165.549 22.5381 164.648C19.7536 163.596 17.4158 161.983 15.5245 159.809C13.6332 157.635 12.6875 154.99 12.6875 151.874C12.6875 149.91 13.2523 147.897 14.3818 145.833C15.5114 143.769 16.9955 142.286 18.8342 141.395C20.8832 140.333 22.7351 140.042 24.39 140.513C26.0448 140.994 27.4108 141.895 28.4878 143.218C29.5647 144.54 30.3136 146.143 30.7342 148.017C31.1539 149.9 31.128 151.653 30.6547 153.297C30.1823 154.94 29.2236 156.332 27.7786 157.464C26.3338 158.606 24.3243 159.117 21.7501 159.017C22.8007 160.921 24.2718 162.123 26.1631 162.624C28.0544 163.135 29.9983 163.165 31.9942 162.744C33.9912 162.323 35.8688 161.542 37.629 160.4C39.3892 159.268 40.7686 158.035 41.766 156.713C42.3965 155.761 42.8699 154.519 43.1852 152.986C43.5004 151.443 43.6844 149.85 43.7361 148.177C43.7888 146.514 43.7361 145.212 43.579 144.29C43.4209 143.358 43.1583 141.915 42.7904 139.962C41.2151 133.56 40.2166 129.533 39.796 127.89C39.5861 127.366 39.0213 127.193 38.1024 127.379C37.1825 127.564 36.4078 127.736 35.7773 127.89C31.2593 128.481 27.4765 128.21 24.4294 127.101C19.7011 125.831 15.5376 123.568 11.9389 120.313C8.34014 117.058 5.45067 113.115 3.27036 108.484C1.09015 103.853 0 100.334 0 97.9251C0 95.5177 0 93.9958 0 93.3607C0 89.0737 0.73552 85.0513 2.20656 81.2933C4.99092 75.4185 8.28763 70.0205 12.0965 65.0984C15.9054 60.1763 20.2528 55.5978 25.1387 51.364Z" fill="#1C1A1A"/>
<path d="M98.0974 101.514C92.4533 99.8054 88 95.1609 88 90.9836C88 79.1601 113.813 74.4812 124.473 84.3725C136 95.0687 117.188 107.295 98.0974 101.514H98.0974ZM115.315 98.5442C118.455 93.8287 115.453 84.486 110.013 82.0476C102.025 78.4667 97.1285 84.5689 100.456 93.9586C102.757 100.453 112.119 103.343 115.315 98.5442Z" fill="#1C1A1A"/>
<path d="M443.097 101.514C437.453 99.8054 433 95.1609 433 90.9836C433 79.1601 458.813 74.4812 469.473 84.3725C481 95.0687 462.188 107.295 443.097 101.514H443.097ZM460.315 98.5442C463.455 93.8287 460.453 84.486 455.013 82.0476C447.025 78.4667 442.129 84.5689 445.456 93.9586C447.757 100.453 457.119 103.343 460.315 98.5442Z" fill="#1C1A1A"/>
<path d="M924.097 101.514C918.453 99.8054 914 95.1609 914 90.9836C914 79.1601 939.813 74.4812 950.473 84.3725C962 95.0687 943.188 107.295 924.097 101.514H924.097ZM941.315 98.5442C944.455 93.8287 941.453 84.486 936.013 82.0476C928.025 78.4667 923.129 84.5689 926.456 93.9586C928.757 100.453 938.119 103.343 941.315 98.5442Z" fill="#1C1A1A"/>
<path d="M2071.1 101.514C2065.45 99.8054 2061 95.1609 2061 90.9836C2061 79.1601 2086.81 74.4812 2097.47 84.3725C2109 95.0687 2090.19 107.295 2071.1 101.514H2071.1ZM2088.31 98.5442C2091.46 93.8287 2088.45 84.486 2083.01 82.0476C2075.02 78.4667 2070.13 84.5689 2073.46 93.9586C2075.76 100.453 2085.12 103.343 2088.31 98.5442Z" fill="#1C1A1A"/>
<path d="M1033.1 64.5145C1027.45 62.8054 1023 58.1609 1023 53.9836C1023 42.1601 1048.81 37.4812 1059.47 47.3725C1071 58.0687 1052.19 70.2953 1033.1 64.5145H1033.1ZM1050.31 61.5442C1053.46 56.8287 1050.45 47.486 1045.01 45.0476C1037.02 41.4667 1032.13 47.5689 1035.46 56.9586C1037.76 63.4532 1047.12 66.3425 1050.31 61.5442Z" fill="#1C1A1A"/>
<path d="M1427.1 76.5145C1421.45 74.8054 1417 70.1609 1417 65.9836C1417 54.1601 1442.81 49.4812 1453.47 59.3725C1465 70.0687 1446.19 82.2953 1427.1 76.5145H1427.1ZM1444.31 73.5442C1447.46 68.8287 1444.45 59.486 1439.01 57.0476C1431.02 53.4667 1426.13 59.5689 1429.46 68.9586C1431.76 75.4532 1441.12 78.3425 1444.31 73.5442Z" fill="#1C1A1A"/>
<path d="M1571.1 77.5145C1565.45 75.8054 1561 71.1609 1561 66.9836C1561 55.1601 1586.81 50.4812 1597.47 60.3725C1609 71.0687 1590.19 83.2953 1571.1 77.5145H1571.1ZM1588.31 74.5442C1591.46 69.8287 1588.45 60.486 1583.01 58.0476C1575.02 54.4667 1570.13 60.5689 1573.46 69.9586C1575.76 76.4532 1585.12 79.3425 1588.31 74.5442Z" fill="#1C1A1A"/>
<path d="M2008.1 77.5145C2002.45 75.8054 1998 71.1609 1998 66.9836C1998 55.1601 2023.81 50.4812 2034.47 60.3725C2046 71.0687 2027.19 83.2953 2008.1 77.5145H2008.1ZM2025.31 74.5442C2028.46 69.8287 2025.45 60.486 2020.01 58.0476C2012.02 54.4667 2007.13 60.5689 2010.46 69.9586C2012.76 76.4532 2022.12 79.3425 2025.31 74.5442Z" fill="#1C1A1A"/>
<path d="M2158.1 64.5145C2152.45 62.8054 2148 58.1609 2148 53.9836C2148 42.1601 2173.81 37.4812 2184.47 47.3725C2196 58.0687 2177.19 70.2953 2158.1 64.5145H2158.1ZM2175.31 61.5442C2178.46 56.8287 2175.45 47.486 2170.01 45.0476C2162.02 41.4667 2157.13 47.5689 2160.46 56.9586C2162.76 63.4532 2172.12 66.3425 2175.31 61.5442Z" fill="#1C1A1A"/>
<path d="M2293.1 64.5145C2287.45 62.8054 2283 58.1609 2283 53.9836C2283 42.1601 2308.81 37.4812 2319.47 47.3725C2331 58.0687 2312.19 70.2953 2293.1 64.5145H2293.1ZM2310.31 61.5442C2313.46 56.8287 2310.45 47.486 2305.01 45.0476C2297.02 41.4667 2292.13 47.5689 2295.46 56.9586C2297.76 63.4532 2307.12 66.3425 2310.31 61.5442Z" fill="#1C1A1A"/>
<path d="M381.097 76.5145C375.453 74.8054 371 70.1609 371 65.9836C371 54.1601 396.813 49.4812 407.473 59.3725C419 70.0687 400.188 82.2953 381.097 76.5145H381.097ZM398.315 73.5442C401.455 68.8287 398.453 59.486 393.013 57.0476C385.025 53.4667 380.129 59.5689 383.456 68.9586C385.757 75.4532 395.119 78.3425 398.315 73.5442Z" fill="#1C1A1A"/>
<path d="M800.097 76.5145C794.453 74.8054 790 70.1609 790 65.9836C790 54.1601 815.813 49.4812 826.473 59.3725C838 70.0687 819.188 82.2953 800.097 76.5145H800.097ZM817.315 73.5442C820.455 68.8287 817.453 59.486 812.013 57.0476C804.025 53.4667 799.129 59.5689 802.456 68.9586C804.757 75.4532 814.119 78.3425 817.315 73.5442Z" fill="#1C1A1A"/>
<path d="M1262.1 39.5145C1256.45 37.8054 1252 33.1609 1252 28.9836C1252 17.1601 1277.81 12.4812 1288.47 22.3725C1300 33.0687 1281.19 45.2953 1262.1 39.5145H1262.1ZM1279.31 36.5442C1282.46 31.8287 1279.45 22.486 1274.01 20.0476C1266.02 16.4667 1261.13 22.5689 1264.46 31.9586C1266.76 38.4532 1276.12 41.3425 1279.31 36.5442Z" fill="#1C1A1A"/>
<path d="M707.097 51.5145C701.453 49.8054 697 45.1609 697 40.9836C697 29.1601 722.813 24.4812 733.473 34.3725C745 45.0687 726.188 57.2953 707.097 51.5145H707.097ZM724.315 48.5442C727.455 43.8287 724.453 34.486 719.013 32.0476C711.025 28.4667 706.129 34.5689 709.456 43.9586C711.757 50.4532 721.119 53.3425 724.315 48.5442Z" fill="#1C1A1A"/>
<path d="M1333.1 51.5145C1327.45 49.8054 1323 45.1609 1323 40.9836C1323 29.1601 1348.81 24.4812 1359.47 34.3725C1371 45.0687 1352.19 57.2953 1333.1 51.5145H1333.1ZM1350.31 48.5442C1353.46 43.8287 1350.45 34.486 1345.01 32.0476C1337.02 28.4667 1332.13 34.5689 1335.46 43.9586C1337.76 50.4532 1347.12 53.3425 1350.31 48.5442Z" fill="#1C1A1A"/>
<path d="M1881.1 51.5145C1875.45 49.8054 1871 45.1609 1871 40.9836C1871 29.1601 1896.81 24.4812 1907.47 34.3725C1919 45.0687 1900.19 57.2953 1881.1 51.5145H1881.1ZM1898.31 48.5442C1901.46 43.8287 1898.45 34.486 1893.01 32.0476C1885.02 28.4667 1880.13 34.5689 1883.46 43.9586C1885.76 50.4532 1895.12 53.3425 1898.31 48.5442Z" fill="#1C1A1A"/>
<path d="M2198.1 51.5145C2192.45 49.8054 2188 45.1609 2188 40.9836C2188 29.1601 2213.81 24.4812 2224.47 34.3725C2236 45.0687 2217.19 57.2953 2198.1 51.5145H2198.1ZM2215.31 48.5442C2218.46 43.8287 2215.45 34.486 2210.01 32.0476C2202.02 28.4667 2197.13 34.5689 2200.46 43.9586C2202.76 50.4532 2212.12 53.3425 2215.31 48.5442Z" fill="#1C1A1A"/>
<path d="M2331.1 51.5145C2325.45 49.8054 2321 45.1609 2321 40.9836C2321 29.1601 2346.81 24.4812 2357.47 34.3725C2369 45.0687 2350.19 57.2953 2331.1 51.5145H2331.1ZM2348.31 48.5442C2351.46 43.8287 2348.45 34.486 2343.01 32.0476C2335.02 28.4667 2330.13 34.5689 2333.46 43.9586C2335.76 50.4532 2345.12 53.3425 2348.31 48.5442Z" fill="#1C1A1A"/>
<path d="M2364.1 89.5145C2358.45 87.8054 2354 83.1609 2354 78.9836C2354 67.1601 2379.81 62.4812 2390.47 72.3725C2402 83.0687 2383.19 95.2953 2364.1 89.5145H2364.1ZM2381.31 86.5442C2384.46 81.8287 2381.45 72.486 2376.01 70.0476C2368.02 66.4667 2363.13 72.5689 2366.46 81.9586C2368.76 88.4532 2378.12 91.3425 2381.31 86.5442Z" fill="#1C1A1A"/>
<path d="M993.097 51.5145C987.453 49.8054 983 45.1609 983 40.9836C983 29.1601 1008.81 24.4812 1019.47 34.3725C1031 45.0687 1012.19 57.2953 993.097 51.5145H993.097ZM1010.31 48.5442C1013.46 43.8287 1010.45 34.486 1005.01 32.0476C997.025 28.4667 992.129 34.5689 995.456 43.9586C997.757 50.4532 1007.12 53.3425 1010.31 48.5442Z" fill="#1C1A1A"/>
<path d="M1128.1 89.5145C1122.45 87.8054 1118 83.1609 1118 78.9836C1118 67.1601 1143.81 62.4812 1154.47 72.3725C1166 83.0687 1147.19 95.2953 1128.1 89.5145H1128.1ZM1145.31 86.5442C1148.46 81.8287 1145.45 72.486 1140.01 70.0476C1132.02 66.4667 1127.13 72.5689 1130.46 81.9586C1132.76 88.4532 1142.12 91.3425 1145.31 86.5442Z" fill="#1C1A1A"/>
</svg>
