<svg width="1504" height="166" viewBox="0 0 1504 166" fill="none" xmlns="http://www.w3.org/2000/svg">
<line y1="28.5" x2="1503" y2="28.5" stroke="#1C1A1A"/>
<line y1="53.5" x2="1503" y2="53.5" stroke="#1C1A1A"/>
<line y1="78.5" x2="1503" y2="78.5" stroke="#1C1A1A"/>
<line y1="103.5" x2="1503" y2="103.5" stroke="#1C1A1A"/>
<line y1="128.5" x2="1503" y2="128.5" stroke="#1C1A1A"/>
<path d="M34.0196 91.6936C31.4448 92.5402 29.317 93.9688 27.636 95.9805C25.9547 97.9912 24.9303 100.188 24.5625 102.57C24.1947 104.951 24.4969 107.306 25.4688 109.635C26.4407 111.964 28.2664 113.843 30.9456 115.272C31.5761 115.272 31.9699 115.537 32.128 116.066C32.2852 116.595 32.0485 116.859 31.419 116.859C28.8443 116.33 26.5852 115.245 24.6414 113.605C21.0163 110.588 19.02 106.698 18.6522 101.935C18.4421 99.5531 18.6653 97.2509 19.3221 95.0277C19.9787 92.8046 20.885 90.7669 22.0408 88.9144C23.4592 86.9568 25.1404 85.2627 27.0843 83.834C27.1893 83.7279 27.4915 83.4904 27.9905 83.1197C28.4896 82.749 28.9755 82.4054 29.4484 82.0878C29.9213 81.7702 30.6304 81.2673 31.5761 80.579L28.6604 66.4479C26.0861 68.6179 23.5381 71.0123 21.0164 73.6322C18.4946 76.252 16.2092 79.0181 14.1603 81.9285C12.1115 84.8399 10.4697 87.9226 9.23502 91.1776C8.00047 94.4326 7.38319 97.859 7.38319 101.459C7.38319 104.793 8.07923 107.929 9.47151 110.866C10.8637 113.803 12.7156 116.357 15.0272 118.526C17.3388 120.696 20.005 122.403 23.0258 123.648C26.0467 124.891 29.1069 125.513 32.2066 125.513C32.312 125.513 32.7973 125.46 33.6645 125.354C34.5317 125.249 35.4506 125.116 36.4222 124.957C37.3948 124.799 38.2879 124.626 39.1024 124.441C39.9159 124.256 40.3236 124.057 40.3236 123.846L39.8502 121.623C37.8016 111.197 35.8574 101.22 34.0196 91.6936ZM36.7773 91.376L43.2394 122.893C46.9697 121.464 49.4907 119.016 50.8045 115.55C52.1182 112.083 52.4195 108.564 51.7104 104.991C51.0014 101.419 49.3336 98.2557 46.7062 95.5036C44.0798 92.7515 40.7701 91.376 36.7773 91.376ZM28.5028 48.9034C30.1311 48.0559 31.6417 46.7865 33.034 45.0924C34.4263 43.3993 35.7132 41.5859 36.8956 39.6543C38.077 37.7228 39.1024 35.7511 39.9686 33.7394C40.8357 31.7287 41.5319 29.9033 42.057 28.2623C42.6348 26.516 43.0286 24.5574 43.2394 22.3874C43.4493 20.2174 43.1081 18.392 42.2151 16.9093C41.5846 15.5868 40.7572 14.8194 39.7329 14.607C38.7076 14.3956 37.6832 14.4748 36.6589 14.8455C35.6346 15.2161 34.663 15.8112 33.7431 16.6318C32.8242 17.4523 32.1539 18.1796 31.7342 18.8148C30.5776 20.8786 29.5663 23.1809 28.6998 25.7216C27.8329 28.2623 27.2418 30.8951 26.9267 33.6212C26.6114 36.3462 26.5721 38.9661 26.8085 41.4807C27.0448 43.9944 27.6096 46.4689 28.5028 48.9034ZM26.1387 51.364C25.2455 47.8715 24.4575 44.4442 23.7745 41.083C23.0915 37.7228 22.7501 34.2694 22.7501 30.7228C22.7501 28.13 22.9339 25.2848 23.3017 22.189C23.6694 19.0933 24.3392 16.0757 25.3112 13.1383C26.2831 10.2009 27.6227 7.568 29.3302 5.23969C31.0381 2.91038 33.3095 1.21725 36.1468 0.158293C36.4093 0.0530982 36.6718 0 36.9344 0C37.3023 0 37.7359 0.211391 38.2352 0.635175C38.7344 1.05796 39.2595 1.68011 39.8114 2.50062C40.3624 3.32114 40.8487 4.16771 41.2693 5.04132C41.689 5.91394 42.0043 6.51004 42.2151 6.82763C43.6332 9.52662 44.6705 12.3979 45.3278 15.4406C45.9842 18.4842 46.3651 21.5138 46.4705 24.5304C46.6803 29.0828 46.4307 33.5811 45.7216 38.0273C45.0126 42.4725 43.5805 46.8126 41.4265 51.0464C40.6915 52.3168 39.9427 53.6001 39.1809 54.8965C38.4192 56.1939 37.5132 57.4502 36.462 58.6675C36.2522 58.8799 35.8713 59.2636 35.3193 59.8186C34.7674 60.3747 34.2025 60.9437 33.6247 61.5258C33.0469 62.1079 32.5348 62.6509 32.0883 63.1528C31.6417 63.6557 31.419 63.9603 31.419 64.0665L34.6491 79.9438C34.6699 80.048 36.2651 79.9438 36.2651 79.9438C39.348 79.9829 42.6119 80.4859 45.4462 81.6109C48.178 82.8813 50.529 84.6275 52.4991 86.8506C54.4691 89.0737 56.0444 91.5744 57.2268 94.3525C58.4093 97.1316 59 99.9498 59 102.808C59 105.665 58.5793 108.577 57.739 111.54C55.5849 117.151 52.144 121.305 47.4162 124.004C46.8902 124.322 46.1413 124.68 45.1697 125.076C44.1981 125.473 43.8172 126.095 44.027 126.942C45.2881 132.708 46.1413 136.676 46.5888 138.85C47.0354 141.024 47.3635 143.829 47.5734 147.265C47.7832 150.551 47.2183 153.507 45.8788 156.152C44.5392 158.807 42.7402 160.961 40.4807 162.624C38.2222 164.297 36.1597 165.269 34.295 165.569C32.4294 165.86 31.1554 166 30.4732 166C28.1087 166 25.7972 165.549 23.5381 164.648C20.7536 163.596 18.4158 161.983 16.5245 159.809C14.6332 157.635 13.6875 154.99 13.6875 151.874C13.6875 149.91 14.2523 147.897 15.3818 145.833C16.5114 143.769 17.9955 142.286 19.8342 141.395C21.8832 140.333 23.7351 140.042 25.39 140.513C27.0448 140.994 28.4108 141.895 29.4878 143.218C30.5647 144.54 31.3136 146.143 31.7342 148.017C32.1539 149.9 32.128 151.653 31.6547 153.297C31.1823 154.94 30.2236 156.332 28.7786 157.464C27.3338 158.606 25.3243 159.117 22.7501 159.017C23.8007 160.921 25.2718 162.123 27.1631 162.624C29.0544 163.135 30.9983 163.165 32.9942 162.744C34.9912 162.323 36.8688 161.542 38.629 160.4C40.3892 159.268 41.7686 158.035 42.766 156.713C43.3965 155.761 43.8699 154.519 44.1852 152.986C44.5004 151.443 44.6844 149.85 44.7361 148.177C44.7888 146.514 44.7361 145.212 44.579 144.29C44.4209 143.358 44.1583 141.915 43.7904 139.962C42.2151 133.56 41.2166 129.533 40.796 127.89C40.5861 127.366 40.0213 127.193 39.1024 127.379C38.1825 127.564 37.4078 127.736 36.7773 127.89C32.2593 128.481 28.4765 128.21 25.4294 127.101C20.7011 125.831 16.5376 123.568 12.9389 120.313C9.34014 117.058 6.45067 113.115 4.27036 108.484C2.09015 103.853 1 100.334 1 97.9251C1 95.5177 1 93.9958 1 93.3607C1 89.0737 1.73552 85.0513 3.20656 81.2933C5.99092 75.4185 9.28763 70.0205 13.0965 65.0984C16.9054 60.1763 21.2528 55.5978 26.1387 51.364Z" fill="#1C1A1A"/>
<path d="M663.097 51.5145C657.453 49.8054 653 45.1609 653 40.9836C653 29.1601 678.813 24.4812 689.473 34.3725C701 45.0687 682.188 57.2953 663.097 51.5145H663.097ZM680.315 48.5442C683.455 43.8287 680.453 34.486 675.013 32.0476C667.025 28.4667 662.129 34.5689 665.456 43.9586C667.757 50.4532 677.119 53.3425 680.315 48.5442Z" fill="#1C1A1A"/>
<path d="M280.097 101.514C274.453 99.8054 270 95.1609 270 90.9836C270 79.1601 295.813 74.4812 306.473 84.3725C318 95.0687 299.188 107.295 280.097 101.514H280.097ZM297.315 98.5442C300.455 93.8287 297.453 84.486 292.013 82.0476C284.025 78.4667 279.129 84.5689 282.456 93.9586C284.757 100.453 294.119 103.343 297.315 98.5442Z" fill="#1C1A1A"/>
<path d="M445.097 101.514C439.453 99.8054 435 95.1609 435 90.9836C435 79.1601 460.813 74.4812 471.473 84.3725C483 95.0687 464.188 107.295 445.097 101.514H445.097ZM462.315 98.5442C465.455 93.8287 462.453 84.486 457.013 82.0476C449.025 78.4667 444.129 84.5689 447.456 93.9586C449.757 100.453 459.119 103.343 462.315 98.5442Z" fill="#1C1A1A"/>
<path d="M210.097 114.514C204.453 112.805 200 108.161 200 103.984C200 92.1601 225.813 87.4812 236.473 97.3725C248 108.069 229.188 120.295 210.097 114.514H210.097ZM227.315 111.544C230.455 106.829 227.453 97.486 222.013 95.0476C214.025 91.4667 209.129 97.5689 212.456 106.959C214.757 113.453 224.119 116.343 227.315 111.544Z" fill="#1C1A1A"/>
<path d="M725.097 64.5145C719.453 62.8054 715 58.1609 715 53.9836C715 42.1601 740.813 37.4812 751.473 47.3725C763 58.0687 744.188 70.2953 725.097 64.5145H725.097ZM742.315 61.5442C745.455 56.8287 742.453 47.486 737.013 45.0476C729.025 41.4667 724.129 47.5689 727.456 56.9586C729.757 63.4532 739.119 66.3425 742.315 61.5442Z" fill="#1C1A1A"/>
<path d="M820.097 76.5145C814.453 74.8054 810 70.1609 810 65.9836C810 54.1601 835.813 49.4812 846.473 59.3725C858 70.0687 839.188 82.2953 820.097 76.5145H820.097ZM837.315 73.5442C840.455 68.8287 837.453 59.486 832.013 57.0476C824.025 53.4667 819.129 59.5689 822.456 68.9586C824.757 75.4532 834.119 78.3425 837.315 73.5442Z" fill="#1C1A1A"/>
<path d="M346.097 64.5145C340.453 62.8054 336 58.1609 336 53.9836C336 42.1601 361.813 37.4812 372.473 47.3725C384 58.0687 365.188 70.2953 346.097 64.5145H346.097ZM363.315 61.5442C366.455 56.8287 363.453 47.486 358.013 45.0476C350.025 41.4667 345.129 47.5689 348.456 56.9586C350.757 63.4532 360.119 66.3425 363.315 61.5442Z" fill="#1C1A1A"/>
<path d="M934.097 114.514C928.453 112.805 924 108.161 924 103.984C924 92.1601 949.813 87.4812 960.473 97.3725C972 108.069 953.188 120.295 934.097 114.514H934.097ZM951.315 111.544C954.455 106.829 951.453 97.486 946.013 95.0476C938.025 91.4667 933.129 97.5689 936.456 106.959C938.757 113.453 948.119 116.343 951.315 111.544Z" fill="#1C1A1A"/>
<path d="M1273.1 51.5145C1267.45 49.8054 1263 45.1609 1263 40.9836C1263 29.1601 1288.81 24.4812 1299.47 34.3725C1311 45.0687 1292.19 57.2953 1273.1 51.5145H1273.1ZM1290.31 48.5442C1293.46 43.8287 1290.45 34.486 1285.01 32.0476C1277.02 28.4667 1272.13 34.5689 1275.46 43.9586C1277.76 50.4532 1287.12 53.3425 1290.31 48.5442Z" fill="#1C1A1A"/>
</svg>
