<svg width="2432" height="166" viewBox="0 0 2432 166" fill="none" xmlns="http://www.w3.org/2000/svg">
<line y1="28.5" x2="2432" y2="28.5" stroke="#1C1A1A"/>
<line y1="53.5" x2="2432" y2="53.5" stroke="#1C1A1A"/>
<line y1="78.5" x2="2432" y2="78.5" stroke="#1C1A1A"/>
<line y1="103.5" x2="2432" y2="103.5" stroke="#1C1A1A"/>
<line y1="128.5" x2="2432" y2="128.5" stroke="#1C1A1A"/>
<path d="M33.0196 91.6936C30.4448 92.5402 28.317 93.9688 26.636 95.9805C24.9547 97.9912 23.9303 100.188 23.5625 102.57C23.1947 104.951 23.4969 107.306 24.4688 109.635C25.4407 111.964 27.2664 113.843 29.9456 115.272C30.5761 115.272 30.9699 115.537 31.128 116.066C31.2852 116.595 31.0485 116.859 30.419 116.859C27.8443 116.33 25.5852 115.245 23.6414 113.605C20.0163 110.588 18.02 106.698 17.6522 101.935C17.4421 99.5531 17.6653 97.2509 18.3221 95.0277C18.9787 92.8046 19.885 90.7669 21.0408 88.9144C22.4592 86.9568 24.1404 85.2627 26.0843 83.834C26.1893 83.7279 26.4915 83.4904 26.9905 83.1197C27.4896 82.749 27.9755 82.4054 28.4484 82.0878C28.9213 81.7702 29.6304 81.2673 30.5761 80.579L27.6604 66.4479C25.0861 68.6179 22.5381 71.0123 20.0164 73.6322C17.4946 76.252 15.2092 79.0181 13.1603 81.9285C11.1115 84.8399 9.46968 87.9226 8.23502 91.1776C7.00047 94.4326 6.38319 97.859 6.38319 101.459C6.38319 104.793 7.07923 107.929 8.47151 110.866C9.86369 113.803 11.7156 116.357 14.0272 118.526C16.3388 120.696 19.005 122.403 22.0258 123.648C25.0467 124.891 28.1069 125.513 31.2066 125.513C31.312 125.513 31.7973 125.46 32.6645 125.354C33.5317 125.249 34.4506 125.116 35.4222 124.957C36.3948 124.799 37.2879 124.626 38.1024 124.441C38.9159 124.256 39.3236 124.057 39.3236 123.846L38.8502 121.623C36.8016 111.197 34.8574 101.22 33.0196 91.6936ZM35.7773 91.376L42.2394 122.893C45.9697 121.464 48.4907 119.016 49.8045 115.55C51.1182 112.083 51.4195 108.564 50.7104 104.991C50.0014 101.419 48.3336 98.2557 45.7062 95.5036C43.0798 92.7515 39.7701 91.376 35.7773 91.376ZM27.5028 48.9034C29.1311 48.0559 30.6417 46.7865 32.034 45.0924C33.4263 43.3993 34.7132 41.5859 35.8956 39.6543C37.077 37.7228 38.1024 35.7511 38.9686 33.7394C39.8357 31.7287 40.5319 29.9033 41.057 28.2623C41.6348 26.516 42.0286 24.5574 42.2394 22.3874C42.4493 20.2174 42.1081 18.392 41.2151 16.9093C40.5846 15.5868 39.7572 14.8194 38.7329 14.607C37.7076 14.3956 36.6832 14.4748 35.6589 14.8455C34.6346 15.2161 33.663 15.8112 32.7431 16.6318C31.8242 17.4523 31.1539 18.1796 30.7342 18.8148C29.5776 20.8786 28.5663 23.1809 27.6998 25.7216C26.8329 28.2623 26.2418 30.8951 25.9267 33.6212C25.6114 36.3462 25.5721 38.9661 25.8085 41.4807C26.0448 43.9944 26.6096 46.4689 27.5028 48.9034ZM25.1387 51.364C24.2455 47.8715 23.4575 44.4442 22.7745 41.083C22.0915 37.7228 21.7501 34.2694 21.7501 30.7228C21.7501 28.13 21.9339 25.2848 22.3017 22.189C22.6694 19.0933 23.3392 16.0757 24.3112 13.1383C25.2831 10.2009 26.6227 7.568 28.3302 5.23969C30.0381 2.91038 32.3095 1.21725 35.1468 0.158293C35.4093 0.0530982 35.6718 0 35.9344 0C36.3023 0 36.7359 0.211391 37.2352 0.635175C37.7344 1.05796 38.2595 1.68011 38.8114 2.50062C39.3624 3.32114 39.8487 4.16771 40.2693 5.04132C40.689 5.91394 41.0043 6.51004 41.2151 6.82763C42.6332 9.52662 43.6705 12.3979 44.3278 15.4406C44.9842 18.4842 45.3651 21.5138 45.4705 24.5304C45.6803 29.0828 45.4307 33.5811 44.7216 38.0273C44.0126 42.4725 42.5805 46.8126 40.4265 51.0464C39.6915 52.3168 38.9427 53.6001 38.1809 54.8965C37.4192 56.1939 36.5132 57.4502 35.462 58.6675C35.2522 58.8799 34.8713 59.2636 34.3193 59.8186C33.7674 60.3747 33.2025 60.9437 32.6247 61.5258C32.0469 62.1079 31.5348 62.6509 31.0883 63.1528C30.6417 63.6557 30.419 63.9603 30.419 64.0665L33.6491 79.9438C33.6699 80.048 35.2651 79.9438 35.2651 79.9438C38.348 79.9829 41.6119 80.4859 44.4462 81.6109C47.178 82.8813 49.529 84.6275 51.4991 86.8506C53.4691 89.0737 55.0444 91.5744 56.2268 94.3525C57.4093 97.1316 58 99.9498 58 102.808C58 105.665 57.5793 108.577 56.739 111.54C54.5849 117.151 51.144 121.305 46.4162 124.004C45.8902 124.322 45.1413 124.68 44.1697 125.076C43.1981 125.473 42.8172 126.095 43.027 126.942C44.2881 132.708 45.1413 136.676 45.5888 138.85C46.0354 141.024 46.3635 143.829 46.5734 147.265C46.7832 150.551 46.2183 153.507 44.8788 156.152C43.5392 158.807 41.7402 160.961 39.4807 162.624C37.2222 164.297 35.1597 165.269 33.295 165.569C31.4294 165.86 30.1554 166 29.4732 166C27.1087 166 24.7972 165.549 22.5381 164.648C19.7536 163.596 17.4158 161.983 15.5245 159.809C13.6332 157.635 12.6875 154.99 12.6875 151.874C12.6875 149.91 13.2523 147.897 14.3818 145.833C15.5114 143.769 16.9955 142.286 18.8342 141.395C20.8832 140.333 22.7351 140.042 24.39 140.513C26.0448 140.994 27.4108 141.895 28.4878 143.218C29.5647 144.54 30.3136 146.143 30.7342 148.017C31.1539 149.9 31.128 151.653 30.6547 153.297C30.1823 154.94 29.2236 156.332 27.7786 157.464C26.3338 158.606 24.3243 159.117 21.7501 159.017C22.8007 160.921 24.2718 162.123 26.1631 162.624C28.0544 163.135 29.9983 163.165 31.9942 162.744C33.9912 162.323 35.8688 161.542 37.629 160.4C39.3892 159.268 40.7686 158.035 41.766 156.713C42.3965 155.761 42.8699 154.519 43.1852 152.986C43.5004 151.443 43.6844 149.85 43.7361 148.177C43.7888 146.514 43.7361 145.212 43.579 144.29C43.4209 143.358 43.1583 141.915 42.7904 139.962C41.2151 133.56 40.2166 129.533 39.796 127.89C39.5861 127.366 39.0213 127.193 38.1024 127.379C37.1825 127.564 36.4078 127.736 35.7773 127.89C31.2593 128.481 27.4765 128.21 24.4294 127.101C19.7011 125.831 15.5376 123.568 11.9389 120.313C8.34014 117.058 5.45067 113.115 3.27036 108.484C1.09015 103.853 0 100.334 0 97.9251C0 95.5177 0 93.9958 0 93.3607C0 89.0737 0.73552 85.0513 2.20656 81.2933C4.99092 75.4185 8.28763 70.0205 12.0965 65.0984C15.9054 60.1763 20.2528 55.5978 25.1387 51.364Z" fill="#1C1A1A"/>
<path d="M352.097 51.5145C346.453 49.8054 342 45.1609 342 40.9836C342 29.1601 367.813 24.4812 378.473 34.3725C390 45.0687 371.188 57.2953 352.097 51.5145H352.097ZM369.315 48.5442C372.455 43.8287 369.453 34.486 364.013 32.0476C356.025 28.4667 351.129 34.5689 354.456 43.9586C356.757 50.4532 366.119 53.3425 369.315 48.5442Z" fill="#1C1A1A"/>
<path d="M392.097 63.5145C386.453 61.8054 382 57.1609 382 52.9836C382 41.1601 407.813 36.4812 418.473 46.3725C430 57.0687 411.188 69.2953 392.097 63.5145H392.097ZM409.315 60.5442C412.455 55.8287 409.453 46.486 404.013 44.0476C396.025 40.4667 391.129 46.5689 394.456 55.9586C396.757 62.4532 406.119 65.3425 409.315 60.5442Z" fill="#1C1A1A"/>
<path d="M189.097 76.5145C183.453 74.8054 179 70.1609 179 65.9836C179 54.1601 204.813 49.4812 215.473 59.3725C227 70.0687 208.188 82.2953 189.097 76.5145H189.097ZM206.315 73.5442C209.455 68.8287 206.453 59.486 201.013 57.0476C193.025 53.4667 188.129 59.5689 191.456 68.9586C193.757 75.4532 203.119 78.3425 206.315 73.5442Z" fill="#1C1A1A"/>
<path d="M864.097 76.5145C858.453 74.8054 854 70.1609 854 65.9836C854 54.1601 879.813 49.4812 890.473 59.3725C902 70.0687 883.188 82.2953 864.097 76.5145H864.097ZM881.315 73.5442C884.455 68.8287 881.453 59.486 876.013 57.0476C868.025 53.4667 863.129 59.5689 866.456 68.9586C868.757 75.4532 878.119 78.3425 881.315 73.5442Z" fill="#1C1A1A"/>
<path d="M1096.1 76.5145C1090.45 74.8054 1086 70.1609 1086 65.9836C1086 54.1601 1111.81 49.4812 1122.47 59.3725C1134 70.0687 1115.19 82.2953 1096.1 76.5145H1096.1ZM1113.31 73.5442C1116.46 68.8287 1113.45 59.486 1108.01 57.0476C1100.02 53.4667 1095.13 59.5689 1098.46 68.9586C1100.76 75.4532 1110.12 78.3425 1113.31 73.5442Z" fill="#1C1A1A"/>
<path d="M2037.1 101.514C2031.45 99.8054 2027 95.1609 2027 90.9836C2027 79.1601 2052.81 74.4812 2063.47 84.3725C2075 95.0687 2056.19 107.295 2037.1 101.514H2037.1ZM2054.31 98.5442C2057.46 93.8287 2054.45 84.486 2049.01 82.0476C2041.02 78.4667 2036.13 84.5689 2039.46 93.9586C2041.76 100.453 2051.12 103.343 2054.31 98.5442Z" fill="#1C1A1A"/>
<path d="M95.0974 100.514C89.4533 98.8054 85 94.1609 85 89.9836C85 78.1601 110.813 73.4812 121.473 83.3725C133 94.0687 114.188 106.295 95.0974 100.514H95.0974ZM112.315 97.5442C115.455 92.8287 112.453 83.486 107.013 81.0476C99.025 77.4667 94.1285 83.5689 97.4555 92.9586C99.7567 99.4532 109.119 102.343 112.315 97.5442Z" fill="#1C1A1A"/>
<path d="M589.097 51.5145C583.453 49.8054 579 45.1609 579 40.9836C579 29.1601 604.813 24.4812 615.473 34.3725C627 45.0687 608.188 57.2953 589.097 51.5145H589.097ZM606.315 48.5442C609.455 43.8287 606.453 34.486 601.013 32.0476C593.025 28.4667 588.129 34.5689 591.456 43.9586C593.757 50.4532 603.119 53.3425 606.315 48.5442Z" fill="#1C1A1A"/>
<path d="M1056.1 51.5145C1050.45 49.8054 1046 45.1609 1046 40.9836C1046 29.1601 1071.81 24.4812 1082.47 34.3725C1094 45.0687 1075.19 57.2953 1056.1 51.5145H1056.1ZM1073.31 48.5442C1076.46 43.8287 1073.45 34.486 1068.01 32.0476C1060.02 28.4667 1055.13 34.5689 1058.46 43.9586C1060.76 50.4532 1070.12 53.3425 1073.31 48.5442Z" fill="#1C1A1A"/>
<path d="M1547.1 51.5145C1541.45 49.8054 1537 45.1609 1537 40.9836C1537 29.1601 1562.81 24.4812 1573.47 34.3725C1585 45.0687 1566.19 57.2953 1547.1 51.5145H1547.1ZM1564.31 48.5442C1567.46 43.8287 1564.45 34.486 1559.01 32.0476C1551.02 28.4667 1546.13 34.5689 1549.46 43.9586C1551.76 50.4532 1561.12 53.3425 1564.31 48.5442Z" fill="#1C1A1A"/>
<path d="M1898.1 51.5145C1892.45 49.8054 1888 45.1609 1888 40.9836C1888 29.1601 1913.81 24.4812 1924.47 34.3725C1936 45.0687 1917.19 57.2953 1898.1 51.5145H1898.1ZM1915.31 48.5442C1918.46 43.8287 1915.45 34.486 1910.01 32.0476C1902.02 28.4667 1897.13 34.5689 1900.46 43.9586C1902.76 50.4532 1912.12 53.3425 1915.31 48.5442Z" fill="#1C1A1A"/>
<path d="M2151.1 51.5145C2145.45 49.8054 2141 45.1609 2141 40.9836C2141 29.1601 2166.81 24.4812 2177.47 34.3725C2189 45.0687 2170.19 57.2953 2151.1 51.5145H2151.1ZM2168.31 48.5442C2171.46 43.8287 2168.45 34.486 2163.01 32.0476C2155.02 28.4667 2150.13 34.5689 2153.46 43.9586C2155.76 50.4532 2165.12 53.3425 2168.31 48.5442Z" fill="#1C1A1A"/>
<path d="M2353.1 76.5145C2347.45 74.8054 2343 70.1609 2343 65.9836C2343 54.1601 2368.81 49.4812 2379.47 59.3725C2391 70.0687 2372.19 82.2953 2353.1 76.5145H2353.1ZM2370.31 73.5442C2373.46 68.8287 2370.45 59.486 2365.01 57.0476C2357.02 53.4667 2352.13 59.5689 2355.46 68.9586C2357.76 75.4532 2367.12 78.3425 2370.31 73.5442Z" fill="#1C1A1A"/>
<path d="M1728.1 38.5145C1722.45 36.8054 1718 32.1609 1718 27.9836C1718 16.1601 1743.81 11.4812 1754.47 21.3725C1766 32.0687 1747.19 44.2953 1728.1 38.5145H1728.1ZM1745.31 35.5442C1748.46 30.8287 1745.45 21.486 1740.01 19.0476C1732.02 15.4667 1727.13 21.5689 1730.46 30.9586C1732.76 37.4532 1742.12 40.3425 1745.31 35.5442Z" fill="#1C1A1A"/>
<path d="M740.097 101.514C734.453 99.8054 730 95.1609 730 90.9836C730 79.1601 755.813 74.4812 766.473 84.3725C778 95.0687 759.188 107.295 740.097 101.514H740.097ZM757.315 98.5442C760.455 93.8287 757.453 84.486 752.013 82.0476C744.025 78.4667 739.129 84.5689 742.456 93.9586C744.757 100.453 754.119 103.343 757.315 98.5442Z" fill="#1C1A1A"/>
</svg>
