<svg width="1886" height="166" viewBox="0 0 1886 166" fill="none" xmlns="http://www.w3.org/2000/svg">
<line y1="28.5" x2="1886" y2="28.5" stroke="#1C1A1A"/>
<line y1="53.5" x2="1886" y2="53.5" stroke="#1C1A1A"/>
<line y1="78.5" x2="1886" y2="78.5" stroke="#1C1A1A"/>
<line y1="103.5" x2="1886" y2="103.5" stroke="#1C1A1A"/>
<line y1="128.5" x2="1886" y2="128.5" stroke="#1C1A1A"/>
<path d="M33.0196 91.6936C30.4448 92.5402 28.317 93.9688 26.636 95.9805C24.9547 97.9912 23.9303 100.188 23.5625 102.57C23.1947 104.951 23.4969 107.306 24.4688 109.635C25.4407 111.964 27.2664 113.843 29.9456 115.272C30.5761 115.272 30.9699 115.537 31.128 116.066C31.2852 116.595 31.0485 116.859 30.419 116.859C27.8443 116.33 25.5852 115.245 23.6414 113.605C20.0163 110.588 18.02 106.698 17.6522 101.935C17.4421 99.5531 17.6653 97.2509 18.3221 95.0277C18.9787 92.8046 19.885 90.7669 21.0408 88.9144C22.4592 86.9568 24.1404 85.2627 26.0843 83.834C26.1893 83.7279 26.4915 83.4904 26.9905 83.1197C27.4896 82.749 27.9755 82.4054 28.4484 82.0878C28.9213 81.7702 29.6304 81.2673 30.5761 80.579L27.6604 66.4479C25.0861 68.6179 22.5381 71.0123 20.0164 73.6322C17.4946 76.252 15.2092 79.0181 13.1603 81.9285C11.1115 84.8399 9.46968 87.9226 8.23502 91.1776C7.00047 94.4326 6.38319 97.859 6.38319 101.459C6.38319 104.793 7.07923 107.929 8.47151 110.866C9.86369 113.803 11.7156 116.357 14.0272 118.526C16.3388 120.696 19.005 122.403 22.0258 123.648C25.0467 124.891 28.1069 125.513 31.2066 125.513C31.312 125.513 31.7973 125.46 32.6645 125.354C33.5317 125.249 34.4506 125.116 35.4222 124.957C36.3948 124.799 37.2879 124.626 38.1024 124.441C38.9159 124.256 39.3236 124.057 39.3236 123.846L38.8502 121.623C36.8016 111.197 34.8574 101.22 33.0196 91.6936ZM35.7773 91.376L42.2394 122.893C45.9697 121.464 48.4907 119.016 49.8045 115.55C51.1182 112.083 51.4195 108.564 50.7104 104.991C50.0014 101.419 48.3336 98.2557 45.7062 95.5036C43.0798 92.7515 39.7701 91.376 35.7773 91.376ZM27.5028 48.9034C29.1311 48.0559 30.6417 46.7865 32.034 45.0924C33.4263 43.3993 34.7132 41.5859 35.8956 39.6543C37.077 37.7228 38.1024 35.7511 38.9686 33.7394C39.8357 31.7287 40.5319 29.9033 41.057 28.2623C41.6348 26.516 42.0286 24.5574 42.2394 22.3874C42.4493 20.2174 42.1081 18.392 41.2151 16.9093C40.5846 15.5868 39.7572 14.8194 38.7329 14.607C37.7076 14.3956 36.6832 14.4748 35.6589 14.8455C34.6346 15.2161 33.663 15.8112 32.7431 16.6318C31.8242 17.4523 31.1539 18.1796 30.7342 18.8148C29.5776 20.8786 28.5663 23.1809 27.6998 25.7216C26.8329 28.2623 26.2418 30.8951 25.9267 33.6212C25.6114 36.3462 25.5721 38.9661 25.8085 41.4807C26.0448 43.9944 26.6096 46.4689 27.5028 48.9034ZM25.1387 51.364C24.2455 47.8715 23.4575 44.4442 22.7745 41.083C22.0915 37.7228 21.7501 34.2694 21.7501 30.7228C21.7501 28.13 21.9339 25.2848 22.3017 22.189C22.6694 19.0933 23.3392 16.0757 24.3112 13.1383C25.2831 10.2009 26.6227 7.568 28.3302 5.23969C30.0381 2.91038 32.3095 1.21725 35.1468 0.158293C35.4093 0.0530982 35.6718 0 35.9344 0C36.3023 0 36.7359 0.211391 37.2352 0.635175C37.7344 1.05796 38.2595 1.68011 38.8114 2.50062C39.3624 3.32114 39.8487 4.16771 40.2693 5.04132C40.689 5.91394 41.0043 6.51004 41.2151 6.82763C42.6332 9.52662 43.6705 12.3979 44.3278 15.4406C44.9842 18.4842 45.3651 21.5138 45.4705 24.5304C45.6803 29.0828 45.4307 33.5811 44.7216 38.0273C44.0126 42.4725 42.5805 46.8126 40.4265 51.0464C39.6915 52.3168 38.9427 53.6001 38.1809 54.8965C37.4192 56.1939 36.5132 57.4502 35.462 58.6675C35.2522 58.8799 34.8713 59.2636 34.3193 59.8186C33.7674 60.3747 33.2025 60.9437 32.6247 61.5258C32.0469 62.1079 31.5348 62.6509 31.0883 63.1528C30.6417 63.6557 30.419 63.9603 30.419 64.0665L33.6491 79.9438C33.6699 80.048 35.2651 79.9438 35.2651 79.9438C38.348 79.9829 41.6119 80.4859 44.4462 81.6109C47.178 82.8813 49.529 84.6275 51.4991 86.8506C53.4691 89.0737 55.0444 91.5744 56.2268 94.3525C57.4093 97.1316 58 99.9498 58 102.808C58 105.665 57.5793 108.577 56.739 111.54C54.5849 117.151 51.144 121.305 46.4162 124.004C45.8902 124.322 45.1413 124.68 44.1697 125.076C43.1981 125.473 42.8172 126.095 43.027 126.942C44.2881 132.708 45.1413 136.676 45.5888 138.85C46.0354 141.024 46.3635 143.829 46.5734 147.265C46.7832 150.551 46.2183 153.507 44.8788 156.152C43.5392 158.807 41.7402 160.961 39.4807 162.624C37.2222 164.297 35.1597 165.269 33.295 165.569C31.4294 165.86 30.1554 166 29.4732 166C27.1087 166 24.7972 165.549 22.5381 164.648C19.7536 163.596 17.4158 161.983 15.5245 159.809C13.6332 157.635 12.6875 154.99 12.6875 151.874C12.6875 149.91 13.2523 147.897 14.3818 145.833C15.5114 143.769 16.9955 142.286 18.8342 141.395C20.8832 140.333 22.7351 140.042 24.39 140.513C26.0448 140.994 27.4108 141.895 28.4878 143.218C29.5647 144.54 30.3136 146.143 30.7342 148.017C31.1539 149.9 31.128 151.653 30.6547 153.297C30.1823 154.94 29.2236 156.332 27.7786 157.464C26.3338 158.606 24.3243 159.117 21.7501 159.017C22.8007 160.921 24.2718 162.123 26.1631 162.624C28.0544 163.135 29.9983 163.165 31.9942 162.744C33.9912 162.323 35.8688 161.542 37.629 160.4C39.3892 159.268 40.7686 158.035 41.766 156.713C42.3965 155.761 42.8699 154.519 43.1852 152.986C43.5004 151.443 43.6844 149.85 43.7361 148.177C43.7888 146.514 43.7361 145.212 43.579 144.29C43.4209 143.358 43.1583 141.915 42.7904 139.962C41.2151 133.56 40.2166 129.533 39.796 127.89C39.5861 127.366 39.0213 127.193 38.1024 127.379C37.1825 127.564 36.4078 127.736 35.7773 127.89C31.2593 128.481 27.4765 128.21 24.4294 127.101C19.7011 125.831 15.5376 123.568 11.9389 120.313C8.34014 117.058 5.45067 113.115 3.27036 108.484C1.09015 103.853 0 100.334 0 97.9251C0 95.5177 0 93.9958 0 93.3607C0 89.0737 0.73552 85.0513 2.20656 81.2933C4.99092 75.4185 8.28763 70.0205 12.0965 65.0984C15.9054 60.1763 20.2528 55.5978 25.1387 51.364Z" fill="#1C1A1A"/>
<path d="M193.097 51.5145C187.453 49.8054 183 45.1609 183 40.9836C183 29.1601 208.813 24.4812 219.473 34.3725C231 45.0687 212.188 57.2953 193.097 51.5145H193.097ZM210.315 48.5442C213.455 43.8287 210.453 34.486 205.013 32.0476C197.025 28.4667 192.129 34.5689 195.456 43.9586C197.757 50.4532 207.119 53.3425 210.315 48.5442Z" fill="#1C1A1A"/>
<path d="M288.097 39.5145C282.453 37.8054 278 33.1609 278 28.9836C278 17.1601 303.813 12.4812 314.473 22.3725C326 33.0687 307.188 45.2953 288.097 39.5145H288.097ZM305.315 36.5442C308.455 31.8287 305.453 22.486 300.013 20.0476C292.025 16.4667 287.129 22.5689 290.456 31.9586C292.757 38.4532 302.119 41.3425 305.315 36.5442Z" fill="#1C1A1A"/>
<path d="M591.097 114.514C585.453 112.805 581 108.161 581 103.984C581 92.1601 606.813 87.4812 617.473 97.3725C629 108.069 610.188 120.295 591.097 114.514H591.097ZM608.315 111.544C611.455 106.829 608.453 97.486 603.013 95.0476C595.025 91.4667 590.129 97.5689 593.456 106.959C595.757 113.453 605.119 116.343 608.315 111.544Z" fill="#1C1A1A"/>
<path d="M1077.1 101.514C1071.45 99.8054 1067 95.1609 1067 90.9836C1067 79.1601 1092.81 74.4812 1103.47 84.3725C1115 95.0687 1096.19 107.295 1077.1 101.514H1077.1ZM1094.31 98.5442C1097.46 93.8287 1094.45 84.486 1089.01 82.0476C1081.02 78.4667 1076.13 84.5689 1079.46 93.9586C1081.76 100.453 1091.12 103.343 1094.31 98.5442Z" fill="#1C1A1A"/>
<path d="M941.097 101.514C935.453 99.8054 931 95.1609 931 90.9836C931 79.1601 956.813 74.4812 967.473 84.3725C979 95.0687 960.188 107.295 941.097 101.514H941.097ZM958.315 98.5442C961.455 93.8287 958.453 84.486 953.013 82.0476C945.025 78.4667 940.129 84.5689 943.456 93.9586C945.757 100.453 955.119 103.343 958.315 98.5442Z" fill="#1C1A1A"/>
<path d="M1795.1 101.514C1789.45 99.8054 1785 95.1609 1785 90.9836C1785 79.1601 1810.81 74.4812 1821.47 84.3725C1833 95.0687 1814.19 107.295 1795.1 101.514H1795.1ZM1812.31 98.5442C1815.46 93.8287 1812.45 84.486 1807.01 82.0476C1799.02 78.4667 1794.13 84.5689 1797.46 93.9586C1799.76 100.453 1809.12 103.343 1812.31 98.5442Z" fill="#1C1A1A"/>
<path d="M1755.1 76.5145C1749.45 74.8054 1745 70.1609 1745 65.9836C1745 54.1601 1770.81 49.4812 1781.47 59.3725C1793 70.0687 1774.19 82.2953 1755.1 76.5145H1755.1ZM1772.31 73.5442C1775.46 68.8287 1772.45 59.486 1767.01 57.0476C1759.02 53.4667 1754.13 59.5689 1757.46 68.9586C1759.76 75.4532 1769.12 78.3425 1772.31 73.5442Z" fill="#1C1A1A"/>
<path d="M511.097 51.5145C505.453 49.8054 501 45.1609 501 40.9836C501 29.1601 526.813 24.4812 537.473 34.3725C549 45.0687 530.188 57.2953 511.097 51.5145H511.097ZM528.315 48.5442C531.455 43.8287 528.453 34.486 523.013 32.0476C515.025 28.4667 510.129 34.5689 513.456 43.9586C515.757 50.4532 525.119 53.3425 528.315 48.5442Z" fill="#1C1A1A"/>
<path d="M551.097 63.5145C545.453 61.8054 541 57.1609 541 52.9836C541 41.1601 566.813 36.4812 577.473 46.3725C589 57.0687 570.188 69.2953 551.097 63.5145H551.097ZM568.315 60.5442C571.455 55.8287 568.453 46.486 563.013 44.0476C555.025 40.4667 550.129 46.5689 553.456 55.9586C555.757 62.4532 565.119 65.3425 568.315 60.5442Z" fill="#1C1A1A"/>
<path d="M665.097 51.5145C659.453 49.8054 655 45.1609 655 40.9836C655 29.1601 680.813 24.4812 691.473 34.3725C703 45.0687 684.188 57.2953 665.097 51.5145H665.097ZM682.315 48.5442C685.455 43.8287 682.453 34.486 677.013 32.0476C669.025 28.4667 664.129 34.5689 667.456 43.9586C669.757 50.4532 679.119 53.3425 682.315 48.5442Z" fill="#1C1A1A"/>
<path d="M704.097 51.5145C698.453 49.8054 694 45.1609 694 40.9836C694 29.1601 719.813 24.4812 730.473 34.3725C742 45.0687 723.188 57.2953 704.097 51.5145H704.097ZM721.315 48.5442C724.455 43.8287 721.453 34.486 716.013 32.0476C708.025 28.4667 703.129 34.5689 706.456 43.9586C708.757 50.4532 718.119 53.3425 721.315 48.5442Z" fill="#1C1A1A"/>
<path d="M844.097 39.5145C838.453 37.8054 834 33.1609 834 28.9836C834 17.1601 859.813 12.4812 870.473 22.3725C882 33.0687 863.188 45.2953 844.097 39.5145H844.097ZM861.315 36.5442C864.455 31.8287 861.453 22.486 856.013 20.0476C848.025 16.4667 843.129 22.5689 846.456 31.9586C848.757 38.4532 858.119 41.3425 861.315 36.5442Z" fill="#1C1A1A"/>
<path d="M1856.1 51.5145C1850.45 49.8054 1846 45.1609 1846 40.9836C1846 29.1601 1871.81 24.4812 1882.47 34.3725C1894 45.0687 1875.19 57.2953 1856.1 51.5145H1856.1ZM1873.31 48.5442C1876.46 43.8287 1873.45 34.486 1868.01 32.0476C1860.02 28.4667 1855.13 34.5689 1858.46 43.9586C1860.76 50.4532 1870.12 53.3425 1873.31 48.5442Z" fill="#1C1A1A"/>
</svg>
