<svg width="736" height="184" viewBox="0 0 736 184" fill="none" xmlns="http://www.w3.org/2000/svg">
<line x1="208" y1="46.5" x2="528" y2="46.5" stroke="#1C1A1A"/>
<line x1="208" y1="71.5" x2="528" y2="71.5" stroke="#1C1A1A"/>
<line x1="208" y1="96.5" x2="528" y2="96.5" stroke="#1C1A1A"/>
<line x1="208" y1="121.5" x2="528" y2="121.5" stroke="#1C1A1A"/>
<line x1="208" y1="146.5" x2="528" y2="146.5" stroke="#1C1A1A"/>
<path d="M322.523 56.5005V39.6585L329.368 37.6821V54.4382L322.523 56.5005ZM336 52.426L331.294 53.8367V37.0806L336 35.7058V28.7456L331.294 30.1204V13H329.368V30.6396L322.523 32.6983V16.0505H320.706V33.332L316 34.7104V41.685L320.706 40.3101V57.0339L316 58.4052V65.3511L320.706 63.9762V81H322.523V63.3676L329.368 61.3984V77.9603H331.294V60.7754L336 59.397V52.426Z" fill="#1C1A1A"/>
<path d="M350.523 93.5005V76.6585L357.368 74.6821V91.4382L350.523 93.5005ZM364 89.426L359.294 90.8367V74.0806L364 72.7058V65.7456L359.294 67.1204V50H357.368V67.6396L350.523 69.6983V53.0505H348.706V70.332L344 71.7104V78.685L348.706 77.3101V94.0339L344 95.4052V102.351L348.706 100.976V118H350.523V100.368L357.368 98.3984V114.96H359.294V97.7754L364 96.397V89.426Z" fill="#1C1A1A"/>
<path d="M378.523 43.5005V26.6585L385.368 24.6821V41.4382L378.523 43.5005ZM392 39.426L387.294 40.8367V24.0806L392 22.7058V15.7456L387.294 17.1204V0H385.368V17.6396L378.523 19.6983V3.05046H376.706V20.332L372 21.7104V28.685L376.706 27.3101V44.0339L372 45.4052V52.3511L376.706 50.9762V68H378.523V50.3676L385.368 48.3984V64.9603H387.294V47.7754L392 46.397V39.426Z" fill="#1C1A1A"/>
<path d="M406.523 81.5005V64.6585L413.368 62.6821V79.4382L406.523 81.5005ZM420 77.426L415.294 78.8367V62.0806L420 60.7058V53.7456L415.294 55.1204V38H413.368V55.6396L406.523 57.6983V41.0505H404.706V58.332L400 59.7104V66.685L404.706 65.3101V82.0339L400 83.4052V90.3511L404.706 88.9762V106H406.523V88.3676L413.368 86.3984V102.96H415.294V85.7754L420 84.397V77.426Z" fill="#1C1A1A"/>
</svg>
