<svg width="736" height="184" viewBox="0 0 736 184" fill="none" xmlns="http://www.w3.org/2000/svg">
<line x1="208" y1="46.5" x2="528" y2="46.5" stroke="#1C1A1A"/>
<line x1="208" y1="71.5" x2="528" y2="71.5" stroke="#1C1A1A"/>
<line x1="208" y1="96.5" x2="528" y2="96.5" stroke="#1C1A1A"/>
<line x1="208" y1="121.5" x2="528" y2="121.5" stroke="#1C1A1A"/>
<line x1="208" y1="146.5" x2="528" y2="146.5" stroke="#1C1A1A"/>
<path d="M308.523 56.5005V39.6585L315.368 37.6821V54.4382L308.523 56.5005ZM322 52.426L317.294 53.8367V37.0806L322 35.7058V28.7456L317.294 30.1204V13H315.368V30.6396L308.523 32.6983V16.0505H306.706V33.332L302 34.7104V41.685L306.706 40.3101V57.0339L302 58.4052V65.3511L306.706 63.9762V81H308.523V63.3676L315.368 61.3984V77.9603H317.294V60.7754L322 59.397V52.426Z" fill="#1C1A1A"/>
<path d="M336.523 93.5005V76.6585L343.368 74.6821V91.4382L336.523 93.5005ZM350 89.426L345.294 90.8367V74.0806L350 72.7058V65.7456L345.294 67.1204V50H343.368V67.6396L336.523 69.6983V53.0505H334.706V70.332L330 71.7104V78.685L334.706 77.3101V94.0339L330 95.4052V102.351L334.706 100.976V118H336.523V100.368L343.368 98.3984V114.96H345.294V97.7754L350 96.397V89.426Z" fill="#1C1A1A"/>
<path d="M364.523 43.5005V26.6585L371.368 24.6821V41.4382L364.523 43.5005ZM378 39.426L373.294 40.8367V24.0806L378 22.7058V15.7456L373.294 17.1204V0H371.368V17.6396L364.523 19.6983V3.05046H362.706V20.332L358 21.7104V28.685L362.706 27.3101V44.0339L358 45.4052V52.3511L362.706 50.9762V68H364.523V50.3676L371.368 48.3984V64.9603H373.294V47.7754L378 46.397V39.426Z" fill="#1C1A1A"/>
<path d="M392.523 81.5005V64.6585L399.368 62.6821V79.4382L392.523 81.5005ZM406 77.426L401.294 78.8367V62.0806L406 60.7058V53.7456L401.294 55.1204V38H399.368V55.6396L392.523 57.6983V41.0505H390.706V58.332L386 59.7104V66.685L390.706 65.3101V82.0339L386 83.4052V90.3511L390.706 88.9762V106H392.523V88.3676L399.368 86.3984V102.96H401.294V85.7754L406 84.397V77.426Z" fill="#1C1A1A"/>
<path d="M420.523 118.5V101.658L427.368 99.6821V116.438L420.523 118.5ZM434 114.426L429.294 115.837V99.0806L434 97.7058V90.7456L429.294 92.1204V75H427.368V92.6396L420.523 94.6983V78.0505H418.706V95.332L414 96.7104V103.685L418.706 102.31V119.034L414 120.405V127.351L418.706 125.976V143H420.523V125.368L427.368 123.398V139.96H429.294V122.775L434 121.397V114.426Z" fill="#1C1A1A"/>
</svg>
