<svg width="736" height="171" viewBox="0 0 737 171" fill="none" xmlns="http://www.w3.org/2000/svg">
<line x1="208" y1="33.5" x2="528" y2="33.5" stroke="#1C1A1A"/>
<line x1="208" y1="58.5" x2="528" y2="58.5" stroke="#1C1A1A"/>
<line x1="208" y1="83.5" x2="528" y2="83.5" stroke="#1C1A1A"/>
<line x1="208" y1="108.5" x2="528" y2="108.5" stroke="#1C1A1A"/>
<line x1="208" y1="133.5" x2="528" y2="133.5" stroke="#1C1A1A"/>
<path d="M318.475 37V68.0906C318.475 68.0906 318.475 70.1864 318.475 74.3778C321.332 71.6927 324.537 70.3173 328.091 70.2518C330.313 70.2519 332.217 71.2015 333.804 73.1007C335.2 74.869 335.93 76.8337 335.994 78.9949C336.057 80.6977 335.645 82.6624 334.756 84.8891C334.439 85.806 333.74 86.7884 332.661 87.8363C331.836 88.6222 330.979 89.4408 330.091 90.2922C325.394 93.8287 320.697 97.398 316 101V37H318.475ZM326.187 76.539C325.426 75.6221 324.442 75.1637 323.236 75.1637C321.712 75.1637 320.475 76.0478 319.523 77.8161C318.824 79.1914 318.475 82.4332 318.475 87.5415V95.9899C318.539 96.2519 320.316 94.6473 323.807 91.1763C325.711 89.3426 326.949 87.1813 327.52 84.6927C327.774 83.7103 327.901 82.7279 327.901 81.7456C327.901 79.5844 327.33 77.8488 326.187 76.539Z" fill="#1C1A1A"/>
<path d="M346.475 0V31.0906C346.475 31.0906 346.475 33.1864 346.475 37.3778C349.332 34.6927 352.537 33.3173 356.091 33.2518C358.313 33.2519 360.217 34.2015 361.804 36.1007C363.2 37.869 363.93 39.8337 363.994 41.9949C364.057 43.6977 363.645 45.6624 362.756 47.8891C362.439 48.806 361.74 49.7884 360.661 50.8363C359.836 51.6222 358.979 52.4408 358.091 53.2922C353.394 56.8287 348.697 60.398 344 64V0H346.475ZM354.187 39.539C353.426 38.6221 352.442 38.1637 351.236 38.1637C349.712 38.1637 348.475 39.0478 347.523 40.8161C346.824 42.1914 346.475 45.4332 346.475 50.5415V58.9899C346.539 59.2519 348.316 57.6473 351.807 54.1763C353.711 52.3426 354.949 50.1813 355.52 47.6927C355.774 46.7103 355.901 45.7279 355.901 44.7456C355.901 42.5844 355.33 40.8488 354.187 39.539Z" fill="#1C1A1A"/>
<path d="M374.475 50V81.0906C374.475 81.0906 374.475 83.1864 374.475 87.3778C377.332 84.6927 380.537 83.3173 384.091 83.2518C386.313 83.2519 388.217 84.2015 389.804 86.1007C391.2 87.869 391.93 89.8337 391.994 91.9949C392.057 93.6977 391.645 95.6624 390.756 97.8891C390.439 98.806 389.74 99.7884 388.661 100.836C387.836 101.622 386.979 102.441 386.091 103.292C381.394 106.829 376.697 110.398 372 114V50H374.475ZM382.187 89.539C381.426 88.6221 380.442 88.1637 379.236 88.1637C377.712 88.1637 376.475 89.0478 375.523 90.8161C374.824 92.1914 374.475 95.4332 374.475 100.542V108.99C374.539 109.252 376.316 107.647 379.807 104.176C381.711 102.343 382.949 100.181 383.52 97.6927C383.774 96.7103 383.901 95.7279 383.901 94.7456C383.901 92.5844 383.33 90.8488 382.187 89.539Z" fill="#1C1A1A"/>
<path d="M402.475 12V43.0906C402.475 43.0906 402.475 45.1864 402.475 49.3778C405.332 46.6927 408.537 45.3173 412.091 45.2518C414.313 45.2519 416.217 46.2015 417.804 48.1007C419.2 49.869 419.93 51.8337 419.994 53.9949C420.057 55.6977 419.645 57.6624 418.756 59.8891C418.439 60.806 417.74 61.7884 416.661 62.8363C415.836 63.6222 414.979 64.4408 414.091 65.2922C409.394 68.8287 404.697 72.398 400 76V12H402.475ZM410.187 51.539C409.426 50.6221 408.442 50.1637 407.236 50.1637C405.712 50.1637 404.475 51.0478 403.523 52.8161C402.824 54.1914 402.475 57.4332 402.475 62.5415V70.9899C402.539 71.2519 404.316 69.6473 407.807 66.1763C409.711 64.3426 410.949 62.1813 411.52 59.6927C411.774 58.7103 411.901 57.7279 411.901 56.7456C411.901 54.5844 411.33 52.8488 410.187 51.539Z" fill="#1C1A1A"/>
</svg>
