<svg width="736" height="171" viewBox="0 0 736 171" fill="none" xmlns="http://www.w3.org/2000/svg">
<line x1="208" y1="33.5" x2="528" y2="33.5" stroke="#1C1A1A"/>
<line x1="208" y1="58.5" x2="528" y2="58.5" stroke="#1C1A1A"/>
<line x1="208" y1="83.5" x2="528" y2="83.5" stroke="#1C1A1A"/>
<line x1="208" y1="108.5" x2="528" y2="108.5" stroke="#1C1A1A"/>
<line x1="208" y1="133.5" x2="528" y2="133.5" stroke="#1C1A1A"/>
<path d="M304.475 37V68.0906C304.475 68.0906 304.475 70.1864 304.475 74.3778C307.332 71.6927 310.537 70.3173 314.091 70.2518C316.313 70.2519 318.217 71.2015 319.804 73.1007C321.2 74.869 321.93 76.8337 321.994 78.9949C322.057 80.6977 321.645 82.6624 320.756 84.8891C320.439 85.806 319.74 86.7884 318.661 87.8363C317.836 88.6222 316.979 89.4408 316.091 90.2922C311.394 93.8287 306.697 97.398 302 101V37H304.475ZM312.187 76.539C311.426 75.6221 310.442 75.1637 309.236 75.1637C307.712 75.1637 306.475 76.0478 305.523 77.8161C304.824 79.1914 304.475 82.4332 304.475 87.5415V95.9899C304.539 96.2519 306.316 94.6473 309.807 91.1763C311.711 89.3426 312.949 87.1813 313.52 84.6927C313.774 83.7103 313.901 82.7279 313.901 81.7456C313.901 79.5844 313.33 77.8488 312.187 76.539Z" fill="#1C1A1A"/>
<path d="M332.475 0V31.0906C332.475 31.0906 332.475 33.1864 332.475 37.3778C335.332 34.6927 338.537 33.3173 342.091 33.2518C344.313 33.2519 346.217 34.2015 347.804 36.1007C349.2 37.869 349.93 39.8337 349.994 41.9949C350.057 43.6977 349.645 45.6624 348.756 47.8891C348.439 48.806 347.74 49.7884 346.661 50.8363C345.836 51.6222 344.979 52.4408 344.091 53.2922C339.394 56.8287 334.697 60.398 330 64V0H332.475ZM340.187 39.539C339.426 38.6221 338.442 38.1637 337.236 38.1637C335.712 38.1637 334.475 39.0478 333.523 40.8161C332.824 42.1914 332.475 45.4332 332.475 50.5415V58.9899C332.539 59.2519 334.316 57.6473 337.807 54.1763C339.711 52.3426 340.949 50.1813 341.52 47.6927C341.774 46.7103 341.901 45.7279 341.901 44.7456C341.901 42.5844 341.33 40.8488 340.187 39.539Z" fill="#1C1A1A"/>
<path d="M360.475 50V81.0906C360.475 81.0906 360.475 83.1864 360.475 87.3778C363.332 84.6927 366.537 83.3173 370.091 83.2518C372.313 83.2519 374.217 84.2015 375.804 86.1007C377.2 87.869 377.93 89.8337 377.994 91.9949C378.057 93.6977 377.645 95.6624 376.756 97.8891C376.439 98.806 375.74 99.7884 374.661 100.836C373.836 101.622 372.979 102.441 372.091 103.292C367.394 106.829 362.697 110.398 358 114V50H360.475ZM368.187 89.539C367.426 88.6221 366.442 88.1637 365.236 88.1637C363.712 88.1637 362.475 89.0478 361.523 90.8161C360.824 92.1914 360.475 95.4332 360.475 100.542V108.99C360.539 109.252 362.316 107.647 365.807 104.176C367.711 102.343 368.949 100.181 369.52 97.6927C369.774 96.7103 369.901 95.7279 369.901 94.7456C369.901 92.5844 369.33 90.8488 368.187 89.539Z" fill="#1C1A1A"/>
<path d="M388.475 12V43.0906C388.475 43.0906 388.475 45.1864 388.475 49.3778C391.332 46.6927 394.537 45.3173 398.091 45.2518C400.313 45.2519 402.217 46.2015 403.804 48.1007C405.2 49.869 405.93 51.8337 405.994 53.9949C406.057 55.6977 405.645 57.6624 404.756 59.8891C404.439 60.806 403.74 61.7884 402.661 62.8363C401.836 63.6222 400.979 64.4408 400.091 65.2922C395.394 68.8287 390.697 72.398 386 76V12H388.475ZM396.187 51.539C395.426 50.6221 394.442 50.1637 393.236 50.1637C391.712 50.1637 390.475 51.0478 389.523 52.8161C388.824 54.1914 388.475 57.4332 388.475 62.5415V70.9899C388.539 71.2519 390.316 69.6473 393.807 66.1763C395.711 64.3426 396.949 62.1813 397.52 59.6927C397.774 58.7103 397.901 57.7279 397.901 56.7456C397.901 54.5844 397.33 52.8488 396.187 51.539Z" fill="#1C1A1A"/>
<path d="M416.475 62V93.0906C416.475 93.0906 416.475 95.1864 416.475 99.3778C419.332 96.6927 422.537 95.3173 426.091 95.2518C428.313 95.2519 430.217 96.2015 431.804 98.1007C433.2 99.869 433.93 101.834 433.994 103.995C434.057 105.698 433.645 107.662 432.756 109.889C432.439 110.806 431.74 111.788 430.661 112.836C429.836 113.622 428.979 114.441 428.091 115.292C423.394 118.829 418.697 122.398 414 126V62H416.475ZM424.187 101.539C423.426 100.622 422.442 100.164 421.236 100.164C419.712 100.164 418.475 101.048 417.523 102.816C416.824 104.191 416.475 107.433 416.475 112.542V120.99C416.539 121.252 418.316 119.647 421.807 116.176C423.711 114.343 424.949 112.181 425.52 109.693C425.774 108.71 425.901 107.728 425.901 106.746C425.901 104.584 425.33 102.849 424.187 101.539Z" fill="#1C1A1A"/>
</svg>
