<svg width="737" height="208" viewBox="0 0 737 208" fill="none" xmlns="http://www.w3.org/2000/svg">
<line x1="1" y1="33.5" x2="737" y2="33.5" stroke="#1C1A1A"/>
<line x1="1" y1="58.5" x2="737" y2="58.5" stroke="#1C1A1A"/>
<line x1="1" y1="83.5" x2="737" y2="83.5" stroke="#1C1A1A"/>
<line x1="1" y1="108.5" x2="737" y2="108.5" stroke="#1C1A1A"/>
<line x1="1" y1="133.5" x2="737" y2="133.5" stroke="#1C1A1A"/>
<path d="M324.097 181.514C318.453 179.805 314 175.161 314 170.984C314 159.16 339.813 154.481 350.473 164.372C362 175.069 343.188 187.295 324.097 181.514H324.097ZM341.315 178.544C344.455 173.829 341.453 164.486 336.013 162.048C328.025 158.467 323.129 164.569 326.456 173.959C328.757 180.453 338.119 183.343 341.315 178.544Z" fill="#1C1A1A"/>
<path d="M249.097 194.514C243.453 192.805 239 188.161 239 183.984C239 172.16 264.813 167.481 275.473 177.372C287 188.069 268.188 200.295 249.097 194.514H249.097ZM266.315 191.544C269.455 186.829 266.453 177.486 261.013 175.048C253.025 171.467 248.129 177.569 251.456 186.959C253.757 193.453 263.119 196.343 266.315 191.544Z" fill="#1C1A1A"/>
<path d="M174.097 206.514C168.453 204.805 164 200.161 164 195.984C164 184.16 189.813 179.481 200.473 189.372C212 200.069 193.188 212.295 174.097 206.514H174.097ZM191.315 203.544C194.455 198.829 191.453 189.486 186.013 187.048C178.025 183.467 173.129 189.569 176.456 198.959C178.757 205.453 188.119 208.343 191.315 203.544Z" fill="#1C1A1A"/>
<path d="M399.097 169.514C393.453 167.805 389 163.161 389 158.984C389 147.16 414.813 142.481 425.473 152.372C437 163.069 418.188 175.295 399.097 169.514H399.097ZM416.315 166.544C419.455 161.829 416.453 152.486 411.013 150.048C403.025 146.467 398.129 152.569 401.456 161.959C403.757 168.453 413.119 171.343 416.315 166.544Z" fill="#1C1A1A"/>
<path d="M699.097 119.514C693.453 117.805 689 113.161 689 108.984C689 97.1601 714.813 92.4812 725.473 102.372C737 113.069 718.188 125.295 699.097 119.514H699.097ZM716.315 116.544C719.455 111.829 716.453 102.486 711.013 100.048C703.025 96.4667 698.129 102.569 701.456 111.959C703.757 118.453 713.119 121.343 716.315 116.544Z" fill="#1C1A1A"/>
<path d="M624.097 131.514C618.453 129.805 614 125.161 614 120.984C614 109.16 639.813 104.481 650.473 114.372C662 125.069 643.188 137.295 624.097 131.514H624.097ZM641.315 128.544C644.455 123.829 641.453 114.486 636.013 112.048C628.025 108.467 623.129 114.569 626.456 123.959C628.757 130.453 638.119 133.343 641.315 128.544Z" fill="#1C1A1A"/>
<path d="M549.097 144.514C543.453 142.805 539 138.161 539 133.984C539 122.16 564.813 117.481 575.473 127.372C587 138.069 568.188 150.295 549.097 144.514H549.097ZM566.315 141.544C569.455 136.829 566.453 127.486 561.013 125.048C553.025 121.467 548.129 127.569 551.456 136.959C553.757 143.453 563.119 146.343 566.315 141.544Z" fill="#1C1A1A"/>
<path d="M474.097 156.514C468.453 154.805 464 150.161 464 145.984C464 134.16 489.813 129.481 500.473 139.372C512 150.069 493.188 162.295 474.097 156.514H474.097ZM491.315 153.544C494.455 148.829 491.453 139.486 486.013 137.048C478.025 133.467 473.129 139.569 476.456 148.959C478.757 155.453 488.119 158.343 491.315 153.544Z" fill="#1C1A1A"/>
<path d="M598.523 131.5V114.658L605.368 112.682V129.438L598.523 131.5ZM612 127.426L607.294 128.837V112.081L612 110.706V103.746L607.294 105.12V88H605.368V105.64L598.523 107.698V91.0505H596.706V108.332L592 109.71V116.685L596.706 115.31V132.034L592 133.405V140.351L596.706 138.976V156H598.523V138.368L605.368 136.398V152.96H607.294V135.775L612 134.397V127.426Z" fill="#1C1A1A"/>
<path d="M93.4754 37V68.0906C93.4754 68.0906 93.4754 70.1864 93.4754 74.3778C96.3316 71.6927 99.537 70.3173 103.091 70.2518C105.313 70.2519 107.217 71.2015 108.804 73.1007C110.2 74.869 110.93 76.8337 110.994 78.9949C111.057 80.6977 110.645 82.6624 109.756 84.8891C109.439 85.806 108.74 86.7884 107.661 87.8363C106.836 88.6222 105.979 89.4408 105.091 90.2922C100.394 93.8287 95.6969 97.398 91 101V37H93.4754ZM101.187 76.539C100.426 75.6221 99.4418 75.1637 98.2358 75.1637C96.7125 75.1637 95.4748 76.0478 94.5227 77.8161C93.8245 79.1914 93.4754 82.4332 93.4754 87.5415V95.9899C93.5389 96.2519 95.3161 94.6473 98.8071 91.1763C100.711 89.3426 101.949 87.1813 102.52 84.6927C102.774 83.7103 102.901 82.7279 102.901 81.7456C102.901 79.5844 102.33 77.8488 101.187 76.539Z" fill="#1C1A1A"/>
<path d="M117.475 0V31.0906C117.475 31.0906 117.475 33.1864 117.475 37.3778C120.332 34.6927 123.537 33.3173 127.091 33.2518C129.313 33.2519 131.217 34.2015 132.804 36.1007C134.2 37.869 134.93 39.8337 134.994 41.9949C135.057 43.6977 134.645 45.6624 133.756 47.8891C133.439 48.806 132.74 49.7884 131.661 50.8363C130.836 51.6222 129.979 52.4408 129.091 53.2922C124.394 56.8287 119.697 60.398 115 64V0H117.475ZM125.187 39.539C124.426 38.6221 123.442 38.1637 122.236 38.1637C120.712 38.1637 119.475 39.0478 118.523 40.8161C117.824 42.1914 117.475 45.4332 117.475 50.5415V58.9899C117.539 59.2519 119.316 57.6473 122.807 54.1763C124.711 52.3426 125.949 50.1813 126.52 47.6927C126.774 46.7103 126.901 45.7279 126.901 44.7456C126.901 42.5844 126.33 40.8488 125.187 39.539Z" fill="#1C1A1A"/>
<line x1="154" y1="158.5" x2="214" y2="158.5" stroke="#1C1A1A"/>
<line x1="304" y1="158.5" x2="364" y2="158.5" stroke="#1C1A1A"/>
<line x1="154" y1="183.5" x2="214" y2="183.5" stroke="#1C1A1A"/>
<line x1="229" y1="158.5" x2="289" y2="158.5" stroke="#1C1A1A"/>
<line x1="379" y1="158.5" x2="439" y2="158.5" stroke="#1C1A1A"/>
<line x1="229" y1="183.5" x2="289" y2="183.5" stroke="#1C1A1A"/>
<path d="M27.1226 107.24C24.7962 109.193 12.4703 116.891 4.9764 118C7.10156 116.891 7.77263 116.225 13.5888 112.565C19.306 108.967 26.3397 101.694 32.2677 94.8171C37.0101 89.3154 39.9108 80.619 40.7683 76.9586C42.2894 73.3203 42.2223 65.1638 41.9986 61.5403C41.9613 58.0278 40.4104 49.605 34.5047 44.0145C27.1226 37.0264 19.6287 40.9087 18.2865 41.3524C16.9443 41.7961 12.3585 45.0128 11.0163 47.8968C9.94251 50.204 10.5689 50.9287 11.0163 51.0026C15.273 49.117 19.3501 50.2001 21.8721 52.0009C24.6684 53.9976 27.0172 56.9925 26.7935 61.5403C26.6146 65.1786 24.824 67.8629 23.4818 69.194C20.6855 72.2998 16.1986 72.6326 13.7007 72.6326C7.66078 72.2998 3.86507 67.9743 3.07496 66.6428C2.74586 66.0881 -0.391563 61.0966 1.73276 52.4446C3.48062 45.326 10.1588 39.7625 13.477 37.9138C24.1027 32.4785 31.5966 33.7295 36.4062 35.5844C42.446 37.9138 49.9901 45.1237 51.8414 51.4463C53.6927 57.7689 54.6376 62.7605 53.5191 68.8612C52.4006 74.962 50.8348 79.177 45.1304 88.3836C39.4261 97.5902 30.0307 104.8 27.1226 107.24Z" fill="black"/>
<path d="M4.9764 118L4.74504 117.557C4.52868 117.67 4.42547 117.922 4.50085 118.154C4.57623 118.387 4.80818 118.53 5.04961 118.495L4.9764 118ZM27.1226 107.24L26.8012 106.857L27.1226 107.24ZM45.1304 88.3836L45.5555 88.647L45.1304 88.3836ZM51.8414 51.4463L52.3213 51.3058L51.8414 51.4463ZM36.4062 35.5844L36.5861 35.1179V35.1179L36.4062 35.5844ZM13.477 37.9138L13.2493 37.4686L13.2414 37.4727L13.2336 37.477L13.477 37.9138ZM1.73276 52.4446L2.21834 52.5639L1.73276 52.4446ZM3.07496 66.6428L2.64496 66.8979H2.64496L3.07496 66.6428ZM13.7007 72.6326L13.6732 73.1318L13.6869 73.1326H13.7007V72.6326ZM23.4818 69.194L23.1297 68.839L23.1196 68.8489L23.1102 68.8594L23.4818 69.194ZM26.7935 61.5403L26.2941 61.5157L26.7935 61.5403ZM21.8721 52.0009L22.1627 51.594L21.8721 52.0009ZM11.0163 51.0026L10.9347 51.496L11.0822 51.5203L11.2188 51.4598L11.0163 51.0026ZM11.0163 47.8968L11.4696 48.1078L11.0163 47.8968ZM18.2865 41.3524L18.4434 41.8271L18.2865 41.3524ZM34.5047 44.0145L34.161 44.3776L34.5047 44.0145ZM41.9986 61.5403L41.4986 61.5456L41.4988 61.5584L41.4996 61.5711L41.9986 61.5403ZM40.7683 76.9586L40.307 76.7657L40.2909 76.8041L40.2814 76.8445L40.7683 76.9586ZM32.2677 94.8171L31.889 94.4907L32.2677 94.8171ZM13.5888 112.565L13.8551 112.988L13.5888 112.565ZM5.04961 118.495C8.8889 117.926 13.9096 115.687 18.2233 113.377C22.5423 111.065 26.2412 108.633 27.444 107.624L26.8012 106.857C25.6776 107.8 22.0503 110.194 17.7513 112.496C13.447 114.8 8.55782 116.964 4.90319 117.505L5.04961 118.495ZM27.444 107.624C30.3278 105.204 39.7992 97.9374 45.5555 88.647L44.7054 88.1203C39.053 97.243 29.7337 104.397 26.8012 106.857L27.444 107.624ZM45.5555 88.647C51.2815 79.4054 52.8779 75.1314 54.0109 68.9514L53.0273 68.771C51.9234 74.7925 50.388 78.9487 44.7054 88.1203L45.5555 88.647ZM54.0109 68.9514C55.1504 62.7362 54.1803 57.655 52.3213 51.3058L51.3615 51.5868C53.205 57.8829 54.1249 62.7847 53.0273 68.771L54.0109 68.9514ZM52.3213 51.3058C51.3632 48.0339 48.9526 44.5806 46.0488 41.6651C43.1422 38.7467 39.689 36.3146 36.5861 35.1179L36.2262 36.0509C39.1631 37.1835 42.502 39.5211 45.3402 42.3707C48.1812 45.2231 50.4683 48.5362 51.3615 51.5868L52.3213 51.3058ZM36.5861 35.1179C31.6555 33.2163 24.0124 31.9631 13.2493 37.4686L13.7047 38.3589C24.1929 32.994 31.5377 34.2427 36.2262 36.0509L36.5861 35.1179ZM13.2336 37.477C11.5252 38.4288 8.98435 40.3161 6.64743 42.8651C4.31098 45.4136 2.14795 48.6568 1.24718 52.3254L2.21834 52.5639C3.06543 49.1138 5.11541 46.0159 7.38454 43.5408C9.65322 41.0663 12.1106 39.2474 13.7203 38.3505L13.2336 37.477ZM1.24718 52.3254C-0.921034 61.1562 2.2821 66.2864 2.64496 66.8979L3.50495 66.3876C3.20962 65.8899 0.137908 61.0371 2.21834 52.5639L1.24718 52.3254ZM2.64496 66.8979C3.07914 67.6296 4.27552 69.0937 6.12826 70.4189C7.98869 71.7496 10.5371 72.959 13.6732 73.1318L13.7282 72.1333C10.8244 71.9734 8.45496 70.8536 6.71003 69.6055C4.95742 68.3519 3.86089 66.9874 3.50495 66.3876L2.64496 66.8979ZM13.7007 73.1326C16.2027 73.1326 20.8984 72.8107 23.8534 69.5285L23.1102 68.8594C20.4727 71.7889 16.1946 72.1326 13.7007 72.1326V73.1326ZM23.8339 69.549C25.2438 68.1507 27.1065 65.3543 27.2929 61.5649L26.2941 61.5157C26.1226 65.0028 24.4041 67.5751 23.1297 68.839L23.8339 69.549ZM27.2929 61.5649C27.5276 56.7942 25.0481 53.6543 22.1627 51.594L21.5816 52.4079C24.2887 54.3408 26.5069 57.1907 26.2941 61.5157L27.2929 61.5649ZM22.1627 51.594C19.5206 49.7075 15.2573 48.5771 10.8138 50.5455L11.2188 51.4598C15.2888 49.6568 19.1796 50.6928 21.5816 52.4079L22.1627 51.594ZM11.0978 50.5093C11.097 50.5092 11.0748 50.5052 11.0451 50.4727C11.0162 50.4412 10.9654 50.3659 10.9393 50.2065C10.8847 49.8729 10.9497 49.2249 11.4696 48.1078L10.563 47.6858C10.0091 48.876 9.85035 49.7439 9.95239 50.3679C10.0595 51.0228 10.466 51.4185 10.9347 51.496L11.0978 50.5093ZM11.4696 48.1078C12.0918 46.7709 13.5011 45.3042 14.9692 44.0955C15.6953 43.4977 16.4202 42.9757 17.0424 42.5778C17.6759 42.1727 18.1704 41.9173 18.4434 41.8271L18.1296 40.8776C17.7315 41.0092 17.1494 41.3224 16.5037 41.7353C15.8466 42.1555 15.0895 42.7011 14.3336 43.3235C12.8377 44.5551 11.283 46.1387 10.563 47.6858L11.4696 48.1078ZM18.4434 41.8271C19.1825 41.5828 21.2815 40.5438 24.1563 40.3958C26.9978 40.2496 30.579 40.9869 34.161 44.3776L34.8484 43.6514C31.0483 40.054 27.1915 39.2383 24.1049 39.3972C21.0517 39.5543 18.7327 40.6783 18.1296 40.8776L18.4434 41.8271ZM34.161 44.3776C39.9317 49.8404 41.4622 58.1084 41.4986 61.5456L42.4986 61.535C42.4605 57.9471 40.889 49.3696 34.8484 43.6514L34.161 44.3776ZM41.4996 61.5711C41.6105 63.3674 41.6827 66.2937 41.5384 69.2193C41.393 72.1656 41.0305 75.0352 40.307 76.7657L41.2296 77.1514C42.0272 75.2437 42.3917 72.2159 42.5372 69.2685C42.6836 66.3004 42.6105 63.3367 42.4977 61.5095L41.4996 61.5711ZM40.2814 76.8445C39.4308 80.4758 36.5535 89.0794 31.889 94.4907L32.6464 95.1436C37.4668 89.5514 40.3908 80.7622 41.2551 77.0726L40.2814 76.8445ZM31.889 94.4907C25.961 101.368 18.9699 108.587 13.3225 112.142L13.8551 112.988C19.6422 109.346 26.7183 102.021 32.6464 95.1436L31.889 94.4907ZM13.3225 112.142C10.4095 113.975 8.78348 115.059 7.62388 115.821C6.46733 116.581 5.78498 117.014 4.74504 117.557L5.20776 118.443C6.29298 117.877 7.00874 117.422 8.17307 116.657C9.33434 115.894 10.9519 114.815 13.8551 112.988L13.3225 112.142Z" fill="black"/>
<ellipse cx="66.4852" cy="46.1558" rx="6.51452" ry="6.49758" fill="black"/>
<ellipse cx="66.4852" cy="70.647" rx="6.51452" ry="6.49758" fill="black"/>
</svg>
