<svg width="737" height="166" viewBox="0 0 737 166" fill="none" xmlns="http://www.w3.org/2000/svg">
<line x1="1" y1="28.5" x2="737" y2="28.5" stroke="#1C1A1A"/>
<line x1="1" y1="53.5" x2="737" y2="53.5" stroke="#1C1A1A"/>
<line x1="1" y1="78.5" x2="737" y2="78.5" stroke="#1C1A1A"/>
<line x1="1" y1="103.5" x2="737" y2="103.5" stroke="#1C1A1A"/>
<line x1="1" y1="128.5" x2="737" y2="128.5" stroke="#1C1A1A"/>
<path d="M274.097 113.514C268.453 111.805 264 107.161 264 102.984C264 91.1601 289.813 86.4812 300.473 96.3725C312 107.069 293.188 119.295 274.097 113.514H274.097ZM291.315 110.544C294.455 105.829 291.453 96.486 286.013 94.0476C278.025 90.4667 273.129 96.5689 276.456 105.959C278.757 112.453 288.119 115.343 291.315 110.544Z" fill="#1C1A1A"/>
<path d="M189.097 126.514C183.453 124.805 179 120.161 179 115.984C179 104.16 204.813 99.4812 215.473 109.372C227 120.069 208.188 132.295 189.097 126.514H189.097ZM206.315 123.544C209.455 118.829 206.453 109.486 201.013 107.048C193.025 103.467 188.129 109.569 191.456 118.959C193.757 125.453 203.119 128.343 206.315 123.544Z" fill="#1C1A1A"/>
<path d="M104.097 138.514C98.4533 136.805 94 132.161 94 127.984C94 116.16 119.813 111.481 130.473 121.372C142 132.069 123.188 144.295 104.097 138.514H104.097ZM121.315 135.544C124.455 130.829 121.453 121.486 116.013 119.048C108.025 115.467 103.129 121.569 106.456 130.959C108.757 137.453 118.119 140.343 121.315 135.544Z" fill="#1C1A1A"/>
<path d="M359.097 101.514C353.453 99.8054 349 95.1609 349 90.9836C349 79.1601 374.813 74.4812 385.473 84.3725C397 95.0687 378.188 107.295 359.097 101.514H359.097ZM376.315 98.5442C379.455 93.8287 376.453 84.486 371.013 82.0476C363.025 78.4667 358.129 84.5689 361.456 93.9586C363.757 100.453 373.119 103.343 376.315 98.5442Z" fill="#1C1A1A"/>
<path d="M699.097 51.5145C693.453 49.8054 689 45.1609 689 40.9836C689 29.1601 714.813 24.4812 725.473 34.3725C737 45.0687 718.188 57.2953 699.097 51.5145H699.097ZM716.315 48.5442C719.455 43.8287 716.453 34.486 711.013 32.0476C703.025 28.4667 698.129 34.5689 701.456 43.9586C703.757 50.4532 713.119 53.3425 716.315 48.5442Z" fill="#1C1A1A"/>
<path d="M614.097 63.5145C608.453 61.8054 604 57.1609 604 52.9836C604 41.1601 629.813 36.4812 640.473 46.3725C652 57.0687 633.188 69.2953 614.097 63.5145H614.097ZM631.315 60.5442C634.455 55.8287 631.453 46.486 626.013 44.0476C618.025 40.4667 613.129 46.5689 616.456 55.9586C618.757 62.4532 628.119 65.3425 631.315 60.5442Z" fill="#1C1A1A"/>
<path d="M529.097 76.5145C523.453 74.8054 519 70.1609 519 65.9836C519 54.1601 544.813 49.4812 555.473 59.3725C567 70.0687 548.188 82.2953 529.097 76.5145H529.097ZM546.315 73.5442C549.455 68.8287 546.453 59.486 541.013 57.0476C533.025 53.4667 528.129 59.5689 531.456 68.9586C533.757 75.4532 543.119 78.3425 546.315 73.5442Z" fill="#1C1A1A"/>
<path d="M444.097 88.5145C438.453 86.8054 434 82.1609 434 77.9836C434 66.1601 459.813 61.4812 470.473 71.3725C482 82.0687 463.188 94.2953 444.097 88.5145H444.097ZM461.315 85.5442C464.455 80.8287 461.453 71.486 456.013 69.0476C448.025 65.4667 443.129 71.5689 446.456 80.9586C448.757 87.4532 458.119 90.3425 461.315 85.5442Z" fill="#1C1A1A"/>
<path d="M246.523 112.5V95.6585L253.368 93.6821V110.438L246.523 112.5ZM260 108.426L255.294 109.837V93.0806L260 91.7058V84.7456L255.294 86.1204V69H253.368V86.6396L246.523 88.6983V72.0505H244.706V89.332L240 90.7104V97.685L244.706 96.3101V113.034L240 114.405V121.351L244.706 119.976V137H246.523V119.368L253.368 117.398V133.96H255.294V116.775L260 115.397V108.426Z" fill="#1C1A1A"/>
<path d="M161.523 125.5V108.658L168.368 106.682V123.438L161.523 125.5ZM175 121.426L170.294 122.837V106.081L175 104.706V97.7456L170.294 99.1204V82H168.368V99.6396L161.523 101.698V85.0505H159.706V102.332L155 103.71V110.685L159.706 109.31V126.034L155 127.405V134.351L159.706 132.976V150H161.523V132.368L168.368 130.398V146.96H170.294V129.775L175 128.397V121.426Z" fill="#1C1A1A"/>
<path d="M586.523 62.5005V45.6585L593.368 43.6821V60.4382L586.523 62.5005ZM600 58.426L595.294 59.8367V43.0806L600 41.7058V34.7456L595.294 36.1204V19H593.368V36.6396L586.523 38.6983V22.0505H584.706V39.332L580 40.7104V47.685L584.706 46.3101V63.0339L580 64.4052V71.3511L584.706 69.9762V87H586.523V69.3676L593.368 67.3984V83.9603H595.294V66.7754L600 65.397V58.426Z" fill="#1C1A1A"/>
<path d="M501.523 75.5005V58.6585L508.368 56.6821V73.4382L501.523 75.5005ZM515 71.426L510.294 72.8367V56.0806L515 54.7058V47.7456L510.294 49.1204V32H508.368V49.6396L501.523 51.6983V35.0505H499.706V52.332L495 53.7104V60.685L499.706 59.3101V76.0339L495 77.4052V84.3511L499.706 82.9762V100H501.523V82.3676L508.368 80.3984V96.9603H510.294V79.7754L515 78.397V71.426Z" fill="#1C1A1A"/>
<path d="M27.1226 102.24C24.7962 104.193 12.4703 111.891 4.9764 113C7.10156 111.891 7.77263 111.225 13.5888 107.565C19.306 103.967 26.3397 96.6944 32.2677 89.8171C37.0101 84.3154 39.9108 75.619 40.7683 71.9586C42.2894 68.3203 42.2223 60.1638 41.9986 56.5403C41.9613 53.0278 40.4104 44.605 34.5047 39.0145C27.1226 32.0264 19.6287 35.9087 18.2865 36.3524C16.9443 36.7961 12.3585 40.0128 11.0163 42.8968C9.94251 45.204 10.5689 45.9287 11.0163 46.0026C15.273 44.117 19.3501 45.2001 21.8721 47.0009C24.6684 48.9976 27.0172 51.9925 26.7935 56.5403C26.6146 60.1786 24.824 62.8629 23.4818 64.194C20.6855 67.2998 16.1986 67.6326 13.7007 67.6326C7.66078 67.2998 3.86507 62.9743 3.07496 61.6428C2.74586 61.0881 -0.391563 56.0966 1.73276 47.4446C3.48062 40.326 10.1588 34.7625 13.477 32.9138C24.1027 27.4785 31.5966 28.7295 36.4062 30.5844C42.446 32.9138 49.9901 40.1237 51.8414 46.4463C53.6927 52.7689 54.6376 57.7605 53.5191 63.8612C52.4006 69.962 50.8348 74.177 45.1304 83.3836C39.4261 92.5902 30.0307 99.8002 27.1226 102.24Z" fill="black"/>
<path d="M4.9764 113L4.74504 112.557C4.52868 112.67 4.42547 112.922 4.50085 113.154C4.57623 113.387 4.80818 113.53 5.04961 113.495L4.9764 113ZM27.1226 102.24L26.8012 101.857L27.1226 102.24ZM45.1304 83.3836L45.5555 83.647L45.1304 83.3836ZM51.8414 46.4463L52.3213 46.3058L51.8414 46.4463ZM36.4062 30.5844L36.5861 30.1179V30.1179L36.4062 30.5844ZM13.477 32.9138L13.2493 32.4686L13.2414 32.4727L13.2336 32.477L13.477 32.9138ZM1.73276 47.4446L2.21834 47.5639L1.73276 47.4446ZM3.07496 61.6428L2.64496 61.8979H2.64496L3.07496 61.6428ZM13.7007 67.6326L13.6732 68.1318L13.6869 68.1326H13.7007V67.6326ZM23.4818 64.194L23.1297 63.839L23.1196 63.8489L23.1102 63.8594L23.4818 64.194ZM26.7935 56.5403L26.2941 56.5157L26.7935 56.5403ZM21.8721 47.0009L22.1627 46.594L21.8721 47.0009ZM11.0163 46.0026L10.9347 46.496L11.0822 46.5203L11.2188 46.4598L11.0163 46.0026ZM11.0163 42.8968L11.4696 43.1078L11.0163 42.8968ZM18.2865 36.3524L18.4434 36.8271L18.2865 36.3524ZM34.5047 39.0145L34.161 39.3776L34.5047 39.0145ZM41.9986 56.5403L41.4986 56.5456L41.4988 56.5584L41.4996 56.5711L41.9986 56.5403ZM40.7683 71.9586L40.307 71.7657L40.2909 71.8041L40.2814 71.8445L40.7683 71.9586ZM32.2677 89.8171L31.889 89.4907L32.2677 89.8171ZM13.5888 107.565L13.8551 107.988L13.5888 107.565ZM5.04961 113.495C8.8889 112.926 13.9096 110.687 18.2233 108.377C22.5423 106.065 26.2412 103.633 27.444 102.624L26.8012 101.857C25.6776 102.8 22.0503 105.194 17.7513 107.496C13.447 109.8 8.55782 111.964 4.90319 112.505L5.04961 113.495ZM27.444 102.624C30.3278 100.204 39.7992 92.9374 45.5555 83.647L44.7054 83.1203C39.053 92.243 29.7337 99.3968 26.8012 101.857L27.444 102.624ZM45.5555 83.647C51.2815 74.4054 52.8779 70.1314 54.0109 63.9514L53.0273 63.771C51.9234 69.7925 50.388 73.9487 44.7054 83.1203L45.5555 83.647ZM54.0109 63.9514C55.1504 57.7362 54.1803 52.655 52.3213 46.3058L51.3615 46.5868C53.205 52.8829 54.1249 57.7847 53.0273 63.771L54.0109 63.9514ZM52.3213 46.3058C51.3632 43.0339 48.9526 39.5806 46.0488 36.6651C43.1422 33.7467 39.689 31.3146 36.5861 30.1179L36.2262 31.0509C39.1631 32.1835 42.502 34.5211 45.3402 37.3707C48.1812 40.2231 50.4683 43.5362 51.3615 46.5868L52.3213 46.3058ZM36.5861 30.1179C31.6555 28.2163 24.0124 26.9631 13.2493 32.4686L13.7047 33.3589C24.1929 27.994 31.5377 29.2427 36.2262 31.0509L36.5861 30.1179ZM13.2336 32.477C11.5252 33.4288 8.98435 35.3161 6.64743 37.8651C4.31098 40.4136 2.14795 43.6568 1.24718 47.3254L2.21834 47.5639C3.06543 44.1138 5.11541 41.0159 7.38454 38.5408C9.65322 36.0663 12.1106 34.2474 13.7203 33.3505L13.2336 32.477ZM1.24718 47.3254C-0.921034 56.1562 2.2821 61.2864 2.64496 61.8979L3.50495 61.3876C3.20962 60.8899 0.137908 56.0371 2.21834 47.5639L1.24718 47.3254ZM2.64496 61.8979C3.07914 62.6296 4.27552 64.0937 6.12826 65.4189C7.98869 66.7496 10.5371 67.959 13.6732 68.1318L13.7282 67.1333C10.8244 66.9734 8.45496 65.8536 6.71003 64.6055C4.95742 63.3519 3.86089 61.9874 3.50495 61.3876L2.64496 61.8979ZM13.7007 68.1326C16.2027 68.1326 20.8984 67.8107 23.8534 64.5285L23.1102 63.8594C20.4727 66.7889 16.1946 67.1326 13.7007 67.1326V68.1326ZM23.8339 64.549C25.2438 63.1507 27.1065 60.3543 27.2929 56.5649L26.2941 56.5157C26.1226 60.0028 24.4041 62.5751 23.1297 63.839L23.8339 64.549ZM27.2929 56.5649C27.5276 51.7942 25.0481 48.6543 22.1627 46.594L21.5816 47.4079C24.2887 49.3408 26.5069 52.1907 26.2941 56.5157L27.2929 56.5649ZM22.1627 46.594C19.5206 44.7075 15.2573 43.5771 10.8138 45.5455L11.2188 46.4598C15.2888 44.6568 19.1796 45.6928 21.5816 47.4079L22.1627 46.594ZM11.0978 45.5093C11.097 45.5092 11.0748 45.5052 11.0451 45.4727C11.0162 45.4412 10.9654 45.3659 10.9393 45.2065C10.8847 44.8729 10.9497 44.2249 11.4696 43.1078L10.563 42.6858C10.0091 43.876 9.85035 44.7439 9.95239 45.3679C10.0595 46.0228 10.466 46.4185 10.9347 46.496L11.0978 45.5093ZM11.4696 43.1078C12.0918 41.7709 13.5011 40.3042 14.9692 39.0955C15.6953 38.4977 16.4202 37.9757 17.0424 37.5778C17.6759 37.1727 18.1704 36.9173 18.4434 36.8271L18.1296 35.8776C17.7315 36.0092 17.1494 36.3224 16.5037 36.7353C15.8466 37.1555 15.0895 37.7011 14.3336 38.3235C12.8377 39.5551 11.283 41.1387 10.563 42.6858L11.4696 43.1078ZM18.4434 36.8271C19.1825 36.5828 21.2815 35.5438 24.1563 35.3958C26.9978 35.2496 30.579 35.9869 34.161 39.3776L34.8484 38.6514C31.0483 35.054 27.1915 34.2383 24.1049 34.3972C21.0517 34.5543 18.7327 35.6783 18.1296 35.8776L18.4434 36.8271ZM34.161 39.3776C39.9317 44.8404 41.4622 53.1084 41.4986 56.5456L42.4986 56.535C42.4605 52.9471 40.889 44.3696 34.8484 38.6514L34.161 39.3776ZM41.4996 56.5711C41.6105 58.3674 41.6827 61.2937 41.5384 64.2193C41.393 67.1656 41.0305 70.0352 40.307 71.7657L41.2296 72.1514C42.0272 70.2437 42.3917 67.2159 42.5372 64.2685C42.6836 61.3004 42.6105 58.3367 42.4977 56.5095L41.4996 56.5711ZM40.2814 71.8445C39.4308 75.4758 36.5535 84.0794 31.889 89.4907L32.6464 90.1436C37.4668 84.5514 40.3908 75.7622 41.2551 72.0726L40.2814 71.8445ZM31.889 89.4907C25.961 96.3679 18.9699 103.587 13.3225 107.142L13.8551 107.988C19.6422 104.346 26.7183 97.0209 32.6464 90.1436L31.889 89.4907ZM13.3225 107.142C10.4095 108.975 8.78348 110.059 7.62388 110.821C6.46733 111.581 5.78498 112.014 4.74504 112.557L5.20776 113.443C6.29298 112.877 7.00874 112.422 8.17307 111.657C9.33434 110.894 10.9519 109.815 13.8551 107.988L13.3225 107.142Z" fill="black"/>
<ellipse cx="66.4852" cy="41.1558" rx="6.51452" ry="6.49758" fill="black"/>
<ellipse cx="66.4852" cy="65.647" rx="6.51452" ry="6.49758" fill="black"/>
</svg>
