<svg width="736" height="171" viewBox="0 0 736 171" fill="none" xmlns="http://www.w3.org/2000/svg">
<line x1="208" y1="33.5" x2="528" y2="33.5" stroke="#1C1A1A"/>
<line x1="208" y1="58.5" x2="528" y2="58.5" stroke="#1C1A1A"/>
<line x1="208" y1="83.5" x2="528" y2="83.5" stroke="#1C1A1A"/>
<line x1="208" y1="108.5" x2="528" y2="108.5" stroke="#1C1A1A"/>
<line x1="208" y1="133.5" x2="528" y2="133.5" stroke="#1C1A1A"/>
<path d="M290.475 37V68.0906C290.475 68.0906 290.475 70.1864 290.475 74.3778C293.332 71.6927 296.537 70.3173 300.091 70.2518C302.313 70.2519 304.217 71.2015 305.804 73.1007C307.2 74.869 307.93 76.8337 307.994 78.9949C308.057 80.6977 307.645 82.6624 306.756 84.8891C306.439 85.806 305.74 86.7884 304.661 87.8363C303.836 88.6222 302.979 89.4408 302.091 90.2922C297.394 93.8287 292.697 97.398 288 101V37H290.475ZM298.187 76.539C297.426 75.6221 296.442 75.1637 295.236 75.1637C293.712 75.1637 292.475 76.0478 291.523 77.8161C290.824 79.1914 290.475 82.4332 290.475 87.5415V95.9899C290.539 96.2519 292.316 94.6473 295.807 91.1763C297.711 89.3426 298.949 87.1813 299.52 84.6927C299.774 83.7103 299.901 82.7279 299.901 81.7456C299.901 79.5844 299.33 77.8488 298.187 76.539Z" fill="#1C1A1A"/>
<path d="M318.475 0V31.0906C318.475 31.0906 318.475 33.1864 318.475 37.3778C321.332 34.6927 324.537 33.3173 328.091 33.2518C330.313 33.2519 332.217 34.2015 333.804 36.1007C335.2 37.869 335.93 39.8337 335.994 41.9949C336.057 43.6977 335.645 45.6624 334.756 47.8891C334.439 48.806 333.74 49.7884 332.661 50.8363C331.836 51.6222 330.979 52.4408 330.091 53.2922C325.394 56.8287 320.697 60.398 316 64V0H318.475ZM326.187 39.539C325.426 38.6221 324.442 38.1637 323.236 38.1637C321.712 38.1637 320.475 39.0478 319.523 40.8161C318.824 42.1914 318.475 45.4332 318.475 50.5415V58.9899C318.539 59.2519 320.316 57.6473 323.807 54.1763C325.711 52.3426 326.949 50.1813 327.52 47.6927C327.774 46.7103 327.901 45.7279 327.901 44.7456C327.901 42.5844 327.33 40.8488 326.187 39.539Z" fill="#1C1A1A"/>
<path d="M346.475 50V81.0906C346.475 81.0906 346.475 83.1864 346.475 87.3778C349.332 84.6927 352.537 83.3173 356.091 83.2518C358.313 83.2519 360.217 84.2015 361.804 86.1007C363.2 87.869 363.93 89.8337 363.994 91.9949C364.057 93.6977 363.645 95.6624 362.756 97.8891C362.439 98.806 361.74 99.7884 360.661 100.836C359.836 101.622 358.979 102.441 358.091 103.292C353.394 106.829 348.697 110.398 344 114V50H346.475ZM354.187 89.539C353.426 88.6221 352.442 88.1637 351.236 88.1637C349.712 88.1637 348.475 89.0478 347.523 90.8161C346.824 92.1914 346.475 95.4332 346.475 100.542V108.99C346.539 109.252 348.316 107.647 351.807 104.176C353.711 102.343 354.949 100.181 355.52 97.6927C355.774 96.7103 355.901 95.7279 355.901 94.7456C355.901 92.5844 355.33 90.8488 354.187 89.539Z" fill="#1C1A1A"/>
<path d="M374.475 12V43.0906C374.475 43.0906 374.475 45.1864 374.475 49.3778C377.332 46.6927 380.537 45.3173 384.091 45.2518C386.313 45.2519 388.217 46.2015 389.804 48.1007C391.2 49.869 391.93 51.8337 391.994 53.9949C392.057 55.6977 391.645 57.6624 390.756 59.8891C390.439 60.806 389.74 61.7884 388.661 62.8363C387.836 63.6222 386.979 64.4408 386.091 65.2922C381.394 68.8287 376.697 72.398 372 76V12H374.475ZM382.187 51.539C381.426 50.6221 380.442 50.1637 379.236 50.1637C377.712 50.1637 376.475 51.0478 375.523 52.8161C374.824 54.1914 374.475 57.4332 374.475 62.5415V70.9899C374.539 71.2519 376.316 69.6473 379.807 66.1763C381.711 64.3426 382.949 62.1813 383.52 59.6927C383.774 58.7103 383.901 57.7279 383.901 56.7456C383.901 54.5844 383.33 52.8488 382.187 51.539Z" fill="#1C1A1A"/>
<path d="M402.475 62V93.0906C402.475 93.0906 402.475 95.1864 402.475 99.3778C405.332 96.6927 408.537 95.3173 412.091 95.2518C414.313 95.2519 416.217 96.2015 417.804 98.1007C419.2 99.869 419.93 101.834 419.994 103.995C420.057 105.698 419.645 107.662 418.756 109.889C418.439 110.806 417.74 111.788 416.661 112.836C415.836 113.622 414.979 114.441 414.091 115.292C409.394 118.829 404.697 122.398 400 126V62H402.475ZM410.187 101.539C409.426 100.622 408.442 100.164 407.236 100.164C405.712 100.164 404.475 101.048 403.523 102.816C402.824 104.191 402.475 107.433 402.475 112.542V120.99C402.539 121.252 404.316 119.647 407.807 116.176C409.711 114.343 410.949 112.181 411.52 109.693C411.774 108.71 411.901 107.728 411.901 106.746C411.901 104.584 411.33 102.849 410.187 101.539Z" fill="#1C1A1A"/>
<path d="M430.475 25V56.0906C430.475 56.0906 430.475 58.1864 430.475 62.3778C433.332 59.6927 436.537 58.3173 440.091 58.2518C442.313 58.2519 444.217 59.2015 445.804 61.1007C447.2 62.869 447.93 64.8337 447.994 66.9949C448.057 68.6977 447.645 70.6624 446.756 72.8891C446.439 73.806 445.74 74.7884 444.661 75.8363C443.836 76.6222 442.979 77.4408 442.091 78.2922C437.394 81.8287 432.697 85.398 428 89V25H430.475ZM438.187 64.539C437.426 63.6221 436.442 63.1637 435.236 63.1637C433.712 63.1637 432.475 64.0478 431.523 65.8161C430.824 67.1914 430.475 70.4332 430.475 75.5415V83.9899C430.539 84.2519 432.316 82.6473 435.807 79.1763C437.711 77.3426 438.949 75.1813 439.52 72.6927C439.774 71.7103 439.901 70.7279 439.901 69.7456C439.901 67.5844 439.33 65.8488 438.187 64.539Z" fill="#1C1A1A"/>
</svg>
