<svg width="736" height="171" viewBox="0 0 736 171" fill="none" xmlns="http://www.w3.org/2000/svg">
<line x1="208" y1="33.5" x2="528" y2="33.5" stroke="#1C1A1A"/>
<line x1="208" y1="58.5" x2="528" y2="58.5" stroke="#1C1A1A"/>
<line x1="208" y1="83.5" x2="528" y2="83.5" stroke="#1C1A1A"/>
<line x1="208" y1="108.5" x2="528" y2="108.5" stroke="#1C1A1A"/>
<line x1="208" y1="133.5" x2="528" y2="133.5" stroke="#1C1A1A"/>
<path d="M276.475 37V68.0906C276.475 68.0906 276.475 70.1864 276.475 74.3778C279.332 71.6927 282.537 70.3173 286.091 70.2518C288.313 70.2519 290.217 71.2015 291.804 73.1007C293.2 74.869 293.93 76.8337 293.994 78.9949C294.057 80.6977 293.645 82.6624 292.756 84.8891C292.439 85.806 291.74 86.7884 290.661 87.8363C289.836 88.6222 288.979 89.4408 288.091 90.2922C283.394 93.8287 278.697 97.398 274 101V37H276.475ZM284.187 76.539C283.426 75.6221 282.442 75.1637 281.236 75.1637C279.712 75.1637 278.475 76.0478 277.523 77.8161C276.824 79.1914 276.475 82.4332 276.475 87.5415V95.9899C276.539 96.2519 278.316 94.6473 281.807 91.1763C283.711 89.3426 284.949 87.1813 285.52 84.6927C285.774 83.7103 285.901 82.7279 285.901 81.7456C285.901 79.5844 285.33 77.8488 284.187 76.539Z" fill="#1C1A1A"/>
<path d="M304.475 0V31.0906C304.475 31.0906 304.475 33.1864 304.475 37.3778C307.332 34.6927 310.537 33.3173 314.091 33.2518C316.313 33.2519 318.217 34.2015 319.804 36.1007C321.2 37.869 321.93 39.8337 321.994 41.9949C322.057 43.6977 321.645 45.6624 320.756 47.8891C320.439 48.806 319.74 49.7884 318.661 50.8363C317.836 51.6222 316.979 52.4408 316.091 53.2922C311.394 56.8287 306.697 60.398 302 64V0H304.475ZM312.187 39.539C311.426 38.6221 310.442 38.1637 309.236 38.1637C307.712 38.1637 306.475 39.0478 305.523 40.8161C304.824 42.1914 304.475 45.4332 304.475 50.5415V58.9899C304.539 59.2519 306.316 57.6473 309.807 54.1763C311.711 52.3426 312.949 50.1813 313.52 47.6927C313.774 46.7103 313.901 45.7279 313.901 44.7456C313.901 42.5844 313.33 40.8488 312.187 39.539Z" fill="#1C1A1A"/>
<path d="M332.475 50V81.0906C332.475 81.0906 332.475 83.1864 332.475 87.3778C335.332 84.6927 338.537 83.3173 342.091 83.2518C344.313 83.2519 346.217 84.2015 347.804 86.1007C349.2 87.869 349.93 89.8337 349.994 91.9949C350.057 93.6977 349.645 95.6624 348.756 97.8891C348.439 98.806 347.74 99.7884 346.661 100.836C345.836 101.622 344.979 102.441 344.091 103.292C339.394 106.829 334.697 110.398 330 114V50H332.475ZM340.187 89.539C339.426 88.6221 338.442 88.1637 337.236 88.1637C335.712 88.1637 334.475 89.0478 333.523 90.8161C332.824 92.1914 332.475 95.4332 332.475 100.542V108.99C332.539 109.252 334.316 107.647 337.807 104.176C339.711 102.343 340.949 100.181 341.52 97.6927C341.774 96.7103 341.901 95.7279 341.901 94.7456C341.901 92.5844 341.33 90.8488 340.187 89.539Z" fill="#1C1A1A"/>
<path d="M360.475 12V43.0906C360.475 43.0906 360.475 45.1864 360.475 49.3778C363.332 46.6927 366.537 45.3173 370.091 45.2518C372.313 45.2519 374.217 46.2015 375.804 48.1007C377.2 49.869 377.93 51.8337 377.994 53.9949C378.057 55.6977 377.645 57.6624 376.756 59.8891C376.439 60.806 375.74 61.7884 374.661 62.8363C373.836 63.6222 372.979 64.4408 372.091 65.2922C367.394 68.8287 362.697 72.398 358 76V12H360.475ZM368.187 51.539C367.426 50.6221 366.442 50.1637 365.236 50.1637C363.712 50.1637 362.475 51.0478 361.523 52.8161C360.824 54.1914 360.475 57.4332 360.475 62.5415V70.9899C360.539 71.2519 362.316 69.6473 365.807 66.1763C367.711 64.3426 368.949 62.1813 369.52 59.6927C369.774 58.7103 369.901 57.7279 369.901 56.7456C369.901 54.5844 369.33 52.8488 368.187 51.539Z" fill="#1C1A1A"/>
<path d="M388.475 62V93.0906C388.475 93.0906 388.475 95.1864 388.475 99.3778C391.332 96.6927 394.537 95.3173 398.091 95.2518C400.313 95.2519 402.217 96.2015 403.804 98.1007C405.2 99.869 405.93 101.834 405.994 103.995C406.057 105.698 405.645 107.662 404.756 109.889C404.439 110.806 403.74 111.788 402.661 112.836C401.836 113.622 400.979 114.441 400.091 115.292C395.394 118.829 390.697 122.398 386 126V62H388.475ZM396.187 101.539C395.426 100.622 394.442 100.164 393.236 100.164C391.712 100.164 390.475 101.048 389.523 102.816C388.824 104.191 388.475 107.433 388.475 112.542V120.99C388.539 121.252 390.316 119.647 393.807 116.176C395.711 114.343 396.949 112.181 397.52 109.693C397.774 108.71 397.901 107.728 397.901 106.746C397.901 104.584 397.33 102.849 396.187 101.539Z" fill="#1C1A1A"/>
<path d="M416.475 25V56.0906C416.475 56.0906 416.475 58.1864 416.475 62.3778C419.332 59.6927 422.537 58.3173 426.091 58.2518C428.313 58.2519 430.217 59.2015 431.804 61.1007C433.2 62.869 433.93 64.8337 433.994 66.9949C434.057 68.6977 433.645 70.6624 432.756 72.8891C432.439 73.806 431.74 74.7884 430.661 75.8363C429.836 76.6222 428.979 77.4408 428.091 78.2922C423.394 81.8287 418.697 85.398 414 89V25H416.475ZM424.187 64.539C423.426 63.6221 422.442 63.1637 421.236 63.1637C419.712 63.1637 418.475 64.0478 417.523 65.8161C416.824 67.1914 416.475 70.4332 416.475 75.5415V83.9899C416.539 84.2519 418.316 82.6473 421.807 79.1763C423.711 77.3426 424.949 75.1813 425.52 72.6927C425.774 71.7103 425.901 70.7279 425.901 69.7456C425.901 67.5844 425.33 65.8488 424.187 64.539Z" fill="#1C1A1A"/>
<path d="M444.475 75V106.091C444.475 106.091 444.475 108.186 444.475 112.378C447.332 109.693 450.537 108.317 454.091 108.252C456.313 108.252 458.217 109.201 459.804 111.101C461.2 112.869 461.93 114.834 461.994 116.995C462.057 118.698 461.645 120.662 460.756 122.889C460.439 123.806 459.74 124.788 458.661 125.836C457.836 126.622 456.979 127.441 456.091 128.292C451.394 131.829 446.697 135.398 442 139V75H444.475ZM452.187 114.539C451.426 113.622 450.442 113.164 449.236 113.164C447.712 113.164 446.475 114.048 445.523 115.816C444.824 117.191 444.475 120.433 444.475 125.542V133.99C444.539 134.252 446.316 132.647 449.807 129.176C451.711 127.343 452.949 125.181 453.52 122.693C453.774 121.71 453.901 120.728 453.901 119.746C453.901 117.584 453.33 115.849 452.187 114.539Z" fill="#1C1A1A"/>
</svg>
