<svg width="736" height="184" viewBox="0 0 736 184" fill="none" xmlns="http://www.w3.org/2000/svg">
<line x1="208" y1="46.5" x2="531" y2="46.5" stroke="#1C1A1A"/>
<line x1="208" y1="71.5" x2="531" y2="71.5" stroke="#1C1A1A"/>
<line x1="208" y1="96.5" x2="531" y2="96.5" stroke="#1C1A1A"/>
<line x1="208" y1="121.5" x2="531" y2="121.5" stroke="#1C1A1A"/>
<line x1="208" y1="146.5" x2="531" y2="146.5" stroke="#1C1A1A"/>
<path d="M294.523 56.5005V39.6585L301.368 37.6821V54.4382L294.523 56.5005ZM308 52.426L303.294 53.8367V37.0806L308 35.7058V28.7456L303.294 30.1204V13H301.368V30.6396L294.523 32.6983V16.0505H292.706V33.332L288 34.7104V41.685L292.706 40.3101V57.0339L288 58.4052V65.3511L292.706 63.9762V81H294.523V63.3676L301.368 61.3984V77.9603H303.294V60.7754L308 59.397V52.426Z" fill="#1C1A1A"/>
<path d="M322.523 93.5005V76.6585L329.368 74.6821V91.4382L322.523 93.5005ZM336 89.426L331.294 90.8367V74.0806L336 72.7058V65.7456L331.294 67.1204V50H329.368V67.6396L322.523 69.6983V53.0505H320.706V70.332L316 71.7104V78.685L320.706 77.3101V94.0339L316 95.4052V102.351L320.706 100.976V118H322.523V100.368L329.368 98.3984V114.96H331.294V97.7754L336 96.397V89.426Z" fill="#1C1A1A"/>
<path d="M350.523 43.5005V26.6585L357.368 24.6821V41.4382L350.523 43.5005ZM364 39.426L359.294 40.8367V24.0806L364 22.7058V15.7456L359.294 17.1204V0H357.368V17.6396L350.523 19.6983V3.05046H348.706V20.332L344 21.7104V28.685L348.706 27.3101V44.0339L344 45.4052V52.3511L348.706 50.9762V68H350.523V50.3676L357.368 48.3984V64.9603H359.294V47.7754L364 46.397V39.426Z" fill="#1C1A1A"/>
<path d="M378.523 81.5005V64.6585L385.368 62.6821V79.4382L378.523 81.5005ZM392 77.426L387.294 78.8367V62.0806L392 60.7058V53.7456L387.294 55.1204V38H385.368V55.6396L378.523 57.6983V41.0505H376.706V58.332L372 59.7104V66.685L376.706 65.3101V82.0339L372 83.4052V90.3511L376.706 88.9762V106H378.523V88.3676L385.368 86.3984V102.96H387.294V85.7754L392 84.397V77.426Z" fill="#1C1A1A"/>
<path d="M406.523 118.5V101.658L413.368 99.6821V116.438L406.523 118.5ZM420 114.426L415.294 115.837V99.0806L420 97.7058V90.7456L415.294 92.1204V75H413.368V92.6396L406.523 94.6983V78.0505H404.706V95.332L400 96.7104V103.685L404.706 102.31V119.034L400 120.405V127.351L404.706 125.976V143H406.523V125.368L413.368 123.398V139.96H415.294V122.775L420 121.397V114.426Z" fill="#1C1A1A"/>
<path d="M434.523 68.5005V51.6585L441.368 49.6821V66.4382L434.523 68.5005ZM448 64.426L443.294 65.8367V49.0806L448 47.7058V40.7456L443.294 42.1204V25H441.368V42.6396L434.523 44.6983V28.0505H432.706V45.332L428 46.7104V53.685L432.706 52.3101V69.0339L428 70.4052V77.3511L432.706 75.9762V93H434.523V75.3676L441.368 73.3984V89.9603H443.294V72.7754L448 71.397V64.426Z" fill="#1C1A1A"/>
</svg>
