<svg width="737" height="184" viewBox="0 0 736 184" fill="none" xmlns="http://www.w3.org/2000/svg">
<line x1="208" y1="46.5" x2="528" y2="46.5" stroke="#1C1A1A"/>
<line x1="208" y1="71.5" x2="528" y2="71.5" stroke="#1C1A1A"/>
<line x1="208" y1="96.5" x2="528" y2="96.5" stroke="#1C1A1A"/>
<line x1="208" y1="121.5" x2="528" y2="121.5" stroke="#1C1A1A"/>
<line x1="208" y1="146.5" x2="528" y2="146.5" stroke="#1C1A1A"/>
<path d="M280.523 56.5005V39.6585L287.368 37.6821V54.4382L280.523 56.5005ZM294 52.426L289.294 53.8367V37.0806L294 35.7058V28.7456L289.294 30.1204V13H287.368V30.6396L280.523 32.6983V16.0505H278.706V33.332L274 34.7104V41.685L278.706 40.3101V57.0339L274 58.4052V65.3511L278.706 63.9762V81H280.523V63.3676L287.368 61.3984V77.9603H289.294V60.7754L294 59.397V52.426Z" fill="#1C1A1A"/>
<path d="M308.523 93.5005V76.6585L315.368 74.6821V91.4382L308.523 93.5005ZM322 89.426L317.294 90.8367V74.0806L322 72.7058V65.7456L317.294 67.1204V50H315.368V67.6396L308.523 69.6983V53.0505H306.706V70.332L302 71.7104V78.685L306.706 77.3101V94.0339L302 95.4052V102.351L306.706 100.976V118H308.523V100.368L315.368 98.3984V114.96H317.294V97.7754L322 96.397V89.426Z" fill="#1C1A1A"/>
<path d="M336.523 43.5005V26.6585L343.368 24.6821V41.4382L336.523 43.5005ZM350 39.426L345.294 40.8367V24.0806L350 22.7058V15.7456L345.294 17.1204V0H343.368V17.6396L336.523 19.6983V3.05046H334.706V20.332L330 21.7104V28.685L334.706 27.3101V44.0339L330 45.4052V52.3511L334.706 50.9762V68H336.523V50.3676L343.368 48.3984V64.9603H345.294V47.7754L350 46.397V39.426Z" fill="#1C1A1A"/>
<path d="M364.523 81.5005V64.6585L371.368 62.6821V79.4382L364.523 81.5005ZM378 77.426L373.294 78.8367V62.0806L378 60.7058V53.7456L373.294 55.1204V38H371.368V55.6396L364.523 57.6983V41.0505H362.706V58.332L358 59.7104V66.685L362.706 65.3101V82.0339L358 83.4052V90.3511L362.706 88.9762V106H364.523V88.3676L371.368 86.3984V102.96H373.294V85.7754L378 84.397V77.426Z" fill="#1C1A1A"/>
<path d="M392.523 118.5V101.658L399.368 99.6821V116.438L392.523 118.5ZM406 114.426L401.294 115.837V99.0806L406 97.7058V90.7456L401.294 92.1204V75H399.368V92.6396L392.523 94.6983V78.0505H390.706V95.332L386 96.7104V103.685L390.706 102.31V119.034L386 120.405V127.351L390.706 125.976V143H392.523V125.368L399.368 123.398V139.96H401.294V122.775L406 121.397V114.426Z" fill="#1C1A1A"/>
<path d="M420.523 68.5005V51.6585L427.368 49.6821V66.4382L420.523 68.5005ZM434 64.426L429.294 65.8367V49.0806L434 47.7058V40.7456L429.294 42.1204V25H427.368V42.6396L420.523 44.6983V28.0505H418.706V45.332L414 46.7104V53.685L418.706 52.3101V69.0339L414 70.4052V77.3511L418.706 75.9762V93H420.523V75.3676L427.368 73.3984V89.9603H429.294V72.7754L434 71.397V64.426Z" fill="#1C1A1A"/>
<path d="M448.523 106.5V89.6585L455.368 87.6821V104.438L448.523 106.5ZM462 102.426L457.294 103.837V87.0806L462 85.7058V78.7456L457.294 80.1204V63H455.368V80.6396L448.523 82.6983V66.0505H446.706V83.332L442 84.7104V91.685L446.706 90.3101V107.034L442 108.405V115.351L446.706 113.976V131H448.523V113.368L455.368 111.398V127.96H457.294V110.775L462 109.397V102.426Z" fill="#1C1A1A"/>
</svg>
