<svg width="874.4" height="197" viewBox="0 0 874.4 197" fill="none" xmlns="http://www.w3.org/2000/svg">
<line y1="59.5" x2="874.4" y2="59.5" stroke="#1C1A1A"/>
<line y1="84.5" x2="874.4" y2="84.5" stroke="#1C1A1A"/>
<line y1="109.5" x2="874.4" y2="109.5" stroke="#1C1A1A"/>
<line y1="134.5" x2="874.4" y2="134.5" stroke="#1C1A1A"/>
<line y1="159.5" x2="874.4" y2="159.5" stroke="#1C1A1A"/>
<path d="M33.0196 122.694C30.4448 123.54 28.317 124.969 26.636 126.981C24.9547 128.991 23.9303 131.188 23.5625 133.57C23.1947 135.951 23.4969 138.306 24.4688 140.635C25.4407 142.964 27.2664 144.843 29.9456 146.272C30.5761 146.272 30.9699 146.537 31.128 147.066C31.2852 147.595 31.0485 147.859 30.419 147.859C27.8443 147.33 25.5852 146.245 23.6414 144.605C20.0163 141.588 18.02 137.698 17.6522 132.935C17.4421 130.553 17.6653 128.251 18.3221 126.028C18.9787 123.805 19.885 121.767 21.0408 119.914C22.4592 117.957 24.1404 116.263 26.0843 114.834C26.1893 114.728 26.4915 114.49 26.9905 114.12C27.4896 113.749 27.9755 113.405 28.4484 113.088C28.9213 112.77 29.6304 112.267 30.5761 111.579L27.6604 97.4479C25.0861 99.6179 22.5381 102.012 20.0164 104.632C17.4946 107.252 15.2092 110.018 13.1603 112.929C11.1115 115.84 9.46968 118.923 8.23502 122.178C7.00047 125.433 6.38319 128.859 6.38319 132.459C6.38319 135.793 7.07923 138.929 8.47151 141.866C9.86369 144.803 11.7156 147.357 14.0272 149.526C16.3388 151.696 19.005 153.403 22.0258 154.648C25.0467 155.891 28.1069 156.513 31.2066 156.513C31.312 156.513 31.7973 156.46 32.6645 156.354C33.5317 156.249 34.4506 156.116 35.4222 155.957C36.3948 155.799 37.2879 155.626 38.1024 155.441C38.9159 155.256 39.3236 155.057 39.3236 154.846L38.8502 152.623C36.8016 142.197 34.8574 132.22 33.0196 122.694ZM35.7773 122.376L42.2394 153.893C45.9697 152.464 48.4907 150.016 49.8045 146.55C51.1182 143.083 51.4195 139.564 50.7104 135.991C50.0014 132.419 48.3336 129.256 45.7062 126.504C43.0798 123.752 39.7701 122.376 35.7773 122.376ZM27.5028 79.9034C29.1311 79.0559 30.6417 77.7865 32.034 76.0924C33.4263 74.3993 34.7132 72.5859 35.8956 70.6543C37.077 68.7228 38.1024 66.7511 38.9686 64.7394C39.8357 62.7287 40.5319 60.9033 41.057 59.2623C41.6348 57.516 42.0286 55.5574 42.2394 53.3874C42.4493 51.2174 42.1081 49.392 41.2151 47.9093C40.5846 46.5868 39.7572 45.8194 38.7329 45.607C37.7076 45.3956 36.6832 45.4748 35.6589 45.8455C34.6346 46.2161 33.663 46.8112 32.7431 47.6318C31.8242 48.4523 31.1539 49.1796 30.7342 49.8148C29.5776 51.8786 28.5663 54.1809 27.6998 56.7216C26.8329 59.2623 26.2418 61.8951 25.9267 64.6212C25.6114 67.3462 25.5721 69.9661 25.8085 72.4807C26.0448 74.9944 26.6096 77.4689 27.5028 79.9034ZM25.1387 82.364C24.2455 78.8715 23.4575 75.4442 22.7745 72.083C22.0915 68.7228 21.7501 65.2694 21.7501 61.7228C21.7501 59.13 21.9339 56.2848 22.3017 53.189C22.6694 50.0933 23.3392 47.0757 24.3112 44.1383C25.2831 41.2009 26.6227 38.568 28.3302 36.2397C30.0381 33.9104 32.3095 32.2173 35.1468 31.1583C35.4093 31.0531 35.6718 31 35.9344 31C36.3023 31 36.7359 31.2114 37.2352 31.6352C37.7344 32.058 38.2595 32.6801 38.8114 33.5006C39.3624 34.3211 39.8487 35.1677 40.2693 36.0413C40.689 36.9139 41.0043 37.51 41.2151 37.8276C42.6332 40.5266 43.6705 43.3979 44.3278 46.4406C44.9842 49.4842 45.3651 52.5138 45.4705 55.5304C45.6803 60.0828 45.4307 64.5811 44.7216 69.0273C44.0126 73.4725 42.5805 77.8126 40.4265 82.0464C39.6915 83.3168 38.9427 84.6001 38.1809 85.8965C37.4192 87.1939 36.5132 88.4502 35.462 89.6675C35.2522 89.8799 34.8713 90.2636 34.3193 90.8186C33.7674 91.3747 33.2025 91.9437 32.6247 92.5258C32.0469 93.1079 31.5348 93.6509 31.0883 94.1528C30.6417 94.6557 30.419 94.9603 30.419 95.0665L33.6491 110.944C33.6699 111.048 35.2651 110.944 35.2651 110.944C38.348 110.983 41.6119 111.486 44.4462 112.611C47.178 113.881 49.529 115.628 51.4991 117.851C53.4691 120.074 55.0444 122.574 56.2268 125.353C57.4093 128.132 58 130.95 58 133.808C58 136.665 57.5793 139.577 56.739 142.54C54.5849 148.151 51.144 152.305 46.4162 155.004C45.8902 155.322 45.1413 155.68 44.1697 156.076C43.1981 156.473 42.8172 157.095 43.027 157.942C44.2881 163.708 45.1413 167.676 45.5888 169.85C46.0354 172.024 46.3635 174.829 46.5734 178.265C46.7832 181.551 46.2183 184.507 44.8788 187.152C43.5392 189.807 41.7402 191.961 39.4807 193.624C37.2222 195.297 35.1597 196.269 33.295 196.569C31.4294 196.86 30.1554 197 29.4732 197C27.1087 197 24.7972 196.549 22.5381 195.648C19.7536 194.596 17.4158 192.983 15.5245 190.809C13.6332 188.635 12.6875 185.99 12.6875 182.874C12.6875 180.91 13.2523 178.897 14.3818 176.833C15.5114 174.769 16.9955 173.286 18.8342 172.395C20.8832 171.333 22.7351 171.042 24.39 171.513C26.0448 171.994 27.4108 172.895 28.4878 174.218C29.5647 175.54 30.3136 177.143 30.7342 179.017C31.1539 180.9 31.128 182.653 30.6547 184.297C30.1823 185.94 29.2236 187.332 27.7786 188.464C26.3338 189.606 24.3243 190.117 21.7501 190.017C22.8007 191.921 24.2718 193.123 26.1631 193.624C28.0544 194.135 29.9983 194.165 31.9942 193.744C33.9912 193.323 35.8688 192.542 37.629 191.4C39.3892 190.268 40.7686 189.035 41.766 187.713C42.3965 186.761 42.8699 185.519 43.1852 183.986C43.5004 182.443 43.6844 180.85 43.7361 179.177C43.7888 177.514 43.7361 176.212 43.579 175.29C43.4209 174.358 43.1583 172.915 42.7904 170.962C41.2151 164.56 40.2166 160.533 39.796 158.89C39.5861 158.366 39.0213 158.193 38.1024 158.379C37.1825 158.564 36.4078 158.736 35.7773 158.89C31.2593 159.481 27.4765 159.21 24.4294 158.101C19.7011 156.831 15.5376 154.568 11.9389 151.313C8.34014 148.058 5.45067 144.115 3.27036 139.484C1.09015 134.853 0 131.334 0 128.925C0 126.518 0 124.996 0 124.361C0 120.074 0.73552 116.051 2.20656 112.293C4.99092 106.418 8.28763 101.02 12.0965 96.0984C15.9054 91.1763 20.2528 86.5978 25.1387 82.364Z" fill="#1C1A1A"/>
<path d="M358.097 94.5145C352.453 92.8054 348 88.1609 348 83.9836C348 72.1601 373.813 67.4812 384.473 77.3725C396 88.0687 377.188 100.295 358.097 94.5145H358.097ZM375.315 91.5442C378.455 86.8287 375.453 77.486 370.013 75.0476C362.025 71.4667 357.129 77.5689 360.456 86.9586C362.757 93.4532 372.119 96.3425 375.315 91.5442Z" fill="#1C1A1A"/>
<path d="M290.097 107.514C284.453 105.805 280 101.161 280 96.9836C280 85.1601 305.813 80.4812 316.473 90.3725C328 101.069 309.188 113.295 290.097 107.514H290.097ZM307.315 104.544C310.455 99.8287 307.453 90.486 302.013 88.0476C294.025 84.4667 289.129 90.5689 292.456 99.9586C294.757 106.453 304.119 109.343 307.315 104.544Z" fill="#1C1A1A"/>
<path d="M223.097 119.514C217.453 117.805 213 113.161 213 108.984C213 97.1601 238.813 92.4812 249.473 102.372C261 113.069 242.188 125.295 223.097 119.514H223.097ZM240.315 116.544C243.455 111.829 240.453 102.486 235.013 100.048C227.025 96.4667 222.129 102.569 225.456 111.959C227.757 118.453 237.119 121.343 240.315 116.544Z" fill="#1C1A1A"/>
<path d="M428.097 82.5145C422.453 80.8054 418 76.1609 418 71.9836C418 60.1601 443.813 55.4812 454.473 65.3725C466 76.0687 447.188 88.2953 428.097 82.5145H428.097ZM445.315 79.5442C448.455 74.8287 445.453 65.486 440.013 63.0476C432.025 59.4667 427.129 65.5689 430.456 74.9586C432.757 81.4532 442.119 84.3425 445.315 79.5442Z" fill="#1C1A1A"/>
<path d="M698.097 32.5145C692.453 30.8054 688 26.1609 688 21.9836C688 10.1601 713.813 5.48121 724.473 15.3725C736 26.0687 717.188 38.2953 698.097 32.5145H698.097ZM715.315 29.5442C718.455 24.8287 715.453 15.486 710.013 13.0476C702.025 9.46674 697.129 15.5689 700.456 24.9586C702.757 31.4532 712.119 34.3425 715.315 29.5442Z" fill="#1C1A1A"/>
<path d="M638.097 44.5145C632.453 42.8054 628 38.1609 628 33.9836C628 22.1601 653.813 17.4812 664.473 27.3725C676 38.0687 657.188 50.2953 638.097 44.5145H638.097ZM655.315 41.5442C658.455 36.8287 655.453 27.486 650.013 25.0476C642.025 21.4667 637.129 27.5689 640.456 36.9586C642.757 43.4532 652.119 46.3425 655.315 41.5442Z" fill="#1C1A1A"/>
<path d="M563.097 57.5145C557.453 55.8054 553 51.1609 553 46.9836C553 35.1601 578.813 30.4812 589.473 40.3725C601 51.0687 582.188 63.2953 563.097 57.5145H563.097ZM580.315 54.5442C583.455 49.8287 580.453 40.486 575.013 38.0476C567.025 34.4667 562.129 40.5689 565.456 49.9586C567.757 56.4532 577.119 59.3425 580.315 54.5442Z" fill="#1C1A1A"/>
<path d="M493.097 69.5145C487.453 67.8054 483 63.1609 483 58.9836C483 47.1601 508.813 42.4812 519.473 52.3725C531 63.0687 512.188 75.2953 493.097 69.5145H493.097ZM510.315 66.5442C513.455 61.8287 510.453 52.486 505.013 50.0476C497.025 46.4667 492.129 52.5689 495.456 61.9586C497.757 68.4532 507.119 71.3425 510.315 66.5442Z" fill="#1C1A1A"/>
<path d="M623.491 16.3999V67.0178H620.734V48.0472L606 51.2385V0H608.65V19.7685L623.491 16.3999ZM608.65 28.2787V42.1964L620.734 39.537V25.6192L608.65 28.2787Z" fill="black"/>
<path d="M64.4754 63V94.0906C64.4754 94.0906 64.4754 96.1864 64.4754 100.378C67.3316 97.6927 70.537 96.3173 74.0914 96.2518C76.3129 96.2519 78.2171 97.2015 79.8039 99.1007C81.2003 100.869 81.9302 102.834 81.9937 104.995C82.0571 106.698 81.6446 108.662 80.756 110.889C80.4386 111.806 79.7404 112.788 78.6614 113.836C77.8362 114.622 76.9794 115.441 76.0908 116.292C71.3938 119.829 66.6969 123.398 62 127V63H64.4754ZM72.1872 102.539C71.4256 101.622 70.4418 101.164 69.2358 101.164C67.7125 101.164 66.4748 102.048 65.5227 103.816C64.8245 105.191 64.4754 108.433 64.4754 113.542V121.99C64.5389 122.252 66.3161 120.647 69.8071 117.176C71.7112 115.343 72.9489 113.181 73.5202 110.693C73.774 109.71 73.901 108.728 73.901 107.746C73.901 105.584 73.3297 103.849 72.1872 102.539Z" fill="#1C1A1A"/>
<path d="M88.4754 26V57.0906C88.4754 57.0906 88.4754 59.1864 88.4754 63.3778C91.3316 60.6927 94.537 59.3173 98.0914 59.2518C100.313 59.2519 102.217 60.2015 103.804 62.1007C105.2 63.869 105.93 65.8337 105.994 67.9949C106.057 69.6977 105.645 71.6624 104.756 73.8891C104.439 74.806 103.74 75.7884 102.661 76.8363C101.836 77.6222 100.979 78.4408 100.091 79.2922C95.3938 82.8287 90.6969 86.398 86 90V26H88.4754ZM96.1872 65.539C95.4256 64.6221 94.4418 64.1637 93.2358 64.1637C91.7125 64.1637 90.4748 65.0478 89.5227 66.8161C88.8245 68.1914 88.4754 71.4332 88.4754 76.5415V84.9899C88.5389 85.2519 90.3161 83.6473 93.8071 80.1763C95.7112 78.3426 96.9489 76.1813 97.5202 73.6927C97.774 72.7103 97.901 71.7279 97.901 70.7456C97.901 68.5844 97.3297 66.8488 96.1872 65.539Z" fill="#1C1A1A"/>
<path d="M112.475 76V107.091C112.475 107.091 112.475 109.186 112.475 113.378C115.332 110.693 118.537 109.317 122.091 109.252C124.313 109.252 126.217 110.201 127.804 112.101C129.2 113.869 129.93 115.834 129.994 117.995C130.057 119.698 129.645 121.662 128.756 123.889C128.439 124.806 127.74 125.788 126.661 126.836C125.836 127.622 124.979 128.441 124.091 129.292C119.394 132.829 114.697 136.398 110 140V76H112.475ZM120.187 115.539C119.426 114.622 118.442 114.164 117.236 114.164C115.712 114.164 114.475 115.048 113.523 116.816C112.824 118.191 112.475 121.433 112.475 126.542V134.99C112.539 135.252 114.316 133.647 117.807 130.176C119.711 128.343 120.949 126.181 121.52 123.693C121.774 122.71 121.901 121.728 121.901 120.746C121.901 118.584 121.33 116.849 120.187 115.539Z" fill="#1C1A1A"/>
<path d="M136.475 40V71.0906C136.475 71.0906 136.475 73.1864 136.475 77.3778C139.332 74.6927 142.537 73.3173 146.091 73.2518C148.313 73.2519 150.217 74.2015 151.804 76.1007C153.2 77.869 153.93 79.8337 153.994 81.9949C154.057 83.6977 153.645 85.6624 152.756 87.8891C152.439 88.806 151.74 89.7884 150.661 90.8363C149.836 91.6222 148.979 92.4408 148.091 93.2922C143.394 96.8287 138.697 100.398 134 104V40H136.475ZM144.187 79.539C143.426 78.6221 142.442 78.1637 141.236 78.1637C139.712 78.1637 138.475 79.0478 137.523 80.8161C136.824 82.1914 136.475 85.4332 136.475 90.5415V98.9899C136.539 99.2519 138.316 97.6473 141.807 94.1763C143.711 92.3426 144.949 90.1813 145.52 87.6927C145.774 86.7103 145.901 85.7279 145.901 84.7456C145.901 82.5844 145.33 80.8488 144.187 79.539Z" fill="#1C1A1A"/>
<path d="M160.475 87V118.091C160.475 118.091 160.475 120.186 160.475 124.378C163.332 121.693 166.537 120.317 170.091 120.252C172.313 120.252 174.217 121.201 175.804 123.101C177.2 124.869 177.93 126.834 177.994 128.995C178.057 130.698 177.645 132.662 176.756 134.889C176.439 135.806 175.74 136.788 174.661 137.836C173.836 138.622 172.979 139.441 172.091 140.292C167.394 143.829 162.697 147.398 158 151V87H160.475ZM168.187 126.539C167.426 125.622 166.442 125.164 165.236 125.164C163.712 125.164 162.475 126.048 161.523 127.816C160.824 129.191 160.475 132.433 160.475 137.542V145.99C160.539 146.252 162.316 144.647 165.807 141.176C167.711 139.343 168.949 137.181 169.52 134.693C169.774 133.71 169.901 132.728 169.901 131.746C169.901 129.584 169.33 127.849 168.187 126.539Z" fill="#1C1A1A"/>
<line x1="683" y1="34.5" x2="733" y2="34.5" stroke="#1C1A1A"/>
<line x1="622" y1="34.5" x2="672" y2="34.5" stroke="#1C1A1A"/>
</svg>
