<svg width="830" height="187" viewBox="0 0 830 187" fill="none" xmlns="http://www.w3.org/2000/svg">
<line y1="49.5" x2="830" y2="49.5" stroke="#1C1A1A"/>
<line y1="74.5" x2="830" y2="74.5" stroke="#1C1A1A"/>
<line y1="99.5" x2="830" y2="99.5" stroke="#1C1A1A"/>
<line y1="124.5" x2="830" y2="124.5" stroke="#1C1A1A"/>
<line y1="149.5" x2="830" y2="149.5" stroke="#1C1A1A"/>
<path d="M33.0196 112.694C30.4448 113.54 28.317 114.969 26.636 116.981C24.9547 118.991 23.9303 121.188 23.5625 123.57C23.1947 125.951 23.4969 128.306 24.4688 130.635C25.4407 132.964 27.2664 134.843 29.9456 136.272C30.5761 136.272 30.9699 136.537 31.128 137.066C31.2852 137.595 31.0485 137.859 30.419 137.859C27.8443 137.33 25.5852 136.245 23.6414 134.605C20.0163 131.588 18.02 127.698 17.6522 122.935C17.4421 120.553 17.6653 118.251 18.3221 116.028C18.9787 113.805 19.885 111.767 21.0408 109.914C22.4592 107.957 24.1404 106.263 26.0843 104.834C26.1893 104.728 26.4915 104.49 26.9905 104.12C27.4896 103.749 27.9755 103.405 28.4484 103.088C28.9213 102.77 29.6304 102.267 30.5761 101.579L27.6604 87.4479C25.0861 89.6179 22.5381 92.0123 20.0164 94.6322C17.4946 97.252 15.2092 100.018 13.1603 102.929C11.1115 105.84 9.46968 108.923 8.23502 112.178C7.00047 115.433 6.38319 118.859 6.38319 122.459C6.38319 125.793 7.07923 128.929 8.47151 131.866C9.86369 134.803 11.7156 137.357 14.0272 139.526C16.3388 141.696 19.005 143.403 22.0258 144.648C25.0467 145.891 28.1069 146.513 31.2066 146.513C31.312 146.513 31.7973 146.46 32.6645 146.354C33.5317 146.249 34.4506 146.116 35.4222 145.957C36.3948 145.799 37.2879 145.626 38.1024 145.441C38.9159 145.256 39.3236 145.057 39.3236 144.846L38.8502 142.623C36.8016 132.197 34.8574 122.22 33.0196 112.694ZM35.7773 112.376L42.2394 143.893C45.9697 142.464 48.4907 140.016 49.8045 136.55C51.1182 133.083 51.4195 129.564 50.7104 125.991C50.0014 122.419 48.3336 119.256 45.7062 116.504C43.0798 113.752 39.7701 112.376 35.7773 112.376ZM27.5028 69.9034C29.1311 69.0559 30.6417 67.7865 32.034 66.0924C33.4263 64.3993 34.7132 62.5859 35.8956 60.6543C37.077 58.7228 38.1024 56.7511 38.9686 54.7394C39.8357 52.7287 40.5319 50.9033 41.057 49.2623C41.6348 47.516 42.0286 45.5574 42.2394 43.3874C42.4493 41.2174 42.1081 39.392 41.2151 37.9093C40.5846 36.5868 39.7572 35.8194 38.7329 35.607C37.7076 35.3956 36.6832 35.4748 35.6589 35.8455C34.6346 36.2161 33.663 36.8112 32.7431 37.6318C31.8242 38.4523 31.1539 39.1796 30.7342 39.8148C29.5776 41.8786 28.5663 44.1809 27.6998 46.7216C26.8329 49.2623 26.2418 51.8951 25.9267 54.6212C25.6114 57.3462 25.5721 59.9661 25.8085 62.4807C26.0448 64.9944 26.6096 67.4689 27.5028 69.9034ZM25.1387 72.364C24.2455 68.8715 23.4575 65.4442 22.7745 62.083C22.0915 58.7228 21.7501 55.2694 21.7501 51.7228C21.7501 49.13 21.9339 46.2848 22.3017 43.189C22.6694 40.0933 23.3392 37.0757 24.3112 34.1383C25.2831 31.2009 26.6227 28.568 28.3302 26.2397C30.0381 23.9104 32.3095 22.2173 35.1468 21.1583C35.4093 21.0531 35.6718 21 35.9344 21C36.3023 21 36.7359 21.2114 37.2352 21.6352C37.7344 22.058 38.2595 22.6801 38.8114 23.5006C39.3624 24.3211 39.8487 25.1677 40.2693 26.0413C40.689 26.9139 41.0043 27.51 41.2151 27.8276C42.6332 30.5266 43.6705 33.3979 44.3278 36.4406C44.9842 39.4842 45.3651 42.5138 45.4705 45.5304C45.6803 50.0828 45.4307 54.5811 44.7216 59.0273C44.0126 63.4725 42.5805 67.8126 40.4265 72.0464C39.6915 73.3168 38.9427 74.6001 38.1809 75.8965C37.4192 77.1939 36.5132 78.4502 35.462 79.6675C35.2522 79.8799 34.8713 80.2636 34.3193 80.8186C33.7674 81.3747 33.2025 81.9437 32.6247 82.5258C32.0469 83.1079 31.5348 83.6509 31.0883 84.1528C30.6417 84.6557 30.419 84.9603 30.419 85.0665L33.6491 100.944C33.6699 101.048 35.2651 100.944 35.2651 100.944C38.348 100.983 41.6119 101.486 44.4462 102.611C47.178 103.881 49.529 105.628 51.4991 107.851C53.4691 110.074 55.0444 112.574 56.2268 115.353C57.4093 118.132 58 120.95 58 123.808C58 126.665 57.5793 129.577 56.739 132.54C54.5849 138.151 51.144 142.305 46.4162 145.004C45.8902 145.322 45.1413 145.68 44.1697 146.076C43.1981 146.473 42.8172 147.095 43.027 147.942C44.2881 153.708 45.1413 157.676 45.5888 159.85C46.0354 162.024 46.3635 164.829 46.5734 168.265C46.7832 171.551 46.2183 174.507 44.8788 177.152C43.5392 179.807 41.7402 181.961 39.4807 183.624C37.2222 185.297 35.1597 186.269 33.295 186.569C31.4294 186.86 30.1554 187 29.4732 187C27.1087 187 24.7972 186.549 22.5381 185.648C19.7536 184.596 17.4158 182.983 15.5245 180.809C13.6332 178.635 12.6875 175.99 12.6875 172.874C12.6875 170.91 13.2523 168.897 14.3818 166.833C15.5114 164.769 16.9955 163.286 18.8342 162.395C20.8832 161.333 22.7351 161.042 24.39 161.513C26.0448 161.994 27.4108 162.895 28.4878 164.218C29.5647 165.54 30.3136 167.143 30.7342 169.017C31.1539 170.9 31.128 172.653 30.6547 174.297C30.1823 175.94 29.2236 177.332 27.7786 178.464C26.3338 179.606 24.3243 180.117 21.7501 180.017C22.8007 181.921 24.2718 183.123 26.1631 183.624C28.0544 184.135 29.9983 184.165 31.9942 183.744C33.9912 183.323 35.8688 182.542 37.629 181.4C39.3892 180.268 40.7686 179.035 41.766 177.713C42.3965 176.761 42.8699 175.519 43.1852 173.986C43.5004 172.443 43.6844 170.85 43.7361 169.177C43.7888 167.514 43.7361 166.212 43.579 165.29C43.4209 164.358 43.1583 162.915 42.7904 160.962C41.2151 154.56 40.2166 150.533 39.796 148.89C39.5861 148.366 39.0213 148.193 38.1024 148.379C37.1825 148.564 36.4078 148.736 35.7773 148.89C31.2593 149.481 27.4765 149.21 24.4294 148.101C19.7011 146.831 15.5376 144.568 11.9389 141.313C8.34014 138.058 5.45067 134.115 3.27036 129.484C1.09015 124.853 0 121.334 0 118.925C0 116.518 0 114.996 0 114.361C0 110.074 0.73552 106.051 2.20656 102.293C4.99092 96.4185 8.28763 91.0205 12.0965 86.0984C15.9054 81.1763 20.2528 76.5978 25.1387 72.364Z" fill="#1C1A1A"/>
<path d="M358.097 84.5145C352.453 82.8054 348 78.1609 348 73.9836C348 62.1601 373.813 57.4812 384.473 67.3725C396 78.0687 377.188 90.2953 358.097 84.5145H358.097ZM375.315 81.5442C378.455 76.8287 375.453 67.486 370.013 65.0476C362.025 61.4667 357.129 67.5689 360.456 76.9586C362.757 83.4532 372.119 86.3425 375.315 81.5442Z" fill="#1C1A1A"/>
<path d="M290.097 97.5145C284.453 95.8054 280 91.1609 280 86.9836C280 75.1601 305.813 70.4812 316.473 80.3725C328 91.0687 309.188 103.295 290.097 97.5145H290.097ZM307.315 94.5442C310.455 89.8287 307.453 80.486 302.013 78.0476C294.025 74.4667 289.129 80.5689 292.456 89.9586C294.757 96.4532 304.119 99.3425 307.315 94.5442Z" fill="#1C1A1A"/>
<path d="M223.097 109.514C217.453 107.805 213 103.161 213 98.9836C213 87.1601 238.813 82.4812 249.473 92.3725C261 103.069 242.188 115.295 223.097 109.514H223.097ZM240.315 106.544C243.455 101.829 240.453 92.486 235.013 90.0476C227.025 86.4667 222.129 92.5689 225.456 101.959C227.757 108.453 237.119 111.343 240.315 106.544Z" fill="#1C1A1A"/>
<path d="M428.097 72.5145C422.453 70.8054 418 66.1609 418 61.9836C418 50.1601 443.813 45.4812 454.473 55.3725C466 66.0687 447.188 78.2953 428.097 72.5145H428.097ZM445.315 69.5442C448.455 64.8287 445.453 55.486 440.013 53.0476C432.025 49.4667 427.129 55.5689 430.456 64.9586C432.757 71.4532 442.119 74.3425 445.315 69.5442Z" fill="#1C1A1A"/>
<path d="M698.097 22.5145C692.453 20.8054 688 16.1609 688 11.9836C688 0.160094 713.813 -4.51879 724.473 5.37248C736 16.0687 717.188 28.2953 698.097 22.5145H698.097ZM715.315 19.5442C718.455 14.8287 715.453 5.48596 710.013 3.04758C702.025 -0.533257 697.129 5.56887 700.456 14.9586C702.757 21.4532 712.119 24.3425 715.315 19.5442Z" fill="#1C1A1A"/>
<path d="M637.097 34.5145C631.453 32.8054 627 28.1609 627 23.9836C627 12.1601 652.813 7.48121 663.473 17.3725C675 28.0687 656.188 40.2953 637.097 34.5145H637.097ZM654.315 31.5442C657.455 26.8287 654.453 17.486 649.013 15.0476C641.025 11.4667 636.129 17.5689 639.456 26.9586C641.757 33.4532 651.119 36.3425 654.315 31.5442Z" fill="#1C1A1A"/>
<path d="M568.097 47.5145C562.453 45.8054 558 41.1609 558 36.9836C558 25.1601 583.813 20.4812 594.473 30.3725C606 41.0687 587.188 53.2953 568.097 47.5145H568.097ZM585.315 44.5442C588.455 39.8287 585.453 30.486 580.013 28.0476C572.025 24.4667 567.129 30.5689 570.456 39.9586C572.757 46.4532 582.119 49.3425 585.315 44.5442Z" fill="#1C1A1A"/>
<path d="M497.097 59.5145C491.453 57.8054 487 53.1609 487 48.9836C487 37.1601 512.813 32.4812 523.473 42.3725C535 53.0687 516.188 65.2953 497.097 59.5145H497.097ZM514.315 56.5442C517.455 51.8287 514.453 42.486 509.013 40.0476C501.025 36.4667 496.129 42.5689 499.456 51.9586C501.757 58.4532 511.119 61.3425 514.315 56.5442Z" fill="#1C1A1A"/>
<path d="M64.4754 53V84.0906C64.4754 84.0906 64.4754 86.1864 64.4754 90.3778C67.3316 87.6927 70.537 86.3173 74.0914 86.2518C76.3129 86.2519 78.2171 87.2015 79.8039 89.1007C81.2003 90.869 81.9302 92.8337 81.9937 94.9949C82.0571 96.6977 81.6446 98.6624 80.756 100.889C80.4386 101.806 79.7404 102.788 78.6614 103.836C77.8362 104.622 76.9794 105.441 76.0908 106.292C71.3938 109.829 66.6969 113.398 62 117V53H64.4754ZM72.1872 92.539C71.4256 91.6221 70.4418 91.1637 69.2358 91.1637C67.7125 91.1637 66.4748 92.0478 65.5227 93.8161C64.8245 95.1914 64.4754 98.4332 64.4754 103.542V111.99C64.5389 112.252 66.3161 110.647 69.8071 107.176C71.7112 105.343 72.9489 103.181 73.5202 100.693C73.774 99.7103 73.901 98.7279 73.901 97.7456C73.901 95.5844 73.3297 93.8488 72.1872 92.539Z" fill="#1C1A1A"/>
<path d="M88.4754 16V47.0906C88.4754 47.0906 88.4754 49.1864 88.4754 53.3778C91.3316 50.6927 94.537 49.3173 98.0914 49.2518C100.313 49.2519 102.217 50.2015 103.804 52.1007C105.2 53.869 105.93 55.8337 105.994 57.9949C106.057 59.6977 105.645 61.6624 104.756 63.8891C104.439 64.806 103.74 65.7884 102.661 66.8363C101.836 67.6222 100.979 68.4408 100.091 69.2922C95.3938 72.8287 90.6969 76.398 86 80V16H88.4754ZM96.1872 55.539C95.4256 54.6221 94.4418 54.1637 93.2358 54.1637C91.7125 54.1637 90.4748 55.0478 89.5227 56.8161C88.8245 58.1914 88.4754 61.4332 88.4754 66.5415V74.9899C88.5389 75.2519 90.3161 73.6473 93.8071 70.1763C95.7112 68.3426 96.9489 66.1813 97.5202 63.6927C97.774 62.7103 97.901 61.7279 97.901 60.7456C97.901 58.5844 97.3297 56.8488 96.1872 55.539Z" fill="#1C1A1A"/>
<path d="M112.475 66V97.0906C112.475 97.0906 112.475 99.1864 112.475 103.378C115.332 100.693 118.537 99.3173 122.091 99.2518C124.313 99.2519 126.217 100.201 127.804 102.101C129.2 103.869 129.93 105.834 129.994 107.995C130.057 109.698 129.645 111.662 128.756 113.889C128.439 114.806 127.74 115.788 126.661 116.836C125.836 117.622 124.979 118.441 124.091 119.292C119.394 122.829 114.697 126.398 110 130V66H112.475ZM120.187 105.539C119.426 104.622 118.442 104.164 117.236 104.164C115.712 104.164 114.475 105.048 113.523 106.816C112.824 108.191 112.475 111.433 112.475 116.542V124.99C112.539 125.252 114.316 123.647 117.807 120.176C119.711 118.343 120.949 116.181 121.52 113.693C121.774 112.71 121.901 111.728 121.901 110.746C121.901 108.584 121.33 106.849 120.187 105.539Z" fill="#1C1A1A"/>
<path d="M136.475 30V61.0906C136.475 61.0906 136.475 63.1864 136.475 67.3778C139.332 64.6927 142.537 63.3173 146.091 63.2518C148.313 63.2519 150.217 64.2015 151.804 66.1007C153.2 67.869 153.93 69.8337 153.994 71.9949C154.057 73.6977 153.645 75.6624 152.756 77.8891C152.439 78.806 151.74 79.7884 150.661 80.8363C149.836 81.6222 148.979 82.4408 148.091 83.2922C143.394 86.8287 138.697 90.398 134 94V30H136.475ZM144.187 69.539C143.426 68.6221 142.442 68.1637 141.236 68.1637C139.712 68.1637 138.475 69.0478 137.523 70.8161C136.824 72.1914 136.475 75.4332 136.475 80.5415V88.9899C136.539 89.2519 138.316 87.6473 141.807 84.1763C143.711 82.3426 144.949 80.1813 145.52 77.6927C145.774 76.7103 145.901 75.7279 145.901 74.7456C145.901 72.5844 145.33 70.8488 144.187 69.539Z" fill="#1C1A1A"/>
<path d="M160.475 77V108.091C160.475 108.091 160.475 110.186 160.475 114.378C163.332 111.693 166.537 110.317 170.091 110.252C172.313 110.252 174.217 111.201 175.804 113.101C177.2 114.869 177.93 116.834 177.994 118.995C178.057 120.698 177.645 122.662 176.756 124.889C176.439 125.806 175.74 126.788 174.661 127.836C173.836 128.622 172.979 129.441 172.091 130.292C167.394 133.829 162.697 137.398 158 141V77H160.475ZM168.187 116.539C167.426 115.622 166.442 115.164 165.236 115.164C163.712 115.164 162.475 116.048 161.523 117.816C160.824 119.191 160.475 122.433 160.475 127.542V135.99C160.539 136.252 162.316 134.647 165.807 131.176C167.711 129.343 168.949 127.181 169.52 124.693C169.774 123.71 169.901 122.728 169.901 121.746C169.901 119.584 169.33 117.849 168.187 116.539Z" fill="#1C1A1A"/>
<line x1="683" y1="24.5" x2="733" y2="24.5" stroke="#1C1A1A"/>
<line x1="622" y1="24.5" x2="672" y2="24.5" stroke="#1C1A1A"/>
</svg>
