<svg width="731" height="208" viewBox="0 0 731 208" fill="none" xmlns="http://www.w3.org/2000/svg">
<line y1="33.5" x2="731" y2="33.5" stroke="#1C1A1A"/>
<line y1="58.5" x2="731" y2="58.5" stroke="#1C1A1A"/>
<line y1="83.5" x2="731" y2="83.5" stroke="#1C1A1A"/>
<line y1="108.5" x2="731" y2="108.5" stroke="#1C1A1A"/>
<line y1="133.5" x2="731" y2="133.5" stroke="#1C1A1A"/>
<path d="M33.0196 96.6936C30.4448 97.5402 28.317 98.9688 26.636 100.981C24.9547 102.991 23.9303 105.188 23.5625 107.57C23.1947 109.951 23.4969 112.306 24.4688 114.635C25.4407 116.964 27.2664 118.843 29.9456 120.272C30.5761 120.272 30.9699 120.537 31.128 121.066C31.2852 121.595 31.0485 121.859 30.419 121.859C27.8443 121.33 25.5852 120.245 23.6414 118.605C20.0163 115.588 18.02 111.698 17.6522 106.935C17.4421 104.553 17.6653 102.251 18.3221 100.028C18.9787 97.8046 19.885 95.7669 21.0408 93.9144C22.4592 91.9568 24.1404 90.2627 26.0843 88.834C26.1893 88.7279 26.4915 88.4904 26.9905 88.1197C27.4896 87.749 27.9755 87.4054 28.4484 87.0878C28.9213 86.7702 29.6304 86.2673 30.5761 85.579L27.6604 71.4479C25.0861 73.6179 22.5381 76.0123 20.0164 78.6322C17.4946 81.252 15.2092 84.0181 13.1603 86.9285C11.1115 89.8399 9.46968 92.9226 8.23502 96.1776C7.00047 99.4326 6.38319 102.859 6.38319 106.459C6.38319 109.793 7.07923 112.929 8.47151 115.866C9.86369 118.803 11.7156 121.357 14.0272 123.526C16.3388 125.696 19.005 127.403 22.0258 128.648C25.0467 129.891 28.1069 130.513 31.2066 130.513C31.312 130.513 31.7973 130.46 32.6645 130.354C33.5317 130.249 34.4506 130.116 35.4222 129.957C36.3948 129.799 37.2879 129.626 38.1024 129.441C38.9159 129.256 39.3236 129.057 39.3236 128.846L38.8502 126.623C36.8016 116.197 34.8574 106.22 33.0196 96.6936ZM35.7773 96.376L42.2394 127.893C45.9697 126.464 48.4907 124.016 49.8045 120.55C51.1182 117.083 51.4195 113.564 50.7104 109.991C50.0014 106.419 48.3336 103.256 45.7062 100.504C43.0798 97.7515 39.7701 96.376 35.7773 96.376ZM27.5028 53.9034C29.1311 53.0559 30.6417 51.7865 32.034 50.0924C33.4263 48.3993 34.7132 46.5859 35.8956 44.6543C37.077 42.7228 38.1024 40.7511 38.9686 38.7394C39.8357 36.7287 40.5319 34.9033 41.057 33.2623C41.6348 31.516 42.0286 29.5574 42.2394 27.3874C42.4493 25.2174 42.1081 23.392 41.2151 21.9093C40.5846 20.5868 39.7572 19.8194 38.7329 19.607C37.7076 19.3956 36.6832 19.4748 35.6589 19.8455C34.6346 20.2161 33.663 20.8112 32.7431 21.6318C31.8242 22.4523 31.1539 23.1796 30.7342 23.8148C29.5776 25.8786 28.5663 28.1809 27.6998 30.7216C26.8329 33.2623 26.2418 35.8951 25.9267 38.6212C25.6114 41.3462 25.5721 43.9661 25.8085 46.4807C26.0448 48.9944 26.6096 51.4689 27.5028 53.9034ZM25.1387 56.364C24.2455 52.8715 23.4575 49.4442 22.7745 46.083C22.0915 42.7228 21.7501 39.2694 21.7501 35.7228C21.7501 33.13 21.9339 30.2848 22.3017 27.189C22.6694 24.0933 23.3392 21.0757 24.3112 18.1383C25.2831 15.2009 26.6227 12.568 28.3302 10.2397C30.0381 7.91038 32.3095 6.21725 35.1468 5.15829C35.4093 5.0531 35.6718 5 35.9344 5C36.3023 5 36.7359 5.21139 37.2352 5.63517C37.7344 6.05796 38.2595 6.68011 38.8114 7.50062C39.3624 8.32114 39.8487 9.16771 40.2693 10.0413C40.689 10.9139 41.0043 11.51 41.2151 11.8276C42.6332 14.5266 43.6705 17.3979 44.3278 20.4406C44.9842 23.4842 45.3651 26.5138 45.4705 29.5304C45.6803 34.0828 45.4307 38.5811 44.7216 43.0273C44.0126 47.4725 42.5805 51.8126 40.4265 56.0464C39.6915 57.3168 38.9427 58.6001 38.1809 59.8965C37.4192 61.1939 36.5132 62.4502 35.462 63.6675C35.2522 63.8799 34.8713 64.2636 34.3193 64.8186C33.7674 65.3747 33.2025 65.9437 32.6247 66.5258C32.0469 67.1079 31.5348 67.6509 31.0883 68.1528C30.6417 68.6557 30.419 68.9603 30.419 69.0665L33.6491 84.9438C33.6699 85.048 35.2651 84.9438 35.2651 84.9438C38.348 84.9829 41.6119 85.4859 44.4462 86.6109C47.178 87.8813 49.529 89.6275 51.4991 91.8506C53.4691 94.0737 55.0444 96.5744 56.2268 99.3525C57.4093 102.132 58 104.95 58 107.808C58 110.665 57.5793 113.577 56.739 116.54C54.5849 122.151 51.144 126.305 46.4162 129.004C45.8902 129.322 45.1413 129.68 44.1697 130.076C43.1981 130.473 42.8172 131.095 43.027 131.942C44.2881 137.708 45.1413 141.676 45.5888 143.85C46.0354 146.024 46.3635 148.829 46.5734 152.265C46.7832 155.551 46.2183 158.507 44.8788 161.152C43.5392 163.807 41.7402 165.961 39.4807 167.624C37.2222 169.297 35.1597 170.269 33.295 170.569C31.4294 170.86 30.1554 171 29.4732 171C27.1087 171 24.7972 170.549 22.5381 169.648C19.7536 168.596 17.4158 166.983 15.5245 164.809C13.6332 162.635 12.6875 159.99 12.6875 156.874C12.6875 154.91 13.2523 152.897 14.3818 150.833C15.5114 148.769 16.9955 147.286 18.8342 146.395C20.8832 145.333 22.7351 145.042 24.39 145.513C26.0448 145.994 27.4108 146.895 28.4878 148.218C29.5647 149.54 30.3136 151.143 30.7342 153.017C31.1539 154.9 31.128 156.653 30.6547 158.297C30.1823 159.94 29.2236 161.332 27.7786 162.464C26.3338 163.606 24.3243 164.117 21.7501 164.017C22.8007 165.921 24.2718 167.123 26.1631 167.624C28.0544 168.135 29.9983 168.165 31.9942 167.744C33.9912 167.323 35.8688 166.542 37.629 165.4C39.3892 164.268 40.7686 163.035 41.766 161.713C42.3965 160.761 42.8699 159.519 43.1852 157.986C43.5004 156.443 43.6844 154.85 43.7361 153.177C43.7888 151.514 43.7361 150.212 43.579 149.29C43.4209 148.358 43.1583 146.915 42.7904 144.962C41.2151 138.56 40.2166 134.533 39.796 132.89C39.5861 132.366 39.0213 132.193 38.1024 132.379C37.1825 132.564 36.4078 132.736 35.7773 132.89C31.2593 133.481 27.4765 133.21 24.4294 132.101C19.7011 130.831 15.5376 128.568 11.9389 125.313C8.34014 122.058 5.45067 118.115 3.27036 113.484C1.09015 108.853 0 105.334 0 102.925C0 100.518 0 98.9958 0 98.3607C0 94.0737 0.73552 90.0513 2.20656 86.2933C4.99092 80.4185 8.28763 75.0205 12.0965 70.0984C15.9054 65.1763 20.2528 60.5978 25.1387 56.364Z" fill="#1C1A1A"/>
<path d="M323.097 181.514C317.453 179.805 313 175.161 313 170.984C313 159.16 338.813 154.481 349.473 164.372C361 175.069 342.188 187.295 323.097 181.514H323.097ZM340.315 178.544C343.455 173.829 340.453 164.486 335.013 162.048C327.025 158.467 322.129 164.569 325.456 173.959C327.757 180.453 337.119 183.343 340.315 178.544Z" fill="#1C1A1A"/>
<path d="M248.097 194.514C242.453 192.805 238 188.161 238 183.984C238 172.16 263.813 167.481 274.473 177.372C286 188.069 267.188 200.295 248.097 194.514H248.097ZM265.315 191.544C268.455 186.829 265.453 177.486 260.013 175.048C252.025 171.467 247.129 177.569 250.456 186.959C252.757 193.453 262.119 196.343 265.315 191.544Z" fill="#1C1A1A"/>
<path d="M173.097 206.514C167.453 204.805 163 200.161 163 195.984C163 184.16 188.813 179.481 199.473 189.372C211 200.069 192.188 212.295 173.097 206.514H173.097ZM190.315 203.544C193.455 198.829 190.453 189.486 185.013 187.048C177.025 183.467 172.129 189.569 175.456 198.959C177.757 205.453 187.119 208.343 190.315 203.544Z" fill="#1C1A1A"/>
<path d="M398.097 169.514C392.453 167.805 388 163.161 388 158.984C388 147.16 413.813 142.481 424.473 152.372C436 163.069 417.188 175.295 398.097 169.514H398.097ZM415.315 166.544C418.455 161.829 415.453 152.486 410.013 150.048C402.025 146.467 397.129 152.569 400.456 161.959C402.757 168.453 412.119 171.343 415.315 166.544Z" fill="#1C1A1A"/>
<path d="M698.097 119.514C692.453 117.805 688 113.161 688 108.984C688 97.1601 713.813 92.4812 724.473 102.372C736 113.069 717.188 125.295 698.097 119.514H698.097ZM715.315 116.544C718.455 111.829 715.453 102.486 710.013 100.048C702.025 96.4667 697.129 102.569 700.456 111.959C702.757 118.453 712.119 121.343 715.315 116.544Z" fill="#1C1A1A"/>
<path d="M623.097 131.514C617.453 129.805 613 125.161 613 120.984C613 109.16 638.813 104.481 649.473 114.372C661 125.069 642.188 137.295 623.097 131.514H623.097ZM640.315 128.544C643.455 123.829 640.453 114.486 635.013 112.048C627.025 108.467 622.129 114.569 625.456 123.959C627.757 130.453 637.119 133.343 640.315 128.544Z" fill="#1C1A1A"/>
<path d="M548.097 144.514C542.453 142.805 538 138.161 538 133.984C538 122.16 563.813 117.481 574.473 127.372C586 138.069 567.188 150.295 548.097 144.514H548.097ZM565.315 141.544C568.455 136.829 565.453 127.486 560.013 125.048C552.025 121.467 547.129 127.569 550.456 136.959C552.757 143.453 562.119 146.343 565.315 141.544Z" fill="#1C1A1A"/>
<path d="M473.097 156.514C467.453 154.805 463 150.161 463 145.984C463 134.16 488.813 129.481 499.473 139.372C511 150.069 492.188 162.295 473.097 156.514H473.097ZM490.315 153.544C493.455 148.829 490.453 139.486 485.013 137.048C477.025 133.467 472.129 139.569 475.456 148.959C477.757 155.453 487.119 158.343 490.315 153.544Z" fill="#1C1A1A"/>
<path d="M64.4754 37V68.0906C64.4754 68.0906 64.4754 70.1864 64.4754 74.3778C67.3316 71.6927 70.537 70.3173 74.0914 70.2518C76.3129 70.2519 78.2171 71.2015 79.8039 73.1007C81.2003 74.869 81.9302 76.8337 81.9937 78.9949C82.0571 80.6977 81.6446 82.6624 80.756 84.8891C80.4386 85.806 79.7404 86.7884 78.6614 87.8363C77.8362 88.6222 76.9794 89.4408 76.0908 90.2922C71.3938 93.8287 66.6969 97.398 62 101V37H64.4754ZM72.1872 76.539C71.4256 75.6221 70.4418 75.1637 69.2358 75.1637C67.7125 75.1637 66.4748 76.0478 65.5227 77.8161C64.8245 79.1914 64.4754 82.4332 64.4754 87.5415V95.9899C64.5389 96.2519 66.3161 94.6473 69.8071 91.1763C71.7112 89.3426 72.9489 87.1813 73.5202 84.6927C73.774 83.7103 73.901 82.7279 73.901 81.7456C73.901 79.5844 73.3297 77.8488 72.1872 76.539Z" fill="#1C1A1A"/>
<path d="M88.4754 0V31.0906C88.4754 31.0906 88.4754 33.1864 88.4754 37.3778C91.3316 34.6927 94.537 33.3173 98.0914 33.2518C100.313 33.2519 102.217 34.2015 103.804 36.1007C105.2 37.869 105.93 39.8337 105.994 41.9949C106.057 43.6977 105.645 45.6624 104.756 47.8891C104.439 48.806 103.74 49.7884 102.661 50.8363C101.836 51.6222 100.979 52.4408 100.091 53.2922C95.3938 56.8287 90.6969 60.398 86 64V0H88.4754ZM96.1872 39.539C95.4256 38.6221 94.4418 38.1637 93.2358 38.1637C91.7125 38.1637 90.4748 39.0478 89.5227 40.8161C88.8245 42.1914 88.4754 45.4332 88.4754 50.5415V58.9899C88.5389 59.2519 90.3161 57.6473 93.8071 54.1763C95.7112 52.3426 96.9489 50.1813 97.5202 47.6927C97.774 46.7103 97.901 45.7279 97.901 44.7456C97.901 42.5844 97.3297 40.8488 96.1872 39.539Z" fill="#1C1A1A"/>
<line x1="153" y1="158.5" x2="213" y2="158.5" stroke="#1C1A1A"/>
<line x1="153" y1="183.5" x2="213" y2="183.5" stroke="#1C1A1A"/>
<line x1="228" y1="158.5" x2="288" y2="158.5" stroke="#1C1A1A"/>
<line x1="228" y1="183.5" x2="288" y2="183.5" stroke="#1C1A1A"/>
<line x1="303" y1="158.5" x2="363" y2="158.5" stroke="#1C1A1A"/>
<line x1="378" y1="158.5" x2="438" y2="158.5" stroke="#1C1A1A"/>
</svg>
