<svg width="866.7" height="196" viewBox="0 0 866.7 196" fill="none" xmlns="http://www.w3.org/2000/svg">
<line x1="1" y1="58.5" x2="866.7" y2="58.5" stroke="#1C1A1A"/>
<line x1="1" y1="83.5" x2="866.7" y2="83.5" stroke="#1C1A1A"/>
<line x1="1" y1="108.5" x2="866.7" y2="108.5" stroke="#1C1A1A"/>
<line x1="1" y1="133.5" x2="866.7" y2="133.5" stroke="#1C1A1A"/>
<line x1="1" y1="158.5" x2="866.7" y2="158.5" stroke="#1C1A1A"/>
<path d="M274.097 106.514C268.453 104.805 264 100.161 264 95.9836C264 84.1601 289.813 79.4812 300.473 89.3725C312 100.069 293.188 112.295 274.097 106.514H274.097ZM291.315 103.544C294.455 98.8287 291.453 89.486 286.013 87.0476C278.025 83.4667 273.129 89.5689 276.456 98.9586C278.757 105.453 288.119 108.343 291.315 103.544Z" fill="#1C1A1A"/>
<path d="M189.097 119.514C183.453 117.805 179 113.161 179 108.984C179 97.1601 204.813 92.4812 215.473 102.372C227 113.069 208.188 125.295 189.097 119.514H189.097ZM206.315 116.544C209.455 111.829 206.453 102.486 201.013 100.048C193.025 96.4667 188.129 102.569 191.456 111.959C193.757 118.453 203.119 121.343 206.315 116.544Z" fill="#1C1A1A"/>
<path d="M104.097 131.514C98.4533 129.805 94 125.161 94 120.984C94 109.16 119.813 104.481 130.473 114.372C142 125.069 123.188 137.295 104.097 131.514H104.097ZM121.315 128.544C124.455 123.829 121.453 114.486 116.013 112.048C108.025 108.467 103.129 114.569 106.456 123.959C108.757 130.453 118.119 133.343 121.315 128.544Z" fill="#1C1A1A"/>
<path d="M359.097 94.5145C353.453 92.8054 349 88.1609 349 83.9836C349 72.1601 374.813 67.4812 385.473 77.3725C397 88.0687 378.188 100.295 359.097 94.5145H359.097ZM376.315 91.5442C379.455 86.8287 376.453 77.486 371.013 75.0476C363.025 71.4667 358.129 77.5689 361.456 86.9586C363.757 93.4532 373.119 96.3425 376.315 91.5442Z" fill="#1C1A1A"/>
<path d="M699.097 44.5145C693.453 42.8054 689 38.1609 689 33.9836C689 22.1601 714.813 17.4812 725.473 27.3725C737 38.0687 718.188 50.2953 699.097 44.5145H699.097ZM716.315 41.5442C719.455 36.8287 716.453 27.486 711.013 25.0476C703.025 21.4667 698.129 27.5689 701.456 36.9586C703.757 43.4532 713.119 46.3425 716.315 41.5442Z" fill="#1C1A1A"/>
<path d="M614.097 56.5145C608.453 54.8054 604 50.1609 604 45.9836C604 34.1601 629.813 29.4812 640.473 39.3725C652 50.0687 633.188 62.2953 614.097 56.5145H614.097ZM631.315 53.5442C634.455 48.8287 631.453 39.486 626.013 37.0476C618.025 33.4667 613.129 39.5689 616.456 48.9586C618.757 55.4532 628.119 58.3425 631.315 53.5442Z" fill="#1C1A1A"/>
<path d="M529.097 69.5145C523.453 67.8054 519 63.1609 519 58.9836C519 47.1601 544.813 42.4812 555.473 52.3725C567 63.0687 548.188 75.2953 529.097 69.5145H529.097ZM546.315 66.5442C549.455 61.8287 546.453 52.486 541.013 50.0476C533.025 46.4667 528.129 52.5689 531.456 61.9586C533.757 68.4532 543.119 71.3425 546.315 66.5442Z" fill="#1C1A1A"/>
<path d="M444.097 81.5145C438.453 79.8054 434 75.1609 434 70.9836C434 59.1601 459.813 54.4812 470.473 64.3725C482 75.0687 463.188 87.2953 444.097 81.5145H444.097ZM461.315 78.5442C464.455 73.8287 461.453 64.486 456.013 62.0476C448.025 58.4667 443.129 64.5689 446.456 73.9586C448.757 80.4532 458.119 83.3425 461.315 78.5442Z" fill="#1C1A1A"/>
<line x1="677" y1="33.5" x2="737" y2="33.5" stroke="#1C1A1A"/>
<path d="M27.1226 132.24C24.7962 134.193 12.4703 141.891 4.9764 143C7.10156 141.891 7.77263 141.225 13.5888 137.565C19.306 133.967 26.3397 126.694 32.2677 119.817C37.0101 114.315 39.9108 105.619 40.7683 101.959C42.2894 98.3203 42.2223 90.1638 41.9986 86.5403C41.9613 83.0278 40.4104 74.605 34.5047 69.0145C27.1226 62.0264 19.6287 65.9087 18.2865 66.3524C16.9443 66.7961 12.3585 70.0128 11.0163 72.8968C9.94251 75.204 10.5689 75.9287 11.0163 76.0026C15.273 74.117 19.3501 75.2001 21.8721 77.0009C24.6684 78.9976 27.0172 81.9925 26.7935 86.5403C26.6146 90.1786 24.824 92.8629 23.4818 94.194C20.6855 97.2998 16.1986 97.6326 13.7007 97.6326C7.66078 97.2998 3.86507 92.9743 3.07496 91.6428C2.74586 91.0881 -0.391563 86.0966 1.73276 77.4446C3.48062 70.326 10.1588 64.7625 13.477 62.9138C24.1027 57.4785 31.5966 58.7295 36.4062 60.5844C42.446 62.9138 49.9901 70.1237 51.8414 76.4463C53.6927 82.7689 54.6376 87.7605 53.5191 93.8612C52.4006 99.962 50.8348 104.177 45.1304 113.384C39.4261 122.59 30.0307 129.8 27.1226 132.24Z" fill="black"/>
<path d="M4.9764 143L4.74504 142.557C4.52868 142.67 4.42547 142.922 4.50085 143.154C4.57623 143.387 4.80818 143.53 5.04961 143.495L4.9764 143ZM27.1226 132.24L26.8012 131.857L27.1226 132.24ZM45.1304 113.384L45.5555 113.647L45.1304 113.384ZM51.8414 76.4463L52.3213 76.3058L51.8414 76.4463ZM36.4062 60.5844L36.5861 60.1179V60.1179L36.4062 60.5844ZM13.477 62.9138L13.2493 62.4686L13.2414 62.4727L13.2336 62.477L13.477 62.9138ZM1.73276 77.4446L2.21834 77.5639L1.73276 77.4446ZM3.07496 91.6428L2.64496 91.8979H2.64496L3.07496 91.6428ZM13.7007 97.6326L13.6732 98.1318L13.6869 98.1326H13.7007V97.6326ZM23.4818 94.194L23.1297 93.839L23.1196 93.8489L23.1102 93.8594L23.4818 94.194ZM26.7935 86.5403L26.2941 86.5157L26.7935 86.5403ZM21.8721 77.0009L22.1627 76.594L21.8721 77.0009ZM11.0163 76.0026L10.9347 76.496L11.0822 76.5203L11.2188 76.4598L11.0163 76.0026ZM11.0163 72.8968L11.4696 73.1078L11.0163 72.8968ZM18.2865 66.3524L18.4434 66.8271L18.2865 66.3524ZM34.5047 69.0145L34.161 69.3776L34.5047 69.0145ZM41.9986 86.5403L41.4986 86.5456L41.4988 86.5584L41.4996 86.5711L41.9986 86.5403ZM40.7683 101.959L40.307 101.766L40.2909 101.804L40.2814 101.845L40.7683 101.959ZM32.2677 119.817L31.889 119.491L32.2677 119.817ZM13.5888 137.565L13.8551 137.988L13.5888 137.565ZM5.04961 143.495C8.8889 142.926 13.9096 140.687 18.2233 138.377C22.5423 136.065 26.2412 133.633 27.444 132.624L26.8012 131.857C25.6776 132.8 22.0503 135.194 17.7513 137.496C13.447 139.8 8.55782 141.964 4.90319 142.505L5.04961 143.495ZM27.444 132.624C30.3278 130.204 39.7992 122.937 45.5555 113.647L44.7054 113.12C39.053 122.243 29.7337 129.397 26.8012 131.857L27.444 132.624ZM45.5555 113.647C51.2815 104.405 52.8779 100.131 54.0109 93.9514L53.0273 93.771C51.9234 99.7925 50.388 103.949 44.7054 113.12L45.5555 113.647ZM54.0109 93.9514C55.1504 87.7362 54.1803 82.655 52.3213 76.3058L51.3615 76.5868C53.205 82.8829 54.1249 87.7847 53.0273 93.771L54.0109 93.9514ZM52.3213 76.3058C51.3632 73.0339 48.9526 69.5806 46.0488 66.6651C43.1422 63.7467 39.689 61.3146 36.5861 60.1179L36.2262 61.0509C39.1631 62.1835 42.502 64.5211 45.3402 67.3707C48.1812 70.2231 50.4683 73.5362 51.3615 76.5868L52.3213 76.3058ZM36.5861 60.1179C31.6555 58.2163 24.0124 56.9631 13.2493 62.4686L13.7047 63.3589C24.1929 57.994 31.5377 59.2427 36.2262 61.0509L36.5861 60.1179ZM13.2336 62.477C11.5252 63.4288 8.98435 65.3161 6.64743 67.8651C4.31098 70.4136 2.14795 73.6568 1.24718 77.3254L2.21834 77.5639C3.06543 74.1138 5.11541 71.0159 7.38454 68.5408C9.65322 66.0663 12.1106 64.2474 13.7203 63.3505L13.2336 62.477ZM1.24718 77.3254C-0.921034 86.1562 2.2821 91.2864 2.64496 91.8979L3.50495 91.3876C3.20962 90.8899 0.137908 86.0371 2.21834 77.5639L1.24718 77.3254ZM2.64496 91.8979C3.07914 92.6296 4.27552 94.0937 6.12826 95.4189C7.98869 96.7496 10.5371 97.959 13.6732 98.1318L13.7282 97.1333C10.8244 96.9734 8.45496 95.8536 6.71003 94.6055C4.95742 93.3519 3.86089 91.9874 3.50495 91.3876L2.64496 91.8979ZM13.7007 98.1326C16.2027 98.1326 20.8984 97.8107 23.8534 94.5285L23.1102 93.8594C20.4727 96.7889 16.1946 97.1326 13.7007 97.1326V98.1326ZM23.8339 94.549C25.2438 93.1507 27.1065 90.3543 27.2929 86.5649L26.2941 86.5157C26.1226 90.0028 24.4041 92.5751 23.1297 93.839L23.8339 94.549ZM27.2929 86.5649C27.5276 81.7942 25.0481 78.6543 22.1627 76.594L21.5816 77.4079C24.2887 79.3408 26.5069 82.1907 26.2941 86.5157L27.2929 86.5649ZM22.1627 76.594C19.5206 74.7075 15.2573 73.5771 10.8138 75.5455L11.2188 76.4598C15.2888 74.6568 19.1796 75.6928 21.5816 77.4079L22.1627 76.594ZM11.0978 75.5093C11.097 75.5092 11.0748 75.5052 11.0451 75.4727C11.0162 75.4412 10.9654 75.3659 10.9393 75.2065C10.8847 74.8729 10.9497 74.2249 11.4696 73.1078L10.563 72.6858C10.0091 73.876 9.85035 74.7439 9.95239 75.3679C10.0595 76.0228 10.466 76.4185 10.9347 76.496L11.0978 75.5093ZM11.4696 73.1078C12.0918 71.7709 13.5011 70.3042 14.9692 69.0955C15.6953 68.4977 16.4202 67.9757 17.0424 67.5778C17.6759 67.1727 18.1704 66.9173 18.4434 66.8271L18.1296 65.8776C17.7315 66.0092 17.1494 66.3224 16.5037 66.7353C15.8466 67.1555 15.0895 67.7011 14.3336 68.3235C12.8377 69.5551 11.283 71.1387 10.563 72.6858L11.4696 73.1078ZM18.4434 66.8271C19.1825 66.5828 21.2815 65.5438 24.1563 65.3958C26.9978 65.2496 30.579 65.9869 34.161 69.3776L34.8484 68.6514C31.0483 65.054 27.1915 64.2383 24.1049 64.3972C21.0517 64.5543 18.7327 65.6783 18.1296 65.8776L18.4434 66.8271ZM34.161 69.3776C39.9317 74.8404 41.4622 83.1084 41.4986 86.5456L42.4986 86.535C42.4605 82.9471 40.889 74.3696 34.8484 68.6514L34.161 69.3776ZM41.4996 86.5711C41.6105 88.3674 41.6827 91.2937 41.5384 94.2193C41.393 97.1656 41.0305 100.035 40.307 101.766L41.2296 102.151C42.0272 100.244 42.3917 97.2159 42.5372 94.2685C42.6836 91.3004 42.6105 88.3367 42.4977 86.5095L41.4996 86.5711ZM40.2814 101.845C39.4308 105.476 36.5535 114.079 31.889 119.491L32.6464 120.144C37.4668 114.551 40.3908 105.762 41.2551 102.073L40.2814 101.845ZM31.889 119.491C25.961 126.368 18.9699 133.587 13.3225 137.142L13.8551 137.988C19.6422 134.346 26.7183 127.021 32.6464 120.144L31.889 119.491ZM13.3225 137.142C10.4095 138.975 8.78348 140.059 7.62388 140.821C6.46733 141.581 5.78498 142.014 4.74504 142.557L5.20776 143.443C6.29298 142.877 7.00874 142.422 8.17307 141.657C9.33434 140.894 10.9519 139.815 13.8551 137.988L13.3225 137.142Z" fill="black"/>
<ellipse cx="66.4852" cy="71.1558" rx="6.51452" ry="6.49758" fill="black"/>
<ellipse cx="66.4852" cy="95.647" rx="6.51452" ry="6.49758" fill="black"/>
<path d="M582.475 0V31.0906C582.475 31.0906 582.475 33.1864 582.475 37.3778C585.332 34.6927 588.537 33.3173 592.091 33.2518C594.313 33.2519 596.217 34.2015 597.804 36.1007C599.2 37.869 599.93 39.8337 599.994 41.9949C600.057 43.6977 599.645 45.6624 598.756 47.8891C598.439 48.806 597.74 49.7884 596.661 50.8363C595.836 51.6222 594.979 52.4408 594.091 53.2922C589.394 56.8287 584.697 60.398 580 64V0H582.475ZM590.187 39.539C589.426 38.6221 588.442 38.1637 587.236 38.1637C585.712 38.1637 584.475 39.0478 583.523 40.8161C582.824 42.1914 582.475 45.4332 582.475 50.5415V58.9899C582.539 59.2519 584.316 57.6473 587.807 54.1763C589.711 52.3426 590.949 50.1813 591.52 47.6927C591.774 46.7103 591.901 45.7279 591.901 44.7456C591.901 42.5844 591.33 40.8488 590.187 39.539Z" fill="#1C1A1A"/>
<path d="M497.475 10V41.0906C497.475 41.0906 497.475 43.1864 497.475 47.3778C500.332 44.6927 503.537 43.3173 507.091 43.2518C509.313 43.2519 511.217 44.2015 512.804 46.1007C514.2 47.869 514.93 49.8337 514.994 51.9949C515.057 53.6977 514.645 55.6624 513.756 57.8891C513.439 58.806 512.74 59.7884 511.661 60.8363C510.836 61.6222 509.979 62.4408 509.091 63.2922C504.394 66.8287 499.697 70.398 495 74V10H497.475ZM505.187 49.539C504.426 48.6221 503.442 48.1637 502.236 48.1637C500.712 48.1637 499.475 49.0478 498.523 50.8161C497.824 52.1914 497.475 55.4332 497.475 60.5415V68.9899C497.539 69.2519 499.316 67.6473 502.807 64.1763C504.711 62.3426 505.949 60.1813 506.52 57.6927C506.774 56.7103 506.901 55.7279 506.901 54.7456C506.901 52.5844 506.33 50.8488 505.187 49.539Z" fill="#1C1A1A"/>
<path d="M242.475 47V78.0906C242.475 78.0906 242.475 80.1864 242.475 84.3778C245.332 81.6927 248.537 80.3173 252.091 80.2518C254.313 80.2519 256.217 81.2015 257.804 83.1007C259.2 84.869 259.93 86.8337 259.994 88.9949C260.057 90.6977 259.645 92.6624 258.756 94.8891C258.439 95.806 257.74 96.7884 256.661 97.8363C255.836 98.6222 254.979 99.4408 254.091 100.292C249.394 103.829 244.697 107.398 240 111V47H242.475ZM250.187 86.539C249.426 85.6221 248.442 85.1637 247.236 85.1637C245.712 85.1637 244.475 86.0478 243.523 87.8161C242.824 89.1914 242.475 92.4332 242.475 97.5415V105.99C242.539 106.252 244.316 104.647 247.807 101.176C249.711 99.3426 250.949 97.1813 251.52 94.6927C251.774 93.7103 251.901 92.7279 251.901 91.7456C251.901 89.5844 251.33 87.8488 250.187 86.539Z" fill="#1C1A1A"/>
</svg>
