<svg width="734" height="166" viewBox="0 0 734 166" fill="none" xmlns="http://www.w3.org/2000/svg">
<line x1="1" y1="28.5" x2="734" y2="28.5" stroke="#1C1A1A"/>
<line x1="1" y1="53.5" x2="734" y2="53.5" stroke="#1C1A1A"/>
<line x1="1" y1="78.5" x2="734" y2="78.5" stroke="#1C1A1A"/>
<line x1="1" y1="103.5" x2="734" y2="103.5" stroke="#1C1A1A"/>
<line x1="1" y1="128.5" x2="734" y2="128.5" stroke="#1C1A1A"/>
<path d="M324.097 88.5145C318.453 86.8054 314 82.1609 314 77.9836C314 66.1601 339.813 61.4812 350.473 71.3725C362 82.0687 343.188 94.2953 324.097 88.5145H324.097ZM341.315 85.5442C344.455 80.8287 341.453 71.486 336.013 69.0476C328.025 65.4667 323.129 71.5689 326.456 80.9586C328.757 87.4532 338.119 90.3425 341.315 85.5442Z" fill="#1C1A1A"/>
<path d="M249.097 101.514C243.453 99.8054 239 95.1609 239 90.9836C239 79.1601 264.813 74.4812 275.473 84.3725C287 95.0687 268.188 107.295 249.097 101.514H249.097ZM266.315 98.5442C269.455 93.8287 266.453 84.486 261.013 82.0476C253.025 78.4667 248.129 84.5689 251.456 93.9586C253.757 100.453 263.119 103.343 266.315 98.5442Z" fill="#1C1A1A"/>
<path d="M174.097 113.514C168.453 111.805 164 107.161 164 102.984C164 91.1601 189.813 86.4812 200.473 96.3725C212 107.069 193.188 119.295 174.097 113.514H174.097ZM191.315 110.544C194.455 105.829 191.453 96.486 186.013 94.0476C178.025 90.4667 173.129 96.5689 176.456 105.959C178.757 112.453 188.119 115.343 191.315 110.544Z" fill="#1C1A1A"/>
<path d="M399.097 76.5145C393.453 74.8054 389 70.1609 389 65.9836C389 54.1601 414.813 49.4812 425.473 59.3725C437 70.0687 418.188 82.2953 399.097 76.5145H399.097ZM416.315 73.5442C419.455 68.8287 416.453 59.486 411.013 57.0476C403.025 53.4667 398.129 59.5689 401.456 68.9586C403.757 75.4532 413.119 78.3425 416.315 73.5442Z" fill="#1C1A1A"/>
<path d="M699.097 26.5145C693.453 24.8054 689 20.1609 689 15.9836C689 4.16009 714.813 -0.518793 725.473 9.37248C737 20.0687 718.188 32.2953 699.097 26.5145H699.097ZM716.315 23.5442C719.455 18.8287 716.453 9.48596 711.013 7.04758C703.025 3.46674 698.129 9.56887 701.456 18.9586C703.757 25.4532 713.119 28.3425 716.315 23.5442Z" fill="#1C1A1A"/>
<path d="M624.097 38.5145C618.453 36.8054 614 32.1609 614 27.9836C614 16.1601 639.813 11.4812 650.473 21.3725C662 32.0687 643.188 44.2953 624.097 38.5145H624.097ZM641.315 35.5442C644.455 30.8287 641.453 21.486 636.013 19.0476C628.025 15.4667 623.129 21.5689 626.456 30.9586C628.757 37.4532 638.119 40.3425 641.315 35.5442Z" fill="#1C1A1A"/>
<path d="M549.097 51.5145C543.453 49.8054 539 45.1609 539 40.9836C539 29.1601 564.813 24.4812 575.473 34.3725C587 45.0687 568.188 57.2953 549.097 51.5145H549.097ZM566.315 48.5442C569.455 43.8287 566.453 34.486 561.013 32.0476C553.025 28.4667 548.129 34.5689 551.456 43.9586C553.757 50.4532 563.119 53.3425 566.315 48.5442Z" fill="#1C1A1A"/>
<path d="M474.097 63.5145C468.453 61.8054 464 57.1609 464 52.9836C464 41.1601 489.813 36.4812 500.473 46.3725C512 57.0687 493.188 69.2953 474.097 63.5145H474.097ZM491.315 60.5442C494.455 55.8287 491.453 46.486 486.013 44.0476C478.025 40.4667 473.129 46.5689 476.456 55.9586C478.757 62.4532 488.119 65.3425 491.315 60.5442Z" fill="#1C1A1A"/>
<path d="M27.1226 102.24C24.7962 104.193 12.4703 111.891 4.9764 113C7.10156 111.891 7.77263 111.225 13.5888 107.565C19.306 103.967 26.3397 96.6944 32.2677 89.8171C37.0101 84.3154 39.9108 75.619 40.7683 71.9586C42.2894 68.3203 42.2223 60.1638 41.9986 56.5403C41.9613 53.0278 40.4104 44.605 34.5047 39.0145C27.1226 32.0264 19.6287 35.9087 18.2865 36.3524C16.9443 36.7961 12.3585 40.0128 11.0163 42.8968C9.94251 45.204 10.5689 45.9287 11.0163 46.0026C15.273 44.117 19.3501 45.2001 21.8721 47.0009C24.6684 48.9976 27.0172 51.9925 26.7935 56.5403C26.6146 60.1786 24.824 62.8629 23.4818 64.194C20.6855 67.2998 16.1986 67.6326 13.7007 67.6326C7.66078 67.2998 3.86507 62.9743 3.07496 61.6428C2.74586 61.0881 -0.391563 56.0966 1.73276 47.4446C3.48062 40.326 10.1588 34.7625 13.477 32.9138C24.1027 27.4785 31.5966 28.7295 36.4062 30.5844C42.446 32.9138 49.9901 40.1237 51.8414 46.4463C53.6927 52.7689 54.6376 57.7605 53.5191 63.8612C52.4006 69.962 50.8348 74.177 45.1304 83.3836C39.4261 92.5902 30.0307 99.8002 27.1226 102.24Z" fill="black"/>
<path d="M4.9764 113L4.74504 112.557C4.52868 112.67 4.42547 112.922 4.50085 113.154C4.57623 113.387 4.80818 113.53 5.04961 113.495L4.9764 113ZM27.1226 102.24L26.8012 101.857L27.1226 102.24ZM45.1304 83.3836L45.5555 83.647L45.1304 83.3836ZM51.8414 46.4463L52.3213 46.3058L51.8414 46.4463ZM36.4062 30.5844L36.5861 30.1179V30.1179L36.4062 30.5844ZM13.477 32.9138L13.2493 32.4686L13.2414 32.4727L13.2336 32.477L13.477 32.9138ZM1.73276 47.4446L2.21834 47.5639L1.73276 47.4446ZM3.07496 61.6428L2.64496 61.8979H2.64496L3.07496 61.6428ZM13.7007 67.6326L13.6732 68.1318L13.6869 68.1326H13.7007V67.6326ZM23.4818 64.194L23.1297 63.839L23.1196 63.8489L23.1102 63.8594L23.4818 64.194ZM26.7935 56.5403L26.2941 56.5157L26.7935 56.5403ZM21.8721 47.0009L22.1627 46.594L21.8721 47.0009ZM11.0163 46.0026L10.9347 46.496L11.0822 46.5203L11.2188 46.4598L11.0163 46.0026ZM11.0163 42.8968L11.4696 43.1078L11.0163 42.8968ZM18.2865 36.3524L18.4434 36.8271L18.2865 36.3524ZM34.5047 39.0145L34.161 39.3776L34.5047 39.0145ZM41.9986 56.5403L41.4986 56.5456L41.4988 56.5584L41.4996 56.5711L41.9986 56.5403ZM40.7683 71.9586L40.307 71.7657L40.2909 71.8041L40.2814 71.8445L40.7683 71.9586ZM32.2677 89.8171L31.889 89.4907L32.2677 89.8171ZM13.5888 107.565L13.8551 107.988L13.5888 107.565ZM5.04961 113.495C8.8889 112.926 13.9096 110.687 18.2233 108.377C22.5423 106.065 26.2412 103.633 27.444 102.624L26.8012 101.857C25.6776 102.8 22.0503 105.194 17.7513 107.496C13.447 109.8 8.55782 111.964 4.90319 112.505L5.04961 113.495ZM27.444 102.624C30.3278 100.204 39.7992 92.9374 45.5555 83.647L44.7054 83.1203C39.053 92.243 29.7337 99.3968 26.8012 101.857L27.444 102.624ZM45.5555 83.647C51.2815 74.4054 52.8779 70.1314 54.0109 63.9514L53.0273 63.771C51.9234 69.7925 50.388 73.9487 44.7054 83.1203L45.5555 83.647ZM54.0109 63.9514C55.1504 57.7362 54.1803 52.655 52.3213 46.3058L51.3615 46.5868C53.205 52.8829 54.1249 57.7847 53.0273 63.771L54.0109 63.9514ZM52.3213 46.3058C51.3632 43.0339 48.9526 39.5806 46.0488 36.6651C43.1422 33.7467 39.689 31.3146 36.5861 30.1179L36.2262 31.0509C39.1631 32.1835 42.502 34.5211 45.3402 37.3707C48.1812 40.2231 50.4683 43.5362 51.3615 46.5868L52.3213 46.3058ZM36.5861 30.1179C31.6555 28.2163 24.0124 26.9631 13.2493 32.4686L13.7047 33.3589C24.1929 27.994 31.5377 29.2427 36.2262 31.0509L36.5861 30.1179ZM13.2336 32.477C11.5252 33.4288 8.98435 35.3161 6.64743 37.8651C4.31098 40.4136 2.14795 43.6568 1.24718 47.3254L2.21834 47.5639C3.06543 44.1138 5.11541 41.0159 7.38454 38.5408C9.65322 36.0663 12.1106 34.2474 13.7203 33.3505L13.2336 32.477ZM1.24718 47.3254C-0.921034 56.1562 2.2821 61.2864 2.64496 61.8979L3.50495 61.3876C3.20962 60.8899 0.137908 56.0371 2.21834 47.5639L1.24718 47.3254ZM2.64496 61.8979C3.07914 62.6296 4.27552 64.0937 6.12826 65.4189C7.98869 66.7496 10.5371 67.959 13.6732 68.1318L13.7282 67.1333C10.8244 66.9734 8.45496 65.8536 6.71003 64.6055C4.95742 63.3519 3.86089 61.9874 3.50495 61.3876L2.64496 61.8979ZM13.7007 68.1326C16.2027 68.1326 20.8984 67.8107 23.8534 64.5285L23.1102 63.8594C20.4727 66.7889 16.1946 67.1326 13.7007 67.1326V68.1326ZM23.8339 64.549C25.2438 63.1507 27.1065 60.3543 27.2929 56.5649L26.2941 56.5157C26.1226 60.0028 24.4041 62.5751 23.1297 63.839L23.8339 64.549ZM27.2929 56.5649C27.5276 51.7942 25.0481 48.6543 22.1627 46.594L21.5816 47.4079C24.2887 49.3408 26.5069 52.1907 26.2941 56.5157L27.2929 56.5649ZM22.1627 46.594C19.5206 44.7075 15.2573 43.5771 10.8138 45.5455L11.2188 46.4598C15.2888 44.6568 19.1796 45.6928 21.5816 47.4079L22.1627 46.594ZM11.0978 45.5093C11.097 45.5092 11.0748 45.5052 11.0451 45.4727C11.0162 45.4412 10.9654 45.3659 10.9393 45.2065C10.8847 44.8729 10.9497 44.2249 11.4696 43.1078L10.563 42.6858C10.0091 43.876 9.85035 44.7439 9.95239 45.3679C10.0595 46.0228 10.466 46.4185 10.9347 46.496L11.0978 45.5093ZM11.4696 43.1078C12.0918 41.7709 13.5011 40.3042 14.9692 39.0955C15.6953 38.4977 16.4202 37.9757 17.0424 37.5778C17.6759 37.1727 18.1704 36.9173 18.4434 36.8271L18.1296 35.8776C17.7315 36.0092 17.1494 36.3224 16.5037 36.7353C15.8466 37.1555 15.0895 37.7011 14.3336 38.3235C12.8377 39.5551 11.283 41.1387 10.563 42.6858L11.4696 43.1078ZM18.4434 36.8271C19.1825 36.5828 21.2815 35.5438 24.1563 35.3958C26.9978 35.2496 30.579 35.9869 34.161 39.3776L34.8484 38.6514C31.0483 35.054 27.1915 34.2383 24.1049 34.3972C21.0517 34.5543 18.7327 35.6783 18.1296 35.8776L18.4434 36.8271ZM34.161 39.3776C39.9317 44.8404 41.4622 53.1084 41.4986 56.5456L42.4986 56.535C42.4605 52.9471 40.889 44.3696 34.8484 38.6514L34.161 39.3776ZM41.4996 56.5711C41.6105 58.3674 41.6827 61.2937 41.5384 64.2193C41.393 67.1656 41.0305 70.0352 40.307 71.7657L41.2296 72.1514C42.0272 70.2437 42.3917 67.2159 42.5372 64.2685C42.6836 61.3004 42.6105 58.3367 42.4977 56.5095L41.4996 56.5711ZM40.2814 71.8445C39.4308 75.4758 36.5535 84.0794 31.889 89.4907L32.6464 90.1436C37.4668 84.5514 40.3908 75.7622 41.2551 72.0726L40.2814 71.8445ZM31.889 89.4907C25.961 96.3679 18.9699 103.587 13.3225 107.142L13.8551 107.988C19.6422 104.346 26.7183 97.0209 32.6464 90.1436L31.889 89.4907ZM13.3225 107.142C10.4095 108.975 8.78348 110.059 7.62388 110.821C6.46733 111.581 5.78498 112.014 4.74504 112.557L5.20776 113.443C6.29298 112.877 7.00874 112.422 8.17307 111.657C9.33434 110.894 10.9519 109.815 13.8551 107.988L13.3225 107.142Z" fill="black"/>
<ellipse cx="66.4852" cy="41.1558" rx="6.51452" ry="6.49758" fill="black"/>
<ellipse cx="66.4852" cy="65.647" rx="6.51452" ry="6.49758" fill="black"/>
<path d="M87.4754 56V87.0906C87.4754 87.0906 87.4754 89.1864 87.4754 93.3778C90.3316 90.6927 93.537 89.3173 97.0914 89.2518C99.3129 89.2519 101.217 90.2015 102.804 92.1007C104.2 93.869 104.93 95.8337 104.994 97.9949C105.057 99.6977 104.645 101.662 103.756 103.889C103.439 104.806 102.74 105.788 101.661 106.836C100.836 107.622 99.9794 108.441 99.0908 109.292C94.3938 112.829 89.6969 116.398 85 120V56H87.4754ZM95.1872 95.539C94.4256 94.6221 93.4418 94.1637 92.2358 94.1637C90.7125 94.1637 89.4748 95.0478 88.5227 96.8161C87.8245 98.1914 87.4754 101.433 87.4754 106.542V114.99C87.5389 115.252 89.3161 113.647 92.8071 110.176C94.7112 108.343 95.9489 106.181 96.5202 103.693C96.774 102.71 96.901 101.728 96.901 100.746C96.901 98.5844 96.3297 96.8488 95.1872 95.539Z" fill="#1C1A1A"/>
<path d="M111.475 19V50.0906C111.475 50.0906 111.475 52.1864 111.475 56.3778C114.332 53.6927 117.537 52.3173 121.091 52.2518C123.313 52.2519 125.217 53.2015 126.804 55.1007C128.2 56.869 128.93 58.8337 128.994 60.9949C129.057 62.6977 128.645 64.6624 127.756 66.8891C127.439 67.806 126.74 68.7884 125.661 69.8363C124.836 70.6222 123.979 71.4408 123.091 72.2922C118.394 75.8287 113.697 79.398 109 83V19H111.475ZM119.187 58.539C118.426 57.6221 117.442 57.1637 116.236 57.1637C114.712 57.1637 113.475 58.0478 112.523 59.8161C111.824 61.1914 111.475 64.4332 111.475 69.5415V77.9899C111.539 78.2519 113.316 76.6473 116.807 73.1763C118.711 71.3426 119.949 69.1813 120.52 66.6927C120.774 65.7103 120.901 64.7279 120.901 63.7456C120.901 61.5844 120.33 59.8488 119.187 58.539Z" fill="#1C1A1A"/>
</svg>
