<svg width="737" height="172" viewBox="0 0 737 172" fill="none" xmlns="http://www.w3.org/2000/svg">
<line x1="1" y1="34.5" x2="737" y2="34.5" stroke="#1C1A1A"/>
<line x1="1" y1="59.5" x2="737" y2="59.5" stroke="#1C1A1A"/>
<line x1="1" y1="84.5" x2="737" y2="84.5" stroke="#1C1A1A"/>
<line x1="1" y1="109.5" x2="737" y2="109.5" stroke="#1C1A1A"/>
<line x1="1" y1="134.5" x2="737" y2="134.5" stroke="#1C1A1A"/>
<path d="M324.097 119.514C318.453 117.805 314 113.161 314 108.984C314 97.1601 339.813 92.4812 350.473 102.372C362 113.069 343.188 125.295 324.097 119.514H324.097ZM341.315 116.544C344.455 111.829 341.453 102.486 336.013 100.048C328.025 96.4667 323.129 102.569 326.456 111.959C328.757 118.453 338.119 121.343 341.315 116.544Z" fill="#1C1A1A"/>
<path d="M249.097 132.514C243.453 130.805 239 126.161 239 121.984C239 110.16 264.813 105.481 275.473 115.372C287 126.069 268.188 138.295 249.097 132.514H249.097ZM266.315 129.544C269.455 124.829 266.453 115.486 261.013 113.048C253.025 109.467 248.129 115.569 251.456 124.959C253.757 131.453 263.119 134.343 266.315 129.544Z" fill="#1C1A1A"/>
<path d="M174.097 144.514C168.453 142.805 164 138.161 164 133.984C164 122.16 189.813 117.481 200.473 127.372C212 138.069 193.188 150.295 174.097 144.514H174.097ZM191.315 141.544C194.455 136.829 191.453 127.486 186.013 125.048C178.025 121.467 173.129 127.569 176.456 136.959C178.757 143.453 188.119 146.343 191.315 141.544Z" fill="#1C1A1A"/>
<path d="M399.097 107.514C393.453 105.805 389 101.161 389 96.9836C389 85.1601 414.813 80.4812 425.473 90.3725C437 101.069 418.188 113.295 399.097 107.514H399.097ZM416.315 104.544C419.455 99.8287 416.453 90.486 411.013 88.0476C403.025 84.4667 398.129 90.5689 401.456 99.9586C403.757 106.453 413.119 109.343 416.315 104.544Z" fill="#1C1A1A"/>
<path d="M699.097 57.5145C693.453 55.8054 689 51.1609 689 46.9836C689 35.1601 714.813 30.4812 725.473 40.3725C737 51.0687 718.188 63.2953 699.097 57.5145H699.097ZM716.315 54.5442C719.455 49.8287 716.453 40.486 711.013 38.0476C703.025 34.4667 698.129 40.5689 701.456 49.9586C703.757 56.4532 713.119 59.3425 716.315 54.5442Z" fill="#1C1A1A"/>
<path d="M624.097 69.5145C618.453 67.8054 614 63.1609 614 58.9836C614 47.1601 639.813 42.4812 650.473 52.3725C662 63.0687 643.188 75.2953 624.097 69.5145H624.097ZM641.315 66.5442C644.455 61.8287 641.453 52.486 636.013 50.0476C628.025 46.4667 623.129 52.5689 626.456 61.9586C628.757 68.4532 638.119 71.3425 641.315 66.5442Z" fill="#1C1A1A"/>
<path d="M549.097 82.5145C543.453 80.8054 539 76.1609 539 71.9836C539 60.1601 564.813 55.4812 575.473 65.3725C587 76.0687 568.188 88.2953 549.097 82.5145H549.097ZM566.315 79.5442C569.455 74.8287 566.453 65.486 561.013 63.0476C553.025 59.4667 548.129 65.5689 551.456 74.9586C553.757 81.4532 563.119 84.3425 566.315 79.5442Z" fill="#1C1A1A"/>
<path d="M474.097 94.5145C468.453 92.8054 464 88.1609 464 83.9836C464 72.1601 489.813 67.4812 500.473 77.3725C512 88.0687 493.188 100.295 474.097 94.5145H474.097ZM491.315 91.5442C494.455 86.8287 491.453 77.486 486.013 75.0476C478.025 71.4667 473.129 77.5689 476.456 86.9586C478.757 93.4532 488.119 96.3425 491.315 91.5442Z" fill="#1C1A1A"/>
<path d="M27.1226 108.24C24.7962 110.193 12.4703 117.891 4.9764 119C7.10156 117.891 7.77263 117.225 13.5888 113.565C19.306 109.967 26.3397 102.694 32.2677 95.8171C37.0101 90.3154 39.9108 81.619 40.7683 77.9586C42.2894 74.3203 42.2223 66.1638 41.9986 62.5403C41.9613 59.0278 40.4104 50.605 34.5047 45.0145C27.1226 38.0264 19.6287 41.9087 18.2865 42.3524C16.9443 42.7961 12.3585 46.0128 11.0163 48.8968C9.94251 51.204 10.5689 51.9287 11.0163 52.0026C15.273 50.117 19.3501 51.2001 21.8721 53.0009C24.6684 54.9976 27.0172 57.9925 26.7935 62.5403C26.6146 66.1786 24.824 68.8629 23.4818 70.194C20.6855 73.2998 16.1986 73.6326 13.7007 73.6326C7.66078 73.2998 3.86507 68.9743 3.07496 67.6428C2.74586 67.0881 -0.391563 62.0966 1.73276 53.4446C3.48062 46.326 10.1588 40.7625 13.477 38.9138C24.1027 33.4785 31.5966 34.7295 36.4062 36.5844C42.446 38.9138 49.9901 46.1237 51.8414 52.4463C53.6927 58.7689 54.6376 63.7605 53.5191 69.8612C52.4006 75.962 50.8348 80.177 45.1304 89.3836C39.4261 98.5902 30.0307 105.8 27.1226 108.24Z" fill="black"/>
<path d="M4.9764 119L4.74504 118.557C4.52868 118.67 4.42547 118.922 4.50085 119.154C4.57623 119.387 4.80818 119.53 5.04961 119.495L4.9764 119ZM27.1226 108.24L26.8012 107.857L27.1226 108.24ZM45.1304 89.3836L45.5555 89.647L45.1304 89.3836ZM51.8414 52.4463L52.3213 52.3058L51.8414 52.4463ZM36.4062 36.5844L36.5861 36.1179V36.1179L36.4062 36.5844ZM13.477 38.9138L13.2493 38.4686L13.2414 38.4727L13.2336 38.477L13.477 38.9138ZM1.73276 53.4446L2.21834 53.5639L1.73276 53.4446ZM3.07496 67.6428L2.64496 67.8979H2.64496L3.07496 67.6428ZM13.7007 73.6326L13.6732 74.1318L13.6869 74.1326H13.7007V73.6326ZM23.4818 70.194L23.1297 69.839L23.1196 69.8489L23.1102 69.8594L23.4818 70.194ZM26.7935 62.5403L26.2941 62.5157L26.7935 62.5403ZM21.8721 53.0009L22.1627 52.594L21.8721 53.0009ZM11.0163 52.0026L10.9347 52.496L11.0822 52.5203L11.2188 52.4598L11.0163 52.0026ZM11.0163 48.8968L11.4696 49.1078L11.0163 48.8968ZM18.2865 42.3524L18.4434 42.8271L18.2865 42.3524ZM34.5047 45.0145L34.161 45.3776L34.5047 45.0145ZM41.9986 62.5403L41.4986 62.5456L41.4988 62.5584L41.4996 62.5711L41.9986 62.5403ZM40.7683 77.9586L40.307 77.7657L40.2909 77.8041L40.2814 77.8445L40.7683 77.9586ZM32.2677 95.8171L31.889 95.4907L32.2677 95.8171ZM13.5888 113.565L13.8551 113.988L13.5888 113.565ZM5.04961 119.495C8.8889 118.926 13.9096 116.687 18.2233 114.377C22.5423 112.065 26.2412 109.633 27.444 108.624L26.8012 107.857C25.6776 108.8 22.0503 111.194 17.7513 113.496C13.447 115.8 8.55782 117.964 4.90319 118.505L5.04961 119.495ZM27.444 108.624C30.3278 106.204 39.7992 98.9374 45.5555 89.647L44.7054 89.1203C39.053 98.243 29.7337 105.397 26.8012 107.857L27.444 108.624ZM45.5555 89.647C51.2815 80.4054 52.8779 76.1314 54.0109 69.9514L53.0273 69.771C51.9234 75.7925 50.388 79.9487 44.7054 89.1203L45.5555 89.647ZM54.0109 69.9514C55.1504 63.7362 54.1803 58.655 52.3213 52.3058L51.3615 52.5868C53.205 58.8829 54.1249 63.7847 53.0273 69.771L54.0109 69.9514ZM52.3213 52.3058C51.3632 49.0339 48.9526 45.5806 46.0488 42.6651C43.1422 39.7467 39.689 37.3146 36.5861 36.1179L36.2262 37.0509C39.1631 38.1835 42.502 40.5211 45.3402 43.3707C48.1812 46.2231 50.4683 49.5362 51.3615 52.5868L52.3213 52.3058ZM36.5861 36.1179C31.6555 34.2163 24.0124 32.9631 13.2493 38.4686L13.7047 39.3589C24.1929 33.994 31.5377 35.2427 36.2262 37.0509L36.5861 36.1179ZM13.2336 38.477C11.5252 39.4288 8.98435 41.3161 6.64743 43.8651C4.31098 46.4136 2.14795 49.6568 1.24718 53.3254L2.21834 53.5639C3.06543 50.1138 5.11541 47.0159 7.38454 44.5408C9.65322 42.0663 12.1106 40.2474 13.7203 39.3505L13.2336 38.477ZM1.24718 53.3254C-0.921034 62.1562 2.2821 67.2864 2.64496 67.8979L3.50495 67.3876C3.20962 66.8899 0.137908 62.0371 2.21834 53.5639L1.24718 53.3254ZM2.64496 67.8979C3.07914 68.6296 4.27552 70.0937 6.12826 71.4189C7.98869 72.7496 10.5371 73.959 13.6732 74.1318L13.7282 73.1333C10.8244 72.9734 8.45496 71.8536 6.71003 70.6055C4.95742 69.3519 3.86089 67.9874 3.50495 67.3876L2.64496 67.8979ZM13.7007 74.1326C16.2027 74.1326 20.8984 73.8107 23.8534 70.5285L23.1102 69.8594C20.4727 72.7889 16.1946 73.1326 13.7007 73.1326V74.1326ZM23.8339 70.549C25.2438 69.1507 27.1065 66.3543 27.2929 62.5649L26.2941 62.5157C26.1226 66.0028 24.4041 68.5751 23.1297 69.839L23.8339 70.549ZM27.2929 62.5649C27.5276 57.7942 25.0481 54.6543 22.1627 52.594L21.5816 53.4079C24.2887 55.3408 26.5069 58.1907 26.2941 62.5157L27.2929 62.5649ZM22.1627 52.594C19.5206 50.7075 15.2573 49.5771 10.8138 51.5455L11.2188 52.4598C15.2888 50.6568 19.1796 51.6928 21.5816 53.4079L22.1627 52.594ZM11.0978 51.5093C11.097 51.5092 11.0748 51.5052 11.0451 51.4727C11.0162 51.4412 10.9654 51.3659 10.9393 51.2065C10.8847 50.8729 10.9497 50.2249 11.4696 49.1078L10.563 48.6858C10.0091 49.876 9.85035 50.7439 9.95239 51.3679C10.0595 52.0228 10.466 52.4185 10.9347 52.496L11.0978 51.5093ZM11.4696 49.1078C12.0918 47.7709 13.5011 46.3042 14.9692 45.0955C15.6953 44.4977 16.4202 43.9757 17.0424 43.5778C17.6759 43.1727 18.1704 42.9173 18.4434 42.8271L18.1296 41.8776C17.7315 42.0092 17.1494 42.3224 16.5037 42.7353C15.8466 43.1555 15.0895 43.7011 14.3336 44.3235C12.8377 45.5551 11.283 47.1387 10.563 48.6858L11.4696 49.1078ZM18.4434 42.8271C19.1825 42.5828 21.2815 41.5438 24.1563 41.3958C26.9978 41.2496 30.579 41.9869 34.161 45.3776L34.8484 44.6514C31.0483 41.054 27.1915 40.2383 24.1049 40.3972C21.0517 40.5543 18.7327 41.6783 18.1296 41.8776L18.4434 42.8271ZM34.161 45.3776C39.9317 50.8404 41.4622 59.1084 41.4986 62.5456L42.4986 62.535C42.4605 58.9471 40.889 50.3696 34.8484 44.6514L34.161 45.3776ZM41.4996 62.5711C41.6105 64.3674 41.6827 67.2937 41.5384 70.2193C41.393 73.1656 41.0305 76.0352 40.307 77.7657L41.2296 78.1514C42.0272 76.2437 42.3917 73.2159 42.5372 70.2685C42.6836 67.3004 42.6105 64.3367 42.4977 62.5095L41.4996 62.5711ZM40.2814 77.8445C39.4308 81.4758 36.5535 90.0794 31.889 95.4907L32.6464 96.1436C37.4668 90.5514 40.3908 81.7622 41.2551 78.0726L40.2814 77.8445ZM31.889 95.4907C25.961 102.368 18.9699 109.587 13.3225 113.142L13.8551 113.988C19.6422 110.346 26.7183 103.021 32.6464 96.1436L31.889 95.4907ZM13.3225 113.142C10.4095 114.975 8.78348 116.059 7.62388 116.821C6.46733 117.581 5.78498 118.014 4.74504 118.557L5.20776 119.443C6.29298 118.877 7.00874 118.422 8.17307 117.657C9.33434 116.894 10.9519 115.815 13.8551 113.988L13.3225 113.142Z" fill="black"/>
<ellipse cx="66.4852" cy="47.1558" rx="6.51452" ry="6.49758" fill="black"/>
<ellipse cx="66.4852" cy="71.647" rx="6.51452" ry="6.49758" fill="black"/>
<path d="M93.4754 37V68.0906C93.4754 68.0906 93.4754 70.1864 93.4754 74.3778C96.3316 71.6927 99.537 70.3173 103.091 70.2518C105.313 70.2519 107.217 71.2015 108.804 73.1007C110.2 74.869 110.93 76.8337 110.994 78.9949C111.057 80.6977 110.645 82.6624 109.756 84.8891C109.439 85.806 108.74 86.7884 107.661 87.8363C106.836 88.6222 105.979 89.4408 105.091 90.2922C100.394 93.8287 95.6969 97.398 91 101V37H93.4754ZM101.187 76.539C100.426 75.6221 99.4418 75.1637 98.2358 75.1637C96.7125 75.1637 95.4748 76.0478 94.5227 77.8161C93.8245 79.1914 93.4754 82.4332 93.4754 87.5415V95.9899C93.5389 96.2519 95.3161 94.6473 98.8071 91.1763C100.711 89.3426 101.949 87.1813 102.52 84.6927C102.774 83.7103 102.901 82.7279 102.901 81.7456C102.901 79.5844 102.33 77.8488 101.187 76.539Z" fill="#1C1A1A"/>
<path d="M117.475 0V31.0906C117.475 31.0906 117.475 33.1864 117.475 37.3778C120.332 34.6927 123.537 33.3173 127.091 33.2518C129.313 33.2519 131.217 34.2015 132.804 36.1007C134.2 37.869 134.93 39.8337 134.994 41.9949C135.057 43.6977 134.645 45.6624 133.756 47.8891C133.439 48.806 132.74 49.7884 131.661 50.8363C130.836 51.6222 129.979 52.4408 129.091 53.2922C124.394 56.8287 119.697 60.398 115 64V0H117.475ZM125.187 39.539C124.426 38.6221 123.442 38.1637 122.236 38.1637C120.712 38.1637 119.475 39.0478 118.523 40.8161C117.824 42.1914 117.475 45.4332 117.475 50.5415V58.9899C117.539 59.2519 119.316 57.6473 122.807 54.1763C124.711 52.3426 125.949 50.1813 126.52 47.6927C126.774 46.7103 126.901 45.7279 126.901 44.7456C126.901 42.5844 126.33 40.8488 125.187 39.539Z" fill="#1C1A1A"/>
</svg>
