<svg width="736" height="166" viewBox="0 0 736 166" fill="none" xmlns="http://www.w3.org/2000/svg">
<line y1="28.5" x2="736" y2="28.5" stroke="#1C1A1A"/>
<line y1="53.5" x2="736" y2="53.5" stroke="#1C1A1A"/>
<line y1="78.5" x2="736" y2="78.5" stroke="#1C1A1A"/>
<line y1="103.5" x2="736" y2="103.5" stroke="#1C1A1A"/>
<line y1="128.5" x2="736" y2="128.5" stroke="#1C1A1A"/>
<path d="M33.0196 91.6936C30.4448 92.5402 28.317 93.9688 26.636 95.9805C24.9547 97.9912 23.9303 100.188 23.5625 102.57C23.1947 104.951 23.4969 107.306 24.4688 109.635C25.4407 111.964 27.2664 113.843 29.9456 115.272C30.5761 115.272 30.9699 115.537 31.128 116.066C31.2852 116.595 31.0485 116.859 30.419 116.859C27.8443 116.33 25.5852 115.245 23.6414 113.605C20.0163 110.588 18.02 106.698 17.6522 101.935C17.4421 99.5531 17.6653 97.2509 18.3221 95.0277C18.9787 92.8046 19.885 90.7669 21.0408 88.9144C22.4592 86.9568 24.1404 85.2627 26.0843 83.834C26.1893 83.7279 26.4915 83.4904 26.9905 83.1197C27.4896 82.749 27.9755 82.4054 28.4484 82.0878C28.9213 81.7702 29.6304 81.2673 30.5761 80.579L27.6604 66.4479C25.0861 68.6179 22.5381 71.0123 20.0164 73.6322C17.4946 76.252 15.2092 79.0181 13.1603 81.9285C11.1115 84.8399 9.46968 87.9226 8.23502 91.1776C7.00047 94.4326 6.38319 97.859 6.38319 101.459C6.38319 104.793 7.07923 107.929 8.47151 110.866C9.86369 113.803 11.7156 116.357 14.0272 118.526C16.3388 120.696 19.005 122.403 22.0258 123.648C25.0467 124.891 28.1069 125.513 31.2066 125.513C31.312 125.513 31.7973 125.46 32.6645 125.354C33.5317 125.249 34.4506 125.116 35.4222 124.957C36.3948 124.799 37.2879 124.626 38.1024 124.441C38.9159 124.256 39.3236 124.057 39.3236 123.846L38.8502 121.623C36.8016 111.197 34.8574 101.22 33.0196 91.6936ZM35.7773 91.376L42.2394 122.893C45.9697 121.464 48.4907 119.016 49.8045 115.55C51.1182 112.083 51.4195 108.564 50.7104 104.991C50.0014 101.419 48.3336 98.2557 45.7062 95.5036C43.0798 92.7515 39.7701 91.376 35.7773 91.376ZM27.5028 48.9034C29.1311 48.0559 30.6417 46.7865 32.034 45.0924C33.4263 43.3993 34.7132 41.5859 35.8956 39.6543C37.077 37.7228 38.1024 35.7511 38.9686 33.7394C39.8357 31.7287 40.5319 29.9033 41.057 28.2623C41.6348 26.516 42.0286 24.5574 42.2394 22.3874C42.4493 20.2174 42.1081 18.392 41.2151 16.9093C40.5846 15.5868 39.7572 14.8194 38.7329 14.607C37.7076 14.3956 36.6832 14.4748 35.6589 14.8455C34.6346 15.2161 33.663 15.8112 32.7431 16.6318C31.8242 17.4523 31.1539 18.1796 30.7342 18.8148C29.5776 20.8786 28.5663 23.1809 27.6998 25.7216C26.8329 28.2623 26.2418 30.8951 25.9267 33.6212C25.6114 36.3462 25.5721 38.9661 25.8085 41.4807C26.0448 43.9944 26.6096 46.4689 27.5028 48.9034ZM25.1387 51.364C24.2455 47.8715 23.4575 44.4442 22.7745 41.083C22.0915 37.7228 21.7501 34.2694 21.7501 30.7228C21.7501 28.13 21.9339 25.2848 22.3017 22.189C22.6694 19.0933 23.3392 16.0757 24.3112 13.1383C25.2831 10.2009 26.6227 7.568 28.3302 5.23969C30.0381 2.91038 32.3095 1.21725 35.1468 0.158293C35.4093 0.0530982 35.6718 0 35.9344 0C36.3023 0 36.7359 0.211391 37.2352 0.635175C37.7344 1.05796 38.2595 1.68011 38.8114 2.50062C39.3624 3.32114 39.8487 4.16771 40.2693 5.04132C40.689 5.91394 41.0043 6.51004 41.2151 6.82763C42.6332 9.52662 43.6705 12.3979 44.3278 15.4406C44.9842 18.4842 45.3651 21.5138 45.4705 24.5304C45.6803 29.0828 45.4307 33.5811 44.7216 38.0273C44.0126 42.4725 42.5805 46.8126 40.4265 51.0464C39.6915 52.3168 38.9427 53.6001 38.1809 54.8965C37.4192 56.1939 36.5132 57.4502 35.462 58.6675C35.2522 58.8799 34.8713 59.2636 34.3193 59.8186C33.7674 60.3747 33.2025 60.9437 32.6247 61.5258C32.0469 62.1079 31.5348 62.6509 31.0883 63.1528C30.6417 63.6557 30.419 63.9603 30.419 64.0665L33.6491 79.9438C33.6699 80.048 35.2651 79.9438 35.2651 79.9438C38.348 79.9829 41.6119 80.4859 44.4462 81.6109C47.178 82.8813 49.529 84.6275 51.4991 86.8506C53.4691 89.0737 55.0444 91.5744 56.2268 94.3525C57.4093 97.1316 58 99.9498 58 102.808C58 105.665 57.5793 108.577 56.739 111.54C54.5849 117.151 51.144 121.305 46.4162 124.004C45.8902 124.322 45.1413 124.68 44.1697 125.076C43.1981 125.473 42.8172 126.095 43.027 126.942C44.2881 132.708 45.1413 136.676 45.5888 138.85C46.0354 141.024 46.3635 143.829 46.5734 147.265C46.7832 150.551 46.2183 153.507 44.8788 156.152C43.5392 158.807 41.7402 160.961 39.4807 162.624C37.2222 164.297 35.1597 165.269 33.295 165.569C31.4294 165.86 30.1554 166 29.4732 166C27.1087 166 24.7972 165.549 22.5381 164.648C19.7536 163.596 17.4158 161.983 15.5245 159.809C13.6332 157.635 12.6875 154.99 12.6875 151.874C12.6875 149.91 13.2523 147.897 14.3818 145.833C15.5114 143.769 16.9955 142.286 18.8342 141.395C20.8832 140.333 22.7351 140.042 24.39 140.513C26.0448 140.994 27.4108 141.895 28.4878 143.218C29.5647 144.54 30.3136 146.143 30.7342 148.017C31.1539 149.9 31.128 151.653 30.6547 153.297C30.1823 154.94 29.2236 156.332 27.7786 157.464C26.3338 158.606 24.3243 159.117 21.7501 159.017C22.8007 160.921 24.2718 162.123 26.1631 162.624C28.0544 163.135 29.9983 163.165 31.9942 162.744C33.9912 162.323 35.8688 161.542 37.629 160.4C39.3892 159.268 40.7686 158.035 41.766 156.713C42.3965 155.761 42.8699 154.519 43.1852 152.986C43.5004 151.443 43.6844 149.85 43.7361 148.177C43.7888 146.514 43.7361 145.212 43.579 144.29C43.4209 143.358 43.1583 141.915 42.7904 139.962C41.2151 133.56 40.2166 129.533 39.796 127.89C39.5861 127.366 39.0213 127.193 38.1024 127.379C37.1825 127.564 36.4078 127.736 35.7773 127.89C31.2593 128.481 27.4765 128.21 24.4294 127.101C19.7011 125.831 15.5376 123.568 11.9389 120.313C8.34014 117.058 5.45067 113.115 3.27036 108.484C1.09015 103.853 0 100.334 0 97.9251C0 95.5177 0 93.9958 0 93.3607C0 89.0737 0.73552 85.0513 2.20656 81.2933C4.99092 75.4185 8.28763 70.0205 12.0965 65.0984C15.9054 60.1763 20.2528 55.5978 25.1387 51.364Z" fill="#1C1A1A"/>
<path d="M283.097 126.514C277.453 124.805 273 120.161 273 115.984C273 104.16 298.813 99.4812 309.473 109.372C321 120.069 302.188 132.295 283.097 126.514H283.097ZM300.315 123.544C303.455 118.829 300.453 109.486 295.013 107.048C287.025 103.467 282.129 109.569 285.456 118.959C287.757 125.453 297.119 128.343 300.315 123.544Z" fill="#1C1A1A"/>
<path d="M198.097 139.514C192.453 137.805 188 133.161 188 128.984C188 117.16 213.813 112.481 224.473 122.372C236 133.069 217.188 145.295 198.097 139.514H198.097ZM215.315 136.544C218.455 131.829 215.453 122.486 210.013 120.048C202.025 116.467 197.129 122.569 200.456 131.959C202.757 138.453 212.119 141.343 215.315 136.544Z" fill="#1C1A1A"/>
<path d="M113.097 151.514C107.453 149.805 103 145.161 103 140.984C103 129.16 128.813 124.481 139.473 134.372C151 145.069 132.188 157.295 113.097 151.514H113.097ZM130.315 148.544C133.455 143.829 130.453 134.486 125.013 132.048C117.025 128.467 112.129 134.569 115.456 143.959C117.757 150.453 127.119 153.343 130.315 148.544Z" fill="#1C1A1A"/>
<path d="M368.097 114.514C362.453 112.805 358 108.161 358 103.984C358 92.1601 383.813 87.4812 394.473 97.3725C406 108.069 387.188 120.295 368.097 114.514H368.097ZM385.315 111.544C388.455 106.829 385.453 97.486 380.013 95.0476C372.025 91.4667 367.129 97.5689 370.456 106.959C372.757 113.453 382.119 116.343 385.315 111.544Z" fill="#1C1A1A"/>
<path d="M698.097 64.5145C692.453 62.8054 688 58.1609 688 53.9836C688 42.1601 713.813 37.4812 724.473 47.3725C736 58.0687 717.188 70.2953 698.097 64.5145H698.097ZM715.315 61.5442C718.455 56.8287 715.453 47.486 710.013 45.0476C702.025 41.4667 697.129 47.5689 700.456 56.9586C702.757 63.4532 712.119 66.3425 715.315 61.5442Z" fill="#1C1A1A"/>
<path d="M623.097 76.5145C617.453 74.8054 613 70.1609 613 65.9836C613 54.1601 638.813 49.4812 649.473 59.3725C661 70.0687 642.188 82.2953 623.097 76.5145H623.097ZM640.315 73.5442C643.455 68.8287 640.453 59.486 635.013 57.0476C627.025 53.4667 622.129 59.5689 625.456 68.9586C627.757 75.4532 637.119 78.3425 640.315 73.5442Z" fill="#1C1A1A"/>
<path d="M538.097 89.5145C532.453 87.8054 528 83.1609 528 78.9836C528 67.1601 553.813 62.4812 564.473 72.3725C576 83.0687 557.188 95.2953 538.097 89.5145H538.097ZM555.315 86.5442C558.455 81.8287 555.453 72.486 550.013 70.0476C542.025 66.4667 537.129 72.5689 540.456 81.9586C542.757 88.4532 552.119 91.3425 555.315 86.5442Z" fill="#1C1A1A"/>
<path d="M453.097 101.514C447.453 99.8054 443 95.1609 443 90.9836C443 79.1601 468.813 74.4812 479.473 84.3725C491 95.0687 472.188 107.295 453.097 101.514H453.097ZM470.315 98.5442C473.455 93.8287 470.453 84.486 465.013 82.0476C457.025 78.4667 452.129 84.5689 455.456 93.9586C457.757 100.453 467.119 103.343 470.315 98.5442Z" fill="#1C1A1A"/>
<path d="M595.523 75.5005V58.6585L602.368 56.6821V73.4382L595.523 75.5005ZM609 71.426L604.294 72.8367V56.0806L609 54.7058V47.7456L604.294 49.1204V32H602.368V49.6396L595.523 51.6983V35.0505H593.706V52.332L589 53.7104V60.685L593.706 59.3101V76.0339L589 77.4052V84.3511L593.706 82.9762V100H595.523V82.3676L602.368 80.3984V96.9603H604.294V79.7754L609 78.397V71.426Z" fill="#1C1A1A"/>
<path d="M64.4754 31V62.0906C64.4754 62.0906 64.4754 64.1864 64.4754 68.3778C67.3316 65.6927 70.537 64.3173 74.0914 64.2518C76.3129 64.2519 78.2171 65.2015 79.8039 67.1007C81.2003 68.869 81.9302 70.8337 81.9937 72.9949C82.0571 74.6977 81.6446 76.6624 80.756 78.8891C80.4386 79.806 79.7404 80.7884 78.6614 81.8363C77.8362 82.6222 76.9794 83.4408 76.0908 84.2922C71.3938 87.8287 66.6969 91.398 62 95V31H64.4754ZM72.1872 70.539C71.4256 69.6221 70.4418 69.1637 69.2358 69.1637C67.7125 69.1637 66.4748 70.0478 65.5227 71.8161C64.8245 73.1914 64.4754 76.4332 64.4754 81.5415V89.9899C64.5389 90.2519 66.3161 88.6473 69.8071 85.1763C71.7112 83.3426 72.9489 81.1813 73.5202 78.6927C73.774 77.7103 73.901 76.7279 73.901 75.7456C73.901 73.5844 73.3297 71.8488 72.1872 70.539Z" fill="#1C1A1A"/>
</svg>
