<svg width="737" height="184" viewBox="0 0 737 184" fill="none" xmlns="http://www.w3.org/2000/svg">
<line x1="1" y1="46.5" x2="737" y2="46.5" stroke="#1C1A1A"/>
<line x1="1" y1="71.5" x2="737" y2="71.5" stroke="#1C1A1A"/>
<line x1="1" y1="96.5" x2="737" y2="96.5" stroke="#1C1A1A"/>
<line x1="1" y1="121.5" x2="737" y2="121.5" stroke="#1C1A1A"/>
<line x1="1" y1="146.5" x2="737" y2="146.5" stroke="#1C1A1A"/>
<path d="M289.097 94.5145C283.453 92.8054 279 88.1609 279 83.9836C279 72.1601 304.813 67.4812 315.473 77.3725C327 88.0687 308.188 100.295 289.097 94.5145H289.097ZM306.315 91.5442C309.455 86.8287 306.453 77.486 301.013 75.0476C293.025 71.4667 288.129 77.5689 291.456 86.9586C293.757 93.4532 303.119 96.3425 306.315 91.5442Z" fill="#1C1A1A"/>
<path d="M207.097 107.514C201.453 105.805 197 101.161 197 96.9836C197 85.1601 222.813 80.4812 233.473 90.3725C245 101.069 226.188 113.295 207.097 107.514H207.097ZM224.315 104.544C227.455 99.8287 224.453 90.486 219.013 88.0476C211.025 84.4667 206.129 90.5689 209.456 99.9586C211.757 106.453 221.119 109.343 224.315 104.544Z" fill="#1C1A1A"/>
<path d="M125.097 119.514C119.453 117.805 115 113.161 115 108.984C115 97.1601 140.813 92.4812 151.473 102.372C163 113.069 144.188 125.295 125.097 119.514H125.097ZM142.315 116.544C145.455 111.829 142.453 102.486 137.013 100.048C129.025 96.4667 124.129 102.569 127.456 111.959C129.757 118.453 139.119 121.343 142.315 116.544Z" fill="#1C1A1A"/>
<path d="M371.097 82.5145C365.453 80.8054 361 76.1609 361 71.9836C361 60.1601 386.813 55.4812 397.473 65.3725C409 76.0687 390.188 88.2953 371.097 82.5145H371.097ZM388.315 79.5442C391.455 74.8287 388.453 65.486 383.013 63.0476C375.025 59.4667 370.129 65.5689 373.456 74.9586C375.757 81.4532 385.119 84.3425 388.315 79.5442Z" fill="#1C1A1A"/>
<path d="M699.097 32.5145C693.453 30.8054 689 26.1609 689 21.9836C689 10.1601 714.813 5.48121 725.473 15.3725C737 26.0687 718.188 38.2953 699.097 32.5145H699.097ZM716.315 29.5442C719.455 24.8287 716.453 15.486 711.013 13.0476C703.025 9.46674 698.129 15.5689 701.456 24.9586C703.757 31.4532 713.119 34.3425 716.315 29.5442Z" fill="#1C1A1A"/>
<path d="M617.097 44.5145C611.453 42.8054 607 38.1609 607 33.9836C607 22.1601 632.813 17.4812 643.473 27.3725C655 38.0687 636.188 50.2953 617.097 44.5145H617.097ZM634.315 41.5442C637.455 36.8287 634.453 27.486 629.013 25.0476C621.025 21.4667 616.129 27.5689 619.456 36.9586C621.757 43.4532 631.119 46.3425 634.315 41.5442Z" fill="#1C1A1A"/>
<path d="M535.097 57.5145C529.453 55.8054 525 51.1609 525 46.9836C525 35.1601 550.813 30.4812 561.473 40.3725C573 51.0687 554.188 63.2953 535.097 57.5145H535.097ZM552.315 54.5442C555.455 49.8287 552.453 40.486 547.013 38.0476C539.025 34.4667 534.129 40.5689 537.456 49.9586C539.757 56.4532 549.119 59.3425 552.315 54.5442Z" fill="#1C1A1A"/>
<path d="M453.097 69.5145C447.453 67.8054 443 63.1609 443 58.9836C443 47.1601 468.813 42.4812 479.473 52.3725C491 63.0687 472.188 75.2953 453.097 69.5145H453.097ZM470.315 66.5442C473.455 61.8287 470.453 52.486 465.013 50.0476C457.025 46.4667 452.129 52.5689 455.456 61.9586C457.757 68.4532 467.119 71.3425 470.315 66.5442Z" fill="#1C1A1A"/>
<path d="M589.523 43.5005V26.6585L596.368 24.6821V41.4382L589.523 43.5005ZM603 39.426L598.294 40.8367V24.0806L603 22.7058V15.7456L598.294 17.1204V0H596.368V17.6396L589.523 19.6983V3.05046H587.706V20.332L583 21.7104V28.685L587.706 27.3101V44.0339L583 45.4052V52.3511L587.706 50.9762V68H589.523V50.3676L596.368 48.3984V64.9603H598.294V47.7754L603 46.397V39.426Z" fill="#1C1A1A"/>
<path d="M179.523 105.5V88.6585L186.368 86.6821V103.438L179.523 105.5ZM193 101.426L188.294 102.837V86.0806L193 84.7058V77.7456L188.294 79.1204V62H186.368V79.6396L179.523 81.6983V65.0505H177.706V82.332L173 83.7104V90.685L177.706 89.3101V106.034L173 107.405V114.351L177.706 112.976V130H179.523V112.368L186.368 110.398V126.96H188.294V109.775L193 108.397V101.426Z" fill="#1C1A1A"/>
<path d="M507.523 55.5005V38.6585L514.368 36.6821V53.4382L507.523 55.5005ZM521 51.426L516.294 52.8367V36.0806L521 34.7058V27.7456L516.294 29.1204V12H514.368V29.6396L507.523 31.6983V15.0505H505.706V32.332L501 33.7104V40.685L505.706 39.3101V56.0339L501 57.4052V64.3511L505.706 62.9762V80H507.523V62.3676L514.368 60.3984V76.9603H516.294V59.7754L521 58.397V51.426Z" fill="#1C1A1A"/>
<path d="M97.5229 117.5V100.658L104.368 98.6821V115.438L97.5229 117.5ZM111 113.426L106.294 114.837V98.0806L111 96.7058V89.7456L106.294 91.1204V74H104.368V91.6396L97.5229 93.6983V77.0505H95.7057V94.332L91 95.7104V102.685L95.7057 101.31V118.034L91 119.405V126.351L95.7057 124.976V142H97.5229V124.368L104.368 122.398V138.96H106.294V121.775L111 120.397V113.426Z" fill="#1C1A1A"/>
<line x1="677" y1="21.5" x2="737" y2="21.5" stroke="#1C1A1A"/>
<path d="M27.1226 120.24C24.7962 122.193 12.4703 129.891 4.9764 131C7.10156 129.891 7.77263 129.225 13.5888 125.565C19.306 121.967 26.3397 114.694 32.2677 107.817C37.0101 102.315 39.9108 93.619 40.7683 89.9586C42.2894 86.3203 42.2223 78.1638 41.9986 74.5403C41.9613 71.0278 40.4104 62.605 34.5047 57.0145C27.1226 50.0264 19.6287 53.9087 18.2865 54.3524C16.9443 54.7961 12.3585 58.0128 11.0163 60.8968C9.94251 63.204 10.5689 63.9287 11.0163 64.0026C15.273 62.117 19.3501 63.2001 21.8721 65.0009C24.6684 66.9976 27.0172 69.9925 26.7935 74.5403C26.6146 78.1786 24.824 80.8629 23.4818 82.194C20.6855 85.2998 16.1986 85.6326 13.7007 85.6326C7.66078 85.2998 3.86507 80.9743 3.07496 79.6428C2.74586 79.0881 -0.391563 74.0966 1.73276 65.4446C3.48062 58.326 10.1588 52.7625 13.477 50.9138C24.1027 45.4785 31.5966 46.7295 36.4062 48.5844C42.446 50.9138 49.9901 58.1237 51.8414 64.4463C53.6927 70.7689 54.6376 75.7605 53.5191 81.8612C52.4006 87.962 50.8348 92.177 45.1304 101.384C39.4261 110.59 30.0307 117.8 27.1226 120.24Z" fill="black"/>
<path d="M4.9764 131L4.74504 130.557C4.52868 130.67 4.42547 130.922 4.50085 131.154C4.57623 131.387 4.80818 131.53 5.04961 131.495L4.9764 131ZM27.1226 120.24L26.8012 119.857L27.1226 120.24ZM45.1304 101.384L45.5555 101.647L45.1304 101.384ZM51.8414 64.4463L52.3213 64.3058L51.8414 64.4463ZM36.4062 48.5844L36.5861 48.1179V48.1179L36.4062 48.5844ZM13.477 50.9138L13.2493 50.4686L13.2414 50.4727L13.2336 50.477L13.477 50.9138ZM1.73276 65.4446L2.21834 65.5639L1.73276 65.4446ZM3.07496 79.6428L2.64496 79.8979H2.64496L3.07496 79.6428ZM13.7007 85.6326L13.6732 86.1318L13.6869 86.1326H13.7007V85.6326ZM23.4818 82.194L23.1297 81.839L23.1196 81.8489L23.1102 81.8594L23.4818 82.194ZM26.7935 74.5403L26.2941 74.5157L26.7935 74.5403ZM21.8721 65.0009L22.1627 64.594L21.8721 65.0009ZM11.0163 64.0026L10.9347 64.496L11.0822 64.5203L11.2188 64.4598L11.0163 64.0026ZM11.0163 60.8968L11.4696 61.1078L11.0163 60.8968ZM18.2865 54.3524L18.4434 54.8271L18.2865 54.3524ZM34.5047 57.0145L34.161 57.3776L34.5047 57.0145ZM41.9986 74.5403L41.4986 74.5456L41.4988 74.5584L41.4996 74.5711L41.9986 74.5403ZM40.7683 89.9586L40.307 89.7657L40.2909 89.8041L40.2814 89.8445L40.7683 89.9586ZM32.2677 107.817L31.889 107.491L32.2677 107.817ZM13.5888 125.565L13.8551 125.988L13.5888 125.565ZM5.04961 131.495C8.8889 130.926 13.9096 128.687 18.2233 126.377C22.5423 124.065 26.2412 121.633 27.444 120.624L26.8012 119.857C25.6776 120.8 22.0503 123.194 17.7513 125.496C13.447 127.8 8.55782 129.964 4.90319 130.505L5.04961 131.495ZM27.444 120.624C30.3278 118.204 39.7992 110.937 45.5555 101.647L44.7054 101.12C39.053 110.243 29.7337 117.397 26.8012 119.857L27.444 120.624ZM45.5555 101.647C51.2815 92.4054 52.8779 88.1314 54.0109 81.9514L53.0273 81.771C51.9234 87.7925 50.388 91.9487 44.7054 101.12L45.5555 101.647ZM54.0109 81.9514C55.1504 75.7362 54.1803 70.655 52.3213 64.3058L51.3615 64.5868C53.205 70.8829 54.1249 75.7847 53.0273 81.771L54.0109 81.9514ZM52.3213 64.3058C51.3632 61.0339 48.9526 57.5806 46.0488 54.6651C43.1422 51.7467 39.689 49.3146 36.5861 48.1179L36.2262 49.0509C39.1631 50.1835 42.502 52.5211 45.3402 55.3707C48.1812 58.2231 50.4683 61.5362 51.3615 64.5868L52.3213 64.3058ZM36.5861 48.1179C31.6555 46.2163 24.0124 44.9631 13.2493 50.4686L13.7047 51.3589C24.1929 45.994 31.5377 47.2427 36.2262 49.0509L36.5861 48.1179ZM13.2336 50.477C11.5252 51.4288 8.98435 53.3161 6.64743 55.8651C4.31098 58.4136 2.14795 61.6568 1.24718 65.3254L2.21834 65.5639C3.06543 62.1138 5.11541 59.0159 7.38454 56.5408C9.65322 54.0663 12.1106 52.2474 13.7203 51.3505L13.2336 50.477ZM1.24718 65.3254C-0.921034 74.1562 2.2821 79.2864 2.64496 79.8979L3.50495 79.3876C3.20962 78.8899 0.137908 74.0371 2.21834 65.5639L1.24718 65.3254ZM2.64496 79.8979C3.07914 80.6296 4.27552 82.0937 6.12826 83.4189C7.98869 84.7496 10.5371 85.959 13.6732 86.1318L13.7282 85.1333C10.8244 84.9734 8.45496 83.8536 6.71003 82.6055C4.95742 81.3519 3.86089 79.9874 3.50495 79.3876L2.64496 79.8979ZM13.7007 86.1326C16.2027 86.1326 20.8984 85.8107 23.8534 82.5285L23.1102 81.8594C20.4727 84.7889 16.1946 85.1326 13.7007 85.1326V86.1326ZM23.8339 82.549C25.2438 81.1507 27.1065 78.3543 27.2929 74.5649L26.2941 74.5157C26.1226 78.0028 24.4041 80.5751 23.1297 81.839L23.8339 82.549ZM27.2929 74.5649C27.5276 69.7942 25.0481 66.6543 22.1627 64.594L21.5816 65.4079C24.2887 67.3408 26.5069 70.1907 26.2941 74.5157L27.2929 74.5649ZM22.1627 64.594C19.5206 62.7075 15.2573 61.5771 10.8138 63.5455L11.2188 64.4598C15.2888 62.6568 19.1796 63.6928 21.5816 65.4079L22.1627 64.594ZM11.0978 63.5093C11.097 63.5092 11.0748 63.5052 11.0451 63.4727C11.0162 63.4412 10.9654 63.3659 10.9393 63.2065C10.8847 62.8729 10.9497 62.2249 11.4696 61.1078L10.563 60.6858C10.0091 61.876 9.85035 62.7439 9.95239 63.3679C10.0595 64.0228 10.466 64.4185 10.9347 64.496L11.0978 63.5093ZM11.4696 61.1078C12.0918 59.7709 13.5011 58.3042 14.9692 57.0955C15.6953 56.4977 16.4202 55.9757 17.0424 55.5778C17.6759 55.1727 18.1704 54.9173 18.4434 54.8271L18.1296 53.8776C17.7315 54.0092 17.1494 54.3224 16.5037 54.7353C15.8466 55.1555 15.0895 55.7011 14.3336 56.3235C12.8377 57.5551 11.283 59.1387 10.563 60.6858L11.4696 61.1078ZM18.4434 54.8271C19.1825 54.5828 21.2815 53.5438 24.1563 53.3958C26.9978 53.2496 30.579 53.9869 34.161 57.3776L34.8484 56.6514C31.0483 53.054 27.1915 52.2383 24.1049 52.3972C21.0517 52.5543 18.7327 53.6783 18.1296 53.8776L18.4434 54.8271ZM34.161 57.3776C39.9317 62.8404 41.4622 71.1084 41.4986 74.5456L42.4986 74.535C42.4605 70.9471 40.889 62.3696 34.8484 56.6514L34.161 57.3776ZM41.4996 74.5711C41.6105 76.3674 41.6827 79.2937 41.5384 82.2193C41.393 85.1656 41.0305 88.0352 40.307 89.7657L41.2296 90.1514C42.0272 88.2437 42.3917 85.2159 42.5372 82.2685C42.6836 79.3004 42.6105 76.3367 42.4977 74.5095L41.4996 74.5711ZM40.2814 89.8445C39.4308 93.4758 36.5535 102.079 31.889 107.491L32.6464 108.144C37.4668 102.551 40.3908 93.7622 41.2551 90.0726L40.2814 89.8445ZM31.889 107.491C25.961 114.368 18.9699 121.587 13.3225 125.142L13.8551 125.988C19.6422 122.346 26.7183 115.021 32.6464 108.144L31.889 107.491ZM13.3225 125.142C10.4095 126.975 8.78348 128.059 7.62388 128.821C6.46733 129.581 5.78498 130.014 4.74504 130.557L5.20776 131.443C6.29298 130.877 7.00874 130.422 8.17307 129.657C9.33434 128.894 10.9519 127.815 13.8551 125.988L13.3225 125.142Z" fill="black"/>
<ellipse cx="66.4852" cy="59.1558" rx="6.51452" ry="6.49758" fill="black"/>
<ellipse cx="66.4852" cy="83.647" rx="6.51452" ry="6.49758" fill="black"/>
</svg>
