<svg width="866.7" height="196" viewBox="0 0 866.7 196" fill="none" xmlns="http://www.w3.org/2000/svg">
<line x1="1" y1="59.5" x2="866.7" y2="59.5" stroke="#1C1A1A"/>
<line x1="1" y1="84.5" x2="866.7" y2="84.5" stroke="#1C1A1A"/>
<line x1="1" y1="109.5" x2="866.7" y2="109.5" stroke="#1C1A1A"/>
<line x1="1" y1="134.5" x2="866.7" y2="134.5" stroke="#1C1A1A"/>
<line x1="1" y1="159.5" x2="866.7" y2="159.5" stroke="#1C1A1A"/>
<path d="M364.097 94.5145C358.453 92.8054 354 88.1609 354 83.9836C354 72.1601 379.813 67.4812 390.473 77.3725C402 88.0687 383.188 100.295 364.097 94.5145H364.097ZM381.315 91.5442C384.455 86.8287 381.453 77.486 376.013 75.0476C368.025 71.4667 363.129 77.5689 366.456 86.9586C368.757 93.4532 378.119 96.3425 381.315 91.5442Z" fill="#1C1A1A"/>
<path d="M297.097 107.514C291.453 105.805 287 101.161 287 96.9836C287 85.1601 312.813 80.4812 323.473 90.3725C335 101.069 316.188 113.295 297.097 107.514H297.097ZM314.315 104.544C317.455 99.8287 314.453 90.486 309.013 88.0476C301.025 84.4667 296.129 90.5689 299.456 99.9586C301.757 106.453 311.119 109.343 314.315 104.544Z" fill="#1C1A1A"/>
<path d="M230.097 119.514C224.453 117.805 220 113.161 220 108.984C220 97.1601 245.813 92.4812 256.473 102.372C268 113.069 249.188 125.295 230.097 119.514H230.097ZM247.315 116.544C250.455 111.829 247.453 102.486 242.013 100.048C234.025 96.4667 229.129 102.569 232.456 111.959C234.757 118.453 244.119 121.343 247.315 116.544Z" fill="#1C1A1A"/>
<path d="M431.097 82.5145C425.453 80.8054 421 76.1609 421 71.9836C421 60.1601 446.813 55.4812 457.473 65.3725C469 76.0687 450.188 88.2953 431.097 82.5145H431.097ZM448.315 79.5442C451.455 74.8287 448.453 65.486 443.013 63.0476C435.025 59.4667 430.129 65.5689 433.456 74.9586C435.757 81.4532 445.119 84.3425 448.315 79.5442Z" fill="#1C1A1A"/>
<path d="M699.097 32.5145C693.453 30.8054 689 26.1609 689 21.9836C689 10.1601 714.813 5.48121 725.473 15.3725C737 26.0687 718.188 38.2953 699.097 32.5145H699.097ZM716.315 29.5442C719.455 24.8287 716.453 15.486 711.013 13.0476C703.025 9.46674 698.129 15.5689 701.456 24.9586C703.757 31.4532 713.119 34.3425 716.315 29.5442Z" fill="#1C1A1A"/>
<path d="M632.097 44.5145C626.453 42.8054 622 38.1609 622 33.9836C622 22.1601 647.813 17.4812 658.473 27.3725C670 38.0687 651.188 50.2953 632.097 44.5145H632.097ZM649.315 41.5442C652.455 36.8287 649.453 27.486 644.013 25.0476C636.025 21.4667 631.129 27.5689 634.456 36.9586C636.757 43.4532 646.119 46.3425 649.315 41.5442Z" fill="#1C1A1A"/>
<path d="M565.097 57.5145C559.453 55.8054 555 51.1609 555 46.9836C555 35.1601 580.813 30.4812 591.473 40.3725C603 51.0687 584.188 63.2953 565.097 57.5145H565.097ZM582.315 54.5442C585.455 49.8287 582.453 40.486 577.013 38.0476C569.025 34.4667 564.129 40.5689 567.456 49.9586C569.757 56.4532 579.119 59.3425 582.315 54.5442Z" fill="#1C1A1A"/>
<path d="M498.097 69.5145C492.453 67.8054 488 63.1609 488 58.9836C488 47.1601 513.813 42.4812 524.473 52.3725C536 63.0687 517.188 75.2953 498.097 69.5145H498.097ZM515.315 66.5442C518.455 61.8287 515.453 52.486 510.013 50.0476C502.025 46.4667 497.129 52.5689 500.456 61.9586C502.757 68.4532 512.119 71.3425 515.315 66.5442Z" fill="#1C1A1A"/>
<path d="M617.491 16.3999V67.0178H614.734V48.0472L600 51.2385V0H602.65V19.7685L617.491 16.3999ZM602.65 28.2787V42.1964L614.734 39.537V25.6192L602.65 28.2787Z" fill="black"/>
<path d="M93.4754 63V94.0906C93.4754 94.0906 93.4754 96.1864 93.4754 100.378C96.3316 97.6927 99.537 96.3173 103.091 96.2518C105.313 96.2519 107.217 97.2015 108.804 99.1007C110.2 100.869 110.93 102.834 110.994 104.995C111.057 106.698 110.645 108.662 109.756 110.889C109.439 111.806 108.74 112.788 107.661 113.836C106.836 114.622 105.979 115.441 105.091 116.292C100.394 119.829 95.6969 123.398 91 127V63H93.4754ZM101.187 102.539C100.426 101.622 99.4418 101.164 98.2358 101.164C96.7125 101.164 95.4748 102.048 94.5227 103.816C93.8245 105.191 93.4754 108.433 93.4754 113.542V121.99C93.5389 122.252 95.3161 120.647 98.8071 117.176C100.711 115.343 101.949 113.181 102.52 110.693C102.774 109.71 102.901 108.728 102.901 107.746C102.901 105.584 102.33 103.849 101.187 102.539Z" fill="#1C1A1A"/>
<path d="M117.475 26V57.0906C117.475 57.0906 117.475 59.1864 117.475 63.3778C120.332 60.6927 123.537 59.3173 127.091 59.2518C129.313 59.2519 131.217 60.2015 132.804 62.1007C134.2 63.869 134.93 65.8337 134.994 67.9949C135.057 69.6977 134.645 71.6624 133.756 73.8891C133.439 74.806 132.74 75.7884 131.661 76.8363C130.836 77.6222 129.979 78.4408 129.091 79.2922C124.394 82.8287 119.697 86.398 115 90V26H117.475ZM125.187 65.539C124.426 64.6221 123.442 64.1637 122.236 64.1637C120.712 64.1637 119.475 65.0478 118.523 66.8161C117.824 68.1914 117.475 71.4332 117.475 76.5415V84.9899C117.539 85.2519 119.316 83.6473 122.807 80.1763C124.711 78.3426 125.949 76.1813 126.52 73.6927C126.774 72.7103 126.901 71.7279 126.901 70.7456C126.901 68.5844 126.33 66.8488 125.187 65.539Z" fill="#1C1A1A"/>
<path d="M141.475 76V107.091C141.475 107.091 141.475 109.186 141.475 113.378C144.332 110.693 147.537 109.317 151.091 109.252C153.313 109.252 155.217 110.201 156.804 112.101C158.2 113.869 158.93 115.834 158.994 117.995C159.057 119.698 158.645 121.662 157.756 123.889C157.439 124.806 156.74 125.788 155.661 126.836C154.836 127.622 153.979 128.441 153.091 129.292C148.394 132.829 143.697 136.398 139 140V76H141.475ZM149.187 115.539C148.426 114.622 147.442 114.164 146.236 114.164C144.712 114.164 143.475 115.048 142.523 116.816C141.824 118.191 141.475 121.433 141.475 126.542V134.99C141.539 135.252 143.316 133.647 146.807 130.176C148.711 128.343 149.949 126.181 150.52 123.693C150.774 122.71 150.901 121.728 150.901 120.746C150.901 118.584 150.33 116.849 149.187 115.539Z" fill="#1C1A1A"/>
<path d="M165.475 40V71.0906C165.475 71.0906 165.475 73.1864 165.475 77.3778C168.332 74.6927 171.537 73.3173 175.091 73.2518C177.313 73.2519 179.217 74.2015 180.804 76.1007C182.2 77.869 182.93 79.8337 182.994 81.9949C183.057 83.6977 182.645 85.6624 181.756 87.8891C181.439 88.806 180.74 89.7884 179.661 90.8363C178.836 91.6222 177.979 92.4408 177.091 93.2922C172.394 96.8287 167.697 100.398 163 104V40H165.475ZM173.187 79.539C172.426 78.6221 171.442 78.1637 170.236 78.1637C168.712 78.1637 167.475 79.0478 166.523 80.8161C165.824 82.1914 165.475 85.4332 165.475 90.5415V98.9899C165.539 99.2519 167.316 97.6473 170.807 94.1763C172.711 92.3426 173.949 90.1813 174.52 87.6927C174.774 86.7103 174.901 85.7279 174.901 84.7456C174.901 82.5844 174.33 80.8488 173.187 79.539Z" fill="#1C1A1A"/>
<path d="M189.475 87V118.091C189.475 118.091 189.475 120.186 189.475 124.378C192.332 121.693 195.537 120.317 199.091 120.252C201.313 120.252 203.217 121.201 204.804 123.101C206.2 124.869 206.93 126.834 206.994 128.995C207.057 130.698 206.645 132.662 205.756 134.889C205.439 135.806 204.74 136.788 203.661 137.836C202.836 138.622 201.979 139.441 201.091 140.292C196.394 143.829 191.697 147.398 187 151V87H189.475ZM197.187 126.539C196.426 125.622 195.442 125.164 194.236 125.164C192.712 125.164 191.475 126.048 190.523 127.816C189.824 129.191 189.475 132.433 189.475 137.542V145.99C189.539 146.252 191.316 144.647 194.807 141.176C196.711 139.343 197.949 137.181 198.52 134.693C198.774 133.71 198.901 132.728 198.901 131.746C198.901 129.584 198.33 127.849 197.187 126.539Z" fill="#1C1A1A"/>
<line x1="684" y1="34.5" x2="734" y2="34.5" stroke="#1C1A1A"/>
<line x1="617" y1="34.5" x2="667" y2="34.5" stroke="#1C1A1A"/>
<path d="M27.1226 133.24C24.7962 135.193 12.4703 142.891 4.9764 144C7.10156 142.891 7.77263 142.225 13.5888 138.565C19.306 134.967 26.3397 127.694 32.2677 120.817C37.0101 115.315 39.9108 106.619 40.7683 102.959C42.2894 99.3203 42.2223 91.1638 41.9986 87.5403C41.9613 84.0278 40.4104 75.605 34.5047 70.0145C27.1226 63.0264 19.6287 66.9087 18.2865 67.3524C16.9443 67.7961 12.3585 71.0128 11.0163 73.8968C9.94251 76.204 10.5689 76.9287 11.0163 77.0026C15.273 75.117 19.3501 76.2001 21.8721 78.0009C24.6684 79.9976 27.0172 82.9925 26.7935 87.5403C26.6146 91.1786 24.824 93.8629 23.4818 95.194C20.6855 98.2998 16.1986 98.6326 13.7007 98.6326C7.66078 98.2998 3.86507 93.9743 3.07496 92.6428C2.74586 92.0881 -0.391563 87.0966 1.73276 78.4446C3.48062 71.326 10.1588 65.7625 13.477 63.9138C24.1027 58.4785 31.5966 59.7295 36.4062 61.5844C42.446 63.9138 49.9901 71.1237 51.8414 77.4463C53.6927 83.7689 54.6376 88.7605 53.5191 94.8612C52.4006 100.962 50.8348 105.177 45.1304 114.384C39.4261 123.59 30.0307 130.8 27.1226 133.24Z" fill="black"/>
<path d="M4.9764 144L4.74504 143.557C4.52868 143.67 4.42547 143.922 4.50085 144.154C4.57623 144.387 4.80818 144.53 5.04961 144.495L4.9764 144ZM27.1226 133.24L26.8012 132.857L27.1226 133.24ZM45.1304 114.384L45.5555 114.647L45.1304 114.384ZM51.8414 77.4463L52.3213 77.3058L51.8414 77.4463ZM36.4062 61.5844L36.5861 61.1179V61.1179L36.4062 61.5844ZM13.477 63.9138L13.2493 63.4686L13.2414 63.4727L13.2336 63.477L13.477 63.9138ZM1.73276 78.4446L2.21834 78.5639L1.73276 78.4446ZM3.07496 92.6428L2.64496 92.8979H2.64496L3.07496 92.6428ZM13.7007 98.6326L13.6732 99.1318L13.6869 99.1326H13.7007V98.6326ZM23.4818 95.194L23.1297 94.839L23.1196 94.8489L23.1102 94.8594L23.4818 95.194ZM26.7935 87.5403L26.2941 87.5157L26.7935 87.5403ZM21.8721 78.0009L22.1627 77.594L21.8721 78.0009ZM11.0163 77.0026L10.9347 77.496L11.0822 77.5203L11.2188 77.4598L11.0163 77.0026ZM11.0163 73.8968L11.4696 74.1078L11.0163 73.8968ZM18.2865 67.3524L18.4434 67.8271L18.2865 67.3524ZM34.5047 70.0145L34.161 70.3776L34.5047 70.0145ZM41.9986 87.5403L41.4986 87.5456L41.4988 87.5584L41.4996 87.5711L41.9986 87.5403ZM40.7683 102.959L40.307 102.766L40.2909 102.804L40.2814 102.845L40.7683 102.959ZM32.2677 120.817L31.889 120.491L32.2677 120.817ZM13.5888 138.565L13.8551 138.988L13.5888 138.565ZM5.04961 144.495C8.8889 143.926 13.9096 141.687 18.2233 139.377C22.5423 137.065 26.2412 134.633 27.444 133.624L26.8012 132.857C25.6776 133.8 22.0503 136.194 17.7513 138.496C13.447 140.8 8.55782 142.964 4.90319 143.505L5.04961 144.495ZM27.444 133.624C30.3278 131.204 39.7992 123.937 45.5555 114.647L44.7054 114.12C39.053 123.243 29.7337 130.397 26.8012 132.857L27.444 133.624ZM45.5555 114.647C51.2815 105.405 52.8779 101.131 54.0109 94.9514L53.0273 94.771C51.9234 100.792 50.388 104.949 44.7054 114.12L45.5555 114.647ZM54.0109 94.9514C55.1504 88.7362 54.1803 83.655 52.3213 77.3058L51.3615 77.5868C53.205 83.8829 54.1249 88.7847 53.0273 94.771L54.0109 94.9514ZM52.3213 77.3058C51.3632 74.0339 48.9526 70.5806 46.0488 67.6651C43.1422 64.7467 39.689 62.3146 36.5861 61.1179L36.2262 62.0509C39.1631 63.1835 42.502 65.5211 45.3402 68.3707C48.1812 71.2231 50.4683 74.5362 51.3615 77.5868L52.3213 77.3058ZM36.5861 61.1179C31.6555 59.2163 24.0124 57.9631 13.2493 63.4686L13.7047 64.3589C24.1929 58.994 31.5377 60.2427 36.2262 62.0509L36.5861 61.1179ZM13.2336 63.477C11.5252 64.4288 8.98435 66.3161 6.64743 68.8651C4.31098 71.4136 2.14795 74.6568 1.24718 78.3254L2.21834 78.5639C3.06543 75.1138 5.11541 72.0159 7.38454 69.5408C9.65322 67.0663 12.1106 65.2474 13.7203 64.3505L13.2336 63.477ZM1.24718 78.3254C-0.921034 87.1562 2.2821 92.2864 2.64496 92.8979L3.50495 92.3876C3.20962 91.8899 0.137908 87.0371 2.21834 78.5639L1.24718 78.3254ZM2.64496 92.8979C3.07914 93.6296 4.27552 95.0937 6.12826 96.4189C7.98869 97.7496 10.5371 98.959 13.6732 99.1318L13.7282 98.1333C10.8244 97.9734 8.45496 96.8536 6.71003 95.6055C4.95742 94.3519 3.86089 92.9874 3.50495 92.3876L2.64496 92.8979ZM13.7007 99.1326C16.2027 99.1326 20.8984 98.8107 23.8534 95.5285L23.1102 94.8594C20.4727 97.7889 16.1946 98.1326 13.7007 98.1326V99.1326ZM23.8339 95.549C25.2438 94.1507 27.1065 91.3543 27.2929 87.5649L26.2941 87.5157C26.1226 91.0028 24.4041 93.5751 23.1297 94.839L23.8339 95.549ZM27.2929 87.5649C27.5276 82.7942 25.0481 79.6543 22.1627 77.594L21.5816 78.4079C24.2887 80.3408 26.5069 83.1907 26.2941 87.5157L27.2929 87.5649ZM22.1627 77.594C19.5206 75.7075 15.2573 74.5771 10.8138 76.5455L11.2188 77.4598C15.2888 75.6568 19.1796 76.6928 21.5816 78.4079L22.1627 77.594ZM11.0978 76.5093C11.097 76.5092 11.0748 76.5052 11.0451 76.4727C11.0162 76.4412 10.9654 76.3659 10.9393 76.2065C10.8847 75.8729 10.9497 75.2249 11.4696 74.1078L10.563 73.6858C10.0091 74.876 9.85035 75.7439 9.95239 76.3679C10.0595 77.0228 10.466 77.4185 10.9347 77.496L11.0978 76.5093ZM11.4696 74.1078C12.0918 72.7709 13.5011 71.3042 14.9692 70.0955C15.6953 69.4977 16.4202 68.9757 17.0424 68.5778C17.6759 68.1727 18.1704 67.9173 18.4434 67.8271L18.1296 66.8776C17.7315 67.0092 17.1494 67.3224 16.5037 67.7353C15.8466 68.1555 15.0895 68.7011 14.3336 69.3235C12.8377 70.5551 11.283 72.1387 10.563 73.6858L11.4696 74.1078ZM18.4434 67.8271C19.1825 67.5828 21.2815 66.5438 24.1563 66.3958C26.9978 66.2496 30.579 66.9869 34.161 70.3776L34.8484 69.6514C31.0483 66.054 27.1915 65.2383 24.1049 65.3972C21.0517 65.5543 18.7327 66.6783 18.1296 66.8776L18.4434 67.8271ZM34.161 70.3776C39.9317 75.8404 41.4622 84.1084 41.4986 87.5456L42.4986 87.535C42.4605 83.9471 40.889 75.3696 34.8484 69.6514L34.161 70.3776ZM41.4996 87.5711C41.6105 89.3674 41.6827 92.2937 41.5384 95.2193C41.393 98.1656 41.0305 101.035 40.307 102.766L41.2296 103.151C42.0272 101.244 42.3917 98.2159 42.5372 95.2685C42.6836 92.3004 42.6105 89.3367 42.4977 87.5095L41.4996 87.5711ZM40.2814 102.845C39.4308 106.476 36.5535 115.079 31.889 120.491L32.6464 121.144C37.4668 115.551 40.3908 106.762 41.2551 103.073L40.2814 102.845ZM31.889 120.491C25.961 127.368 18.9699 134.587 13.3225 138.142L13.8551 138.988C19.6422 135.346 26.7183 128.021 32.6464 121.144L31.889 120.491ZM13.3225 138.142C10.4095 139.975 8.78348 141.059 7.62388 141.821C6.46733 142.581 5.78498 143.014 4.74504 143.557L5.20776 144.443C6.29298 143.877 7.00874 143.422 8.17307 142.657C9.33434 141.894 10.9519 140.815 13.8551 138.988L13.3225 138.142Z" fill="black"/>
<ellipse cx="66.4852" cy="72.1558" rx="6.51452" ry="6.49758" fill="black"/>
<ellipse cx="66.4852" cy="96.647" rx="6.51452" ry="6.49758" fill="black"/>
</svg>
