<svg width="742" height="184" viewBox="0 0 742 184" fill="none" xmlns="http://www.w3.org/2000/svg">
<line y1="46.5" x2="742" y2="46.5" stroke="#1C1A1A"/>
<line y1="71.5" x2="742" y2="71.5" stroke="#1C1A1A"/>
<line y1="96.5" x2="742" y2="96.5" stroke="#1C1A1A"/>
<line y1="121.5" x2="742" y2="121.5" stroke="#1C1A1A"/>
<line y1="146.5" x2="742" y2="146.5" stroke="#1C1A1A"/>
<path d="M33.0196 109.694C30.4448 110.54 28.317 111.969 26.636 113.981C24.9547 115.991 23.9303 118.188 23.5625 120.57C23.1947 122.951 23.4969 125.306 24.4688 127.635C25.4407 129.964 27.2664 131.843 29.9456 133.272C30.5761 133.272 30.9699 133.537 31.128 134.066C31.2852 134.595 31.0485 134.859 30.419 134.859C27.8443 134.33 25.5852 133.245 23.6414 131.605C20.0163 128.588 18.02 124.698 17.6522 119.935C17.4421 117.553 17.6653 115.251 18.3221 113.028C18.9787 110.805 19.885 108.767 21.0408 106.914C22.4592 104.957 24.1404 103.263 26.0843 101.834C26.1893 101.728 26.4915 101.49 26.9905 101.12C27.4896 100.749 27.9755 100.405 28.4484 100.088C28.9213 99.7702 29.6304 99.2673 30.5761 98.579L27.6604 84.4479C25.0861 86.6179 22.5381 89.0123 20.0164 91.6322C17.4946 94.252 15.2092 97.0181 13.1603 99.9285C11.1115 102.84 9.46968 105.923 8.23502 109.178C7.00047 112.433 6.38319 115.859 6.38319 119.459C6.38319 122.793 7.07923 125.929 8.47151 128.866C9.86369 131.803 11.7156 134.357 14.0272 136.526C16.3388 138.696 19.005 140.403 22.0258 141.648C25.0467 142.891 28.1069 143.513 31.2066 143.513C31.312 143.513 31.7973 143.46 32.6645 143.354C33.5317 143.249 34.4506 143.116 35.4222 142.957C36.3948 142.799 37.2879 142.626 38.1024 142.441C38.9159 142.256 39.3236 142.057 39.3236 141.846L38.8502 139.623C36.8016 129.197 34.8574 119.22 33.0196 109.694ZM35.7773 109.376L42.2394 140.893C45.9697 139.464 48.4907 137.016 49.8045 133.55C51.1182 130.083 51.4195 126.564 50.7104 122.991C50.0014 119.419 48.3336 116.256 45.7062 113.504C43.0798 110.752 39.7701 109.376 35.7773 109.376ZM27.5028 66.9034C29.1311 66.0559 30.6417 64.7865 32.034 63.0924C33.4263 61.3993 34.7132 59.5859 35.8956 57.6543C37.077 55.7228 38.1024 53.7511 38.9686 51.7394C39.8357 49.7287 40.5319 47.9033 41.057 46.2623C41.6348 44.516 42.0286 42.5574 42.2394 40.3874C42.4493 38.2174 42.1081 36.392 41.2151 34.9093C40.5846 33.5868 39.7572 32.8194 38.7329 32.607C37.7076 32.3956 36.6832 32.4748 35.6589 32.8455C34.6346 33.2161 33.663 33.8112 32.7431 34.6318C31.8242 35.4523 31.1539 36.1796 30.7342 36.8148C29.5776 38.8786 28.5663 41.1809 27.6998 43.7216C26.8329 46.2623 26.2418 48.8951 25.9267 51.6212C25.6114 54.3462 25.5721 56.9661 25.8085 59.4807C26.0448 61.9944 26.6096 64.4689 27.5028 66.9034ZM25.1387 69.364C24.2455 65.8715 23.4575 62.4442 22.7745 59.083C22.0915 55.7228 21.7501 52.2694 21.7501 48.7228C21.7501 46.13 21.9339 43.2848 22.3017 40.189C22.6694 37.0933 23.3392 34.0757 24.3112 31.1383C25.2831 28.2009 26.6227 25.568 28.3302 23.2397C30.0381 20.9104 32.3095 19.2173 35.1468 18.1583C35.4093 18.0531 35.6718 18 35.9344 18C36.3023 18 36.7359 18.2114 37.2352 18.6352C37.7344 19.058 38.2595 19.6801 38.8114 20.5006C39.3624 21.3211 39.8487 22.1677 40.2693 23.0413C40.689 23.9139 41.0043 24.51 41.2151 24.8276C42.6332 27.5266 43.6705 30.3979 44.3278 33.4406C44.9842 36.4842 45.3651 39.5138 45.4705 42.5304C45.6803 47.0828 45.4307 51.5811 44.7216 56.0273C44.0126 60.4725 42.5805 64.8126 40.4265 69.0464C39.6915 70.3168 38.9427 71.6001 38.1809 72.8965C37.4192 74.1939 36.5132 75.4502 35.462 76.6675C35.2522 76.8799 34.8713 77.2636 34.3193 77.8186C33.7674 78.3747 33.2025 78.9437 32.6247 79.5258C32.0469 80.1079 31.5348 80.6509 31.0883 81.1528C30.6417 81.6557 30.419 81.9603 30.419 82.0665L33.6491 97.9438C33.6699 98.048 35.2651 97.9438 35.2651 97.9438C38.348 97.9829 41.6119 98.4859 44.4462 99.6109C47.178 100.881 49.529 102.628 51.4991 104.851C53.4691 107.074 55.0444 109.574 56.2268 112.353C57.4093 115.132 58 117.95 58 120.808C58 123.665 57.5793 126.577 56.739 129.54C54.5849 135.151 51.144 139.305 46.4162 142.004C45.8902 142.322 45.1413 142.68 44.1697 143.076C43.1981 143.473 42.8172 144.095 43.027 144.942C44.2881 150.708 45.1413 154.676 45.5888 156.85C46.0354 159.024 46.3635 161.829 46.5734 165.265C46.7832 168.551 46.2183 171.507 44.8788 174.152C43.5392 176.807 41.7402 178.961 39.4807 180.624C37.2222 182.297 35.1597 183.269 33.295 183.569C31.4294 183.86 30.1554 184 29.4732 184C27.1087 184 24.7972 183.549 22.5381 182.648C19.7536 181.596 17.4158 179.983 15.5245 177.809C13.6332 175.635 12.6875 172.99 12.6875 169.874C12.6875 167.91 13.2523 165.897 14.3818 163.833C15.5114 161.769 16.9955 160.286 18.8342 159.395C20.8832 158.333 22.7351 158.042 24.39 158.513C26.0448 158.994 27.4108 159.895 28.4878 161.218C29.5647 162.54 30.3136 164.143 30.7342 166.017C31.1539 167.9 31.128 169.653 30.6547 171.297C30.1823 172.94 29.2236 174.332 27.7786 175.464C26.3338 176.606 24.3243 177.117 21.7501 177.017C22.8007 178.921 24.2718 180.123 26.1631 180.624C28.0544 181.135 29.9983 181.165 31.9942 180.744C33.9912 180.323 35.8688 179.542 37.629 178.4C39.3892 177.268 40.7686 176.035 41.766 174.713C42.3965 173.761 42.8699 172.519 43.1852 170.986C43.5004 169.443 43.6844 167.85 43.7361 166.177C43.7888 164.514 43.7361 163.212 43.579 162.29C43.4209 161.358 43.1583 159.915 42.7904 157.962C41.2151 151.56 40.2166 147.533 39.796 145.89C39.5861 145.366 39.0213 145.193 38.1024 145.379C37.1825 145.564 36.4078 145.736 35.7773 145.89C31.2593 146.481 27.4765 146.21 24.4294 145.101C19.7011 143.831 15.5376 141.568 11.9389 138.313C8.34014 135.058 5.45067 131.115 3.27036 126.484C1.09015 121.853 0 118.334 0 115.925C0 113.518 0 111.996 0 111.361C0 107.074 0.73552 103.051 2.20656 99.2933C4.99092 93.4185 8.28763 88.0205 12.0965 83.0984C15.9054 78.1763 20.2528 73.5978 25.1387 69.364Z" fill="#1C1A1A"/>
<path d="M358.097 106.514C352.453 104.805 348 100.161 348 95.9836C348 84.1601 373.813 79.4812 384.473 89.3725C396 100.069 377.188 112.295 358.097 106.514H358.097ZM375.315 103.544C378.455 98.8287 375.453 89.486 370.013 87.0476C362.025 83.4667 357.129 89.5689 360.456 98.9586C362.757 105.453 372.119 108.343 375.315 103.544Z" fill="#1C1A1A"/>
<path d="M290.097 119.514C284.453 117.805 280 113.161 280 108.984C280 97.1601 305.813 92.4812 316.473 102.372C328 113.069 309.188 125.295 290.097 119.514H290.097ZM307.315 116.544C310.455 111.829 307.453 102.486 302.013 100.048C294.025 96.4667 289.129 102.569 292.456 111.959C294.757 118.453 304.119 121.343 307.315 116.544Z" fill="#1C1A1A"/>
<path d="M223.097 131.514C217.453 129.805 213 125.161 213 120.984C213 109.16 238.813 104.481 249.473 114.372C261 125.069 242.188 137.295 223.097 131.514H223.097ZM240.315 128.544C243.455 123.829 240.453 114.486 235.013 112.048C227.025 108.467 222.129 114.569 225.456 123.959C227.757 130.453 237.119 133.343 240.315 128.544Z" fill="#1C1A1A"/>
<path d="M428.097 94.5145C422.453 92.8054 418 88.1609 418 83.9836C418 72.1601 443.813 67.4812 454.473 77.3725C466 88.0687 447.188 100.295 428.097 94.5145H428.097ZM445.315 91.5442C448.455 86.8287 445.453 77.486 440.013 75.0476C432.025 71.4667 427.129 77.5689 430.456 86.9586C432.757 93.4532 442.119 96.3425 445.315 91.5442Z" fill="#1C1A1A"/>
<path d="M698.097 44.5145C692.453 42.8054 688 38.1609 688 33.9836C688 22.1601 713.813 17.4812 724.473 27.3725C736 38.0687 717.188 50.2953 698.097 44.5145H698.097ZM715.315 41.5442C718.455 36.8287 715.453 27.486 710.013 25.0476C702.025 21.4667 697.129 27.5689 700.456 36.9586C702.757 43.4532 712.119 46.3425 715.315 41.5442Z" fill="#1C1A1A"/>
<path d="M638.097 56.5145C632.453 54.8054 628 50.1609 628 45.9836C628 34.1601 653.813 29.4812 664.473 39.3725C676 50.0687 657.188 62.2953 638.097 56.5145H638.097ZM655.315 53.5442C658.455 48.8287 655.453 39.486 650.013 37.0476C642.025 33.4667 637.129 39.5689 640.456 48.9586C642.757 55.4532 652.119 58.3425 655.315 53.5442Z" fill="#1C1A1A"/>
<path d="M563.097 69.5145C557.453 67.8054 553 63.1609 553 58.9836C553 47.1601 578.813 42.4812 589.473 52.3725C601 63.0687 582.188 75.2953 563.097 69.5145H563.097ZM580.315 66.5442C583.455 61.8287 580.453 52.486 575.013 50.0476C567.025 46.4667 562.129 52.5689 565.456 61.9586C567.757 68.4532 577.119 71.3425 580.315 66.5442Z" fill="#1C1A1A"/>
<path d="M493.097 81.5145C487.453 79.8054 483 75.1609 483 70.9836C483 59.1601 508.813 54.4812 519.473 64.3725C531 75.0687 512.188 87.2953 493.097 81.5145H493.097ZM510.315 78.5442C513.455 73.8287 510.453 64.486 505.013 62.0476C497.025 58.4667 492.129 64.5689 495.456 73.9586C497.757 80.4532 507.119 83.3425 510.315 78.5442Z" fill="#1C1A1A"/>
<path d="M606.631 37.1402C606.486 37.216 606.355 37.3271 606.237 37.4732C606.118 37.6193 606.039 37.7653 606 37.9113C606.021 38.2735 606.12 39.319 606.298 41.048C606.476 42.7771 606.61 43.8577 606.701 44.2899C606.853 44.9091 607.32 45.2128 608.103 45.2012C608.745 45.2052 609.388 45.2671 610.03 45.3852C610.673 45.5034 611.245 45.6524 611.748 45.832C612.043 45.946 612.347 46.1037 612.659 46.3052C612.972 46.5067 613.205 46.6995 613.36 46.8835L613.57 47.0938L613.29 47.3041C612.78 47.8006 612.065 48.192 611.143 48.4782C610.222 48.7644 609.208 48.9105 608.103 48.9163C607.32 48.9044 606.853 49.2084 606.701 49.8275C606.61 50.2627 606.476 51.355 606.298 53.1045C606.12 54.8539 606.02 55.9112 606 56.2763C606.048 56.4296 606.162 56.5961 606.342 56.7757C606.521 56.9553 606.688 57.0692 606.841 57.1174C607.237 57.0944 608.303 56.9831 610.039 56.7845C611.776 56.5858 612.859 56.4398 613.29 56.3464C613.635 56.2586 613.874 56.0835 614.008 55.8207C614.143 55.5578 614.207 55.1022 614.201 54.4538C614.238 53.9223 614.305 53.4082 614.403 52.9117C614.5 52.4152 614.62 51.9712 614.762 51.5799C614.876 51.2484 615.034 50.9126 615.235 50.5723C615.437 50.232 615.629 49.9837 615.813 49.8275L616.024 49.6172L616.234 49.8275C616.418 49.9838 616.611 50.232 616.812 50.5723C617.014 50.9125 617.171 51.2484 617.285 51.5799C617.427 51.9713 617.547 52.4152 617.645 52.9117C617.742 53.4082 617.81 53.9222 617.846 54.4538C617.84 55.1022 617.905 55.5578 618.039 55.8207C618.173 56.0835 618.413 56.2587 618.757 56.3464C619.188 56.4401 620.272 56.5858 622.008 56.7845C623.744 56.9831 624.81 57.094 625.206 57.1174C625.359 57.0694 625.526 56.9553 625.706 56.7757C625.885 56.5961 625.999 56.4295 626.047 56.2763C626.026 55.9112 625.928 54.8539 625.749 53.1045C625.571 51.355 625.437 50.2627 625.346 49.8275C625.195 49.2083 624.727 48.9046 623.945 48.9163C623.302 48.9123 622.659 48.8504 622.017 48.7323C621.374 48.614 620.802 48.465 620.3 48.2854C620.005 48.1715 619.701 48.0138 619.388 47.8123C619.076 47.6107 618.842 47.418 618.687 47.234L618.477 47.0237L618.757 46.8134C619.267 46.3169 619.983 45.9254 620.904 45.6393C621.826 45.3531 622.839 45.207 623.945 45.2012C624.727 45.2131 625.195 44.9091 625.346 44.2899C625.437 43.8548 625.571 42.7624 625.749 41.013C625.928 39.2635 626.027 38.2063 626.047 37.8412C626 37.6878 625.885 37.5214 625.706 37.3418C625.526 37.1622 625.36 37.0483 625.206 37C624.81 37.023 623.744 37.1343 622.008 37.333C620.272 37.5316 619.188 37.6776 618.757 37.7711C618.413 37.8589 618.173 38.0339 618.039 38.2968C617.905 38.5597 617.84 39.0153 617.846 39.6637C617.809 40.1953 617.742 40.7092 617.645 41.2057C617.547 41.7023 617.427 42.1462 617.285 42.5376C617.172 42.869 617.014 43.2049 616.812 43.5452C616.611 43.8854 616.418 44.1337 616.234 44.2899L616.024 44.5002L615.813 44.2899C615.629 44.1336 615.437 43.8854 615.235 43.5452C615.034 43.2049 614.876 42.8691 614.762 42.5375C614.62 42.1462 614.501 41.7023 614.403 41.2057C614.305 40.7092 614.238 40.1952 614.201 39.6636C614.207 39.0153 614.142 38.5596 614.008 38.2968C613.874 38.0339 613.635 37.8587 613.29 37.7711C612.934 37.6774 611.911 37.5315 610.223 37.333C608.535 37.1343 607.478 37.0234 607.051 37C606.911 37.0119 606.771 37.0588 606.631 37.1402Z" fill="black"/>
<path d="M68.5229 56.5005V39.6585L75.3676 37.6821V54.4382L68.5229 56.5005ZM82 52.426L77.2943 53.8367V37.0806L82 35.7058V28.7456L77.2943 30.1204V13H75.3676V30.6396L68.5229 32.6983V16.0505H66.7057V33.332L62 34.7104V41.685L66.7057 40.3101V57.0339L62 58.4052V65.3511L66.7057 63.9762V81H68.5229V63.3676L75.3676 61.3984V77.9603H77.2943V60.7754L82 59.397V52.426Z" fill="#1C1A1A"/>
<path d="M92.5229 94.5005V77.6585L99.3676 75.6821V92.4382L92.5229 94.5005ZM106 90.426L101.294 91.8367V75.0806L106 73.7058V66.7456L101.294 68.1204V51H99.3676V68.6396L92.5229 70.6983V54.0505H90.7057V71.332L86 72.7104V79.685L90.7057 78.3101V95.0339L86 96.4052V103.351L90.7057 101.976V119H92.5229V101.368L99.3676 99.3984V115.96H101.294V98.7754L106 97.397V90.426Z" fill="#1C1A1A"/>
<path d="M116.523 43.5005V26.6585L123.368 24.6821V41.4382L116.523 43.5005ZM130 39.426L125.294 40.8367V24.0806L130 22.7058V15.7456L125.294 17.1204V0H123.368V17.6396L116.523 19.6983V3.05046H114.706V20.332L110 21.7104V28.685L114.706 27.3101V44.0339L110 45.4052V52.3511L114.706 50.9762V68H116.523V50.3676L123.368 48.3984V64.9603H125.294V47.7754L130 46.397V39.426Z" fill="#1C1A1A"/>
<path d="M140.523 81.5005V64.6585L147.368 62.6821V79.4382L140.523 81.5005ZM154 77.426L149.294 78.8367V62.0806L154 60.7058V53.7456L149.294 55.1204V38H147.368V55.6396L140.523 57.6983V41.0505H138.706V58.332L134 59.7104V66.685L138.706 65.3101V82.0339L134 83.4052V90.3511L138.706 88.9762V106H140.523V88.3676L147.368 86.3984V102.96H149.294V85.7754L154 84.397V77.426Z" fill="#1C1A1A"/>
<path d="M164.523 117.5V100.658L171.368 98.6821V115.438L164.523 117.5ZM178 113.426L173.294 114.837V98.0806L178 96.7058V89.7456L173.294 91.1204V74H171.368V91.6396L164.523 93.6983V77.0505H162.706V94.332L158 95.7104V102.685L162.706 101.31V118.034L158 119.405V126.351L162.706 124.976V142H164.523V124.368L171.368 122.398V138.96H173.294V121.775L178 120.397V113.426Z" fill="#1C1A1A"/>
</svg>
