<svg width="866.7" height="196" viewBox="0 0 866.7 196" fill="none" xmlns="http://www.w3.org/2000/svg">
<line y1="58.5" x2="866.7" y2="58.5" stroke="#1C1A1A"/>
<line y1="83.5" x2="866.7" y2="83.5" stroke="#1C1A1A"/>
<line y1="108.5" x2="866.7" y2="108.5" stroke="#1C1A1A"/>
<line y1="133.5" x2="866.7" y2="133.5" stroke="#1C1A1A"/>
<line y1="158.5" x2="866.7" y2="158.5" stroke="#1C1A1A"/>
<path d="M33.0196 121.694C30.4448 122.54 28.317 123.969 26.636 125.981C24.9547 127.991 23.9303 130.188 23.5625 132.57C23.1947 134.951 23.4969 137.306 24.4688 139.635C25.4407 141.964 27.2664 143.843 29.9456 145.272C30.5761 145.272 30.9699 145.537 31.128 146.066C31.2852 146.595 31.0485 146.859 30.419 146.859C27.8443 146.33 25.5852 145.245 23.6414 143.605C20.0163 140.588 18.02 136.698 17.6522 131.935C17.4421 129.553 17.6653 127.251 18.3221 125.028C18.9787 122.805 19.885 120.767 21.0408 118.914C22.4592 116.957 24.1404 115.263 26.0843 113.834C26.1893 113.728 26.4915 113.49 26.9905 113.12C27.4896 112.749 27.9755 112.405 28.4484 112.088C28.9213 111.77 29.6304 111.267 30.5761 110.579L27.6604 96.4479C25.0861 98.6179 22.5381 101.012 20.0164 103.632C17.4946 106.252 15.2092 109.018 13.1603 111.929C11.1115 114.84 9.46968 117.923 8.23502 121.178C7.00047 124.433 6.38319 127.859 6.38319 131.459C6.38319 134.793 7.07923 137.929 8.47151 140.866C9.86369 143.803 11.7156 146.357 14.0272 148.526C16.3388 150.696 19.005 152.403 22.0258 153.648C25.0467 154.891 28.1069 155.513 31.2066 155.513C31.312 155.513 31.7973 155.46 32.6645 155.354C33.5317 155.249 34.4506 155.116 35.4222 154.957C36.3948 154.799 37.2879 154.626 38.1024 154.441C38.9159 154.256 39.3236 154.057 39.3236 153.846L38.8502 151.623C36.8016 141.197 34.8574 131.22 33.0196 121.694ZM35.7773 121.376L42.2394 152.893C45.9697 151.464 48.4907 149.016 49.8045 145.55C51.1182 142.083 51.4195 138.564 50.7104 134.991C50.0014 131.419 48.3336 128.256 45.7062 125.504C43.0798 122.752 39.7701 121.376 35.7773 121.376ZM27.5028 78.9034C29.1311 78.0559 30.6417 76.7865 32.034 75.0924C33.4263 73.3993 34.7132 71.5859 35.8956 69.6543C37.077 67.7228 38.1024 65.7511 38.9686 63.7394C39.8357 61.7287 40.5319 59.9033 41.057 58.2623C41.6348 56.516 42.0286 54.5574 42.2394 52.3874C42.4493 50.2174 42.1081 48.392 41.2151 46.9093C40.5846 45.5868 39.7572 44.8194 38.7329 44.607C37.7076 44.3956 36.6832 44.4748 35.6589 44.8455C34.6346 45.2161 33.663 45.8112 32.7431 46.6318C31.8242 47.4523 31.1539 48.1796 30.7342 48.8148C29.5776 50.8786 28.5663 53.1809 27.6998 55.7216C26.8329 58.2623 26.2418 60.8951 25.9267 63.6212C25.6114 66.3462 25.5721 68.9661 25.8085 71.4807C26.0448 73.9944 26.6096 76.4689 27.5028 78.9034ZM25.1387 81.364C24.2455 77.8715 23.4575 74.4442 22.7745 71.083C22.0915 67.7228 21.7501 64.2694 21.7501 60.7228C21.7501 58.13 21.9339 55.2848 22.3017 52.189C22.6694 49.0933 23.3392 46.0757 24.3112 43.1383C25.2831 40.2009 26.6227 37.568 28.3302 35.2397C30.0381 32.9104 32.3095 31.2173 35.1468 30.1583C35.4093 30.0531 35.6718 30 35.9344 30C36.3023 30 36.7359 30.2114 37.2352 30.6352C37.7344 31.058 38.2595 31.6801 38.8114 32.5006C39.3624 33.3211 39.8487 34.1677 40.2693 35.0413C40.689 35.9139 41.0043 36.51 41.2151 36.8276C42.6332 39.5266 43.6705 42.3979 44.3278 45.4406C44.9842 48.4842 45.3651 51.5138 45.4705 54.5304C45.6803 59.0828 45.4307 63.5811 44.7216 68.0273C44.0126 72.4725 42.5805 76.8126 40.4265 81.0464C39.6915 82.3168 38.9427 83.6001 38.1809 84.8965C37.4192 86.1939 36.5132 87.4502 35.462 88.6675C35.2522 88.8799 34.8713 89.2636 34.3193 89.8186C33.7674 90.3747 33.2025 90.9437 32.6247 91.5258C32.0469 92.1079 31.5348 92.6509 31.0883 93.1528C30.6417 93.6557 30.419 93.9603 30.419 94.0665L33.6491 109.944C33.6699 110.048 35.2651 109.944 35.2651 109.944C38.348 109.983 41.6119 110.486 44.4462 111.611C47.178 112.881 49.529 114.628 51.4991 116.851C53.4691 119.074 55.0444 121.574 56.2268 124.353C57.4093 127.132 58 129.95 58 132.808C58 135.665 57.5793 138.577 56.739 141.54C54.5849 147.151 51.144 151.305 46.4162 154.004C45.8902 154.322 45.1413 154.68 44.1697 155.076C43.1981 155.473 42.8172 156.095 43.027 156.942C44.2881 162.708 45.1413 166.676 45.5888 168.85C46.0354 171.024 46.3635 173.829 46.5734 177.265C46.7832 180.551 46.2183 183.507 44.8788 186.152C43.5392 188.807 41.7402 190.961 39.4807 192.624C37.2222 194.297 35.1597 195.269 33.295 195.569C31.4294 195.86 30.1554 196 29.4732 196C27.1087 196 24.7972 195.549 22.5381 194.648C19.7536 193.596 17.4158 191.983 15.5245 189.809C13.6332 187.635 12.6875 184.99 12.6875 181.874C12.6875 179.91 13.2523 177.897 14.3818 175.833C15.5114 173.769 16.9955 172.286 18.8342 171.395C20.8832 170.333 22.7351 170.042 24.39 170.513C26.0448 170.994 27.4108 171.895 28.4878 173.218C29.5647 174.54 30.3136 176.143 30.7342 178.017C31.1539 179.9 31.128 181.653 30.6547 183.297C30.1823 184.94 29.2236 186.332 27.7786 187.464C26.3338 188.606 24.3243 189.117 21.7501 189.017C22.8007 190.921 24.2718 192.123 26.1631 192.624C28.0544 193.135 29.9983 193.165 31.9942 192.744C33.9912 192.323 35.8688 191.542 37.629 190.4C39.3892 189.268 40.7686 188.035 41.766 186.713C42.3965 185.761 42.8699 184.519 43.1852 182.986C43.5004 181.443 43.6844 179.85 43.7361 178.177C43.7888 176.514 43.7361 175.212 43.579 174.29C43.4209 173.358 43.1583 171.915 42.7904 169.962C41.2151 163.56 40.2166 159.533 39.796 157.89C39.5861 157.366 39.0213 157.193 38.1024 157.379C37.1825 157.564 36.4078 157.736 35.7773 157.89C31.2593 158.481 27.4765 158.21 24.4294 157.101C19.7011 155.831 15.5376 153.568 11.9389 150.313C8.34014 147.058 5.45067 143.115 3.27036 138.484C1.09015 133.853 0 130.334 0 127.925C0 125.518 0 123.996 0 123.361C0 119.074 0.73552 115.051 2.20656 111.293C4.99092 105.418 8.28763 100.02 12.0965 95.0984C15.9054 90.1763 20.2528 85.5978 25.1387 81.364Z" fill="#1C1A1A"/>
<path d="M358.097 93.5145C352.453 91.8054 348 87.1609 348 82.9836C348 71.1601 373.813 66.4812 384.473 76.3725C396 87.0687 377.188 99.2953 358.097 93.5145H358.097ZM375.315 90.5442C378.455 85.8287 375.453 76.486 370.013 74.0476C362.025 70.4667 357.129 76.5689 360.456 85.9586C362.757 92.4532 372.119 95.3425 375.315 90.5442Z" fill="#1C1A1A"/>
<path d="M290.097 106.514C284.453 104.805 280 100.161 280 95.9836C280 84.1601 305.813 79.4812 316.473 89.3725C328 100.069 309.188 112.295 290.097 106.514H290.097ZM307.315 103.544C310.455 98.8287 307.453 89.486 302.013 87.0476C294.025 83.4667 289.129 89.5689 292.456 98.9586C294.757 105.453 304.119 108.343 307.315 103.544Z" fill="#1C1A1A"/>
<path d="M223.097 118.514C217.453 116.805 213 112.161 213 107.984C213 96.1601 238.813 91.4812 249.473 101.372C261 112.069 242.188 124.295 223.097 118.514H223.097ZM240.315 115.544C243.455 110.829 240.453 101.486 235.013 99.0476C227.025 95.4667 222.129 101.569 225.456 110.959C227.757 117.453 237.119 120.343 240.315 115.544Z" fill="#1C1A1A"/>
<path d="M428.097 81.5145C422.453 79.8054 418 75.1609 418 70.9836C418 59.1601 443.813 54.4812 454.473 64.3725C466 75.0687 447.188 87.2953 428.097 81.5145H428.097ZM445.315 78.5442C448.455 73.8287 445.453 64.486 440.013 62.0476C432.025 58.4667 427.129 64.5689 430.456 73.9586C432.757 80.4532 442.119 83.3425 445.315 78.5442Z" fill="#1C1A1A"/>
<path d="M698.097 31.5145C692.453 29.8054 688 25.1609 688 20.9836C688 9.16009 713.813 4.48121 724.473 14.3725C736 25.0687 717.188 37.2953 698.097 31.5145H698.097ZM715.315 28.5442C718.455 23.8287 715.453 14.486 710.013 12.0476C702.025 8.46674 697.129 14.5689 700.456 23.9586C702.757 30.4532 712.119 33.3425 715.315 28.5442Z" fill="#1C1A1A"/>
<path d="M643.097 43.5145C637.453 41.8054 633 37.1609 633 32.9836C633 21.1601 658.813 16.4812 669.473 26.3725C681 37.0687 662.188 49.2953 643.097 43.5145H643.097ZM660.315 40.5442C663.455 35.8287 660.453 26.486 655.013 24.0476C647.025 20.4667 642.129 26.5689 645.456 35.9586C647.757 42.4532 657.119 45.3425 660.315 40.5442Z" fill="#1C1A1A"/>
<path d="M568.097 56.5145C562.453 54.8054 558 50.1609 558 45.9836C558 34.1601 583.813 29.4812 594.473 39.3725C606 50.0687 587.188 62.2953 568.097 56.5145H568.097ZM585.315 53.5442C588.455 48.8287 585.453 39.486 580.013 37.0476C572.025 33.4667 567.129 39.5689 570.456 48.9586C572.757 55.4532 582.119 58.3425 585.315 53.5442Z" fill="#1C1A1A"/>
<path d="M493.097 68.5145C487.453 66.8054 483 62.1609 483 57.9836C483 46.1601 508.813 41.4812 519.473 51.3725C531 62.0687 512.188 74.2953 493.097 68.5145H493.097ZM510.315 65.5442C513.455 60.8287 510.453 51.486 505.013 49.0476C497.025 45.4667 492.129 51.5689 495.456 60.9586C497.757 67.4532 507.119 70.3425 510.315 65.5442Z" fill="#1C1A1A"/>
<path d="M628.491 16.3999V67.0178H625.734V48.0472L611 51.2385V0H613.65V19.7685L628.491 16.3999ZM613.65 28.2787V42.1964L625.734 39.537V25.6192L613.65 28.2787Z" fill="black"/>
<path d="M553.491 27.3999V78.0178H550.734V59.0472L536 62.2385V11H538.65V30.7685L553.491 27.3999ZM538.65 39.2787V53.1964L550.734 50.537V36.6192L538.65 39.2787Z" fill="black"/>
<path d="M64.4754 62V93.0906C64.4754 93.0906 64.4754 95.1864 64.4754 99.3778C67.3316 96.6927 70.537 95.3173 74.0914 95.2518C76.3129 95.2519 78.2171 96.2015 79.8039 98.1007C81.2003 99.869 81.9302 101.834 81.9937 103.995C82.0571 105.698 81.6446 107.662 80.756 109.889C80.4386 110.806 79.7404 111.788 78.6614 112.836C77.8362 113.622 76.9794 114.441 76.0908 115.292C71.3938 118.829 66.6969 122.398 62 126V62H64.4754ZM72.1872 101.539C71.4256 100.622 70.4418 100.164 69.2358 100.164C67.7125 100.164 66.4748 101.048 65.5227 102.816C64.8245 104.191 64.4754 107.433 64.4754 112.542V120.99C64.5389 121.252 66.3161 119.647 69.8071 116.176C71.7112 114.343 72.9489 112.181 73.5202 109.693C73.774 108.71 73.901 107.728 73.901 106.746C73.901 104.584 73.3297 102.849 72.1872 101.539Z" fill="#1C1A1A"/>
<path d="M88.4754 25V56.0906C88.4754 56.0906 88.4754 58.1864 88.4754 62.3778C91.3316 59.6927 94.537 58.3173 98.0914 58.2518C100.313 58.2519 102.217 59.2015 103.804 61.1007C105.2 62.869 105.93 64.8337 105.994 66.9949C106.057 68.6977 105.645 70.6624 104.756 72.8891C104.439 73.806 103.74 74.7884 102.661 75.8363C101.836 76.6222 100.979 77.4408 100.091 78.2922C95.3938 81.8287 90.6969 85.398 86 89V25H88.4754ZM96.1872 64.539C95.4256 63.6221 94.4418 63.1637 93.2358 63.1637C91.7125 63.1637 90.4748 64.0478 89.5227 65.8161C88.8245 67.1914 88.4754 70.4332 88.4754 75.5415V83.9899C88.5389 84.2519 90.3161 82.6473 93.8071 79.1763C95.7112 77.3426 96.9489 75.1813 97.5202 72.6927C97.774 71.7103 97.901 70.7279 97.901 69.7456C97.901 67.5844 97.3297 65.8488 96.1872 64.539Z" fill="#1C1A1A"/>
<path d="M112.475 75V106.091C112.475 106.091 112.475 108.186 112.475 112.378C115.332 109.693 118.537 108.317 122.091 108.252C124.313 108.252 126.217 109.201 127.804 111.101C129.2 112.869 129.93 114.834 129.994 116.995C130.057 118.698 129.645 120.662 128.756 122.889C128.439 123.806 127.74 124.788 126.661 125.836C125.836 126.622 124.979 127.441 124.091 128.292C119.394 131.829 114.697 135.398 110 139V75H112.475ZM120.187 114.539C119.426 113.622 118.442 113.164 117.236 113.164C115.712 113.164 114.475 114.048 113.523 115.816C112.824 117.191 112.475 120.433 112.475 125.542V133.99C112.539 134.252 114.316 132.647 117.807 129.176C119.711 127.343 120.949 125.181 121.52 122.693C121.774 121.71 121.901 120.728 121.901 119.746C121.901 117.584 121.33 115.849 120.187 114.539Z" fill="#1C1A1A"/>
<path d="M160.475 86V117.091C160.475 117.091 160.475 119.186 160.475 123.378C163.332 120.693 166.537 119.317 170.091 119.252C172.313 119.252 174.217 120.201 175.804 122.101C177.2 123.869 177.93 125.834 177.994 127.995C178.057 129.698 177.645 131.662 176.756 133.889C176.439 134.806 175.74 135.788 174.661 136.836C173.836 137.622 172.979 138.441 172.091 139.292C167.394 142.829 162.697 146.398 158 150V86H160.475ZM168.187 125.539C167.426 124.622 166.442 124.164 165.236 124.164C163.712 124.164 162.475 125.048 161.523 126.816C160.824 128.191 160.475 131.433 160.475 136.542V144.99C160.539 145.252 162.316 143.647 165.807 140.176C167.711 138.343 168.949 136.181 169.52 133.693C169.774 132.71 169.901 131.728 169.901 130.746C169.901 128.584 169.33 126.849 168.187 125.539Z" fill="#1C1A1A"/>
<path d="M136.475 39V70.0906C136.475 70.0906 136.475 72.1864 136.475 76.3778C139.332 73.6927 142.537 72.3173 146.091 72.2518C148.313 72.2519 150.217 73.2015 151.804 75.1007C153.2 76.869 153.93 78.8337 153.994 80.9949C154.057 82.6977 153.645 84.6624 152.756 86.8891C152.439 87.806 151.74 88.7884 150.661 89.8363C149.836 90.6222 148.979 91.4408 148.091 92.2922C143.394 95.8287 138.697 99.398 134 103V39H136.475ZM144.187 78.539C143.426 77.6221 142.442 77.1637 141.236 77.1637C139.712 77.1637 138.475 78.0478 137.523 79.8161C136.824 81.1914 136.475 84.4332 136.475 89.5415V97.9899C136.539 98.2519 138.316 96.6473 141.807 93.1763C143.711 91.3426 144.949 89.1813 145.52 86.6927C145.774 85.7103 145.901 84.7279 145.901 83.7456C145.901 81.5844 145.33 79.8488 144.187 78.539Z" fill="#1C1A1A"/>
<line x1="683" y1="33.5" x2="733" y2="33.5" stroke="#1C1A1A"/>
<line x1="628" y1="33.5" x2="678" y2="33.5" stroke="#1C1A1A"/>
</svg>
