<svg width="826.8" height="187" viewBox="0 0 826.8 187" fill="none" xmlns="http://www.w3.org/2000/svg">
<line x1="1" y1="49.5" x2="826.8" y2="49.5" stroke="#1C1A1A"/>
<line x1="1" y1="74.5" x2="826.8" y2="74.5" stroke="#1C1A1A"/>
<line x1="1" y1="99.5" x2="826.8" y2="99.5" stroke="#1C1A1A"/>
<line x1="1" y1="124.5" x2="826.8" y2="124.5" stroke="#1C1A1A"/>
<line x1="1" y1="149.5" x2="826.8" y2="149.5" stroke="#1C1A1A"/>
<path d="M364.097 84.5145C358.453 82.8054 354 78.1609 354 73.9836C354 62.1601 379.813 57.4812 390.473 67.3725C402 78.0687 383.188 90.2953 364.097 84.5145H364.097ZM381.315 81.5442C384.455 76.8287 381.453 67.486 376.013 65.0476C368.025 61.4667 363.129 67.5689 366.456 76.9586C368.757 83.4532 378.119 86.3425 381.315 81.5442Z" fill="#1C1A1A"/>
<path d="M297.097 97.5145C291.453 95.8054 287 91.1609 287 86.9836C287 75.1601 312.813 70.4812 323.473 80.3725C335 91.0687 316.188 103.295 297.097 97.5145H297.097ZM314.315 94.5442C317.455 89.8287 314.453 80.486 309.013 78.0476C301.025 74.4667 296.129 80.5689 299.456 89.9586C301.757 96.4532 311.119 99.3425 314.315 94.5442Z" fill="#1C1A1A"/>
<path d="M230.097 109.514C224.453 107.805 220 103.161 220 98.9836C220 87.1601 245.813 82.4812 256.473 92.3725C268 103.069 249.188 115.295 230.097 109.514H230.097ZM247.315 106.544C250.455 101.829 247.453 92.486 242.013 90.0476C234.025 86.4667 229.129 92.5689 232.456 101.959C234.757 108.453 244.119 111.343 247.315 106.544Z" fill="#1C1A1A"/>
<path d="M431.097 72.5145C425.453 70.8054 421 66.1609 421 61.9836C421 50.1601 446.813 45.4812 457.473 55.3725C469 66.0687 450.188 78.2953 431.097 72.5145H431.097ZM448.315 69.5442C451.455 64.8287 448.453 55.486 443.013 53.0476C435.025 49.4667 430.129 55.5689 433.456 64.9586C435.757 71.4532 445.119 74.3425 448.315 69.5442Z" fill="#1C1A1A"/>
<path d="M699.097 22.5145C693.453 20.8054 689 16.1609 689 11.9836C689 0.160094 714.813 -4.51879 725.473 5.37248C737 16.0687 718.188 28.2953 699.097 22.5145H699.097ZM716.315 19.5442C719.455 14.8287 716.453 5.48596 711.013 3.04758C703.025 -0.533257 698.129 5.56887 701.456 14.9586C703.757 21.4532 713.119 24.3425 716.315 19.5442Z" fill="#1C1A1A"/>
<path d="M632.097 34.5145C626.453 32.8054 622 28.1609 622 23.9836C622 12.1601 647.813 7.48121 658.473 17.3725C670 28.0687 651.188 40.2953 632.097 34.5145H632.097ZM649.315 31.5442C652.455 26.8287 649.453 17.486 644.013 15.0476C636.025 11.4667 631.129 17.5689 634.456 26.9586C636.757 33.4532 646.119 36.3425 649.315 31.5442Z" fill="#1C1A1A"/>
<path d="M565.097 47.5145C559.453 45.8054 555 41.1609 555 36.9836C555 25.1601 580.813 20.4812 591.473 30.3725C603 41.0687 584.188 53.2953 565.097 47.5145H565.097ZM582.315 44.5442C585.455 39.8287 582.453 30.486 577.013 28.0476C569.025 24.4667 564.129 30.5689 567.456 39.9586C569.757 46.4532 579.119 49.3425 582.315 44.5442Z" fill="#1C1A1A"/>
<path d="M498.097 59.5145C492.453 57.8054 488 53.1609 488 48.9836C488 37.1601 513.813 32.4812 524.473 42.3725C536 53.0687 517.188 65.2953 498.097 59.5145H498.097ZM515.315 56.5442C518.455 51.8287 515.453 42.486 510.013 40.0476C502.025 36.4667 497.129 42.5689 500.456 51.9586C502.757 58.4532 512.119 61.3425 515.315 56.5442Z" fill="#1C1A1A"/>
<path d="M93.4754 53V84.0906C93.4754 84.0906 93.4754 86.1864 93.4754 90.3778C96.3316 87.6927 99.537 86.3173 103.091 86.2518C105.313 86.2519 107.217 87.2015 108.804 89.1007C110.2 90.869 110.93 92.8337 110.994 94.9949C111.057 96.6977 110.645 98.6624 109.756 100.889C109.439 101.806 108.74 102.788 107.661 103.836C106.836 104.622 105.979 105.441 105.091 106.292C100.394 109.829 95.6969 113.398 91 117V53H93.4754ZM101.187 92.539C100.426 91.6221 99.4418 91.1637 98.2358 91.1637C96.7125 91.1637 95.4748 92.0478 94.5227 93.8161C93.8245 95.1914 93.4754 98.4332 93.4754 103.542V111.99C93.5389 112.252 95.3161 110.647 98.8071 107.176C100.711 105.343 101.949 103.181 102.52 100.693C102.774 99.7103 102.901 98.7279 102.901 97.7456C102.901 95.5844 102.33 93.8488 101.187 92.539Z" fill="#1C1A1A"/>
<path d="M117.475 16V47.0906C117.475 47.0906 117.475 49.1864 117.475 53.3778C120.332 50.6927 123.537 49.3173 127.091 49.2518C129.313 49.2519 131.217 50.2015 132.804 52.1007C134.2 53.869 134.93 55.8337 134.994 57.9949C135.057 59.6977 134.645 61.6624 133.756 63.8891C133.439 64.806 132.74 65.7884 131.661 66.8363C130.836 67.6222 129.979 68.4408 129.091 69.2922C124.394 72.8287 119.697 76.398 115 80V16H117.475ZM125.187 55.539C124.426 54.6221 123.442 54.1637 122.236 54.1637C120.712 54.1637 119.475 55.0478 118.523 56.8161C117.824 58.1914 117.475 61.4332 117.475 66.5415V74.9899C117.539 75.2519 119.316 73.6473 122.807 70.1763C124.711 68.3426 125.949 66.1813 126.52 63.6927C126.774 62.7103 126.901 61.7279 126.901 60.7456C126.901 58.5844 126.33 56.8488 125.187 55.539Z" fill="#1C1A1A"/>
<path d="M141.475 66V97.0906C141.475 97.0906 141.475 99.1864 141.475 103.378C144.332 100.693 147.537 99.3173 151.091 99.2518C153.313 99.2519 155.217 100.201 156.804 102.101C158.2 103.869 158.93 105.834 158.994 107.995C159.057 109.698 158.645 111.662 157.756 113.889C157.439 114.806 156.74 115.788 155.661 116.836C154.836 117.622 153.979 118.441 153.091 119.292C148.394 122.829 143.697 126.398 139 130V66H141.475ZM149.187 105.539C148.426 104.622 147.442 104.164 146.236 104.164C144.712 104.164 143.475 105.048 142.523 106.816C141.824 108.191 141.475 111.433 141.475 116.542V124.99C141.539 125.252 143.316 123.647 146.807 120.176C148.711 118.343 149.949 116.181 150.52 113.693C150.774 112.71 150.901 111.728 150.901 110.746C150.901 108.584 150.33 106.849 149.187 105.539Z" fill="#1C1A1A"/>
<path d="M165.475 30V61.0906C165.475 61.0906 165.475 63.1864 165.475 67.3778C168.332 64.6927 171.537 63.3173 175.091 63.2518C177.313 63.2519 179.217 64.2015 180.804 66.1007C182.2 67.869 182.93 69.8337 182.994 71.9949C183.057 73.6977 182.645 75.6624 181.756 77.8891C181.439 78.806 180.74 79.7884 179.661 80.8363C178.836 81.6222 177.979 82.4408 177.091 83.2922C172.394 86.8287 167.697 90.398 163 94V30H165.475ZM173.187 69.539C172.426 68.6221 171.442 68.1637 170.236 68.1637C168.712 68.1637 167.475 69.0478 166.523 70.8161C165.824 72.1914 165.475 75.4332 165.475 80.5415V88.9899C165.539 89.2519 167.316 87.6473 170.807 84.1763C172.711 82.3426 173.949 80.1813 174.52 77.6927C174.774 76.7103 174.901 75.7279 174.901 74.7456C174.901 72.5844 174.33 70.8488 173.187 69.539Z" fill="#1C1A1A"/>
<path d="M189.475 77V108.091C189.475 108.091 189.475 110.186 189.475 114.378C192.332 111.693 195.537 110.317 199.091 110.252C201.313 110.252 203.217 111.201 204.804 113.101C206.2 114.869 206.93 116.834 206.994 118.995C207.057 120.698 206.645 122.662 205.756 124.889C205.439 125.806 204.74 126.788 203.661 127.836C202.836 128.622 201.979 129.441 201.091 130.292C196.394 133.829 191.697 137.398 187 141V77H189.475ZM197.187 116.539C196.426 115.622 195.442 115.164 194.236 115.164C192.712 115.164 191.475 116.048 190.523 117.816C189.824 119.191 189.475 122.433 189.475 127.542V135.99C189.539 136.252 191.316 134.647 194.807 131.176C196.711 129.343 197.949 127.181 198.52 124.693C198.774 123.71 198.901 122.728 198.901 121.746C198.901 119.584 198.33 117.849 197.187 116.539Z" fill="#1C1A1A"/>
<line x1="684" y1="24.5" x2="734" y2="24.5" stroke="#1C1A1A"/>
<line x1="617" y1="24.5" x2="667" y2="24.5" stroke="#1C1A1A"/>
<path d="M27.1226 123.24C24.7962 125.193 12.4703 132.891 4.9764 134C7.10156 132.891 7.77263 132.225 13.5888 128.565C19.306 124.967 26.3397 117.694 32.2677 110.817C37.0101 105.315 39.9108 96.619 40.7683 92.9586C42.2894 89.3203 42.2223 81.1638 41.9986 77.5403C41.9613 74.0278 40.4104 65.605 34.5047 60.0145C27.1226 53.0264 19.6287 56.9087 18.2865 57.3524C16.9443 57.7961 12.3585 61.0128 11.0163 63.8968C9.94251 66.204 10.5689 66.9287 11.0163 67.0026C15.273 65.117 19.3501 66.2001 21.8721 68.0009C24.6684 69.9976 27.0172 72.9925 26.7935 77.5403C26.6146 81.1786 24.824 83.8629 23.4818 85.194C20.6855 88.2998 16.1986 88.6326 13.7007 88.6326C7.66078 88.2998 3.86507 83.9743 3.07496 82.6428C2.74586 82.0881 -0.391563 77.0966 1.73276 68.4446C3.48062 61.326 10.1588 55.7625 13.477 53.9138C24.1027 48.4785 31.5966 49.7295 36.4062 51.5844C42.446 53.9138 49.9901 61.1237 51.8414 67.4463C53.6927 73.7689 54.6376 78.7605 53.5191 84.8612C52.4006 90.962 50.8348 95.177 45.1304 104.384C39.4261 113.59 30.0307 120.8 27.1226 123.24Z" fill="black"/>
<path d="M4.9764 134L4.74504 133.557C4.52868 133.67 4.42547 133.922 4.50085 134.154C4.57623 134.387 4.80818 134.53 5.04961 134.495L4.9764 134ZM27.1226 123.24L26.8012 122.857L27.1226 123.24ZM45.1304 104.384L45.5555 104.647L45.1304 104.384ZM51.8414 67.4463L52.3213 67.3058L51.8414 67.4463ZM36.4062 51.5844L36.5861 51.1179V51.1179L36.4062 51.5844ZM13.477 53.9138L13.2493 53.4686L13.2414 53.4727L13.2336 53.477L13.477 53.9138ZM1.73276 68.4446L2.21834 68.5639L1.73276 68.4446ZM3.07496 82.6428L2.64496 82.8979H2.64496L3.07496 82.6428ZM13.7007 88.6326L13.6732 89.1318L13.6869 89.1326H13.7007V88.6326ZM23.4818 85.194L23.1297 84.839L23.1196 84.8489L23.1102 84.8594L23.4818 85.194ZM26.7935 77.5403L26.2941 77.5157L26.7935 77.5403ZM21.8721 68.0009L22.1627 67.594L21.8721 68.0009ZM11.0163 67.0026L10.9347 67.496L11.0822 67.5203L11.2188 67.4598L11.0163 67.0026ZM11.0163 63.8968L11.4696 64.1078L11.0163 63.8968ZM18.2865 57.3524L18.4434 57.8271L18.2865 57.3524ZM34.5047 60.0145L34.161 60.3776L34.5047 60.0145ZM41.9986 77.5403L41.4986 77.5456L41.4988 77.5584L41.4996 77.5711L41.9986 77.5403ZM40.7683 92.9586L40.307 92.7657L40.2909 92.8041L40.2814 92.8445L40.7683 92.9586ZM32.2677 110.817L31.889 110.491L32.2677 110.817ZM13.5888 128.565L13.8551 128.988L13.5888 128.565ZM5.04961 134.495C8.8889 133.926 13.9096 131.687 18.2233 129.377C22.5423 127.065 26.2412 124.633 27.444 123.624L26.8012 122.857C25.6776 123.8 22.0503 126.194 17.7513 128.496C13.447 130.8 8.55782 132.964 4.90319 133.505L5.04961 134.495ZM27.444 123.624C30.3278 121.204 39.7992 113.937 45.5555 104.647L44.7054 104.12C39.053 113.243 29.7337 120.397 26.8012 122.857L27.444 123.624ZM45.5555 104.647C51.2815 95.4054 52.8779 91.1314 54.0109 84.9514L53.0273 84.771C51.9234 90.7925 50.388 94.9487 44.7054 104.12L45.5555 104.647ZM54.0109 84.9514C55.1504 78.7362 54.1803 73.655 52.3213 67.3058L51.3615 67.5868C53.205 73.8829 54.1249 78.7847 53.0273 84.771L54.0109 84.9514ZM52.3213 67.3058C51.3632 64.0339 48.9526 60.5806 46.0488 57.6651C43.1422 54.7467 39.689 52.3146 36.5861 51.1179L36.2262 52.0509C39.1631 53.1835 42.502 55.5211 45.3402 58.3707C48.1812 61.2231 50.4683 64.5362 51.3615 67.5868L52.3213 67.3058ZM36.5861 51.1179C31.6555 49.2163 24.0124 47.9631 13.2493 53.4686L13.7047 54.3589C24.1929 48.994 31.5377 50.2427 36.2262 52.0509L36.5861 51.1179ZM13.2336 53.477C11.5252 54.4288 8.98435 56.3161 6.64743 58.8651C4.31098 61.4136 2.14795 64.6568 1.24718 68.3254L2.21834 68.5639C3.06543 65.1138 5.11541 62.0159 7.38454 59.5408C9.65322 57.0663 12.1106 55.2474 13.7203 54.3505L13.2336 53.477ZM1.24718 68.3254C-0.921034 77.1562 2.2821 82.2864 2.64496 82.8979L3.50495 82.3876C3.20962 81.8899 0.137908 77.0371 2.21834 68.5639L1.24718 68.3254ZM2.64496 82.8979C3.07914 83.6296 4.27552 85.0937 6.12826 86.4189C7.98869 87.7496 10.5371 88.959 13.6732 89.1318L13.7282 88.1333C10.8244 87.9734 8.45496 86.8536 6.71003 85.6055C4.95742 84.3519 3.86089 82.9874 3.50495 82.3876L2.64496 82.8979ZM13.7007 89.1326C16.2027 89.1326 20.8984 88.8107 23.8534 85.5285L23.1102 84.8594C20.4727 87.7889 16.1946 88.1326 13.7007 88.1326V89.1326ZM23.8339 85.549C25.2438 84.1507 27.1065 81.3543 27.2929 77.5649L26.2941 77.5157C26.1226 81.0028 24.4041 83.5751 23.1297 84.839L23.8339 85.549ZM27.2929 77.5649C27.5276 72.7942 25.0481 69.6543 22.1627 67.594L21.5816 68.4079C24.2887 70.3408 26.5069 73.1907 26.2941 77.5157L27.2929 77.5649ZM22.1627 67.594C19.5206 65.7075 15.2573 64.5771 10.8138 66.5455L11.2188 67.4598C15.2888 65.6568 19.1796 66.6928 21.5816 68.4079L22.1627 67.594ZM11.0978 66.5093C11.097 66.5092 11.0748 66.5052 11.0451 66.4727C11.0162 66.4412 10.9654 66.3659 10.9393 66.2065C10.8847 65.8729 10.9497 65.2249 11.4696 64.1078L10.563 63.6858C10.0091 64.876 9.85035 65.7439 9.95239 66.3679C10.0595 67.0228 10.466 67.4185 10.9347 67.496L11.0978 66.5093ZM11.4696 64.1078C12.0918 62.7709 13.5011 61.3042 14.9692 60.0955C15.6953 59.4977 16.4202 58.9757 17.0424 58.5778C17.6759 58.1727 18.1704 57.9173 18.4434 57.8271L18.1296 56.8776C17.7315 57.0092 17.1494 57.3224 16.5037 57.7353C15.8466 58.1555 15.0895 58.7011 14.3336 59.3235C12.8377 60.5551 11.283 62.1387 10.563 63.6858L11.4696 64.1078ZM18.4434 57.8271C19.1825 57.5828 21.2815 56.5438 24.1563 56.3958C26.9978 56.2496 30.579 56.9869 34.161 60.3776L34.8484 59.6514C31.0483 56.054 27.1915 55.2383 24.1049 55.3972C21.0517 55.5543 18.7327 56.6783 18.1296 56.8776L18.4434 57.8271ZM34.161 60.3776C39.9317 65.8404 41.4622 74.1084 41.4986 77.5456L42.4986 77.535C42.4605 73.9471 40.889 65.3696 34.8484 59.6514L34.161 60.3776ZM41.4996 77.5711C41.6105 79.3674 41.6827 82.2937 41.5384 85.2193C41.393 88.1656 41.0305 91.0352 40.307 92.7657L41.2296 93.1514C42.0272 91.2437 42.3917 88.2159 42.5372 85.2685C42.6836 82.3004 42.6105 79.3367 42.4977 77.5095L41.4996 77.5711ZM40.2814 92.8445C39.4308 96.4758 36.5535 105.079 31.889 110.491L32.6464 111.144C37.4668 105.551 40.3908 96.7622 41.2551 93.0726L40.2814 92.8445ZM31.889 110.491C25.961 117.368 18.9699 124.587 13.3225 128.142L13.8551 128.988C19.6422 125.346 26.7183 118.021 32.6464 111.144L31.889 110.491ZM13.3225 128.142C10.4095 129.975 8.78348 131.059 7.62388 131.821C6.46733 132.581 5.78498 133.014 4.74504 133.557L5.20776 134.443C6.29298 133.877 7.00874 133.422 8.17307 132.657C9.33434 131.894 10.9519 130.815 13.8551 128.988L13.3225 128.142Z" fill="black"/>
<ellipse cx="66.4852" cy="62.1558" rx="6.51452" ry="6.49758" fill="black"/>
<ellipse cx="66.4852" cy="86.647" rx="6.51452" ry="6.49758" fill="black"/>
</svg>
