<svg width="743" height="184" viewBox="0 0 743 184" fill="none" xmlns="http://www.w3.org/2000/svg">
<line y1="46.5" x2="743" y2="46.5" stroke="#1C1A1A"/>
<line y1="71.5" x2="743" y2="71.5" stroke="#1C1A1A"/>
<line y1="96.5" x2="743" y2="96.5" stroke="#1C1A1A"/>
<line y1="121.5" x2="743" y2="121.5" stroke="#1C1A1A"/>
<line y1="146.5" x2="743" y2="146.5" stroke="#1C1A1A"/>
<path d="M33.0196 109.694C30.4448 110.54 28.317 111.969 26.636 113.981C24.9547 115.991 23.9303 118.188 23.5625 120.57C23.1947 122.951 23.4969 125.306 24.4688 127.635C25.4407 129.964 27.2664 131.843 29.9456 133.272C30.5761 133.272 30.9699 133.537 31.128 134.066C31.2852 134.595 31.0485 134.859 30.419 134.859C27.8443 134.33 25.5852 133.245 23.6414 131.605C20.0163 128.588 18.02 124.698 17.6522 119.935C17.4421 117.553 17.6653 115.251 18.3221 113.028C18.9787 110.805 19.885 108.767 21.0408 106.914C22.4592 104.957 24.1404 103.263 26.0843 101.834C26.1893 101.728 26.4915 101.49 26.9905 101.12C27.4896 100.749 27.9755 100.405 28.4484 100.088C28.9213 99.7702 29.6304 99.2673 30.5761 98.579L27.6604 84.4479C25.0861 86.6179 22.5381 89.0123 20.0164 91.6322C17.4946 94.252 15.2092 97.0181 13.1603 99.9285C11.1115 102.84 9.46968 105.923 8.23502 109.178C7.00047 112.433 6.38319 115.859 6.38319 119.459C6.38319 122.793 7.07923 125.929 8.47151 128.866C9.86369 131.803 11.7156 134.357 14.0272 136.526C16.3388 138.696 19.005 140.403 22.0258 141.648C25.0467 142.891 28.1069 143.513 31.2066 143.513C31.312 143.513 31.7973 143.46 32.6645 143.354C33.5317 143.249 34.4506 143.116 35.4222 142.957C36.3948 142.799 37.2879 142.626 38.1024 142.441C38.9159 142.256 39.3236 142.057 39.3236 141.846L38.8502 139.623C36.8016 129.197 34.8574 119.22 33.0196 109.694ZM35.7773 109.376L42.2394 140.893C45.9697 139.464 48.4907 137.016 49.8045 133.55C51.1182 130.083 51.4195 126.564 50.7104 122.991C50.0014 119.419 48.3336 116.256 45.7062 113.504C43.0798 110.752 39.7701 109.376 35.7773 109.376ZM27.5028 66.9034C29.1311 66.0559 30.6417 64.7865 32.034 63.0924C33.4263 61.3993 34.7132 59.5859 35.8956 57.6543C37.077 55.7228 38.1024 53.7511 38.9686 51.7394C39.8357 49.7287 40.5319 47.9033 41.057 46.2623C41.6348 44.516 42.0286 42.5574 42.2394 40.3874C42.4493 38.2174 42.1081 36.392 41.2151 34.9093C40.5846 33.5868 39.7572 32.8194 38.7329 32.607C37.7076 32.3956 36.6832 32.4748 35.6589 32.8455C34.6346 33.2161 33.663 33.8112 32.7431 34.6318C31.8242 35.4523 31.1539 36.1796 30.7342 36.8148C29.5776 38.8786 28.5663 41.1809 27.6998 43.7216C26.8329 46.2623 26.2418 48.8951 25.9267 51.6212C25.6114 54.3462 25.5721 56.9661 25.8085 59.4807C26.0448 61.9944 26.6096 64.4689 27.5028 66.9034ZM25.1387 69.364C24.2455 65.8715 23.4575 62.4442 22.7745 59.083C22.0915 55.7228 21.7501 52.2694 21.7501 48.7228C21.7501 46.13 21.9339 43.2848 22.3017 40.189C22.6694 37.0933 23.3392 34.0757 24.3112 31.1383C25.2831 28.2009 26.6227 25.568 28.3302 23.2397C30.0381 20.9104 32.3095 19.2173 35.1468 18.1583C35.4093 18.0531 35.6718 18 35.9344 18C36.3023 18 36.7359 18.2114 37.2352 18.6352C37.7344 19.058 38.2595 19.6801 38.8114 20.5006C39.3624 21.3211 39.8487 22.1677 40.2693 23.0413C40.689 23.9139 41.0043 24.51 41.2151 24.8276C42.6332 27.5266 43.6705 30.3979 44.3278 33.4406C44.9842 36.4842 45.3651 39.5138 45.4705 42.5304C45.6803 47.0828 45.4307 51.5811 44.7216 56.0273C44.0126 60.4725 42.5805 64.8126 40.4265 69.0464C39.6915 70.3168 38.9427 71.6001 38.1809 72.8965C37.4192 74.1939 36.5132 75.4502 35.462 76.6675C35.2522 76.8799 34.8713 77.2636 34.3193 77.8186C33.7674 78.3747 33.2025 78.9437 32.6247 79.5258C32.0469 80.1079 31.5348 80.6509 31.0883 81.1528C30.6417 81.6557 30.419 81.9603 30.419 82.0665L33.6491 97.9438C33.6699 98.048 35.2651 97.9438 35.2651 97.9438C38.348 97.9829 41.6119 98.4859 44.4462 99.6109C47.178 100.881 49.529 102.628 51.4991 104.851C53.4691 107.074 55.0444 109.574 56.2268 112.353C57.4093 115.132 58 117.95 58 120.808C58 123.665 57.5793 126.577 56.739 129.54C54.5849 135.151 51.144 139.305 46.4162 142.004C45.8902 142.322 45.1413 142.68 44.1697 143.076C43.1981 143.473 42.8172 144.095 43.027 144.942C44.2881 150.708 45.1413 154.676 45.5888 156.85C46.0354 159.024 46.3635 161.829 46.5734 165.265C46.7832 168.551 46.2183 171.507 44.8788 174.152C43.5392 176.807 41.7402 178.961 39.4807 180.624C37.2222 182.297 35.1597 183.269 33.295 183.569C31.4294 183.86 30.1554 184 29.4732 184C27.1087 184 24.7972 183.549 22.5381 182.648C19.7536 181.596 17.4158 179.983 15.5245 177.809C13.6332 175.635 12.6875 172.99 12.6875 169.874C12.6875 167.91 13.2523 165.897 14.3818 163.833C15.5114 161.769 16.9955 160.286 18.8342 159.395C20.8832 158.333 22.7351 158.042 24.39 158.513C26.0448 158.994 27.4108 159.895 28.4878 161.218C29.5647 162.54 30.3136 164.143 30.7342 166.017C31.1539 167.9 31.128 169.653 30.6547 171.297C30.1823 172.94 29.2236 174.332 27.7786 175.464C26.3338 176.606 24.3243 177.117 21.7501 177.017C22.8007 178.921 24.2718 180.123 26.1631 180.624C28.0544 181.135 29.9983 181.165 31.9942 180.744C33.9912 180.323 35.8688 179.542 37.629 178.4C39.3892 177.268 40.7686 176.035 41.766 174.713C42.3965 173.761 42.8699 172.519 43.1852 170.986C43.5004 169.443 43.6844 167.85 43.7361 166.177C43.7888 164.514 43.7361 163.212 43.579 162.29C43.4209 161.358 43.1583 159.915 42.7904 157.962C41.2151 151.56 40.2166 147.533 39.796 145.89C39.5861 145.366 39.0213 145.193 38.1024 145.379C37.1825 145.564 36.4078 145.736 35.7773 145.89C31.2593 146.481 27.4765 146.21 24.4294 145.101C19.7011 143.831 15.5376 141.568 11.9389 138.313C8.34014 135.058 5.45067 131.115 3.27036 126.484C1.09015 121.853 0 118.334 0 115.925C0 113.518 0 111.996 0 111.361C0 107.074 0.73552 103.051 2.20656 99.2933C4.99092 93.4185 8.28763 88.0205 12.0965 83.0984C15.9054 78.1763 20.2528 73.5978 25.1387 69.364Z" fill="#1C1A1A"/>
<path d="M323.097 156.514C317.453 154.805 313 150.161 313 145.984C313 134.16 338.813 129.481 349.473 139.372C361 150.069 342.188 162.295 323.097 156.514H323.097ZM340.315 153.544C343.455 148.829 340.453 139.486 335.013 137.048C327.025 133.467 322.129 139.569 325.456 148.959C327.757 155.453 337.119 158.343 340.315 153.544Z" fill="#1C1A1A"/>
<path d="M248.097 169.514C242.453 167.805 238 163.161 238 158.984C238 147.16 263.813 142.481 274.473 152.372C286 163.069 267.188 175.295 248.097 169.514H248.097ZM265.315 166.544C268.455 161.829 265.453 152.486 260.013 150.048C252.025 146.467 247.129 152.569 250.456 161.959C252.757 168.453 262.119 171.343 265.315 166.544Z" fill="#1C1A1A"/>
<path d="M173.097 181.514C167.453 179.805 163 175.161 163 170.984C163 159.16 188.813 154.481 199.473 164.372C211 175.069 192.188 187.295 173.097 181.514H173.097ZM190.315 178.544C193.455 173.829 190.453 164.486 185.013 162.048C177.025 158.467 172.129 164.569 175.456 173.959C177.757 180.453 187.119 183.343 190.315 178.544Z" fill="#1C1A1A"/>
<path d="M398.097 144.514C392.453 142.805 388 138.161 388 133.984C388 122.16 413.813 117.481 424.473 127.372C436 138.069 417.188 150.295 398.097 144.514H398.097ZM415.315 141.544C418.455 136.829 415.453 127.486 410.013 125.048C402.025 121.467 397.129 127.569 400.456 136.959C402.757 143.453 412.119 146.343 415.315 141.544Z" fill="#1C1A1A"/>
<path d="M698.097 94.5145C692.453 92.8054 688 88.1609 688 83.9836C688 72.1601 713.813 67.4812 724.473 77.3725C736 88.0687 717.188 100.295 698.097 94.5145H698.097ZM715.315 91.5442C718.455 86.8287 715.453 77.486 710.013 75.0476C702.025 71.4667 697.129 77.5689 700.456 86.9586C702.757 93.4532 712.119 96.3425 715.315 91.5442Z" fill="#1C1A1A"/>
<path d="M623.097 106.514C617.453 104.805 613 100.161 613 95.9836C613 84.1601 638.813 79.4812 649.473 89.3725C661 100.069 642.188 112.295 623.097 106.514H623.097ZM640.315 103.544C643.455 98.8287 640.453 89.486 635.013 87.0476C627.025 83.4667 622.129 89.5689 625.456 98.9586C627.757 105.453 637.119 108.343 640.315 103.544Z" fill="#1C1A1A"/>
<path d="M548.097 119.514C542.453 117.805 538 113.161 538 108.984C538 97.1601 563.813 92.4812 574.473 102.372C586 113.069 567.188 125.295 548.097 119.514H548.097ZM565.315 116.544C568.455 111.829 565.453 102.486 560.013 100.048C552.025 96.4667 547.129 102.569 550.456 111.959C552.757 118.453 562.119 121.343 565.315 116.544Z" fill="#1C1A1A"/>
<path d="M473.097 131.514C467.453 129.805 463 125.161 463 120.984C463 109.16 488.813 104.481 499.473 114.372C511 125.069 492.188 137.295 473.097 131.514H473.097ZM490.315 128.544C493.455 123.829 490.453 114.486 485.013 112.048C477.025 108.467 472.129 114.569 475.456 123.959C477.757 130.453 487.119 133.343 490.315 128.544Z" fill="#1C1A1A"/>
<path d="M597.523 105.5V88.6585L604.368 86.6821V103.438L597.523 105.5ZM611 101.426L606.294 102.837V86.0806L611 84.7058V77.7456L606.294 79.1204V62H604.368V79.6396L597.523 81.6983V65.0505H595.706V82.332L591 83.7104V90.685L595.706 89.3101V106.034L591 107.405V114.351L595.706 112.976V130H597.523V112.368L604.368 110.398V126.96H606.294V109.775L611 108.397V101.426Z" fill="#1C1A1A"/>
<path d="M68.5229 56.5005V39.6585L75.3676 37.6821V54.4382L68.5229 56.5005ZM82 52.426L77.2943 53.8367V37.0806L82 35.7058V28.7456L77.2943 30.1204V13H75.3676V30.6396L68.5229 32.6983V16.0505H66.7057V33.332L62 34.7104V41.685L66.7057 40.3101V57.0339L62 58.4052V65.3511L66.7057 63.9762V81H68.5229V63.3676L75.3676 61.3984V77.9603H77.2943V60.7754L82 59.397V52.426Z" fill="#1C1A1A"/>
<path d="M92.5229 94.5005V77.6585L99.3676 75.6821V92.4382L92.5229 94.5005ZM106 90.426L101.294 91.8367V75.0806L106 73.7058V66.7456L101.294 68.1204V51H99.3676V68.6396L92.5229 70.6983V54.0505H90.7057V71.332L86 72.7104V79.685L90.7057 78.3101V95.0339L86 96.4052V103.351L90.7057 101.976V119H92.5229V101.368L99.3676 99.3984V115.96H101.294V98.7754L106 97.397V90.426Z" fill="#1C1A1A"/>
<path d="M116.523 43.5005V26.6585L123.368 24.6821V41.4382L116.523 43.5005ZM130 39.426L125.294 40.8367V24.0806L130 22.7058V15.7456L125.294 17.1204V0H123.368V17.6396L116.523 19.6983V3.05046H114.706V20.332L110 21.7104V28.685L114.706 27.3101V44.0339L110 45.4052V52.3511L114.706 50.9762V68H116.523V50.3676L123.368 48.3984V64.9603H125.294V47.7754L130 46.397V39.426Z" fill="#1C1A1A"/>
<line x1="153" y1="171.5" x2="213" y2="171.5" stroke="#1C1A1A"/>
<path d="M140.523 81.5005V64.6585L147.368 62.6821V79.4382L140.523 81.5005ZM154 77.426L149.294 78.8367V62.0806L154 60.7058V53.7456L149.294 55.1204V38H147.368V55.6396L140.523 57.6983V41.0505H138.706V58.332L134 59.7104V66.685L138.706 65.3101V82.0339L134 83.4052V90.3511L138.706 88.9762V106H140.523V88.3676L147.368 86.3984V102.96H149.294V85.7754L154 84.397V77.426Z" fill="#1C1A1A"/>
</svg>
