<svg width="756" height="171" viewBox="0 0 756 171" fill="none" xmlns="http://www.w3.org/2000/svg">
<line y1="33.5" x2="756" y2="33.5" stroke="#1C1A1A"/>
<line y1="58.5" x2="756" y2="58.5" stroke="#1C1A1A"/>
<line y1="83.5" x2="756" y2="83.5" stroke="#1C1A1A"/>
<line y1="108.5" x2="756" y2="108.5" stroke="#1C1A1A"/>
<line y1="133.5" x2="756" y2="133.5" stroke="#1C1A1A"/>
<path d="M33.0196 96.6936C30.4448 97.5402 28.317 98.9688 26.636 100.981C24.9547 102.991 23.9303 105.188 23.5625 107.57C23.1947 109.951 23.4969 112.306 24.4688 114.635C25.4407 116.964 27.2664 118.843 29.9456 120.272C30.5761 120.272 30.9699 120.537 31.128 121.066C31.2852 121.595 31.0485 121.859 30.419 121.859C27.8443 121.33 25.5852 120.245 23.6414 118.605C20.0163 115.588 18.02 111.698 17.6522 106.935C17.4421 104.553 17.6653 102.251 18.3221 100.028C18.9787 97.8046 19.885 95.7669 21.0408 93.9144C22.4592 91.9568 24.1404 90.2627 26.0843 88.834C26.1893 88.7279 26.4915 88.4904 26.9905 88.1197C27.4896 87.749 27.9755 87.4054 28.4484 87.0878C28.9213 86.7702 29.6304 86.2673 30.5761 85.579L27.6604 71.4479C25.0861 73.6179 22.5381 76.0123 20.0164 78.6322C17.4946 81.252 15.2092 84.0181 13.1603 86.9285C11.1115 89.8399 9.46968 92.9226 8.23502 96.1776C7.00047 99.4326 6.38319 102.859 6.38319 106.459C6.38319 109.793 7.07923 112.929 8.47151 115.866C9.86369 118.803 11.7156 121.357 14.0272 123.526C16.3388 125.696 19.005 127.403 22.0258 128.648C25.0467 129.891 28.1069 130.513 31.2066 130.513C31.312 130.513 31.7973 130.46 32.6645 130.354C33.5317 130.249 34.4506 130.116 35.4222 129.957C36.3948 129.799 37.2879 129.626 38.1024 129.441C38.9159 129.256 39.3236 129.057 39.3236 128.846L38.8502 126.623C36.8016 116.197 34.8574 106.22 33.0196 96.6936ZM35.7773 96.376L42.2394 127.893C45.9697 126.464 48.4907 124.016 49.8045 120.55C51.1182 117.083 51.4195 113.564 50.7104 109.991C50.0014 106.419 48.3336 103.256 45.7062 100.504C43.0798 97.7515 39.7701 96.376 35.7773 96.376ZM27.5028 53.9034C29.1311 53.0559 30.6417 51.7865 32.034 50.0924C33.4263 48.3993 34.7132 46.5859 35.8956 44.6543C37.077 42.7228 38.1024 40.7511 38.9686 38.7394C39.8357 36.7287 40.5319 34.9033 41.057 33.2623C41.6348 31.516 42.0286 29.5574 42.2394 27.3874C42.4493 25.2174 42.1081 23.392 41.2151 21.9093C40.5846 20.5868 39.7572 19.8194 38.7329 19.607C37.7076 19.3956 36.6832 19.4748 35.6589 19.8455C34.6346 20.2161 33.663 20.8112 32.7431 21.6318C31.8242 22.4523 31.1539 23.1796 30.7342 23.8148C29.5776 25.8786 28.5663 28.1809 27.6998 30.7216C26.8329 33.2623 26.2418 35.8951 25.9267 38.6212C25.6114 41.3462 25.5721 43.9661 25.8085 46.4807C26.0448 48.9944 26.6096 51.4689 27.5028 53.9034ZM25.1387 56.364C24.2455 52.8715 23.4575 49.4442 22.7745 46.083C22.0915 42.7228 21.7501 39.2694 21.7501 35.7228C21.7501 33.13 21.9339 30.2848 22.3017 27.189C22.6694 24.0933 23.3392 21.0757 24.3112 18.1383C25.2831 15.2009 26.6227 12.568 28.3302 10.2397C30.0381 7.91038 32.3095 6.21725 35.1468 5.15829C35.4093 5.0531 35.6718 5 35.9344 5C36.3023 5 36.7359 5.21139 37.2352 5.63517C37.7344 6.05796 38.2595 6.68011 38.8114 7.50062C39.3624 8.32114 39.8487 9.16771 40.2693 10.0413C40.689 10.9139 41.0043 11.51 41.2151 11.8276C42.6332 14.5266 43.6705 17.3979 44.3278 20.4406C44.9842 23.4842 45.3651 26.5138 45.4705 29.5304C45.6803 34.0828 45.4307 38.5811 44.7216 43.0273C44.0126 47.4725 42.5805 51.8126 40.4265 56.0464C39.6915 57.3168 38.9427 58.6001 38.1809 59.8965C37.4192 61.1939 36.5132 62.4502 35.462 63.6675C35.2522 63.8799 34.8713 64.2636 34.3193 64.8186C33.7674 65.3747 33.2025 65.9437 32.6247 66.5258C32.0469 67.1079 31.5348 67.6509 31.0883 68.1528C30.6417 68.6557 30.419 68.9603 30.419 69.0665L33.6491 84.9438C33.6699 85.048 35.2651 84.9438 35.2651 84.9438C38.348 84.9829 41.6119 85.4859 44.4462 86.6109C47.178 87.8813 49.529 89.6275 51.4991 91.8506C53.4691 94.0737 55.0444 96.5744 56.2268 99.3525C57.4093 102.132 58 104.95 58 107.808C58 110.665 57.5793 113.577 56.739 116.54C54.5849 122.151 51.144 126.305 46.4162 129.004C45.8902 129.322 45.1413 129.68 44.1697 130.076C43.1981 130.473 42.8172 131.095 43.027 131.942C44.2881 137.708 45.1413 141.676 45.5888 143.85C46.0354 146.024 46.3635 148.829 46.5734 152.265C46.7832 155.551 46.2183 158.507 44.8788 161.152C43.5392 163.807 41.7402 165.961 39.4807 167.624C37.2222 169.297 35.1597 170.269 33.295 170.569C31.4294 170.86 30.1554 171 29.4732 171C27.1087 171 24.7972 170.549 22.5381 169.648C19.7536 168.596 17.4158 166.983 15.5245 164.809C13.6332 162.635 12.6875 159.99 12.6875 156.874C12.6875 154.91 13.2523 152.897 14.3818 150.833C15.5114 148.769 16.9955 147.286 18.8342 146.395C20.8832 145.333 22.7351 145.042 24.39 145.513C26.0448 145.994 27.4108 146.895 28.4878 148.218C29.5647 149.54 30.3136 151.143 30.7342 153.017C31.1539 154.9 31.128 156.653 30.6547 158.297C30.1823 159.94 29.2236 161.332 27.7786 162.464C26.3338 163.606 24.3243 164.117 21.7501 164.017C22.8007 165.921 24.2718 167.123 26.1631 167.624C28.0544 168.135 29.9983 168.165 31.9942 167.744C33.9912 167.323 35.8688 166.542 37.629 165.4C39.3892 164.268 40.7686 163.035 41.766 161.713C42.3965 160.761 42.8699 159.519 43.1852 157.986C43.5004 156.443 43.6844 154.85 43.7361 153.177C43.7888 151.514 43.7361 150.212 43.579 149.29C43.4209 148.358 43.1583 146.915 42.7904 144.962C41.2151 138.56 40.2166 134.533 39.796 132.89C39.5861 132.366 39.0213 132.193 38.1024 132.379C37.1825 132.564 36.4078 132.736 35.7773 132.89C31.2593 133.481 27.4765 133.21 24.4294 132.101C19.7011 130.831 15.5376 128.568 11.9389 125.313C8.34014 122.058 5.45067 118.115 3.27036 113.484C1.09015 108.853 0 105.334 0 102.925C0 100.518 0 98.9958 0 98.3607C0 94.0737 0.73552 90.0513 2.20656 86.2933C4.99092 80.4185 8.28763 75.0205 12.0965 70.0984C15.9054 65.1763 20.2528 60.5978 25.1387 56.364Z" fill="#1C1A1A"/>
<path d="M358.097 118.514C352.453 116.805 348 112.161 348 107.984C348 96.1601 373.813 91.4812 384.473 101.372C396 112.069 377.188 124.295 358.097 118.514H358.097ZM375.315 115.544C378.455 110.829 375.453 101.486 370.013 99.0476C362.025 95.4667 357.129 101.569 360.456 110.959C362.757 117.453 372.119 120.343 375.315 115.544Z" fill="#1C1A1A"/>
<path d="M290.097 131.514C284.453 129.805 280 125.161 280 120.984C280 109.16 305.813 104.481 316.473 114.372C328 125.069 309.188 137.295 290.097 131.514H290.097ZM307.315 128.544C310.455 123.829 307.453 114.486 302.013 112.048C294.025 108.467 289.129 114.569 292.456 123.959C294.757 130.453 304.119 133.343 307.315 128.544Z" fill="#1C1A1A"/>
<path d="M223.097 143.514C217.453 141.805 213 137.161 213 132.984C213 121.16 238.813 116.481 249.473 126.372C261 137.069 242.188 149.295 223.097 143.514H223.097ZM240.315 140.544C243.455 135.829 240.453 126.486 235.013 124.048C227.025 120.467 222.129 126.569 225.456 135.959C227.757 142.453 237.119 145.343 240.315 140.544Z" fill="#1C1A1A"/>
<path d="M428.097 106.514C422.453 104.805 418 100.161 418 95.9836C418 84.1601 443.813 79.4812 454.473 89.3725C466 100.069 447.188 112.295 428.097 106.514H428.097ZM445.315 103.544C448.455 98.8287 445.453 89.486 440.013 87.0476C432.025 83.4667 427.129 89.5689 430.456 98.9586C432.757 105.453 442.119 108.343 445.315 103.544Z" fill="#1C1A1A"/>
<path d="M698.097 56.5145C692.453 54.8054 688 50.1609 688 45.9836C688 34.1601 713.813 29.4812 724.473 39.3725C736 50.0687 717.188 62.2953 698.097 56.5145H698.097ZM715.315 53.5442C718.455 48.8287 715.453 39.486 710.013 37.0476C702.025 33.4667 697.129 39.5689 700.456 48.9586C702.757 55.4532 712.119 58.3425 715.315 53.5442Z" fill="#1C1A1A"/>
<path d="M638.097 68.5145C632.453 66.8054 628 62.1609 628 57.9836C628 46.1601 653.813 41.4812 664.473 51.3725C676 62.0687 657.188 74.2953 638.097 68.5145H638.097ZM655.315 65.5442C658.455 60.8287 655.453 51.486 650.013 49.0476C642.025 45.4667 637.129 51.5689 640.456 60.9586C642.757 67.4532 652.119 70.3425 655.315 65.5442Z" fill="#1C1A1A"/>
<path d="M563.097 81.5145C557.453 79.8054 553 75.1609 553 70.9836C553 59.1601 578.813 54.4812 589.473 64.3725C601 75.0687 582.188 87.2953 563.097 81.5145H563.097ZM580.315 78.5442C583.455 73.8287 580.453 64.486 575.013 62.0476C567.025 58.4667 562.129 64.5689 565.456 73.9586C567.757 80.4532 577.119 83.3425 580.315 78.5442Z" fill="#1C1A1A"/>
<path d="M493.097 93.5145C487.453 91.8054 483 87.1609 483 82.9836C483 71.1601 508.813 66.4812 519.473 76.3725C531 87.0687 512.188 99.2953 493.097 93.5145H493.097ZM510.315 90.5442C513.455 85.8287 510.453 76.486 505.013 74.0476C497.025 70.4667 492.129 76.5689 495.456 85.9586C497.757 92.4532 507.119 95.3425 510.315 90.5442Z" fill="#1C1A1A"/>
<path d="M623.491 40.3999V91.0178H620.734V72.0472L606 75.2385V24H608.65V43.7685L623.491 40.3999ZM608.65 52.2787V66.1964L620.734 63.537V49.6192L608.65 52.2787Z" fill="black"/>
<path d="M64.4754 37V68.0906C64.4754 68.0906 64.4754 70.1864 64.4754 74.3778C67.3316 71.6927 70.537 70.3173 74.0914 70.2518C76.3129 70.2519 78.2171 71.2015 79.8039 73.1007C81.2003 74.869 81.9302 76.8337 81.9937 78.9949C82.0571 80.6977 81.6446 82.6624 80.756 84.8891C80.4386 85.806 79.7404 86.7884 78.6614 87.8363C77.8362 88.6222 76.9794 89.4408 76.0908 90.2922C71.3938 93.8287 66.6969 97.398 62 101V37H64.4754ZM72.1872 76.539C71.4256 75.6221 70.4418 75.1637 69.2358 75.1637C67.7125 75.1637 66.4748 76.0478 65.5227 77.8161C64.8245 79.1914 64.4754 82.4332 64.4754 87.5415V95.9899C64.5389 96.2519 66.3161 94.6473 69.8071 91.1763C71.7112 89.3426 72.9489 87.1813 73.5202 84.6927C73.774 83.7103 73.901 82.7279 73.901 81.7456C73.901 79.5844 73.3297 77.8488 72.1872 76.539Z" fill="#1C1A1A"/>
<path d="M88.4754 0V31.0906C88.4754 31.0906 88.4754 33.1864 88.4754 37.3778C91.3316 34.6927 94.537 33.3173 98.0914 33.2518C100.313 33.2519 102.217 34.2015 103.804 36.1007C105.2 37.869 105.93 39.8337 105.994 41.9949C106.057 43.6977 105.645 45.6624 104.756 47.8891C104.439 48.806 103.74 49.7884 102.661 50.8363C101.836 51.6222 100.979 52.4408 100.091 53.2922C95.3938 56.8287 90.6969 60.398 86 64V0H88.4754ZM96.1872 39.539C95.4256 38.6221 94.4418 38.1637 93.2358 38.1637C91.7125 38.1637 90.4748 39.0478 89.5227 40.8161C88.8245 42.1914 88.4754 45.4332 88.4754 50.5415V58.9899C88.5389 59.2519 90.3161 57.6473 93.8071 54.1763C95.7112 52.3426 96.9489 50.1813 97.5202 47.6927C97.774 46.7103 97.901 45.7279 97.901 44.7456C97.901 42.5844 97.3297 40.8488 96.1872 39.539Z" fill="#1C1A1A"/>
<path d="M112.475 50V81.0906C112.475 81.0906 112.475 83.1864 112.475 87.3778C115.332 84.6927 118.537 83.3173 122.091 83.2518C124.313 83.2519 126.217 84.2015 127.804 86.1007C129.2 87.869 129.93 89.8337 129.994 91.9949C130.057 93.6977 129.645 95.6624 128.756 97.8891C128.439 98.806 127.74 99.7884 126.661 100.836C125.836 101.622 124.979 102.441 124.091 103.292C119.394 106.829 114.697 110.398 110 114V50H112.475ZM120.187 89.539C119.426 88.6221 118.442 88.1637 117.236 88.1637C115.712 88.1637 114.475 89.0478 113.523 90.8161C112.824 92.1914 112.475 95.4332 112.475 100.542V108.99C112.539 109.252 114.316 107.647 117.807 104.176C119.711 102.343 120.949 100.181 121.52 97.6927C121.774 96.7103 121.901 95.7279 121.901 94.7456C121.901 92.5844 121.33 90.8488 120.187 89.539Z" fill="#1C1A1A"/>
<path d="M136.475 14V45.0906C136.475 45.0906 136.475 47.1864 136.475 51.3778C139.332 48.6927 142.537 47.3173 146.091 47.2518C148.313 47.2519 150.217 48.2015 151.804 50.1007C153.2 51.869 153.93 53.8337 153.994 55.9949C154.057 57.6977 153.645 59.6624 152.756 61.8891C152.439 62.806 151.74 63.7884 150.661 64.8363C149.836 65.6222 148.979 66.4408 148.091 67.2922C143.394 70.8287 138.697 74.398 134 78V14H136.475ZM144.187 53.539C143.426 52.6221 142.442 52.1637 141.236 52.1637C139.712 52.1637 138.475 53.0478 137.523 54.8161C136.824 56.1914 136.475 59.4332 136.475 64.5415V72.9899C136.539 73.2519 138.316 71.6473 141.807 68.1763C143.711 66.3426 144.949 64.1813 145.52 61.6927C145.774 60.7103 145.901 59.7279 145.901 58.7456C145.901 56.5844 145.33 54.8488 144.187 53.539Z" fill="#1C1A1A"/>
<path d="M160.475 61V92.0906C160.475 92.0906 160.475 94.1864 160.475 98.3778C163.332 95.6927 166.537 94.3173 170.091 94.2518C172.313 94.2519 174.217 95.2015 175.804 97.1007C177.2 98.869 177.93 100.834 177.994 102.995C178.057 104.698 177.645 106.662 176.756 108.889C176.439 109.806 175.74 110.788 174.661 111.836C173.836 112.622 172.979 113.441 172.091 114.292C167.394 117.829 162.697 121.398 158 125V61H160.475ZM168.187 100.539C167.426 99.6221 166.442 99.1637 165.236 99.1637C163.712 99.1637 162.475 100.048 161.523 101.816C160.824 103.191 160.475 106.433 160.475 111.542V119.99C160.539 120.252 162.316 118.647 165.807 115.176C167.711 113.343 168.949 111.181 169.52 108.693C169.774 107.71 169.901 106.728 169.901 105.746C169.901 103.584 169.33 101.849 168.187 100.539Z" fill="#1C1A1A"/>
<path d="M184.475 25V56.0906C184.475 56.0906 184.475 58.1864 184.475 62.3778C187.332 59.6927 190.537 58.3173 194.091 58.2518C196.313 58.2519 198.217 59.2015 199.804 61.1007C201.2 62.869 201.93 64.8337 201.994 66.9949C202.057 68.6977 201.645 70.6624 200.756 72.8891C200.439 73.806 199.74 74.7884 198.661 75.8363C197.836 76.6222 196.979 77.4408 196.091 78.2922C191.394 81.8287 186.697 85.398 182 89V25H184.475ZM192.187 64.539C191.426 63.6221 190.442 63.1637 189.236 63.1637C187.712 63.1637 186.475 64.0478 185.523 65.8161C184.824 67.1914 184.475 70.4332 184.475 75.5415V83.9899C184.539 84.2519 186.316 82.6473 189.807 79.1763C191.711 77.3426 192.949 75.1813 193.52 72.6927C193.774 71.7103 193.901 70.7279 193.901 69.7456C193.901 67.5844 193.33 65.8488 192.187 64.539Z" fill="#1C1A1A"/>
</svg>
