<svg width="813.5" height="184" viewBox="0 0 813.5 184" fill="none" xmlns="http://www.w3.org/2000/svg">
<line x1="1" y1="46.5" x2="813.5" y2="46.5" stroke="#1C1A1A"/>
<line x1="1" y1="71.5" x2="813.5" y2="71.5" stroke="#1C1A1A"/>
<line x1="1" y1="96.5" x2="813.5" y2="96.5" stroke="#1C1A1A"/>
<line x1="1" y1="121.5" x2="813.5" y2="121.5" stroke="#1C1A1A"/>
<line x1="1" y1="146.5" x2="813.5" y2="146.5" stroke="#1C1A1A"/>
<path d="M364.097 106.514C358.453 104.805 354 100.161 354 95.9836C354 84.1601 379.813 79.4812 390.473 89.3725C402 100.069 383.188 112.295 364.097 106.514H364.097ZM381.315 103.544C384.455 98.8287 381.453 89.486 376.013 87.0476C368.025 83.4667 363.129 89.5689 366.456 98.9586C368.757 105.453 378.119 108.343 381.315 103.544Z" fill="#1C1A1A"/>
<path d="M297.097 119.514C291.453 117.805 287 113.161 287 108.984C287 97.1601 312.813 92.4812 323.473 102.372C335 113.069 316.188 125.295 297.097 119.514H297.097ZM314.315 116.544C317.455 111.829 314.453 102.486 309.013 100.048C301.025 96.4667 296.129 102.569 299.456 111.959C301.757 118.453 311.119 121.343 314.315 116.544Z" fill="#1C1A1A"/>
<path d="M230.097 131.514C224.453 129.805 220 125.161 220 120.984C220 109.16 245.813 104.481 256.473 114.372C268 125.069 249.188 137.295 230.097 131.514H230.097ZM247.315 128.544C250.455 123.829 247.453 114.486 242.013 112.048C234.025 108.467 229.129 114.569 232.456 123.959C234.757 130.453 244.119 133.343 247.315 128.544Z" fill="#1C1A1A"/>
<path d="M431.097 94.5145C425.453 92.8054 421 88.1609 421 83.9836C421 72.1601 446.813 67.4812 457.473 77.3725C469 88.0687 450.188 100.295 431.097 94.5145H431.097ZM448.315 91.5442C451.455 86.8287 448.453 77.486 443.013 75.0476C435.025 71.4667 430.129 77.5689 433.456 86.9586C435.757 93.4532 445.119 96.3425 448.315 91.5442Z" fill="#1C1A1A"/>
<path d="M699.097 44.5145C693.453 42.8054 689 38.1609 689 33.9836C689 22.1601 714.813 17.4812 725.473 27.3725C737 38.0687 718.188 50.2953 699.097 44.5145H699.097ZM716.315 41.5442C719.455 36.8287 716.453 27.486 711.013 25.0476C703.025 21.4667 698.129 27.5689 701.456 36.9586C703.757 43.4532 713.119 46.3425 716.315 41.5442Z" fill="#1C1A1A"/>
<path d="M632.097 56.5145C626.453 54.8054 622 50.1609 622 45.9836C622 34.1601 647.813 29.4812 658.473 39.3725C670 50.0687 651.188 62.2953 632.097 56.5145H632.097ZM649.315 53.5442C652.455 48.8287 649.453 39.486 644.013 37.0476C636.025 33.4667 631.129 39.5689 634.456 48.9586C636.757 55.4532 646.119 58.3425 649.315 53.5442Z" fill="#1C1A1A"/>
<path d="M565.097 69.5145C559.453 67.8054 555 63.1609 555 58.9836C555 47.1601 580.813 42.4812 591.473 52.3725C603 63.0687 584.188 75.2953 565.097 69.5145H565.097ZM582.315 66.5442C585.455 61.8287 582.453 52.486 577.013 50.0476C569.025 46.4667 564.129 52.5689 567.456 61.9586C569.757 68.4532 579.119 71.3425 582.315 66.5442Z" fill="#1C1A1A"/>
<path d="M498.097 81.5145C492.453 79.8054 488 75.1609 488 70.9836C488 59.1601 513.813 54.4812 524.473 64.3725C536 75.0687 517.188 87.2953 498.097 81.5145H498.097ZM515.315 78.5442C518.455 73.8287 515.453 64.486 510.013 62.0476C502.025 58.4667 497.129 64.5689 500.456 73.9586C502.757 80.4532 512.119 83.3425 515.315 78.5442Z" fill="#1C1A1A"/>
<path d="M597.631 37.1402C597.486 37.216 597.355 37.3271 597.237 37.4732C597.118 37.6193 597.039 37.7653 597 37.9113C597.021 38.2735 597.12 39.319 597.298 41.048C597.476 42.7771 597.61 43.8577 597.701 44.2899C597.853 44.9091 598.32 45.2128 599.103 45.2012C599.745 45.2052 600.388 45.2671 601.03 45.3852C601.673 45.5034 602.245 45.6524 602.748 45.832C603.043 45.946 603.347 46.1037 603.659 46.3052C603.972 46.5067 604.205 46.6995 604.36 46.8835L604.57 47.0938L604.29 47.3041C603.78 47.8006 603.065 48.192 602.143 48.4782C601.222 48.7644 600.208 48.9105 599.103 48.9163C598.32 48.9044 597.853 49.2084 597.701 49.8275C597.61 50.2627 597.476 51.355 597.298 53.1045C597.12 54.8539 597.02 55.9112 597 56.2763C597.048 56.4296 597.162 56.5961 597.342 56.7757C597.521 56.9553 597.688 57.0692 597.841 57.1174C598.237 57.0944 599.303 56.9831 601.039 56.7845C602.776 56.5858 603.859 56.4398 604.29 56.3464C604.635 56.2586 604.874 56.0835 605.008 55.8207C605.143 55.5578 605.207 55.1022 605.201 54.4538C605.238 53.9223 605.305 53.4082 605.403 52.9117C605.5 52.4152 605.62 51.9712 605.762 51.5799C605.876 51.2484 606.034 50.9126 606.235 50.5723C606.437 50.232 606.629 49.9837 606.813 49.8275L607.024 49.6172L607.234 49.8275C607.418 49.9838 607.611 50.232 607.812 50.5723C608.014 50.9125 608.171 51.2484 608.285 51.5799C608.427 51.9713 608.547 52.4152 608.645 52.9117C608.742 53.4082 608.81 53.9222 608.846 54.4538C608.84 55.1022 608.905 55.5578 609.039 55.8207C609.173 56.0835 609.413 56.2587 609.757 56.3464C610.188 56.4401 611.272 56.5858 613.008 56.7845C614.744 56.9831 615.81 57.094 616.206 57.1174C616.359 57.0694 616.526 56.9553 616.706 56.7757C616.885 56.5961 616.999 56.4295 617.047 56.2763C617.026 55.9112 616.928 54.8539 616.749 53.1045C616.571 51.355 616.437 50.2627 616.346 49.8275C616.195 49.2083 615.727 48.9046 614.945 48.9163C614.302 48.9123 613.659 48.8504 613.017 48.7323C612.374 48.614 611.802 48.465 611.3 48.2854C611.005 48.1715 610.701 48.0138 610.388 47.8123C610.076 47.6107 609.842 47.418 609.687 47.234L609.477 47.0237L609.757 46.8134C610.267 46.3169 610.983 45.9254 611.904 45.6393C612.826 45.3531 613.839 45.207 614.945 45.2012C615.727 45.2131 616.195 44.9091 616.346 44.2899C616.437 43.8548 616.571 42.7624 616.749 41.013C616.928 39.2635 617.027 38.2063 617.047 37.8412C617 37.6878 616.885 37.5214 616.706 37.3418C616.526 37.1622 616.36 37.0483 616.206 37C615.81 37.023 614.744 37.1343 613.008 37.333C611.272 37.5316 610.188 37.6776 609.757 37.7711C609.413 37.8589 609.173 38.0339 609.039 38.2968C608.905 38.5597 608.84 39.0153 608.846 39.6637C608.809 40.1953 608.742 40.7092 608.645 41.2057C608.547 41.7023 608.427 42.1462 608.285 42.5376C608.172 42.869 608.014 43.2049 607.812 43.5452C607.611 43.8854 607.418 44.1337 607.234 44.2899L607.024 44.5002L606.813 44.2899C606.629 44.1336 606.437 43.8854 606.235 43.5452C606.034 43.2049 605.876 42.8691 605.762 42.5375C605.62 42.1462 605.501 41.7023 605.403 41.2057C605.305 40.7092 605.238 40.1952 605.201 39.6636C605.207 39.0153 605.142 38.5596 605.008 38.2968C604.874 38.0339 604.635 37.8587 604.29 37.7711C603.934 37.6774 602.911 37.5315 601.223 37.333C599.535 37.1343 598.478 37.0234 598.051 37C597.911 37.0119 597.771 37.0588 597.631 37.1402Z" fill="black"/>
<path d="M537.523 68.5005V51.6585L544.368 49.6821V66.4382L537.523 68.5005ZM551 64.426L546.294 65.8367V49.0806L551 47.7058V40.7456L546.294 42.1204V25H544.368V42.6396L537.523 44.6983V28.0505H535.706V45.332L531 46.7104V53.685L535.706 52.3101V69.0339L531 70.4052V77.3511L535.706 75.9762V93H537.523V75.3676L544.368 73.3984V89.9603H546.294V72.7754L551 71.397V64.426Z" fill="#1C1A1A"/>
<path d="M97.5229 56.5005V39.6585L104.368 37.6821V54.4382L97.5229 56.5005ZM111 52.426L106.294 53.8367V37.0806L111 35.7058V28.7456L106.294 30.1204V13H104.368V30.6396L97.5229 32.6983V16.0505H95.7057V33.332L91 34.7104V41.685L95.7057 40.3101V57.0339L91 58.4052V65.3511L95.7057 63.9762V81H97.5229V63.3676L104.368 61.3984V77.9603H106.294V60.7754L111 59.397V52.426Z" fill="#1C1A1A"/>
<path d="M121.523 94.5005V77.6585L128.368 75.6821V92.4382L121.523 94.5005ZM135 90.426L130.294 91.8367V75.0806L135 73.7058V66.7456L130.294 68.1204V51H128.368V68.6396L121.523 70.6983V54.0505H119.706V71.332L115 72.7104V79.685L119.706 78.3101V95.0339L115 96.4052V103.351L119.706 101.976V119H121.523V101.368L128.368 99.3984V115.96H130.294V98.7754L135 97.397V90.426Z" fill="#1C1A1A"/>
<path d="M145.523 43.5005V26.6585L152.368 24.6821V41.4382L145.523 43.5005ZM159 39.426L154.294 40.8367V24.0806L159 22.7058V15.7456L154.294 17.1204V0H152.368V17.6396L145.523 19.6983V3.05046H143.706V20.332L139 21.7104V28.685L143.706 27.3101V44.0339L139 45.4052V52.3511L143.706 50.9762V68H145.523V50.3676L152.368 48.3984V64.9603H154.294V47.7754L159 46.397V39.426Z" fill="#1C1A1A"/>
<path d="M169.523 81.5005V64.6585L176.368 62.6821V79.4382L169.523 81.5005ZM183 77.426L178.294 78.8367V62.0806L183 60.7058V53.7456L178.294 55.1204V38H176.368V55.6396L169.523 57.6983V41.0505H167.706V58.332L163 59.7104V66.685L167.706 65.3101V82.0339L163 83.4052V90.3511L167.706 88.9762V106H169.523V88.3676L176.368 86.3984V102.96H178.294V85.7754L183 84.397V77.426Z" fill="#1C1A1A"/>
<path d="M193.523 117.5V100.658L200.368 98.6821V115.438L193.523 117.5ZM207 113.426L202.294 114.837V98.0806L207 96.7058V89.7456L202.294 91.1204V74H200.368V91.6396L193.523 93.6983V77.0505H191.706V94.332L187 95.7104V102.685L191.706 101.31V118.034L187 119.405V126.351L191.706 124.976V142H193.523V124.368L200.368 122.398V138.96H202.294V121.775L207 120.397V113.426Z" fill="#1C1A1A"/>
<path d="M27.1226 120.24C24.7962 122.193 12.4703 129.891 4.9764 131C7.10156 129.891 7.77263 129.225 13.5888 125.565C19.306 121.967 26.3397 114.694 32.2677 107.817C37.0101 102.315 39.9108 93.619 40.7683 89.9586C42.2894 86.3203 42.2223 78.1638 41.9986 74.5403C41.9613 71.0278 40.4104 62.605 34.5047 57.0145C27.1226 50.0264 19.6287 53.9087 18.2865 54.3524C16.9443 54.7961 12.3585 58.0128 11.0163 60.8968C9.94251 63.204 10.5689 63.9287 11.0163 64.0026C15.273 62.117 19.3501 63.2001 21.8721 65.0009C24.6684 66.9976 27.0172 69.9925 26.7935 74.5403C26.6146 78.1786 24.824 80.8629 23.4818 82.194C20.6855 85.2998 16.1986 85.6326 13.7007 85.6326C7.66078 85.2998 3.86507 80.9743 3.07496 79.6428C2.74586 79.0881 -0.391563 74.0966 1.73276 65.4446C3.48062 58.326 10.1588 52.7625 13.477 50.9138C24.1027 45.4785 31.5966 46.7295 36.4062 48.5844C42.446 50.9138 49.9901 58.1237 51.8414 64.4463C53.6927 70.7689 54.6376 75.7605 53.5191 81.8612C52.4006 87.962 50.8348 92.177 45.1304 101.384C39.4261 110.59 30.0307 117.8 27.1226 120.24Z" fill="black"/>
<path d="M4.9764 131L4.74504 130.557C4.52868 130.67 4.42547 130.922 4.50085 131.154C4.57623 131.387 4.80818 131.53 5.04961 131.495L4.9764 131ZM27.1226 120.24L26.8012 119.857L27.1226 120.24ZM45.1304 101.384L45.5555 101.647L45.1304 101.384ZM51.8414 64.4463L52.3213 64.3058L51.8414 64.4463ZM36.4062 48.5844L36.5861 48.1179V48.1179L36.4062 48.5844ZM13.477 50.9138L13.2493 50.4686L13.2414 50.4727L13.2336 50.477L13.477 50.9138ZM1.73276 65.4446L2.21834 65.5639L1.73276 65.4446ZM3.07496 79.6428L2.64496 79.8979H2.64496L3.07496 79.6428ZM13.7007 85.6326L13.6732 86.1318L13.6869 86.1326H13.7007V85.6326ZM23.4818 82.194L23.1297 81.839L23.1196 81.8489L23.1102 81.8594L23.4818 82.194ZM26.7935 74.5403L26.2941 74.5157L26.7935 74.5403ZM21.8721 65.0009L22.1627 64.594L21.8721 65.0009ZM11.0163 64.0026L10.9347 64.496L11.0822 64.5203L11.2188 64.4598L11.0163 64.0026ZM11.0163 60.8968L11.4696 61.1078L11.0163 60.8968ZM18.2865 54.3524L18.4434 54.8271L18.2865 54.3524ZM34.5047 57.0145L34.161 57.3776L34.5047 57.0145ZM41.9986 74.5403L41.4986 74.5456L41.4988 74.5584L41.4996 74.5711L41.9986 74.5403ZM40.7683 89.9586L40.307 89.7657L40.2909 89.8041L40.2814 89.8445L40.7683 89.9586ZM32.2677 107.817L31.889 107.491L32.2677 107.817ZM13.5888 125.565L13.8551 125.988L13.5888 125.565ZM5.04961 131.495C8.8889 130.926 13.9096 128.687 18.2233 126.377C22.5423 124.065 26.2412 121.633 27.444 120.624L26.8012 119.857C25.6776 120.8 22.0503 123.194 17.7513 125.496C13.447 127.8 8.55782 129.964 4.90319 130.505L5.04961 131.495ZM27.444 120.624C30.3278 118.204 39.7992 110.937 45.5555 101.647L44.7054 101.12C39.053 110.243 29.7337 117.397 26.8012 119.857L27.444 120.624ZM45.5555 101.647C51.2815 92.4054 52.8779 88.1314 54.0109 81.9514L53.0273 81.771C51.9234 87.7925 50.388 91.9487 44.7054 101.12L45.5555 101.647ZM54.0109 81.9514C55.1504 75.7362 54.1803 70.655 52.3213 64.3058L51.3615 64.5868C53.205 70.8829 54.1249 75.7847 53.0273 81.771L54.0109 81.9514ZM52.3213 64.3058C51.3632 61.0339 48.9526 57.5806 46.0488 54.6651C43.1422 51.7467 39.689 49.3146 36.5861 48.1179L36.2262 49.0509C39.1631 50.1835 42.502 52.5211 45.3402 55.3707C48.1812 58.2231 50.4683 61.5362 51.3615 64.5868L52.3213 64.3058ZM36.5861 48.1179C31.6555 46.2163 24.0124 44.9631 13.2493 50.4686L13.7047 51.3589C24.1929 45.994 31.5377 47.2427 36.2262 49.0509L36.5861 48.1179ZM13.2336 50.477C11.5252 51.4288 8.98435 53.3161 6.64743 55.8651C4.31098 58.4136 2.14795 61.6568 1.24718 65.3254L2.21834 65.5639C3.06543 62.1138 5.11541 59.0159 7.38454 56.5408C9.65322 54.0663 12.1106 52.2474 13.7203 51.3505L13.2336 50.477ZM1.24718 65.3254C-0.921034 74.1562 2.2821 79.2864 2.64496 79.8979L3.50495 79.3876C3.20962 78.8899 0.137908 74.0371 2.21834 65.5639L1.24718 65.3254ZM2.64496 79.8979C3.07914 80.6296 4.27552 82.0937 6.12826 83.4189C7.98869 84.7496 10.5371 85.959 13.6732 86.1318L13.7282 85.1333C10.8244 84.9734 8.45496 83.8536 6.71003 82.6055C4.95742 81.3519 3.86089 79.9874 3.50495 79.3876L2.64496 79.8979ZM13.7007 86.1326C16.2027 86.1326 20.8984 85.8107 23.8534 82.5285L23.1102 81.8594C20.4727 84.7889 16.1946 85.1326 13.7007 85.1326V86.1326ZM23.8339 82.549C25.2438 81.1507 27.1065 78.3543 27.2929 74.5649L26.2941 74.5157C26.1226 78.0028 24.4041 80.5751 23.1297 81.839L23.8339 82.549ZM27.2929 74.5649C27.5276 69.7942 25.0481 66.6543 22.1627 64.594L21.5816 65.4079C24.2887 67.3408 26.5069 70.1907 26.2941 74.5157L27.2929 74.5649ZM22.1627 64.594C19.5206 62.7075 15.2573 61.5771 10.8138 63.5455L11.2188 64.4598C15.2888 62.6568 19.1796 63.6928 21.5816 65.4079L22.1627 64.594ZM11.0978 63.5093C11.097 63.5092 11.0748 63.5052 11.0451 63.4727C11.0162 63.4412 10.9654 63.3659 10.9393 63.2065C10.8847 62.8729 10.9497 62.2249 11.4696 61.1078L10.563 60.6858C10.0091 61.876 9.85035 62.7439 9.95239 63.3679C10.0595 64.0228 10.466 64.4185 10.9347 64.496L11.0978 63.5093ZM11.4696 61.1078C12.0918 59.7709 13.5011 58.3042 14.9692 57.0955C15.6953 56.4977 16.4202 55.9757 17.0424 55.5778C17.6759 55.1727 18.1704 54.9173 18.4434 54.8271L18.1296 53.8776C17.7315 54.0092 17.1494 54.3224 16.5037 54.7353C15.8466 55.1555 15.0895 55.7011 14.3336 56.3235C12.8377 57.5551 11.283 59.1387 10.563 60.6858L11.4696 61.1078ZM18.4434 54.8271C19.1825 54.5828 21.2815 53.5438 24.1563 53.3958C26.9978 53.2496 30.579 53.9869 34.161 57.3776L34.8484 56.6514C31.0483 53.054 27.1915 52.2383 24.1049 52.3972C21.0517 52.5543 18.7327 53.6783 18.1296 53.8776L18.4434 54.8271ZM34.161 57.3776C39.9317 62.8404 41.4622 71.1084 41.4986 74.5456L42.4986 74.535C42.4605 70.9471 40.889 62.3696 34.8484 56.6514L34.161 57.3776ZM41.4996 74.5711C41.6105 76.3674 41.6827 79.2937 41.5384 82.2193C41.393 85.1656 41.0305 88.0352 40.307 89.7657L41.2296 90.1514C42.0272 88.2437 42.3917 85.2159 42.5372 82.2685C42.6836 79.3004 42.6105 76.3367 42.4977 74.5095L41.4996 74.5711ZM40.2814 89.8445C39.4308 93.4758 36.5535 102.079 31.889 107.491L32.6464 108.144C37.4668 102.551 40.3908 93.7622 41.2551 90.0726L40.2814 89.8445ZM31.889 107.491C25.961 114.368 18.9699 121.587 13.3225 125.142L13.8551 125.988C19.6422 122.346 26.7183 115.021 32.6464 108.144L31.889 107.491ZM13.3225 125.142C10.4095 126.975 8.78348 128.059 7.62388 128.821C6.46733 129.581 5.78498 130.014 4.74504 130.557L5.20776 131.443C6.29298 130.877 7.00874 130.422 8.17307 129.657C9.33434 128.894 10.9519 127.815 13.8551 125.988L13.3225 125.142Z" fill="black"/>
<ellipse cx="66.4852" cy="59.1558" rx="6.51452" ry="6.49758" fill="black"/>
<ellipse cx="66.4852" cy="83.647" rx="6.51452" ry="6.49758" fill="black"/>
</svg>
