<svg width="866.7" height="196" viewBox="0 0 866.7 196" fill="none" xmlns="http://www.w3.org/2000/svg">
<line x1="1" y1="58.5" x2="866.7" y2="58.5" stroke="#1C1A1A"/>
<line x1="1" y1="83.5" x2="866.7" y2="83.5" stroke="#1C1A1A"/>
<line x1="1" y1="108.5" x2="866.7" y2="108.5" stroke="#1C1A1A"/>
<line x1="1" y1="133.5" x2="866.7" y2="133.5" stroke="#1C1A1A"/>
<line x1="1" y1="158.5" x2="866.7" y2="158.5" stroke="#1C1A1A"/>
<path d="M364.097 93.5145C358.453 91.8054 354 87.1609 354 82.9836C354 71.1601 379.813 66.4812 390.473 76.3725C402 87.0687 383.188 99.2953 364.097 93.5145H364.097ZM381.315 90.5442C384.455 85.8287 381.453 76.486 376.013 74.0476C368.025 70.4667 363.129 76.5689 366.456 85.9586C368.757 92.4532 378.119 95.3425 381.315 90.5442Z" fill="#1C1A1A"/>
<path d="M297.097 106.514C291.453 104.805 287 100.161 287 95.9836C287 84.1601 312.813 79.4812 323.473 89.3725C335 100.069 316.188 112.295 297.097 106.514H297.097ZM314.315 103.544C317.455 98.8287 314.453 89.486 309.013 87.0476C301.025 83.4667 296.129 89.5689 299.456 98.9586C301.757 105.453 311.119 108.343 314.315 103.544Z" fill="#1C1A1A"/>
<path d="M230.097 118.514C224.453 116.805 220 112.161 220 107.984C220 96.1601 245.813 91.4812 256.473 101.372C268 112.069 249.188 124.295 230.097 118.514H230.097ZM247.315 115.544C250.455 110.829 247.453 101.486 242.013 99.0476C234.025 95.4667 229.129 101.569 232.456 110.959C234.757 117.453 244.119 120.343 247.315 115.544Z" fill="#1C1A1A"/>
<path d="M431.097 81.5145C425.453 79.8054 421 75.1609 421 70.9836C421 59.1601 446.813 54.4812 457.473 64.3725C469 75.0687 450.188 87.2953 431.097 81.5145H431.097ZM448.315 78.5442C451.455 73.8287 448.453 64.486 443.013 62.0476C435.025 58.4667 430.129 64.5689 433.456 73.9586C435.757 80.4532 445.119 83.3425 448.315 78.5442Z" fill="#1C1A1A"/>
<path d="M699.097 31.5145C693.453 29.8054 689 25.1609 689 20.9836C689 9.16009 714.813 4.48121 725.473 14.3725C737 25.0687 718.188 37.2953 699.097 31.5145H699.097ZM716.315 28.5442C719.455 23.8287 716.453 14.486 711.013 12.0476C703.025 8.46674 698.129 14.5689 701.456 23.9586C703.757 30.4532 713.119 33.3425 716.315 28.5442Z" fill="#1C1A1A"/>
<path d="M632.097 43.5145C626.453 41.8054 622 37.1609 622 32.9836C622 21.1601 647.813 16.4812 658.473 26.3725C670 37.0687 651.188 49.2953 632.097 43.5145H632.097ZM649.315 40.5442C652.455 35.8287 649.453 26.486 644.013 24.0476C636.025 20.4667 631.129 26.5689 634.456 35.9586C636.757 42.4532 646.119 45.3425 649.315 40.5442Z" fill="#1C1A1A"/>
<path d="M565.097 56.5145C559.453 54.8054 555 50.1609 555 45.9836C555 34.1601 580.813 29.4812 591.473 39.3725C603 50.0687 584.188 62.2953 565.097 56.5145H565.097ZM582.315 53.5442C585.455 48.8287 582.453 39.486 577.013 37.0476C569.025 33.4667 564.129 39.5689 567.456 48.9586C569.757 55.4532 579.119 58.3425 582.315 53.5442Z" fill="#1C1A1A"/>
<path d="M498.097 68.5145C492.453 66.8054 488 62.1609 488 57.9836C488 46.1601 513.813 41.4812 524.473 51.3725C536 62.0687 517.188 74.2953 498.097 68.5145H498.097ZM515.315 65.5442C518.455 60.8287 515.453 51.486 510.013 49.0476C502.025 45.4667 497.129 51.5689 500.456 60.9586C502.757 67.4532 512.119 70.3425 515.315 65.5442Z" fill="#1C1A1A"/>
<path d="M617.491 16.3999V67.0178H614.734V48.0472L600 51.2385V0H602.65V19.7685L617.491 16.3999ZM602.65 28.2787V42.1964L614.734 39.537V25.6192L602.65 28.2787Z" fill="black"/>
<path d="M550.491 27.3999V78.0178H547.734V59.0472L533 62.2385V11H535.65V30.7685L550.491 27.3999ZM535.65 39.2787V53.1964L547.734 50.537V36.6192L535.65 39.2787Z" fill="black"/>
<path d="M93.4754 62V93.0906C93.4754 93.0906 93.4754 95.1864 93.4754 99.3778C96.3316 96.6927 99.537 95.3173 103.091 95.2518C105.313 95.2519 107.217 96.2015 108.804 98.1007C110.2 99.869 110.93 101.834 110.994 103.995C111.057 105.698 110.645 107.662 109.756 109.889C109.439 110.806 108.74 111.788 107.661 112.836C106.836 113.622 105.979 114.441 105.091 115.292C100.394 118.829 95.6969 122.398 91 126V62H93.4754ZM101.187 101.539C100.426 100.622 99.4418 100.164 98.2358 100.164C96.7125 100.164 95.4748 101.048 94.5227 102.816C93.8245 104.191 93.4754 107.433 93.4754 112.542V120.99C93.5389 121.252 95.3161 119.647 98.8071 116.176C100.711 114.343 101.949 112.181 102.52 109.693C102.774 108.71 102.901 107.728 102.901 106.746C102.901 104.584 102.33 102.849 101.187 101.539Z" fill="#1C1A1A"/>
<path d="M117.475 25V56.0906C117.475 56.0906 117.475 58.1864 117.475 62.3778C120.332 59.6927 123.537 58.3173 127.091 58.2518C129.313 58.2519 131.217 59.2015 132.804 61.1007C134.2 62.869 134.93 64.8337 134.994 66.9949C135.057 68.6977 134.645 70.6624 133.756 72.8891C133.439 73.806 132.74 74.7884 131.661 75.8363C130.836 76.6222 129.979 77.4408 129.091 78.2922C124.394 81.8287 119.697 85.398 115 89V25H117.475ZM125.187 64.539C124.426 63.6221 123.442 63.1637 122.236 63.1637C120.712 63.1637 119.475 64.0478 118.523 65.8161C117.824 67.1914 117.475 70.4332 117.475 75.5415V83.9899C117.539 84.2519 119.316 82.6473 122.807 79.1763C124.711 77.3426 125.949 75.1813 126.52 72.6927C126.774 71.7103 126.901 70.7279 126.901 69.7456C126.901 67.5844 126.33 65.8488 125.187 64.539Z" fill="#1C1A1A"/>
<path d="M141.475 75V106.091C141.475 106.091 141.475 108.186 141.475 112.378C144.332 109.693 147.537 108.317 151.091 108.252C153.313 108.252 155.217 109.201 156.804 111.101C158.2 112.869 158.93 114.834 158.994 116.995C159.057 118.698 158.645 120.662 157.756 122.889C157.439 123.806 156.74 124.788 155.661 125.836C154.836 126.622 153.979 127.441 153.091 128.292C148.394 131.829 143.697 135.398 139 139V75H141.475ZM149.187 114.539C148.426 113.622 147.442 113.164 146.236 113.164C144.712 113.164 143.475 114.048 142.523 115.816C141.824 117.191 141.475 120.433 141.475 125.542V133.99C141.539 134.252 143.316 132.647 146.807 129.176C148.711 127.343 149.949 125.181 150.52 122.693C150.774 121.71 150.901 120.728 150.901 119.746C150.901 117.584 150.33 115.849 149.187 114.539Z" fill="#1C1A1A"/>
<path d="M189.475 86V117.091C189.475 117.091 189.475 119.186 189.475 123.378C192.332 120.693 195.537 119.317 199.091 119.252C201.313 119.252 203.217 120.201 204.804 122.101C206.2 123.869 206.93 125.834 206.994 127.995C207.057 129.698 206.645 131.662 205.756 133.889C205.439 134.806 204.74 135.788 203.661 136.836C202.836 137.622 201.979 138.441 201.091 139.292C196.394 142.829 191.697 146.398 187 150V86H189.475ZM197.187 125.539C196.426 124.622 195.442 124.164 194.236 124.164C192.712 124.164 191.475 125.048 190.523 126.816C189.824 128.191 189.475 131.433 189.475 136.542V144.99C189.539 145.252 191.316 143.647 194.807 140.176C196.711 138.343 197.949 136.181 198.52 133.693C198.774 132.71 198.901 131.728 198.901 130.746C198.901 128.584 198.33 126.849 197.187 125.539Z" fill="#1C1A1A"/>
<path d="M165.475 39V70.0906C165.475 70.0906 165.475 72.1864 165.475 76.3778C168.332 73.6927 171.537 72.3173 175.091 72.2518C177.313 72.2519 179.217 73.2015 180.804 75.1007C182.2 76.869 182.93 78.8337 182.994 80.9949C183.057 82.6977 182.645 84.6624 181.756 86.8891C181.439 87.806 180.74 88.7884 179.661 89.8363C178.836 90.6222 177.979 91.4408 177.091 92.2922C172.394 95.8287 167.697 99.398 163 103V39H165.475ZM173.187 78.539C172.426 77.6221 171.442 77.1637 170.236 77.1637C168.712 77.1637 167.475 78.0478 166.523 79.8161C165.824 81.1914 165.475 84.4332 165.475 89.5415V97.9899C165.539 98.2519 167.316 96.6473 170.807 93.1763C172.711 91.3426 173.949 89.1813 174.52 86.6927C174.774 85.7103 174.901 84.7279 174.901 83.7456C174.901 81.5844 174.33 79.8488 173.187 78.539Z" fill="#1C1A1A"/>
<line x1="684" y1="33.5" x2="734" y2="33.5" stroke="#1C1A1A"/>
<line x1="617" y1="33.5" x2="667" y2="33.5" stroke="#1C1A1A"/>
<path d="M27.1226 132.24C24.7962 134.193 12.4703 141.891 4.9764 143C7.10156 141.891 7.77263 141.225 13.5888 137.565C19.306 133.967 26.3397 126.694 32.2677 119.817C37.0101 114.315 39.9108 105.619 40.7683 101.959C42.2894 98.3203 42.2223 90.1638 41.9986 86.5403C41.9613 83.0278 40.4104 74.605 34.5047 69.0145C27.1226 62.0264 19.6287 65.9087 18.2865 66.3524C16.9443 66.7961 12.3585 70.0128 11.0163 72.8968C9.94251 75.204 10.5689 75.9287 11.0163 76.0026C15.273 74.117 19.3501 75.2001 21.8721 77.0009C24.6684 78.9976 27.0172 81.9925 26.7935 86.5403C26.6146 90.1786 24.824 92.8629 23.4818 94.194C20.6855 97.2998 16.1986 97.6326 13.7007 97.6326C7.66078 97.2998 3.86507 92.9743 3.07496 91.6428C2.74586 91.0881 -0.391563 86.0966 1.73276 77.4446C3.48062 70.326 10.1588 64.7625 13.477 62.9138C24.1027 57.4785 31.5966 58.7295 36.4062 60.5844C42.446 62.9138 49.9901 70.1237 51.8414 76.4463C53.6927 82.7689 54.6376 87.7605 53.5191 93.8612C52.4006 99.962 50.8348 104.177 45.1304 113.384C39.4261 122.59 30.0307 129.8 27.1226 132.24Z" fill="black"/>
<path d="M4.9764 143L4.74504 142.557C4.52868 142.67 4.42547 142.922 4.50085 143.154C4.57623 143.387 4.80818 143.53 5.04961 143.495L4.9764 143ZM27.1226 132.24L26.8012 131.857L27.1226 132.24ZM45.1304 113.384L45.5555 113.647L45.1304 113.384ZM51.8414 76.4463L52.3213 76.3058L51.8414 76.4463ZM36.4062 60.5844L36.5861 60.1179V60.1179L36.4062 60.5844ZM13.477 62.9138L13.2493 62.4686L13.2414 62.4727L13.2336 62.477L13.477 62.9138ZM1.73276 77.4446L2.21834 77.5639L1.73276 77.4446ZM3.07496 91.6428L2.64496 91.8979H2.64496L3.07496 91.6428ZM13.7007 97.6326L13.6732 98.1318L13.6869 98.1326H13.7007V97.6326ZM23.4818 94.194L23.1297 93.839L23.1196 93.8489L23.1102 93.8594L23.4818 94.194ZM26.7935 86.5403L26.2941 86.5157L26.7935 86.5403ZM21.8721 77.0009L22.1627 76.594L21.8721 77.0009ZM11.0163 76.0026L10.9347 76.496L11.0822 76.5203L11.2188 76.4598L11.0163 76.0026ZM11.0163 72.8968L11.4696 73.1078L11.0163 72.8968ZM18.2865 66.3524L18.4434 66.8271L18.2865 66.3524ZM34.5047 69.0145L34.161 69.3776L34.5047 69.0145ZM41.9986 86.5403L41.4986 86.5456L41.4988 86.5584L41.4996 86.5711L41.9986 86.5403ZM40.7683 101.959L40.307 101.766L40.2909 101.804L40.2814 101.845L40.7683 101.959ZM32.2677 119.817L31.889 119.491L32.2677 119.817ZM13.5888 137.565L13.8551 137.988L13.5888 137.565ZM5.04961 143.495C8.8889 142.926 13.9096 140.687 18.2233 138.377C22.5423 136.065 26.2412 133.633 27.444 132.624L26.8012 131.857C25.6776 132.8 22.0503 135.194 17.7513 137.496C13.447 139.8 8.55782 141.964 4.90319 142.505L5.04961 143.495ZM27.444 132.624C30.3278 130.204 39.7992 122.937 45.5555 113.647L44.7054 113.12C39.053 122.243 29.7337 129.397 26.8012 131.857L27.444 132.624ZM45.5555 113.647C51.2815 104.405 52.8779 100.131 54.0109 93.9514L53.0273 93.771C51.9234 99.7925 50.388 103.949 44.7054 113.12L45.5555 113.647ZM54.0109 93.9514C55.1504 87.7362 54.1803 82.655 52.3213 76.3058L51.3615 76.5868C53.205 82.8829 54.1249 87.7847 53.0273 93.771L54.0109 93.9514ZM52.3213 76.3058C51.3632 73.0339 48.9526 69.5806 46.0488 66.6651C43.1422 63.7467 39.689 61.3146 36.5861 60.1179L36.2262 61.0509C39.1631 62.1835 42.502 64.5211 45.3402 67.3707C48.1812 70.2231 50.4683 73.5362 51.3615 76.5868L52.3213 76.3058ZM36.5861 60.1179C31.6555 58.2163 24.0124 56.9631 13.2493 62.4686L13.7047 63.3589C24.1929 57.994 31.5377 59.2427 36.2262 61.0509L36.5861 60.1179ZM13.2336 62.477C11.5252 63.4288 8.98435 65.3161 6.64743 67.8651C4.31098 70.4136 2.14795 73.6568 1.24718 77.3254L2.21834 77.5639C3.06543 74.1138 5.11541 71.0159 7.38454 68.5408C9.65322 66.0663 12.1106 64.2474 13.7203 63.3505L13.2336 62.477ZM1.24718 77.3254C-0.921034 86.1562 2.2821 91.2864 2.64496 91.8979L3.50495 91.3876C3.20962 90.8899 0.137908 86.0371 2.21834 77.5639L1.24718 77.3254ZM2.64496 91.8979C3.07914 92.6296 4.27552 94.0937 6.12826 95.4189C7.98869 96.7496 10.5371 97.959 13.6732 98.1318L13.7282 97.1333C10.8244 96.9734 8.45496 95.8536 6.71003 94.6055C4.95742 93.3519 3.86089 91.9874 3.50495 91.3876L2.64496 91.8979ZM13.7007 98.1326C16.2027 98.1326 20.8984 97.8107 23.8534 94.5285L23.1102 93.8594C20.4727 96.7889 16.1946 97.1326 13.7007 97.1326V98.1326ZM23.8339 94.549C25.2438 93.1507 27.1065 90.3543 27.2929 86.5649L26.2941 86.5157C26.1226 90.0028 24.4041 92.5751 23.1297 93.839L23.8339 94.549ZM27.2929 86.5649C27.5276 81.7942 25.0481 78.6543 22.1627 76.594L21.5816 77.4079C24.2887 79.3408 26.5069 82.1907 26.2941 86.5157L27.2929 86.5649ZM22.1627 76.594C19.5206 74.7075 15.2573 73.5771 10.8138 75.5455L11.2188 76.4598C15.2888 74.6568 19.1796 75.6928 21.5816 77.4079L22.1627 76.594ZM11.0978 75.5093C11.097 75.5092 11.0748 75.5052 11.0451 75.4727C11.0162 75.4412 10.9654 75.3659 10.9393 75.2065C10.8847 74.8729 10.9497 74.2249 11.4696 73.1078L10.563 72.6858C10.0091 73.876 9.85035 74.7439 9.95239 75.3679C10.0595 76.0228 10.466 76.4185 10.9347 76.496L11.0978 75.5093ZM11.4696 73.1078C12.0918 71.7709 13.5011 70.3042 14.9692 69.0955C15.6953 68.4977 16.4202 67.9757 17.0424 67.5778C17.6759 67.1727 18.1704 66.9173 18.4434 66.8271L18.1296 65.8776C17.7315 66.0092 17.1494 66.3224 16.5037 66.7353C15.8466 67.1555 15.0895 67.7011 14.3336 68.3235C12.8377 69.5551 11.283 71.1387 10.563 72.6858L11.4696 73.1078ZM18.4434 66.8271C19.1825 66.5828 21.2815 65.5438 24.1563 65.3958C26.9978 65.2496 30.579 65.9869 34.161 69.3776L34.8484 68.6514C31.0483 65.054 27.1915 64.2383 24.1049 64.3972C21.0517 64.5543 18.7327 65.6783 18.1296 65.8776L18.4434 66.8271ZM34.161 69.3776C39.9317 74.8404 41.4622 83.1084 41.4986 86.5456L42.4986 86.535C42.4605 82.9471 40.889 74.3696 34.8484 68.6514L34.161 69.3776ZM41.4996 86.5711C41.6105 88.3674 41.6827 91.2937 41.5384 94.2193C41.393 97.1656 41.0305 100.035 40.307 101.766L41.2296 102.151C42.0272 100.244 42.3917 97.2159 42.5372 94.2685C42.6836 91.3004 42.6105 88.3367 42.4977 86.5095L41.4996 86.5711ZM40.2814 101.845C39.4308 105.476 36.5535 114.079 31.889 119.491L32.6464 120.144C37.4668 114.551 40.3908 105.762 41.2551 102.073L40.2814 101.845ZM31.889 119.491C25.961 126.368 18.9699 133.587 13.3225 137.142L13.8551 137.988C19.6422 134.346 26.7183 127.021 32.6464 120.144L31.889 119.491ZM13.3225 137.142C10.4095 138.975 8.78348 140.059 7.62388 140.821C6.46733 141.581 5.78498 142.014 4.74504 142.557L5.20776 143.443C6.29298 142.877 7.00874 142.422 8.17307 141.657C9.33434 140.894 10.9519 139.815 13.8551 137.988L13.3225 137.142Z" fill="black"/>
<ellipse cx="66.4852" cy="71.1558" rx="6.51452" ry="6.49758" fill="black"/>
<ellipse cx="66.4852" cy="95.647" rx="6.51452" ry="6.49758" fill="black"/>
</svg>
