<svg width="826.8" height="187" viewBox="0 0 826.8 187" fill="none" xmlns="http://www.w3.org/2000/svg">
<line x1="1" y1="28.5" x2="826.8" y2="28.5" stroke="#1C1A1A"/>
<line x1="1" y1="53.5" x2="826.8" y2="53.5" stroke="#1C1A1A"/>
<line x1="1" y1="78.5" x2="826.8" y2="78.5" stroke="#1C1A1A"/>
<line x1="1" y1="103.5" x2="826.8" y2="103.5" stroke="#1C1A1A"/>
<line x1="1" y1="128.5" x2="826.8" y2="128.5" stroke="#1C1A1A"/>
<path d="M274.097 150.514C268.453 148.805 264 144.161 264 139.984C264 128.16 289.813 123.481 300.473 133.372C312 144.069 293.188 156.295 274.097 150.514H274.097ZM291.315 147.544C294.455 142.829 291.453 133.486 286.013 131.048C278.025 127.467 273.129 133.569 276.456 142.959C278.757 149.453 288.119 152.343 291.315 147.544Z" fill="#1C1A1A"/>
<path d="M189.097 163.514C183.453 161.805 179 157.161 179 152.984C179 141.16 204.813 136.481 215.473 146.372C227 157.069 208.188 169.295 189.097 163.514H189.097ZM206.315 160.544C209.455 155.829 206.453 146.486 201.013 144.048C193.025 140.467 188.129 146.569 191.456 155.959C193.757 162.453 203.119 165.343 206.315 160.544Z" fill="#1C1A1A"/>
<path d="M104.097 175.514C98.4533 173.805 94 169.161 94 164.984C94 153.16 119.813 148.481 130.473 158.372C142 169.069 123.188 181.295 104.097 175.514H104.097ZM121.315 172.544C124.455 167.829 121.453 158.486 116.013 156.048C108.025 152.467 103.129 158.569 106.456 167.959C108.757 174.453 118.119 177.343 121.315 172.544Z" fill="#1C1A1A"/>
<path d="M359.097 138.514C353.453 136.805 349 132.161 349 127.984C349 116.16 374.813 111.481 385.473 121.372C397 132.069 378.188 144.295 359.097 138.514H359.097ZM376.315 135.544C379.455 130.829 376.453 121.486 371.013 119.048C363.025 115.467 358.129 121.569 361.456 130.959C363.757 137.453 373.119 140.343 376.315 135.544Z" fill="#1C1A1A"/>
<path d="M699.097 88.5145C693.453 86.8054 689 82.1609 689 77.9836C689 66.1601 714.813 61.4812 725.473 71.3725C737 82.0687 718.188 94.2953 699.097 88.5145H699.097ZM716.315 85.5442C719.455 80.8287 716.453 71.486 711.013 69.0476C703.025 65.4667 698.129 71.5689 701.456 80.9586C703.757 87.4532 713.119 90.3425 716.315 85.5442Z" fill="#1C1A1A"/>
<path d="M614.097 100.514C608.453 98.8054 604 94.1609 604 89.9836C604 78.1601 629.813 73.4812 640.473 83.3725C652 94.0687 633.188 106.295 614.097 100.514H614.097ZM631.315 97.5442C634.455 92.8287 631.453 83.486 626.013 81.0476C618.025 77.4667 613.129 83.5689 616.456 92.9586C618.757 99.4532 628.119 102.343 631.315 97.5442Z" fill="#1C1A1A"/>
<path d="M529.097 113.514C523.453 111.805 519 107.161 519 102.984C519 91.1601 544.813 86.4812 555.473 96.3725C567 107.069 548.188 119.295 529.097 113.514H529.097ZM546.315 110.544C549.455 105.829 546.453 96.486 541.013 94.0476C533.025 90.4667 528.129 96.5689 531.456 105.959C533.757 112.453 543.119 115.343 546.315 110.544Z" fill="#1C1A1A"/>
<path d="M444.097 125.514C438.453 123.805 434 119.161 434 114.984C434 103.16 459.813 98.4812 470.473 108.372C482 119.069 463.188 131.295 444.097 125.514H444.097ZM461.315 122.544C464.455 117.829 461.453 108.486 456.013 106.048C448.025 102.467 443.129 108.569 446.456 117.959C448.757 124.453 458.119 127.343 461.315 122.544Z" fill="#1C1A1A"/>
<path d="M246.523 149.5V132.658L253.368 130.682V147.438L246.523 149.5ZM260 145.426L255.294 146.837V130.081L260 128.706V121.746L255.294 123.12V106H253.368V123.64L246.523 125.698V109.05H244.706V126.332L240 127.71V134.685L244.706 133.31V150.034L240 151.405V158.351L244.706 156.976V174H246.523V156.368L253.368 154.398V170.96H255.294V153.775L260 152.397V145.426Z" fill="#1C1A1A"/>
<path d="M161.523 162.5V145.658L168.368 143.682V160.438L161.523 162.5ZM175 158.426L170.294 159.837V143.081L175 141.706V134.746L170.294 136.12V119H168.368V136.64L161.523 138.698V122.05H159.706V139.332L155 140.71V147.685L159.706 146.31V163.034L155 164.405V171.351L159.706 169.976V187H161.523V169.368L168.368 167.398V183.96H170.294V166.775L175 165.397V158.426Z" fill="#1C1A1A"/>
<path d="M586.523 99.5005V82.6585L593.368 80.6821V97.4382L586.523 99.5005ZM600 95.426L595.294 96.8367V80.0806L600 78.7058V71.7456L595.294 73.1204V56H593.368V73.6396L586.523 75.6983V59.0505H584.706V76.332L580 77.7104V84.685L584.706 83.3101V100.034L580 101.405V108.351L584.706 106.976V124H586.523V106.368L593.368 104.398V120.96H595.294V103.775L600 102.397V95.426Z" fill="#1C1A1A"/>
<path d="M501.523 112.5V95.6585L508.368 93.6821V110.438L501.523 112.5ZM515 108.426L510.294 109.837V93.0806L515 91.7058V84.7456L510.294 86.1204V69H508.368V86.6396L501.523 88.6983V72.0505H499.706V89.332L495 90.7104V97.685L499.706 96.3101V113.034L495 114.405V121.351L499.706 119.976V137H501.523V119.368L508.368 117.398V133.96H510.294V116.775L515 115.397V108.426Z" fill="#1C1A1A"/>
<path d="M416.523 124.5V107.658L423.368 105.682V122.438L416.523 124.5ZM430 120.426L425.294 121.837V105.081L430 103.706V96.7456L425.294 98.1204V81H423.368V98.6396L416.523 100.698V84.0505H414.706V101.332L410 102.71V109.685L414.706 108.31V125.034L410 126.405V133.351L414.706 131.976V149H416.523V131.368L423.368 129.398V145.96H425.294V128.775L430 127.397V120.426Z" fill="#1C1A1A"/>
<line x1="174" y1="153.5" x2="224" y2="153.5" stroke="#1C1A1A"/>
<line x1="89" y1="153.5" x2="139" y2="153.5" stroke="#1C1A1A"/>
<path d="M27.1226 102.24C24.7962 104.193 12.4703 111.891 4.9764 113C7.10156 111.891 7.77263 111.225 13.5888 107.565C19.306 103.967 26.3397 96.6944 32.2677 89.8171C37.0101 84.3154 39.9108 75.619 40.7683 71.9586C42.2894 68.3203 42.2223 60.1638 41.9986 56.5403C41.9613 53.0278 40.4104 44.605 34.5047 39.0145C27.1226 32.0264 19.6287 35.9087 18.2865 36.3524C16.9443 36.7961 12.3585 40.0128 11.0163 42.8968C9.94251 45.204 10.5689 45.9287 11.0163 46.0026C15.273 44.117 19.3501 45.2001 21.8721 47.0009C24.6684 48.9976 27.0172 51.9925 26.7935 56.5403C26.6146 60.1786 24.824 62.8629 23.4818 64.194C20.6855 67.2998 16.1986 67.6326 13.7007 67.6326C7.66078 67.2998 3.86507 62.9743 3.07496 61.6428C2.74586 61.0881 -0.391563 56.0966 1.73276 47.4446C3.48062 40.326 10.1588 34.7625 13.477 32.9138C24.1027 27.4785 31.5966 28.7295 36.4062 30.5844C42.446 32.9138 49.9901 40.1237 51.8414 46.4463C53.6927 52.7689 54.6376 57.7605 53.5191 63.8612C52.4006 69.962 50.8348 74.177 45.1304 83.3836C39.4261 92.5902 30.0307 99.8002 27.1226 102.24Z" fill="black"/>
<path d="M4.9764 113L4.74504 112.557C4.52868 112.67 4.42547 112.922 4.50085 113.154C4.57623 113.387 4.80818 113.53 5.04961 113.495L4.9764 113ZM27.1226 102.24L26.8012 101.857L27.1226 102.24ZM45.1304 83.3836L45.5555 83.647L45.1304 83.3836ZM51.8414 46.4463L52.3213 46.3058L51.8414 46.4463ZM36.4062 30.5844L36.5861 30.1179V30.1179L36.4062 30.5844ZM13.477 32.9138L13.2493 32.4686L13.2414 32.4727L13.2336 32.477L13.477 32.9138ZM1.73276 47.4446L2.21834 47.5639L1.73276 47.4446ZM3.07496 61.6428L2.64496 61.8979H2.64496L3.07496 61.6428ZM13.7007 67.6326L13.6732 68.1318L13.6869 68.1326H13.7007V67.6326ZM23.4818 64.194L23.1297 63.839L23.1196 63.8489L23.1102 63.8594L23.4818 64.194ZM26.7935 56.5403L26.2941 56.5157L26.7935 56.5403ZM21.8721 47.0009L22.1627 46.594L21.8721 47.0009ZM11.0163 46.0026L10.9347 46.496L11.0822 46.5203L11.2188 46.4598L11.0163 46.0026ZM11.0163 42.8968L11.4696 43.1078L11.0163 42.8968ZM18.2865 36.3524L18.4434 36.8271L18.2865 36.3524ZM34.5047 39.0145L34.161 39.3776L34.5047 39.0145ZM41.9986 56.5403L41.4986 56.5456L41.4988 56.5584L41.4996 56.5711L41.9986 56.5403ZM40.7683 71.9586L40.307 71.7657L40.2909 71.8041L40.2814 71.8445L40.7683 71.9586ZM32.2677 89.8171L31.889 89.4907L32.2677 89.8171ZM13.5888 107.565L13.8551 107.988L13.5888 107.565ZM5.04961 113.495C8.8889 112.926 13.9096 110.687 18.2233 108.377C22.5423 106.065 26.2412 103.633 27.444 102.624L26.8012 101.857C25.6776 102.8 22.0503 105.194 17.7513 107.496C13.447 109.8 8.55782 111.964 4.90319 112.505L5.04961 113.495ZM27.444 102.624C30.3278 100.204 39.7992 92.9374 45.5555 83.647L44.7054 83.1203C39.053 92.243 29.7337 99.3968 26.8012 101.857L27.444 102.624ZM45.5555 83.647C51.2815 74.4054 52.8779 70.1314 54.0109 63.9514L53.0273 63.771C51.9234 69.7925 50.388 73.9487 44.7054 83.1203L45.5555 83.647ZM54.0109 63.9514C55.1504 57.7362 54.1803 52.655 52.3213 46.3058L51.3615 46.5868C53.205 52.8829 54.1249 57.7847 53.0273 63.771L54.0109 63.9514ZM52.3213 46.3058C51.3632 43.0339 48.9526 39.5806 46.0488 36.6651C43.1422 33.7467 39.689 31.3146 36.5861 30.1179L36.2262 31.0509C39.1631 32.1835 42.502 34.5211 45.3402 37.3707C48.1812 40.2231 50.4683 43.5362 51.3615 46.5868L52.3213 46.3058ZM36.5861 30.1179C31.6555 28.2163 24.0124 26.9631 13.2493 32.4686L13.7047 33.3589C24.1929 27.994 31.5377 29.2427 36.2262 31.0509L36.5861 30.1179ZM13.2336 32.477C11.5252 33.4288 8.98435 35.3161 6.64743 37.8651C4.31098 40.4136 2.14795 43.6568 1.24718 47.3254L2.21834 47.5639C3.06543 44.1138 5.11541 41.0159 7.38454 38.5408C9.65322 36.0663 12.1106 34.2474 13.7203 33.3505L13.2336 32.477ZM1.24718 47.3254C-0.921034 56.1562 2.2821 61.2864 2.64496 61.8979L3.50495 61.3876C3.20962 60.8899 0.137908 56.0371 2.21834 47.5639L1.24718 47.3254ZM2.64496 61.8979C3.07914 62.6296 4.27552 64.0937 6.12826 65.4189C7.98869 66.7496 10.5371 67.959 13.6732 68.1318L13.7282 67.1333C10.8244 66.9734 8.45496 65.8536 6.71003 64.6055C4.95742 63.3519 3.86089 61.9874 3.50495 61.3876L2.64496 61.8979ZM13.7007 68.1326C16.2027 68.1326 20.8984 67.8107 23.8534 64.5285L23.1102 63.8594C20.4727 66.7889 16.1946 67.1326 13.7007 67.1326V68.1326ZM23.8339 64.549C25.2438 63.1507 27.1065 60.3543 27.2929 56.5649L26.2941 56.5157C26.1226 60.0028 24.4041 62.5751 23.1297 63.839L23.8339 64.549ZM27.2929 56.5649C27.5276 51.7942 25.0481 48.6543 22.1627 46.594L21.5816 47.4079C24.2887 49.3408 26.5069 52.1907 26.2941 56.5157L27.2929 56.5649ZM22.1627 46.594C19.5206 44.7075 15.2573 43.5771 10.8138 45.5455L11.2188 46.4598C15.2888 44.6568 19.1796 45.6928 21.5816 47.4079L22.1627 46.594ZM11.0978 45.5093C11.097 45.5092 11.0748 45.5052 11.0451 45.4727C11.0162 45.4412 10.9654 45.3659 10.9393 45.2065C10.8847 44.8729 10.9497 44.2249 11.4696 43.1078L10.563 42.6858C10.0091 43.876 9.85035 44.7439 9.95239 45.3679C10.0595 46.0228 10.466 46.4185 10.9347 46.496L11.0978 45.5093ZM11.4696 43.1078C12.0918 41.7709 13.5011 40.3042 14.9692 39.0955C15.6953 38.4977 16.4202 37.9757 17.0424 37.5778C17.6759 37.1727 18.1704 36.9173 18.4434 36.8271L18.1296 35.8776C17.7315 36.0092 17.1494 36.3224 16.5037 36.7353C15.8466 37.1555 15.0895 37.7011 14.3336 38.3235C12.8377 39.5551 11.283 41.1387 10.563 42.6858L11.4696 43.1078ZM18.4434 36.8271C19.1825 36.5828 21.2815 35.5438 24.1563 35.3958C26.9978 35.2496 30.579 35.9869 34.161 39.3776L34.8484 38.6514C31.0483 35.054 27.1915 34.2383 24.1049 34.3972C21.0517 34.5543 18.7327 35.6783 18.1296 35.8776L18.4434 36.8271ZM34.161 39.3776C39.9317 44.8404 41.4622 53.1084 41.4986 56.5456L42.4986 56.535C42.4605 52.9471 40.889 44.3696 34.8484 38.6514L34.161 39.3776ZM41.4996 56.5711C41.6105 58.3674 41.6827 61.2937 41.5384 64.2193C41.393 67.1656 41.0305 70.0352 40.307 71.7657L41.2296 72.1514C42.0272 70.2437 42.3917 67.2159 42.5372 64.2685C42.6836 61.3004 42.6105 58.3367 42.4977 56.5095L41.4996 56.5711ZM40.2814 71.8445C39.4308 75.4758 36.5535 84.0794 31.889 89.4907L32.6464 90.1436C37.4668 84.5514 40.3908 75.7622 41.2551 72.0726L40.2814 71.8445ZM31.889 89.4907C25.961 96.3679 18.9699 103.587 13.3225 107.142L13.8551 107.988C19.6422 104.346 26.7183 97.0209 32.6464 90.1436L31.889 89.4907ZM13.3225 107.142C10.4095 108.975 8.78348 110.059 7.62388 110.821C6.46733 111.581 5.78498 112.014 4.74504 112.557L5.20776 113.443C6.29298 112.877 7.00874 112.422 8.17307 111.657C9.33434 110.894 10.9519 109.815 13.8551 107.988L13.3225 107.142Z" fill="black"/>
<ellipse cx="66.4852" cy="41.1558" rx="6.51452" ry="6.49758" fill="black"/>
<ellipse cx="66.4852" cy="65.647" rx="6.51452" ry="6.49758" fill="black"/>
</svg>
