<svg width="756" height="171" viewBox="0 0 756 171" fill="none" xmlns="http://www.w3.org/2000/svg">
<line x1="1" y1="33.5" x2="756" y2="33.5" stroke="#1C1A1A"/>
<line x1="1" y1="58.5" x2="756" y2="58.5" stroke="#1C1A1A"/>
<line x1="1" y1="83.5" x2="756" y2="83.5" stroke="#1C1A1A"/>
<line x1="1" y1="108.5" x2="756" y2="108.5" stroke="#1C1A1A"/>
<line x1="1" y1="133.5" x2="756" y2="133.5" stroke="#1C1A1A"/>
<path d="M359.097 118.514C353.453 116.805 349 112.161 349 107.984C349 96.1601 374.813 91.4812 385.473 101.372C397 112.069 378.188 124.295 359.097 118.514H359.097ZM376.315 115.544C379.455 110.829 376.453 101.486 371.013 99.0476C363.025 95.4667 358.129 101.569 361.456 110.959C363.757 117.453 373.119 120.343 376.315 115.544Z" fill="#1C1A1A"/>
<path d="M291.097 131.514C285.453 129.805 281 125.161 281 120.984C281 109.16 306.813 104.481 317.473 114.372C329 125.069 310.188 137.295 291.097 131.514H291.097ZM308.315 128.544C311.455 123.829 308.453 114.486 303.013 112.048C295.025 108.467 290.129 114.569 293.456 123.959C295.757 130.453 305.119 133.343 308.315 128.544Z" fill="#1C1A1A"/>
<path d="M224.097 143.514C218.453 141.805 214 137.161 214 132.984C214 121.16 239.813 116.481 250.473 126.372C262 137.069 243.188 149.295 224.097 143.514H224.097ZM241.315 140.544C244.455 135.829 241.453 126.486 236.013 124.048C228.025 120.467 223.129 126.569 226.456 135.959C228.757 142.453 238.119 145.343 241.315 140.544Z" fill="#1C1A1A"/>
<path d="M429.097 106.514C423.453 104.805 419 100.161 419 95.9836C419 84.1601 444.813 79.4812 455.473 89.3725C467 100.069 448.188 112.295 429.097 106.514H429.097ZM446.315 103.544C449.455 98.8287 446.453 89.486 441.013 87.0476C433.025 83.4667 428.129 89.5689 431.456 98.9586C433.757 105.453 443.119 108.343 446.315 103.544Z" fill="#1C1A1A"/>
<path d="M699.097 56.5145C693.453 54.8054 689 50.1609 689 45.9836C689 34.1601 714.813 29.4812 725.473 39.3725C737 50.0687 718.188 62.2953 699.097 56.5145H699.097ZM716.315 53.5442C719.455 48.8287 716.453 39.486 711.013 37.0476C703.025 33.4667 698.129 39.5689 701.456 48.9586C703.757 55.4532 713.119 58.3425 716.315 53.5442Z" fill="#1C1A1A"/>
<path d="M639.097 68.5145C633.453 66.8054 629 62.1609 629 57.9836C629 46.1601 654.813 41.4812 665.473 51.3725C677 62.0687 658.188 74.2953 639.097 68.5145H639.097ZM656.315 65.5442C659.455 60.8287 656.453 51.486 651.013 49.0476C643.025 45.4667 638.129 51.5689 641.456 60.9586C643.757 67.4532 653.119 70.3425 656.315 65.5442Z" fill="#1C1A1A"/>
<path d="M564.097 81.5145C558.453 79.8054 554 75.1609 554 70.9836C554 59.1601 579.813 54.4812 590.473 64.3725C602 75.0687 583.188 87.2953 564.097 81.5145H564.097ZM581.315 78.5442C584.455 73.8287 581.453 64.486 576.013 62.0476C568.025 58.4667 563.129 64.5689 566.456 73.9586C568.757 80.4532 578.119 83.3425 581.315 78.5442Z" fill="#1C1A1A"/>
<path d="M494.097 93.5145C488.453 91.8054 484 87.1609 484 82.9836C484 71.1601 509.813 66.4812 520.473 76.3725C532 87.0687 513.188 99.2953 494.097 93.5145H494.097ZM511.315 90.5442C514.455 85.8287 511.453 76.486 506.013 74.0476C498.025 70.4667 493.129 76.5689 496.456 85.9586C498.757 92.4532 508.119 95.3425 511.315 90.5442Z" fill="#1C1A1A"/>
<path d="M624.491 40.3999V91.0178H621.734V72.0472L607 75.2385V24H609.65V43.7685L624.491 40.3999ZM609.65 52.2787V66.1964L621.734 63.537V49.6192L609.65 52.2787Z" fill="black"/>
<path d="M93.4754 37V68.0906C93.4754 68.0906 93.4754 70.1864 93.4754 74.3778C96.3316 71.6927 99.537 70.3173 103.091 70.2518C105.313 70.2519 107.217 71.2015 108.804 73.1007C110.2 74.869 110.93 76.8337 110.994 78.9949C111.057 80.6977 110.645 82.6624 109.756 84.8891C109.439 85.806 108.74 86.7884 107.661 87.8363C106.836 88.6222 105.979 89.4408 105.091 90.2922C100.394 93.8287 95.6969 97.398 91 101V37H93.4754ZM101.187 76.539C100.426 75.6221 99.4418 75.1637 98.2358 75.1637C96.7125 75.1637 95.4748 76.0478 94.5227 77.8161C93.8245 79.1914 93.4754 82.4332 93.4754 87.5415V95.9899C93.5389 96.2519 95.3161 94.6473 98.8071 91.1763C100.711 89.3426 101.949 87.1813 102.52 84.6927C102.774 83.7103 102.901 82.7279 102.901 81.7456C102.901 79.5844 102.33 77.8488 101.187 76.539Z" fill="#1C1A1A"/>
<path d="M117.475 0V31.0906C117.475 31.0906 117.475 33.1864 117.475 37.3778C120.332 34.6927 123.537 33.3173 127.091 33.2518C129.313 33.2519 131.217 34.2015 132.804 36.1007C134.2 37.869 134.93 39.8337 134.994 41.9949C135.057 43.6977 134.645 45.6624 133.756 47.8891C133.439 48.806 132.74 49.7884 131.661 50.8363C130.836 51.6222 129.979 52.4408 129.091 53.2922C124.394 56.8287 119.697 60.398 115 64V0H117.475ZM125.187 39.539C124.426 38.6221 123.442 38.1637 122.236 38.1637C120.712 38.1637 119.475 39.0478 118.523 40.8161C117.824 42.1914 117.475 45.4332 117.475 50.5415V58.9899C117.539 59.2519 119.316 57.6473 122.807 54.1763C124.711 52.3426 125.949 50.1813 126.52 47.6927C126.774 46.7103 126.901 45.7279 126.901 44.7456C126.901 42.5844 126.33 40.8488 125.187 39.539Z" fill="#1C1A1A"/>
<path d="M141.475 50V81.0906C141.475 81.0906 141.475 83.1864 141.475 87.3778C144.332 84.6927 147.537 83.3173 151.091 83.2518C153.313 83.2519 155.217 84.2015 156.804 86.1007C158.2 87.869 158.93 89.8337 158.994 91.9949C159.057 93.6977 158.645 95.6624 157.756 97.8891C157.439 98.806 156.74 99.7884 155.661 100.836C154.836 101.622 153.979 102.441 153.091 103.292C148.394 106.829 143.697 110.398 139 114V50H141.475ZM149.187 89.539C148.426 88.6221 147.442 88.1637 146.236 88.1637C144.712 88.1637 143.475 89.0478 142.523 90.8161C141.824 92.1914 141.475 95.4332 141.475 100.542V108.99C141.539 109.252 143.316 107.647 146.807 104.176C148.711 102.343 149.949 100.181 150.52 97.6927C150.774 96.7103 150.901 95.7279 150.901 94.7456C150.901 92.5844 150.33 90.8488 149.187 89.539Z" fill="#1C1A1A"/>
<path d="M165.475 14V45.0906C165.475 45.0906 165.475 47.1864 165.475 51.3778C168.332 48.6927 171.537 47.3173 175.091 47.2518C177.313 47.2519 179.217 48.2015 180.804 50.1007C182.2 51.869 182.93 53.8337 182.994 55.9949C183.057 57.6977 182.645 59.6624 181.756 61.8891C181.439 62.806 180.74 63.7884 179.661 64.8363C178.836 65.6222 177.979 66.4408 177.091 67.2922C172.394 70.8287 167.697 74.398 163 78V14H165.475ZM173.187 53.539C172.426 52.6221 171.442 52.1637 170.236 52.1637C168.712 52.1637 167.475 53.0478 166.523 54.8161C165.824 56.1914 165.475 59.4332 165.475 64.5415V72.9899C165.539 73.2519 167.316 71.6473 170.807 68.1763C172.711 66.3426 173.949 64.1813 174.52 61.6927C174.774 60.7103 174.901 59.7279 174.901 58.7456C174.901 56.5844 174.33 54.8488 173.187 53.539Z" fill="#1C1A1A"/>
<path d="M189.475 61V92.0906C189.475 92.0906 189.475 94.1864 189.475 98.3778C192.332 95.6927 195.537 94.3173 199.091 94.2518C201.313 94.2519 203.217 95.2015 204.804 97.1007C206.2 98.869 206.93 100.834 206.994 102.995C207.057 104.698 206.645 106.662 205.756 108.889C205.439 109.806 204.74 110.788 203.661 111.836C202.836 112.622 201.979 113.441 201.091 114.292C196.394 117.829 191.697 121.398 187 125V61H189.475ZM197.187 100.539C196.426 99.6221 195.442 99.1637 194.236 99.1637C192.712 99.1637 191.475 100.048 190.523 101.816C189.824 103.191 189.475 106.433 189.475 111.542V119.99C189.539 120.252 191.316 118.647 194.807 115.176C196.711 113.343 197.949 111.181 198.52 108.693C198.774 107.71 198.901 106.728 198.901 105.746C198.901 103.584 198.33 101.849 197.187 100.539Z" fill="#1C1A1A"/>
<path d="M213.475 25V56.0906C213.475 56.0906 213.475 58.1864 213.475 62.3778C216.332 59.6927 219.537 58.3173 223.091 58.2518C225.313 58.2519 227.217 59.2015 228.804 61.1007C230.2 62.869 230.93 64.8337 230.994 66.9949C231.057 68.6977 230.645 70.6624 229.756 72.8891C229.439 73.806 228.74 74.7884 227.661 75.8363C226.836 76.6222 225.979 77.4408 225.091 78.2922C220.394 81.8287 215.697 85.398 211 89V25H213.475ZM221.187 64.539C220.426 63.6221 219.442 63.1637 218.236 63.1637C216.712 63.1637 215.475 64.0478 214.523 65.8161C213.824 67.1914 213.475 70.4332 213.475 75.5415V83.9899C213.539 84.2519 215.316 82.6473 218.807 79.1763C220.711 77.3426 221.949 75.1813 222.52 72.6927C222.774 71.7103 222.901 70.7279 222.901 69.7456C222.901 67.5844 222.33 65.8488 221.187 64.539Z" fill="#1C1A1A"/>
<path d="M27.1226 107.24C24.7962 109.193 12.4703 116.891 4.9764 118C7.10156 116.891 7.77263 116.225 13.5888 112.565C19.306 108.967 26.3397 101.694 32.2677 94.8171C37.0101 89.3154 39.9108 80.619 40.7683 76.9586C42.2894 73.3203 42.2223 65.1638 41.9986 61.5403C41.9613 58.0278 40.4104 49.605 34.5047 44.0145C27.1226 37.0264 19.6287 40.9087 18.2865 41.3524C16.9443 41.7961 12.3585 45.0128 11.0163 47.8968C9.94251 50.204 10.5689 50.9287 11.0163 51.0026C15.273 49.117 19.3501 50.2001 21.8721 52.0009C24.6684 53.9976 27.0172 56.9925 26.7935 61.5403C26.6146 65.1786 24.824 67.8629 23.4818 69.194C20.6855 72.2998 16.1986 72.6326 13.7007 72.6326C7.66078 72.2998 3.86507 67.9743 3.07496 66.6428C2.74586 66.0881 -0.391563 61.0966 1.73276 52.4446C3.48062 45.326 10.1588 39.7625 13.477 37.9138C24.1027 32.4785 31.5966 33.7295 36.4062 35.5844C42.446 37.9138 49.9901 45.1237 51.8414 51.4463C53.6927 57.7689 54.6376 62.7605 53.5191 68.8612C52.4006 74.962 50.8348 79.177 45.1304 88.3836C39.4261 97.5902 30.0307 104.8 27.1226 107.24Z" fill="black"/>
<path d="M4.9764 118L4.74504 117.557C4.52868 117.67 4.42547 117.922 4.50085 118.154C4.57623 118.387 4.80818 118.53 5.04961 118.495L4.9764 118ZM27.1226 107.24L26.8012 106.857L27.1226 107.24ZM45.1304 88.3836L45.5555 88.647L45.1304 88.3836ZM51.8414 51.4463L52.3213 51.3058L51.8414 51.4463ZM36.4062 35.5844L36.5861 35.1179V35.1179L36.4062 35.5844ZM13.477 37.9138L13.2493 37.4686L13.2414 37.4727L13.2336 37.477L13.477 37.9138ZM1.73276 52.4446L2.21834 52.5639L1.73276 52.4446ZM3.07496 66.6428L2.64496 66.8979H2.64496L3.07496 66.6428ZM13.7007 72.6326L13.6732 73.1318L13.6869 73.1326H13.7007V72.6326ZM23.4818 69.194L23.1297 68.839L23.1196 68.8489L23.1102 68.8594L23.4818 69.194ZM26.7935 61.5403L26.2941 61.5157L26.7935 61.5403ZM21.8721 52.0009L22.1627 51.594L21.8721 52.0009ZM11.0163 51.0026L10.9347 51.496L11.0822 51.5203L11.2188 51.4598L11.0163 51.0026ZM11.0163 47.8968L11.4696 48.1078L11.0163 47.8968ZM18.2865 41.3524L18.4434 41.8271L18.2865 41.3524ZM34.5047 44.0145L34.161 44.3776L34.5047 44.0145ZM41.9986 61.5403L41.4986 61.5456L41.4988 61.5584L41.4996 61.5711L41.9986 61.5403ZM40.7683 76.9586L40.307 76.7657L40.2909 76.8041L40.2814 76.8445L40.7683 76.9586ZM32.2677 94.8171L31.889 94.4907L32.2677 94.8171ZM13.5888 112.565L13.8551 112.988L13.5888 112.565ZM5.04961 118.495C8.8889 117.926 13.9096 115.687 18.2233 113.377C22.5423 111.065 26.2412 108.633 27.444 107.624L26.8012 106.857C25.6776 107.8 22.0503 110.194 17.7513 112.496C13.447 114.8 8.55782 116.964 4.90319 117.505L5.04961 118.495ZM27.444 107.624C30.3278 105.204 39.7992 97.9374 45.5555 88.647L44.7054 88.1203C39.053 97.243 29.7337 104.397 26.8012 106.857L27.444 107.624ZM45.5555 88.647C51.2815 79.4054 52.8779 75.1314 54.0109 68.9514L53.0273 68.771C51.9234 74.7925 50.388 78.9487 44.7054 88.1203L45.5555 88.647ZM54.0109 68.9514C55.1504 62.7362 54.1803 57.655 52.3213 51.3058L51.3615 51.5868C53.205 57.8829 54.1249 62.7847 53.0273 68.771L54.0109 68.9514ZM52.3213 51.3058C51.3632 48.0339 48.9526 44.5806 46.0488 41.6651C43.1422 38.7467 39.689 36.3146 36.5861 35.1179L36.2262 36.0509C39.1631 37.1835 42.502 39.5211 45.3402 42.3707C48.1812 45.2231 50.4683 48.5362 51.3615 51.5868L52.3213 51.3058ZM36.5861 35.1179C31.6555 33.2163 24.0124 31.9631 13.2493 37.4686L13.7047 38.3589C24.1929 32.994 31.5377 34.2427 36.2262 36.0509L36.5861 35.1179ZM13.2336 37.477C11.5252 38.4288 8.98435 40.3161 6.64743 42.8651C4.31098 45.4136 2.14795 48.6568 1.24718 52.3254L2.21834 52.5639C3.06543 49.1138 5.11541 46.0159 7.38454 43.5408C9.65322 41.0663 12.1106 39.2474 13.7203 38.3505L13.2336 37.477ZM1.24718 52.3254C-0.921034 61.1562 2.2821 66.2864 2.64496 66.8979L3.50495 66.3876C3.20962 65.8899 0.137908 61.0371 2.21834 52.5639L1.24718 52.3254ZM2.64496 66.8979C3.07914 67.6296 4.27552 69.0937 6.12826 70.4189C7.98869 71.7496 10.5371 72.959 13.6732 73.1318L13.7282 72.1333C10.8244 71.9734 8.45496 70.8536 6.71003 69.6055C4.95742 68.3519 3.86089 66.9874 3.50495 66.3876L2.64496 66.8979ZM13.7007 73.1326C16.2027 73.1326 20.8984 72.8107 23.8534 69.5285L23.1102 68.8594C20.4727 71.7889 16.1946 72.1326 13.7007 72.1326V73.1326ZM23.8339 69.549C25.2438 68.1507 27.1065 65.3543 27.2929 61.5649L26.2941 61.5157C26.1226 65.0028 24.4041 67.5751 23.1297 68.839L23.8339 69.549ZM27.2929 61.5649C27.5276 56.7942 25.0481 53.6543 22.1627 51.594L21.5816 52.4079C24.2887 54.3408 26.5069 57.1907 26.2941 61.5157L27.2929 61.5649ZM22.1627 51.594C19.5206 49.7075 15.2573 48.5771 10.8138 50.5455L11.2188 51.4598C15.2888 49.6568 19.1796 50.6928 21.5816 52.4079L22.1627 51.594ZM11.0978 50.5093C11.097 50.5092 11.0748 50.5052 11.0451 50.4727C11.0162 50.4412 10.9654 50.3659 10.9393 50.2065C10.8847 49.8729 10.9497 49.2249 11.4696 48.1078L10.563 47.6858C10.0091 48.876 9.85035 49.7439 9.95239 50.3679C10.0595 51.0228 10.466 51.4185 10.9347 51.496L11.0978 50.5093ZM11.4696 48.1078C12.0918 46.7709 13.5011 45.3042 14.9692 44.0955C15.6953 43.4977 16.4202 42.9757 17.0424 42.5778C17.6759 42.1727 18.1704 41.9173 18.4434 41.8271L18.1296 40.8776C17.7315 41.0092 17.1494 41.3224 16.5037 41.7353C15.8466 42.1555 15.0895 42.7011 14.3336 43.3235C12.8377 44.5551 11.283 46.1387 10.563 47.6858L11.4696 48.1078ZM18.4434 41.8271C19.1825 41.5828 21.2815 40.5438 24.1563 40.3958C26.9978 40.2496 30.579 40.9869 34.161 44.3776L34.8484 43.6514C31.0483 40.054 27.1915 39.2383 24.1049 39.3972C21.0517 39.5543 18.7327 40.6783 18.1296 40.8776L18.4434 41.8271ZM34.161 44.3776C39.9317 49.8404 41.4622 58.1084 41.4986 61.5456L42.4986 61.535C42.4605 57.9471 40.889 49.3696 34.8484 43.6514L34.161 44.3776ZM41.4996 61.5711C41.6105 63.3674 41.6827 66.2937 41.5384 69.2193C41.393 72.1656 41.0305 75.0352 40.307 76.7657L41.2296 77.1514C42.0272 75.2437 42.3917 72.2159 42.5372 69.2685C42.6836 66.3004 42.6105 63.3367 42.4977 61.5095L41.4996 61.5711ZM40.2814 76.8445C39.4308 80.4758 36.5535 89.0794 31.889 94.4907L32.6464 95.1436C37.4668 89.5514 40.3908 80.7622 41.2551 77.0726L40.2814 76.8445ZM31.889 94.4907C25.961 101.368 18.9699 108.587 13.3225 112.142L13.8551 112.988C19.6422 109.346 26.7183 102.021 32.6464 95.1436L31.889 94.4907ZM13.3225 112.142C10.4095 113.975 8.78348 115.059 7.62388 115.821C6.46733 116.581 5.78498 117.014 4.74504 117.557L5.20776 118.443C6.29298 117.877 7.00874 117.422 8.17307 116.657C9.33434 115.894 10.9519 114.815 13.8551 112.988L13.3225 112.142Z" fill="black"/>
<ellipse cx="66.4852" cy="46.1558" rx="6.51452" ry="6.49758" fill="black"/>
<ellipse cx="66.4852" cy="70.647" rx="6.51452" ry="6.49758" fill="black"/>
</svg>
