<svg width="737" height="173" viewBox="0 0 737 173" fill="none" xmlns="http://www.w3.org/2000/svg">
<line x1="1" y1="35.5" x2="737" y2="35.5" stroke="#1C1A1A"/>
<line x1="1" y1="60.5" x2="737" y2="60.5" stroke="#1C1A1A"/>
<line x1="1" y1="85.5" x2="737" y2="85.5" stroke="#1C1A1A"/>
<line x1="1" y1="110.5" x2="737" y2="110.5" stroke="#1C1A1A"/>
<line x1="1" y1="135.5" x2="737" y2="135.5" stroke="#1C1A1A"/>
<path d="M375.097 121.514C369.453 119.805 365 115.161 365 110.984C365 99.1601 390.813 94.4812 401.473 104.372C413 115.069 394.188 127.295 375.097 121.514H375.097ZM392.315 118.544C395.455 113.829 392.453 104.486 387.013 102.048C379.025 98.4667 374.129 104.569 377.456 113.959C379.757 120.453 389.119 123.343 392.315 118.544Z" fill="black"/>
<path d="M375.097 22.5145C369.453 20.8054 365 16.1609 365 11.9836C365 0.160094 390.813 -4.51879 401.473 5.37248C413 16.0687 394.188 28.2953 375.097 22.5145H375.097ZM392.315 19.5442C395.455 14.8287 392.453 5.48596 387.013 3.04758C379.025 -0.533257 374.129 5.56887 377.456 14.9586C379.757 21.4532 389.119 24.3425 392.315 19.5442Z" fill="#1C1A1A"/>
<line x1="355" y1="23.5" x2="414" y2="23.5" stroke="black"/>
<path d="M27.1226 109.24C24.7962 111.193 12.4703 118.891 4.9764 120C7.10156 118.891 7.77263 118.225 13.5888 114.565C19.306 110.967 26.3397 103.694 32.2677 96.8171C37.0101 91.3154 39.9108 82.619 40.7683 78.9586C42.2894 75.3203 42.2223 67.1638 41.9986 63.5403C41.9613 60.0278 40.4104 51.605 34.5047 46.0145C27.1226 39.0264 19.6287 42.9087 18.2865 43.3524C16.9443 43.7961 12.3585 47.0128 11.0163 49.8968C9.94251 52.204 10.5689 52.9287 11.0163 53.0026C15.273 51.117 19.3501 52.2001 21.8721 54.0009C24.6684 55.9976 27.0172 58.9925 26.7935 63.5403C26.6146 67.1786 24.824 69.8629 23.4818 71.194C20.6855 74.2998 16.1986 74.6326 13.7007 74.6326C7.66078 74.2998 3.86507 69.9743 3.07496 68.6428C2.74586 68.0881 -0.391563 63.0966 1.73276 54.4446C3.48062 47.326 10.1588 41.7625 13.477 39.9138C24.1027 34.4785 31.5966 35.7295 36.4062 37.5844C42.446 39.9138 49.9901 47.1237 51.8414 53.4463C53.6927 59.7689 54.6376 64.7605 53.5191 70.8612C52.4006 76.962 50.8348 81.177 45.1304 90.3836C39.4261 99.5902 30.0307 106.8 27.1226 109.24Z" fill="black"/>
<path d="M4.9764 120L4.74504 119.557C4.52868 119.67 4.42547 119.922 4.50085 120.154C4.57623 120.387 4.80818 120.53 5.04961 120.495L4.9764 120ZM27.1226 109.24L26.8012 108.857L27.1226 109.24ZM45.1304 90.3836L45.5555 90.647L45.1304 90.3836ZM51.8414 53.4463L52.3213 53.3058L51.8414 53.4463ZM36.4062 37.5844L36.5861 37.1179V37.1179L36.4062 37.5844ZM13.477 39.9138L13.2493 39.4686L13.2414 39.4727L13.2336 39.477L13.477 39.9138ZM1.73276 54.4446L2.21834 54.5639L1.73276 54.4446ZM3.07496 68.6428L2.64496 68.8979H2.64496L3.07496 68.6428ZM13.7007 74.6326L13.6732 75.1318L13.6869 75.1326H13.7007V74.6326ZM23.4818 71.194L23.1297 70.839L23.1196 70.8489L23.1102 70.8594L23.4818 71.194ZM26.7935 63.5403L26.2941 63.5157L26.7935 63.5403ZM21.8721 54.0009L22.1627 53.594L21.8721 54.0009ZM11.0163 53.0026L10.9347 53.496L11.0822 53.5203L11.2188 53.4598L11.0163 53.0026ZM11.0163 49.8968L11.4696 50.1078L11.0163 49.8968ZM18.2865 43.3524L18.4434 43.8271L18.2865 43.3524ZM34.5047 46.0145L34.161 46.3776L34.5047 46.0145ZM41.9986 63.5403L41.4986 63.5456L41.4988 63.5584L41.4996 63.5711L41.9986 63.5403ZM40.7683 78.9586L40.307 78.7657L40.2909 78.8041L40.2814 78.8445L40.7683 78.9586ZM32.2677 96.8171L31.889 96.4907L32.2677 96.8171ZM13.5888 114.565L13.8551 114.988L13.5888 114.565ZM5.04961 120.495C8.8889 119.926 13.9096 117.687 18.2233 115.377C22.5423 113.065 26.2412 110.633 27.444 109.624L26.8012 108.857C25.6776 109.8 22.0503 112.194 17.7513 114.496C13.447 116.8 8.55782 118.964 4.90319 119.505L5.04961 120.495ZM27.444 109.624C30.3278 107.204 39.7992 99.9374 45.5555 90.647L44.7054 90.1203C39.053 99.243 29.7337 106.397 26.8012 108.857L27.444 109.624ZM45.5555 90.647C51.2815 81.4054 52.8779 77.1314 54.0109 70.9514L53.0273 70.771C51.9234 76.7925 50.388 80.9487 44.7054 90.1203L45.5555 90.647ZM54.0109 70.9514C55.1504 64.7362 54.1803 59.655 52.3213 53.3058L51.3615 53.5868C53.205 59.8829 54.1249 64.7847 53.0273 70.771L54.0109 70.9514ZM52.3213 53.3058C51.3632 50.0339 48.9526 46.5806 46.0488 43.6651C43.1422 40.7467 39.689 38.3146 36.5861 37.1179L36.2262 38.0509C39.1631 39.1835 42.502 41.5211 45.3402 44.3707C48.1812 47.2231 50.4683 50.5362 51.3615 53.5868L52.3213 53.3058ZM36.5861 37.1179C31.6555 35.2163 24.0124 33.9631 13.2493 39.4686L13.7047 40.3589C24.1929 34.994 31.5377 36.2427 36.2262 38.0509L36.5861 37.1179ZM13.2336 39.477C11.5252 40.4288 8.98435 42.3161 6.64743 44.8651C4.31098 47.4136 2.14795 50.6568 1.24718 54.3254L2.21834 54.5639C3.06543 51.1138 5.11541 48.0159 7.38454 45.5408C9.65322 43.0663 12.1106 41.2474 13.7203 40.3505L13.2336 39.477ZM1.24718 54.3254C-0.921034 63.1562 2.2821 68.2864 2.64496 68.8979L3.50495 68.3876C3.20962 67.8899 0.137908 63.0371 2.21834 54.5639L1.24718 54.3254ZM2.64496 68.8979C3.07914 69.6296 4.27552 71.0937 6.12826 72.4189C7.98869 73.7496 10.5371 74.959 13.6732 75.1318L13.7282 74.1333C10.8244 73.9734 8.45496 72.8536 6.71003 71.6055C4.95742 70.3519 3.86089 68.9874 3.50495 68.3876L2.64496 68.8979ZM13.7007 75.1326C16.2027 75.1326 20.8984 74.8107 23.8534 71.5285L23.1102 70.8594C20.4727 73.7889 16.1946 74.1326 13.7007 74.1326V75.1326ZM23.8339 71.549C25.2438 70.1507 27.1065 67.3543 27.2929 63.5649L26.2941 63.5157C26.1226 67.0028 24.4041 69.5751 23.1297 70.839L23.8339 71.549ZM27.2929 63.5649C27.5276 58.7942 25.0481 55.6543 22.1627 53.594L21.5816 54.4079C24.2887 56.3408 26.5069 59.1907 26.2941 63.5157L27.2929 63.5649ZM22.1627 53.594C19.5206 51.7075 15.2573 50.5771 10.8138 52.5455L11.2188 53.4598C15.2888 51.6568 19.1796 52.6928 21.5816 54.4079L22.1627 53.594ZM11.0978 52.5093C11.097 52.5092 11.0748 52.5052 11.0451 52.4727C11.0162 52.4412 10.9654 52.3659 10.9393 52.2065C10.8847 51.8729 10.9497 51.2249 11.4696 50.1078L10.563 49.6858C10.0091 50.876 9.85035 51.7439 9.95239 52.3679C10.0595 53.0228 10.466 53.4185 10.9347 53.496L11.0978 52.5093ZM11.4696 50.1078C12.0918 48.7709 13.5011 47.3042 14.9692 46.0955C15.6953 45.4977 16.4202 44.9757 17.0424 44.5778C17.6759 44.1727 18.1704 43.9173 18.4434 43.8271L18.1296 42.8776C17.7315 43.0092 17.1494 43.3224 16.5037 43.7353C15.8466 44.1555 15.0895 44.7011 14.3336 45.3235C12.8377 46.5551 11.283 48.1387 10.563 49.6858L11.4696 50.1078ZM18.4434 43.8271C19.1825 43.5828 21.2815 42.5438 24.1563 42.3958C26.9978 42.2496 30.579 42.9869 34.161 46.3776L34.8484 45.6514C31.0483 42.054 27.1915 41.2383 24.1049 41.3972C21.0517 41.5543 18.7327 42.6783 18.1296 42.8776L18.4434 43.8271ZM34.161 46.3776C39.9317 51.8404 41.4622 60.1084 41.4986 63.5456L42.4986 63.535C42.4605 59.9471 40.889 51.3696 34.8484 45.6514L34.161 46.3776ZM41.4996 63.5711C41.6105 65.3674 41.6827 68.2937 41.5384 71.2193C41.393 74.1656 41.0305 77.0352 40.307 78.7657L41.2296 79.1514C42.0272 77.2437 42.3917 74.2159 42.5372 71.2685C42.6836 68.3004 42.6105 65.3367 42.4977 63.5095L41.4996 63.5711ZM40.2814 78.8445C39.4308 82.4758 36.5535 91.0794 31.889 96.4907L32.6464 97.1436C37.4668 91.5514 40.3908 82.7622 41.2551 79.0726L40.2814 78.8445ZM31.889 96.4907C25.961 103.368 18.9699 110.587 13.3225 114.142L13.8551 114.988C19.6422 111.346 26.7183 104.021 32.6464 97.1436L31.889 96.4907ZM13.3225 114.142C10.4095 115.975 8.78348 117.059 7.62388 117.821C6.46733 118.581 5.78498 119.014 4.74504 119.557L5.20776 120.443C6.29298 119.877 7.00874 119.422 8.17307 118.657C9.33434 117.894 10.9519 116.815 13.8551 114.988L13.3225 114.142Z" fill="black"/>
<ellipse cx="66.4852" cy="48.1558" rx="6.51452" ry="6.49758" fill="black"/>
<ellipse cx="66.4852" cy="72.647" rx="6.51452" ry="6.49758" fill="black"/>
</svg>
