<svg width="737" height="314" viewBox="0 0 737 314" fill="none" xmlns="http://www.w3.org/2000/svg">
<line x1="1" y1="28.5" x2="737" y2="28.5" stroke="#1C1A1A"/>
<line x1="1" y1="53.5" x2="737" y2="53.5" stroke="#1C1A1A"/>
<line x1="1" y1="78.5" x2="737" y2="78.5" stroke="#1C1A1A"/>
<line x1="1" y1="103.5" x2="737" y2="103.5" stroke="#1C1A1A"/>
<line x1="1" y1="128.5" x2="737" y2="128.5" stroke="#1C1A1A"/>
<line x1="343" y1="153.5" x2="395" y2="153.5" stroke="#1C1A1A"/>
<path d="M359.097 164.514C353.453 162.805 349 158.161 349 153.984C349 142.16 374.813 137.481 385.473 147.372C397 158.069 378.188 170.295 359.097 164.514H359.097ZM376.315 161.544C379.455 156.829 376.453 147.486 371.013 145.048C363.025 141.467 358.129 147.569 361.456 156.959C363.757 163.453 373.119 166.343 376.315 161.544Z" fill="#1C1A1A"/>
<path d="M27.1226 102.24C24.7962 104.193 12.4703 111.891 4.9764 113C7.10156 111.891 7.77263 111.225 13.5888 107.565C19.306 103.967 26.3397 96.6944 32.2677 89.8171C37.0101 84.3154 39.9108 75.619 40.7683 71.9586C42.2894 68.3203 42.2223 60.1638 41.9986 56.5403C41.9613 53.0278 40.4104 44.605 34.5047 39.0145C27.1226 32.0264 19.6287 35.9087 18.2865 36.3524C16.9443 36.7961 12.3585 40.0128 11.0163 42.8968C9.94251 45.204 10.5689 45.9287 11.0163 46.0026C15.273 44.117 19.3501 45.2001 21.8721 47.0009C24.6684 48.9976 27.0172 51.9925 26.7935 56.5403C26.6146 60.1786 24.824 62.8629 23.4818 64.194C20.6855 67.2998 16.1986 67.6326 13.7007 67.6326C7.66078 67.2998 3.86507 62.9743 3.07496 61.6428C2.74586 61.0881 -0.391563 56.0966 1.73276 47.4446C3.48062 40.326 10.1588 34.7625 13.477 32.9138C24.1027 27.4785 31.5966 28.7295 36.4062 30.5844C42.446 32.9138 49.9901 40.1237 51.8414 46.4463C53.6927 52.7689 54.6376 57.7605 53.5191 63.8612C52.4006 69.962 50.8348 74.177 45.1304 83.3836C39.4261 92.5902 30.0307 99.8002 27.1226 102.24Z" fill="black"/>
<ellipse cx="66.4852" cy="41.1558" rx="6.51452" ry="6.49758" fill="black"/>
<ellipse cx="66.4852" cy="65.647" rx="6.51452" ry="6.49758" fill="black"/>
</svg>
