<svg width="772.5" height="174" viewBox="0 0 772.5 174" fill="none" xmlns="http://www.w3.org/2000/svg">
<line x1="1" y1="36.5" x2="772.5" y2="36.5" stroke="#1C1A1A"/>
<line x1="1" y1="61.5" x2="772.5" y2="61.5" stroke="#1C1A1A"/>
<line x1="1" y1="86.5" x2="772.5" y2="86.5" stroke="#1C1A1A"/>
<line x1="1" y1="111.5" x2="772.5" y2="111.5" stroke="#1C1A1A"/>
<line x1="1" y1="136.5" x2="772.5" y2="136.5" stroke="#1C1A1A"/>
<line x1="327" y1="11.5" x2="413" y2="11.5" stroke="#1C1A1A"/>
<path d="M359.097 22.5145C353.453 20.8054 349 16.1609 349 11.9836C349 0.160094 374.813 -4.51879 385.473 5.37248C397 16.0687 378.188 28.2953 359.097 22.5145H359.097ZM376.315 19.5442C379.455 14.8287 376.453 5.48596 371.013 3.04758C363.025 -0.533257 358.129 5.56887 361.456 14.9586C363.757 21.4532 373.119 24.3425 376.315 19.5442Z" fill="#1C1A1A"/>
<path d="M27.1226 110.24C24.7962 112.193 12.4703 119.891 4.9764 121C7.10156 119.891 7.77263 119.225 13.5888 115.565C19.306 111.967 26.3397 104.694 32.2677 97.8171C37.0101 92.3154 39.9108 83.619 40.7683 79.9586C42.2894 76.3203 42.2223 68.1638 41.9986 64.5403C41.9613 61.0278 40.4104 52.605 34.5047 47.0145C27.1226 40.0264 19.6287 43.9087 18.2865 44.3524C16.9443 44.7961 12.3585 48.0128 11.0163 50.8968C9.94251 53.204 10.5689 53.9287 11.0163 54.0026C15.273 52.117 19.3501 53.2001 21.8721 55.0009C24.6684 56.9976 27.0172 59.9925 26.7935 64.5403C26.6146 68.1786 24.824 70.8629 23.4818 72.194C20.6855 75.2998 16.1986 75.6326 13.7007 75.6326C7.66078 75.2998 3.86507 70.9743 3.07496 69.6428C2.74586 69.0881 -0.391563 64.0966 1.73276 55.4446C3.48062 48.326 10.1588 42.7625 13.477 40.9138C24.1027 35.4785 31.5966 36.7295 36.4062 38.5844C42.446 40.9138 49.9901 48.1237 51.8414 54.4463C53.6927 60.7689 54.6376 65.7605 53.5191 71.8612C52.4006 77.962 50.8348 82.177 45.1304 91.3836C39.4261 100.59 30.0307 107.8 27.1226 110.24Z" fill="black"/>
<path d="M4.9764 121L4.74504 120.557C4.52868 120.67 4.42547 120.922 4.50085 121.154C4.57623 121.387 4.80818 121.53 5.04961 121.495L4.9764 121ZM27.1226 110.24L26.8012 109.857L27.1226 110.24ZM45.1304 91.3836L45.5555 91.647L45.1304 91.3836ZM51.8414 54.4463L52.3213 54.3058L51.8414 54.4463ZM36.4062 38.5844L36.5861 38.1179V38.1179L36.4062 38.5844ZM13.477 40.9138L13.2493 40.4686L13.2414 40.4727L13.2336 40.477L13.477 40.9138ZM1.73276 55.4446L2.21834 55.5639L1.73276 55.4446ZM3.07496 69.6428L2.64496 69.8979H2.64496L3.07496 69.6428ZM13.7007 75.6326L13.6732 76.1318L13.6869 76.1326H13.7007V75.6326ZM23.4818 72.194L23.1297 71.839L23.1196 71.8489L23.1102 71.8594L23.4818 72.194ZM26.7935 64.5403L26.2941 64.5157L26.7935 64.5403ZM21.8721 55.0009L22.1627 54.594L21.8721 55.0009ZM11.0163 54.0026L10.9347 54.496L11.0822 54.5203L11.2188 54.4598L11.0163 54.0026ZM11.0163 50.8968L11.4696 51.1078L11.0163 50.8968ZM18.2865 44.3524L18.4434 44.8271L18.2865 44.3524ZM34.5047 47.0145L34.161 47.3776L34.5047 47.0145ZM41.9986 64.5403L41.4986 64.5456L41.4988 64.5584L41.4996 64.5711L41.9986 64.5403ZM40.7683 79.9586L40.307 79.7657L40.2909 79.8041L40.2814 79.8445L40.7683 79.9586ZM32.2677 97.8171L31.889 97.4907L32.2677 97.8171ZM13.5888 115.565L13.8551 115.988L13.5888 115.565ZM5.04961 121.495C8.8889 120.926 13.9096 118.687 18.2233 116.377C22.5423 114.065 26.2412 111.633 27.444 110.624L26.8012 109.857C25.6776 110.8 22.0503 113.194 17.7513 115.496C13.447 117.8 8.55782 119.964 4.90319 120.505L5.04961 121.495ZM27.444 110.624C30.3278 108.204 39.7992 100.937 45.5555 91.647L44.7054 91.1203C39.053 100.243 29.7337 107.397 26.8012 109.857L27.444 110.624ZM45.5555 91.647C51.2815 82.4054 52.8779 78.1314 54.0109 71.9514L53.0273 71.771C51.9234 77.7925 50.388 81.9487 44.7054 91.1203L45.5555 91.647ZM54.0109 71.9514C55.1504 65.7362 54.1803 60.655 52.3213 54.3058L51.3615 54.5868C53.205 60.8829 54.1249 65.7847 53.0273 71.771L54.0109 71.9514ZM52.3213 54.3058C51.3632 51.0339 48.9526 47.5806 46.0488 44.6651C43.1422 41.7467 39.689 39.3146 36.5861 38.1179L36.2262 39.0509C39.1631 40.1835 42.502 42.5211 45.3402 45.3707C48.1812 48.2231 50.4683 51.5362 51.3615 54.5868L52.3213 54.3058ZM36.5861 38.1179C31.6555 36.2163 24.0124 34.9631 13.2493 40.4686L13.7047 41.3589C24.1929 35.994 31.5377 37.2427 36.2262 39.0509L36.5861 38.1179ZM13.2336 40.477C11.5252 41.4288 8.98435 43.3161 6.64743 45.8651C4.31098 48.4136 2.14795 51.6568 1.24718 55.3254L2.21834 55.5639C3.06543 52.1138 5.11541 49.0159 7.38454 46.5408C9.65322 44.0663 12.1106 42.2474 13.7203 41.3505L13.2336 40.477ZM1.24718 55.3254C-0.921034 64.1562 2.2821 69.2864 2.64496 69.8979L3.50495 69.3876C3.20962 68.8899 0.137908 64.0371 2.21834 55.5639L1.24718 55.3254ZM2.64496 69.8979C3.07914 70.6296 4.27552 72.0937 6.12826 73.4189C7.98869 74.7496 10.5371 75.959 13.6732 76.1318L13.7282 75.1333C10.8244 74.9734 8.45496 73.8536 6.71003 72.6055C4.95742 71.3519 3.86089 69.9874 3.50495 69.3876L2.64496 69.8979ZM13.7007 76.1326C16.2027 76.1326 20.8984 75.8107 23.8534 72.5285L23.1102 71.8594C20.4727 74.7889 16.1946 75.1326 13.7007 75.1326V76.1326ZM23.8339 72.549C25.2438 71.1507 27.1065 68.3543 27.2929 64.5649L26.2941 64.5157C26.1226 68.0028 24.4041 70.5751 23.1297 71.839L23.8339 72.549ZM27.2929 64.5649C27.5276 59.7942 25.0481 56.6543 22.1627 54.594L21.5816 55.4079C24.2887 57.3408 26.5069 60.1907 26.2941 64.5157L27.2929 64.5649ZM22.1627 54.594C19.5206 52.7075 15.2573 51.5771 10.8138 53.5455L11.2188 54.4598C15.2888 52.6568 19.1796 53.6928 21.5816 55.4079L22.1627 54.594ZM11.0978 53.5093C11.097 53.5092 11.0748 53.5052 11.0451 53.4727C11.0162 53.4412 10.9654 53.3659 10.9393 53.2065C10.8847 52.8729 10.9497 52.2249 11.4696 51.1078L10.563 50.6858C10.0091 51.876 9.85035 52.7439 9.95239 53.3679C10.0595 54.0228 10.466 54.4185 10.9347 54.496L11.0978 53.5093ZM11.4696 51.1078C12.0918 49.7709 13.5011 48.3042 14.9692 47.0955C15.6953 46.4977 16.4202 45.9757 17.0424 45.5778C17.6759 45.1727 18.1704 44.9173 18.4434 44.8271L18.1296 43.8776C17.7315 44.0092 17.1494 44.3224 16.5037 44.7353C15.8466 45.1555 15.0895 45.7011 14.3336 46.3235C12.8377 47.5551 11.283 49.1387 10.563 50.6858L11.4696 51.1078ZM18.4434 44.8271C19.1825 44.5828 21.2815 43.5438 24.1563 43.3958C26.9978 43.2496 30.579 43.9869 34.161 47.3776L34.8484 46.6514C31.0483 43.054 27.1915 42.2383 24.1049 42.3972C21.0517 42.5543 18.7327 43.6783 18.1296 43.8776L18.4434 44.8271ZM34.161 47.3776C39.9317 52.8404 41.4622 61.1084 41.4986 64.5456L42.4986 64.535C42.4605 60.9471 40.889 52.3696 34.8484 46.6514L34.161 47.3776ZM41.4996 64.5711C41.6105 66.3674 41.6827 69.2937 41.5384 72.2193C41.393 75.1656 41.0305 78.0352 40.307 79.7657L41.2296 80.1514C42.0272 78.2437 42.3917 75.2159 42.5372 72.2685C42.6836 69.3004 42.6105 66.3367 42.4977 64.5095L41.4996 64.5711ZM40.2814 79.8445C39.4308 83.4758 36.5535 92.0794 31.889 97.4907L32.6464 98.1436C37.4668 92.5514 40.3908 83.7622 41.2551 80.0726L40.2814 79.8445ZM31.889 97.4907C25.961 104.368 18.9699 111.587 13.3225 115.142L13.8551 115.988C19.6422 112.346 26.7183 105.021 32.6464 98.1436L31.889 97.4907ZM13.3225 115.142C10.4095 116.975 8.78348 118.059 7.62388 118.821C6.46733 119.581 5.78498 120.014 4.74504 120.557L5.20776 121.443C6.29298 120.877 7.00874 120.422 8.17307 119.657C9.33434 118.894 10.9519 117.815 13.8551 115.988L13.3225 115.142Z" fill="black"/>
<ellipse cx="66.4852" cy="49.1558" rx="6.51452" ry="6.49758" fill="black"/>
<ellipse cx="66.4852" cy="73.647" rx="6.51452" ry="6.49758" fill="black"/>
</svg>