<svg width="736" height="166" viewBox="0 0 736 166" fill="none" xmlns="http://www.w3.org/2000/svg">
<line y1="28.5" x2="736" y2="28.5" stroke="#1C1A1A"/>
<line y1="53.5" x2="736" y2="53.5" stroke="#1C1A1A"/>
<line y1="78.5" x2="736" y2="78.5" stroke="#1C1A1A"/>
<line y1="103.5" x2="736" y2="103.5" stroke="#1C1A1A"/>
<line y1="128.5" x2="736" y2="128.5" stroke="#1C1A1A"/>
<line x1="342" y1="153.5" x2="394" y2="153.5" stroke="#1C1A1A"/>
<path d="M358.097 164.514C352.453 162.805 348 158.161 348 153.984C348 142.16 373.813 137.481 384.473 147.372C396 158.069 377.188 170.295 358.097 164.514H358.097ZM375.315 161.544C378.455 156.829 375.453 147.486 370.013 145.048C362.025 141.467 357.129 147.569 360.456 156.959C362.757 163.453 372.119 166.343 375.315 161.544Z" fill="#1C1A1A"/>
</svg>
