<svg width="736" height="175" viewBox="0 0 736 175" fill="none" xmlns="http://www.w3.org/2000/svg">
<line y1="36.5" x2="736" y2="36.5" stroke="#1C1A1A"/>
<line y1="61.5" x2="736" y2="61.5" stroke="#1C1A1A"/>
<line y1="86.5" x2="736" y2="86.5" stroke="#1C1A1A"/>
<line y1="111.5" x2="736" y2="111.5" stroke="#1C1A1A"/>
<line y1="136.5" x2="736" y2="136.5" stroke="#1C1A1A"/>
<line x1="360" y1="11.5" x2="412" y2="11.5" stroke="#1C1A1A"/>
<path d="M33.0196 99.6936C30.4448 100.54 28.317 101.969 26.636 103.981C24.9547 105.991 23.9303 108.188 23.5625 110.57C23.1947 112.951 23.4969 115.306 24.4688 117.635C25.4407 119.964 27.2664 121.843 29.9456 123.272C30.5761 123.272 30.9699 123.537 31.128 124.066C31.2852 124.595 31.0485 124.859 30.419 124.859C27.8443 124.33 25.5852 123.245 23.6414 121.605C20.0163 118.588 18.02 114.698 17.6522 109.935C17.4421 107.553 17.6653 105.251 18.3221 103.028C18.9787 100.805 19.885 98.7669 21.0408 96.9144C22.4592 94.9568 24.1404 93.2627 26.0843 91.834C26.1893 91.7279 26.4915 91.4904 26.9905 91.1197C27.4896 90.749 27.9755 90.4054 28.4484 90.0878C28.9213 89.7702 29.6304 89.2673 30.5761 88.579L27.6604 74.4479C25.0861 76.6179 22.5381 79.0123 20.0164 81.6322C17.4946 84.252 15.2092 87.0181 13.1603 89.9285C11.1115 92.8399 9.46968 95.9226 8.23502 99.1776C7.00047 102.433 6.38319 105.859 6.38319 109.459C6.38319 112.793 7.07923 115.929 8.47151 118.866C9.86369 121.803 11.7156 124.357 14.0272 126.526C16.3388 128.696 19.005 130.403 22.0258 131.648C25.0467 132.891 28.1069 133.513 31.2066 133.513C31.312 133.513 31.7973 133.46 32.6645 133.354C33.5317 133.249 34.4506 133.116 35.4222 132.957C36.3948 132.799 37.2879 132.626 38.1024 132.441C38.9159 132.256 39.3236 132.057 39.3236 131.846L38.8502 129.623C36.8016 119.197 34.8574 109.22 33.0196 99.6936ZM35.7773 99.376L42.2394 130.893C45.9697 129.464 48.4907 127.016 49.8045 123.55C51.1182 120.083 51.4195 116.564 50.7104 112.991C50.0014 109.419 48.3336 106.256 45.7062 103.504C43.0798 100.752 39.7701 99.376 35.7773 99.376ZM27.5028 56.9034C29.1311 56.0559 30.6417 54.7865 32.034 53.0924C33.4263 51.3993 34.7132 49.5859 35.8956 47.6543C37.077 45.7228 38.1024 43.7511 38.9686 41.7394C39.8357 39.7287 40.5319 37.9033 41.057 36.2623C41.6348 34.516 42.0286 32.5574 42.2394 30.3874C42.4493 28.2174 42.1081 26.392 41.2151 24.9093C40.5846 23.5868 39.7572 22.8194 38.7329 22.607C37.7076 22.3956 36.6832 22.4748 35.6589 22.8455C34.6346 23.2161 33.663 23.8112 32.7431 24.6318C31.8242 25.4523 31.1539 26.1796 30.7342 26.8148C29.5776 28.8786 28.5663 31.1809 27.6998 33.7216C26.8329 36.2623 26.2418 38.8951 25.9267 41.6212C25.6114 44.3462 25.5721 46.9661 25.8085 49.4807C26.0448 51.9944 26.6096 54.4689 27.5028 56.9034ZM25.1387 59.364C24.2455 55.8715 23.4575 52.4442 22.7745 49.083C22.0915 45.7228 21.7501 42.2694 21.7501 38.7228C21.7501 36.13 21.9339 33.2848 22.3017 30.189C22.6694 27.0933 23.3392 24.0757 24.3112 21.1383C25.2831 18.2009 26.6227 15.568 28.3302 13.2397C30.0381 10.9104 32.3095 9.21725 35.1468 8.15829C35.4093 8.0531 35.6718 8 35.9344 8C36.3023 8 36.7359 8.21139 37.2352 8.63517C37.7344 9.05796 38.2595 9.68011 38.8114 10.5006C39.3624 11.3211 39.8487 12.1677 40.2693 13.0413C40.689 13.9139 41.0043 14.51 41.2151 14.8276C42.6332 17.5266 43.6705 20.3979 44.3278 23.4406C44.9842 26.4842 45.3651 29.5138 45.4705 32.5304C45.6803 37.0828 45.4307 41.5811 44.7216 46.0273C44.0126 50.4725 42.5805 54.8126 40.4265 59.0464C39.6915 60.3168 38.9427 61.6001 38.1809 62.8965C37.4192 64.1939 36.5132 65.4502 35.462 66.6675C35.2522 66.8799 34.8713 67.2636 34.3193 67.8186C33.7674 68.3747 33.2025 68.9437 32.6247 69.5258C32.0469 70.1079 31.5348 70.6509 31.0883 71.1528C30.6417 71.6557 30.419 71.9603 30.419 72.0665L33.6491 87.9438C33.6699 88.048 35.2651 87.9438 35.2651 87.9438C38.348 87.9829 41.6119 88.4859 44.4462 89.6109C47.178 90.8813 49.529 92.6275 51.4991 94.8506C53.4691 97.0737 55.0444 99.5744 56.2268 102.353C57.4093 105.132 58 107.95 58 110.808C58 113.665 57.5793 116.577 56.739 119.54C54.5849 125.151 51.144 129.305 46.4162 132.004C45.8902 132.322 45.1413 132.68 44.1697 133.076C43.1981 133.473 42.8172 134.095 43.027 134.942C44.2881 140.708 45.1413 144.676 45.5888 146.85C46.0354 149.024 46.3635 151.829 46.5734 155.265C46.7832 158.551 46.2183 161.507 44.8788 164.152C43.5392 166.807 41.7402 168.961 39.4807 170.624C37.2222 172.297 35.1597 173.269 33.295 173.569C31.4294 173.86 30.1554 174 29.4732 174C27.1087 174 24.7972 173.549 22.5381 172.648C19.7536 171.596 17.4158 169.983 15.5245 167.809C13.6332 165.635 12.6875 162.99 12.6875 159.874C12.6875 157.91 13.2523 155.897 14.3818 153.833C15.5114 151.769 16.9955 150.286 18.8342 149.395C20.8832 148.333 22.7351 148.042 24.39 148.513C26.0448 148.994 27.4108 149.895 28.4878 151.218C29.5647 152.54 30.3136 154.143 30.7342 156.017C31.1539 157.9 31.128 159.653 30.6547 161.297C30.1823 162.94 29.2236 164.332 27.7786 165.464C26.3338 166.606 24.3243 167.117 21.7501 167.017C22.8007 168.921 24.2718 170.123 26.1631 170.624C28.0544 171.135 29.9983 171.165 31.9942 170.744C33.9912 170.323 35.8688 169.542 37.629 168.4C39.3892 167.268 40.7686 166.035 41.766 164.713C42.3965 163.761 42.8699 162.519 43.1852 160.986C43.5004 159.443 43.6844 157.85 43.7361 156.177C43.7888 154.514 43.7361 153.212 43.579 152.29C43.4209 151.358 43.1583 149.915 42.7904 147.962C41.2151 141.56 40.2166 137.533 39.796 135.89C39.5861 135.366 39.0213 135.193 38.1024 135.379C37.1825 135.564 36.4078 135.736 35.7773 135.89C31.2593 136.481 27.4765 136.21 24.4294 135.101C19.7011 133.831 15.5376 131.568 11.9389 128.313C8.34014 125.058 5.45067 121.115 3.27036 116.484C1.09015 111.853 0 108.334 0 105.925C0 103.518 0 101.996 0 101.361C0 97.0737 0.73552 93.0513 2.20656 89.2933C4.99092 83.4185 8.28763 78.0205 12.0965 73.0984C15.9054 68.1763 20.2528 63.5978 25.1387 59.364Z" fill="#1C1A1A"/>
<path d="M376.097 22.5145C370.453 20.8054 366 16.1609 366 11.9836C366 0.160094 391.813 -4.51879 402.473 5.37248C414 16.0687 395.188 28.2953 376.097 22.5145H376.097ZM393.315 19.5442C396.455 14.8287 393.453 5.48596 388.013 3.04758C380.025 -0.533257 375.129 5.56887 378.456 14.9586C380.757 21.4532 390.119 24.3425 393.315 19.5442Z" fill="#1C1A1A"/>
</svg>